<svg width="94" height="80" viewBox="0 0 94 80" fill="none" xmlns="http://www.w3.org/2000/svg">
<path d="M2.28565 52.5C1.02272 52.5 0 53.3629 0 54.4285V77.5711C0 78.6371 1.02272 79.5 2.28565 79.5H13.7144C14.9773 79.5 16 78.6371 16 77.5711V54.4285C16 53.3629 14.9773 52.5 13.7144 52.5H2.28565Z" fill="#A9B6CB"/>
<path d="M28.2856 28.5C27.0227 28.5 26 30.13 26 32.1428V75.8565C26 77.87 27.0227 79.5 28.2856 79.5H39.7144C40.9773 79.5 42 77.87 42 75.8565V32.1428C42 30.13 40.9773 28.5 39.7144 28.5H28.2856Z" fill="#A9B6CB"/>
<path d="M54.1337 79.5H65.8668C67.045 79.5 68 77.8933 68 75.9085V4.09081C68 2.10672 67.045 0.5 65.8668 0.5H54.1337C52.955 0.5 52 2.10672 52 4.09081V75.9085C52 77.8933 52.9545 79.5 54.1337 79.5Z" fill="#A9B6CB"/>
<path d="M94 76.1994V16.8006C94 14.9772 92.9768 13.5 91.7148 13.5H80.2852C79.0228 13.5 78 14.9772 78 16.8006V76.1994C78 78.0234 79.0228 79.5 80.2852 79.5H91.7143C92.9768 79.5 94 78.0234 94 76.1994Z" fill="#A9B6CB"/>
</svg>