<svg width="16" height="16" viewBox="0 0 16 16" fill="none" xmlns="http://www.w3.org/2000/svg">
<path fill-rule="evenodd" clip-rule="evenodd" d="M8 14.75C11.7279 14.75 14.75 11.7279 14.75 8C14.75 4.27208 11.7279 1.25 8 1.25C4.27208 1.25 1.25 4.27208 1.25 8C1.25 11.7279 4.27208 14.75 8 14.75ZM8 16C12.4183 16 16 12.4183 16 8C16 3.58172 12.4183 0 8 0C3.58172 0 0 3.58172 0 8C0 12.4183 3.58172 16 8 16ZM6.32838 8.1198C6.37186 8.10321 6.4163 8.08822 6.46161 8.0749C6.46163 8.07489 6.46164 8.07489 6.46165 8.07488C6.62683 8.02632 6.80357 8 6.9872 8H8H9.0128C9.19643 8 9.37317 8.02632 9.53835 8.07488C9.53835 8.07489 9.53836 8.07489 9.53837 8.07489C9.58369 8.08821 9.62814 8.10321 9.67162 8.1198C10.2567 8.34299 10.6667 8.85396 10.6667 9.44714V12.3772C10.6667 12.5371 10.5186 12.6667 10.3359 12.6667H5.66411C5.48142 12.6667 5.33333 12.5371 5.33333 12.3772V9.44714C5.33333 8.85396 5.74333 8.34299 6.32838 8.1198ZM6.61367 6.77345C6.23559 6.40942 6 5.89841 6 5.33334C6 4.23052 6.89719 3.33333 8 3.33333C9.10281 3.33333 10 4.23054 10 5.33334C10 5.8984 9.76442 6.40942 9.38633 6.77345C9.27366 6.88194 9.14832 6.97738 9.0128 7.0573C9.00108 7.06421 8.98928 7.071 8.97741 7.07768C8.68821 7.24036 8.35479 7.33333 8 7.33333C7.64521 7.33333 7.31179 7.24036 7.02259 7.07768C7.01072 7.071 6.99892 7.06421 6.9872 7.0573C6.85168 6.97738 6.72635 6.88194 6.61367 6.77345ZM8.36457 5.98822C8.59814 5.85682 8.75 5.61014 8.75 5.33334C8.75 4.92089 8.41244 4.58333 8 4.58333C7.58755 4.58333 7.25 4.92088 7.25 5.33334C7.25 5.61013 7.40185 5.85681 7.63543 5.98822M8.36456 5.98822C8.25681 6.04883 8.13371 6.08333 8 6.08333C7.8663 6.08333 7.74321 6.04884 7.63546 5.98823M9.0128 9.25H6.9872C6.82614 9.25 6.70718 9.30752 6.64142 9.36506C6.60947 9.39301 6.59459 9.41669 6.58856 9.42915C6.58334 9.43993 6.58333 9.44454 6.58333 9.44714V11.4167H9.41667V9.44714C9.41667 9.44454 9.41666 9.43993 9.41144 9.42915C9.40541 9.41669 9.39053 9.39301 9.35858 9.36506C9.29282 9.30752 9.17386 9.25 9.0128 9.25Z" fill="#647696"/>
</svg>