<svg width="16" height="16" viewBox="0 0 16 16" fill="none" xmlns="http://www.w3.org/2000/svg">
<path d="M13.3333 0H2.66667C1.95942 0 1.28115 0.280951 0.781048 0.781048C0.280951 1.28115 0 1.95942 0 2.66667V13.3333C0 14.0406 0.280951 14.7189 0.781048 15.219C1.28115 15.719 1.95942 16 2.66667 16H13.3333C14.0406 16 14.7189 15.719 15.219 15.219C15.719 14.7189 16 14.0406 16 13.3333V2.66667C16 1.95942 15.719 1.28115 15.219 0.781048C14.7189 0.280951 14.0406 0 13.3333 0ZM14.6667 13.3333C14.6667 13.687 14.5262 14.0261 14.2761 14.2761C14.0261 14.5262 13.687 14.6667 13.3333 14.6667H2.66667C2.31304 14.6667 1.97391 14.5262 1.72386 14.2761C1.47381 14.0261 1.33333 13.687 1.33333 13.3333V2.66667C1.33333 2.31304 1.47381 1.97391 1.72386 1.72386C1.97391 1.47381 2.31304 1.33333 2.66667 1.33333H13.3333C13.687 1.33333 14.0261 1.47381 14.2761 1.72386C14.5262 1.97391 14.6667 2.31304 14.6667 2.66667V13.3333ZM8.66667 4.93333V11.0667C8.66667 11.2435 8.59643 11.413 8.47141 11.5381C8.34638 11.6631 8.17681 11.7333 8 11.7333C7.82319 11.7333 7.65362 11.6631 7.5286 11.5381C7.40357 11.413 7.33333 11.2435 7.33333 11.0667V4.93333C7.33333 4.75652 7.40357 4.58695 7.5286 4.46193C7.65362 4.3369 7.82319 4.26667 8 4.26667C8.17681 4.26667 8.34638 4.3369 8.47141 4.46193C8.59643 4.58695 8.66667 4.75652 8.66667 4.93333ZM5.33333 8.26667V11.0667C5.33333 11.2435 5.2631 11.413 5.13807 11.5381C5.01305 11.6631 4.84348 11.7333 4.66667 11.7333C4.48986 11.7333 4.32029 11.6631 4.19526 11.5381C4.07024 11.413 4 11.2435 4 11.0667V8.26667C4 8.08986 4.07024 7.92029 4.19526 7.79526C4.32029 7.67024 4.48986 7.6 4.66667 7.6C4.84348 7.6 5.01305 7.67024 5.13807 7.79526C5.2631 7.92029 5.33333 8.08986 5.33333 8.26667ZM12 6.26667V11.0667C12 11.2435 11.9298 11.413 11.8047 11.5381C11.6797 11.6631 11.5101 11.7333 11.3333 11.7333C11.1565 11.7333 10.987 11.6631 10.8619 11.5381C10.7369 11.413 10.6667 11.2435 10.6667 11.0667V6.26667C10.6667 6.08986 10.7369 5.92029 10.8619 5.79526C10.987 5.67024 11.1565 5.6 11.3333 5.6C11.5101 5.6 11.6797 5.67024 11.8047 5.79526C11.9298 5.92029 12 6.08986 12 6.26667Z" fill="#647696"/>
</svg>