<svg width="12" height="12" viewBox="0 0 12 12" fill="none" xmlns="http://www.w3.org/2000/svg">
<path fill-rule="evenodd" clip-rule="evenodd" d="M1.5 6C1.5 4.33436 2.40495 2.88009 3.75 2.10202V0.436138C1.55113 1.32622 0 3.48197 0 6C0 9.31371 2.68629 12 6 12C9.31371 12 12 9.31371 12 6C12 3.48197 10.4489 1.32622 8.25 0.436138V2.10202C9.59505 2.88009 10.5 4.33436 10.5 6C10.5 8.48528 8.48528 10.5 6 10.5C3.51472 10.5 1.5 8.48528 1.5 6ZM6 6C6.41421 6 6.75 5.66421 6.75 5.25L6.75 0.75C6.75 0.335787 6.41421 0 6 0C5.58579 0 5.25 0.335787 5.25 0.75L5.25 5.25C5.25 5.66421 5.58579 6 6 6Z" fill="white"/>
</svg>
