<svg width="46" height="58" viewBox="0 0 46 58" fill="none" xmlns="http://www.w3.org/2000/svg">
<path d="M44.949 12.187L43.588 10.826L34.084 1.321C34.083 1.32 34.083 1.32 34.082 1.32L33.312 0.549C32.957 0.195 32.486 0 31.985 0H2.963C1.604 0 0.5 1.105 0.5 2.463V39V55.537C0.5 56.895 1.604 58 2.963 58H43.037C44.395 58 45.5 56.895 45.5 55.537V39V13.515C45.5 13.02 45.299 12.535 44.949 12.187ZM33.5 12V3.565L41.935 12H39.5H33.5ZM34.5 14H37.231C36.885 14.597 36.239 15 35.5 15C34.777 15 34.147 14.611 33.796 14.036C34.028 14.015 34.262 14 34.5 14ZM43.5 55.537C43.5 55.792 43.292 56 43.037 56H2.963C2.708 56 2.5 55.792 2.5 55.537V41H43.5V55.537ZM2.5 39V2.463C2.5 2.208 2.708 2 2.963 2H31.558C31.525 2.126 31.5 2.256 31.5 2.391V12V12.461C28.429 13.429 25.997 15.843 24.998 18.901C24.311 18.346 23.45 18 22.5 18C20.641 18 19.089 19.28 18.642 21H15.5V19H9.5V25H15.5V23H18.421C18.085 25.663 16.436 27.978 14.032 29.163C13.364 27.884 12.04 27 10.5 27C8.294 27 6.5 28.794 6.5 31C6.5 33.206 8.294 35 10.5 35C12.646 35 14.388 33.298 14.482 31.175C17.137 30.024 19.129 27.788 20.006 25.102C20.692 25.655 21.552 26 22.5 26C24.359 26 25.911 24.72 26.358 23H29.5V25H35.5V19H29.5V21H26.569C26.948 17.981 29.013 15.486 31.791 14.482C32.383 15.955 33.818 17 35.5 17C37.359 17 38.911 15.72 39.358 14H43.108C43.243 14 43.373 13.975 43.5 13.942V39H2.5ZM24.5 22C24.5 23.103 23.603 24 22.5 24C21.397 24 20.5 23.103 20.5 22C20.5 20.897 21.397 20 22.5 20C23.603 20 24.5 20.897 24.5 22ZM13.5 23H11.5V21H13.5V23ZM12.5 31C12.5 32.103 11.603 33 10.5 33C9.397 33 8.5 32.103 8.5 31C8.5 29.897 9.397 29 10.5 29C11.603 29 12.5 29.897 12.5 31ZM31.5 21H33.5V23H31.5V21Z" fill="#647696"/>
<path d="M17.5149 51.908H21.3019L22.0259 54H23.7209L20.2209 43.937H18.5939L15.0669 54H16.7759L17.5149 51.908ZM19.4149 46.453L20.9049 50.801H17.8969L19.4149 46.453Z" fill="#647696"/>
<path d="M27.5362 43.924H25.8682V54H27.5362V43.924Z" fill="#647696"/>
</svg>
