<svg width="100" height="100" viewBox="0 0 100 100" fill="none" xmlns="http://www.w3.org/2000/svg">
<path fill-rule="evenodd" clip-rule="evenodd" d="M30 20C24.4772 20 20 24.4772 20 30V70C20 75.5228 24.4772 80 30 80H70C75.5228 80 80 75.5228 80 70V30C80 24.4772 75.5228 20 70 20H30ZM46.781 33.8171C49.9817 33.1804 53.2993 33.5072 56.3143 34.756C59.3293 36.0048 61.9062 38.1197 63.7192 40.8331C65.5323 43.5465 66.5 46.7366 66.5 50V56C66.5 57.3807 65.3807 58.5 64 58.5H63.5C62.1193 58.5 61 57.3807 61 56V50C61 43.9249 56.0751 39 50 39C43.9249 39 39 43.9249 39 50C39 56.0751 43.9249 61 50 61C52.4559 61 54.7237 60.1952 56.5543 58.8349C57.6725 61.5716 60.361 63.5 63.5 63.5H64C68.1421 63.5 71.5 60.1421 71.5 56V50C71.5 45.7477 70.239 41.5909 67.8766 38.0552C65.5141 34.5196 62.1563 31.7639 58.2277 30.1366C54.2991 28.5093 49.9762 28.0835 45.8056 28.9131C41.635 29.7427 37.804 31.7904 34.7972 34.7972C31.7904 37.804 29.7427 41.635 28.9131 45.8056C28.0835 49.9762 28.5093 54.2991 30.1366 58.2277C31.7639 62.1563 34.5196 65.5141 38.0552 67.8766C41.5909 70.239 45.7477 71.5 50 71.5C51.3807 71.5 52.5 70.3807 52.5 69C52.5 67.6193 51.3807 66.5 50 66.5C46.7366 66.5 43.5465 65.5323 40.8331 63.7192C38.1197 61.9062 36.0048 59.3293 34.756 56.3143C33.5072 53.2993 33.1804 49.9817 33.8171 46.781C34.4537 43.5803 36.0252 40.6403 38.3327 38.3327C40.6403 36.0252 43.5803 34.4537 46.781 33.8171ZM50 44C53.3137 44 56 46.6863 56 50C56 53.3137 53.3137 56 50 56C46.6863 56 44 53.3137 44 50C44 46.6863 46.6863 44 50 44Z" fill="#EDF2F7"/>
</svg>
