<svg width="16" height="16" viewBox="0 0 16 16" fill="none" xmlns="http://www.w3.org/2000/svg">
<path d="M0 3C0 1.34315 1.34315 0 3 0H13C14.6569 0 16 1.34315 16 3V13C16 14.6569 14.6569 16 13 16H3C1.34315 16 0 14.6569 0 13V3Z" fill="#718096"/>
<path d="M7.83381 11.1065C8.46946 11.1065 9.15838 10.929 9.6946 10.5099L10.1349 11H11.7116L10.6179 9.74645C11.0227 9.21023 11.2784 8.43963 11.2784 7.45241H10.0249C10.0249 7.92827 9.90767 8.35085 9.71591 8.70952L8.51562 7.33168L8.94176 7.02628C9.55256 6.58594 9.90767 6.03196 9.90767 5.34659C9.90767 4.41619 9.18679 3.63139 8.01847 3.63139C6.82528 3.63139 6.03338 4.4446 6.03338 5.49929C6.03338 6.1456 6.34588 6.68537 6.72585 7.16832C5.93395 7.71165 5.40128 8.22656 5.40128 9.06818C5.40128 10.2152 6.32102 11.1065 7.83381 11.1065ZM8.87784 9.60085C8.57244 9.78906 8.23864 9.89205 7.90838 9.89205C7.27628 9.89205 6.8679 9.50142 6.8679 8.98295C6.8679 8.70597 7.05611 8.38636 7.45739 8.09517L7.5 8.06676L8.87784 9.60085ZM7.78764 6.46875C7.51776 6.12784 7.32955 5.82599 7.32955 5.52415C7.32955 5.15838 7.60653 4.85298 8.02912 4.84943C8.45526 4.84588 8.69673 5.14418 8.69673 5.43182C8.69673 5.73722 8.52983 5.98935 8.16761 6.22017L7.78764 6.46875Z" fill="white"/>
</svg>
