<svg width="16" height="16" viewBox="0 0 16 16" fill="none" xmlns="http://www.w3.org/2000/svg">
<path d="M8.47428 12.268L9.37926 12.2488C9.81925 12.2483 10.2462 12.1025 10.5939 11.834C10.9416 11.5656 11.1678 11.1113 11.2792 10.686H12.2085C12.2254 10.687 12.2438 10.6889 12.263 10.6909C12.3233 10.6972 12.3909 10.7042 12.4409 10.686C12.4634 10.6779 12.4819 10.674 12.4987 10.6705C12.5307 10.6638 12.556 10.6585 12.5895 10.6269C12.6404 10.5789 12.681 10.521 12.7087 10.4567C12.7364 10.3924 12.7507 10.323 12.7507 10.2529C12.7507 10.1828 12.7363 10.1134 12.7086 10.0489C12.6808 9.98438 12.6402 9.92619 12.5893 9.87785C12.5383 9.82952 12.478 9.79205 12.4122 9.76775C12.3463 9.74345 12.2763 9.73283 12.2062 9.73653L11.2792 9.7567C11.1663 9.33105 10.9385 8.93239 10.5899 8.66274C10.2413 8.39309 9.81378 8.24581 9.37379 8.24379L8.46768 8.24368L8.47428 12.268Z" fill="#A9B6CB"/>
<path d="M7.66955 10.573L7.66955 11.2956L6.39128 11.2956L6.38992 12.126H5.54388C5.1324 12.1248 4.73283 11.9877 4.40725 11.7361C4.08166 11.4845 3.84829 11.1324 3.7434 10.7345H2.89736C2.83335 10.7356 2.76977 10.724 2.71032 10.7003C2.65087 10.6765 2.59674 10.6412 2.55108 10.5964C2.50543 10.5515 2.46917 10.498 2.44441 10.4389C2.41966 10.3799 2.40691 10.3165 2.40691 10.2525C2.40691 10.1885 2.41966 10.1252 2.44441 10.0661C2.46917 10.0071 2.50543 9.95358 2.55108 9.90871C2.59674 9.86385 2.65087 9.82852 2.71032 9.8048C2.76977 9.78107 2.83335 9.76943 2.89736 9.77054L3.74476 9.77191C3.84966 9.37402 4.08303 9.02192 4.40861 8.7703C4.73419 8.51869 5.13376 8.38165 5.54524 8.38047L6.39163 8.36104L6.39299 9.21117L7.66955 9.20947V9.93212L6.39299 9.93382V10.5747L7.66955 10.573Z" fill="#A9B6CB"/>
<path fill-rule="evenodd" clip-rule="evenodd" d="M13.2084 7.46955C14.6846 7.81116 15.785 9.13423 15.785 10.7143V11.4544C15.785 13.2937 14.2939 14.7848 12.4545 14.7848H4.63633C2.19448 14.7848 0.214966 12.8053 0.214966 10.3635V9.82955C0.214966 7.90748 1.58197 6.3047 3.39678 5.94039V4.22712C3.39678 2.56348 4.74542 1.21484 6.40906 1.21484C8.07269 1.21484 9.42133 2.56348 9.42133 4.22712V4.2571H9.54542C11.4224 4.2571 12.9724 5.65693 13.2084 7.46955ZM6.40906 2.78484C5.61251 2.78484 4.96678 3.43057 4.96678 4.22712V6.64773H4.95997V7.43273H4.18178C2.85806 7.43273 1.78497 8.50582 1.78497 9.82955V10.3635C1.78497 11.9382 3.06156 13.2148 4.63633 13.2148H12.4545C13.4268 13.2148 14.215 12.4267 14.215 11.4544V10.7143C14.215 9.79128 13.5046 9.03416 12.6007 8.95984H11.6695V7.95119C11.6695 6.77808 10.7185 5.8271 9.54542 5.8271H7.85133V4.22712C7.85133 3.43057 7.2056 2.78484 6.40906 2.78484Z" fill="#A9B6CB"/>
</svg>
