<svg width="16" height="16" viewBox="0 0 16 16" fill="none" xmlns="http://www.w3.org/2000/svg">
<path d="M4.6817 5C3.16792 5 1.91479 6.1 1.67419 7.55H0V8.55H1.67419C1.91479 10 3.15789 11.1 4.6817 11.1H6.16541V5H4.6817Z" fill="#CBD5E0"/>
<path d="M16 7.55H14.2556C14.005 6.1 12.7619 5 11.2381 5H9.75437V6.35H8.11026C7.82956 6.35 7.60901 6.57 7.60901 6.85C7.60901 7.13 7.82956 7.35 8.11026 7.35H9.75437V8.77H8.11026C7.82956 8.77 7.60901 8.99 7.60901 9.27C7.60901 9.55 7.82956 9.77 8.11026 9.77H9.75437V11.1H11.2381C12.7519 11.1 14.005 9.99 14.2456 8.55H15.99V7.55H16Z" fill="#647696"/>
</svg>
