<svg width="100" height="100" viewBox="0 0 100 100" fill="none" xmlns="http://www.w3.org/2000/svg">
<path d="M27.5 49.6667V44.8905C32.9465 48.0886 40.7877 50.1667 50 50.1667C59.2123 50.1667 67.0535 48.0886 72.5 44.8905V49.6667C72.5 53.3288 69.7685 56.034 65.4742 57.8477C61.1959 59.6547 55.5181 60.5 50 60.5C44.4819 60.5 38.8041 59.6547 34.5258 57.8477C30.2315 56.034 27.5 53.3288 27.5 49.6667Z" fill="#EDF1F7" stroke="#EDF1F7"/>
<path d="M27.5 68.6667V63.8905C32.9465 67.0886 40.7877 69.1667 50 69.1667C59.1828 69.1667 67.0343 67.4437 72.5 63.9382V68.6667C72.5 72.3288 69.7685 75.034 65.4742 76.8477C61.1959 78.6547 55.5181 79.5 50 79.5C44.4819 79.5 38.8041 78.6547 34.5258 76.8477C30.2315 75.034 27.5 72.3288 27.5 68.6667Z" fill="#EDF1F7" stroke="#EDF1F7"/>
<path d="M72.5 31C72.5 34.5372 69.7802 37.1617 65.4791 38.9249C61.1991 40.6794 55.5195 41.5 50 41.5C44.4805 41.5 38.8009 40.6794 34.5209 38.9249C30.2198 37.1617 27.5 34.5372 27.5 31C27.5 27.4628 30.2198 24.8383 34.5209 23.0751C38.8009 21.3206 44.4805 20.5 50 20.5C55.5195 20.5 61.1991 21.3206 65.4791 23.0751C69.7802 24.8383 72.5 27.4628 72.5 31Z" fill="#EDF1F7" stroke="#EDF1F7"/>
</svg>
