<svg width="60" height="62" viewBox="0 0 60 62" fill="none" xmlns="http://www.w3.org/2000/svg">
<path d="M48.2544 51.0548C50.1573 52.1777 52.6101 51.5452 53.7326 49.6422L57.9705 42.4577C59.0918 40.5567 58.4615 38.1068 56.5621 36.9829L49.392 32.7405C48.838 32.4127 48.6 31.8091 48.6 31.1652C48.6 30.2614 48.951 29.4068 49.7357 28.9584L56.5316 25.075C58.4479 23.98 59.1151 21.5399 58.0227 19.6221L53.8918 12.3708C52.7976 10.45 50.3527 9.78095 48.433 10.877L41.2516 14.9772C40.6125 15.342 39.8297 15.3139 39.1793 14.9696C38.5219 14.6214 38.09 13.9492 38.09 13.2052V5C38.09 2.79086 36.2991 1 34.09 1H25.77C23.5609 1 21.77 2.79086 21.77 5V13.4367C21.77 14.0388 21.4225 14.5833 20.8916 14.8674C20.3591 15.1524 19.7132 15.1615 19.1981 14.8462L12.164 10.5408C10.2789 9.38696 7.81525 9.98066 6.66269 11.8665L2.31494 18.9806C1.1633 20.865 1.7567 23.3261 3.64054 24.4786L9.84466 28.2742C10.8331 28.8789 11.27 29.9865 11.27 31.1452C11.27 31.7016 11.0536 32.2159 10.5666 32.4851L3.49207 36.3957C1.56205 37.4625 0.859562 39.8902 1.92161 41.8229L5.94043 49.1361C7.00559 51.0745 9.44159 51.7805 11.3782 50.7121L17.8854 47.1223C18.6774 46.6854 19.643 46.7481 20.4294 47.1949C21.2216 47.645 21.7414 48.4705 21.728 49.3815L21.6191 56.7523C21.5864 58.9603 23.3493 60.7771 25.5573 60.811L33.8802 60.9386C36.0892 60.9725 37.9074 59.2092 37.9411 57.0002L38.0588 49.2965C38.0718 48.4461 38.574 47.6838 39.3179 47.2715C40.0938 46.8415 41.0408 46.7979 41.8047 47.2487L48.2544 51.0548Z" fill="white" stroke="#647696" stroke-width="2" stroke-miterlimit="10"/>
<path d="M29.93 43.1532C36.5463 43.1532 41.91 37.7815 41.91 31.1552C41.91 24.5289 36.5463 19.1572 29.93 19.1572C23.3136 19.1572 17.95 24.5289 17.95 31.1552C17.95 37.7815 23.3136 43.1532 29.93 43.1532Z" fill="#E5E5E5" stroke="#647696" stroke-width="2" stroke-miterlimit="10"/>
<path d="M29.93 35.7521C32.465 35.7521 34.52 33.694 34.52 31.1552C34.52 28.6165 32.465 26.5583 29.93 26.5583C27.395 26.5583 25.34 28.6165 25.34 31.1552C25.34 33.694 27.395 35.7521 29.93 35.7521Z" fill="white" stroke="#647696" stroke-width="2" stroke-miterlimit="10"/>
</svg>
