<svg width="60" height="60" viewBox="0 0 60 60" fill="none" xmlns="http://www.w3.org/2000/svg">
<rect width="60" height="60" rx="8" fill="white"/>
<rect x="1" y="1" width="58" height="58" rx="7" fill="#E5E5E5" stroke="#647696" stroke-width="2"/>
<rect x="1" y="15" width="58" height="44" rx="7" fill="white" stroke="#647696" stroke-width="2"/>
<path d="M16 42.351C16 39.4616 17.9376 36.9311 20.7271 36.1776L37.8991 31.5389C44.5036 29.7549 51 34.7293 51 41.5705V41.5705C51 48.0464 45.1407 52.9448 38.7672 51.797L21.2613 48.6445C18.2158 48.096 16 45.4455 16 42.351V42.351Z" stroke="#647696" stroke-width="2"/>
<path d="M16 15L16 42" stroke="#647696" stroke-width="2"/>
<path d="M30 15L30 30" stroke="#647696" stroke-width="2"/>
<path d="M19 18H27" stroke="#647696" stroke-width="2"/>
<path d="M19 22H27" stroke="#647696" stroke-width="2"/>
<path d="M19 26H27" stroke="#647696" stroke-width="2"/>
<path d="M19 30H27" stroke="#647696" stroke-width="2"/>
<circle cx="23.5" cy="42.5" r="2.5" fill="#647696"/>
<circle cx="41" cy="42" r="6" fill="#E5E5E5" stroke="#647696" stroke-width="2"/>
</svg>
