<svg width="16" height="16" viewBox="0 0 16 16" fill="none" xmlns="http://www.w3.org/2000/svg">
<rect x="0.5" y="0.5" width="15" height="15" rx="2.5" fill="#6C5CE7" stroke="#6C5CE7"/>
<path d="M4 10.861C4 10.0828 4.51703 9.39922 5.26593 9.18741L9.47774 7.99619C11.2448 7.49641 13 8.82401 13 10.6604V10.6604C13 12.3952 11.423 13.7026 9.71825 13.3812L5.41701 12.5702C4.59519 12.4153 4 11.6973 4 10.861V10.861Z" stroke="white"/>
<path d="M4 0L4 11.0001" stroke="white"/>
<path d="M9 0V6" stroke="white"/>
<path d="M5 2L8 2" stroke="white"/>
<path d="M5 4H8" stroke="white"/>
<path d="M5 6H8" stroke="white"/>
<circle cx="6.5" cy="10.5" r="0.5" fill="white"/>
<circle cx="10" cy="11" r="1" stroke="white"/>
</svg>
