<svg width="24" height="24" viewBox="0 0 24 24" fill="none" xmlns="http://www.w3.org/2000/svg">
<path fill-rule="evenodd" clip-rule="evenodd" d="M5 1H19C21.2091 1 23 2.79086 23 5V7.75951C22.0878 6.54534 20.6356 5.76 19 5.76H5C3.3644 5.76 1.91223 6.54534 1 7.75951V5C1 2.79086 2.79086 1 5 1ZM1 10.76V19C1 21.2091 2.79086 23 5 23H19C21.2091 23 23 21.2091 23 19V10.76C23 8.55086 21.2091 6.76 19 6.76H12.02V12.48H11.02V6.76H6.26L6.26 15.0737C6.61885 14.744 7.05878 14.4962 7.55382 14.3642L14.7083 12.4563C17.7126 11.6552 20.66 13.9196 20.66 17.0289C20.66 19.9739 17.9989 22.2036 15.0993 21.6882L7.80914 20.3921C6.33435 20.1299 5.26 18.8478 5.26 17.3498C5.26 16.9912 5.32176 16.6441 5.43638 16.32H5.26L5.26 6.76H5C2.79086 6.76 1 8.55086 1 10.76ZM0 10.76V5C0 2.23858 2.23858 0 5 0H19C21.7614 0 24 2.23858 24 5V10.76V19C24 21.7614 21.7614 24 19 24H5C2.23858 24 0 21.7614 0 19V10.76ZM19.66 17.0289C19.66 14.5766 17.3354 12.7907 14.966 13.4226L7.81148 15.3304C6.89658 15.5744 6.26 16.403 6.26 17.3498C6.26 18.363 6.98666 19.2302 7.98418 19.4076L15.2744 20.7036C17.5612 21.1102 19.66 19.3516 19.66 17.0289ZM7.68 8.66H9.6V7.66H7.68V8.66ZM9.6 10.58H7.68V9.58H9.6V10.58ZM7.68 12.5H9.6V11.5H7.68V12.5ZM10.56 17.28C10.56 17.8102 10.1302 18.24 9.6 18.24C9.06981 18.24 8.64 17.8102 8.64 17.28C8.64 16.7498 9.06981 16.32 9.6 16.32C10.1302 16.32 10.56 16.7498 10.56 17.28ZM13.94 17.28C13.94 16.4958 14.5758 15.86 15.36 15.86C16.1442 15.86 16.78 16.4958 16.78 17.28C16.78 18.0642 16.1442 18.7 15.36 18.7C14.5758 18.7 13.94 18.0642 13.94 17.28ZM15.36 14.86C14.0235 14.86 12.94 15.9435 12.94 17.28C12.94 18.6165 14.0235 19.7 15.36 19.7C16.6965 19.7 17.78 18.6165 17.78 17.28C17.78 15.9435 16.6965 14.86 15.36 14.86Z" fill="#647696"/>
</svg>
