<svg width="16" height="16" viewBox="0 0 16 16" fill="none" xmlns="http://www.w3.org/2000/svg">
<path fill-rule="evenodd" clip-rule="evenodd" d="M3.5 1H3C1.89543 1 1 1.89543 1 3V13C1 14.1046 1.89543 15 3 15H13C14.1046 15 15 14.1046 15 13V3C15 1.89543 14.1046 1 13 1H9.5V6H8.5V1H4.5L4.5 8.99573C4.68996 8.86949 4.90154 8.77086 5.12986 8.70629L9.34167 7.51507C11.4279 6.92503 13.5 8.49237 13.5 10.6604C13.5 12.7085 11.6382 14.252 9.62561 13.8726L5.32437 13.0616C4.31211 12.8707 3.5669 12.0164 3.50427 11H3.5V10.8625L3.5 10.861L3.5 10.8596L3.5 1ZM4.5 10.8621C4.50052 11.4576 4.92445 11.9685 5.50966 12.0789L9.81089 12.8899C11.2078 13.1533 12.5 12.0819 12.5 10.6604C12.5 9.15564 11.0618 8.06779 9.61382 8.47732L5.40201 9.66854C4.86875 9.81936 4.50048 10.3059 4.5 10.86L4.5 10.861L4.5 10.8621ZM3 0C1.34315 0 0 1.34315 0 3V13C0 14.6569 1.34315 16 3 16H13C14.6569 16 16 14.6569 16 13V3C16 1.34315 14.6569 0 13 0H3ZM5 2.5H8V1.5H5V2.5ZM8 4.5H5V3.5H8V4.5ZM5 6.5H8V5.5H5V6.5ZM7 10.5C7 10.7761 6.77614 11 6.5 11C6.22386 11 6 10.7761 6 10.5C6 10.2239 6.22386 10 6.5 10C6.77614 10 7 10.2239 7 10.5ZM9.5 11C9.5 10.7239 9.72386 10.5 10 10.5C10.2761 10.5 10.5 10.7239 10.5 11C10.5 11.2761 10.2761 11.5 10 11.5C9.72386 11.5 9.5 11.2761 9.5 11ZM10 9.5C9.17157 9.5 8.5 10.1716 8.5 11C8.5 11.8284 9.17157 12.5 10 12.5C10.8284 12.5 11.5 11.8284 11.5 11C11.5 10.1716 10.8284 9.5 10 9.5Z" fill="#647696"/>
</svg>
