<svg width="17" height="16" viewBox="0 0 17 16" fill="none" xmlns="http://www.w3.org/2000/svg">
<path fill-rule="evenodd" clip-rule="evenodd" d="M7.23182 0.795578C6.84304 0.0650699 5.93611 -0.212592 5.205 0.175057L3.33214 1.16808C2.59934 1.55663 2.32098 2.46614 2.71078 3.19827L3.57422 4.81999C3.60342 4.87482 3.61595 4.96707 3.55406 5.09945L1.60762 5.03993C0.778731 5.01458 0.0865516 5.66663 0.0624081 6.49555L0.000633121 8.61649C-0.0234592 9.44366 0.626875 10.1341 1.45401 10.1595L3.34292 10.2174C3.37022 10.2182 3.42569 10.2382 3.46842 10.3117C3.502 10.3695 3.4921 10.4177 3.47886 10.4394L2.50509 12.0354C2.07377 12.7424 2.29697 13.6651 3.0037 14.0968L4.81679 15.2042C5.52408 15.6362 6.44769 15.4127 6.87926 14.7052L7.89526 13.0394C7.90494 13.0235 7.93474 12.9975 7.9908 12.9988C8.0652 13.0005 8.10127 13.0361 8.11089 13.0536L9.02099 14.7115C9.42013 15.4386 10.3336 15.7038 11.06 15.3034L12.9174 14.2795C13.6426 13.8797 13.9067 12.9678 13.5072 12.2423L12.5032 10.4192L12.5203 10.4285C12.5395 10.3932 12.5605 10.3741 12.5745 10.365C12.5867 10.3572 12.597 10.3544 12.6098 10.3546L14.5937 10.3841C15.4222 10.3965 16.1038 9.73468 16.1159 8.90615L16.1467 6.78611C16.1588 5.95786 15.4972 5.27661 14.669 5.26443L12.5695 5.23356C12.5691 5.23346 12.5686 5.23327 12.5678 5.23293C12.567 5.23255 12.5659 5.23198 12.5645 5.23114C12.5585 5.2275 12.5499 5.22001 12.5425 5.20784C12.5398 5.2035 12.539 5.19988 12.5388 5.19788L13.5921 3.41586C14.0141 2.70182 13.7766 1.7808 13.0618 1.35999L11.2296 0.28134C10.5199 -0.13648 9.60609 0.0960248 9.18238 0.802217L8.15057 2.52189L7.23182 0.795578ZM12.4675 10.3997L12.4967 10.4156C12.4991 10.426 12.4998 10.4365 12.499 10.4463C12.4976 10.4635 12.4919 10.4745 12.4882 10.4797L12.416 10.4281L12.0814 10.1891L12.4675 10.3997ZM12.6246 9.35473C12.1867 9.34821 11.8428 9.60121 11.6564 9.92476C11.4765 10.1955 11.4375 10.5569 11.6107 10.8716L12.6312 12.7247C12.7644 12.9665 12.6764 13.2705 12.4346 13.4037L10.5773 14.4276C10.3351 14.5611 10.0306 14.4727 9.89759 14.2303L8.98749 12.5724C8.7808 12.1959 8.38872 12.0076 8.01372 11.999C7.63917 11.9904 7.25613 12.1668 7.04153 12.5187L6.02553 14.1845C5.88167 14.4203 5.5738 14.4948 5.33804 14.3508L3.52495 13.2434C3.28938 13.0995 3.21498 12.7919 3.35875 12.5563L4.33252 10.9602C4.55794 10.5907 4.52971 10.1478 4.33308 9.80936C4.14685 9.48884 3.80184 9.23101 3.37359 9.21787L1.48467 9.15993C1.20896 9.15147 0.992178 8.92133 1.00021 8.64561L1.06198 6.52467C1.07003 6.24836 1.30076 6.03101 1.57706 6.03946L3.61345 6.10173C3.98167 6.113 4.25455 5.89377 4.39547 5.64715C4.59665 5.2951 4.70139 4.80921 4.45691 4.35003L3.59347 2.7283C3.46353 2.48426 3.55632 2.18109 3.80059 2.05158L5.67345 1.05855C5.91715 0.929333 6.21946 1.02189 6.34905 1.26539L7.33148 3.11134C7.49815 3.42452 7.81814 3.58665 8.12742 3.59655C8.44382 3.60667 8.75848 3.45237 8.93266 3.16206L10.0399 1.31671C10.1811 1.08132 10.4857 1.00381 10.7223 1.14309L12.5544 2.22174C12.7927 2.36201 12.8719 2.66901 12.7312 2.90703L11.6764 4.69165C11.4816 5.02114 11.5007 5.41936 11.688 5.72738C11.8628 6.01478 12.1787 6.22792 12.5542 6.23344L14.6543 6.26433C14.9303 6.26839 15.1509 6.49547 15.1468 6.77155L15.116 8.89159C15.1119 9.16777 14.8848 9.38836 14.6086 9.38425L12.6246 9.35473ZM6.5 8C6.5 7.17157 7.17157 6.5 8 6.5C8.82843 6.5 9.5 7.17157 9.5 8C9.5 8.82843 8.82843 9.5 8 9.5C7.17157 9.5 6.5 8.82843 6.5 8ZM8 5.5C6.61929 5.5 5.5 6.61929 5.5 8C5.5 9.38071 6.61929 10.5 8 10.5C9.38071 10.5 10.5 9.38071 10.5 8C10.5 6.61929 9.38071 5.5 8 5.5Z" fill="#647696"/>
</svg>
