<svg width="15" height="16" viewBox="0 0 15 16" fill="none" xmlns="http://www.w3.org/2000/svg">
  <path fillRule="evenodd" clipRule="evenodd" d="M1 0C0.447715 0 0 0.447715 0 1V13C0 13.5523 0.447715 14 1 14H2V12V3V2H3H7H9.41421C9.50665 2 9.59776 2.0128 9.68519 2.03741L8.12132 0.292893C7.93378 0.105357 7.67943 0 7.41421 0H1Z" fill="#647696" />
  <path fillRule="evenodd" clipRule="evenodd" d="M3 3.92857C3 3.41574 3.41574 3 3.92857 3H9.88463C10.1309 3 10.3671 3.09783 10.5412 3.27197L13.8709 6.98626C14.045 7.1604 14.1429 7.39658 14.1429 7.64286V15.0714C14.1429 15.5843 13.7271 16 13.2143 16H3.92857C3.41574 16 3 15.5843 3 15.0714V3.92857ZM4.85714 4.85714V14.1429H12.2857V8.02748L9.5 4.85714H4.85714Z" fill="#647696" />
</svg>