<svg width="16" height="11" viewBox="0 0 16 11" fill="none" xmlns="http://www.w3.org/2000/svg">
<path fill-rule="evenodd" clip-rule="evenodd" d="M8 1H3C1.89543 1 1 1.89543 1 3V8C1 9.10457 1.89543 10 3 10H8C9.10457 10 10 9.10457 10 8V3C10 1.89543 9.10457 1 8 1ZM3 0C1.34315 0 0 1.34315 0 3V8C0 9.65685 1.34315 11 3 11H8C9.65685 11 11 9.65685 11 8V3C11 1.34315 9.65685 0 8 0H3ZM15 3.76619L13 4.96619V7.03381L15 8.23381L15 3.76619ZM12.4855 4.1087C12.1843 4.28942 12 4.61493 12 4.96619V7.03381C12 7.38507 12.1843 7.71058 12.4855 7.8913L14.4855 9.0913C15.152 9.49122 16 9.0111 16 8.23381V3.76619C16 2.9889 15.152 2.50878 14.4855 2.9087L12.4855 4.1087ZM5.14018 3.2993C4.48886 2.75653 3.5 3.21969 3.5 4.06752V6.93248C3.5 7.78032 4.48886 8.24347 5.14018 7.7007L6.85916 6.26822C7.33891 5.86843 7.33891 5.13157 6.85916 4.73178L5.14018 3.2993ZM4.5 4.06752L6.21898 5.5L4.5 6.93248V4.06752Z" fill="#647696"/>
</svg>
