<svg width="17" height="16" viewBox="0 0 17 16" fill="none" xmlns="http://www.w3.org/2000/svg">
<path fill-rule="evenodd" clip-rule="evenodd" d="M13 1H3C1.89543 1 1 1.89543 1 3V10.3219L2.97985 8.34209L3.34101 7.98095L3.69439 8.3497L7.56795 12.3917L12.3132 7.64645L12.6667 7.29289L13.0203 7.64645L15 9.62616V3C15 1.89543 14.1046 1 13 1ZM1 13V11.7361L3.32579 9.41036L6.86069 13.0989L4.95963 15H3C1.89543 15 1 14.1046 1 13ZM13 15H6.37384L12.6667 8.70711L15 11.0404V13C15 14.1046 14.1046 15 13 15ZM16 13V10.6667L16.0203 10.6464L16 10.6262V3C16 1.34315 14.6569 0 13 0H3C1.34315 0 0 1.34315 0 3V13C0 14.6569 1.34315 16 3 16H13C14.6569 16 16 14.6569 16 13ZM7 5C7 5.55228 6.55228 6 6 6C5.44772 6 5 5.55228 5 5C5 4.44772 5.44772 4 6 4C6.55228 4 7 4.44772 7 5ZM8 5C8 6.10457 7.10457 7 6 7C4.89543 7 4 6.10457 4 5C4 3.89543 4.89543 3 6 3C7.10457 3 8 3.89543 8 5Z" fill="#647696"/>
</svg>
