<svg width="16" height="16" viewBox="0 0 16 16" fill="none" xmlns="http://www.w3.org/2000/svg">
<path fill-rule="evenodd" clip-rule="evenodd" d="M3 1H13C14.1046 1 15 1.89543 15 3V13C15 14.1046 14.1046 15 13 15H3C1.89543 15 1 14.1046 1 13V3C1 1.89543 1.89543 1 3 1ZM0 3C0 1.34315 1.34315 0 3 0H13C14.6569 0 16 1.34315 16 3V13C16 14.6569 14.6569 16 13 16H3C1.34315 16 0 14.6569 0 13V3ZM11.3536 10.3536L13.3536 8.35355L13.7071 8L13.3536 7.64645L11.3536 5.64645L10.6464 6.35355L12.2929 8L10.6464 9.64645L11.3536 10.3536ZM2.64645 7.64645L4.64645 5.64645L5.35355 6.35355L3.70711 8L5.35355 9.64645L4.64645 10.3536L2.64645 8.35355L2.29289 8L2.64645 7.64645ZM9.55279 3.77639L5.55279 11.7764L6.44721 12.2236L10.4472 4.22361L9.55279 3.77639Z" fill="#647696"/>
</svg>
