<svg width="16" height="16" viewBox="0 0 16 16" fill="none" xmlns="http://www.w3.org/2000/svg">
<path fill-rule="evenodd" clip-rule="evenodd" d="M13 1H12.2361C12.7111 1.53076 13 2.23165 13 3V13C13 13.7684 12.7111 14.4692 12.2361 15H13C14.1046 15 15 14.1046 15 13V3C15 1.89543 14.1046 1 13 1ZM3 1H10C11.1046 1 12 1.89543 12 3V13C12 14.1046 11.1046 15 10 15H3C2.86193 15 2.72713 14.986 2.59693 14.9594C1.68556 14.7729 1 13.9665 1 13V3C1 1.89543 1.89543 1 3 1ZM13 0H10H3C1.34315 0 0 1.34315 0 3V13C0 14.4497 1.02835 15.6593 2.3954 15.9391C2.59069 15.979 2.79289 16 3 16H10H13C14.6569 16 16 14.6569 16 13V3C16 1.34315 14.6569 0 13 0ZM3 6.5H10V5.5H3V6.5ZM10 8.5H3V7.5H10V8.5ZM3 10.5H10V9.5H3V10.5ZM3 12.5V11.5H8V12.5H3ZM3.5 4C3.77614 4 4 3.77614 4 3.5C4 3.22386 3.77614 3 3.5 3C3.22386 3 3 3.22386 3 3.5C3 3.77614 3.22386 4 3.5 4ZM6 3.5C6 3.77614 5.77614 4 5.5 4C5.22386 4 5 3.77614 5 3.5C5 3.22386 5.22386 3 5.5 3C5.77614 3 6 3.22386 6 3.5ZM7.5 4C7.77614 4 8 3.77614 8 3.5C8 3.22386 7.77614 3 7.5 3C7.22386 3 7 3.22386 7 3.5C7 3.77614 7.22386 4 7.5 4Z" fill="#647696"/>
</svg>
