<svg width="16" height="16" viewBox="0 0 16 16" fill="none" xmlns="http://www.w3.org/2000/svg">
<path fill-rule="evenodd" clip-rule="evenodd" d="M13 1H3C1.89543 1 1 1.89543 1 3V13C1 14.1046 1.89543 15 3 15H13C14.1046 15 15 14.1046 15 13V3C15 1.89543 14.1046 1 13 1ZM3 0C1.34315 0 0 1.34315 0 3V13C0 14.6569 1.34315 16 3 16H13C14.6569 16 16 14.6569 16 13V3C16 1.34315 14.6569 0 13 0H3ZM4.5 12V4H5.5V12H4.5ZM2.5 7V9H3.5V7H2.5ZM6.5 10V6H7.5V10H6.5ZM8.5 4V12H9.5V4H8.5ZM10.5 9V7H11.5V9H10.5ZM12.5 5V10H13.5V5H12.5Z" fill="#647696"/>
</svg>
