<svg width="60" height="60" viewBox="0 0 60 60" fill="none" xmlns="http://www.w3.org/2000/svg">
<path d="M39.0858 2H9.5C8.94772 2 8.5 2.44771 8.5 3V57C8.5 57.5523 8.94772 58 9.5 58H50.5C51.0523 58 51.5 57.5523 51.5 57V14.4142C51.5 14.149 51.3946 13.8946 51.2071 13.7071L39.7929 2.29289C39.6054 2.10536 39.351 2 39.0858 2Z" fill="white"/>
<path fill-rule="evenodd" clip-rule="evenodd" d="M7.5 3C7.5 1.89543 8.39543 1 9.5 1H39.0858C39.6162 1 40.1249 1.21071 40.5 1.58579L51.9142 13L51.2071 13.7071L51.9142 13C52.2893 13.3751 52.5 13.8838 52.5 14.4142V57C52.5 58.1046 51.6046 59 50.5 59H9.5C8.39543 59 7.5 58.1046 7.5 57V3ZM39.0858 3L9.5 3V57H50.5V14.4142L39.0858 3Z" fill="#647696"/>
<path fill-rule="evenodd" clip-rule="evenodd" d="M38.5 13V2H40.5V13H51.5V15H40.5C39.3954 15 38.5 14.1046 38.5 13Z" fill="#647696"/>
<path fill-rule="evenodd" clip-rule="evenodd" d="M51.5 42H8.5V40H51.5V42Z" fill="#647696"/>
<path d="M22.028 44.9378L18.5 54.9998H20.209L20.947 52.9078H24.734L25.459 54.9998H27.154L23.654 44.9368H22.028V44.9378ZM21.33 51.8008L22.848 47.4528L24.338 51.8008H21.33Z" fill="#647696"/>
<path d="M33.0469 53.6188L30.7089 44.9238H28.8359L31.9669 55.0548H34.0999L37.3809 44.9238H35.5219L33.0469 53.6188Z" fill="#647696"/>
<path d="M41.127 44.9238H39.459V54.9998H41.127V44.9238Z" fill="#647696"/>
<path d="M37.1759 22.1558L26.1759 15.1558C25.8669 14.9608 25.4779 14.9478 25.1569 15.1228C24.8379 15.2988 24.6389 15.6348 24.6389 15.9998V29.9998C24.6389 30.3648 24.8379 30.7008 25.1579 30.8768C25.3079 30.9588 25.4729 30.9998 25.6389 30.9998C25.8259 30.9998 26.0129 30.9468 26.1759 30.8438L37.1759 23.8438C37.4639 23.6598 37.6389 23.3418 37.6389 22.9998C37.6389 22.6578 37.4639 22.3398 37.1759 22.1558ZM26.6389 28.1788V17.8208L34.7759 22.9998L26.6389 28.1788Z" fill="#647696"/>
</svg>
