<svg width="16" height="16" viewBox="0 0 16 16" fill="none" xmlns="http://www.w3.org/2000/svg">
<path d="M8 2C3.58737 2 0 5.5532 0 9.92381C0 11.3084 0.370526 12.6763 1.06105 13.8774C1.17895 14.0776 1.38105 14.1776 1.6 14.1776C1.70105 14.1776 1.80211 14.1443 1.90316 14.0942L3.30105 13.3102C3.58737 13.1434 3.68842 12.7764 3.52 12.4761C3.35158 12.1925 2.98105 12.0924 2.67789 12.2592L1.83579 12.743C1.51579 12.0424 1.31368 11.2917 1.24632 10.5243H2.20632C2.54316 10.5243 2.81263 10.2574 2.81263 9.92381C2.81263 9.59017 2.54316 9.32327 2.20632 9.32327H1.26316C1.33053 8.53923 1.54947 7.80523 1.86947 7.12128L2.69474 7.58837C2.79579 7.63841 2.89684 7.67178 2.99789 7.67178C3.21684 7.67178 3.41895 7.55501 3.53684 7.37151C3.70526 7.08792 3.60421 6.70424 3.31789 6.53742L2.49263 6.07034C2.94737 5.43643 3.48632 4.90262 4.12632 4.45221L4.59789 5.26961C4.71579 5.46979 4.91789 5.56988 5.13684 5.56988C5.2379 5.56988 5.33895 5.53652 5.44 5.48648C5.72632 5.31966 5.82737 4.95266 5.65895 4.65239L5.18737 3.83499C5.87789 3.51803 6.61895 3.31785 7.41053 3.23445V4.1853C7.41053 4.51894 7.68 4.78584 8.01684 4.78584C8.35368 4.78584 8.62316 4.51894 8.62316 4.1853V3.23445C9.41474 3.30117 10.1558 3.51803 10.8463 3.83499L10.3579 4.65239C10.1895 4.93598 10.2905 5.31966 10.5768 5.48648C10.6779 5.53652 10.7789 5.56988 10.88 5.56988C11.0989 5.56988 11.3011 5.45311 11.4189 5.26961L11.8905 4.45221C12.5305 4.90262 13.0695 5.43643 13.5242 6.07034L12.6989 6.53742C12.4126 6.70424 12.3116 7.07124 12.48 7.37151C12.5979 7.57169 12.8 7.67178 13.0189 7.67178C13.12 7.67178 13.2211 7.63841 13.3221 7.58837L14.1474 7.12128C14.4674 7.80523 14.6695 8.53923 14.7537 9.32327H13.7937C13.4568 9.32327 13.1874 9.59017 13.1874 9.92381C13.1874 10.2574 13.4568 10.5243 13.7937 10.5243H14.7368C14.6695 11.2917 14.4674 12.0424 14.1474 12.743L13.3053 12.2592C13.0189 12.0924 12.6316 12.1925 12.4632 12.4761C12.2947 12.7597 12.3958 13.1434 12.6821 13.3102L14.08 14.0942C14.3663 14.2611 14.7368 14.161 14.9221 13.8774C15.6295 12.6763 16 11.3084 16 9.90713C16 5.5532 12.4126 2 8 2Z" fill="#647696"/>
<path d="M10.1887 7.07122L8.53815 8.58926C8.36973 8.52253 8.20131 8.48917 7.9992 8.48917C7.20762 8.48917 6.55078 9.12307 6.55078 9.92379C6.55078 10.7245 7.19078 11.3584 7.9992 11.3584C8.80762 11.3584 9.44762 10.7245 9.44762 9.92379C9.44762 9.77366 9.41394 9.62352 9.38026 9.49007L11.0308 7.95535C11.2834 7.72181 11.2834 7.33813 11.0645 7.10459C10.8287 6.85436 10.4413 6.83768 10.1887 7.07122Z" fill="#647696"/>
</svg>
