<svg width="12" height="14" viewBox="0 0 12 14" fill="none" xmlns="http://www.w3.org/2000/svg">
<path d="M9.56085 6.31641C10.5259 5.60877 11.1231 4.42833 10.9785 3.10878C10.7809 1.30548 9.14325 -9.99994e-06 7.32916 0H0V1L1.44721 1.72361C1.786 1.893 2 2.23926 2 2.61803V11.382C2 11.7607 1.786 12.107 1.44721 12.2764L0 13V14H7.82266C9.92651 14 11.8031 12.4525 11.9845 10.3565C12.1409 8.55075 11.0963 6.96788 9.56085 6.31641ZM5 2H6C7.10455 2 8 2.89539 8 4C8 5.10455 7.10455 6 6 6H5V2ZM7 12H5V8H7C8.10455 8 9 8.89539 9 10C9 11.1046 8.10455 12 7 12Z" fill="#647696"/>
</svg>
