<svg width="16" height="16" viewBox="0 0 16 16" fill="none" xmlns="http://www.w3.org/2000/svg">
<path d="M15.4997 2.06878L15.4995 2.07587V2.08297V4.49345C15.4995 4.49623 15.4992 4.49837 15.4987 4.5H0.500837C0.500359 4.49837 0.5 4.49623 0.5 4.49345V2.0655C0.5 1.73092 0.747891 1.5 1.02842 1.5H14.988C15.2601 1.5 15.5092 1.73674 15.4997 2.06878Z" fill="#A9B6CB" stroke="#A9B6CB"/>
<mask id="path-2-inside-1_3049:10135" fill="white">
<path fill-rule="evenodd" clip-rule="evenodd" d="M2.26659 15C1.5573 15 1 14.4312 1 13.7454V6H15V13.7454C15 14.448 14.4258 15 13.7334 15H2.26659ZM6 8.5C5.86193 8.5 5.75 8.61193 5.75 8.75V9.75C5.75 9.88807 5.86193 10 6 10H10C10.1381 10 10.25 9.88807 10.25 9.75V8.75C10.25 8.61193 10.1381 8.5 10 8.5H6Z"/>
</mask>
<path fill-rule="evenodd" clip-rule="evenodd" d="M2.26659 15C1.5573 15 1 14.4312 1 13.7454V6H15V13.7454C15 14.448 14.4258 15 13.7334 15H2.26659ZM6 8.5C5.86193 8.5 5.75 8.61193 5.75 8.75V9.75C5.75 9.88807 5.86193 10 6 10H10C10.1381 10 10.25 9.88807 10.25 9.75V8.75C10.25 8.61193 10.1381 8.5 10 8.5H6Z" fill="#647696"/>
<path d="M1 6V5H0V6H1ZM15 6H16V5H15V6ZM0 13.7454C0 14.9838 1.00525 16 2.26659 16V14C2.10934 14 2 13.8787 2 13.7454H0ZM0 6V13.7454H2V6H0ZM15 5H1V7H15V5ZM16 13.7454V6H14V13.7454H16ZM13.7334 16C14.9604 16 16 15.0178 16 13.7454H14C14 13.8781 13.8912 14 13.7334 14V16ZM2.26659 16H13.7334V14H2.26659V16ZM6.75 8.75C6.75 9.16421 6.41421 9.5 6 9.5V7.5C5.30964 7.5 4.75 8.05964 4.75 8.75H6.75ZM6.75 9.75V8.75H4.75V9.75H6.75ZM6 9C6.41421 9 6.75 9.33579 6.75 9.75H4.75C4.75 10.4404 5.30964 11 6 11V9ZM10 9H6V11H10V9ZM9.25 9.75C9.25 9.33579 9.58579 9 10 9V11C10.6904 11 11.25 10.4404 11.25 9.75H9.25ZM9.25 8.75V9.75H11.25V8.75H9.25ZM10 9.5C9.58579 9.5 9.25 9.16421 9.25 8.75H11.25C11.25 8.05964 10.6904 7.5 10 7.5V9.5ZM6 9.5H10V7.5H6V9.5Z" fill="#647696" mask="url(#path-2-inside-1_3049:10135)"/>
</svg>
