<svg width="50" height="45" viewBox="0 0 50 45" fill="none" xmlns="http://www.w3.org/2000/svg">
<path d="M36.941 13.999C36.941 6.52482 30.1437 0.659029 22.4023 2.26739C17.7763 3.21348 14.0944 7.02151 13.2211 11.6574C12.5131 15.4181 13.5516 18.895 15.6757 21.4968C16.8558 22.9632 17.8471 24.5716 18.3191 26.3928L19.6172 31.3834H29.7424L30.5921 28.1667C31.2057 25.8488 32.3858 23.7437 33.9672 21.9462C35.8081 19.8174 36.941 17.0501 36.941 13.999Z" fill="#FFF500"/>
<path d="M37.1431 14.2685C37.1431 6.79435 30.3458 0.92856 22.6044 2.53692C17.9784 3.48302 14.2966 7.29105 13.4233 11.9269C12.7152 15.6876 13.7537 19.1645 15.8779 21.7663C17.058 23.2327 18.0492 24.8411 18.5213 26.6623L19.8194 31.653H29.9446L30.7942 28.4363C31.4079 26.1183 32.588 24.0133 34.1693 22.2157C36.0103 20.087 37.1431 17.3196 37.1431 14.2685Z" stroke="#6C5CE7" stroke-width="3" stroke-miterlimit="10" stroke-linecap="round"/>
<path d="M18.3086 37.6611H31.5492" stroke="#6C5CE7" stroke-width="3" stroke-miterlimit="10" stroke-linecap="round"/>
<path d="M22 43H28" stroke="#6C5CE7" stroke-width="3" stroke-miterlimit="10" stroke-linecap="round"/>
<path d="M8.23089 11.8096L2 11.8569" stroke="#6C5CE7" stroke-width="3" stroke-miterlimit="10" stroke-linecap="round"/>
<path d="M7 20L4 22" stroke="#6C5CE7" stroke-width="3" stroke-miterlimit="10" stroke-linecap="round"/>
<path d="M7 3L4 2" stroke="#6C5CE7" stroke-width="3" stroke-miterlimit="10" stroke-linecap="round"/>
<path d="M41.7695 11.8096L48.0004 11.8569" stroke="#6C5CE7" stroke-width="3" stroke-miterlimit="10" stroke-linecap="round"/>
<path d="M43 20L46 22" stroke="#6C5CE7" stroke-width="3" stroke-miterlimit="10" stroke-linecap="round"/>
<path d="M43 3L46 2" stroke="#6C5CE7" stroke-width="3" stroke-miterlimit="10" stroke-linecap="round"/>
</svg>
