<svg width="100" height="100" viewBox="0 0 100 100" fill="none" xmlns="http://www.w3.org/2000/svg">
<path fill-rule="evenodd" clip-rule="evenodd" d="M31.25 24.6875C27.6256 24.6875 24.6875 27.6256 24.6875 31.25V53.75C24.6875 57.3744 27.6256 60.3125 31.25 60.3125H68.75C72.3744 60.3125 75.3125 57.3744 75.3125 53.75V31.25C75.3125 27.6256 72.3744 24.6875 68.75 24.6875H31.25ZM63.2387 36.9887C64.3371 35.8904 64.3371 34.1096 63.2387 33.0113C62.1404 31.9129 60.3596 31.9129 59.2613 33.0113L46.25 46.0225L40.7387 40.5113C39.6404 39.4129 37.8596 39.4129 36.7613 40.5113C35.6629 41.6096 35.6629 43.3904 36.7613 44.4887L46.25 53.9775L63.2387 36.9887Z" fill="#EDF1F7"/>
<path d="M31.25 64.0625C29.6967 64.0625 28.4375 65.3217 28.4375 66.875C28.4375 68.4283 29.6967 69.6875 31.25 69.6875H68.75C70.3033 69.6875 71.5625 68.4283 71.5625 66.875C71.5625 65.3217 70.3033 64.0625 68.75 64.0625H31.25Z" fill="#EDF1F7"/>
<path d="M39.6875 76.25C39.6875 74.6967 40.9467 73.4375 42.5 73.4375H57.5C59.0533 73.4375 60.3125 74.6967 60.3125 76.25C60.3125 77.8033 59.0533 79.0625 57.5 79.0625H42.5C40.9467 79.0625 39.6875 77.8033 39.6875 76.25Z" fill="#EDF1F7"/>
</svg>
