<svg width="16" height="16" viewBox="0 0 16 16" fill="none" xmlns="http://www.w3.org/2000/svg">
<path fill-rule="evenodd" clip-rule="evenodd" d="M1.25 2.5C1.25 1.5335 2.0335 0.75 3 0.75H13C13.9665 0.75 14.75 1.5335 14.75 2.5V8.5C14.75 9.4665 13.9665 10.25 13 10.25H3C2.0335 10.25 1.25 9.4665 1.25 8.5V2.5ZM2.25 12C2.25 11.5858 2.58579 11.25 3 11.25H13C13.4142 11.25 13.75 11.5858 13.75 12C13.75 12.4142 13.4142 12.75 13 12.75H3C2.58579 12.75 2.25 12.4142 2.25 12ZM5.25 14.5C5.25 14.0858 5.58579 13.75 6 13.75H10C10.4142 13.75 10.75 14.0858 10.75 14.5C10.75 14.9142 10.4142 15.25 10 15.25H6C5.58579 15.25 5.25 14.9142 5.25 14.5ZM11.5303 4.03033C11.8232 3.73744 11.8232 3.26256 11.5303 2.96967C11.2374 2.67678 10.7626 2.67678 10.4697 2.96967L7 6.43934L5.53033 4.96967C5.23744 4.67678 4.76256 4.67678 4.46967 4.96967C4.17678 5.26256 4.17678 5.73744 4.46967 6.03033L7 8.56066L11.5303 4.03033Z" fill="#647696"/>
</svg>
