<svg width="12" height="12" viewBox="0 0 12 12" fill="none" xmlns="http://www.w3.org/2000/svg">
<path d="M11.6124 11.6124C11.0958 12.1291 10.5824 11.9965 10.0658 11.4799L0.519868 1.93395C0.00324703 1.41733 -0.129332 0.903962 0.387289 0.387342C0.903909 -0.12928 1.4174 0.00321221 1.93402 0.519834L11.48 10.0658C11.9966 10.5824 12.129 11.0958 11.6124 11.6124Z" fill="#647696"/>
<path d="M0.387557 11.6124C-0.129064 11.0958 0.0034878 10.5824 0.520109 10.0658L10.066 0.519868C10.5827 0.00324703 11.096 -0.129332 11.6127 0.387289C12.1293 0.903909 11.9968 1.4174 11.4802 1.93402L1.93423 11.48C1.41761 11.9966 0.904178 12.129 0.387557 11.6124Z" fill="#647696"/>
</svg>
