<svg width="16" height="16" viewBox="0 0 16 16" fill="none" xmlns="http://www.w3.org/2000/svg">
<path d="M15.4832 15.4833C14.7944 16.1721 14.1099 15.9953 13.4211 15.3065L0.693157 2.57861C0.00432842 1.88978 -0.172444 1.20528 0.516385 0.516457C1.20521 -0.172371 1.88986 0.00428517 2.57869 0.693113L15.3066 13.421C15.9955 14.1099 16.172 14.7944 15.4832 15.4833Z" fill="#647696"/>
<path d="M0.516742 15.4832C-0.172085 14.7944 0.00465039 14.1099 0.693478 13.4211L13.4214 0.693157C14.1102 0.00432842 14.7947 -0.172444 15.4835 0.516385C16.1724 1.20521 15.9957 1.88986 15.3069 2.57869L2.57897 15.3066C1.89014 15.9955 1.20557 16.172 0.516742 15.4832Z" fill="#647696"/>
</svg>
