<svg width="16" height="16" viewBox="0 0 16 16" fill="none" xmlns="http://www.w3.org/2000/svg">
<path d="M7.8815 4.2002C7.47056 4.2002 7.07644 4.36486 6.78586 4.65797C6.49528 4.95108 6.33203 5.34862 6.33203 5.76314V14.1151C6.33203 14.5297 6.49528 14.9272 6.78586 15.2203C7.07644 15.5134 7.47056 15.6781 7.8815 15.6781C8.29245 15.6781 8.68656 15.5134 8.97715 15.2203C9.26773 14.9272 9.43098 14.5297 9.43098 14.1151V5.76314C9.43098 5.34862 9.26773 4.95108 8.97715 4.65797C8.68656 4.36486 8.29245 4.2002 7.8815 4.2002Z" fill="#647696"/>
<path d="M1.78263 7.91228C1.37168 7.91228 0.977567 8.07694 0.686985 8.37005C0.396402 8.66316 0.233154 9.0607 0.233154 9.47522V14.1152C0.233154 14.5297 0.396402 14.9273 0.686985 15.2204C0.977567 15.5135 1.37168 15.6782 1.78263 15.6782C2.19357 15.6782 2.58769 15.5135 2.87827 15.2204C3.16885 14.9273 3.3321 14.5297 3.3321 14.1152V9.47522C3.3321 9.0607 3.16885 8.66316 2.87827 8.37005C2.58769 8.07694 2.19357 7.91228 1.78263 7.91228Z" fill="#647696"/>
<path d="M13.9801 0.488281C13.5692 0.488281 13.1751 0.652949 12.8845 0.946058C12.5939 1.23917 12.4307 1.63671 12.4307 2.05123V14.1152C12.4307 14.3205 12.4707 14.5237 12.5486 14.7133C12.6265 14.903 12.7406 15.0753 12.8845 15.2204C13.0284 15.3655 13.1992 15.4807 13.3872 15.5592C13.5752 15.6377 13.7767 15.6782 13.9801 15.6782C14.1836 15.6782 14.3851 15.6377 14.5731 15.5592C14.7611 15.4807 14.9319 15.3655 15.0758 15.2204C15.2197 15.0753 15.3338 14.903 15.4117 14.7133C15.4895 14.5237 15.5296 14.3205 15.5296 14.1152V2.05123C15.5296 1.63671 15.3664 1.23917 15.0758 0.946058C14.7852 0.652949 14.3911 0.488281 13.9801 0.488281Z" fill="#647696"/>
</svg>
