<svg width="24" height="24" viewBox="0 0 24 24" fill="none" xmlns="http://www.w3.org/2000/svg">
<rect width="24" height="24" rx="5" fill="#A9B6CB"/>
<path d="M19 9.0001C19.5523 9.0001 20 8.55239 20 8.0001C20 7.44782 19.5523 7.0001 19 7.0001V9.0001ZM5 8.0001L4.29288 7.29301C4.10535 7.48055 4 7.7349 4 8.00012C4 8.26534 4.10537 8.51969 4.29291 8.70722L5 8.0001ZM8.70712 5.70709C9.09764 5.31656 9.09763 4.6834 8.70709 4.29288C8.31656 3.90236 7.6834 3.90237 7.29288 4.29291L8.70712 5.70709ZM7.29291 11.7071C7.68344 12.0976 8.3166 12.0976 8.70712 11.7071C9.09764 11.3166 9.09763 10.6834 8.70709 10.2929L7.29291 11.7071ZM19 7.0001H5V9.0001H19V7.0001ZM5.70712 8.7072L8.70712 5.70709L7.29288 4.29291L4.29288 7.29301L5.70712 8.7072ZM4.29291 8.70722L7.29291 11.7071L8.70709 10.2929L5.70709 7.29298L4.29291 8.70722Z" fill="white"/>
<path d="M5 17.0001C4.44771 17.0001 4 16.5524 4 16.0001C4 15.4478 4.44771 15.0001 5 15.0001V17.0001ZM19 16.0001L19.7071 15.293C19.8947 15.4805 20 15.7349 20 16.0001C20 16.2653 19.8946 16.5197 19.7071 16.7072L19 16.0001ZM15.2929 13.7071C14.9024 13.3166 14.9024 12.6834 15.2929 12.2929C15.6834 11.9024 16.3166 11.9024 16.7071 12.2929L15.2929 13.7071ZM16.7071 19.7071C16.3166 20.0976 15.6834 20.0976 15.2929 19.7071C14.9024 19.3166 14.9024 18.6834 15.2929 18.2929L16.7071 19.7071ZM5 15.0001H19V17.0001H5V15.0001ZM18.2929 16.7072L15.2929 13.7071L16.7071 12.2929L19.7071 15.293L18.2929 16.7072ZM19.7071 16.7072L16.7071 19.7071L15.2929 18.2929L18.2929 15.293L19.7071 16.7072Z" fill="white"/>
</svg>
