<svg width="40" height="40" viewBox="0 0 40 40" fill="none" xmlns="http://www.w3.org/2000/svg">
<path fill-rule="evenodd" clip-rule="evenodd" d="M33 17.3861C33 18.924 31.8721 20.2032 30.4 20.4406V22.1615V22.2143V22.8354V22.8573V23.5999C30.4 23.7939 30.2923 23.9717 30.1202 24.0613C30.0445 24.1004 29.9622 24.1199 29.88 24.1199C29.7754 24.1199 29.6708 24.0882 29.5819 24.026L28.9618 23.5999L28.4435 23.2438L28.4 23.2139L25.7199 21.3724V24.386C25.7199 26.0916 24.3315 27.4799 22.6259 27.4799H15.4864L11.6 30.1984L11.5534 30.231L11.026 30.5999L10.4164 31.0263C10.328 31.0887 10.224 31.1199 10.12 31.1199C10.0368 31.1199 9.95358 31.0991 9.88078 31.0627C9.7092 30.9743 9.59999 30.7923 9.59999 30.5999V29.8698V29.8592V29.2142V29.1567V27.4383C8.11801 27.194 7 25.92 7 24.386V18.094C7 16.3884 8.38839 15 10.094 15H14.28V11.0941C14.28 9.3881 15.6679 8 17.3741 8H29.9059C31.6121 8 33 9.3881 33 11.0941V17.3861ZM16.28 15V11.0941C16.28 10.4926 16.7726 10 17.3741 10H29.9059C30.5074 10 31 10.4926 31 11.0941V17.3861C31 17.9251 30.6017 18.3822 30.0816 18.4661L28.4 18.7373V20.4406V20.7872L25.7227 18.9476V18.5C25.7227 18.4477 25.7218 18.3949 25.7199 18.3416V18.094C25.7199 16.3884 24.3315 15 22.6259 15H20.6081C20.5838 15 20.5596 15 20.5355 15L20.5 15H16.28ZM23.7199 18.3804C23.6553 17 22.4454 17 20.5 17H16.28H14.28H10.094C9.49296 17 9 17.493 9 18.094V24.386C9 24.9193 9.38777 25.3763 9.9254 25.465L11.6 25.7411V27.4383V27.7577L14.34 25.8411L14.8563 25.4799H15.4864H22.6259C23.227 25.4799 23.7199 24.987 23.7199 24.386V18.3804Z" fill="#647696"/>
</svg>
