<svg width="16" height="16" viewBox="0 0 16 16" fill="none" xmlns="http://www.w3.org/2000/svg">
<path d="M16 7.71C16 5.11 13.61 3 10.66 3C10.11 3 9.56998 3.07 9.03998 3.22C10.57 4.24 11.56 5.87 11.56 7.71C11.56 9.55 10.57 11.18 9.03998 12.2C9.56998 12.35 10.11 12.42 10.66 12.42C10.97 12.42 11.29 12.39 11.6 12.34C12.95 13.39 14.77 13.64 15.16 13.68C15.19 13.68 15.21 13.66 15.22 13.64C15.22 13.63 15.22 13.63 15.22 13.62C15.12 13.27 14.73 11.78 14.87 10.61C15.59 9.81 15.99 8.78 16 7.71Z" fill="#CBD5E0"/>
<path d="M0.79 13.62C0.78 13.65 0.8 13.68 0.83 13.68C0.84 13.68 0.84 13.68 0.85 13.68C1.24 13.64 3.06 13.39 4.41 12.34C4.72 12.39 5.04 12.41 5.35 12.41C8.3 12.41 10.69 10.3 10.69 7.7C10.69 5.1 8.29 3 5.34 3C2.39 3 0 5.11 0 7.71C0.01 8.78 0.41 9.81 1.13 10.61C1.27 11.78 0.88 13.27 0.79 13.62Z" fill="#647696"/>
<circle cx="12" cy="4" r="4" fill="white"/>
<circle cx="12" cy="4" r="3" fill="#6C5CE7"/>
</svg>
