<svg width="40" height="40" viewBox="0 0 40 40" fill="none" xmlns="http://www.w3.org/2000/svg">
<path fill-rule="evenodd" clip-rule="evenodd" d="M30.1202 24.0613C30.0445 24.1004 29.9623 24.1199 29.88 24.1199C29.7754 24.1199 29.6708 24.0882 29.5819 24.026L26.76 22.0507V17.8533C26.76 15.574 24.9055 13.7195 22.6259 13.7195H14.2801V11.0941C14.2801 9.3881 15.6679 8 17.3741 8H29.9059C31.6121 8 33 9.3881 33 11.0941V17.3861C33 18.924 31.8721 20.2032 30.4 20.4406V23.5999C30.4 23.7939 30.2923 23.9717 30.1202 24.0613ZM9.59999 30.5999V27.4383C8.11801 27.194 7 25.92 7 24.386V18.094C7 16.3884 8.38839 15 10.094 15H22.6259C24.3315 15 25.7199 16.3884 25.7199 18.094V24.386C25.7199 26.0916 24.3315 27.4799 22.6259 27.4799H15.4864L10.4164 31.0263C10.328 31.0887 10.224 31.1199 10.12 31.1199C10.0368 31.1199 9.95358 31.0991 9.88078 31.0627C9.7092 30.9743 9.59999 30.7923 9.59999 30.5999Z" fill="#6C5CE7"/>
</svg>
