<svg width="10" height="10" viewBox="0 0 10 10" fill="none" xmlns="http://www.w3.org/2000/svg">
<path d="M7.80101 1.28111L3.60318 7.17609L2.1382 5.57617C2.01316 5.43962 1.84357 5.3629 1.66674 5.3629C1.48991 5.3629 1.32032 5.43962 1.19528 5.57617C1.07025 5.71273 1 5.89794 1 6.09105C1 6.28417 1.07025 6.46938 1.19528 6.60594L3.19298 8.78765C3.31901 8.92337 3.48878 8.99962 3.66577 9H3.70706C3.80263 8.99453 3.896 8.96662 3.98081 8.91818C4.06561 8.86973 4.13986 8.8019 4.19849 8.71929L8.85979 2.17416C8.96823 2.02179 9.0168 1.82861 8.99482 1.63713C8.97284 1.44565 8.88212 1.27155 8.7426 1.15312C8.60308 1.0347 8.42619 0.98165 8.25086 1.00565C8.07553 1.02966 7.91611 1.12874 7.80767 1.28111H7.80101Z" fill="white" stroke="white"/>
</svg>
