<svg width="40" height="40" viewBox="0 0 40 40" fill="none" xmlns="http://www.w3.org/2000/svg">
<circle cx="20" cy="20" r="20" fill="#6C5CE7"/>
<path d="M25.041 15.4072L18.3169 22.4675L15.2596 19.4089C15.0081 19.1659 14.6713 19.0314 14.3217 19.0345C13.9722 19.0375 13.6377 19.1778 13.3905 19.4251C13.1433 19.6724 13.0031 20.007 13.0001 20.3567C12.997 20.7065 13.1314 21.0434 13.3743 21.295L17.3743 25.2966C17.6243 25.5467 17.9634 25.6872 18.3169 25.6872C18.6705 25.6872 19.0096 25.5467 19.2596 25.2966L26.9263 17.2933C27.0536 17.1703 27.1552 17.0231 27.2251 16.8604C27.295 16.6976 27.3317 16.5226 27.3333 16.3455C27.3348 16.1684 27.3011 15.9927 27.234 15.8288C27.167 15.6649 27.068 15.5159 26.9428 15.3907C26.8176 15.2654 26.6688 15.1664 26.5049 15.0993C26.341 15.0323 26.1655 14.9985 25.9884 15.0001C25.8114 15.0016 25.6364 15.0384 25.4737 15.1083C25.3111 15.1782 25.1639 15.2798 25.041 15.4072Z" fill="white"/>
</svg>
