<svg width="12" height="12" viewBox="0 0 12 12" fill="none" xmlns="http://www.w3.org/2000/svg">
<g clip-path="url(#clip0)">
<path d="M1.71929 9.69471L6.01229 5.40171L10.3053 9.69471C10.4939 9.87687 10.7465 9.97766 11.0087 9.97539C11.2709 9.97311 11.5217 9.86794 11.7071 9.68253C11.8925 9.49712 11.9977 9.24631 12 8.98411C12.0022 8.72192 11.9014 8.46931 11.7193 8.28071L6.71929 3.28071C6.53176 3.09324 6.27745 2.98793 6.01229 2.98793C5.74712 2.98793 5.49282 3.09324 5.30529 3.28071L0.305288 8.28071C0.209778 8.37296 0.133595 8.4833 0.0811863 8.60531C0.0287771 8.72731 0.00119114 8.85853 3.71933e-05 8.99131C-0.00111675 9.12409 0.0241861 9.25577 0.0744667 9.37867C0.124747 9.50156 0.199 9.61321 0.292893 9.70711C0.386786 9.801 0.498438 9.87525 0.621334 9.92553C0.74423 9.97581 0.87591 10.0011 1.00869 9.99996C1.14147 9.99881 1.27269 9.97122 1.39469 9.91881C1.5167 9.8664 1.62704 9.79022 1.71929 9.69471Z" fill="#475161"/>
</g>
<defs>
<clipPath id="clip0">
<rect width="12" height="12" fill="white" transform="translate(12 12) rotate(-180)"/>
</clipPath>
</defs>
</svg>
