<svg width="12" height="12" viewBox="0 0 12 12" fill="none" xmlns="http://www.w3.org/2000/svg">
<g clip-path="url(#clip0)">
<path d="M10.2929 3.29259L5.99992 7.58559L1.70692 3.29259C1.51832 3.11043 1.26571 3.00964 1.00352 3.01192C0.741321 3.0142 0.490508 3.11937 0.3051 3.30477C0.119692 3.49018 0.0145233 3.74099 0.0122448 4.00319C0.00996641 4.26539 0.110761 4.51799 0.292919 4.70659L5.29292 9.70659C5.48045 9.89406 5.73475 9.99938 5.99992 9.99938C6.26508 9.99938 6.51939 9.89406 6.70692 9.70659L11.7069 4.70659C11.8024 4.61435 11.8786 4.504 11.931 4.382C11.9834 4.25999 12.011 4.12877 12.0122 3.99599C12.0133 3.86321 11.988 3.73154 11.9377 3.60864C11.8875 3.48574 11.8132 3.37409 11.7193 3.2802C11.6254 3.18631 11.5138 3.11205 11.3909 3.06177C11.268 3.01149 11.1363 2.98619 11.0035 2.98734C10.8707 2.9885 10.7395 3.01608 10.6175 3.06849C10.4955 3.1209 10.3852 3.19708 10.2929 3.29259V3.29259Z" fill="white"/>
</g>
<defs>
<clipPath id="clip0">
<rect width="12" height="12" fill="white"/>
</clipPath>
</defs>
</svg>
