<svg width="8" height="12" viewBox="0 0 8 12" fill="none" xmlns="http://www.w3.org/2000/svg">
<path d="M1.29308 1.70708L5.58608 6.00008L1.29308 10.2931C1.11092 10.4817 1.01013 10.7343 1.01241 10.9965C1.01469 11.2587 1.11985 11.5095 1.30526 11.6949C1.49067 11.8803 1.74148 11.9855 2.00368 11.9878C2.26588 11.99 2.51848 11.8892 2.70708 11.7071L7.70708 6.70708C7.89455 6.51955 7.99987 6.26525 7.99987 6.00008C7.99987 5.73492 7.89455 5.48061 7.70708 5.29308L2.70708 0.293081C2.61483 0.197571 2.50449 0.121388 2.38248 0.0689792C2.26048 0.01657 2.12926 -0.0110159 1.99648 -0.0121699C1.8637 -0.0133238 1.73202 0.0119791 1.60913 0.0622596C1.48623 0.11254 1.37458 0.186793 1.28069 0.280686C1.18679 0.374579 1.11254 0.486231 1.06226 0.609127C1.01198 0.732023 0.986676 0.863703 0.98783 0.996482C0.988984 1.12926 1.01657 1.26048 1.06898 1.38249C1.12139 1.50449 1.19757 1.61483 1.29308 1.70708Z" fill="white"/>
</svg>
