<svg width="12" height="12" viewBox="0 0 12 12" fill="none" xmlns="http://www.w3.org/2000/svg">
<g clip-path="url(#clip0)">
<path d="M1.73149 9.69373L6.0245 5.40073L10.3175 9.69374C10.5061 9.87589 10.7587 9.97669 11.0209 9.97441C11.2831 9.97213 11.5339 9.86696 11.7193 9.68155C11.9047 9.49615 12.0099 9.24533 12.0122 8.98314C12.0144 8.72094 11.9137 8.46834 11.7315 8.27974L6.7315 3.27974C6.54397 3.09226 6.28966 2.98695 6.0245 2.98695C5.75933 2.98695 5.50502 3.09226 5.3175 3.27973L0.317495 8.27973C0.221985 8.37198 0.145802 8.48233 0.0933934 8.60433C0.0409844 8.72633 0.0133981 8.85755 0.0122443 8.99033C0.0110905 9.12311 0.0363929 9.25479 0.0866738 9.37769C0.136955 9.50058 0.211208 9.61224 0.3051 9.70613C0.398993 9.80002 0.510645 9.87427 0.633541 9.92456C0.756437 9.97484 0.888117 10.0001 1.0209 9.99898C1.15368 9.99783 1.2849 9.97024 1.4069 9.91784C1.5289 9.86543 1.63925 9.78924 1.73149 9.69373V9.69373Z" fill="white"/>
</g>
<defs>
<clipPath id="clip0">
<rect width="12" height="12" fill="white"/>
</clipPath>
</defs>
</svg>
