<svg width="11" height="10" viewBox="0 0 11 10" fill="none" xmlns="http://www.w3.org/2000/svg">
<path d="M6.11111 4.99987H7.22222C7.52778 4.99987 7.77778 5.24431 7.77778 5.55542C7.77778 5.86098 7.53333 6.11098 7.22222 6.11098H5.55556C5.40556 6.11098 5.26667 6.04986 5.16667 5.94986C5.06111 5.84986 5 5.71098 5 5.56098V3.32764C5 3.02764 5.25 2.77764 5.55556 2.77764C5.86111 2.77764 6.11111 3.02764 6.11111 3.32764V4.99987ZM1.16667 3.21098C1.72222 1.76653 2.93333 0.599866 4.54445 0.172088C7.21111 -0.544579 9.95556 1.03875 10.6667 3.70542C11.3778 6.37209 9.8 9.11653 7.13333 9.82764C4.46667 10.5388 1.72222 8.96098 1.00556 6.29431L2.07778 6.00542C2.63333 8.07764 4.76667 9.31098 6.83889 8.75542C8.91111 8.19986 10.1444 6.06653 9.58889 3.99431C9.03333 1.92209 6.9 0.688755 4.82778 1.24431C3.51667 1.59431 2.54444 2.57764 2.14444 3.77764L3.4 4.50542L0.716667 5.22209L0 2.53875L1.16667 3.21098Z" fill="#647696" fill-opacity="0.5"/>
</svg>
