<svg width="24" height="24" viewBox="0 0 24 24" fill="none" xmlns="http://www.w3.org/2000/svg">
<path fill-rule="evenodd" clip-rule="evenodd" d="M5 1H19C21.2091 1 23 2.79086 23 5V19C23 21.2091 21.2091 23 19 23H5C2.79086 23 1 21.2091 1 19V5C1 2.79086 2.79086 1 5 1ZM0 5C0 2.23858 2.23858 0 5 0H19C21.7614 0 24 2.23858 24 5V19C24 21.7614 21.7614 24 19 24H5C2.23858 24 0 21.7614 0 19V5ZM16.6493 15.7363L20.4893 12.3763L20.9193 12L20.4893 11.6237L16.6493 8.26371L15.9907 9.01629L19.4007 12L15.9907 14.9837L16.6493 15.7363ZM3.51075 11.6237L7.35075 8.26371L8.00925 9.01629L4.5993 12L8.00925 14.9837L7.35075 15.7363L3.51075 12.3763L3.0807 12L3.51075 11.6237ZM14.9128 6.49639L9.15279 18.0164L10.0472 18.4636L15.8072 6.94361L14.9128 6.49639Z" fill="#647696"/>
</svg>
