<svg width="33" height="11" viewBox="0 0 33 11" fill="none" xmlns="http://www.w3.org/2000/svg">
<path d="M9.02521 3.73544C8.73438 1.63494 7.11861 0.416193 5.02273 0.416193C2.55291 0.416193 0.692472 2.21662 0.692472 5.27273C0.692472 8.32422 2.52983 10.1293 5.02273 10.1293C7.27095 10.1293 8.76207 8.67507 9.02521 6.87003L7.29865 6.8608C7.08168 7.96875 6.17685 8.59197 5.04581 8.59197C3.51314 8.59197 2.41442 7.44247 2.41442 5.27273C2.41442 3.13991 3.50391 1.95348 5.05043 1.95348C6.19993 1.95348 7.10014 2.6044 7.29865 3.73544H9.02521ZM13.6128 10.1385C15.6903 10.1385 17.0106 8.67507 17.0106 6.48224C17.0106 4.2848 15.6903 2.81676 13.6128 2.81676C11.5354 2.81676 10.2151 4.2848 10.2151 6.48224C10.2151 8.67507 11.5354 10.1385 13.6128 10.1385ZM13.6221 8.79972C12.4726 8.79972 11.9094 7.77486 11.9094 6.47763C11.9094 5.1804 12.4726 4.14169 13.6221 4.14169C14.7531 4.14169 15.3163 5.1804 15.3163 6.47763C15.3163 7.77486 14.7531 8.79972 13.6221 8.79972ZM21.0604 10.1246C22.2791 10.1246 22.8285 9.39986 23.0916 8.88281H23.1932V10H24.8366V0.545454H23.1609V4.08168H23.0916C22.8377 3.56925 22.3161 2.81676 21.065 2.81676C19.4261 2.81676 18.1381 4.10014 18.1381 6.46378C18.1381 8.79972 19.3892 10.1246 21.0604 10.1246ZM21.5266 8.75355C20.4233 8.75355 19.8416 7.78409 19.8416 6.45455C19.8416 5.13423 20.4141 4.18785 21.5266 4.18785C22.6023 4.18785 23.1932 5.07883 23.1932 6.45455C23.1932 7.83026 22.593 8.75355 21.5266 8.75355ZM29.7567 10.1385C31.4094 10.1385 32.545 9.33061 32.8405 8.09801L31.2801 7.92259C31.0539 8.52273 30.4999 8.83665 29.7797 8.83665C28.6995 8.83665 27.9839 8.12571 27.9701 6.91158H32.9097V6.39915C32.9097 3.91087 31.414 2.81676 29.6689 2.81676C27.6377 2.81676 26.3128 4.30788 26.3128 6.49609C26.3128 8.72124 27.6192 10.1385 29.7567 10.1385ZM27.9747 5.78516C28.0255 4.88033 28.6949 4.11861 29.692 4.11861C30.6523 4.11861 31.2986 4.82031 31.3078 5.78516H27.9747Z" fill="#647696"/>
</svg>
