<svg width="24" height="24" viewBox="0 0 24 24" fill="none" xmlns="http://www.w3.org/2000/svg">
<path d="M16.7 15.7008L15.3 14.3008L17.6 12.0008L15.3 9.70078L16.7 8.30078L19.7 11.3008C20.1 11.7008 20.1 12.3008 19.7 12.7008L16.7 15.7008Z" fill="#647696"/>
<path d="M7.3 15.7008L4.3 12.7008C3.9 12.3008 3.9 11.7008 4.3 11.3008L7.3 8.30078L8.7 9.70078L6.4 12.0008L8.7 14.3008L7.3 15.7008Z" fill="#647696"/>
<path d="M10 19.0001C9.9 19.0001 9.8 19.0001 9.7 18.9001C9.2 18.7001 8.9 18.2001 9.1 17.6001L13.1 5.60015C13.3 5.10015 13.8 4.80015 14.4 5.00015C14.9 5.20015 15.2 5.70015 15 6.30015L11 18.3001C10.8 18.7001 10.4 19.0001 10 19.0001Z" fill="#647696"/>
</svg>
