<svg width="16" height="16" viewBox="0 0 16 16" fill="none" xmlns="http://www.w3.org/2000/svg">
<path d="M11.6656 11.2875C12.4594 11.7063 13 12.5406 13 13.5C13 14.8813 11.8813 16 10.5 16C9.11875 16 7.97188 14.8813 7.97188 13.5C7.97188 13.1406 8.075 12.8 8.20938 12.4937L3.8 8.63437C3.42187 8.86562 2.97656 9 2.5 9C1.11937 9 0 7.88125 0 6.5C0 5.11875 1.11937 4 2.5 4C3.25313 4 3.97812 4.35625 4.43437 4.91875L10.0063 2.68937C10.0031 2.62687 10 2.56375 10 2.5C10 1.11937 11.1187 0 12.5 0C13.8813 0 15 1.11937 15 2.5C15 3.775 14.0438 4.82812 12.7844 4.98125L11.6656 11.2875ZM12.5 1.5C11.9469 1.5 11.5 1.94781 11.5 2.5C11.5 3.05219 11.9469 3.5 12.5 3.5C13.0531 3.5 13.5 3.05219 13.5 2.5C13.5 1.94781 13.0531 1.5 12.5 1.5ZM4.99375 6.30937C4.99688 6.37187 4.97188 6.40937 4.97188 6.5C4.97188 6.85938 4.925 7.2 4.79063 7.50625L9.2 11.3656C9.49375 11.1844 9.82812 11.0625 10.1875 11.0188L11.3344 4.7125C11.0375 4.55625 10.775 4.34063 10.5656 4.08125L4.99375 6.30937ZM10.5 12.5C9.94687 12.5 9.5 12.9469 9.5 13.5C9.5 14.0531 9.94687 14.5 10.5 14.5C11.0531 14.5 11.5 14.0531 11.5 13.5C11.5 12.9469 11.0531 12.5 10.5 12.5ZM2.47187 7.5C3.05219 7.5 3.47187 7.05313 3.47187 6.5C3.47187 5.94687 3.05219 5.5 2.47187 5.5C1.94781 5.5 1.47187 5.94687 1.47187 6.5C1.47187 7.05313 1.94781 7.5 2.47187 7.5Z" fill="#647696"/>
</svg>
