<svg width="14" height="14" viewBox="0 0 14 14" fill="none" xmlns="http://www.w3.org/2000/svg">
<path fill-rule="evenodd" clip-rule="evenodd" d="M6.50977 12.55V14H7.50977V0H6.50977V1.55005H3.28266C1.47591 1.55005 0.00488281 2.99918 0.00488281 4.80005V9.30005C0.00488281 11.1009 1.47591 12.55 3.28266 12.55H6.50977Z" fill="#647696"/>
<path fill-rule="evenodd" clip-rule="evenodd" d="M8.70671 2.55005H8.04004V1.55005H8.70671V2.55005ZM10.7067 2.55005H10.04V1.55005H10.7067C10.9235 1.55005 11.1359 1.57095 11.3418 1.61099L11.1508 2.59259C11.0076 2.56473 10.8592 2.55005 10.7067 2.55005ZM12.5998 3.54738C12.4333 3.30221 12.219 3.09092 11.9699 2.92676L12.5203 2.09179C12.8782 2.32772 13.1867 2.63165 13.4271 2.98549L12.5998 3.54738ZM12.9845 4.80005C12.9845 4.64859 12.9695 4.50116 12.9409 4.35895L13.9214 4.16239C13.9629 4.36896 13.9845 4.58224 13.9845 4.80005V5.36255H12.9845V4.80005ZM12.9845 7.61255V6.48755H13.9845V7.61255H12.9845ZM12.9845 9.30005V8.73755H13.9845V9.30005C13.9845 9.51786 13.9629 9.73113 13.9214 9.93771L12.9409 9.74114C12.9695 9.59894 12.9845 9.4515 12.9845 9.30005ZM11.9699 11.1733C12.219 11.0092 12.4333 10.7979 12.5998 10.5527L13.4271 11.1146C13.1867 11.4684 12.8782 11.7724 12.5203 12.0083L11.9699 11.1733ZM10.7067 11.55C10.8592 11.55 11.0076 11.5354 11.1508 11.5075L11.3418 12.4891C11.1359 12.5292 10.9235 12.55 10.7067 12.55H10.04V11.55H10.7067ZM8.04004 11.55H8.70671V12.55H8.04004V11.55Z" fill="#647696"/>
</svg>
