<svg width="196" height="33" viewBox="0 0 196 33" fill="none" xmlns="http://www.w3.org/2000/svg">
<path d="M57.4844 23.3403C56.8762 23.4041 56.289 23.4467 55.7647 23.4467C54.1708 23.4467 52.9964 23.2339 52.2415 22.7445C51.4865 22.2977 50.9832 21.5318 50.7315 20.5105C50.4799 19.4892 50.375 17.9147 50.375 15.8296C50.375 13.7871 50.5218 12.2126 50.7735 11.1913C51.0251 10.1275 51.5284 9.4041 52.2834 8.93601C53.0384 8.46793 54.2338 8.23389 55.8066 8.23389C56.3519 8.23389 56.9181 8.27644 57.5053 8.34027C58.0716 8.4041 58.5749 8.53176 58.9524 8.63814V11.2339C57.757 11.085 56.9391 11.0424 56.5406 11.0424C55.5759 11.0424 54.9258 11.1488 54.5693 11.3403C54.2128 11.5318 54.0031 11.9147 53.8772 12.5105C53.7724 13.085 53.7304 14.2339 53.7304 15.8296C53.7304 17.4254 53.7724 18.5743 53.8772 19.1488C53.9821 19.7232 54.1918 20.1275 54.5693 20.319C54.9258 20.5105 55.5759 20.6169 56.5406 20.6169C57.3585 20.6169 58.1974 20.553 58.9943 20.4254V23.0211C58.5958 23.1488 58.0925 23.2552 57.4844 23.3403Z" fill="black"/>
<path d="M62.475 22.7874C61.72 22.3406 61.2587 21.6597 61.028 20.6597C60.8392 19.681 60.7344 18.064 60.7344 15.8299C60.7344 13.5959 60.8392 12.0001 61.028 11.0001C61.2167 10.0214 61.6781 9.31927 62.475 8.87247C63.23 8.42566 64.4883 8.21289 66.2499 8.21289C68.0534 8.21289 69.3117 8.42566 70.0667 8.87247C70.8217 9.31927 71.2831 10.0001 71.4718 11.0001C71.6606 11.9576 71.7654 13.5533 71.7654 15.8299C71.7654 18.0852 71.6606 19.7023 71.4718 20.6597C71.2831 21.6171 70.8217 22.3406 70.0667 22.7874C69.3117 23.2342 68.0534 23.4469 66.2499 23.4469C64.4883 23.4469 63.23 23.2129 62.475 22.7874ZM67.8018 20.4044C68.0534 20.2554 68.2422 19.8512 68.3051 19.2767C68.368 18.7023 68.41 17.532 68.41 15.8512C68.41 14.1278 68.368 13.0001 68.3051 12.4257C68.2422 11.8512 68.0534 11.4682 67.8018 11.298C67.5501 11.1491 67.0049 11.0852 66.2499 11.0852C65.4949 11.0852 64.9497 11.1491 64.698 11.298C64.4463 11.4469 64.2576 11.8512 64.1947 12.4257C64.1318 13.0001 64.0898 14.1703 64.0898 15.8512C64.0898 17.5746 64.1318 18.7023 64.1947 19.2767C64.2576 19.8512 64.4463 20.2342 64.698 20.4044C64.9497 20.5533 65.4949 20.6171 66.2499 20.6171C67.0049 20.6384 67.5082 20.5533 67.8018 20.4044Z" fill="black"/>
<path d="M81.6201 23.2551L77.3419 14.787H77.237V23.2551H74.0703V8.42529H77.4258L81.4523 16.2125H81.5572V8.42529H84.7239V23.2551H81.6201Z" fill="black"/>
<path d="M89.7181 23.2551V11.3189H86.2578V8.42529H96.4709V11.3189H93.0106V23.2551H89.7181Z" fill="black"/>
<path d="M98.1484 23.2551V8.42529H106.936V11.1913H101.42V14.3615H106.139V17.1274H101.42V20.4466H106.936V23.2125H98.1484V23.2551Z" fill="black"/>
<path d="M116.792 23.2551L112.514 14.787H112.409V23.2551H109.242V8.42529H112.598L116.624 16.2125H116.729V8.42529H119.896V23.2551H116.792Z" fill="black"/>
<path d="M124.843 23.2551V11.3189H121.383V8.42529H131.596V11.3189H128.136V23.2551H124.843Z" fill="black"/>
<path d="M133.086 23.085V20.4467C134.847 20.5956 136.064 20.6595 136.839 20.6595C137.406 20.6595 137.888 20.6169 138.203 20.5957C138.517 20.5318 138.769 20.4467 138.895 20.2978C139.041 20.1488 139.104 19.9999 139.146 19.8297C139.188 19.6595 139.188 19.3829 139.188 19.0212C139.188 18.5531 139.146 18.2127 139.125 18.0425C139.062 17.851 138.937 17.7233 138.769 17.5957C138.58 17.5318 138.307 17.4042 137.867 17.3829L135.518 17.0637C134.449 16.9148 133.715 16.4893 133.316 15.7871C132.918 15.085 132.75 14.1063 132.75 12.8297C132.75 11.5957 132.96 10.6382 133.358 9.97863C133.757 9.31906 134.323 8.89352 135.057 8.65948C135.77 8.44672 136.672 8.34033 137.762 8.34033C139.083 8.34033 140.489 8.48927 141.894 8.78714V11.3829C140.635 11.2339 139.482 11.1701 138.517 11.1701C137.469 11.1701 136.798 11.2765 136.504 11.468C136.315 11.5744 136.21 11.7233 136.189 11.9148C136.147 12.1063 136.126 12.3616 136.126 12.7446C136.126 13.1276 136.168 13.4467 136.189 13.6169C136.231 13.8084 136.336 13.9148 136.483 13.9786C136.63 14.0425 136.881 14.1276 137.28 14.1914L139.796 14.5531C140.363 14.6169 140.845 14.7659 141.202 14.9999C141.558 15.2127 141.894 15.5531 142.145 16.0212C142.439 16.6382 142.586 17.5531 142.586 18.7233C142.586 20.1063 142.397 21.1276 142.019 21.8722C141.621 22.5744 141.118 23.0425 140.468 23.2552C139.817 23.468 138.958 23.5744 137.867 23.5744C136.001 23.4467 134.428 23.2978 133.086 23.085Z" fill="black"/>
<path d="M147.012 23.2551V11.3189H143.594V8.42529H153.807V11.3189H150.368V23.2551H147.012Z" fill="black"/>
<path d="M162.487 23.2551L161.732 20.2976H157.412L156.72 23.2551H153.406L157.328 8.42529H161.942L165.821 23.2551H162.487ZM159.656 11.4678H159.509L158.062 17.5317H161.04L159.656 11.4678Z" fill="black"/>
<path d="M174.148 23.3403C173.54 23.4041 172.953 23.4467 172.429 23.4467C170.835 23.4467 169.661 23.2339 168.906 22.7445C168.151 22.2764 167.647 21.5318 167.396 20.5105C167.144 19.4892 167.039 17.9147 167.039 15.8296C167.039 13.7871 167.186 12.2126 167.438 11.1913C167.689 10.1275 168.192 9.4041 168.947 8.93601C169.702 8.46793 170.898 8.23389 172.471 8.23389C173.016 8.23389 173.582 8.27644 174.169 8.34027C174.736 8.4041 175.239 8.53176 175.616 8.63814V11.2339C174.421 11.085 173.603 11.0424 173.205 11.0424C172.24 11.0424 171.59 11.1488 171.233 11.3403C170.877 11.5318 170.667 11.9147 170.541 12.5105C170.436 13.085 170.395 14.2339 170.395 15.8296C170.395 17.4254 170.436 18.5743 170.541 19.1488C170.646 19.7232 170.856 20.1275 171.233 20.319C171.59 20.5105 172.24 20.6169 173.205 20.6169C174.023 20.6169 174.861 20.553 175.658 20.4254V23.0211C175.26 23.1488 174.757 23.2552 174.148 23.3403Z" fill="black"/>
<path d="M185.242 23.2551L181.97 17.1274H181.068V23.2551H177.797V8.42529H181.068V14.2976H181.97L185.326 8.42529H188.891L184.655 15.5104L188.933 23.2551H185.242Z" fill="black"/>
<path d="M30.0093 13.3189C30.0093 13.6806 29.7157 13.9359 29.4011 13.9359H18.1394C17.7829 13.9359 17.5312 13.6381 17.5312 13.3189V12.0423C17.5312 11.6806 17.8249 11.4253 18.1394 11.4253H29.4011C29.7577 11.4253 30.0093 11.7232 30.0093 12.0423V13.3189Z" fill="#EB5646"/>
<path d="M35.0625 17.1275C35.0625 17.4892 34.7689 17.7445 34.4543 17.7445H20.655C20.2985 17.7445 20.0469 17.4467 20.0469 17.1275V15.8509C20.0469 15.4892 20.3405 15.2339 20.655 15.2339H34.4124C34.7689 15.2339 35.0206 15.5318 35.0206 15.8509L35.0625 17.1275Z" fill="#EB5646"/>
<path d="M38.7959 20.9576C38.7959 21.3193 38.5023 21.5746 38.1877 21.5746H23.1511C22.7946 21.5746 22.543 21.2767 22.543 20.9576V19.681C22.543 19.3193 22.8366 19.064 23.1511 19.064H38.1668C38.5233 19.064 38.7749 19.3618 38.7749 19.681L38.7959 20.9576Z" fill="#EB5646"/>
<path d="M38.7959 24.7662C38.7959 25.1279 38.5023 25.3832 38.1877 25.3832H23.1511C22.7946 25.3832 22.543 25.0853 22.543 24.7662V23.4896C22.543 23.1279 22.8366 22.8726 23.1511 22.8726H38.1668C38.5233 22.8726 38.7749 23.1704 38.7749 23.4896L38.7959 24.7662Z" fill="#EB5646"/>
<path d="M35.0625 28.5533C35.0625 28.915 34.7689 29.1703 34.4543 29.1703H20.655C20.2985 29.1703 20.0469 28.8724 20.0469 28.5533V27.2767C20.0469 26.915 20.3405 26.6597 20.655 26.6597H34.4124C34.7689 26.6597 35.0206 26.9575 35.0206 27.2767L35.0625 28.5533Z" fill="#EB5646"/>
<path d="M30.0093 32.3829C30.0093 32.7446 29.7157 32.9999 29.4011 32.9999H18.1394C17.7829 32.9999 17.5312 32.702 17.5312 32.3829V31.1063C17.5312 30.7446 17.8249 30.4893 18.1394 30.4893H29.4011C29.7577 30.4893 30.0093 30.7871 30.0093 31.1063V32.3829Z" fill="#EB5646"/>
<path d="M8.74609 1.89362C8.74609 2.25532 9.0397 2.51064 9.35427 2.51064H20.616C20.9725 2.51064 21.2242 2.21277 21.2242 1.89362V0.617021C21.2451 0.255319 20.9515 0 20.616 0H9.39621C9.0397 0 8.78804 0.297872 8.78804 0.617021L8.74609 1.89362Z" fill="#EB5646"/>
<path d="M3.73438 5.70221C3.73438 6.06391 4.02798 6.31923 4.34255 6.31923H18.0999C18.4564 6.31923 18.7081 6.02136 18.7081 5.70221V4.42562C18.7081 4.06391 18.4145 3.80859 18.0999 3.80859H4.38449C4.02798 3.80859 3.77632 4.10647 3.77632 4.42562V5.70221H3.73438Z" fill="#EB5646"/>
<path d="M0 9.5318C0 9.8935 0.293602 10.1488 0.608175 10.1488H15.6238C15.9803 10.1488 16.232 9.85095 16.232 9.5318V8.25521C16.232 7.8935 15.9384 7.63818 15.6238 7.63818H0.608175C0.251658 7.63818 0 7.91478 0 8.25521V9.5318Z" fill="#EB5646"/>
<path d="M0 13.3189C0 13.6806 0.293602 13.9359 0.608175 13.9359H15.6238C15.9803 13.9359 16.232 13.6381 16.232 13.3189V12.0423C16.232 11.6806 15.9384 11.4253 15.6238 11.4253H0.608175C0.251658 11.4253 0 11.7232 0 12.0423V13.3189Z" fill="#EB5646"/>
<path d="M3.73438 17.1275C3.73438 17.4892 4.02798 17.7445 4.34255 17.7445H18.0999C18.4564 17.7445 18.7081 17.4467 18.7081 17.1275V15.8509C18.7081 15.4892 18.4145 15.2339 18.0999 15.2339H4.38449C4.02798 15.2339 3.77632 15.5318 3.77632 15.8509V17.1275H3.73438Z" fill="#EB5646"/>
<path d="M8.74609 20.9576C8.74609 21.3193 9.0397 21.5746 9.35427 21.5746H20.616C20.9725 21.5746 21.2242 21.2767 21.2242 20.9576V19.681C21.2242 19.3193 20.9306 19.064 20.616 19.064H9.39621C9.0397 19.064 8.78804 19.3618 8.78804 19.681L8.74609 20.9576Z" fill="#EB5646"/>
<path d="M191.868 11.064V8.91507H191.113V8.46826H193.169V8.91507H192.414V11.064H191.868Z" fill="white"/>
<path d="M193.484 11.0636V8.42529H194.281L194.743 10.2125L195.204 8.42529H196.001V11.0636H195.54V9.02104L195.036 11.0636H194.533L194.03 9.02104V11.0636H193.484Z" fill="white"/>
</svg>
