<svg width="16" height="16" viewBox="0 0 16 16" fill="none" xmlns="http://www.w3.org/2000/svg">
<path d="M0 3C0 1.34315 1.34315 0 3 0H13C14.6569 0 16 1.34315 16 3V13C16 14.6569 14.6569 16 13 16H3C1.34315 16 0 14.6569 0 13V3Z" fill="#EDF1F7"/>
<path d="M5.33807 9.64347H6.73153C6.71449 8.93608 7.01278 8.65483 7.41335 8.65483C7.70312 8.65483 7.85653 8.78693 8.21023 9.09801C8.80682 9.62216 9.25426 9.84375 9.81676 9.84375C10.946 9.84375 11.7173 8.95312 11.6577 7.33807H10.2685C10.2855 8.02415 9.98722 8.3267 9.58665 8.3267C9.28835 8.3267 9.10511 8.16903 8.77699 7.88352C8.15483 7.33381 7.71591 7.14205 7.17898 7.14205C6.02415 7.14205 5.28693 8.02841 5.33807 9.64347Z" fill="#647696"/>
</svg>
