<svg width="40" height="40" viewBox="0 0 40 40" fill="none" xmlns="http://www.w3.org/2000/svg">
<path d="M20 8C26.6208 8 32 13.3792 32 20C32 26.6208 26.6208 32 20 32C13.3792 32 8 26.6208 8 20C8 13.3792 13.3792 8 20 8ZM20.5581 9.18605V14.1395H24.4389C24.2094 13.4179 23.9469 12.7486 23.6453 12.1599C22.7792 10.4689 21.6881 9.44309 20.5581 9.18605ZM19.4419 9.18605C18.3119 9.44309 17.2208 10.4689 16.3547 12.1599C16.0531 12.7486 15.7906 13.4179 15.5611 14.1395H19.4419V9.18605ZM23.2355 9.60465C23.7612 10.1731 24.2359 10.8659 24.6395 11.6541C25.0203 12.3975 25.3489 13.2361 25.6163 14.1395H29.1657C27.7983 12.0037 25.7085 10.3727 23.2355 9.60465ZM16.7645 9.60465C14.2915 10.3727 12.2017 12.0037 10.8343 14.1395H14.3837C14.6511 13.2361 14.9797 12.3975 15.3605 11.6541C15.7641 10.8659 16.2388 10.1731 16.7645 9.60465ZM29.8023 15.2558H25.9041C26.1978 16.5511 26.3745 17.9603 26.4099 19.4419H30.8663C30.7907 17.9467 30.4202 16.5313 29.8023 15.2558ZM24.7529 15.2558H20.5581V19.4419H25.2936C25.2549 17.9473 25.0615 16.531 24.7529 15.2558ZM19.4419 15.2558H15.2471C14.9385 16.531 14.7451 17.9473 14.7064 19.4419H19.4419V15.2558ZM14.0959 15.2558H10.1977C9.57976 16.5313 9.20935 17.9467 9.13372 19.4419H13.5901C13.6255 17.9603 13.8022 16.5511 14.0959 15.2558ZM30.8663 20.5581H26.4099C26.3749 22.0422 26.1983 23.4486 25.9041 24.7442H29.8023C30.4194 23.4681 30.7918 22.0536 30.8663 20.5581ZM25.2936 20.5581H20.5581V24.7442H24.7529C25.0611 23.4704 25.2555 22.0527 25.2936 20.5581ZM19.4419 20.5581H14.7064C14.7445 22.0527 14.9389 23.4704 15.2471 24.7442H19.4419V20.5581ZM13.5901 20.5581H9.13372C9.2082 22.0536 9.5806 23.4681 10.1977 24.7442H14.0959C13.8017 23.4486 13.6251 22.0422 13.5901 20.5581ZM29.1744 25.8605H25.6163C25.3489 26.7626 25.0203 27.5938 24.6395 28.3372C24.2359 29.1253 23.7612 29.8255 23.2355 30.3953C25.7124 29.6261 27.8071 28.0013 29.1744 25.8605ZM24.4389 25.8605H20.5581V30.8227C21.6883 30.564 22.7791 29.5227 23.6453 27.8314C23.9469 27.2427 24.2094 26.581 24.4389 25.8605ZM19.4419 25.8605H15.5611C15.7906 26.581 16.0531 27.2427 16.3547 27.8314C17.2209 29.5227 18.3117 30.564 19.4419 30.8227V25.8605ZM14.3837 25.8605H10.8256C12.1929 28.0013 14.2876 29.6261 16.7645 30.3953C16.2388 29.8255 15.7641 29.1253 15.3605 28.3372C14.9797 27.5938 14.6511 26.7626 14.3837 25.8605Z" fill="#647696" stroke="#647696"/>
</svg>
