<svg width="40" height="40" viewBox="0 0 40 40" fill="none" xmlns="http://www.w3.org/2000/svg">
<path fill-rule="evenodd" clip-rule="evenodd" d="M18.1033 8C16.3608 9.59652 15.0778 11.5742 14.2441 13.7341C13.124 13.257 12.0614 12.6338 11.0703 11.8639C12.8689 9.84741 15.3277 8.44403 18.1033 8Z" fill="#6F5FE7"/>
<path fill-rule="evenodd" clip-rule="evenodd" d="M21.9338 8.01007C24.683 8.45894 27.1225 9.84224 28.9104 11.836C27.9659 12.575 26.9514 13.1877 25.8869 13.6588C25.0268 11.5465 23.7138 9.60764 21.9338 8.01007Z" fill="#6F5FE7"/>
<path fill-rule="evenodd" clip-rule="evenodd" d="M20.6016 8.46503C22.5025 10.0076 23.8836 11.9546 24.7612 14.0947C23.4151 14.5598 22.012 14.8231 20.6016 14.8827V8.46503Z" fill="#6F5FE7"/>
<path fill-rule="evenodd" clip-rule="evenodd" d="M19.3991 8.48383V14.892C18.0416 14.8381 16.6908 14.5901 15.3896 14.161C16.2284 11.98 17.5686 10.0076 19.3991 8.48383Z" fill="#6F5FE7"/>
<path fill-rule="evenodd" clip-rule="evenodd" d="M29.6707 12.7847C31.034 14.6506 31.8796 16.9208 31.9994 19.3923H27.0885C27.0389 17.8333 26.7788 16.2838 26.2998 14.7974C27.4873 14.2787 28.6192 13.6107 29.6707 12.7847Z" fill="#6F5FE7"/>
<path fill-rule="evenodd" clip-rule="evenodd" d="M10.3099 12.8134C11.4116 13.6725 12.6022 14.3585 13.8499 14.883C13.4064 16.3406 13.1588 17.8629 13.108 19.3924H8C8.11932 16.9335 8.95836 14.6739 10.3099 12.8134Z" fill="#6F5FE7"/>
<path fill-rule="evenodd" clip-rule="evenodd" d="M25.1744 15.2443C25.601 16.5877 25.8487 17.9853 25.8974 19.393H20.6016V16.0987C22.1531 16.0383 23.6937 15.7589 25.1744 15.2443Z" fill="#6F5FE7"/>
<path fill-rule="evenodd" clip-rule="evenodd" d="M15.0046 15.3104C16.4324 15.7829 17.9093 16.0537 19.399 16.1079V19.3927H14.3379C14.3866 18.0055 14.6115 16.6327 15.0046 15.3104Z" fill="#6F5FE7"/>
<path fill-rule="evenodd" clip-rule="evenodd" d="M8 20.6066H13.108C13.162 22.1569 13.4206 23.6955 13.878 25.173C12.6341 25.6932 11.44 26.3807 10.3381 27.2332C8.9674 25.3646 8.12028 23.0841 8 20.6066H8Z" fill="#6F5FE7"/>
<path fill-rule="evenodd" clip-rule="evenodd" d="M14.3379 20.6066H19.399V23.9674C17.9226 24.0214 16.4495 24.2804 15.0327 24.7458C14.6281 23.4085 14.3903 22.0093 14.3379 20.6066Z" fill="#6F5FE7"/>
<path fill-rule="evenodd" clip-rule="evenodd" d="M20.6016 20.6066H25.888C25.8276 22.0336 25.5731 23.4505 25.1274 24.8123C23.6608 24.3076 22.136 24.0272 20.6016 23.9674V20.6066Z" fill="#6F5FE7"/>
<path fill-rule="evenodd" clip-rule="evenodd" d="M27.0902 20.6066H32.001C31.8803 23.0965 31.0265 25.388 29.6442 27.2616C28.5846 26.436 27.4389 25.7653 26.2451 25.249C26.7418 23.7477 27.0282 22.1813 27.0902 20.6066Z" fill="#6F5FE7"/>
<path fill-rule="evenodd" clip-rule="evenodd" d="M19.3711 25.184C19.3804 25.184 19.3899 25.184 19.3992 25.184V31.5163C17.5898 29.9983 16.2582 28.0501 15.418 25.896C16.7028 25.475 18.0324 25.2393 19.3711 25.184Z" fill="#6F5FE7"/>
<path fill-rule="evenodd" clip-rule="evenodd" d="M20.6016 25.184C21.9923 25.243 23.3749 25.499 24.7049 25.953C23.8214 28.0639 22.4543 29.9926 20.6016 31.5258V25.184Z" fill="#6F5FE7"/>
<path fill-rule="evenodd" clip-rule="evenodd" d="M14.2818 26.3224C15.1174 28.4552 16.3902 30.413 18.1128 31.9996C15.3495 31.5598 12.8963 30.1733 11.0986 28.1737C12.0921 27.4087 13.1628 26.7958 14.2818 26.3224Z" fill="#6F5FE7"/>
<path fill-rule="evenodd" clip-rule="evenodd" d="M25.8308 26.3886C26.9019 26.857 27.92 27.4634 28.8731 28.2019C27.0802 30.1834 24.6432 31.5601 21.8965 31.9994C23.6482 30.4082 24.9621 28.4843 25.8308 26.3886Z" fill="#6F5FE7"/>
</svg>
