<svg width="196" height="33" viewBox="0 0 196 33" fill="none" xmlns="http://www.w3.org/2000/svg">
<path d="M57.483 23.3404C56.8748 23.4042 56.2876 23.4468 55.7633 23.4468C54.1695 23.4468 52.9951 23.234 52.2401 22.7446C51.4851 22.2978 50.9818 21.5319 50.7302 20.5106C50.4785 19.4893 50.3737 17.9149 50.3737 15.8298C50.3737 13.7872 50.5205 12.2127 50.7721 11.1915C51.0238 10.1276 51.5271 9.40422 52.2821 8.93614C53.037 8.46805 54.2324 8.23401 55.8053 8.23401C56.3505 8.23401 56.9168 8.27656 57.504 8.34039C58.0702 8.40422 58.5735 8.53188 58.951 8.63826V11.234C57.7556 11.0851 56.9377 11.0425 56.5393 11.0425C55.5746 11.0425 54.9245 11.1489 54.568 11.3404C54.2114 11.5319 54.0017 11.9149 53.8759 12.5106C53.771 13.0851 53.7291 14.234 53.7291 15.8298C53.7291 17.4255 53.771 18.5744 53.8759 19.1489C53.9808 19.7234 54.1905 20.1276 54.568 20.3191C54.9245 20.5106 55.5746 20.617 56.5393 20.617C57.3572 20.617 58.196 20.5532 58.993 20.4255V23.0212C58.5945 23.1489 58.0912 23.2553 57.483 23.3404Z" fill="white"/>
<path d="M62.4742 22.7872C61.7192 22.3404 61.2579 21.6596 61.0272 20.6596C60.8384 19.6809 60.7336 18.0638 60.7336 15.8298C60.7336 13.5957 60.8384 12 61.0272 11C61.2159 10.0213 61.6773 9.31915 62.4742 8.87234C63.2292 8.42553 64.4875 8.21277 66.2491 8.21277C68.0527 8.21277 69.3109 8.42553 70.0659 8.87234C70.8209 9.31915 71.2823 10 71.471 11C71.6598 11.9575 71.7646 13.5532 71.7646 15.8298C71.7646 18.0851 71.6598 19.7021 71.471 20.6596C71.2823 21.617 70.8209 22.3404 70.0659 22.7872C69.3109 23.234 68.0527 23.4468 66.2491 23.4468C64.4875 23.4468 63.2292 23.2128 62.4742 22.7872ZM67.801 20.4043C68.0527 20.2553 68.2414 19.8511 68.3043 19.2766C68.3672 18.7021 68.4092 17.5319 68.4092 15.8511C68.4092 14.1277 68.3672 13 68.3043 12.4255C68.2414 11.8511 68.0527 11.4681 67.801 11.2979C67.5493 11.1489 67.0041 11.0851 66.2491 11.0851C65.4941 11.0851 64.9489 11.1489 64.6972 11.2979C64.4455 11.4468 64.2568 11.8511 64.1939 12.4255C64.131 13 64.089 14.1702 64.089 15.8511C64.089 17.5745 64.131 18.7021 64.1939 19.2766C64.2568 19.8511 64.4455 20.234 64.6972 20.4043C64.9489 20.5532 65.4941 20.617 66.2491 20.617C67.0041 20.6383 67.5074 20.5532 67.801 20.4043Z" fill="white"/>
<path d="M81.6213 23.2553L77.3431 14.7872H77.2382V23.2553H74.0715V8.42554H77.427L81.4535 16.2128H81.5584V8.42554H84.7251V23.2553H81.6213Z" fill="white"/>
<path d="M89.7163 23.2553V11.3192H86.256V8.42554H96.4691V11.3192H93.0088V23.2553H89.7163Z" fill="white"/>
<path d="M98.1467 23.2553V8.42554H106.934V11.1915H101.418V14.3617H106.137V17.1277H101.418V20.4468H106.934V23.2128H98.1467V23.2553Z" fill="white"/>
<path d="M116.79 23.2553L112.512 14.7872H112.407V23.2553H109.241V8.42554H112.596L116.623 16.2128H116.728V8.42554H119.894V23.2553H116.79Z" fill="white"/>
<path d="M124.844 23.2553V11.3192H121.383V8.42554H131.596V11.3192H128.136V23.2553H124.844Z" fill="white"/>
<path d="M133.085 23.0851V20.4468C134.847 20.5958 136.063 20.6596 136.839 20.6596C137.406 20.6596 137.888 20.617 138.202 20.5958C138.517 20.5319 138.769 20.4468 138.895 20.2979C139.041 20.149 139.104 20 139.146 19.8298C139.188 19.6596 139.188 19.383 139.188 19.0213C139.188 18.5532 139.146 18.2128 139.125 18.0426C139.062 17.8511 138.936 17.7234 138.769 17.5958C138.58 17.5319 138.307 17.4043 137.867 17.383L135.518 17.0639C134.449 16.9149 133.715 16.4894 133.316 15.7873C132.918 15.0851 132.75 14.1064 132.75 12.8298C132.75 11.5958 132.96 10.6383 133.358 9.97875C133.757 9.31918 134.323 8.89365 135.057 8.6596C135.77 8.44684 136.672 8.34045 137.762 8.34045C139.083 8.34045 140.488 8.48939 141.893 8.78726V11.383C140.635 11.2341 139.482 11.1702 138.517 11.1702C137.468 11.1702 136.797 11.2766 136.504 11.4681C136.315 11.5745 136.21 11.7234 136.189 11.9149C136.147 12.1064 136.126 12.3617 136.126 12.7447C136.126 13.1277 136.168 13.4468 136.189 13.617C136.231 13.8085 136.336 13.9149 136.483 13.9788C136.63 14.0426 136.881 14.1277 137.28 14.1915L139.796 14.5532C140.363 14.617 140.845 14.766 141.201 15C141.558 15.2128 141.893 15.5532 142.145 16.0213C142.439 16.6383 142.586 17.5532 142.586 18.7234C142.586 20.1064 142.397 21.1277 142.019 21.8724C141.621 22.5745 141.118 23.0426 140.467 23.2553C139.817 23.4681 138.957 23.5745 137.867 23.5745C136 23.4468 134.428 23.2979 133.085 23.0851Z" fill="white"/>
<path d="M147.011 23.2553V11.3192H143.592V8.42554H153.805V11.3192H150.366V23.2553H147.011Z" fill="white"/>
<path d="M162.487 23.2553L161.732 20.2979H157.412L156.72 23.2553H153.407L157.328 8.42554H161.942L165.822 23.2553H162.487ZM159.656 11.4681H159.509L158.062 17.5319H161.04L159.656 11.4681Z" fill="white"/>
<path d="M174.148 23.3404C173.539 23.4042 172.952 23.4468 172.428 23.4468C170.834 23.4468 169.66 23.234 168.905 22.7446C168.15 22.2766 167.647 21.5319 167.395 20.5106C167.143 19.4893 167.038 17.9149 167.038 15.8298C167.038 13.7872 167.185 12.2127 167.437 11.1915C167.688 10.1276 168.192 9.40422 168.947 8.93614C169.702 8.46805 170.897 8.23401 172.47 8.23401C173.015 8.23401 173.581 8.27656 174.169 8.34039C174.735 8.40422 175.238 8.53188 175.616 8.63826V11.234C174.42 11.0851 173.602 11.0425 173.204 11.0425C172.239 11.0425 171.589 11.1489 171.233 11.3404C170.876 11.5319 170.666 11.9149 170.541 12.5106C170.436 13.0851 170.394 14.234 170.394 15.8298C170.394 17.4255 170.436 18.5744 170.541 19.1489C170.645 19.7234 170.855 20.1276 171.233 20.3191C171.589 20.5106 172.239 20.617 173.204 20.617C174.022 20.617 174.861 20.5532 175.658 20.4255V23.0212C175.259 23.1489 174.756 23.2553 174.148 23.3404Z" fill="white"/>
<path d="M185.242 23.2553L181.97 17.1277H181.068V23.2553H177.797V8.42554H181.068V14.2979H181.97L185.325 8.42554H188.891L184.654 15.5106L188.933 23.2553H185.242Z" fill="white"/>
<path d="M30.0102 13.3192C30.0102 13.6809 29.7166 13.9362 29.4021 13.9362H18.1403C17.7838 13.9362 17.5322 13.6383 17.5322 13.3192V12.0426C17.5322 11.6809 17.8258 11.4255 18.1403 11.4255H29.4021C29.7586 11.4255 30.0102 11.7234 30.0102 12.0426V13.3192Z" fill="white"/>
<path d="M35.0644 17.1277C35.0644 17.4895 34.7708 17.7448 34.4562 17.7448H20.6569C20.3004 17.7448 20.0488 17.4469 20.0488 17.1277V15.8512C20.0488 15.4895 20.3424 15.2341 20.6569 15.2341H34.4143C34.7708 15.2341 35.0224 15.532 35.0224 15.8512L35.0644 17.1277Z" fill="white"/>
<path d="M38.7974 20.9575C38.7974 21.3192 38.5038 21.5745 38.1892 21.5745H23.1526C22.7961 21.5745 22.5444 21.2766 22.5444 20.9575V19.6809C22.5444 19.3192 22.838 19.0638 23.1526 19.0638H38.1682C38.5247 19.0638 38.7764 19.3617 38.7764 19.6809L38.7974 20.9575Z" fill="white"/>
<path d="M38.7974 24.7659C38.7974 25.1276 38.5038 25.383 38.1892 25.383H23.1526C22.7961 25.383 22.5444 25.0851 22.5444 24.7659V23.4893C22.5444 23.1276 22.838 22.8723 23.1526 22.8723H38.1682C38.5247 22.8723 38.7764 23.1702 38.7764 23.4893L38.7974 24.7659Z" fill="white"/>
<path d="M35.0644 28.5533C35.0644 28.915 34.7708 29.1703 34.4562 29.1703H20.6569C20.3004 29.1703 20.0488 28.8724 20.0488 28.5533V27.2767C20.0488 26.915 20.3424 26.6597 20.6569 26.6597H34.4143C34.7708 26.6597 35.0224 26.9575 35.0224 27.2767L35.0644 28.5533Z" fill="white"/>
<path d="M30.0102 32.3829C30.0102 32.7446 29.7166 32.9999 29.4021 32.9999H18.1403C17.7838 32.9999 17.5322 32.702 17.5322 32.3829V31.1063C17.5322 30.7446 17.8258 30.4893 18.1403 30.4893H29.4021C29.7586 30.4893 30.0102 30.7871 30.0102 31.1063V32.3829Z" fill="white"/>
<path d="M8.74512 1.89362C8.74512 2.25532 9.03872 2.51064 9.35329 2.51064H20.615C20.9715 2.51064 21.2232 2.21277 21.2232 1.89362V0.617021C21.2442 0.255319 20.9506 0 20.615 0H9.39523C9.03872 0 8.78706 0.297872 8.78706 0.617021L8.74512 1.89362Z" fill="white"/>
<path d="M3.73297 5.70221C3.73297 6.06391 4.02657 6.31923 4.34115 6.31923H18.0985C18.455 6.31923 18.7067 6.02136 18.7067 5.70221V4.42562C18.7067 4.06391 18.413 3.80859 18.0985 3.80859H4.38309C4.02657 3.80859 3.77491 4.10647 3.77491 4.42562V5.70221H3.73297Z" fill="white"/>
<path d="M0 9.53192C0 9.89362 0.293602 10.1489 0.608175 10.1489H15.6238C15.9803 10.1489 16.232 9.85107 16.232 9.53192V8.25533C16.232 7.89363 15.9384 7.63831 15.6238 7.63831H0.608175C0.251658 7.63831 0 7.9149 0 8.25533V9.53192Z" fill="white"/>
<path d="M0 13.3192C0 13.6809 0.293602 13.9362 0.608175 13.9362H15.6238C15.9803 13.9362 16.232 13.6383 16.232 13.3192V12.0426C16.232 11.6809 15.9384 11.4255 15.6238 11.4255H0.608175C0.251658 11.4255 0 11.7234 0 12.0426V13.3192Z" fill="white"/>
<path d="M3.73297 17.1277C3.73297 17.4895 4.02657 17.7448 4.34115 17.7448H18.0985C18.455 17.7448 18.7067 17.4469 18.7067 17.1277V15.8512C18.7067 15.4895 18.413 15.2341 18.0985 15.2341H4.38309C4.02657 15.2341 3.77491 15.532 3.77491 15.8512V17.1277H3.73297Z" fill="white"/>
<path d="M8.74512 20.9575C8.74512 21.3192 9.03872 21.5745 9.35329 21.5745H20.615C20.9715 21.5745 21.2232 21.2766 21.2232 20.9575V19.6809C21.2232 19.3192 20.9296 19.0638 20.615 19.0638H9.39523C9.03872 19.0638 8.78706 19.3617 8.78706 19.6809L8.74512 20.9575Z" fill="white"/>
<path d="M191.869 11.0638V8.91483H191.114V8.46802H193.169V8.91483H192.414V11.0638H191.869Z" fill="white"/>
<path d="M193.483 11.0638V8.42554H194.28L194.742 10.2128L195.203 8.42554H196V11.0638H195.539V9.02128L195.035 11.0638H194.532L194.029 9.02128V11.0638H193.483Z" fill="white"/>
</svg>
