<svg width="49" height="48" viewBox="0 0 49 48" fill="none" xmlns="http://www.w3.org/2000/svg">
<path fill-rule="evenodd" clip-rule="evenodd" d="M20.2065 0C16.7215 3.19304 14.1556 7.14849 12.4881 11.4683C10.2479 10.514 8.12267 9.26755 6.14062 7.7278C9.73777 3.69482 14.6554 0.888067 20.2065 0Z" fill="#EDF1F7"/>
<path fill-rule="evenodd" clip-rule="evenodd" d="M27.8672 0.0195312C33.3657 0.917277 38.2447 3.68386 41.8205 7.67138C39.9314 9.14933 37.9025 10.3748 35.7734 11.3169C34.0533 7.09232 31.4272 3.21466 27.8672 0.0195312Z" fill="#EDF1F7"/>
<path fill-rule="evenodd" clip-rule="evenodd" d="M25.2031 0.929688C29.005 4.0149 31.7673 7.90875 33.5224 12.1891C30.8301 13.1192 28.024 13.6459 25.2031 13.7651V0.929688Z" fill="#EDF1F7"/>
<path fill-rule="evenodd" clip-rule="evenodd" d="M22.7992 0.967773V13.7841C20.0842 13.6764 17.3825 13.1802 14.7803 12.3221C16.4577 7.96007 19.1381 4.0154 22.7992 0.967773Z" fill="#EDF1F7"/>
<path fill-rule="evenodd" clip-rule="evenodd" d="M43.3424 9.56934C46.0689 13.3011 47.7601 17.8416 47.9998 22.7844H38.1781C38.0787 19.6665 37.5586 16.5675 36.6006 13.5946C38.9756 12.5572 41.2393 11.2213 43.3424 9.56934Z" fill="#EDF1F7"/>
<path fill-rule="evenodd" clip-rule="evenodd" d="M4.61984 9.62695C6.82315 11.3453 9.20446 12.7173 11.6997 13.7662C10.8128 16.6814 10.3175 19.726 10.2161 22.7851H0C0.238636 17.8673 1.91672 13.3481 4.61984 9.62695Z" fill="#EDF1F7"/>
<path fill-rule="evenodd" clip-rule="evenodd" d="M34.3488 14.4883C35.202 17.1751 35.6973 19.9704 35.7948 22.7857H25.2031V16.1971C28.3062 16.0764 31.3875 15.5176 34.3488 14.4883Z" fill="#EDF1F7"/>
<path fill-rule="evenodd" clip-rule="evenodd" d="M14.0092 14.6211C16.8647 15.5661 19.8186 16.1076 22.798 16.216V22.7856H12.6758C12.7733 20.0113 13.2231 17.2656 14.0092 14.6211Z" fill="#EDF1F7"/>
<path fill-rule="evenodd" clip-rule="evenodd" d="M0 25.2129H10.2161C10.324 28.3134 10.8411 31.3907 11.7561 34.3457C9.26816 35.386 6.88 36.7609 4.67615 38.466C1.93481 34.7289 0.24056 30.1679 5.73108e-07 25.2129H0Z" fill="#EDF1F7"/>
<path fill-rule="evenodd" clip-rule="evenodd" d="M12.6758 25.2129H22.798V31.9344C19.8452 32.0423 16.899 32.5604 14.0655 33.4913C13.2563 30.8167 12.7806 28.0181 12.6758 25.2129Z" fill="#EDF1F7"/>
<path fill-rule="evenodd" clip-rule="evenodd" d="M25.2031 25.2129H35.776C35.6553 28.0669 35.1463 30.9005 34.2548 33.6242C31.3215 32.6148 28.272 32.0541 25.2031 31.9344V25.2129Z" fill="#EDF1F7"/>
<path fill-rule="evenodd" clip-rule="evenodd" d="M38.1814 25.2129H48.0031C47.7615 30.1926 46.054 34.7755 43.2894 38.5229C41.1701 36.8716 38.8787 35.5303 36.4912 34.4976C37.4846 31.4949 38.0573 28.3622 38.1814 25.2129Z" fill="#EDF1F7"/>
<path fill-rule="evenodd" clip-rule="evenodd" d="M22.7421 34.3682C22.7607 34.3682 22.7799 34.3682 22.7985 34.3682V47.0327C19.1796 43.9968 16.5164 40.1004 14.8359 35.7922C17.4056 34.9502 20.0647 34.4786 22.7421 34.3682Z" fill="#EDF1F7"/>
<path fill-rule="evenodd" clip-rule="evenodd" d="M25.2031 34.3682C27.9846 34.486 30.7498 34.9982 33.4098 35.9061C31.6429 40.1279 28.9086 43.9854 25.2031 47.0516V34.3682Z" fill="#EDF1F7"/>
<path fill-rule="evenodd" clip-rule="evenodd" d="M12.5625 36.6445C14.2338 40.9099 16.7794 44.8257 20.2246 47.9989C14.6981 47.1192 9.79169 44.3463 6.19629 40.347C8.1832 38.817 10.3246 37.5912 12.5625 36.6445Z" fill="#EDF1F7"/>
<path fill-rule="evenodd" clip-rule="evenodd" d="M35.6616 36.7773C37.8038 37.7141 39.8399 38.9269 41.7462 40.4039C38.1605 44.3668 33.2864 47.1203 27.793 47.9988C31.2964 44.8166 33.9241 40.9688 35.6616 36.7773Z" fill="#EDF1F7"/>
</svg>
