<svg width="12" height="12" viewBox="0 0 12 12" fill="none" xmlns="http://www.w3.org/2000/svg">
<path d="M6.23172 0.95278L4.70969 2.44179C4.56925 2.5818 4.48954 2.77171 4.4879 2.97029C4.48625 3.16887 4.5628 3.36009 4.70091 3.50242C4.83902 3.64474 5.02754 3.7267 5.22555 3.73048C5.42356 3.73426 5.61505 3.65956 5.75847 3.52261L7.28952 2.02656C7.46309 1.84564 7.67095 1.7013 7.90091 1.60203C8.13086 1.50275 8.37827 1.45053 8.62862 1.44843C8.87897 1.44634 9.12722 1.4944 9.3588 1.58981C9.59037 1.68522 9.80061 1.82605 9.97718 2.00404C10.1537 2.18203 10.2931 2.39358 10.387 2.6263C10.4809 2.85901 10.5275 3.10819 10.5241 3.35922C10.5207 3.61024 10.4673 3.85806 10.3671 4.08811C10.2669 4.31817 10.1219 4.52584 9.94053 4.69894L8.4556 6.22615C8.38531 6.29677 8.32968 6.38067 8.29196 6.47299C8.25424 6.56532 8.23516 6.66424 8.23584 6.76401C8.23652 6.86378 8.25694 6.96243 8.29591 7.05423C8.33488 7.14603 8.39164 7.22917 8.46289 7.29881C8.53414 7.36846 8.61846 7.42324 8.71097 7.45997C8.80349 7.4967 8.90235 7.51466 9.00183 7.5128C9.10132 7.51094 9.19944 7.4893 9.29053 7.44913C9.38161 7.40897 9.46384 7.35108 9.53245 7.27881L11.0114 5.75864C11.6445 5.12149 12 4.25869 12 3.35923C12 2.45976 11.6445 1.59696 11.0114 0.959818C10.3672 0.344879 9.5123 0.00131332 8.62294 3.75742e-06C7.73358 -0.0013058 6.87764 0.339741 6.23172 0.95278Z" fill="#475161"/>
<path d="M6.21349 8.47439L4.68244 9.97145C4.50803 10.149 4.30026 10.29 4.07114 10.3865C3.84201 10.483 3.59609 10.533 3.34758 10.5335C3.09908 10.5341 2.85292 10.4853 2.62336 10.3899C2.39379 10.2944 2.18537 10.1543 2.01015 9.97762C1.83493 9.80092 1.69638 9.59114 1.60252 9.36041C1.50866 9.12968 1.46135 8.88257 1.46333 8.63339C1.46531 8.38421 1.51654 8.13789 1.61405 7.90869C1.71156 7.67949 1.85342 7.47194 2.03143 7.29806L3.51636 5.77085C3.65281 5.62712 3.72727 5.43525 3.72358 5.23684C3.71989 5.03844 3.63835 4.84948 3.49665 4.71096C3.35494 4.57244 3.16449 4.49551 2.9666 4.49686C2.7687 4.49822 2.57932 4.57774 2.43951 4.71818L0.960598 6.23836C0.339914 6.87695 -0.00514122 7.73487 5.7912e-05 8.62658C0.00525705 9.51828 0.360293 10.3721 0.98838 11.0034C1.61647 11.6346 2.46712 11.9926 3.35637 11.9999C4.24561 12.0071 5.10197 11.6631 5.74024 11.0422L7.26226 9.55521C7.40271 9.4152 7.48241 9.22528 7.48406 9.0267C7.4857 8.82812 7.40916 8.63691 7.27105 8.49458C7.13294 8.35225 6.94442 8.2703 6.74641 8.26652C6.5484 8.26274 6.3569 8.33744 6.21349 8.47439Z" fill="#475161"/>
<path d="M3.44909 8.54333C3.51877 8.61349 3.60159 8.66916 3.69278 8.70715C3.78397 8.74513 3.88175 8.76469 3.9805 8.76469C4.07925 8.76469 4.17702 8.74513 4.26821 8.70715C4.35941 8.66916 4.44222 8.61349 4.5119 8.54333L8.52251 4.52169C8.59437 4.45217 8.65169 4.36899 8.69115 4.27701C8.7306 4.18503 8.75139 4.08609 8.75231 3.98597C8.75322 3.88585 8.73424 3.78654 8.69647 3.69386C8.6587 3.60117 8.60291 3.51695 8.53233 3.44612C8.46176 3.37528 8.37783 3.31925 8.28543 3.28129C8.19303 3.24334 8.09402 3.22421 7.99417 3.22503C7.89432 3.22586 7.79564 3.24661 7.70387 3.28608C7.61211 3.32556 7.5291 3.38297 7.4597 3.45495L3.44909 7.47659C3.37921 7.54662 3.32378 7.62976 3.28596 7.72128C3.24814 7.8128 3.22867 7.91089 3.22867 8.00996C3.22867 8.10902 3.24814 8.20712 3.28596 8.29864C3.32378 8.39015 3.37921 8.4733 3.44909 8.54333Z" fill="#475161"/>
</svg>
