<svg width="13" height="13" viewBox="0 0 13 13" fill="none" xmlns="http://www.w3.org/2000/svg">
<path fill-rule="evenodd" clip-rule="evenodd" d="M2.6931 2.00728C3.68346 1.34799 4.84781 0.996094 6.03891 0.996094V2.32943C5.1125 2.32943 4.20689 2.60312 3.43661 3.1159C2.66633 3.62868 2.06597 4.35751 1.71144 5.21024C1.35692 6.06296 1.26416 7.00127 1.4449 7.90651C1.62563 8.81176 2.07174 9.64328 2.72681 10.2959C3.38188 10.9486 4.21649 11.393 5.1251 11.5731C5.4275 11.633 5.73356 11.6628 6.03891 11.6628L6.03891 12.9961C5.64631 12.9961 5.25279 12.9578 4.86402 12.8808C3.6958 12.6493 2.62273 12.0778 1.7805 11.2387C0.938262 10.3996 0.364693 9.33052 0.132321 8.16663C-0.100051 7.00275 0.0192109 5.79635 0.475025 4.69999C0.930839 3.60364 1.70273 2.66656 2.6931 2.00728Z" fill="#647696"/>
<path fill-rule="evenodd" clip-rule="evenodd" d="M5.36976 6.61863V2.9961H6.70805V7.37355L4.1527 8.90109L3.46415 7.75777L5.36976 6.61863Z" fill="#647696"/>
<path fill-rule="evenodd" clip-rule="evenodd" d="M12.0166 2.32943H7.82329V0.996094H12.0166V2.32943Z" fill="#647696"/>
<path fill-rule="evenodd" clip-rule="evenodd" d="M12.0166 12.9961H7.82329V11.6628H12.0166V12.9961Z" fill="#647696"/>
<path fill-rule="evenodd" clip-rule="evenodd" d="M12.0166 9.44054H7.82329V8.1072H12.0166V9.44054Z" fill="#647696"/>
<path fill-rule="evenodd" clip-rule="evenodd" d="M12.0166 5.88499H7.82329V4.55165H12.0166V5.88499Z" fill="#647696"/>
</svg>
