<svg width="12" height="12" viewBox="0 0 12 12" fill="none" xmlns="http://www.w3.org/2000/svg">
<path d="M8.05 1.75L4.15 5.65C4.05 5.75 4 5.85 4 6V7.5C4 7.8 4.2 8 4.5 8H6C6.15 8 6.25 7.95 6.35 7.85L10.25 3.95L8.05 1.75Z" fill="white"/>
<path d="M11.85 1.65L10.35 0.15C10.15 -0.05 9.85 -0.05 9.65 0.15L8.75 1.05L10.95 3.25L11.85 2.35C12.05 2.15 12.05 1.85 11.85 1.65Z" fill="white"/>
<path d="M6 1H3C1.89543 1 1 1.89543 1 3V9C1 10.1046 1.89543 11 3 11H9C10.1046 11 11 10.1046 11 9V6" stroke="white" stroke-width="2"/>
</svg>
