<svg width="121" height="20" viewBox="0 0 121 20" fill="none" xmlns="http://www.w3.org/2000/svg">
<path d="M35.3356 14.1368C34.9608 14.1828 34.6036 14.204 34.2748 14.204C33.3024 14.204 32.5704 14.0696 32.1072 13.7832C31.6439 13.518 31.3328 13.0513 31.1772 12.4324C31.0216 11.8136 30.9544 10.8624 30.9544 9.60005C30.9544 8.36243 31.0428 7.41123 31.1984 6.78888C31.354 6.14885 31.6616 5.70331 32.1284 5.41689C32.5916 5.13046 33.3236 4.99609 34.296 4.99609C34.6284 4.99609 34.982 5.01731 35.3356 5.06328C35.6892 5.10925 36.0004 5.1729 36.2196 5.24008V6.8101C35.4912 6.72169 34.982 6.70048 34.738 6.70048C34.1404 6.70048 33.7408 6.76766 33.5216 6.87728C33.2988 6.9869 33.168 7.23089 33.1008 7.5845C33.0336 7.9381 33.0124 8.6241 33.0124 9.59652C33.0124 10.5689 33.0336 11.2549 33.1008 11.6085C33.168 11.9621 33.2988 12.2061 33.5216 12.3158C33.7444 12.4254 34.1404 12.4926 34.738 12.4926C35.2472 12.4926 35.7564 12.4466 36.2444 12.3829V13.953C36.0216 14.0237 35.7104 14.0909 35.3356 14.1368Z" fill="#434C64"/>
<path fill-rule="evenodd" clip-rule="evenodd" d="M37.5286 12.5208C37.6594 13.1184 37.9494 13.5392 38.4126 13.8044C38.8759 14.0696 39.6503 14.2005 40.7358 14.204C41.8426 14.204 42.617 14.0696 43.0802 13.8044C43.5435 13.5392 43.8334 13.0972 43.943 12.5208C44.0527 11.9445 44.1198 10.972 44.1198 9.60005C44.1198 8.22806 44.0527 7.25564 43.943 6.67926C43.8334 6.08167 43.5435 5.66087 43.0802 5.39567C42.617 5.13046 41.8426 4.99609 40.7358 4.99609C39.6503 4.99609 38.8759 5.13046 38.4126 5.39567C37.9282 5.66087 37.6382 6.08167 37.5286 6.67926C37.419 7.27686 37.3518 8.24928 37.3518 9.60005C37.3518 10.9508 37.419 11.9233 37.5286 12.5208ZM41.9986 11.679C41.9526 12.0326 41.843 12.2766 41.6874 12.365C41.5106 12.4534 41.1995 12.4994 40.7362 12.4994C40.273 12.4994 39.9406 12.4534 39.785 12.365C39.6295 12.2554 39.5198 12.0326 39.4739 11.679C39.4279 11.3254 39.4067 10.6394 39.4067 9.59983C39.4067 8.58144 39.4279 7.87423 39.4739 7.52062C39.5198 7.16702 39.6295 6.92303 39.785 6.83463C39.9406 6.74623 40.273 6.70026 40.7362 6.70026C41.1995 6.70026 41.5319 6.74623 41.6874 6.83463C41.843 6.94425 41.9526 7.16702 41.9986 7.52062C42.0446 7.87423 42.0658 8.56023 42.0658 9.59983C42.0658 10.6182 42.0446 11.3254 41.9986 11.679Z" fill="#434C64"/>
<path d="M50.1836 14.0906L47.5493 8.95625H47.4821V14.0906H45.5372V5.10547H47.5952L50.074 9.81905H50.1412V5.10547H52.0896V14.0906H50.1836Z" fill="#434C64"/>
<path d="M55.1627 14.091V6.85619H53.0375V5.10938H59.3211V6.85619H57.196V14.091H55.1627Z" fill="#434C64"/>
<path d="M60.3397 14.0906V5.10547H65.7392V6.78864H62.3552V8.71226H65.2548V10.3954H62.3552V12.4074H65.7392V14.0906H60.3397Z" fill="#434C64"/>
<path d="M71.8 14.0906L69.1656 8.95625H69.0985V14.0906H67.1501V5.10547H69.2081L71.6869 9.81905H71.754V5.10547H73.7024V14.0906H71.8Z" fill="#434C64"/>
<path d="M76.7576 14.091V6.85619H74.6324V5.10938H80.916V6.85619H78.7909V14.091H76.7576Z" fill="#434C64"/>
<path d="M81.8243 13.9821V12.3874C82.9099 12.4758 83.6596 12.5218 84.1263 12.5218C84.4799 12.5218 84.7663 12.5005 84.9679 12.4758C85.1659 12.4298 85.3215 12.3874 85.3887 12.299C85.4771 12.2106 85.5231 12.1222 85.5443 12.0126C85.5655 11.9029 85.5655 11.7474 85.5655 11.5246C85.5655 11.2382 85.5443 11.0366 85.5231 10.927C85.4806 10.8174 85.4134 10.729 85.3003 10.6618C85.1907 10.6158 85.0139 10.5522 84.7487 10.5274L83.3095 10.3294C82.6447 10.241 82.2027 9.97578 81.9587 9.55499C81.7147 9.1342 81.6051 8.5366 81.6051 7.7622C81.6051 7.00902 81.7395 6.43618 81.9799 6.0366C82.2239 5.63703 82.5775 5.37182 83.0195 5.24099C83.4615 5.10662 84.0167 5.04297 84.6779 5.04297C85.4983 5.04297 86.3611 5.13137 87.2204 5.30817V6.87819C86.446 6.78979 85.7388 6.74382 85.1412 6.74382C84.4976 6.74382 84.0804 6.811 83.9035 6.92062C83.7939 6.98781 83.7267 7.07621 83.7055 7.18583C83.6843 7.29544 83.6631 7.45103 83.6631 7.69502C83.6631 7.93901 83.6843 8.11581 83.7055 8.22543C83.7267 8.33505 83.7939 8.40223 83.8823 8.4482C83.9707 8.49417 84.1263 8.5366 84.3703 8.58257L85.9191 8.80535C86.2727 8.85131 86.5627 8.93972 86.7819 9.07055C87.0047 9.20492 87.2027 9.40294 87.3583 9.68936C87.5351 10.0642 87.6235 10.6193 87.6235 11.3266C87.6235 12.1681 87.5139 12.787 87.2699 13.229C87.0259 13.6498 86.7183 13.9362 86.3187 14.0705C85.9191 14.2049 85.3887 14.2686 84.7239 14.2686C83.6171 14.2014 82.6447 14.113 81.8243 13.9821Z" fill="#434C64"/>
<path d="M90.3889 14.091V6.85619H88.285V5.10938H94.5686V6.85619H92.4434V14.091H90.3889Z" fill="#434C64"/>
<path fill-rule="evenodd" clip-rule="evenodd" d="M99.4377 12.2978L99.901 14.0906H101.959L99.5686 5.10547H96.7362L94.3246 14.0906H96.3614L96.7822 12.2978H99.4377ZM98.0662 6.9444H98.1546L99.0174 10.6184H97.1821L98.0662 6.9444Z" fill="#434C64"/>
<path d="M107.072 14.1368C106.697 14.1828 106.344 14.204 106.011 14.204C105.039 14.204 104.307 14.0696 103.844 13.7832C103.381 13.4968 103.069 13.0548 102.914 12.4324C102.758 11.8136 102.691 10.8624 102.691 9.60005C102.691 8.36243 102.779 7.41123 102.935 6.78888C103.091 6.14885 103.398 5.70331 103.865 5.41689C104.328 5.13046 105.06 4.99609 106.033 4.99609C106.365 4.99609 106.719 5.01731 107.072 5.06328C107.426 5.10925 107.737 5.1729 107.956 5.24008V6.8101C107.228 6.72169 106.719 6.70048 106.475 6.70048C105.877 6.70048 105.477 6.76766 105.258 6.87728C105.035 6.9869 104.905 7.23089 104.837 7.5845C104.77 7.9381 104.749 8.6241 104.749 9.59652C104.749 10.5689 104.77 11.2549 104.837 11.6085C104.905 11.9621 105.035 12.2061 105.258 12.3158C105.481 12.4254 105.877 12.4926 106.475 12.4926C106.984 12.4926 107.493 12.4466 107.981 12.3829V13.953C107.758 14.0237 107.447 14.0909 107.072 14.1368Z" fill="#434C64"/>
<path d="M113.886 14.0906L111.874 10.3742H111.323V14.0906H109.311V5.10547H111.323V8.66629H111.874L113.932 5.10547H116.121L113.512 9.39826L116.146 14.0906H113.886Z" fill="#434C64"/>
<path d="M18.4515 8.07305C18.4515 8.29582 18.2747 8.44787 18.0766 8.44787H11.1495C10.9267 8.44787 10.7747 8.27107 10.7747 8.07305V7.29865C10.7747 7.07588 10.9515 6.92383 11.1495 6.92383H18.0766C18.2994 6.92383 18.4515 7.10063 18.4515 7.29865V8.07305Z" fill="#DC5344"/>
<path d="M21.5487 10.3738C21.5487 10.5966 21.3719 10.7487 21.1738 10.7487H12.6979C12.4751 10.7487 12.3231 10.5719 12.3231 10.3738V9.59943C12.3231 9.37666 12.4999 9.22461 12.6979 9.22461H21.1491C21.3719 9.22461 21.5239 9.40141 21.5239 9.59943L21.5487 10.3738Z" fill="#DC5344"/>
<path d="M23.8508 12.6981C23.8508 12.9208 23.674 13.0729 23.4759 13.0729H14.2256C14.0028 13.0729 13.8508 12.8961 13.8508 12.6981V11.9237C13.8508 11.7009 14.0276 11.5488 14.2256 11.5488H23.4512C23.674 11.5488 23.826 11.7256 23.826 11.9237L23.8508 12.6981Z" fill="#DC5344"/>
<path d="M23.8508 15.0008C23.8508 15.2236 23.674 15.3756 23.4759 15.3756H14.2256C14.0028 15.3756 13.8508 15.1988 13.8508 15.0008V14.2264C13.8508 14.0036 14.0276 13.8516 14.2256 13.8516H23.4512C23.674 13.8516 23.826 14.0284 23.826 14.2264L23.8508 15.0008Z" fill="#DC5344"/>
<path d="M21.5487 17.3016C21.5487 17.5243 21.3719 17.6764 21.1738 17.6764H12.6979C12.4751 17.6764 12.3231 17.4996 12.3231 17.3016V16.5272C12.3231 16.3044 12.4999 16.1523 12.6979 16.1523H21.1491C21.3719 16.1523 21.5239 16.3291 21.5239 16.5272L21.5487 17.3016Z" fill="#DC5344"/>
<path d="M18.4515 19.6258C18.4515 19.8486 18.2747 20.0006 18.0766 20.0006H11.1495C10.9267 20.0006 10.7747 19.8238 10.7747 19.6258V18.8514C10.7747 18.6286 10.9515 18.4766 11.1495 18.4766H18.0766C18.2994 18.4766 18.4515 18.6534 18.4515 18.8514V19.6258Z" fill="#DC5344"/>
<path d="M5.37457 1.14922C5.37457 1.37199 5.55138 1.52405 5.7494 1.52405H12.6766C12.8993 1.52405 13.0514 1.34724 13.0514 1.14922V0.374823C13.0514 0.152051 12.8746 0 12.6766 0H5.77415C5.55138 0 5.39933 0.176803 5.39933 0.374823L5.37457 1.14922Z" fill="#DC5344"/>
<path d="M2.29846 3.44805C2.29846 3.67082 2.47527 3.82287 2.67329 3.82287H11.1245C11.3473 3.82287 11.4993 3.64607 11.4993 3.44805V2.67365C11.4993 2.45088 11.3225 2.29883 11.1245 2.29883H2.6945C2.47173 2.29883 2.31968 2.47563 2.31968 2.67365V3.44805H2.29846Z" fill="#DC5344"/>
<path d="M0 5.77032C0 5.99309 0.176803 6.14514 0.374823 6.14514H9.60042C9.8232 6.14514 9.97525 5.96834 9.97525 5.77032V4.99592C9.97525 4.77314 9.79844 4.62109 9.60042 4.62109H0.374823C0.152051 4.62109 0 4.7979 0 4.99592V5.77032Z" fill="#DC5344"/>
<path d="M0 8.07305C0 8.29582 0.176803 8.44787 0.374823 8.44787H9.60042C9.8232 8.44787 9.97525 8.27107 9.97525 8.07305V7.29865C9.97525 7.07588 9.79844 6.92383 9.60042 6.92383H0.374823C0.152051 6.92383 0 7.10063 0 7.29865V8.07305Z" fill="#DC5344"/>
<path d="M2.29846 10.3738C2.29846 10.5966 2.47527 10.7487 2.67329 10.7487H11.1245C11.3473 10.7487 11.4993 10.5719 11.4993 10.3738V9.59943C11.4993 9.37666 11.3225 9.22461 11.1245 9.22461H2.6945C2.47173 9.22461 2.31968 9.40141 2.31968 9.59943V10.3738H2.29846Z" fill="#DC5344"/>
<path d="M5.37457 12.6981C5.37457 12.9208 5.55138 13.0729 5.7494 13.0729H12.6766C12.8993 13.0729 13.0514 12.8961 13.0514 12.6981V11.9237C13.0514 11.7009 12.8746 11.5488 12.6766 11.5488H5.77415C5.55138 11.5488 5.39933 11.7256 5.39933 11.9237L5.37457 12.6981Z" fill="#DC5344"/>
<path d="M117.959 6.70087V5.39606H117.496V5.13086H118.759V5.39606H118.292V6.70087H117.959Z" fill="#434C64"/>
<path d="M118.953 6.70024V5.10547H119.441L119.728 6.19104L120.014 5.10547H120.502V6.70024H120.216V5.46261L119.905 6.70024H119.594L119.282 5.46261V6.70024H118.953Z" fill="#434C64"/>
</svg>
