<svg width="181" height="30" viewBox="0 0 181 30" fill="none" xmlns="http://www.w3.org/2000/svg">
<path d="M52.9977 21.7057C52.4336 21.7721 51.9026 21.8053 51.4048 21.8053C49.9446 21.8053 48.8495 21.6062 48.1526 21.1748C47.4557 20.7765 46.9911 20.0796 46.7588 19.1504C46.5265 18.2212 46.4269 16.7942 46.4269 14.9026C46.4269 13.0442 46.5597 11.6173 46.792 10.6881C47.0243 9.72566 47.4889 9.06195 48.1858 8.63054C48.8827 8.19912 49.9778 8 51.438 8C51.9358 8 52.4668 8.03319 52.9977 8.09956C53.5287 8.16594 53.9933 8.26549 54.3252 8.36505V10.7212C53.23 10.5885 52.4668 10.5553 52.1017 10.5553C51.2057 10.5553 50.6084 10.6549 50.2765 10.8208C49.9446 10.9867 49.7455 11.3518 49.646 11.8827C49.5464 12.4137 49.5132 13.4425 49.5132 14.9026C49.5132 16.3628 49.5464 17.3916 49.646 17.9226C49.7455 18.4535 49.9446 18.8186 50.2765 18.9845C50.6084 19.1504 51.2057 19.25 52.1017 19.25C52.865 19.25 53.6283 19.1836 54.3583 19.0841V21.4403C54.0265 21.5398 53.5619 21.6394 52.9977 21.7057Z" fill="#222222"/>
<path d="M57.6106 21.2079C56.9137 20.8097 56.4823 20.1792 56.2832 19.2832C56.1173 18.3872 56.0177 16.927 56.0177 14.9026C56.0177 12.8783 56.1173 11.4181 56.2832 10.5221C56.4491 9.62611 56.8805 8.99558 57.6106 8.59735C58.3075 8.19912 59.469 8 61.0951 8C62.7544 8 63.9159 8.19912 64.6128 8.59735C65.3097 8.99558 65.7411 9.62611 65.9071 10.5221C66.073 11.385 66.1726 12.8451 66.1726 14.9026C66.1726 16.9602 66.073 18.4203 65.9071 19.2832C65.7411 20.146 65.3097 20.8097 64.6128 21.2079C63.9159 21.6062 62.7544 21.8053 61.0951 21.8053C59.469 21.8053 58.3075 21.6062 57.6106 21.2079ZM62.5221 19.0509C62.7544 18.9181 62.9203 18.5531 62.9867 18.0221C63.0531 17.4911 63.0863 16.4292 63.0863 14.9026C63.0863 13.3429 63.0531 12.3142 62.9867 11.7832C62.9203 11.2522 62.7544 10.9204 62.5221 10.7544C62.2898 10.6217 61.792 10.5553 61.0951 10.5553C60.3982 10.5553 59.9004 10.6217 59.6681 10.7544C59.4358 10.8872 59.2699 11.2522 59.2035 11.7832C59.1372 12.3142 59.104 13.3761 59.104 14.9026C59.104 16.4624 59.1372 17.4911 59.2035 18.0221C59.2699 18.5531 59.4358 18.8849 59.6681 19.0509C59.9004 19.1836 60.3982 19.25 61.0951 19.25C61.792 19.25 62.2566 19.1836 62.5221 19.0509Z" fill="#222222"/>
<path d="M75.2656 21.6393L71.3164 13.9402H71.2169V21.6393H68.2965V8.16589H71.3828L75.0996 15.2345H75.1992V8.16589H78.1195V21.6393H75.2656Z" fill="#222222"/>
<path d="M82.7324 21.6393V10.7876H79.5465V8.16589H88.9713V10.7876H85.7855V21.6393H82.7324Z" fill="#222222"/>
<path d="M90.4977 21.6393V8.16589H98.5951V10.688H93.5176V13.5752H97.865V16.0973H93.5176V19.1172H98.5951V21.6393H90.4977Z" fill="#222222"/>
<path d="M107.688 21.6393L103.739 13.9402H103.64V21.6393H100.719V8.16589H103.806L107.522 15.2345H107.622V8.16589H110.542V21.6393H107.688Z" fill="#222222"/>
<path d="M115.122 21.6393V10.7876H111.936V8.16589H121.361V10.7876H118.175V21.6393H115.122Z" fill="#222222"/>
<path d="M122.721 21.4735V19.0841C124.347 19.2168 125.476 19.2832 126.173 19.2832C126.704 19.2832 127.135 19.25 127.434 19.2168C127.732 19.1505 127.965 19.0841 128.064 18.9514C128.197 18.8186 128.263 18.6859 128.297 18.5199C128.33 18.354 128.33 18.1217 128.33 17.7898C128.33 17.3584 128.297 17.0598 128.263 16.8938C128.197 16.7279 128.097 16.5952 127.932 16.4956C127.766 16.4292 127.5 16.3297 127.102 16.2965L124.945 15.9978C123.949 15.8651 123.286 15.4669 122.92 14.8363C122.555 14.2058 122.389 13.3098 122.389 12.1483C122.389 11.0199 122.589 10.1571 122.954 9.55977C123.319 8.96242 123.85 8.56419 124.513 8.36508C125.177 8.16596 126.007 8.06641 127.002 8.06641C128.23 8.06641 129.524 8.19915 130.819 8.46464V10.8208C129.657 10.6881 128.595 10.6217 127.699 10.6217C126.737 10.6217 126.106 10.7213 125.841 10.8872C125.675 10.9868 125.575 11.1195 125.542 11.2854C125.509 11.4514 125.476 11.6837 125.476 12.0487C125.476 12.4137 125.509 12.6792 125.542 12.8452C125.575 13.0111 125.675 13.1106 125.808 13.177C125.94 13.2434 126.173 13.3098 126.538 13.3761L128.861 13.708C129.392 13.7744 129.823 13.9071 130.155 14.1062C130.487 14.3053 130.786 14.604 131.018 15.0354C131.283 15.5996 131.416 16.4292 131.416 17.4912C131.416 18.7522 131.25 19.6814 130.885 20.3452C130.52 20.9757 130.055 21.4071 129.458 21.6062C128.861 21.8053 128.064 21.9049 127.069 21.9049C125.409 21.8053 123.949 21.6726 122.721 21.4735Z" fill="#222222"/>
<path d="M135.564 21.6393V10.7876H132.412V8.16589H141.836V10.7876H138.651V21.6393H135.564Z" fill="#222222"/>
<path d="M149.834 21.6393L149.137 18.9513H145.155L144.524 21.6393H141.471L145.089 8.16589H149.336L152.92 21.6393H149.834ZM147.212 10.9203H147.08L145.752 16.4292H148.507L147.212 10.9203Z" fill="#222222"/>
<path d="M160.586 21.7057C160.022 21.7721 159.491 21.8053 158.994 21.8053C157.533 21.8053 156.438 21.6062 155.741 21.1748C155.044 20.7434 154.58 20.0796 154.348 19.1504C154.115 18.2212 154.016 16.7942 154.016 14.9026C154.016 13.0442 154.148 11.6173 154.381 10.6881C154.613 9.72566 155.078 9.06195 155.775 8.63054C156.471 8.19912 157.567 8 159.027 8C159.525 8 160.056 8.03319 160.586 8.09956C161.117 8.16594 161.582 8.26549 161.914 8.36505V10.7212C160.819 10.5885 160.056 10.5553 159.69 10.5553C158.794 10.5553 158.197 10.6549 157.865 10.8208C157.533 10.9867 157.334 11.3518 157.235 11.8827C157.135 12.4137 157.102 13.4425 157.102 14.9026C157.102 16.3628 157.135 17.3916 157.235 17.9226C157.334 18.4535 157.533 18.8186 157.865 18.9845C158.197 19.1504 158.794 19.25 159.69 19.25C160.454 19.25 161.217 19.1836 161.947 19.0841V21.4403C161.615 21.5398 161.151 21.6394 160.586 21.7057Z" fill="#222222"/>
<path d="M170.808 21.6393L167.788 16.0641H166.958V21.6393H163.938V8.16589H166.958V13.5088H167.788L170.874 8.16589H174.159L170.243 14.6039L174.192 21.6393H170.808Z" fill="#222222"/>
<path d="M27.6772 12.1129C27.6772 12.4447 27.4117 12.677 27.113 12.677H16.7259C16.394 12.677 16.1617 12.4115 16.1617 12.1129V10.9514C16.1617 10.6195 16.4272 10.3872 16.7259 10.3872H27.113C27.4449 10.3872 27.6772 10.6527 27.6772 10.9514V12.1129Z" fill="#EB5646"/>
<path d="M32.3234 15.5642C32.3234 15.8961 32.0579 16.1284 31.7592 16.1284H19.049C18.7172 16.1284 18.4849 15.8629 18.4849 15.5642V14.4027C18.4849 14.0708 18.7504 13.8386 19.049 13.8386H31.726C32.0579 13.8386 32.2902 14.104 32.2902 14.4027L32.3234 15.5642Z" fill="#EB5646"/>
<path d="M35.7743 19.0487C35.7743 19.3806 35.5089 19.6129 35.2102 19.6129H21.3385C21.0066 19.6129 20.7744 19.3474 20.7744 19.0487V17.8872C20.7744 17.5553 21.0398 17.3231 21.3385 17.3231H35.177C35.5089 17.3231 35.7412 17.5885 35.7412 17.8872L35.7743 19.0487Z" fill="#EB5646"/>
<path d="M35.7743 22.5001C35.7743 22.8319 35.5089 23.0642 35.2102 23.0642H21.3385C21.0066 23.0642 20.7744 22.7988 20.7744 22.5001V21.3386C20.7744 21.0067 21.0398 20.7744 21.3385 20.7744H35.177C35.5089 20.7744 35.7412 21.0399 35.7412 21.3386L35.7743 22.5001Z" fill="#EB5646"/>
<path d="M32.3234 25.9514C32.3234 26.2832 32.0579 26.5155 31.7592 26.5155H19.049C18.7172 26.5155 18.4849 26.25 18.4849 25.9514V24.7899C18.4849 24.458 18.7504 24.2257 19.049 24.2257H31.726C32.0579 24.2257 32.2902 24.4912 32.2902 24.7899L32.3234 25.9514Z" fill="#EB5646"/>
<path d="M27.677 29.4359C27.677 29.7678 27.4116 30.0001 27.1129 30.0001H16.7257C16.3939 30.0001 16.1616 29.7346 16.1616 29.4359V28.2744C16.1616 27.9426 16.427 27.7103 16.7257 27.7103H27.1129C27.4447 27.7103 27.677 27.9758 27.677 28.2744V29.4359Z" fill="#EB5646"/>
<path d="M8.06424 1.72566C8.06424 2.05751 8.32973 2.28982 8.6284 2.28982H19.0156C19.3474 2.28982 19.5797 2.02433 19.5797 1.72566V0.564153C19.5797 0.232295 19.3142 0 19.0156 0H8.66159C8.32973 0 8.09743 0.26548 8.09743 0.564153L8.06424 1.72566Z" fill="#EB5646"/>
<path d="M3.4512 5.17701C3.4512 5.50887 3.71669 5.74117 4.01537 5.74117H16.6923C17.0242 5.74117 17.2565 5.47568 17.2565 5.17701V4.01551C17.2565 3.68365 16.991 3.45135 16.6923 3.45135H4.04855C3.71669 3.45135 3.48439 3.71684 3.48439 4.01551V5.17701H3.4512Z" fill="#EB5646"/>
<path d="M0 8.66151C0 8.99337 0.265491 9.22567 0.564163 9.22567H14.4026C14.7345 9.22567 14.9668 8.96018 14.9668 8.66151V7.5C14.9668 7.16815 14.7013 6.93585 14.4026 6.93585H0.564163C0.232305 6.93585 0 7.20133 0 7.5V8.66151Z" fill="#EB5646"/>
<path d="M0 12.1129C0 12.4447 0.265491 12.677 0.564163 12.677H14.4026C14.7345 12.677 14.9668 12.4115 14.9668 12.1129V10.9514C14.9668 10.6195 14.7013 10.3872 14.4026 10.3872H0.564163C0.232305 10.3872 0 10.6527 0 10.9514V12.1129Z" fill="#EB5646"/>
<path d="M3.4512 15.5641C3.4512 15.896 3.71669 16.1283 4.01537 16.1283H16.6923C17.0242 16.1283 17.2565 15.8628 17.2565 15.5641V14.4026C17.2565 14.0708 16.991 13.8385 16.6923 13.8385H4.04855C3.71669 13.8385 3.48439 14.104 3.48439 14.4026V15.5641H3.4512Z" fill="#EB5646"/>
<path d="M8.06424 19.0486C8.06424 19.3805 8.32973 19.6128 8.6284 19.6128H19.0156C19.3474 19.6128 19.5797 19.3473 19.5797 19.0486V17.8871C19.5797 17.5553 19.3142 17.323 19.0156 17.323H8.66159C8.32973 17.323 8.09743 17.5885 8.09743 17.8871L8.06424 19.0486Z" fill="#EB5646"/>
<path d="M176.914 10.056V8.09806H176.217V7.69983H178.108V8.09806H177.411V10.056H176.914Z" fill="#222222"/>
<path d="M178.407 10.0553V7.66589H179.137L179.568 9.29201L180 7.66589H180.73V10.0553H180.298V8.19687L179.834 10.0553H179.369L178.905 8.19687V10.0553H178.407Z" fill="#222222"/>
</svg>
