<svg width="60" height="60" viewBox="0 0 60 60" fill="none" xmlns="http://www.w3.org/2000/svg">
<path d="M39.0858 2H9.5C8.94772 2 8.5 2.44771 8.5 3V57C8.5 57.5523 8.94772 58 9.5 58H50.5C51.0523 58 51.5 57.5523 51.5 57V14.4142C51.5 14.149 51.3946 13.8946 51.2071 13.7071L39.7929 2.29289C39.6054 2.10536 39.351 2 39.0858 2Z" fill="white"/>
<path fill-rule="evenodd" clip-rule="evenodd" d="M7.5 3C7.5 1.89543 8.39543 1 9.5 1H39.0858C39.6162 1 40.1249 1.21071 40.5 1.58579L51.9142 13L51.2071 13.7071L51.9142 13C52.2893 13.3751 52.5 13.8838 52.5 14.4142V57C52.5 58.1046 51.6046 59 50.5 59H9.5C8.39543 59 7.5 58.1046 7.5 57V3ZM39.0858 3L9.5 3V57H50.5V14.4142L39.0858 3Z" fill="#647696"/>
<path fill-rule="evenodd" clip-rule="evenodd" d="M38.5 13V2H40.5V13H51.5V15H40.5C39.3954 15 38.5 14.1046 38.5 13Z" fill="#647696"/>
<path fill-rule="evenodd" clip-rule="evenodd" d="M51.5 42H8.5V40H51.5V42Z" fill="#647696"/>
<path d="M21.203 46.954C21.444 46.648 21.718 46.433 22.023 46.305C22.328 46.177 22.65 46.114 22.987 46.114C23.288 46.114 23.577 46.174 23.855 46.292C24.133 46.41 24.386 46.602 24.614 46.866L25.749 45.854C25.375 45.49 24.951 45.216 24.478 45.034C24.005 44.852 23.494 44.761 22.947 44.761C22.354 44.761 21.803 44.872 21.293 45.096C20.783 45.32 20.338 45.645 19.96 46.074C19.582 46.503 19.285 47.038 19.071 47.68C18.857 48.323 18.75 49.068 18.75 49.915C18.75 50.762 18.857 51.51 19.071 52.157C19.285 52.804 19.582 53.342 19.96 53.77C20.338 54.198 20.78 54.522 21.286 54.741C21.792 54.96 22.346 55.069 22.947 55.069C23.494 55.069 24.005 54.978 24.478 54.796C24.951 54.614 25.375 54.34 25.749 53.976L24.614 52.978C24.377 53.243 24.115 53.434 23.828 53.552C23.541 53.67 23.233 53.73 22.905 53.73C22.577 53.73 22.264 53.66 21.968 53.518C21.672 53.376 21.407 53.154 21.175 52.848C20.943 52.542 20.76 52.149 20.628 51.665C20.496 51.181 20.425 50.599 20.416 49.915C20.425 49.213 20.498 48.621 20.635 48.138C20.772 47.655 20.962 47.26 21.203 46.954Z" fill="#647696"/>
<path d="M32.7009 50.064C32.3869 49.836 32.0469 49.642 31.6819 49.483C31.3169 49.324 30.9799 49.16 30.6699 48.991C30.3599 48.822 30.1009 48.627 29.8909 48.403C29.6809 48.179 29.5769 47.885 29.5769 47.521C29.5769 47.375 29.6129 47.222 29.6859 47.063C29.7589 46.904 29.8589 46.76 29.9869 46.632C30.1149 46.504 30.2599 46.398 30.4249 46.311C30.5899 46.224 30.7619 46.172 30.9449 46.154C31.2729 46.127 31.5419 46.122 31.7519 46.14C31.9619 46.158 32.1299 46.19 32.2579 46.236C32.3859 46.282 32.4839 46.327 32.5519 46.373C32.6199 46.419 32.6819 46.455 32.7369 46.482C32.7459 46.473 32.7729 46.427 32.8189 46.345C32.8649 46.263 32.9199 46.16 32.9829 46.037C33.0469 45.914 33.1149 45.782 33.1879 45.641C33.2609 45.5 33.3249 45.37 33.3789 45.251C33.1139 45.078 32.7689 44.952 32.3399 44.875C31.9109 44.798 31.4869 44.759 31.0689 44.759C30.6589 44.759 30.2689 44.822 29.8999 44.95C29.5309 45.078 29.2079 45.263 28.9289 45.504C28.6499 45.745 28.4299 46.039 28.2659 46.386C28.1019 46.733 28.0199 47.129 28.0199 47.575C28.0199 48.067 28.1239 48.477 28.3339 48.805C28.5439 49.133 28.8079 49.418 29.1269 49.659C29.4459 49.9 29.7879 50.11 30.1519 50.288C30.5159 50.466 30.8559 50.643 31.1709 50.821C31.4859 50.999 31.7469 51.197 31.9569 51.416C32.1669 51.635 32.2709 51.899 32.2709 52.209C32.2709 52.72 32.1229 53.105 31.8269 53.364C31.5309 53.623 31.1039 53.754 30.5489 53.754C30.3659 53.754 30.1709 53.735 29.9609 53.699C29.7509 53.663 29.5419 53.615 29.3319 53.555C29.1219 53.495 28.9199 53.432 28.7239 53.364C28.5279 53.296 28.3669 53.225 28.2389 53.152L27.9519 54.328C28.1069 54.465 28.2919 54.581 28.5059 54.677C28.7199 54.773 28.9449 54.848 29.1829 54.903C29.4209 54.958 29.6549 54.997 29.8869 55.019C30.1189 55.041 30.3449 55.053 30.5639 55.053C31.0749 55.053 31.5299 54.976 31.9309 54.821C32.3319 54.666 32.6689 54.459 32.9429 54.199C33.2169 53.939 33.4279 53.638 33.5789 53.297C33.7299 52.956 33.8049 52.602 33.8049 52.237C33.8049 51.699 33.7009 51.259 33.4909 50.918C33.2809 50.577 33.0159 50.292 32.7009 50.064Z" fill="#647696"/>
<path d="M40.1111 50.064C39.7971 49.836 39.4571 49.642 39.0921 49.483C38.7271 49.324 38.3901 49.16 38.0801 48.991C37.7701 48.822 37.5111 48.627 37.3011 48.403C37.0911 48.179 36.9871 47.885 36.9871 47.521C36.9871 47.375 37.0231 47.222 37.0961 47.063C37.1691 46.904 37.2691 46.76 37.3971 46.632C37.5251 46.504 37.6701 46.398 37.8351 46.311C38.0001 46.224 38.1721 46.172 38.3551 46.154C38.6831 46.127 38.9521 46.122 39.1621 46.14C39.3721 46.158 39.5401 46.19 39.6681 46.236C39.7961 46.282 39.8941 46.327 39.9621 46.373C40.0301 46.419 40.0921 46.455 40.1471 46.482C40.1561 46.473 40.1831 46.427 40.2291 46.345C40.2751 46.263 40.3301 46.16 40.3931 46.037C40.4561 45.914 40.5251 45.782 40.5981 45.641C40.6711 45.5 40.7351 45.37 40.7891 45.251C40.5241 45.078 40.1791 44.952 39.7501 44.875C39.3211 44.798 38.8971 44.759 38.4791 44.759C38.0691 44.759 37.6791 44.822 37.3101 44.95C36.9411 45.078 36.6181 45.263 36.3391 45.504C36.0601 45.745 35.8401 46.039 35.6761 46.386C35.5121 46.733 35.4301 47.129 35.4301 47.575C35.4301 48.067 35.5341 48.477 35.7441 48.805C35.9541 49.133 36.2181 49.418 36.5371 49.659C36.8561 49.9 37.1981 50.11 37.5621 50.288C37.9261 50.466 38.2661 50.643 38.5811 50.821C38.8961 50.999 39.1571 51.197 39.3671 51.416C39.5771 51.635 39.6811 51.899 39.6811 52.209C39.6811 52.72 39.5331 53.105 39.2371 53.364C38.9411 53.623 38.5141 53.754 37.9591 53.754C37.7761 53.754 37.5811 53.735 37.3711 53.699C37.1611 53.663 36.9521 53.615 36.7421 53.555C36.5321 53.495 36.3301 53.432 36.1341 53.364C35.9381 53.296 35.7771 53.225 35.6491 53.152L35.3621 54.328C35.5171 54.465 35.7021 54.581 35.9161 54.677C36.1301 54.773 36.3551 54.848 36.5931 54.903C36.8311 54.958 37.0651 54.997 37.2971 55.019C37.5291 55.041 37.7551 55.053 37.9741 55.053C38.4851 55.053 38.9401 54.976 39.3411 54.821C39.7421 54.666 40.0791 54.459 40.3531 54.199C40.6271 53.939 40.8381 53.638 40.9891 53.297C41.1401 52.956 41.2151 52.602 41.2151 52.237C41.2151 51.699 41.1111 51.259 40.9011 50.918C40.6911 50.577 40.4261 50.292 40.1111 50.064Z" fill="#647696"/>
<path d="M22.75 22V18C22.75 17.449 23.198 17 23.75 17C24.303 17 24.75 16.552 24.75 16C24.75 15.448 24.303 15 23.75 15C22.096 15 20.75 16.346 20.75 18V22C20.75 23.103 19.853 24 18.75 24C18.197 24 17.75 24.448 17.75 25C17.75 25.552 18.197 26 18.75 26C19.853 26 20.75 26.897 20.75 28V32C20.75 33.654 22.096 35 23.75 35C24.303 35 24.75 34.552 24.75 34C24.75 33.448 24.303 33 23.75 33C23.198 33 22.75 32.551 22.75 32V28C22.75 26.8 22.208 25.734 21.368 25C22.208 24.266 22.75 23.2 22.75 22Z" fill="#647696"/>
<path d="M37.25 22V18C37.25 17.449 36.802 17 36.25 17C35.697 17 35.25 16.552 35.25 16C35.25 15.448 35.697 15 36.25 15C37.904 15 39.25 16.346 39.25 18V22C39.25 23.103 40.147 24 41.25 24C41.803 24 42.25 24.448 42.25 25C42.25 25.552 41.803 26 41.25 26C40.147 26 39.25 26.897 39.25 28V32C39.25 33.654 37.904 35 36.25 35C35.697 35 35.25 34.552 35.25 34C35.25 33.448 35.697 33 36.25 33C36.802 33 37.25 32.551 37.25 32V28C37.25 26.8 37.792 25.734 38.632 25C37.792 24.266 37.25 23.2 37.25 22Z" fill="#647696"/>
</svg>
