<svg width="60" height="60" viewBox="0 0 60 60" fill="none" xmlns="http://www.w3.org/2000/svg">
<path d="M39.0858 2H9.5C8.94772 2 8.5 2.44771 8.5 3V57C8.5 57.5523 8.94772 58 9.5 58H50.5C51.0523 58 51.5 57.5523 51.5 57V14.4142C51.5 14.149 51.3946 13.8946 51.2071 13.7071L39.7929 2.29289C39.6054 2.10536 39.351 2 39.0858 2Z" fill="white"/>
<path fill-rule="evenodd" clip-rule="evenodd" d="M7.5 3C7.5 1.89543 8.39543 1 9.5 1H39.0858C39.6162 1 40.1249 1.21071 40.5 1.58579L51.9142 13L51.2071 13.7071L51.9142 13C52.2893 13.3751 52.5 13.8838 52.5 14.4142V57C52.5 58.1046 51.6046 59 50.5 59H9.5C8.39543 59 7.5 58.1046 7.5 57V3ZM39.0858 3L9.5 3V57H50.5V14.4142L39.0858 3Z" fill="#647696"/>
<path fill-rule="evenodd" clip-rule="evenodd" d="M38.5 13V2H40.5V13H51.5V15H40.5C39.3954 15 38.5 14.1046 38.5 13Z" fill="#647696"/>
<path fill-rule="evenodd" clip-rule="evenodd" d="M51.5 42H8.5V40H51.5V42Z" fill="#647696"/>
<path d="M19.5341 46.954C19.7751 46.648 20.0491 46.433 20.3541 46.305C20.6591 46.177 20.9801 46.114 21.3181 46.114C21.6191 46.114 21.9081 46.174 22.1861 46.292C22.4641 46.41 22.7171 46.602 22.9451 46.866L24.0801 45.854C23.7061 45.49 23.2821 45.216 22.8091 45.034C22.3351 44.851 21.8251 44.761 21.2781 44.761C20.6851 44.761 20.1341 44.872 19.6241 45.096C19.1131 45.32 18.6691 45.645 18.2911 46.074C17.9131 46.503 17.6161 47.038 17.4021 47.68C17.1881 48.323 17.0811 49.068 17.0811 49.915C17.0811 50.762 17.1881 51.51 17.4021 52.157C17.6161 52.804 17.9121 53.342 18.2911 53.77C18.6691 54.199 19.1111 54.522 19.6171 54.741C20.1231 54.96 20.6771 55.069 21.2781 55.069C21.8251 55.069 22.3351 54.978 22.8091 54.796C23.2831 54.613 23.7061 54.34 24.0801 53.976L22.9451 52.978C22.7081 53.243 22.4461 53.434 22.1591 53.552C21.8721 53.67 21.5641 53.73 21.2361 53.73C20.9081 53.73 20.5951 53.66 20.2991 53.518C20.0031 53.376 19.7381 53.154 19.5061 52.848C19.2741 52.542 19.0911 52.149 18.9591 51.665C18.8271 51.182 18.7561 50.599 18.7471 49.915C18.7561 49.213 18.8291 48.621 18.9661 48.138C19.1031 47.655 19.2921 47.26 19.5341 46.954Z" fill="#647696"/>
<path d="M31.032 50.064C30.718 49.836 30.378 49.642 30.013 49.483C29.648 49.324 29.311 49.16 29.001 48.991C28.691 48.822 28.431 48.627 28.222 48.403C28.012 48.179 27.908 47.885 27.908 47.521C27.908 47.375 27.944 47.222 28.017 47.063C28.09 46.904 28.19 46.76 28.318 46.632C28.445 46.504 28.591 46.398 28.756 46.311C28.921 46.224 29.093 46.172 29.276 46.154C29.604 46.127 29.873 46.122 30.083 46.14C30.292 46.159 30.461 46.19 30.589 46.236C30.716 46.282 30.815 46.327 30.883 46.373C30.951 46.419 31.013 46.455 31.068 46.482C31.077 46.473 31.104 46.427 31.15 46.345C31.195 46.263 31.25 46.16 31.314 46.037C31.377 45.914 31.446 45.782 31.519 45.641C31.592 45.499 31.656 45.37 31.71 45.251C31.445 45.078 31.099 44.952 30.671 44.875C30.242 44.798 29.818 44.759 29.4 44.759C28.99 44.759 28.6 44.822 28.231 44.95C27.862 45.078 27.538 45.263 27.26 45.504C26.982 45.745 26.761 46.039 26.597 46.386C26.433 46.733 26.351 47.129 26.351 47.575C26.351 48.067 26.455 48.477 26.665 48.805C26.874 49.133 27.139 49.418 27.458 49.659C27.777 49.9 28.119 50.11 28.483 50.288C28.847 50.466 29.187 50.643 29.502 50.821C29.817 50.999 30.078 51.197 30.288 51.416C30.497 51.635 30.602 51.899 30.602 52.209C30.602 52.72 30.454 53.105 30.158 53.364C29.862 53.624 29.435 53.754 28.88 53.754C28.697 53.754 28.502 53.735 28.292 53.699C28.082 53.663 27.873 53.615 27.663 53.555C27.453 53.495 27.25 53.432 27.055 53.364C26.859 53.296 26.697 53.225 26.57 53.152L26.283 54.328C26.438 54.465 26.622 54.581 26.837 54.677C27.051 54.773 27.276 54.848 27.514 54.903C27.751 54.958 27.986 54.997 28.218 55.019C28.45 55.041 28.676 55.053 28.895 55.053C29.405 55.053 29.861 54.976 30.262 54.821C30.663 54.666 31 54.459 31.274 54.199C31.548 53.939 31.759 53.638 31.91 53.297C32.061 52.956 32.136 52.602 32.136 52.237C32.136 51.699 32.031 51.259 31.822 50.918C31.608 50.577 31.347 50.292 31.032 50.064Z" fill="#647696"/>
<path d="M37.6151 53.6191L35.2771 44.9241H33.4041L36.5351 55.0551H38.6681L41.9491 44.9241H40.0901L37.6151 53.6191Z" fill="#647696"/>
<path d="M25.5 14H13.5V18V20V22V24V26V28V30V32V36H23.5H25.5H46.5V32V30V28V26V24V22V18H25.5V14ZM15.5 20H23.5V22H15.5V20ZM15.5 24H23.5V26H15.5V24ZM15.5 28H23.5V30H15.5V28ZM23.5 34H15.5V32H23.5V34ZM44.5 34H25.5V32H44.5V34ZM44.5 30H25.5V28H44.5V30ZM44.5 26H25.5V24H44.5V26ZM44.5 20V22H25.5V20H44.5ZM15.5 18V16H23.5V18H15.5Z" fill="#647696"/>
</svg>
