<svg width="16" height="16" viewBox="0 0 16 16" fill="none" xmlns="http://www.w3.org/2000/svg">
<path d="M3 14V7H13V14C13 14.5477 12.5477 15 12 15H4C3.45228 15 3 14.5477 3 14Z" stroke="#647696" stroke-width="2"/>
<mask id="path-2-inside-1" fill="white">
<path d="M12 3V1C12 0.4 11.6 0 11 0H5C4.4 0 4 0.4 4 1V3H0V5H16V3H12ZM10 3H6V2H10V3Z"/>
</mask>
<path d="M12 3H10V5H12V3ZM4 3V5H6V3H4ZM0 3V1H-2V3H0ZM0 5H-2V7H0V5ZM16 5V7H18V5H16ZM16 3H18V1H16V3ZM10 3V5H12V3H10ZM6 3H4V5H6V3ZM6 2V0H4V2H6ZM10 2H12V0H10V2ZM14 3V1H10V3H14ZM14 1C14 0.245505 13.7398 -0.538655 13.1392 -1.13921C12.5387 -1.73977 11.7545 -2 11 -2V2C10.8455 2 10.5613 1.93977 10.3108 1.68921C10.0602 1.43866 10 1.1545 10 1H14ZM11 -2H5V2H11V-2ZM5 -2C4.2455 -2 3.46134 -1.73977 2.86079 -1.13921C2.26023 -0.538655 2 0.245505 2 1H6C6 1.1545 5.93977 1.43866 5.68921 1.68921C5.43865 1.93977 5.1545 2 5 2V-2ZM2 1V3H6V1H2ZM4 1H0V5H4V1ZM-2 3V5H2V3H-2ZM0 7H16V3H0V7ZM18 5V3H14V5H18ZM16 1H12V5H16V1ZM10 1H6V5H10V1ZM8 3V2H4V3H8ZM6 4H10V0H6V4ZM8 2V3H12V2H8Z" fill="#647696" mask="url(#path-2-inside-1)"/>
</svg>
