<svg width="16" height="16" viewBox="0 0 16 16" fill="none" xmlns="http://www.w3.org/2000/svg">
<path d="M9.5 5H14L15.5 7.5V12H14" stroke="#6C5CE7"/>
<path d="M9.5 7.5H15" stroke="#6C5CE7"/>
<circle cx="3.5" cy="12" r="1.5" stroke="#6C5CE7"/>
<circle cx="12.5" cy="12" r="1.5" stroke="#6C5CE7"/>
<path fill-rule="evenodd" clip-rule="evenodd" d="M15.5 7H9V12.5H11.5V12C11.5 11.83 11.5551 11.5639 11.7058 11.3547C11.8381 11.1709 12.063 11 12.5 11C12.937 11 13.1619 11.1709 13.2942 11.3547C13.4449 11.5639 13.5 11.83 13.5 12V12.5H15.5V7Z" fill="#6C5CE7"/>
<path d="M9.5 4.5V12H5" stroke="#6C5CE7"/>
<path d="M2 12H0" stroke="#6C5CE7"/>
<path d="M5 5.5C5.94088 5.5 6.79427 5.33994 7.49591 5.06275C7.46863 5.26967 7.30008 5.48991 6.84679 5.68418C6.36093 5.8924 5.6841 6 5 6C4.3159 6 3.63907 5.8924 3.15321 5.68418C2.69992 5.48991 2.53137 5.26967 2.50409 5.06275C3.20573 5.33994 4.05912 5.5 5 5.5Z" stroke="#6C5CE7"/>
<path d="M5 8C5.92304 8 6.77974 7.87033 7.49223 7.58614C7.45555 7.78619 7.28304 7.99721 6.84679 8.18418C6.36093 8.3924 5.6841 8.5 5 8.5C4.3159 8.5 3.63907 8.3924 3.15321 8.18418C2.69992 7.98991 2.53137 7.76967 2.50409 7.56275C3.20573 7.83994 4.05912 8 5 8Z" stroke="#6C5CE7"/>
<path d="M7.5 2.5C7.5 2.72454 7.34624 2.97013 6.84679 3.18418C6.36093 3.3924 5.6841 3.5 5 3.5C4.3159 3.5 3.63907 3.3924 3.15321 3.18418C2.65376 2.97013 2.5 2.72454 2.5 2.5C2.5 2.27546 2.65376 2.02987 3.15321 1.81582C3.63907 1.6076 4.3159 1.5 5 1.5C5.6841 1.5 6.36093 1.6076 6.84679 1.81582C7.34624 2.02987 7.5 2.27546 7.5 2.5Z" fill="#6C5CE7" stroke="#6C5CE7"/>
</svg>
