<svg width="13" height="12" viewBox="0 0 13 12" fill="none" xmlns="http://www.w3.org/2000/svg">
<path d="M4.20117 10.5H3.29492C1.7934 10.5 0.576172 9.28277 0.576172 7.78125V7.5625C0.576172 6.18179 1.69546 5.0625 3.07617 5.0625V5.0625V3.375C3.07617 2.4085 3.85967 1.625 4.82617 1.625V1.625C5.79267 1.625 6.57617 2.4085 6.57617 3.375V3.875H7.26367C8.54083 3.875 9.57617 4.91034 9.57617 6.1875V6.1875V6.1875C10.6807 6.1875 11.5762 7.08293 11.5762 8.1875V8.34375C11.5762 9.53461 10.6108 10.5 9.41992 10.5H7.37695" stroke="#C7D0E1"/>
<path d="M6.07 5.92667C5.91 5.71333 5.59 5.71333 5.43 5.92667L3.48 8.52667C3.28223 8.79036 3.47038 9.16667 3.8 9.16667H4.17143C4.39234 9.16667 4.57143 9.34575 4.57143 9.56667V11.047H6.92857V9.56667C6.92857 9.34575 7.10766 9.16667 7.32857 9.16667H7.7C8.02962 9.16667 8.21777 8.79036 8.02 8.52667L6.07 5.92667Z" fill="#C7D0E1"/>
</svg>