<svg width="26" height="24" viewBox="0 0 26 24" fill="none" xmlns="http://www.w3.org/2000/svg">
<path d="M7.45455 21H8H18H20.1818C22.2905 21 24 19.2905 24 17.1818V16.8182C24 14.7095 22.2905 13 20.1818 13H20V12.1136C20 9.70367 18.0463 7.75 15.6364 7.75H14V6.5C14 4.567 12.433 3 10.5 3C8.567 3 7 4.567 7 6.5V9.5625C4.23858 9.5625 2 11.8011 2 14.5625V15.5455C2 18.5579 4.44208 21 7.45455 21Z" fill="#6C5CE7" stroke="#6C5CE7" stroke-width="2.18182"/>
<path d="M8.96364 17.3515L12.5 12.6364L16.0364 17.3515H15.2571C14.494 17.3515 13.8753 17.9702 13.8753 18.7333V21.1121H11.1247V18.7333C11.1247 17.9702 10.506 17.3515 9.74286 17.3515H8.96364Z" fill="white" stroke="white" stroke-width="1.96364"/>
</svg>
