<svg width="14" height="12" viewBox="0 0 14 12" fill="none" xmlns="http://www.w3.org/2000/svg">
<path d="M4.5 10.5H4.21875C2.71723 10.5 1.5 9.28277 1.5 7.78125V7.5625C1.5 6.18179 2.61929 5.0625 4 5.0625V5.0625V3.375C4 2.4085 4.7835 1.625 5.75 1.625V1.625C6.7165 1.625 7.5 2.4085 7.5 3.375V3.875H8.1875C9.46466 3.875 10.5 4.91034 10.5 6.1875V6.1875V6.1875C11.6046 6.1875 12.5 7.08293 12.5 8.1875V8.34375C12.5 9.53461 11.5346 10.5 10.3438 10.5H9.5" stroke="white" stroke-width="1.25"/>
<path d="M5.49995 8.54174L7 6.54167L8.50005 8.54174C7.97624 8.54809 7.55357 8.97468 7.55357 9.5V10.375H6.44643V9.5C6.44643 8.97468 6.02376 8.54809 5.49995 8.54174Z" fill="white" stroke="white" stroke-width="1.25"/>
</svg>
