<svg width="26" height="24" viewBox="0 0 26 24" fill="none" xmlns="http://www.w3.org/2000/svg">
<path d="M8 21H7.4375C4.43445 21 2 18.5655 2 15.5625V15.125C2 12.3636 4.23858 10.125 7 10.125V10.125M7 10.125V6.75C7 4.817 8.567 3.25 10.5 3.25V3.25C12.433 3.25 14 4.817 14 6.75V7.75H15.6364C18.0463 7.75 20 9.70367 20 12.1136V12.375H20.1818C22.2905 12.375 24 14.0845 24 16.1932V17.1818C24 19.2905 22.2905 21 20.1818 21H18M7 10.125H8.08913" stroke="#647696" stroke-width="2.18182"/>
<path d="M8.96364 17.3515L12.5 12.6364L16.0364 17.3515H15.2571C14.494 17.3515 13.8753 17.9702 13.8753 18.7333V21.1121H11.1247V18.7333C11.1247 17.9702 10.506 17.3515 9.74286 17.3515H8.96364Z" stroke="#647696" stroke-width="1.96364"/>
</svg>
