<svg width="52" height="52" viewBox="0 0 52 52" fill="none" xmlns="http://www.w3.org/2000/svg">
<path d="M14.5573 45.5H15.1666H36.8333H41.1666C45.9531 45.5 49.8333 41.6198 49.8333 36.8333C49.8333 32.0469 45.9531 28.1667 41.1666 28.1667V26.7917C41.1666 21.2688 36.6895 16.7917 31.1666 16.7917H28.1666V14.0833C28.1666 9.89517 24.7715 6.5 20.5833 6.5C16.3951 6.5 13 9.89517 13 14.0833V20.7188C7.01687 20.7188 2.16663 25.569 2.16663 31.5521V33.1094C2.16663 39.9525 7.7141 45.5 14.5573 45.5Z" fill="#EDF1F7" stroke="#EDF1F7" stroke-width="2.18182"/>
<path d="M14.9636 38.7403L24.9167 25.4696L34.8697 38.7403H31.0056C29.9211 38.7403 29.042 39.6195 29.042 40.704V46.8883H20.7913V40.704C20.7913 39.6195 19.9122 38.7403 18.8277 38.7403H14.9636L14.1782 38.1512L14.9636 38.7403Z" fill="white" stroke="white" stroke-width="1.96364"/>
</svg>
