<svg width="16" height="16" viewBox="0 0 16 16" fill="none" xmlns="http://www.w3.org/2000/svg">
<path fill-rule="evenodd" clip-rule="evenodd" d="M14 8C14 11.3137 11.3137 14 8 14C7.15376 14 6.34845 13.8248 5.61834 13.5087L12.6207 4.17229C13.4821 5.21105 14 6.54505 14 8ZM3.93795 12.4159L11.1024 2.8633C10.1971 2.31537 9.1354 2 8 2C4.68629 2 2 4.68629 2 8C2 9.74687 2.74653 11.3194 3.93795 12.4159ZM16 8C16 12.4183 12.4183 16 8 16C3.58172 16 0 12.4183 0 8C0 3.58172 3.58172 0 8 0C12.4183 0 16 3.58172 16 8Z" fill="#647696"/>
</svg>
