<svg width="100" height="100" viewBox="0 0 100 100" fill="none" xmlns="http://www.w3.org/2000/svg">
<g clip-path="url(#clip0)">
<path fill-rule="evenodd" clip-rule="evenodd" d="M32.4844 20H55.6804C62.5968 20 68.1648 25.593 68.1898 32.4844V44.2946C68.1898 51.186 62.5968 56.779 55.7054 56.779H41.8976L35.0062 63.7703C34.6567 64.1199 34.2572 64.2697 33.8577 64.2697C33.0087 64.2697 32.1848 63.5705 32.2347 62.5718L32.4844 56.779C25.593 56.779 20 51.186 20 44.2946V32.4844C20 25.593 25.593 20 32.4844 20ZM55.9551 61.623C64.045 61.623 70.7865 55.9801 72.5343 48.4395C76.6542 49.2385 79.7753 52.859 79.8003 57.2035V65.6929C79.8003 70.6367 75.7803 74.6567 70.8365 74.6567L71.0112 78.8015C71.0362 79.5256 70.4619 80.025 69.8377 80.025C69.5381 80.025 69.2634 79.9251 69.0137 79.6754L64.0699 74.6567H54.1823C49.2385 74.6567 45.2185 70.6367 45.2185 65.6929V61.623H55.9551Z" fill="#EDF1F7"/>
</g>
<defs>
<clipPath id="clip0">
<rect width="59.7753" height="60" fill="white" transform="translate(20 20)"/>
</clipPath>
</defs>
</svg>
