<svg width="60" height="60" viewBox="0 0 60 60" fill="none" xmlns="http://www.w3.org/2000/svg">
<path d="M39.0858 2H9.5C8.94772 2 8.5 2.44771 8.5 3V57C8.5 57.5523 8.94772 58 9.5 58H50.5C51.0523 58 51.5 57.5523 51.5 57V14.4142C51.5 14.149 51.3946 13.8946 51.2071 13.7071L39.7929 2.29289C39.6054 2.10536 39.351 2 39.0858 2Z" fill="white"/>
<path fill-rule="evenodd" clip-rule="evenodd" d="M7.5 3C7.5 1.89543 8.39543 1 9.5 1H39.0858C39.6162 1 40.1249 1.21071 40.5 1.58579L51.9142 13L51.2071 13.7071L51.9142 13C52.2893 13.3751 52.5 13.8838 52.5 14.4142V57C52.5 58.1046 51.6046 59 50.5 59H9.5C8.39543 59 7.5 58.1046 7.5 57V3ZM39.0858 3L9.5 3V57H50.5V14.4142L39.0858 3Z" fill="#647696"/>
<path fill-rule="evenodd" clip-rule="evenodd" d="M38.5 13V2H40.5V13H51.5V15H40.5C39.3954 15 38.5 14.1046 38.5 13Z" fill="#647696"/>
<path fill-rule="evenodd" clip-rule="evenodd" d="M51.5 42H8.5V40H51.5V42Z" fill="#647696"/>
<path d="M24.235 46.4001C23.811 45.9541 23.278 45.5951 22.635 45.3271C21.992 45.0591 21.247 44.9241 20.4 44.9241H17.365V55.0001H21.179C21.306 55.0001 21.502 54.9841 21.767 54.9521C22.031 54.9201 22.323 54.8481 22.642 54.7331C22.961 54.6191 23.291 54.4481 23.633 54.2201C23.975 53.9921 24.282 53.6801 24.556 53.2831C24.83 52.8861 25.055 52.3941 25.233 51.8061C25.411 51.2181 25.5 50.5091 25.5 49.6801C25.5 49.0781 25.395 48.4921 25.186 47.9231C24.976 47.3551 24.659 46.8471 24.235 46.4001ZM23.039 52.7301C22.547 53.4411 21.745 53.7961 20.633 53.7961H19.006V46.1671H19.963C20.747 46.1671 21.385 46.2701 21.877 46.4751C22.369 46.6801 22.759 46.9491 23.046 47.2821C23.333 47.6151 23.526 47.9861 23.627 48.3961C23.727 48.8061 23.777 49.2211 23.777 49.6401C23.777 50.9891 23.531 52.0201 23.039 52.7301Z" fill="#647696"/>
<path d="M34.2651 46.072C33.8871 45.643 33.4451 45.318 32.9391 45.094C32.4331 44.87 31.8791 44.759 31.2781 44.759C30.6771 44.759 30.1231 44.87 29.6171 45.094C29.1111 45.318 28.6691 45.643 28.2911 46.072C27.9131 46.501 27.6161 47.036 27.4021 47.678C27.1881 48.321 27.0811 49.066 27.0811 49.913C27.0811 50.76 27.1881 51.508 27.4021 52.155C27.6161 52.802 27.9121 53.34 28.2911 53.768C28.6691 54.197 29.1111 54.52 29.6171 54.739C30.1231 54.958 30.6771 55.067 31.2781 55.067C31.8791 55.067 32.4331 54.958 32.9391 54.739C33.4451 54.52 33.8871 54.197 34.2651 53.768C34.6431 53.339 34.9391 52.802 35.1541 52.155C35.3681 51.508 35.4751 50.76 35.4751 49.913C35.4751 49.066 35.3681 48.32 35.1541 47.678C34.9391 47.036 34.6431 46.501 34.2651 46.072ZM33.5881 51.698C33.4511 52.185 33.2621 52.58 33.0211 52.881C32.7791 53.182 32.5061 53.399 32.2011 53.53C31.8951 53.662 31.5741 53.728 31.2371 53.728C30.9091 53.728 30.5961 53.658 30.3001 53.516C30.0041 53.374 29.7391 53.152 29.5071 52.846C29.2751 52.54 29.0921 52.147 28.9601 51.663C28.8281 51.18 28.7571 50.597 28.7481 49.913C28.7571 49.211 28.8301 48.619 28.9671 48.136C29.1041 47.653 29.2931 47.259 29.5341 46.953C29.7751 46.647 30.0491 46.432 30.3541 46.304C30.6591 46.176 30.9801 46.113 31.3181 46.113C31.6461 46.113 31.9581 46.181 32.2551 46.318C32.5511 46.455 32.8161 46.678 33.0481 46.988C33.2801 47.298 33.4631 47.692 33.5951 48.171C33.7271 48.65 33.7981 49.231 33.8071 49.914C33.7971 50.616 33.7251 51.211 33.5881 51.698Z" fill="#647696"/>
<path d="M40.0619 46.954C40.3029 46.648 40.5769 46.433 40.8819 46.305C41.1869 46.177 41.5079 46.114 41.8459 46.114C42.1469 46.114 42.4359 46.174 42.7139 46.292C42.9919 46.41 43.2449 46.602 43.4729 46.866L44.6079 45.854C44.2339 45.49 43.8099 45.216 43.3369 45.034C42.8629 44.851 42.3529 44.761 41.8059 44.761C41.2129 44.761 40.6619 44.872 40.1519 45.096C39.6409 45.32 39.1969 45.645 38.8189 46.074C38.4409 46.503 38.1439 47.038 37.9299 47.68C37.7159 48.323 37.6089 49.068 37.6089 49.915C37.6089 50.762 37.7159 51.51 37.9299 52.157C38.1439 52.804 38.4399 53.342 38.8189 53.77C39.1969 54.199 39.6389 54.522 40.1449 54.741C40.6509 54.96 41.2049 55.069 41.8059 55.069C42.3529 55.069 42.8629 54.978 43.3369 54.796C43.8109 54.613 44.2339 54.34 44.6079 53.976L43.4729 52.978C43.2359 53.243 42.9739 53.434 42.6869 53.552C42.3999 53.67 42.0919 53.73 41.7639 53.73C41.4359 53.73 41.1229 53.66 40.8269 53.518C40.5309 53.376 40.2659 53.154 40.0339 52.848C39.8019 52.542 39.6189 52.149 39.4869 51.665C39.3549 51.182 39.2839 50.599 39.2749 49.915C39.2839 49.213 39.3569 48.621 39.4939 48.138C39.6309 47.655 39.8199 47.26 40.0619 46.954Z" fill="#647696"/>
<path d="M14.5 15H20.5C21.052 15 21.5 14.552 21.5 14C21.5 13.448 21.052 13 20.5 13H14.5C13.948 13 13.5 13.448 13.5 14C13.5 14.552 13.948 15 14.5 15Z" fill="#647696"/>
<path d="M14.5 20H23.5C24.052 20 24.5 19.552 24.5 19C24.5 18.448 24.052 18 23.5 18H14.5C13.948 18 13.5 18.448 13.5 19C13.5 19.552 13.948 20 14.5 20Z" fill="#647696"/>
<path d="M27.5 20C27.76 20 28.02 19.8899 28.21 19.7099C28.39 19.5199 28.5 19.26 28.5 19C28.5 18.74 28.39 18.48 28.21 18.29C27.84 17.92 27.16 17.92 26.79 18.29C26.61 18.48 26.5 18.74 26.5 19C26.5 19.26 26.61 19.5199 26.79 19.7099C26.98 19.8899 27.24 20 27.5 20Z" fill="#647696"/>
<path d="M31.5 20H39.5C40.052 20 40.5 19.552 40.5 19C40.5 18.448 40.052 18 39.5 18H31.5C30.948 18 30.5 18.448 30.5 19C30.5 19.552 30.948 20 31.5 20Z" fill="#647696"/>
<path d="M13.79 33.29C13.61 33.48 13.5 33.74 13.5 34C13.5 34.26 13.61 34.5199 13.79 34.7099C13.98 34.8899 14.24 35 14.5 35C14.76 35 15.02 34.8899 15.21 34.7099C15.39 34.5199 15.5 34.26 15.5 34C15.5 33.73 15.39 33.48 15.21 33.29C14.84 32.92 14.16 32.92 13.79 33.29Z" fill="#647696"/>
<path d="M26.5 33H18.5C17.948 33 17.5 33.448 17.5 34C17.5 34.552 17.948 35 18.5 35H26.5C27.052 35 27.5 34.552 27.5 34C27.5 33.448 27.052 33 26.5 33Z" fill="#647696"/>
<path d="M45.5 18H43.5C42.948 18 42.5 18.448 42.5 19C42.5 19.552 42.948 20 43.5 20H45.5C46.052 20 46.5 19.552 46.5 19C46.5 18.448 46.052 18 45.5 18Z" fill="#647696"/>
<path d="M14.5 25H36.5C37.052 25 37.5 24.552 37.5 24C37.5 23.448 37.052 23 36.5 23H14.5C13.948 23 13.5 23.448 13.5 24C13.5 24.552 13.948 25 14.5 25Z" fill="#647696"/>
<path d="M45.5 23H39.5C38.948 23 38.5 23.448 38.5 24C38.5 24.552 38.948 25 39.5 25H45.5C46.052 25 46.5 24.552 46.5 24C46.5 23.448 46.052 23 45.5 23Z" fill="#647696"/>
<path d="M14.5 30H18.5C19.052 30 19.5 29.552 19.5 29C19.5 28.448 19.052 28 18.5 28H14.5C13.948 28 13.5 28.448 13.5 29C13.5 29.552 13.948 30 14.5 30Z" fill="#647696"/>
<path d="M32.5 28H22.5C21.948 28 21.5 28.448 21.5 29C21.5 29.552 21.948 30 22.5 30H32.5C33.052 30 33.5 29.552 33.5 29C33.5 28.448 33.052 28 32.5 28Z" fill="#647696"/>
<path d="M45.5 28H36.5C35.948 28 35.5 28.448 35.5 29C35.5 29.552 35.948 30 36.5 30H45.5C46.052 30 46.5 29.552 46.5 29C46.5 28.448 46.052 28 45.5 28Z" fill="#647696"/>
</svg>
