<svg width="14" height="14" viewBox="0 0 14 14" fill="none" xmlns="http://www.w3.org/2000/svg">
<path fill-rule="evenodd" clip-rule="evenodd" d="M7 12.75C10.1756 12.75 12.75 10.1756 12.75 7C12.75 3.82436 10.1756 1.25 7 1.25C3.82436 1.25 1.25 3.82436 1.25 7C1.25 10.1756 3.82436 12.75 7 12.75ZM7 14C10.866 14 14 10.866 14 7C14 3.13401 10.866 0 7 0C3.13401 0 0 3.13401 0 7C0 10.866 3.13401 14 7 14Z" fill="#A9B6CB"/>
<path d="M6.25 3.75C6.25 3.33579 6.58579 3 7 3V3C7.41421 3 7.75 3.33579 7.75 3.75V3.75C7.75 4.16421 7.41421 4.5 7 4.5V4.5C6.58579 4.5 6.25 4.16421 6.25 3.75V3.75Z" fill="#A9B6CB"/>
<path fill-rule="evenodd" clip-rule="evenodd" d="M7 5.75C7.41421 5.75 7.75 6.08579 7.75 6.5V10.5C7.75 10.9142 7.41421 11.25 7 11.25C6.58579 11.25 6.25 10.9142 6.25 10.5V6.5C6.25 6.08579 6.58579 5.75 7 5.75Z" fill="#A9B6CB"/>
</svg>
