<svg width="24" height="24" viewBox="0 0 24 24" fill="none" xmlns="http://www.w3.org/2000/svg">
<path fill-rule="evenodd" clip-rule="evenodd" d="M17.2005 1H19C21.2091 1 23 2.79086 23 5V19C23 21.2091 21.2091 23 19 23H17.2005C18.4147 22.0878 19.2 20.6356 19.2 19V5C19.2 3.3644 18.4147 1.91223 17.2005 1ZM14.2 1H5C2.79086 1 1 2.79086 1 5V19C1 20.933 2.37113 22.5457 4.19386 22.9187C4.45425 22.972 4.72386 23 5 23H14.2C16.4091 23 18.2 21.2091 18.2 19V5C18.2 2.79086 16.4091 1 14.2 1ZM14.2 0H19C21.7614 0 24 2.23858 24 5V19C24 21.7614 21.7614 24 19 24H14.2H5C4.82741 24 4.65686 23.9913 4.48878 23.9742C1.9675 23.7181 0 21.5888 0 19V5C0 2.23858 2.23858 0 5 0H14.2ZM14.4 8.18H4.8V7.18H14.4V8.18ZM4.8 11.06H14.4V10.06H4.8V11.06ZM14.4 13.94H4.8V12.94H14.4V13.94ZM4.8 16.82H14.4V15.82H4.8V16.82ZM4.8 19.7V18.7H11.52V19.7H4.8ZM5.28 4.8C5.5451 4.8 5.76 4.5851 5.76 4.32C5.76 4.0549 5.5451 3.84 5.28 3.84C5.0149 3.84 4.8 4.0549 4.8 4.32C4.8 4.5851 5.0149 4.8 5.28 4.8ZM8.64 4.32C8.64 4.5851 8.4251 4.8 8.16 4.8C7.8949 4.8 7.68 4.5851 7.68 4.32C7.68 4.0549 7.8949 3.84 8.16 3.84C8.4251 3.84 8.64 4.0549 8.64 4.32ZM11.04 4.8C11.3051 4.8 11.52 4.5851 11.52 4.32C11.52 4.0549 11.3051 3.84 11.04 3.84C10.7749 3.84 10.56 4.0549 10.56 4.32C10.56 4.5851 10.7749 4.8 11.04 4.8Z" fill="#647696"/>
</svg>
