<svg width="16" height="16" viewBox="0 0 16 16" fill="none" xmlns="http://www.w3.org/2000/svg">
<path d="M0 3C0 1.34315 1.34315 0 3 0H13C14.6569 0 16 1.34315 16 3V13C16 14.6569 14.6569 16 13 16H3C1.34315 16 0 14.6569 0 13V3Z" fill="#EDF1F7"/>
<path d="M3.00018 9.64347H4.39364C4.3766 8.93608 4.67489 8.65483 5.07546 8.65483C5.36523 8.65483 5.51864 8.78693 5.87234 9.09801C6.46893 9.62216 6.91637 9.84375 7.47887 9.84375C8.60813 9.84375 9.37944 8.95312 9.31978 7.33807H7.93058C7.94762 8.02415 7.64933 8.3267 7.24876 8.3267C6.95046 8.3267 6.76722 8.16903 6.4391 7.88352C5.81694 7.33381 5.37802 7.14205 4.84109 7.14205C3.68626 7.14205 2.94904 8.02841 3.00018 9.64347ZM14.7658 2.86364H13.2019L10.3894 13.3125H11.9533L14.7658 2.86364Z" fill="#647696"/>
</svg>
