<svg width="41" height="9" viewBox="0 0 41 9" fill="none" xmlns="http://www.w3.org/2000/svg">
<path d="M0 4.5L7.5 8.83013V0.169873L0 4.5ZM41 4.5L33.5 0.169873V8.83013L41 4.5ZM3.075 5.25H5.125V3.75L3.075 3.75V5.25ZM7.175 5.25L9.225 5.25V3.75H7.175V5.25ZM11.275 5.25H13.325V3.75H11.275V5.25ZM15.375 5.25H17.425V3.75H15.375V5.25ZM19.475 5.25L21.525 5.25V3.75H19.475V5.25ZM23.575 5.25H25.625V3.75L23.575 3.75V5.25ZM27.675 5.25H29.725V3.75H27.675V5.25ZM31.775 5.25H33.825V3.75L31.775 3.75V5.25ZM35.875 5.25L37.925 5.25V3.75H35.875V5.25Z" fill="#A9B6CB"/>
</svg>
