<svg width="12" height="8" viewBox="0 0 12 8" fill="none" xmlns="http://www.w3.org/2000/svg">
<path d="M10.2929 1.29302L5.99992 5.58602L1.70692 1.29302C1.51832 1.11086 1.26571 1.01007 1.00352 1.01235C0.741321 1.01462 0.490508 1.11979 0.3051 1.3052C0.119692 1.49061 0.0145233 1.74142 0.0122448 2.00362C0.00996641 2.26582 0.110761 2.51842 0.292919 2.70702L5.29292 7.70702C5.48045 7.89449 5.73475 7.99981 5.99992 7.99981C6.26508 7.99981 6.51939 7.89449 6.70692 7.70702L11.7069 2.70702C11.8024 2.61477 11.8786 2.50443 11.931 2.38242C11.9834 2.26042 12.011 2.1292 12.0122 1.99642C12.0133 1.86364 11.988 1.73196 11.9377 1.60907C11.8875 1.48617 11.8132 1.37452 11.7193 1.28063C11.6254 1.18673 11.5138 1.11248 11.3909 1.0622C11.268 1.01192 11.1363 0.986616 11.0035 0.98777C10.8707 0.988924 10.7395 1.01651 10.6175 1.06892C10.4955 1.12133 10.3852 1.19751 10.2929 1.29302Z" fill="#647696"/>
</svg>
