<svg width="12" height="12" viewBox="0 0 12 12" fill="none" xmlns="http://www.w3.org/2000/svg">
<g clip-path="url(#clip0)">
<path d="M10.2807 2.30529L5.98771 6.59829L1.69471 2.30529C1.50611 2.12313 1.25351 2.02234 0.991311 2.02461C0.729114 2.02689 0.478301 2.13206 0.292893 2.31747C0.107485 2.50288 0.00231622 2.75369 3.78026e-05 3.01589C-0.00224062 3.27808 0.0985538 3.53069 0.280712 3.71929L5.28071 8.71929C5.46824 8.90676 5.72255 9.01207 5.98771 9.01207C6.25288 9.01207 6.50718 8.90676 6.69471 8.71929L11.6947 3.71929C11.7902 3.62704 11.8664 3.5167 11.9188 3.39469C11.9712 3.27269 11.9988 3.14147 12 3.00869C12.0011 2.87591 11.9758 2.74423 11.9255 2.62133C11.8753 2.49844 11.801 2.38679 11.7071 2.29289C11.6132 2.199 11.5016 2.12475 11.3787 2.07447C11.2558 2.02419 11.1241 1.99888 10.9913 2.00004C10.8585 2.00119 10.7273 2.02878 10.6053 2.08119C10.4833 2.1336 10.373 2.20978 10.2807 2.30529Z" fill="#A9B6CB"/>
</g>
<defs>
<clipPath id="clip0">
<rect width="12" height="12" fill="white"/>
</clipPath>
</defs>
</svg>
