<svg width="12" height="8" viewBox="0 0 12 8" fill="none" xmlns="http://www.w3.org/2000/svg">
<path d="M10.2929 1.293L5.99992 5.586L1.70692 1.293C1.51832 1.11085 1.26571 1.01005 1.00352 1.01233C0.741321 1.01461 0.490508 1.11978 0.3051 1.30519C0.119692 1.49059 0.0145233 1.74141 0.0122448 2.0036C0.00996641 2.2658 0.110761 2.5184 0.292919 2.707L5.29292 7.707C5.48045 7.89448 5.73475 7.99979 5.99992 7.99979C6.26508 7.99979 6.51939 7.89448 6.70692 7.707L11.7069 2.707C11.8024 2.61476 11.8786 2.50441 11.931 2.38241C11.9834 2.26041 12.011 2.12919 12.0122 1.99641C12.0133 1.86363 11.988 1.73195 11.9377 1.60905C11.8875 1.48615 11.8132 1.3745 11.7193 1.28061C11.6254 1.18672 11.5138 1.11246 11.3909 1.06218C11.268 1.0119 11.1363 0.986601 11.0035 0.987754C10.8707 0.988908 10.7395 1.01649 10.6175 1.0689C10.4955 1.12131 10.3852 1.19749 10.2929 1.293Z" fill="#647696" fill-opacity="0.2"/>
</svg>
