<svg width="12" height="12" viewBox="0 0 12 12" fill="none" xmlns="http://www.w3.org/2000/svg">
<g clip-path="url(#clip0)">
<path d="M10.2929 3.29296L5.99992 7.58596L1.70692 3.29296C1.51832 3.1108 1.26571 3.01001 1.00352 3.01229C0.741321 3.01456 0.490508 3.11973 0.3051 3.30514C0.119692 3.49055 0.0145233 3.74136 0.0122448 4.00356C0.00996641 4.26575 0.110761 4.51836 0.292919 4.70696L5.29292 9.70696C5.48045 9.89443 5.73475 9.99975 5.99992 9.99975C6.26508 9.99975 6.51939 9.89443 6.70692 9.70696L11.7069 4.70696C11.8024 4.61471 11.8786 4.50437 11.931 4.38236C11.9834 4.26036 12.011 4.12914 12.0122 3.99636C12.0133 3.86358 11.988 3.7319 11.9377 3.60901C11.8875 3.48611 11.8132 3.37446 11.7193 3.28056C11.6254 3.18667 11.5138 3.11242 11.3909 3.06214C11.268 3.01186 11.1363 2.98655 11.0035 2.98771C10.8707 2.98886 10.7395 3.01645 10.6175 3.06886C10.4955 3.12127 10.3852 3.19745 10.2929 3.29296Z" fill="#475161"/>
</g>
<defs>
<clipPath id="clip0">
<rect width="12" height="12" fill="white"/>
</clipPath>
</defs>
</svg>
