<svg width="12" height="12" viewBox="0 0 12 12" fill="none" xmlns="http://www.w3.org/2000/svg">
<path d="M0.578553 8.82855L6.075 3.33211L8.66789 5.925L3.17145 11.4214L3.525 11.775L3.17145 11.4214C3.12596 11.4669 3.10035 11.4812 3.08756 11.4868C3.07694 11.4916 3.05416 11.5 3 11.5H0.75C0.638624 11.5 0.584664 11.4651 0.559803 11.4402C0.534943 11.4153 0.5 11.3614 0.5 11.25V9C0.5 8.94584 0.508436 8.92306 0.513156 8.91244C0.518841 8.89965 0.53307 8.87404 0.578553 8.82855L0.233623 8.48362L0.578553 8.82855Z" stroke="#647696"/>
<path d="M9.17145 0.578553L11.4214 2.82855C11.5262 2.93329 11.5262 3.06671 11.4214 3.17145L10.425 4.16789L7.83211 1.575L8.82855 0.578553C8.93329 0.473816 9.06671 0.473816 9.17145 0.578553Z" stroke="#647696"/>
</svg>
