<svg width="16" height="16" viewBox="0 0 16 16" fill="none" xmlns="http://www.w3.org/2000/svg">
<path fill-rule="evenodd" clip-rule="evenodd" d="M0.307701 3.43362L6.35374 8.72391C7.29631 9.54865 8.7037 9.54865 9.64626 8.72391L15.6923 3.43362C15.8872 3.74228 16 4.10797 16 4.5V11.5C16 12.6046 15.1046 13.5 14 13.5H2C0.895431 13.5 0 12.6046 0 11.5V4.5C0 4.10797 0.112794 3.74228 0.307701 3.43362ZM1.03959 2.74526C1.32465 2.58891 1.65194 2.5 2 2.5H14C14.3481 2.5 14.6754 2.58891 14.9604 2.74526L8.98776 7.97133C8.42222 8.46618 7.57778 8.46618 7.01224 7.97133L1.03959 2.74526Z" fill="#647696"/>
</svg>
