<svg width="16" height="16" viewBox="0 0 16 16" fill="none" xmlns="http://www.w3.org/2000/svg">
  <path fill-rule="evenodd" clip-rule="evenodd" d="M0 4C0 1.79086 1.79086 0 4 0H12C14.2091 0 16 1.79086 16 4V12C16 14.2091 14.2091 16 12 16H4C1.79086 16 0 14.2091 0 12V4ZM4 1.5H12C13.3807 1.5 14.5 2.61929 14.5 4V12C14.5 13.3807 13.3807 14.5 12 14.5H4C2.61929 14.5 1.5 13.3807 1.5 12V4C1.5 2.61929 2.61929 1.5 4 1.5Z" fill="#647696"/>
  <rect x="0.75" y="0.75" width="14.5" height="14.5" rx="3.25" stroke="#647696" stroke-width="1.5"/>
  <rect x="4.75" y="4.75" width="6.5" height="6.5" rx="1.25" stroke="#647696" stroke-width="1.5"/>
</svg>
