<svg width="12" height="12" viewBox="0 0 12 12" fill="none" xmlns="http://www.w3.org/2000/svg">
<path d="M6.0002 11.6777C9.30851 11.6777 12 8.98599 12 5.67741C12 3.96588 11.2666 2.33157 9.98795 1.19351C9.8614 1.08018 9.69738 1.01752 9.52677 1.01752C9.32787 1.01752 9.13769 1.10323 9.00512 1.25258C8.88243 1.38964 8.82039 1.56745 8.83102 1.75257C8.8418 1.93881 8.92466 2.10961 9.06443 2.23357C10.0462 3.10732 10.6094 4.36268 10.6094 5.67747C10.6094 8.21927 8.54174 10.2871 6.00026 10.2871C3.45853 10.2871 1.39064 8.21923 1.39064 5.67747C1.39064 4.36336 1.9547 3.10732 2.93816 2.23148C3.22368 1.97712 3.24937 1.53727 2.99551 1.25095C2.86426 1.10255 2.67486 1.01733 2.47609 1.01733C2.30529 1.01733 2.14094 1.07994 2.01331 1.19358C0.733831 2.33106 0 3.96542 0 5.67741C0 8.98599 2.6917 11.6777 6.0002 11.6777Z" fill="white"/>
<path d="M5.30469 1.0178V5.43858C5.30469 5.62477 5.37706 5.79954 5.5084 5.93079C5.63957 6.06177 5.81418 6.13393 5.99998 6.13393C6.38337 6.13393 6.69526 5.82203 6.69526 5.43866V1.0178C6.69526 0.634426 6.38337 0.32251 5.99998 0.32251C5.6166 0.32251 5.30469 0.634426 5.30469 1.0178Z" fill="white"/>
</svg>
