<svg width="24" height="24" viewBox="0 0 24 24" fill="none" xmlns="http://www.w3.org/2000/svg">
<path d="M11 14.5V13.5H10V14.5H11ZM18 21L18.7071 20.2929L18.4142 20H18V21ZM20 23L19.2929 23.7071C19.6107 24.0249 20.1016 24.0917 20.4927 23.8702C20.8838 23.6487 21.0792 23.1935 20.9701 22.7575L20 23ZM19.5 21V20H18.2192L18.5299 21.2425L19.5 21ZM10 14.5V18H12V14.5H10ZM14 22H18V20H14V22ZM17.2929 21.7071L19.2929 23.7071L20.7071 22.2929L18.7071 20.2929L17.2929 21.7071ZM20.9701 22.7575L20.4701 20.7575L18.5299 21.2425L19.0299 23.2425L20.9701 22.7575ZM19.5 22H20V20H19.5V22ZM24 18V14H22V18H24ZM20 10H19.5V12H20V10ZM16 13.5H11V15.5H16V13.5ZM18.5 11C18.5 12.3807 17.3807 13.5 16 13.5V15.5C18.4853 15.5 20.5 13.4853 20.5 11H18.5ZM20 22C22.2091 22 24 20.2091 24 18H22C22 19.1046 21.1046 20 20 20V22ZM24 14C24 11.7909 22.2091 10 20 10V12C21.1046 12 22 12.8954 22 14H24ZM10 18C10 20.2091 11.7909 22 14 22V20C12.8954 20 12 19.1046 12 18H10Z" fill="#647696"/>
<path d="M9.5 15.5H14C17.3137 15.5 20 12.8137 20 9.5V5" stroke="white" stroke-width="2"/>
<path d="M7.67009 13.5V12.5H7.08976L6.80184 13.0039L7.67009 13.5ZM5.67009 17L4.6745 16.9062C4.6303 17.3751 4.91928 17.8112 5.3683 17.9534C5.81732 18.0955 6.30466 17.9051 6.53833 17.4961L5.67009 17ZM6 13.5L6.99559 13.5938L7.09869 12.5H6V13.5ZM5 2H14V0H5V2ZM17 5V9.5H19V5H17ZM14 12.5H7.67009V14.5H14V12.5ZM6.80184 13.0039L4.80184 16.5039L6.53833 17.4961L8.53833 13.9961L6.80184 13.0039ZM6.66567 17.0938L6.99559 13.5938L5.00441 13.4062L4.6745 16.9062L6.66567 17.0938ZM6 12.5H5V14.5H6V12.5ZM2 9.5V5H0V9.5H2ZM17 9.5C17 11.1569 15.6569 12.5 14 12.5V14.5C16.7614 14.5 19 12.2614 19 9.5H17ZM5 12.5C3.34315 12.5 2 11.1569 2 9.5H0C0 12.2614 2.23858 14.5 5 14.5V12.5ZM14 2C15.6569 2 17 3.34315 17 5H19C19 2.23858 16.7614 0 14 0V2ZM5 0C2.23858 0 0 2.23858 0 5H2C2 3.34315 3.34315 2 5 2V0Z" fill="#647696"/>
</svg>
