<svg width="24" height="24" viewBox="0 0 24 24" fill="none" xmlns="http://www.w3.org/2000/svg">
<path d="M20.0508 23.3844V20.9C20.0508 20.8172 19.9836 20.75 19.9008 20.75H17.4132C17.2796 20.75 17.2126 20.9117 17.3072 21.0061L19.7948 23.4906C19.8893 23.585 20.0508 23.518 20.0508 23.3844Z" fill="#647696" stroke="#647696" stroke-width="0.75"/>
<path d="M5.01245 17.4951V14.1825C5.01245 14.0721 5.10199 13.9825 5.21245 13.9825H8.52918C8.70742 13.9825 8.79663 14.1981 8.67051 14.3241L5.35378 17.6366C5.22776 17.7625 5.01245 17.6733 5.01245 17.4951Z" fill="#647696" stroke="#647696"/>
<rect x="11" y="12" width="12" height="9" rx="3" fill="white" stroke="#647696" stroke-width="2"/>
<rect x="1" y="1" width="17" height="13" rx="3" fill="white" stroke="#647696" stroke-width="2"/>
<path d="M10 16H15C17.7614 16 20 13.7614 20 11V11" stroke="#00FF00" stroke-width="2"/>
<circle cx="19" cy="5" r="4.5" fill="#D62400" stroke="#0000FF"/>
</svg>
