<svg width="24" height="24" viewBox="0 0 24 24" fill="none" xmlns="http://www.w3.org/2000/svg">
<path d="M13 11H20C21.6569 11 23 12.3431 23 14V17.75C23 19.4069 21.6569 20.75 20 20.75H19V23L16.5 20.75H13C11.3431 20.75 10 19.4069 10 17.75V14C10 12.3431 11.3431 11 13 11Z" style="stroke: white;" fill="white"/>
<path d="M16.5 20.75V19.75H16.8837L17.169 20.0067L16.5 20.75ZM19 23H20C20 23.3949 19.7676 23.7528 19.4068 23.9135C19.0461 24.0742 18.6246 24.0075 18.331 23.7433L19 23ZM19 20.75H18V19.75H19V20.75ZM20 12H13V10H20V12ZM11 14V17.75H9V14H11ZM13 19.75H16.5V21.75H13V19.75ZM17.169 20.0067L19.669 22.2567L18.331 23.7433L15.831 21.4933L17.169 20.0067ZM18 23V20.75H20V23H18ZM19 19.75H20V21.75H19V19.75ZM22 17.75V14H24V17.75H22ZM11 17.75C11 18.8546 11.8954 19.75 13 19.75V21.75C10.7909 21.75 9 19.9591 9 17.75H11ZM20 19.75C21.1046 19.75 22 18.8546 22 17.75H24C24 19.9591 22.2091 21.75 20 21.75V19.75ZM13 12C11.8954 12 11 12.8954 11 14H9C9 11.7909 10.7909 10 13 10V12ZM20 10C22.2091 10 24 11.7909 24 14H22C22 12.8954 21.1046 12 20 12V10Z" fill="#647696"/>
<path d="M20 10V11C20 13.7614 17.7614 16 15 16H9" stroke-width="2" stroke="white"/>
<path d="M15 1H4C2.34315 1 1 2.34315 1 4V11C1 12.6569 2.34315 14 4 14H5V17L8 14H15C16.6569 14 18 12.6569 18 11V4C18 2.34315 16.6569 1 15 1Z" fill="white"/>
<path d="M8 14V13H7.58579L7.29289 13.2929L8 14ZM5 17H4C4 17.4045 4.24364 17.7691 4.61732 17.9239C4.99099 18.0787 5.42111 17.9931 5.70711 17.7071L5 17ZM5 14H6V13H5V14ZM4 2H15V0H4V2ZM17 4V11H19V4H17ZM15 13H8V15H15V13ZM7.29289 13.2929L4.29289 16.2929L5.70711 17.7071L8.70711 14.7071L7.29289 13.2929ZM6 17V14H4V17H6ZM5 13H4V15H5V13ZM2 11V4H0V11H2ZM17 11C17 12.1046 16.1046 13 15 13V15C17.2091 15 19 13.2091 19 11H17ZM4 13C2.89543 13 2 12.1046 2 11H0C0 13.2091 1.79086 15 4 15V13ZM15 2C16.1046 2 17 2.89543 17 4H19C19 1.79086 17.2091 0 15 0V2ZM4 0C1.79086 0 0 1.79086 0 4H2C2 2.89543 2.89543 2 4 2V0Z" fill="#647696"/>
</svg>