<svg width="100" height="100" viewBox="0 0 100 100" fill="none" xmlns="http://www.w3.org/2000/svg">
<g clip-path="url(#clip0)">
<path d="M23.75 20C22.7554 20 21.8016 20.3951 21.0983 21.0983C20.3951 21.8016 20 22.7554 20 23.75V76.25C20 77.2446 20.3951 78.1984 21.0983 78.9016C21.8016 79.6049 22.7554 80 23.75 80H46.25V20H23.75ZM38.75 53.75H27.5V46.25H38.75V53.75ZM38.75 38.75H27.5V31.25H38.75V38.75Z" fill="#EDF1F7"/>
<path d="M76.25 20H53.75V80H76.25C77.2446 80 78.1984 79.6049 78.9016 78.9016C79.6049 78.1984 80 77.2446 80 76.25V23.75C80 22.7554 79.6049 21.8016 78.9016 21.0983C78.1984 20.3951 77.2446 20 76.25 20V20ZM72.5 53.75H61.25V46.25H72.5V53.75ZM72.5 38.75H61.25V31.25H72.5V38.75Z" fill="#EDF1F7"/>
</g>
<defs>
<clipPath id="clip0">
<rect width="60" height="60" fill="white" transform="translate(20 20)"/>
</clipPath>
</defs>
</svg>
