<svg width="18" height="10" viewBox="0 0 18 10" fill="none" xmlns="http://www.w3.org/2000/svg">
<g clip-path="url(#clip0)">
<path d="M17.7778 0H0V10H17.7778V0Z" fill="#003399"/>
<path d="M8.88858 1.11111L8.71729 1.63981L8.98118 1.72593L8.88858 1.11111Z" fill="#FFCC00"/>
<path d="M8.88898 1.11111L9.06028 1.63981L8.79639 1.72593L8.88898 1.11111Z" fill="#FFCC00"/>
<path d="M9.41786 1.49533H8.8623V1.77311L9.41786 1.49533Z" fill="#FFCC00"/>
<path d="M9.4177 1.49533L8.96863 1.82218L8.80566 1.59719L9.4177 1.49533Z" fill="#FFCC00"/>
<path d="M9.21595 2.11565L9.04465 1.58694L8.78076 1.67306L9.21595 2.11565Z" fill="#FFCC00"/>
<path d="M9.21568 2.11568L8.7666 1.78883L8.92957 1.56383L9.21568 2.11568Z" fill="#FFCC00"/>
<path d="M8.35986 1.49533H8.91542V1.77311L8.35986 1.49533Z" fill="#FFCC00"/>
<path d="M8.35986 1.49533L8.80894 1.82218L8.97191 1.59719L8.35986 1.49533Z" fill="#FFCC00"/>
<path d="M8.56201 2.11565L8.73331 1.58694L8.9972 1.67306L8.56201 2.11565Z" fill="#FFCC00"/>
<path d="M8.56201 2.1157L9.01108 1.78885L8.84812 1.56478L8.56201 2.1157Z" fill="#FFCC00"/>
<path d="M8.88858 7.77778L8.71729 8.30648L8.98118 8.39259L8.88858 7.77778Z" fill="#FFCC00"/>
<path d="M8.88898 7.77778L9.06028 8.30648L8.79639 8.39259L8.88898 7.77778Z" fill="#FFCC00"/>
<path d="M9.41786 8.162H8.8623V8.43978L9.41786 8.162Z" fill="#FFCC00"/>
<path d="M9.4177 8.162L8.96863 8.48885L8.80566 8.26385L9.4177 8.162Z" fill="#FFCC00"/>
<path d="M9.21595 8.78247L9.04465 8.25377L8.78076 8.33988L9.21595 8.78247Z" fill="#FFCC00"/>
<path d="M9.21568 8.7824L8.7666 8.45555L8.92957 8.23055L9.21568 8.7824Z" fill="#FFCC00"/>
<path d="M8.35986 8.162H8.91542V8.43978L8.35986 8.162Z" fill="#FFCC00"/>
<path d="M8.35986 8.162L8.80894 8.48885L8.97191 8.26385L8.35986 8.162Z" fill="#FFCC00"/>
<path d="M8.56201 8.78247L8.73331 8.25377L8.9972 8.33988L8.56201 8.78247Z" fill="#FFCC00"/>
<path d="M8.56201 8.78237L9.01108 8.45552L8.84812 8.23144L8.56201 8.78237Z" fill="#FFCC00"/>
<path d="M5.55557 4.44444L5.38428 4.97315L5.64817 5.05926L5.55557 4.44444Z" fill="#FFCC00"/>
<path d="M5.55548 4.44444L5.72678 4.97315L5.46289 5.05926L5.55548 4.44444Z" fill="#FFCC00"/>
<path d="M6.08436 4.82867H5.52881V5.10644L6.08436 4.82867Z" fill="#FFCC00"/>
<path d="M6.0842 4.82867L5.63513 5.15552L5.47217 4.93052L6.0842 4.82867Z" fill="#FFCC00"/>
<path d="M5.88245 5.44914L5.71116 4.92044L5.44727 5.00655L5.88245 5.44914Z" fill="#FFCC00"/>
<path d="M5.88267 5.44907L5.43359 5.12222L5.59656 4.89722L5.88267 5.44907Z" fill="#FFCC00"/>
<path d="M5.02637 4.82867H5.58192V5.10644L5.02637 4.82867Z" fill="#FFCC00"/>
<path d="M5.02637 4.82867L5.47544 5.15552L5.6384 4.93052L5.02637 4.82867Z" fill="#FFCC00"/>
<path d="M5.229 5.44914L5.4003 4.92044L5.66419 5.00655L5.229 5.44914Z" fill="#FFCC00"/>
<path d="M5.229 5.44904L5.67808 5.12219L5.51511 4.89811L5.229 5.44904Z" fill="#FFCC00"/>
<path d="M6.89551 2.56299L7.34458 2.23614L7.18162 2.01114L6.89551 2.56299Z" fill="#FFCC00"/>
<path d="M6.89551 2.56295L7.0668 2.03425L7.33069 2.12036L6.89551 2.56295Z" fill="#FFCC00"/>
<path d="M6.69336 1.94169L7.14243 2.26854L7.3054 2.04354L6.69336 1.94169Z" fill="#FFCC00"/>
<path d="M6.69336 1.94169H7.24892V2.21947L6.69336 1.94169Z" fill="#FFCC00"/>
<path d="M7.22208 1.55736L7.05078 2.08607L7.31467 2.17218L7.22208 1.55736Z" fill="#FFCC00"/>
<path d="M7.22248 1.55736L7.39377 2.08607L7.12988 2.17218L7.22248 1.55736Z" fill="#FFCC00"/>
<path d="M7.54917 2.56299L7.1001 2.23614L7.26306 2.01114L7.54917 2.56299Z" fill="#FFCC00"/>
<path d="M7.54944 2.56295L7.37815 2.03425L7.11426 2.12036L7.54944 2.56295Z" fill="#FFCC00"/>
<path d="M7.75066 1.94169L7.30066 2.26854L7.1377 2.04354L7.75066 1.94169Z" fill="#FFCC00"/>
<path d="M7.75136 1.94169H7.1958V2.21947L7.75136 1.94169Z" fill="#FFCC00"/>
<path d="M6.32874 3.78244L6.15744 3.25467L5.89355 3.34078L6.32874 3.78244Z" fill="#FFCC00"/>
<path d="M6.32896 3.78237L5.87988 3.45645L6.04285 3.23145L6.32896 3.78237Z" fill="#FFCC00"/>
<path d="M5.67578 3.78237L6.12486 3.45552L5.96189 3.23145L5.67578 3.78237Z" fill="#FFCC00"/>
<path d="M5.67578 3.78246L5.84708 3.25376L6.11097 3.33987L5.67578 3.78246Z" fill="#FFCC00"/>
<path d="M5.47412 3.162L5.9232 3.48885L6.08616 3.26385L5.47412 3.162Z" fill="#FFCC00"/>
<path d="M5.47412 3.162H6.02968V3.43978L5.47412 3.162Z" fill="#FFCC00"/>
<path d="M6.53049 3.162L6.08142 3.48885L5.91846 3.26385L6.53049 3.162Z" fill="#FFCC00"/>
<path d="M6.53065 3.162H5.9751V3.43978L6.53065 3.162Z" fill="#FFCC00"/>
<path d="M6.00177 2.77778L6.17307 3.30648L5.90918 3.39259L6.00177 2.77778Z" fill="#FFCC00"/>
<path d="M6.00186 2.77778L5.83057 3.30648L6.09445 3.39259L6.00186 2.77778Z" fill="#FFCC00"/>
<path d="M6.53065 6.49533H5.9751V6.77311L6.53065 6.49533Z" fill="#FFCC00"/>
<path d="M6.53049 6.49533L6.08142 6.82219L5.91846 6.59718L6.53049 6.49533Z" fill="#FFCC00"/>
<path d="M6.32874 7.11578L6.15744 6.588L5.89355 6.67411L6.32874 7.11578Z" fill="#FFCC00"/>
<path d="M6.32896 7.1157L5.87988 6.78978L6.04285 6.56478L6.32896 7.1157Z" fill="#FFCC00"/>
<path d="M5.67578 7.1157L6.12486 6.78885L5.96189 6.56478L5.67578 7.1157Z" fill="#FFCC00"/>
<path d="M5.67578 7.11581L5.84708 6.5871L6.11097 6.67322L5.67578 7.11581Z" fill="#FFCC00"/>
<path d="M6.00177 6.11111L6.17307 6.63981L5.90918 6.72593L6.00177 6.11111Z" fill="#FFCC00"/>
<path d="M6.00186 6.11111L5.83057 6.63981L6.09445 6.72593L6.00186 6.11111Z" fill="#FFCC00"/>
<path d="M5.47412 6.49533H6.02968V6.77311L5.47412 6.49533Z" fill="#FFCC00"/>
<path d="M5.47412 6.49533L5.9232 6.82219L6.08616 6.59718L5.47412 6.49533Z" fill="#FFCC00"/>
<path d="M7.75136 7.71483H7.1958V7.9926L7.75136 7.71483Z" fill="#FFCC00"/>
<path d="M7.75071 7.71483L7.30163 8.04168L7.13867 7.81668L7.75071 7.71483Z" fill="#FFCC00"/>
<path d="M7.54944 8.33607L7.37815 7.80737L7.11426 7.89348L7.54944 8.33607Z" fill="#FFCC00"/>
<path d="M7.54912 8.33611L7.09912 8.00925L7.26208 7.78425L7.54912 8.33611Z" fill="#FFCC00"/>
<path d="M6.89551 8.33611L7.34458 8.00925L7.18162 7.78425L6.89551 8.33611Z" fill="#FFCC00"/>
<path d="M6.89551 8.33607L7.0668 7.80737L7.33069 7.89348L6.89551 8.33607Z" fill="#FFCC00"/>
<path d="M7.22248 7.33152L7.39377 7.86023L7.12988 7.94634L7.22248 7.33152Z" fill="#FFCC00"/>
<path d="M7.22208 7.33152L7.05078 7.86023L7.31467 7.94634L7.22208 7.33152Z" fill="#FFCC00"/>
<path d="M6.69336 7.71483H7.24892V7.9926L6.69336 7.71483Z" fill="#FFCC00"/>
<path d="M6.69336 7.71483L7.14243 8.04168L7.3054 7.81668L6.69336 7.71483Z" fill="#FFCC00"/>
<path d="M12.2225 4.44444L12.3938 4.97315L12.1299 5.05926L12.2225 4.44444Z" fill="#FFCC00"/>
<path d="M12.2221 4.44444L12.0508 4.97315L12.3147 5.05926L12.2221 4.44444Z" fill="#FFCC00"/>
<path d="M11.6934 4.82867H12.2489V5.10644L11.6934 4.82867Z" fill="#FFCC00"/>
<path d="M11.6934 4.82867L12.1424 5.15552L12.3054 4.93052L11.6934 4.82867Z" fill="#FFCC00"/>
<path d="M11.8955 5.44914L12.0668 4.92044L12.3307 5.00655L11.8955 5.44914Z" fill="#FFCC00"/>
<path d="M11.8955 5.44907L12.3446 5.12222L12.1816 4.89722L11.8955 5.44907Z" fill="#FFCC00"/>
<path d="M12.7514 4.82867H12.1958V5.10644L12.7514 4.82867Z" fill="#FFCC00"/>
<path d="M12.7507 4.82867L12.3016 5.15552L12.1387 4.93052L12.7507 4.82867Z" fill="#FFCC00"/>
<path d="M12.549 5.44914L12.3777 4.92044L12.1138 5.00655L12.549 5.44914Z" fill="#FFCC00"/>
<path d="M12.5492 5.44907L12.1001 5.12222L12.2631 4.89722L12.5492 5.44907Z" fill="#FFCC00"/>
<path d="M10.8827 2.56299L10.4336 2.23614L10.5966 2.01114L10.8827 2.56299Z" fill="#FFCC00"/>
<path d="M10.8825 2.56295L10.7112 2.03425L10.4473 2.12036L10.8825 2.56295Z" fill="#FFCC00"/>
<path d="M11.0842 1.94169L10.6351 2.26854L10.4722 2.04354L11.0842 1.94169Z" fill="#FFCC00"/>
<path d="M11.0844 1.94169H10.5288V2.21947L11.0844 1.94169Z" fill="#FFCC00"/>
<path d="M10.556 1.55736L10.7273 2.08607L10.4634 2.17218L10.556 1.55736Z" fill="#FFCC00"/>
<path d="M10.5556 1.55736L10.3843 2.08607L10.6482 2.17218L10.5556 1.55736Z" fill="#FFCC00"/>
<path d="M10.229 2.56299L10.6781 2.23614L10.5151 2.01114L10.229 2.56299Z" fill="#FFCC00"/>
<path d="M10.229 2.56295L10.4003 2.03425L10.6642 2.12036L10.229 2.56295Z" fill="#FFCC00"/>
<path d="M10.0264 1.94169L10.4754 2.26854L10.6384 2.04354L10.0264 1.94169Z" fill="#FFCC00"/>
<path d="M10.0264 1.94169H10.5819V2.21947L10.0264 1.94169Z" fill="#FFCC00"/>
<path d="M11.4492 3.78246L11.6205 3.25376L11.8844 3.33987L11.4492 3.78246Z" fill="#FFCC00"/>
<path d="M11.4492 3.78239L11.8983 3.45554L11.7353 3.23054L11.4492 3.78239Z" fill="#FFCC00"/>
<path d="M12.1019 3.78239L11.6528 3.45554L11.8158 3.23054L12.1019 3.78239Z" fill="#FFCC00"/>
<path d="M12.1017 3.78246L11.9304 3.25376L11.6665 3.33987L12.1017 3.78246Z" fill="#FFCC00"/>
<path d="M12.3034 3.162L11.8544 3.48885L11.6914 3.26385L12.3034 3.162Z" fill="#FFCC00"/>
<path d="M12.3036 3.162H11.748V3.43978L12.3036 3.162Z" fill="#FFCC00"/>
<path d="M11.2471 3.162L11.6961 3.48885L11.8591 3.26385L11.2471 3.162Z" fill="#FFCC00"/>
<path d="M11.2471 3.162H11.8026V3.43978L11.2471 3.162Z" fill="#FFCC00"/>
<path d="M11.7758 2.77778L11.6045 3.30648L11.8684 3.39259L11.7758 2.77778Z" fill="#FFCC00"/>
<path d="M11.7762 2.77778L11.9475 3.30648L11.6836 3.39259L11.7762 2.77778Z" fill="#FFCC00"/>
<path d="M11.2471 6.49533H11.8026V6.77311L11.2471 6.49533Z" fill="#FFCC00"/>
<path d="M11.2471 6.49533L11.6961 6.82219L11.8591 6.59718L11.2471 6.49533Z" fill="#FFCC00"/>
<path d="M11.4492 7.11581L11.6205 6.5871L11.8844 6.67322L11.4492 7.11581Z" fill="#FFCC00"/>
<path d="M11.4492 7.11573L11.8983 6.78888L11.7353 6.56388L11.4492 7.11573Z" fill="#FFCC00"/>
<path d="M12.1019 7.11573L11.6528 6.78888L11.8158 6.56388L12.1019 7.11573Z" fill="#FFCC00"/>
<path d="M12.1017 7.11581L11.9304 6.5871L11.6665 6.67322L12.1017 7.11581Z" fill="#FFCC00"/>
<path d="M11.7758 6.11111L11.6045 6.63981L11.8684 6.72593L11.7758 6.11111Z" fill="#FFCC00"/>
<path d="M11.7762 6.11111L11.9475 6.63981L11.6836 6.72593L11.7762 6.11111Z" fill="#FFCC00"/>
<path d="M12.3036 6.49533H11.748V6.77311L12.3036 6.49533Z" fill="#FFCC00"/>
<path d="M12.3034 6.49533L11.8544 6.82219L11.6914 6.59718L12.3034 6.49533Z" fill="#FFCC00"/>
<path d="M10.0264 7.71483H10.5819V7.9926L10.0264 7.71483Z" fill="#FFCC00"/>
<path d="M10.0264 7.71483L10.4754 8.04168L10.6384 7.81668L10.0264 7.71483Z" fill="#FFCC00"/>
<path d="M10.229 8.33607L10.4003 7.80737L10.6642 7.89348L10.229 8.33607Z" fill="#FFCC00"/>
<path d="M10.229 8.33611L10.6781 8.00925L10.5151 7.78425L10.229 8.33611Z" fill="#FFCC00"/>
<path d="M10.8827 8.33611L10.4336 8.00925L10.5966 7.78425L10.8827 8.33611Z" fill="#FFCC00"/>
<path d="M10.8825 8.33607L10.7112 7.80737L10.4473 7.89348L10.8825 8.33607Z" fill="#FFCC00"/>
<path d="M10.5556 7.33152L10.3843 7.86023L10.6482 7.94634L10.5556 7.33152Z" fill="#FFCC00"/>
<path d="M10.556 7.33152L10.7273 7.86023L10.4634 7.94634L10.556 7.33152Z" fill="#FFCC00"/>
<path d="M11.0844 7.71483H10.5288V7.9926L11.0844 7.71483Z" fill="#FFCC00"/>
<path d="M11.0842 7.71483L10.6351 8.04168L10.4722 7.81668L11.0842 7.71483Z" fill="#FFCC00"/>
</g>
<defs>
<clipPath id="clip0">
<rect width="17.7778" height="10" fill="white"/>
</clipPath>
</defs>
</svg>
