<svg width="60" height="60" viewBox="0 0 60 60" fill="none" xmlns="http://www.w3.org/2000/svg">
<path d="M39.0858 2H9.5C8.94772 2 8.5 2.44771 8.5 3V57C8.5 57.5523 8.94772 58 9.5 58H50.5C51.0523 58 51.5 57.5523 51.5 57V14.4142C51.5 14.149 51.3946 13.8946 51.2071 13.7071L39.7929 2.29289C39.6054 2.10536 39.351 2 39.0858 2Z" fill="white"/>
<path fill-rule="evenodd" clip-rule="evenodd" d="M7.5 3C7.5 1.89543 8.39543 1 9.5 1H39.0858C39.6162 1 40.1249 1.21071 40.5 1.58579L51.9142 13L51.2071 13.7071L51.9142 13C52.2893 13.3751 52.5 13.8838 52.5 14.4142V57C52.5 58.1046 51.6046 59 50.5 59H9.5C8.39543 59 7.5 58.1046 7.5 57V3ZM39.0858 3L9.5 3V57H50.5V14.4142L39.0858 3Z" fill="#647696"/>
<path fill-rule="evenodd" clip-rule="evenodd" d="M38.5 13V2H40.5V13H51.5V15H40.5C39.3954 15 38.5 14.1046 38.5 13Z" fill="#647696"/>
<path fill-rule="evenodd" clip-rule="evenodd" d="M51.5 42H8.5V40H51.5V42Z" fill="#647696"/>
<path d="M17.75 55.0001H24.053V53.7561H19.418V50.4611H23.629V49.3401H19.418V46.1681H24.053V44.9241H17.75V55.0001Z" fill="#647696"/>
<path d="M31.7638 44.9241L29.8358 49.0251H29.6988L27.9218 44.9241H26.0488L28.7698 50.1051L26.2128 55.0001H28.1128L29.8358 51.1991H29.9728L31.5718 55.0001H33.4728L30.9158 50.1051L33.6368 44.9241H31.7638Z" fill="#647696"/>
<path d="M35.9338 55.0001H42.2358V53.7561H37.6018V50.4611H41.8128V49.3401H37.6018V46.1681H42.2358V44.9241H35.9338V55.0001Z" fill="#647696"/>
<path d="M40.7979 17.0449C40.2709 16.8799 39.7099 17.1739 39.5449 17.7009L34.5449 33.7009C34.3799 34.2279 34.6739 34.7889 35.2009 34.9539C35.3009 34.9849 35.4009 34.9999 35.4999 34.9999C35.9259 34.9999 36.3199 34.7259 36.4539 34.2979L41.4539 18.2979C41.6189 17.7709 41.3249 17.2099 40.7979 17.0449Z" fill="#647696"/>
<path d="M31 24C31.8284 24 32.5 23.3284 32.5 22.5C32.5 21.6716 31.8284 21 31 21C30.1716 21 29.5 21.6716 29.5 22.5C29.5 23.3284 30.1716 24 31 24Z" fill="#647696"/>
<path d="M31 31C31.8284 31 32.5 30.3284 32.5 29.5C32.5 28.6716 31.8284 28 31 28C30.1716 28 29.5 28.6716 29.5 29.5C29.5 30.3284 30.1716 31 31 31Z" fill="#647696"/>
<path d="M23.5 21H25.5C26.052 21 26.5 20.552 26.5 20C26.5 19.448 26.052 19 25.5 19H23.5C19.64 19 16.5 22.14 16.5 26C16.5 29.86 19.64 33 23.5 33H25.5C26.052 33 26.5 32.552 26.5 32C26.5 31.448 26.052 31 25.5 31H23.5C20.743 31 18.5 28.757 18.5 26C18.5 23.243 20.743 21 23.5 21Z" fill="#647696"/>
</svg>
