<svg width="17" height="16" viewBox="0 0 17 16" fill="none" xmlns="http://www.w3.org/2000/svg">
<path d="M9.45931 14.471C9.72541 14.9558 10.3344 15.1325 10.8187 14.8656L12.676 13.8417C13.1595 13.5752 13.3355 12.9672 13.0692 12.4836L12.0487 10.6305C11.9709 10.4891 11.9876 10.3205 12.0814 10.1892V10.1892V10.1892C12.1921 9.98623 12.3861 9.85132 12.6172 9.85476L14.6012 9.88429C15.1535 9.89251 15.6079 9.45131 15.6159 8.89896L15.6468 6.77892C15.6549 6.22675 15.2138 5.77259 14.6616 5.76447L12.5615 5.73358C12.3771 5.73087 12.2111 5.62528 12.1153 5.4677V5.4677C12.018 5.30773 12.0116 5.10732 12.1068 4.94615L13.1617 3.16153C13.443 2.6855 13.2846 2.07149 12.8081 1.79095L10.976 0.712302C10.5028 0.433755 9.89362 0.588758 9.61114 1.05955L8.50394 2.9049C8.42864 3.03039 8.28971 3.10157 8.14344 3.09689V3.09689C7.98992 3.09198 7.84504 3.01212 7.77288 2.87652L6.79046 1.03057C6.53127 0.543567 5.92665 0.358459 5.43925 0.616891L3.56639 1.60992C3.07785 1.86895 2.89228 2.47529 3.15215 2.96337L4.01559 4.5851C4.15425 4.84553 4.10776 5.143 3.96137 5.39917V5.39917V5.39917C3.89032 5.52352 3.7719 5.60643 3.62875 5.60206L1.59236 5.53978C1.03977 5.52288 0.578314 5.95758 0.562218 6.5102L0.500443 8.63114C0.484382 9.18259 0.917938 9.64287 1.46936 9.65978L3.35828 9.71773C3.58605 9.72471 3.78629 9.86359 3.90077 10.0606V10.0606C4.01588 10.2587 4.02504 10.5043 3.90571 10.6999L2.93194 12.2959C2.6444 12.7672 2.7932 13.3824 3.26435 13.6702L5.07743 14.7776C5.54897 15.0656 6.16471 14.9166 6.45242 14.4449L7.46842 12.7791C7.58056 12.5953 7.78697 12.494 8.00229 12.499V12.499C8.22698 12.5041 8.44106 12.6161 8.54921 12.8131L9.45931 14.471Z" fill="#6C5CE7" stroke="#6C5CE7" stroke-miterlimit="10"/>
<path d="M8 10C9.10457 10 10 9.10457 10 8C10 6.89543 9.10457 6 8 6C6.89543 6 6 6.89543 6 8C6 9.10457 6.89543 10 8 10Z" fill="white" stroke="white" stroke-miterlimit="10"/>
</svg>
