<svg width="39" height="39" viewBox="0 0 39 39" fill="none" xmlns="http://www.w3.org/2000/svg">
<path d="M15.5937 30.2248H14.7482C11.9727 30.2248 9.41782 28.35 8.88479 25.6113C8.16795 21.9353 10.9802 18.7187 14.5276 18.7187H15.851V22.3948H14.5276C13.388 22.3948 12.4506 23.3322 12.4506 24.4718C12.4506 25.6113 13.388 26.5487 14.5276 26.5487H15.5937C16.7332 26.5487 17.6706 25.6113 17.6706 24.4718V17.818C17.6706 16.8071 18.4978 15.98 19.5087 15.98C20.5196 15.98 21.3467 16.8071 21.3467 17.818V24.4718C21.3467 27.6516 18.7735 30.2248 15.5937 30.2248Z" fill="#FF61B6"/>
<path d="M19.5089 22.7808C18.498 22.7808 17.6709 21.9537 17.6709 20.9428V14.528C17.6709 11.3482 20.2442 8.7749 23.424 8.7749H24.49C27.6699 8.7749 30.2431 11.3482 30.2431 14.528C30.2431 17.7078 27.6699 20.2811 24.49 20.2811H21.4205C21.4021 20.2811 21.3654 20.2811 21.347 20.2811V20.9428C21.347 21.9537 20.5199 22.7808 19.5089 22.7808ZM23.424 12.451C22.266 12.451 21.347 13.3884 21.347 14.528V16.605C21.3654 16.605 21.4021 16.605 21.4205 16.605H24.49C25.6296 16.605 26.567 15.6676 26.567 14.528C26.5487 13.3884 25.6296 12.451 24.49 12.451H23.424Z" fill="#FF61B6"/>
</svg>
