<svg width="15" height="14" viewBox="0 0 15 14" fill="none" xmlns="http://www.w3.org/2000/svg">
<path d="M4 6H7V8H4V6Z" fill="#6c5ce7"/>
<path fill-rule="evenodd" clip-rule="evenodd" d="M8.5 0C7.67157 0 7 0.671573 7 1.5V6H11C11.5523 6 12 6.44772 12 7C12 7.55228 11.5523 8 11 8H7V12.5C7 13.3284 7.67157 14 8.5 14H13.5C14.3284 14 15 13.3284 15 12.5V1.5C15 0.671573 14.3284 0 13.5 0H8.5Z" fill="#6c5ce7"/>
<path d="M5 4.74536C5 3.87959 3.97456 3.4229 3.33104 4.00207L0.825883 6.25671C0.384503 6.65395 0.384502 7.34605 0.825882 7.74329L3.33103 9.99793C3.97456 10.5771 5 10.1204 5 9.25464L5 4.74536Z" fill="#6c5ce7"/>
</svg>
