<svg width="100" height="100" viewBox="0 0 100 100" fill="none" xmlns="http://www.w3.org/2000/svg">
<g clip-path="url(#clip0)">
<path d="M65.9204 57.3516L70.6861 52.3792C73.0506 50.0094 74.5635 46.9276 74.9898 43.6128C75.416 40.298 74.1886 36.637 72.5001 33.7496L77.5001 28.7496C77.899 28.3952 78.5244 27.9823 78.7501 27.4996C78.9758 27.0168 79.2161 26.9142 79.2318 26.3818C79.2475 25.8495 79.1541 25.3195 78.9572 24.8244C78.7603 24.3292 78.4641 23.8794 78.0867 23.5022C77.7094 23.1251 77.2587 22.8287 76.7625 22.631C76.2662 22.4334 75.7346 22.3388 75.2004 22.3529C74.6662 22.3671 74.1404 22.4897 73.6554 22.7133C73.1703 22.9369 72.7361 23.2567 72.3794 23.6533L67.5001 28.7496C64.6026 27.0669 61.2323 26.1476 57.906 26.5724C54.5796 26.9972 51.4872 28.5049 49.1091 30.8612L44.2335 35.7357L65.9204 57.3516Z" fill="#EDF1F7"/>
<path d="M54.9542 55.4854L51.0663 51.5975L44.2073 58.4748L40.7595 55.027L47.6185 48.1497L43.7305 44.2617L36.8716 51.139L32.2904 46.5725L27.8412 51.2307C25.6337 53.4508 24.2213 56.3379 23.8233 59.4433C23.4254 62.5488 24.0642 65.6987 25.6405 68.4037L21.074 72.9556C20.7237 73.2939 20.4442 73.6987 20.252 74.1462C20.0598 74.5936 19.9586 75.0749 19.9544 75.562C19.9501 76.049 20.0429 76.532 20.2274 76.9827C20.4118 77.4335 20.6841 77.843 21.0285 78.1874C21.3729 78.5318 21.7824 78.8042 22.2332 78.9886C22.684 79.173 23.167 79.2658 23.654 79.2616C24.141 79.2574 24.6223 79.1562 25.0698 78.9639C25.5173 78.7717 25.922 78.4923 26.2604 78.142L30.8122 73.5901C33.5173 75.1664 36.6672 75.8052 39.7726 75.4073C42.878 75.0093 45.7651 73.5969 47.9852 71.3894L52.5371 66.8375L48.0769 62.3627L54.9542 55.4854Z" fill="#EDF1F7"/>
</g>
<defs>
<clipPath id="clip0">
<rect width="60" height="60" fill="white" transform="translate(20 20)"/>
</clipPath>
</defs>
</svg>
