<svg width="53" height="53" viewBox="0 0 53 53" fill="none" xmlns="http://www.w3.org/2000/svg">
<path d="M40.7975 32.8719L44.9277 28.5626C46.977 26.5087 48.2882 23.8378 48.6576 20.965C49.0271 18.0921 47.9632 14.9193 46.4999 12.4169L50.8332 8.08352C51.179 7.77638 51.7209 7.41856 51.9166 7.00018C52.1122 6.5818 52.3205 6.49284 52.3341 6.03146C52.3477 5.57008 52.2667 5.11079 52.096 4.68168C51.9254 4.25257 51.6687 3.86266 51.3416 3.53582C51.0146 3.20897 50.6241 2.95206 50.194 2.78079C49.7638 2.60953 49.3032 2.52752 48.8402 2.53977C48.3772 2.55203 47.9215 2.65829 47.5011 2.85207C47.0808 3.04584 46.7045 3.32305 46.3953 3.66674L42.1666 8.08352C39.6555 6.62524 36.7345 5.82844 33.8517 6.1966C30.9688 6.56476 28.2887 7.87143 26.2277 9.9136L22.0022 14.1381L40.7975 32.8719Z" fill="#DDE3EE"/>
<path d="M31.2938 31.2548L27.9242 27.8853L21.9798 33.8456L18.9917 30.8575L24.9361 24.8972L21.5666 21.5276L15.6221 27.4879L11.6518 23.5303L7.79585 27.5674C5.88269 29.4915 4.65857 31.9936 4.31367 34.685C3.96877 37.3764 4.5224 40.1063 5.88856 42.4507L1.93091 46.3956C1.6273 46.6888 1.38513 47.0396 1.21853 47.4274C1.05193 47.8153 0.964237 48.2324 0.960569 48.6545C0.956901 49.0766 1.03733 49.4951 1.19717 49.8858C1.357 50.2765 1.59304 50.6314 1.89151 50.9299C2.18998 51.2283 2.5449 51.4644 2.93557 51.6242C3.32623 51.784 3.74482 51.8645 4.1669 51.8608C4.58899 51.8571 5.00611 51.7694 5.39394 51.6028C5.78177 51.4362 6.13254 51.1941 6.42578 50.8905L10.3707 46.9455C12.7151 48.3117 15.445 48.8653 18.1364 48.5204C20.8278 48.1755 23.3299 46.9514 25.254 45.0382L29.1989 41.0933L25.3335 37.2151L31.2938 31.2548Z" fill="#DDE3EE"/>
</svg>
