<svg width="16" height="16" viewBox="0 0 16 16" fill="none" xmlns="http://www.w3.org/2000/svg">
<g clip-path="url(#clip0)">
<path d="M12.649 8.89999L13.862 7.62999C14.4639 7.0247 14.849 6.23758 14.9575 5.39092C15.066 4.54427 14.8918 3.68548 14.462 2.94799L15.703 1.70699C15.8046 1.61647 15.8866 1.50619 15.944 1.38289C16.0015 1.25959 16.0332 1.12586 16.0372 0.989892C16.0412 0.853921 16.0174 0.718563 15.9673 0.592101C15.9172 0.465638 15.8418 0.35073 15.7457 0.254406C15.6497 0.158082 15.535 0.082367 15.4087 0.0318941C15.2823 -0.0185789 15.1471 -0.0427489 15.0111 -0.0391372C14.8751 -0.0355255 14.7413 -0.00420819 14.6178 0.0528989C14.4943 0.110006 14.3838 0.191702 14.293 0.292989L13.052 1.53399C12.3145 1.10422 11.4557 0.930062 10.6091 1.03856C9.76244 1.14706 8.97532 1.53215 8.37003 2.13399L7.12903 3.37899L12.649 8.89999Z" fill="#A9B6CB"/>
<path d="M9.53002 9.52997L8.47002 8.46997L6.60002 10.345L5.66002 9.40497L7.53002 7.52997L6.47002 6.46997L4.60002 8.34497L3.35102 7.09997L2.13802 8.36997C1.53618 8.97526 1.15109 9.76238 1.04259 10.609C0.934093 11.4557 1.10825 12.3145 1.53802 13.052L0.29302 14.293C0.19751 14.3852 0.121328 14.4956 0.0689187 14.6176C0.0165097 14.7396 -0.0110765 14.8708 -0.0122303 15.0036C-0.0133841 15.1363 0.0119176 15.268 0.0621985 15.3909C0.112479 15.5138 0.186732 15.6255 0.280625 15.7194C0.374518 15.8133 0.48617 15.8875 0.609066 15.9378C0.731962 15.9881 0.863642 16.0134 0.996421 16.0122C1.1292 16.0111 1.26042 15.9835 1.38242 15.9311C1.50443 15.8787 1.61477 15.8025 1.70702 15.707L2.94802 14.466C3.68551 14.8957 4.5443 15.0699 5.39095 14.9614C6.23761 14.8529 7.02473 14.4678 7.63002 13.866L8.87102 12.625L7.65502 11.405L9.53002 9.52997Z" fill="#647696"/>
</g>
<defs>
<clipPath id="clip0">
<rect width="16" height="16" fill="white"/>
</clipPath>
</defs>
</svg>
