<svg width="16" height="16" viewBox="0 0 16 16" fill="none" xmlns="http://www.w3.org/2000/svg">
<g clip-path="url(#clip0_1006_16)">
<path d="M12.649 8.89993L13.862 7.62993C14.4638 7.02463 14.8489 6.23752 14.9574 5.39086C15.0659 4.54421 14.8918 3.68542 14.462 2.94793L15.703 1.70693C15.8045 1.61641 15.8865 1.50613 15.944 1.38283C16.0015 1.25953 16.0332 1.1258 16.0372 0.989831C16.0412 0.85386 16.0174 0.718502 15.9673 0.59204C15.9171 0.465577 15.8417 0.350669 15.7457 0.254345C15.6496 0.158021 15.535 0.082306 15.4086 0.031833C15.2823 -0.0186399 15.147 -0.0428099 15.011 -0.0391982C14.8751 -0.0355866 14.7412 -0.00426923 14.6178 0.0528379C14.4943 0.109945 14.3838 0.191641 14.293 0.292928L13.052 1.53393C12.3145 1.10416 11.4557 0.930001 10.6091 1.0385C9.76241 1.147 8.97529 1.53208 8.37 2.13393L7.129 3.37893L12.649 8.89993Z" fill="#6C5CE7"/>
<path d="M9.53 9.52997L8.47001 8.46997L6.6 10.345L5.66 9.40497L7.53 7.52997L6.47 6.46997L4.6 8.34497L3.351 7.09997L2.138 8.36997C1.53616 8.97526 1.15108 9.76238 1.04258 10.609C0.934078 11.4557 1.10824 12.3145 1.538 13.052L0.293005 14.293C0.197495 14.3852 0.121312 14.4956 0.0689035 14.6176C0.0164945 14.7396 -0.0110918 14.8708 -0.0122456 15.0036C-0.0133994 15.1363 0.0119023 15.268 0.0621832 15.3909C0.112464 15.5138 0.186717 15.6255 0.28061 15.7194C0.374503 15.8133 0.486155 15.8875 0.609051 15.9378C0.731947 15.9881 0.863627 16.0134 0.996406 16.0122C1.12919 16.0111 1.26041 15.9835 1.38241 15.9311C1.50441 15.8787 1.61476 15.8025 1.707 15.707L2.948 14.466C3.6855 14.8957 4.54428 15.0699 5.39094 14.9614C6.23759 14.8529 7.02471 14.4678 7.63 13.866L8.87101 12.625L7.655 11.405L9.53 9.52997Z" fill="#6C5CE7"/>
</g>
<defs>
<clipPath id="clip0_1006_16">
<rect width="16" height="16" fill="white"/>
</clipPath>
</defs>
</svg>
