<svg width="20" height="20" viewBox="0 0 16 16" fill="none" xmlns="http://www.w3.org/2000/svg">
<path d="M0 8C0 3.58173 3.58173 0 8 0C12.4183 0 16 3.58173 16 8C16 12.4183 12.4183 16 8 16C3.58173 16 0 12.4183 0 8Z" fill="#6C5CE7"/>
<path d="M10.3525 8.33804L7.66994 5.66422L8.12927 5.20502C8.42354 4.91369 8.80627 4.72709 9.21816 4.67449C9.61314 4.62404 10.0312 4.73191 10.4066 4.94993L10.6586 5.09629L10.8601 4.8858L11.583 4.13078L11.587 4.12662L11.5908 4.12236C11.61 4.10107 11.6333 4.08382 11.6595 4.07176C11.6858 4.05967 11.7142 4.05302 11.7432 4.05224C11.7722 4.05149 11.801 4.05662 11.8278 4.06731C11.8546 4.078 11.8789 4.09398 11.8992 4.11424L12.16 3.85322L11.8992 4.11424C11.9194 4.13451 11.9353 4.1586 11.9458 4.185C11.9509 4.1978 11.9547 4.21102 11.9571 4.22447C11.9506 4.23547 11.9436 4.24789 11.9365 4.26171C11.9348 4.26324 11.9329 4.26502 11.9306 4.26707C11.92 4.27642 11.9078 4.28644 11.8897 4.30118L11.8864 4.30391C11.8709 4.31647 11.8487 4.33444 11.8281 4.35276L11.8199 4.36002L11.8122 4.36776L11.0714 5.10851L10.8693 5.31062L11.0136 5.55736C11.242 5.94791 11.3835 6.40596 11.3348 6.78438C11.2821 7.19422 11.0951 7.57544 10.8024 7.86876L10.7998 7.87138L10.7972 7.87407L10.3525 8.33804Z" stroke="white"/>
<path d="M4.98504 8.21605L5.38284 7.79956L5.79358 8.20896L6.05582 8.47036L6.31729 8.20818L7.07153 7.45191L7.12376 7.50413L6.3688 8.26109L6.1076 8.52298L6.36916 8.78453L6.87993 9.29531L7.14218 9.55756L7.40407 9.29498L8.15831 8.53871L8.21018 8.59056L7.45322 9.34753L7.19176 9.609L7.45278 9.87089L7.85251 10.2719L7.44038 10.6841C7.44029 10.6842 7.44018 10.6842 7.44009 10.6844C7.16909 10.9537 6.81673 11.126 6.43776 11.1746C6.05864 11.2232 5.67409 11.1452 5.34384 10.9527L5.09727 10.809L4.89547 11.0108L4.22113 11.6852L4.21884 11.6875L4.21662 11.6898C4.20064 11.7063 4.18156 11.7195 4.16044 11.7286C4.13933 11.7376 4.11664 11.7424 4.09367 11.7426C4.07069 11.7428 4.04791 11.7384 4.02664 11.7297C4.00538 11.721 3.98607 11.7082 3.96982 11.6919C3.95358 11.6757 3.94073 11.6564 3.93202 11.6351L3.59116 11.7746L3.93202 11.6351C3.92333 11.6138 3.91896 11.591 3.91916 11.5681C3.91936 11.5451 3.92413 11.5224 3.9332 11.5013C3.94227 11.4802 3.95544 11.4611 3.97196 11.4451L3.97407 11.4431L3.97613 11.441L4.65264 10.7667L4.85511 10.5649L4.71118 10.3179C4.51873 9.98767 4.44076 9.60311 4.48933 9.224C4.53793 8.84487 4.71036 8.49242 4.97987 8.22138L4.98249 8.21873L4.98504 8.21605Z" stroke="white"/>
</svg>
