<svg width="100" height="100" viewBox="0 0 100 100" fill="none" xmlns="http://www.w3.org/2000/svg">
<g clip-path="url(#clip0)">
<path d="M65.9205 57.3525L70.6861 52.3802C73.0506 50.0104 74.5635 46.9286 74.9898 43.6138C75.4161 40.299 74.1886 36.638 72.5001 33.7506L77.5001 28.7505C77.8991 28.3962 78.5244 27.9833 78.7501 27.5005C78.9759 27.0178 79.2161 26.9152 79.2318 26.3828C79.2475 25.8504 79.1541 25.3205 78.9572 24.8254C78.7603 24.3302 78.4641 23.8803 78.0867 23.5032C77.7094 23.1261 77.2588 22.8296 76.7625 22.632C76.2662 22.4344 75.7347 22.3398 75.2004 22.3539C74.6662 22.3681 74.1404 22.4907 73.6554 22.7143C73.1703 22.9378 72.7361 23.2577 72.3794 23.6543L67.5001 28.7505C64.6027 27.0679 61.2323 26.1485 57.906 26.5733C54.5796 26.9981 51.4872 28.5058 49.1091 30.8622L44.2335 35.7366L65.9205 57.3525Z" fill="#EDF1F7"/>
<path d="M54.9542 55.4864L51.0663 51.5985L44.2073 58.4757L40.7595 55.0279L47.6185 48.1507L43.7305 44.2627L36.8716 51.14L32.2904 46.5735L27.8412 51.2317C25.6337 53.4518 24.2213 56.3389 23.8233 59.4443C23.4254 62.5497 24.0642 65.6997 25.6405 68.4047L21.074 72.9565C20.7237 73.2949 20.4442 73.6996 20.252 74.1471C20.0598 74.5946 19.9586 75.0759 19.9544 75.5629C19.9501 76.05 20.0429 76.5329 20.2274 76.9837C20.4118 77.4345 20.6841 77.844 21.0285 78.1884C21.3729 78.5328 21.7824 78.8051 22.2332 78.9896C22.684 79.174 23.167 79.2668 23.654 79.2626C24.141 79.2583 24.6223 79.1571 25.0698 78.9649C25.5173 78.7727 25.922 78.4933 26.2604 78.1429L30.8122 73.5911C33.5173 75.1674 36.6672 75.8062 39.7726 75.4083C42.878 75.0103 45.7651 73.5979 47.9852 71.3904L52.5371 66.8385L48.0769 62.3637L54.9542 55.4864Z" fill="#EDF1F7"/>
</g>
<defs>
<clipPath id="clip0">
<rect width="60" height="60" fill="white" transform="translate(20 20)"/>
</clipPath>
</defs>
</svg>
