<svg width="16" height="12" viewBox="0 0 16 12" fill="none" xmlns="http://www.w3.org/2000/svg">
<path fill-rule="evenodd" clip-rule="evenodd" d="M0.378961 5.1868C1.6363 2.80527 4.40176 -8.80744e-05 8.00071 2.07387e-09C11.6252 8.87038e-05 14.4286 2.87374 15.667 5.27322C15.9026 5.72958 15.9026 6.27042 15.667 6.72678C14.4286 9.12626 11.6252 11.9999 8.00071 11.9999C4.45617 11.9999 1.72011 8.89014 0.437019 6.78357C0.139846 6.29567 0.112243 5.69199 0.378961 5.1868ZM8.00071 9C9.65756 9 11.0007 7.65685 11.0007 6C11.0007 4.34315 9.65756 3 8.00071 3C6.34385 3 5.00071 4.34315 5.00071 6C5.00071 7.65685 6.34385 9 8.00071 9Z" fill="#647696"/>
</svg>
