<svg width="11" height="14" viewBox="0 0 11 14" fill="none" xmlns="http://www.w3.org/2000/svg">
<g clip-path="url(#clip0)">
<path d="M10.4348 2.52174C10.4348 1.3913 9.47826 0.434783 8.34783 0.434783C7.21739 0.434783 6.26087 1.3913 6.26087 2.52174C6.26087 3.30435 6.69565 3.91304 7.30435 4.26087C7.13043 5.13043 6.78261 6.17391 6 6.95652C5.30435 7.73913 4.26087 8.26087 2.95652 8.43478V3.91304C3.65217 3.56522 4.17391 2.86957 4.17391 2.08696C4.08696 0.956522 3.21739 0 2.08696 0C0.956522 0 0 0.956522 0 2.08696C0 2.95652 0.521739 3.65217 1.21739 3.91304V13.1304C1.21739 13.6522 1.56522 14 2.08696 14C2.6087 14 2.95652 13.6522 2.95652 13.1304V10.2609C4.78261 10 6.26087 9.30435 7.30435 8.17391C8.34783 7.04348 8.78261 5.56522 8.95652 4.52174C9.82609 4.17391 10.4348 3.47826 10.4348 2.52174Z" fill="#A9B6CB"/>
</g>
<defs>
<clipPath id="clip0">
<rect width="10.4348" height="14" fill="white"/>
</clipPath>
</defs>
</svg>
