<svg width="24" height="24" viewBox="0 0 24 24" fill="none" xmlns="http://www.w3.org/2000/svg">
<path fill-rule="evenodd" clip-rule="evenodd" d="M11.5 22.9536V18.661C10.0256 18.6274 8.61985 18.4461 7.32941 18.1429C7.57101 18.8195 7.85028 19.4419 8.16011 19.9996C9.14603 21.7743 10.3387 22.7386 11.5 22.9536ZM12.5 22.9536V18.661C13.9744 18.6274 15.3802 18.4461 16.6706 18.1429C16.429 18.8195 16.1497 19.4419 15.8399 19.9996C14.854 21.7743 13.6613 22.7386 12.5 22.9536ZM12.5 17.6607C14.1313 17.6218 15.6611 17.3937 17.0221 17.0221C17.3937 15.6611 17.6218 14.1313 17.6607 12.5H12.5V17.6607ZM12.5 11.5V6.33928C14.1313 6.37818 15.6611 6.60629 17.0221 6.97789C17.3937 8.33892 17.6218 9.86874 17.6607 11.5H12.5ZM18.661 12.5C18.6274 13.9744 18.446 15.3802 18.1428 16.6706C18.8195 16.429 19.4419 16.1497 19.9996 15.8399C21.7743 14.854 22.7386 13.6613 22.9536 12.5H18.661ZM22.9536 11.5H18.661C18.6274 10.0256 18.446 8.61985 18.1428 7.32941C18.8195 7.57101 19.4419 7.85028 19.9996 8.16011C21.7743 9.14603 22.7386 10.3387 22.9536 11.5ZM11.5 11.5H6.33928C6.37818 9.86874 6.60629 8.33892 6.97789 6.97789C8.33892 6.60629 9.86874 6.37818 11.5 6.33928V11.5ZM6.33928 12.5H11.5V17.6607C9.86874 17.6218 8.33892 17.3937 6.97789 17.0221C6.60629 15.6611 6.37818 14.1313 6.33928 12.5ZM5.33902 11.5C5.37259 10.0256 5.55395 8.61985 5.85715 7.32941C5.18048 7.57101 4.55807 7.85028 4.00036 8.16011C2.22571 9.14603 1.2614 10.3387 1.04643 11.5H5.33902ZM1.04643 12.5H5.33902C5.37259 13.9744 5.55395 15.3802 5.85715 16.6706C5.18048 16.429 4.55807 16.1497 4.00036 15.8399C2.22571 14.854 1.26139 13.6613 1.04643 12.5ZM15.2036 22.5262C16.3054 21.4375 17.2176 19.8047 17.8288 17.8288C19.8047 17.2176 21.4375 16.3054 22.5262 15.2036C21.4627 18.7025 18.7025 21.4627 15.2036 22.5262ZM12 24C18.6274 24 24 18.6274 24 12C24 5.37258 18.6274 0 12 0C5.37258 0 0 5.37258 0 12C0 18.6274 5.37258 24 12 24ZM8.79636 1.47381C5.2975 2.53731 2.53731 5.2975 1.47381 8.79636C2.56251 7.69464 4.19531 6.78238 6.17123 6.17122C6.78239 4.19531 7.69465 2.56251 8.79636 1.47381ZM7.32941 5.85715C8.61985 5.55395 10.0256 5.37259 11.5 5.33901V1.04643C10.3387 1.2614 9.14603 2.22571 8.16011 4.00036C7.85028 4.55806 7.57101 5.18048 7.32941 5.85715ZM16.6706 5.85715C15.3802 5.55395 13.9744 5.37259 12.5 5.33901V1.04643C13.6613 1.26139 14.854 2.22571 15.8399 4.00036C16.1497 4.55806 16.429 5.18048 16.6706 5.85715ZM15.2036 1.47381C16.3054 2.56251 17.2176 4.19531 17.8288 6.17123C19.8047 6.78238 21.4375 7.69465 22.5262 8.79636C21.4627 5.2975 18.7025 2.53731 15.2036 1.47381ZM8.79636 22.5262C7.69465 21.4375 6.78239 19.8047 6.17123 17.8288C4.19531 17.2176 2.56251 16.3054 1.47381 15.2036C2.53731 18.7025 5.2975 21.4627 8.79636 22.5262Z" fill="#475161"/>
</svg>
