<svg xmlns="http://www.w3.org/2000/svg" width="12" height="12" viewBox="0 0 12 12" fill="none">
<path d="M1 7.75333L5.53333 10.4733L10.0667 7.75333M1 5.48667L5.53333 8.20667L10.0667 5.48667M1 3.22L5.53333 0.5L10.0667 3.22L5.53333 5.94L1 3.22Z" stroke="#647696" stroke-linecap="round" stroke-linejoin="round"/>
<circle cx="7.57331" cy="8.88612" r="2.94667" fill="#F5F5F5"/>
<circle cx="7.57333" cy="8.88766" r="2.04" stroke="#647696"/>
<path d="M6.66666 7.05859C5.99495 7.39241 5.53333 8.08557 5.53333 8.88654C5.53333 9.68752 5.99495 10.3807 6.66666 10.7145V10.2465C6.66666 10.0199 6.43999 9.56654 5.98666 9.33988C5.62399 9.15854 5.68444 8.81099 5.75999 8.65988L6.43999 7.97988C6.62133 7.79854 6.66666 7.29013 6.66666 7.05859Z" fill="#647696" stroke="#647696" stroke-linecap="round" stroke-linejoin="round"/>
<path d="M9.15999 9.00047C9.15999 8.59518 8.96949 8.23104 8.66679 7.98047C8.55719 8.01637 8.30511 8.11858 8.17359 8.24022C8.00919 8.39227 7.68039 8.84842 7.84479 9.00047C8.00919 9.15252 8.33799 9.00047 8.50239 9.15252C8.66679 9.30457 8.83119 9.36792 8.66679 10.0205C8.96949 9.7699 9.15999 9.40576 9.15999 9.00047Z" fill="#647696" stroke="#647696" stroke-linecap="round" stroke-linejoin="round"/>
</svg>