<svg width="16" height="16" viewBox="0 0 16 16" fill="none" xmlns="http://www.w3.org/2000/svg">
<g clip-path="url(#clip0)">
<path fill-rule="evenodd" clip-rule="evenodd" d="M8.54713 0.0712536C8.38879 -0.0237512 8.19098 -0.0237512 8.03264 0.0712536L1.74283 3.84514C1.59222 3.9355 1.50008 4.09826 1.50008 4.27389C1.50008 4.44952 1.59222 4.61227 1.74283 4.70263L8.03264 8.47652C8.19098 8.57153 8.38879 8.57153 8.54713 8.47652L14.8369 4.70263C14.9875 4.61227 15.0797 4.44952 15.0797 4.27389C15.0797 4.09826 14.9875 3.9355 14.8369 3.84514L8.54713 0.0712536ZM8.28989 7.46468L2.9719 4.27389L8.28989 1.0831L13.6079 4.27389L8.28989 7.46468ZM2.25732 6.99005C2.02053 6.84797 1.7134 6.92476 1.57133 7.16155C1.42926 7.39834 1.50604 7.70547 1.74283 7.84754L6.89811 10.9407C7.00891 10.6206 7.15834 10.3186 7.34085 10.0402L2.25732 6.99005ZM12.003 8.38172C12.3877 8.50406 12.7477 8.68179 13.0736 8.90553L14.8369 7.84754C15.0737 7.70547 15.1505 7.39834 15.0084 7.16155C14.8664 6.92476 14.5592 6.84797 14.3224 6.99005L12.003 8.38172ZM6.70783 12.8053L2.25732 10.135C2.02053 9.99288 1.7134 10.0697 1.57133 10.3065C1.42926 10.5432 1.50604 10.8504 1.74283 10.9924L7.18405 14.2572C6.93996 13.8167 6.77485 13.3263 6.70783 12.8053ZM14.6753 11.0894C14.5764 10.7636 14.438 10.4549 14.2655 10.1691L14.3224 10.135C14.5592 9.99288 14.8664 10.0697 15.0084 10.3065C15.1505 10.5432 15.0737 10.8504 14.8369 10.9924L14.6753 11.0894Z" fill="#647696"/>
<circle cx="10.7625" cy="12.2782" r="2.83042" stroke="#647696"/>
<path d="M9.50458 9.74243C8.57261 10.2056 7.93213 11.1673 7.93213 12.2786C7.93213 13.39 8.57261 14.3517 9.50458 14.8148V14.1656C9.50458 13.8511 9.19009 13.2221 8.56111 12.9076C8.05793 12.656 8.14179 12.1738 8.24662 11.9641L9.19009 11.0207C9.44168 10.7691 9.50458 10.0637 9.50458 9.74243Z" stroke="#647696" stroke-linecap="round" stroke-linejoin="round"/>
<path d="M13.5931 12.2784C13.5931 11.4401 13.2287 10.687 12.6496 10.1687C12.44 10.243 11.9577 10.4544 11.7061 10.706C11.3917 11.0204 10.7627 11.9639 11.0772 12.2784C11.3917 12.5929 12.0206 12.2784 12.3351 12.5929C12.6496 12.9074 12.9641 13.0384 12.6496 14.3881C13.2287 13.8698 13.5931 13.1167 13.5931 12.2784Z" stroke="#647696" stroke-linecap="round" stroke-linejoin="round"/>
</g>
<defs>
<clipPath id="clip0">
<rect width="16" height="16" fill="white"/>
</clipPath>
</defs>
</svg>
