<svg width="16" height="18" viewBox="0 0 16 18" fill="none" xmlns="http://www.w3.org/2000/svg">
<path d="M1 11.6667L7.66667 15.6667L14.3333 11.6667M1 8.33333L7.66667 12.3333L14.3333 8.33333M1 5L7.66667 1L14.3333 5L7.66667 9L1 5Z" stroke="#647696" stroke-width="1.5" stroke-linecap="round" stroke-linejoin="round"/>
<circle cx="10.6667" cy="13.3333" r="4.33333" fill="#F5F5F5"/>
<circle cx="10.6667" cy="13.3334" r="3" stroke="#647696" stroke-width="1.5"/>
<path d="M9.33333 10.6451C8.34552 11.136 7.66666 12.1554 7.66666 13.3333C7.66666 14.5112 8.34552 15.5306 9.33333 16.0215V15.3333C9.33333 15 9 14.3333 8.33333 14C7.8 13.7333 7.88889 13.2222 8 13L9 12C9.26666 11.7333 9.33333 10.9856 9.33333 10.6451Z" fill="#6C5CE7" stroke="#647696" stroke-width="1.5" stroke-linecap="round" stroke-linejoin="round"/>
<path d="M13 13.5C13 12.904 12.7199 12.3685 12.2747 12C12.1135 12.0528 11.7428 12.2031 11.5494 12.382C11.3077 12.6056 10.8241 13.2764 11.0659 13.5C11.3077 13.7236 11.7912 13.5 12.0329 13.7236C12.2747 13.9472 12.5165 14.0404 12.2747 15C12.7199 14.6315 13 14.096 13 13.5Z" fill="#6C5CE7" stroke="#647696" stroke-width="1.5" stroke-linecap="round" stroke-linejoin="round"/>
</svg>
