<svg xmlns="http://www.w3.org/2000/svg" width="12" height="12" viewBox="0 0 12 12" fill="none">
<circle cx="6" cy="6" r="5.625" stroke="#475161" stroke-width="0.75"/>
<path d="M9.125 6C9.125 7.60239 8.74534 9.03475 8.15096 10.0537C7.55121 11.0818 6.77775 11.625 6 11.625C5.22225 11.625 4.44879 11.0818 3.84904 10.0537C3.25466 9.03475 2.875 7.60239 2.875 6C2.875 4.39761 3.25466 2.96525 3.84904 1.94631C4.44879 0.918168 5.22225 0.375 6 0.375C6.77775 0.375 7.55121 0.918168 8.15096 1.94631C8.74534 2.96525 9.125 4.39761 9.125 6Z" stroke="#475161" stroke-width="0.75"/>
<path d="M6 2.875C7.60239 2.875 9.03475 3.25466 10.0537 3.84904C11.0818 4.44879 11.625 5.22225 11.625 6C11.625 6.77775 11.0818 7.55121 10.0537 8.15096C9.03475 8.74534 7.60239 9.125 6 9.125C4.39761 9.125 2.96525 8.74534 1.94631 8.15096C0.918168 7.55121 0.375 6.77775 0.375 6C0.375 5.22225 0.918168 4.44879 1.94631 3.84904C2.96525 3.25466 4.39761 2.875 6 2.875Z" stroke="#475161" stroke-width="0.75"/>
<path d="M6 0.5V11.5" stroke="#475161" stroke-width="0.75"/>
<path d="M0.5 6L11.5 6" stroke="#475161" stroke-width="0.75"/>
</svg>