<svg width="16" height="16" viewBox="0 0 16 16" fill="none" xmlns="http://www.w3.org/2000/svg">
<g clip-path="url(#clip0)">
<path fill-rule="evenodd" clip-rule="evenodd" d="M8.03252 0.0712536C8.19086 -0.0237512 8.38867 -0.0237512 8.54701 0.0712536L14.8368 3.84514C14.9874 3.9355 15.0796 4.09826 15.0796 4.27389C15.0796 4.44952 14.9874 4.61227 14.8368 4.70263L8.54701 8.47652C8.38867 8.57153 8.19086 8.57153 8.03252 8.47652L1.74271 4.70263C1.5921 4.61227 1.49995 4.44952 1.49995 4.27389C1.49995 4.09826 1.5921 3.9355 1.74271 3.84514L8.03252 0.0712536ZM1.57121 7.16155C1.71328 6.92476 2.02041 6.84797 2.2572 6.99005L7.34072 10.0402C7.15822 10.3186 7.00878 10.6206 6.89799 10.9407L1.74271 7.84754C1.50592 7.70547 1.42913 7.39834 1.57121 7.16155ZM6.70768 12.8052L2.2572 10.135C2.02041 9.99288 1.71328 10.0697 1.57121 10.3065C1.42913 10.5432 1.50592 10.8504 1.74271 10.9924L7.18388 14.2572C6.9398 13.8166 6.7747 13.3263 6.70768 12.8052ZM14.6752 11.0894C14.5763 10.7636 14.4378 10.455 14.2653 10.1691L14.3223 10.135C14.5591 9.99288 14.8662 10.0697 15.0083 10.3065C15.1504 10.5432 15.0736 10.8504 14.8368 10.9924L14.6752 11.0894ZM13.0735 8.90555C12.7475 8.68181 12.3875 8.50408 12.0028 8.38174L14.3223 6.99005C14.5591 6.84797 14.8662 6.92476 15.0083 7.16155C15.1504 7.39834 15.0736 7.70547 14.8368 7.84754L13.0735 8.90555Z" fill="#6C5CE7"/>
<circle cx="10.7625" cy="12.2782" r="2.83042" stroke="#6C5CE7"/>
<path d="M9.50458 9.74243C8.57261 10.2056 7.93213 11.1673 7.93213 12.2786C7.93213 13.39 8.57261 14.3517 9.50458 14.8148V14.1656C9.50458 13.8511 9.19009 13.2221 8.56111 12.9076C8.05793 12.656 8.14179 12.1738 8.24662 11.9641L9.19009 11.0207C9.44168 10.7691 9.50458 10.0637 9.50458 9.74243Z" fill="#6C5CE7" stroke="#6C5CE7" stroke-linecap="round" stroke-linejoin="round"/>
<path d="M13.593 12.2784C13.593 11.4401 13.2286 10.687 12.6495 10.1687C12.4398 10.243 11.9576 10.4544 11.706 10.706C11.3915 11.0204 10.7626 11.9639 11.077 12.2784C11.3915 12.5929 12.0205 12.2784 12.335 12.5929C12.6495 12.9074 12.964 13.0384 12.6495 14.3881C13.2286 13.8698 13.593 13.1167 13.593 12.2784Z" fill="#6C5CE7" stroke="#6C5CE7" stroke-linecap="round" stroke-linejoin="round"/>
</g>
<defs>
<clipPath id="clip0">
<rect width="16" height="16" fill="white"/>
</clipPath>
</defs>
</svg>
