<svg width="12" height="12" viewBox="0 0 12 12" fill="none" xmlns="http://www.w3.org/2000/svg">
<path fill-rule="evenodd" clip-rule="evenodd" d="M4 1H2C1.44772 1 1 1.44772 1 2V4C1 4.55228 1.44772 5 2 5H4C4.55228 5 5 4.55228 5 4V2C5 1.44772 4.55228 1 4 1ZM2 7H4C4.55228 7 5 7.44772 5 8V10C5 10.5523 4.55228 11 4 11H2C1.44772 11 1 10.5523 1 10V8C1 7.44772 1.44772 7 2 7ZM8 7H10C10.5523 7 11 7.44772 11 8V10C11 10.5523 10.5523 11 10 11H8C7.44772 11 7 10.5523 7 10V8C7 7.44772 7.44772 7 8 7ZM8 1H10C10.5523 1 11 1.44772 11 2V4C11 4.55228 10.5523 5 10 5H8C7.44772 5 7 4.55228 7 4V2C7 1.44772 7.44772 1 8 1Z" fill="#F56200"/>
</svg>
