<svg width="32" height="32" viewBox="0 0 32 32" fill="none" xmlns="http://www.w3.org/2000/svg">
<circle cx="16" cy="16" r="16" fill="#EDF1F7"/>
<path d="M18.2602 11.9802C18.2602 13.2394 17.2394 14.2602 15.9802 14.2602C14.721 14.2602 13.7002 13.2394 13.7002 11.9802C13.7002 10.721 14.721 9.7002 15.9802 9.7002C17.2394 9.7002 18.2602 10.721 18.2602 11.9802Z" stroke="#647696"/>
<path d="M11.115 15.4498C11.9849 15.4498 12.69 14.7447 12.69 13.8748C12.69 13.005 11.9849 12.2998 11.115 12.2998C10.2452 12.2998 9.54004 13.005 9.54004 13.8748C9.54004 14.7447 10.2452 15.4498 11.115 15.4498Z" stroke="#647696"/>
<path d="M17.4139 15.8374H14.5851C13.5877 15.8374 12.7754 16.6497 12.7754 17.6471V22.2856H19.2236V17.6471C19.2236 16.6497 18.4113 15.8374 17.4139 15.8374Z" stroke="#647696"/>
<path d="M10.3097 17.041H10.9013C10.8689 17.2386 10.852 17.4411 10.852 17.6474V22.2859H9.38582C8.89781 22.2859 8.5 21.8881 8.5 21.4001V18.8507C8.5 17.8533 9.31227 17.041 10.3097 17.041Z" stroke="#647696"/>
<path d="M21.6912 17.041H21.0996C21.132 17.2386 21.1489 17.4411 21.1489 17.6474V22.2859H22.6151C23.1031 22.2859 23.5009 21.8881 23.5009 21.4001V18.8507C23.5009 17.8533 22.6887 17.041 21.6912 17.041Z" stroke="#647696"/>
<path d="M20.8748 15.4498C21.7447 15.4498 22.4498 14.7447 22.4498 13.8748C22.4498 13.005 21.7447 12.2998 20.8748 12.2998C20.005 12.2998 19.2998 13.005 19.2998 13.8748C19.2998 14.7447 20.005 15.4498 20.8748 15.4498Z" stroke="#647696"/>
</svg>
