<svg width="17" height="11" viewBox="0 0 17 11" fill="none" xmlns="http://www.w3.org/2000/svg">
<path d="M0.932528 10.5H2.64524V6.48366H7.02628V10.5H8.74361V1.04545H7.02628V5.04794H2.64524V1.04545H0.932528V10.5ZM10.514 10.5H16.9956V9.06889H12.8777V9.00426L14.5073 7.34695C16.3446 5.58345 16.8525 4.72479 16.8525 3.65838C16.8525 2.07493 15.5645 0.916193 13.6625 0.916193C11.7882 0.916193 10.4586 2.07954 10.4586 3.87536H12.0882C12.0882 2.91051 12.6976 2.30575 13.6394 2.30575C14.5396 2.30575 15.209 2.85511 15.209 3.74609C15.209 4.53551 14.7289 5.09872 13.7963 6.0451L10.514 9.26278V10.5Z" fill="#647696"/>
</svg>
