<svg width="18" height="11" viewBox="0 0 18 11" fill="none" xmlns="http://www.w3.org/2000/svg">
<path d="M0.932528 10.5H2.64524V6.48366H7.02628V10.5H8.74361V1.04545H7.02628V5.04794H2.64524V1.04545H0.932528V10.5ZM13.9071 10.6293C15.9292 10.6293 17.4018 9.47053 17.3972 7.87322C17.4018 6.69141 16.6632 5.84197 15.3382 5.6527V5.57883C16.3631 5.35724 17.051 4.59553 17.0463 3.53374C17.051 2.09339 15.823 0.916193 13.9348 0.916193C12.0975 0.916193 10.6756 2.0103 10.6387 3.59375H12.2868C12.3145 2.79972 13.0531 2.30575 13.9256 2.30575C14.8074 2.30575 15.3936 2.84126 15.389 3.6353C15.3936 4.46165 14.7104 5.01101 13.7317 5.01101H12.8961V6.33132H13.7317C14.9274 6.33132 15.6383 6.93146 15.6337 7.78551C15.6383 8.62109 14.9135 9.19354 13.9025 9.19354C12.9515 9.19354 12.2175 8.69957 12.176 7.92862H10.4402C10.4863 9.52592 11.9128 10.6293 13.9071 10.6293Z" fill="#647696"/>
</svg>
