<svg width="18" height="10" viewBox="0 0 18 10" fill="none" xmlns="http://www.w3.org/2000/svg">
<path d="M0.932528 9.5H2.64524V5.48366H7.02628V9.5H8.74361V0.0454543H7.02628V4.04794H2.64524V0.0454543H0.932528V9.5ZM13.801 9.62926C15.7999 9.62926 17.1941 8.27202 17.1941 6.39311C17.1941 4.57422 15.9292 3.26314 14.2118 3.26314C13.4455 3.26314 12.7669 3.56783 12.416 3.98331H12.3606L12.633 1.47656H16.7001V0.0454543H11.2157L10.7218 4.92045L12.2683 5.17436C12.5868 4.82351 13.187 4.58807 13.7548 4.59268C14.7935 4.5973 15.5414 5.36364 15.5368 6.43466C15.5414 7.49183 14.812 8.24432 13.801 8.24432C12.9469 8.24432 12.2591 7.70419 12.199 6.92862H10.5371C10.5833 8.49822 11.9544 9.62926 13.801 9.62926Z" fill="#647696"/>
</svg>
