<svg width="18" height="11" viewBox="0 0 18 11" fill="none" xmlns="http://www.w3.org/2000/svg">
<path d="M0.932528 10.5H2.64524V6.48366H7.02628V10.5H8.74361V1.04545H7.02628V5.04794H2.64524V1.04545H0.932528V10.5ZM13.9764 10.6293C16.0169 10.6431 17.388 9.2397 17.3833 7.37003C17.388 5.58345 16.1138 4.29084 14.4565 4.29084C13.4409 4.29084 12.5453 4.7848 12.0929 5.5973H12.0282C12.0328 3.6076 12.7623 2.39808 14.0733 2.39808C14.8858 2.39808 15.4352 2.86896 15.6106 3.59375H17.2956C17.0925 2.0657 15.8599 0.916193 14.0733 0.916193C11.802 0.916193 10.3663 2.80895 10.3663 6.04048C10.3617 9.50746 12.1621 10.62 13.9764 10.6293ZM13.9672 9.24432C12.9561 9.24432 12.2175 8.40874 12.2129 7.42081C12.2221 6.42827 12.9885 5.5973 13.9902 5.5973C14.992 5.5973 15.726 6.39133 15.7214 7.40696C15.726 8.44105 14.9689 9.24432 13.9672 9.24432Z" fill="#647696"/>
</svg>
