<svg width="13" height="13" viewBox="0 0 13 13" fill="none" xmlns="http://www.w3.org/2000/svg">
<path d="M13 1C13 0.447716 12.5523 0 12 0H1C0.447715 0 0 0.447715 0 1V1.6C0 2.15228 0.447715 2.6 1 2.6H12C12.5523 2.6 13 2.15228 13 1.6V1Z" fill="#647696"/>
<path d="M13 6.19946C13 5.64718 12.5523 5.19946 12 5.19946H1C0.447715 5.19946 0 5.64718 0 6.19946V6.79946C0 7.35175 0.447715 7.79946 1 7.79946H12C12.5523 7.79946 13 7.35175 13 6.79946V6.19946Z" fill="#647696"/>
<path d="M13 11.4004C13 10.8481 12.5523 10.4004 12 10.4004H1C0.447715 10.4004 0 10.8481 0 11.4004V12.0004C0 12.5527 0.447715 13.0004 1 13.0004H12C12.5523 13.0004 13 12.5527 13 12.0004V11.4004Z" fill="#647696"/>
</svg>
