<svg width="16" height="16" viewBox="0 0 16 16" fill="none" xmlns="http://www.w3.org/2000/svg">
<path d="M0 3C0 1.34315 1.34315 0 3 0H13C14.6569 0 16 1.34315 16 3V13C16 14.6569 14.6569 16 13 16H3C1.34315 16 0 14.6569 0 13V3Z" fill="#EDF1F7"/>
<path d="M8.00213 12.1278C9.98793 12.1278 11.2237 10.7685 11.2237 8.75284C11.2237 6.72443 9.98793 5.36932 8.00213 5.36932C6.01634 5.36932 4.78054 6.72443 4.78054 8.75284C4.78054 10.7685 6.01634 12.1278 8.00213 12.1278ZM8.01065 10.7216C7.09446 10.7216 6.62571 9.8821 6.62571 8.74006C6.62571 7.59801 7.09446 6.75426 8.01065 6.75426C8.9098 6.75426 9.37855 7.59801 9.37855 8.74006C9.37855 9.8821 8.9098 10.7216 8.01065 10.7216Z" fill="#647696"/>
</svg>
