<svg width="16" height="16" viewBox="0 0 16 16" fill="none" xmlns="http://www.w3.org/2000/svg">
<path d="M0 3C0 1.34315 1.34315 0 3 0H13C14.6569 0 16 1.34315 16 3V13C16 14.6569 14.6569 16 13 16H3C1.34315 16 0 14.6569 0 13V3Z" fill="#EDF1F7"/>
<path d="M5.39879 12.2898L6.36186 11.3267C6.94567 11.8125 7.69567 12.1023 8.51811 12.1023C10.3633 12.1023 11.8718 10.5938 11.8761 8.72727C11.8761 7.91335 11.582 7.16335 11.092 6.57955L12.0636 5.60795L11.6033 5.16477L10.6403 6.12784C10.0607 5.65483 9.31925 5.36932 8.51811 5.36932C6.64737 5.36932 5.13885 6.87784 5.14311 8.72727C5.14311 9.54119 5.42436 10.2827 5.90163 10.8665L4.93857 11.8295L5.39879 12.2898ZM8.51811 10.4659C8.14737 10.4659 7.80646 10.3509 7.52521 10.1591L9.92862 7.74716C10.1246 8.02415 10.2397 8.36506 10.2397 8.72727C10.2354 9.68608 9.45987 10.4659 8.51811 10.4659ZM7.06925 9.69886C6.88175 9.42188 6.77521 9.08523 6.77947 8.72727C6.77095 7.77699 7.54652 6.99716 8.51811 7.00568C8.86754 7.00142 9.19993 7.10795 9.47266 7.29545L7.06925 9.69886Z" fill="#647696"/>
</svg>