<svg xmlns="http://www.w3.org/2000/svg" width="40" height="40" viewBox="0 0 40 40" fill="none">
<circle cx="20" cy="20" r="11" fill="#6C5CE7" stroke="#6C5CE7" stroke-width="2"/>
<path d="M18.5051 23.152H20.6336V22.9858C20.6464 21.6307 21.0874 21.0107 22.1294 20.3714C23.3055 19.6683 24.0406 18.7095 24.0406 17.2457C24.0406 15.0852 22.3595 13.7301 19.9177 13.7301C17.6805 13.7301 15.8651 14.9702 15.8012 17.3991H18.0768C18.1343 16.1974 19.0036 15.6222 19.9049 15.6222C20.8829 15.6222 21.6691 16.2741 21.6691 17.2777C21.6691 18.1726 21.0747 18.7862 20.3012 19.272C19.1698 19.9751 18.5178 20.6847 18.5051 22.9858V23.152ZM19.6237 27.1406C20.3779 27.1406 21.0235 26.5142 21.0299 25.7344C21.0235 24.9673 20.3779 24.3409 19.6237 24.3409C18.8438 24.3409 18.211 24.9673 18.2174 25.7344C18.211 26.5142 18.8438 27.1406 19.6237 27.1406Z" fill="white"/>
</svg>