<svg width="18" height="18" viewBox="0 0 18 18" fill="none" xmlns="http://www.w3.org/2000/svg">
<path fill-rule="evenodd" clip-rule="evenodd" d="M9 17C13.4183 17 17 13.4183 17 9C17 4.58172 13.4183 1 9 1C4.58172 1 1 4.58172 1 9C1 13.4183 4.58172 17 9 17ZM9 18C13.9706 18 18 13.9706 18 9C18 4.02944 13.9706 0 9 0C4.02944 0 0 4.02944 0 9C0 13.9706 4.02944 18 9 18Z" fill="#475161"/>
<path fill-rule="evenodd" clip-rule="evenodd" d="M9.48773 4.29804C9.00277 4.20158 8.50011 4.25108 8.04329 4.4403C7.58648 4.62952 7.19603 4.94995 6.92133 5.36108C6.64662 5.7722 6.5 6.25555 6.5 6.75C6.5 7.02614 6.27614 7.25 6 7.25C5.72386 7.25 5.5 7.02614 5.5 6.75C5.5 6.05777 5.70527 5.38108 6.08986 4.80551C6.47444 4.22993 7.02107 3.78133 7.66061 3.51642C8.30015 3.25152 9.00388 3.1822 9.68282 3.31725C10.3617 3.4523 10.9854 3.78564 11.4749 4.27513C11.9644 4.76461 12.2977 5.38825 12.4327 6.06719C12.5678 6.74612 12.4985 7.44985 12.2336 8.08939C11.9687 8.72894 11.5201 9.27556 10.9445 9.66015C10.3689 10.0447 9.69223 10.25 9 10.25C8.72386 10.25 8.5 10.0261 8.5 9.75C8.5 9.47386 8.72386 9.25 9 9.25C9.49445 9.25 9.9778 9.10338 10.3889 8.82868C10.8 8.55397 11.1205 8.16353 11.3097 7.70671C11.4989 7.2499 11.5484 6.74723 11.452 6.26228C11.3555 5.77732 11.1174 5.33187 10.7678 4.98223C10.4181 4.6326 9.97268 4.3945 9.48773 4.29804Z" fill="#475161"/>
<path fill-rule="evenodd" clip-rule="evenodd" d="M9 9.25C9.27614 9.25 9.5 9.47386 9.5 9.75V12.75C9.5 13.0261 9.27614 13.25 9 13.25C8.72386 13.25 8.5 13.0261 8.5 12.75L8.5 9.75C8.5 9.47386 8.72386 9.25 9 9.25Z" fill="#475161"/>
<path d="M9.5 14.25C9.5 14.5261 9.27614 14.75 9 14.75C8.72386 14.75 8.5 14.5261 8.5 14.25C8.5 13.9739 8.72386 13.75 9 13.75C9.27614 13.75 9.5 13.9739 9.5 14.25Z" fill="#475161"/>
</svg>
