<svg width="24" height="24" viewBox="0 0 24 24" fill="none" xmlns="http://www.w3.org/2000/svg">
<circle cx="12" cy="12" r="11" stroke="#697B9B" stroke-width="2"/>
<path d="M10.6263 14.0334C10.6263 12.5187 11.5853 11.5823 12.4492 10.6826C13.1145 9.97574 13.7106 9.34229 13.7106 8.51607C13.7106 7.54295 13.2095 6.90951 12.1123 6.90951C10.9978 6.90951 10.2203 7.7541 10.0994 9.07607H8C8.12959 6.56984 9.79698 5 12.216 5C14.7905 5 16 6.49639 16 8.35082C16 9.70951 15.2225 10.5908 14.419 11.4354C13.5724 12.2984 12.7084 13.0787 12.6566 14.1528V14.7679H10.6436V14.0334H10.6263ZM10.1425 17.5311C10.1425 16.6866 10.8078 16.0348 11.6199 16.0348C12.4147 16.0348 13.0626 16.6866 13.0626 17.5311C13.0626 18.3574 12.4147 19 11.6199 19C10.8078 19 10.1425 18.3574 10.1425 17.5311Z" fill="#697B9B"/>
</svg>
