<svg width="14" height="14" viewBox="0 0 14 14" fill="none" xmlns="http://www.w3.org/2000/svg">
<path d="M6.34375 10.7188C6.34375 10.3563 6.63756 10.0625 7 10.0625C7.36244 10.0625 7.65625 10.3563 7.65625 10.7188C7.65625 11.0812 7.36244 11.375 7 11.375C6.63756 11.375 6.34375 11.0812 6.34375 10.7188Z" fill="#647696"/>
<path d="M6.02815 4.72862C6.25642 4.27056 6.66003 3.90625 7.21877 3.90625C7.52677 3.90625 7.82724 4.0106 8.03896 4.17544C8.24383 4.33496 8.34377 4.52904 8.34377 4.73958C8.34377 5.10259 8.28456 5.24927 8.20497 5.36068C8.09842 5.50985 7.90213 5.67174 7.45541 5.96955C6.93142 6.31888 6.61523 6.70815 6.45115 7.14641C6.30159 7.54591 6.30188 7.93627 6.30208 8.21183L6.3021 8.24151C6.3021 8.58669 6.58192 8.86651 6.9271 8.86651C7.27228 8.86651 7.5521 8.58669 7.5521 8.24151C7.5521 7.93496 7.55807 7.75492 7.6218 7.58468C7.67647 7.43865 7.79778 7.24362 8.14879 7.00961C8.57706 6.7241 8.96411 6.44848 9.22214 6.08723C9.50714 5.68823 9.59377 5.25158 9.59377 4.73958C9.59377 4.07513 9.25757 3.54004 8.80688 3.18914C8.36303 2.84356 7.78851 2.65625 7.21877 2.65625C6.02201 2.65625 5.26444 3.4586 4.90938 4.17108C4.75542 4.48002 4.88106 4.85527 5.19 5.00923C5.49894 5.16319 5.87419 5.03756 6.02815 4.72862Z" fill="#647696"/>
<path fill-rule="evenodd" clip-rule="evenodd" d="M7 14C10.866 14 14 10.866 14 7C14 3.13401 10.866 0 7 0C3.13401 0 0 3.13401 0 7C0 10.866 3.13401 14 7 14ZM7 12.75C10.1756 12.75 12.75 10.1756 12.75 7C12.75 3.82436 10.1756 1.25 7 1.25C3.82436 1.25 1.25 3.82436 1.25 7C1.25 10.1756 3.82436 12.75 7 12.75Z" fill="#647696"/>
</svg>
