<svg width="16" height="16" viewBox="0 0 16 16" fill="none" xmlns="http://www.w3.org/2000/svg">
<path d="M3.61219 11.6011C3.85596 11.3573 3.91136 10.9806 3.73407 10.7036C3.22438 9.92794 2.92521 8.99719 2.92521 7.99996C2.92521 7.00273 3.22438 6.07199 3.73407 5.29636C3.91136 5.00827 3.85596 4.63154 3.61219 4.39886L2.57064 3.3573C2.23823 3.02489 1.68421 3.0803 1.41828 3.46811C0.520776 4.75343 0 6.31575 0 7.99996C0 9.68417 0.520776 11.2465 1.41828 12.5318C1.68421 12.9196 2.23823 12.975 2.57064 12.6426L3.61219 11.6011Z" fill="#CBD5E0"/>
<path d="M8.00002 13.0748C7.00279 13.0748 6.07205 12.7756 5.29642 12.2659C5.00834 12.0886 4.6316 12.144 4.39892 12.3878L3.35737 13.4293C3.02496 13.7617 3.08036 14.3157 3.46817 14.5817C4.75349 15.4681 6.31581 16 8.00002 16C9.68424 16 11.2466 15.4792 12.5319 14.5817C12.9197 14.3157 12.9751 13.7617 12.6427 13.4293L11.6011 12.3878C11.3574 12.144 10.9806 12.0886 10.7036 12.2659C9.928 12.7756 8.99725 13.0748 8.00002 13.0748Z" fill="#647696"/>
<path d="M8.00002 2.92521C8.99725 2.92521 9.928 3.22438 10.7036 3.73407C10.9917 3.91136 11.3684 3.85596 11.6011 3.61219L12.6427 2.57064C12.9751 2.23823 12.9197 1.68421 12.5319 1.41828C11.2466 0.520776 9.68424 0 8.00002 0C6.31581 0 4.75349 0.520776 3.46817 1.41828C3.08036 1.68421 3.02496 2.23823 3.35737 2.57064L4.39892 3.61219C4.64268 3.85596 5.01942 3.91136 5.29642 3.73407C6.07205 3.22438 7.00279 2.92521 8.00002 2.92521Z" fill="#647696"/>
<path d="M12.3878 4.39886C12.1441 4.64262 12.0887 5.01935 12.2659 5.29636C12.7756 6.08307 13.0748 7.00273 13.0748 7.99996C13.0748 8.99719 12.7756 9.92794 12.2659 10.7036C12.0887 10.9917 12.1441 11.3684 12.3878 11.6011L13.4294 12.6426C13.7618 12.975 14.3158 12.9196 14.5817 12.5318C15.4682 11.2465 16 9.68417 16 7.99996C16 6.31575 15.4792 4.75343 14.5817 3.46811C14.3158 3.0803 13.7618 3.02489 13.4294 3.3573L12.3878 4.39886Z" fill="#CBD5E0"/>
</svg>
