<svg width="60" height="60" viewBox="0 0 60 60" fill="none" xmlns="http://www.w3.org/2000/svg">
<path d="M39.0858 2H9.5C8.94772 2 8.5 2.44771 8.5 3V57C8.5 57.5523 8.94772 58 9.5 58H50.5C51.0523 58 51.5 57.5523 51.5 57V14.4142C51.5 14.149 51.3946 13.8946 51.2071 13.7071L39.7929 2.29289C39.6054 2.10536 39.351 2 39.0858 2Z" fill="white"/>
<path fill-rule="evenodd" clip-rule="evenodd" d="M7.5 3C7.5 1.89543 8.39543 1 9.5 1H39.0858C39.6162 1 40.1249 1.21071 40.5 1.58579L51.9142 13L51.2071 13.7071L51.9142 13C52.2893 13.3751 52.5 13.8838 52.5 14.4142V57C52.5 58.1046 51.6046 59 50.5 59H9.5C8.39543 59 7.5 58.1046 7.5 57V3ZM39.0858 3L9.5 3V57H50.5V14.4142L39.0858 3Z" fill="#647696"/>
<path fill-rule="evenodd" clip-rule="evenodd" d="M38.5 13V2H40.5V13H51.5V15H40.5C39.3954 15 38.5 14.1046 38.5 13Z" fill="#647696"/>
<path fill-rule="evenodd" clip-rule="evenodd" d="M51.5 42H8.5V40H51.5V42Z" fill="#647696"/>
<path d="M17.279 49.3401H12.918V44.9241H11.25V55.0001H12.918V50.4611H17.279V55.0001H18.92V44.9241H17.279V49.3401Z" fill="#647696"/>
<path d="M20.9031 46.0451H23.9101V55.0001H25.5651V46.0451H28.5721V44.9241H20.9031V46.0451Z" fill="#647696"/>
<path d="M35.1901 51.8141L32.1951 44.9241H30.5281V55.0001H32.1951V48.0681L34.4651 53.6741H35.9141L38.1701 48.0681V55.0001H39.8381V44.9241H38.1701L35.1901 51.8141Z" fill="#647696"/>
<path d="M44.0352 44.9241H42.3672V55.0001H48.6702V53.7561H44.0352V44.9241Z" fill="#647696"/>
<path d="M24.6721 18.293C24.2811 17.902 23.6491 17.902 23.2581 18.293L17.2581 24.293C16.8671 24.684 16.8671 25.316 17.2581 25.707L23.2581 31.707C23.4531 31.902 23.7091 32 23.9651 32C24.2211 32 24.4771 31.902 24.6721 31.707C25.0631 31.316 25.0631 30.684 24.6721 30.293L19.3791 25L24.6721 19.707C25.0631 19.316 25.0631 18.684 24.6721 18.293Z" fill="#647696"/>
<path d="M36.6721 18.293C36.2811 17.902 35.6491 17.902 35.2581 18.293C34.8671 18.684 34.8671 19.316 35.2581 19.707L40.5511 25L35.2581 30.293C34.8671 30.684 34.8671 31.316 35.2581 31.707C35.4531 31.902 35.7091 32 35.9651 32C36.2211 32 36.4771 31.902 36.6721 31.707L42.6721 25.707C43.0631 25.316 43.0631 24.684 42.6721 24.293L36.6721 18.293Z" fill="#647696"/>
</svg>
