<svg width="16" height="15" viewBox="0 0 16 15" fill="none" xmlns="http://www.w3.org/2000/svg">
<path d="M5.7 14.8999C5.8 14.9999 5.9 14.9999 6 14.9999C6.4 14.9999 6.8 14.6999 7 14.2999L11 2.2999C11.2 1.6999 10.9 1.1999 10.4 0.999902C9.8 0.799902 9.3 1.0999 9.1 1.5999L5.1 13.5999C4.9 14.1999 5.2 14.6999 5.7 14.8999Z" fill="#647696"/>
<path d="M3.3 11.7L0.3 8.70005C-0.1 8.30005 -0.1 7.70005 0.3 7.30005L3.3 4.30005L4.7 5.70005L2.4 8.00005L4.7 10.3L3.3 11.7Z" fill="#647696"/>
<path d="M12.7 11.7L11.3 10.3L13.6 8.00005L11.3 5.70005L12.7 4.30005L15.7 7.30005C16.1 7.70005 16.1 8.30005 15.7 8.70005L12.7 11.7Z" fill="#647696"/>
</svg>
