<svg width="16" height="16" viewBox="0 0 16 16" fill="none" xmlns="http://www.w3.org/2000/svg">
<mask id="path-1-inside-1" fill="white">
<path fill-rule="evenodd" clip-rule="evenodd" d="M3 0C1.34315 0 0 1.34315 0 3V11.4243L3.44798 7.98129L7.67501 12.3921L12.7732 7.29321L16 10.5153V3C16 1.34315 14.6569 0 13 0H3ZM16 11.9285L12.7737 8.70695L5.48174 16H13C14.6569 16 16 14.6569 16 13V11.9285ZM4.06763 16L6.96779 13.0994L3.43227 9.41018L0 12.8375V13C0 14.6569 1.34315 16 3 16H4.06763Z"/>
</mask>
<path fill-rule="evenodd" clip-rule="evenodd" d="M3 0C1.34315 0 0 1.34315 0 3V11.4243L3.44798 7.98129L7.67501 12.3921L12.7732 7.29321L16 10.5153V3C16 1.34315 14.6569 0 13 0H3ZM16 11.9285L12.7737 8.70695L5.48174 16H13C14.6569 16 16 14.6569 16 13V11.9285ZM4.06763 16L6.96779 13.0994L3.43227 9.41018L0 12.8375V13C0 14.6569 1.34315 16 3 16H4.06763Z" fill="#6C5CE7"/>
<path d="M0 11.4243H-1V13.8361L0.706599 12.1319L0 11.4243ZM3.44798 7.98129L4.16997 7.28939L3.46369 6.5524L2.74138 7.27368L3.44798 7.98129ZM7.67501 12.3921L6.95302 13.084L7.65985 13.8216L8.38216 13.0992L7.67501 12.3921ZM12.7732 7.29321L13.4798 6.58558L12.7726 5.87947L12.066 6.58616L12.7732 7.29321ZM16 10.5153L15.2934 11.2229L17 12.927V10.5153H16ZM16 11.9285H17V11.5138L16.7066 11.2208L16 11.9285ZM12.7737 8.70695L13.4803 7.99933L12.7732 7.29321L12.0666 7.9999L12.7737 8.70695ZM5.48174 16L4.77458 15.2929L3.06777 17H5.48174V16ZM4.06763 16V17H4.48189L4.77479 16.7071L4.06763 16ZM6.96779 13.0994L7.67495 13.8065L8.36707 13.1143L7.68978 12.4075L6.96779 13.0994ZM3.43227 9.41018L4.15425 8.71828L3.44798 7.98129L2.72567 8.70257L3.43227 9.41018ZM0 12.8375L-0.706599 12.1299L-1 12.4229V12.8375H0ZM1 3C1 1.89543 1.89543 1 3 1V-1C0.790861 -1 -1 0.790861 -1 3H1ZM1 11.4243V3H-1V11.4243H1ZM0.706599 12.1319L4.15458 8.68891L2.74138 7.27368L-0.706599 10.7167L0.706599 12.1319ZM2.72599 8.6732L6.95302 13.084L8.397 11.7002L4.16997 7.28939L2.72599 8.6732ZM8.38216 13.0992L13.4803 8.00027L12.066 6.58616L6.96785 11.6851L8.38216 13.0992ZM12.0666 8.00084L15.2934 11.2229L16.7066 9.80765L13.4798 6.58558L12.0666 8.00084ZM15 3V10.5153H17V3H15ZM13 1C14.1046 1 15 1.89543 15 3H17C17 0.790861 15.2091 -1 13 -1V1ZM3 1H13V-1H3V1ZM16.7066 11.2208L13.4803 7.99933L12.0672 9.41458L15.2934 12.6361L16.7066 11.2208ZM12.0666 7.9999L4.77458 15.2929L6.1889 16.7071L13.4809 9.41401L12.0666 7.9999ZM13 15H5.48174V17H13V15ZM15 13C15 14.1046 14.1046 15 13 15V17C15.2091 17 17 15.2091 17 13H15ZM15 11.9285V13H17V11.9285H15ZM4.77479 16.7071L7.67495 13.8065L6.26063 12.3924L3.36047 15.2929L4.77479 16.7071ZM7.68978 12.4075L4.15425 8.71828L2.71028 10.1021L6.2458 13.7913L7.68978 12.4075ZM2.72567 8.70257L-0.706599 12.1299L0.706599 13.5451L4.13886 10.1178L2.72567 8.70257ZM1 13V12.8375H-1V13H1ZM3 15C1.89543 15 1 14.1046 1 13H-1C-1 15.2091 0.790861 17 3 17V15ZM4.06763 15H3V17H4.06763V15Z" fill="#6C5CE7" mask="url(#path-1-inside-1)"/>
<circle cx="6.10672" cy="5" r="1.5" fill="white" stroke="white"/>
</svg>
