<svg width="14" height="14" viewBox="0 0 14 14" fill="none" xmlns="http://www.w3.org/2000/svg">
<path d="M0 7C0 6.44772 0.447715 6 1 6H4V8H1C0.447715 8 0 7.55228 0 7Z" fill="#6c5ce7"/>
<path fill-rule="evenodd" clip-rule="evenodd" d="M4 1.5C4 0.671573 4.67157 0 5.5 0H12.5C13.3284 0 14 0.671573 14 1.5V12.5C14 13.3284 13.3284 14 12.5 14H5.5C4.67157 14 4 13.3284 4 12.5V8H7V9.25464C7 10.1204 8.02544 10.5771 8.66896 9.99793L11.1741 7.74329C11.6155 7.34605 11.6155 6.65395 11.1741 6.25671L8.66897 4.00207C8.02544 3.4229 7 3.87959 7 4.74536V6H4V1.5Z" fill="#6c5ce7"/>
</svg>
