<svg width="12" height="12" viewBox="0 0 12 12" fill="none" xmlns="http://www.w3.org/2000/svg">
<circle cx="6" cy="6" r="5.5" stroke="#007A52"/>
<path fill-rule="evenodd" clip-rule="evenodd" d="M5.88833 9.5C5.60704 9.5 5.3811 9.26804 5.3885 8.98685L5.48719 5.23685C5.49432 4.96592 5.716 4.75 5.98702 4.75L6.01298 4.75C6.284 4.75 6.50568 4.96592 6.51281 5.23685L6.6115 8.98685C6.6189 9.26804 6.39296 9.5 6.11167 9.5L5.88833 9.5Z" fill="#007A52"/>
<path d="M6.75 3.24303C6.75 3.67028 6.40828 4 5.99112 4C5.58284 4 5.25 3.67028 5.25 3.24303C5.25 2.82508 5.58284 2.5 5.99112 2.5C6.40828 2.5 6.75 2.82508 6.75 3.24303Z" fill="#007A52"/>
</svg>
