<svg width="12" height="12" viewBox="0 0 12 12" fill="none" xmlns="http://www.w3.org/2000/svg">
<mask id="path-1-inside-1" fill="white">
<path fill-rule="evenodd" clip-rule="evenodd" d="M6 11.25C8.8995 11.25 11.25 8.8995 11.25 6C11.25 3.10051 8.8995 0.75 6 0.75C3.10051 0.75 0.75 3.10051 0.75 6C0.75 8.8995 3.10051 11.25 6 11.25ZM6 12C9.31371 12 12 9.31371 12 6C12 2.68629 9.31371 0 6 0C2.68629 0 0 2.68629 0 6C0 9.31371 2.68629 12 6 12Z"/>
</mask>
<path fill-rule="evenodd" clip-rule="evenodd" d="M6 11.25C8.8995 11.25 11.25 8.8995 11.25 6C11.25 3.10051 8.8995 0.75 6 0.75C3.10051 0.75 0.75 3.10051 0.75 6C0.75 8.8995 3.10051 11.25 6 11.25ZM6 12C9.31371 12 12 9.31371 12 6C12 2.68629 9.31371 0 6 0C2.68629 0 0 2.68629 0 6C0 9.31371 2.68629 12 6 12Z" fill="#6C5CE7"/>
<path d="M10 6C10 8.20914 8.20914 10 6 10V12.5C9.58985 12.5 12.5 9.58985 12.5 6H10ZM6 2C8.20914 2 10 3.79086 10 6H12.5C12.5 2.41015 9.58985 -0.5 6 -0.5V2ZM2 6C2 3.79086 3.79086 2 6 2V-0.5C2.41015 -0.5 -0.5 2.41015 -0.5 6H2ZM6 10C3.79086 10 2 8.20914 2 6H-0.5C-0.5 9.58985 2.41015 12.5 6 12.5V10ZM10.75 6C10.75 8.62335 8.62335 10.75 6 10.75V13.25C10.0041 13.25 13.25 10.0041 13.25 6H10.75ZM6 1.25C8.62335 1.25 10.75 3.37665 10.75 6H13.25C13.25 1.99594 10.0041 -1.25 6 -1.25V1.25ZM1.25 6C1.25 3.37665 3.37665 1.25 6 1.25V-1.25C1.99594 -1.25 -1.25 1.99594 -1.25 6H1.25ZM6 10.75C3.37665 10.75 1.25 8.62335 1.25 6H-1.25C-1.25 10.0041 1.99594 13.25 6 13.25V10.75Z" fill="#6C5CE7" mask="url(#path-1-inside-1)"/>
<rect x="5.36914" y="2.5" width="1.25" height="1.25" rx="0.625" fill="#6C5CE7"/>
<path d="M6 5.5V9" stroke="#6C5CE7" stroke-linecap="round"/>
</svg>
