<svg width="22" height="18" viewBox="0 0 22 18" fill="none" xmlns="http://www.w3.org/2000/svg">
<path d="M8.22752 4.28746C9.39274 2.34544 12.2073 2.34545 13.3725 4.28746L18.8739 13.4565C20.0737 15.4561 18.6333 18 16.3014 18H5.29858C2.96669 18 1.52635 15.4561 2.72609 13.4565L8.22752 4.28746Z" fill="white"/>
<path fill-rule="evenodd" clip-rule="evenodd" d="M10.6265 5.3999C11.2618 5.3999 11.7768 5.91491 11.7768 6.5502C11.7768 7.18549 11.2618 7.70049 10.6265 7.70049H10.5038C9.86847 7.70049 9.35347 7.18549 9.35347 6.5502C9.35347 5.91491 9.86847 5.3999 10.5038 5.3999H10.6265ZM10.5647 9.23425C11.2339 9.23425 11.7763 9.77672 11.7763 10.4459V14.1575C11.7763 14.8267 11.2339 15.3692 10.5647 15.3692C9.8955 15.3692 9.35303 14.8267 9.35303 14.1575V10.4459C9.35303 9.77672 9.8955 9.23425 10.5647 9.23425Z" fill="#FFAE0A"/>
</svg>
