<svg width="17" height="17" viewBox="0 0 17 17" fill="none" xmlns="http://www.w3.org/2000/svg">
<path fill-rule="evenodd" clip-rule="evenodd" d="M8.5 17C13.1944 17 17 13.1944 17 8.5C17 3.80558 13.1944 0 8.5 0C3.80558 0 0 3.80558 0 8.5C0 13.1944 3.80558 17 8.5 17ZM8.37216 13.9375C7.61434 13.9375 7 13.3232 7 12.5653V8.6733C7 7.91547 7.61434 7.30114 8.37216 7.30114C9.12998 7.30114 9.74432 7.91547 9.74432 8.67329V12.5653C9.74432 13.3232 9.12998 13.9375 8.37216 13.9375ZM9.72443 5.25284C9.72443 5.94389 9.1179 6.50568 8.37216 6.50568C7.62642 6.50568 7.01989 5.94389 7.01989 5.25284C7.01989 4.56179 7.62642 4 8.37216 4C9.1179 4 9.72443 4.56179 9.72443 5.25284Z" fill="white"/>
</svg>
