<svg width="12" height="12" viewBox="0 0 12 12" fill="none" xmlns="http://www.w3.org/2000/svg">
<mask id="path-1-inside-1" fill="white">
<path fill-rule="evenodd" clip-rule="evenodd" d="M6 10.75C8.62335 10.75 10.75 8.62335 10.75 6C10.75 3.37665 8.62335 1.25 6 1.25C3.37665 1.25 1.25 3.37665 1.25 6C1.25 8.62335 3.37665 10.75 6 10.75ZM6 12C9.31371 12 12 9.31371 12 6C12 2.68629 9.31371 0 6 0C2.68629 0 0 2.68629 0 6C0 9.31371 2.68629 12 6 12Z"/>
</mask>
<path fill-rule="evenodd" clip-rule="evenodd" d="M6 10.75C8.62335 10.75 10.75 8.62335 10.75 6C10.75 3.37665 8.62335 1.25 6 1.25C3.37665 1.25 1.25 3.37665 1.25 6C1.25 8.62335 3.37665 10.75 6 10.75ZM6 12C9.31371 12 12 9.31371 12 6C12 2.68629 9.31371 0 6 0C2.68629 0 0 2.68629 0 6C0 9.31371 2.68629 12 6 12Z" fill="#647696"/>
<path d="M9.5 6C9.5 7.933 7.933 9.5 6 9.5V12C9.31371 12 12 9.31371 12 6H9.5ZM6 2.5C7.933 2.5 9.5 4.067 9.5 6H12C12 2.68629 9.31371 0 6 0V2.5ZM2.5 6C2.5 4.067 4.067 2.5 6 2.5V0C2.68629 0 0 2.68629 0 6H2.5ZM6 9.5C4.067 9.5 2.5 7.933 2.5 6H0C0 9.31371 2.68629 12 6 12V9.5ZM10.75 6C10.75 8.62335 8.62335 10.75 6 10.75V13.25C10.0041 13.25 13.25 10.0041 13.25 6H10.75ZM6 1.25C8.62335 1.25 10.75 3.37665 10.75 6H13.25C13.25 1.99594 10.0041 -1.25 6 -1.25V1.25ZM1.25 6C1.25 3.37665 3.37665 1.25 6 1.25V-1.25C1.99594 -1.25 -1.25 1.99594 -1.25 6H1.25ZM6 10.75C3.37665 10.75 1.25 8.62335 1.25 6H-1.25C-1.25 10.0041 1.99594 13.25 6 13.25V10.75Z" fill="#647696" mask="url(#path-1-inside-1)"/>
<rect x="5.5" y="2.5" width="1" height="1" rx="0.5" fill="#647696"/>
<path d="M6 5V9" stroke="#647696" stroke-linecap="round"/>
</svg>
