<svg width="12" height="12" viewBox="0 0 12 12" fill="none" xmlns="http://www.w3.org/2000/svg">
<path d="M2 2.00085H10V10.0009H5V12.0009H10C10.5304 12.0009 11.0391 11.7901 11.4142 11.4151C11.7893 11.04 12 10.5313 12 10.0009V2.00085C12 1.47042 11.7893 0.961714 11.4142 0.586641C11.0391 0.211568 10.5304 0.000854492 10 0.000854492H2C1.46957 0.000854492 0.96086 0.211568 0.585787 0.586641C0.210714 0.961714 0 1.47042 0 2.00085V7.00085H2V2.00085Z" fill="#647696"/>
<path d="M5.20706 5.29317L0.75006 9.75017L2.16406 11.1642L6.62106 6.70717L8.16406 8.25017V3.75017H3.66406L5.20706 5.29317Z" fill="#647696"/>
</svg>
