<svg width="40" height="40" viewBox="0 0 40 40" fill="none" xmlns="http://www.w3.org/2000/svg">
<mask id="path-1-inside-1" fill="white">
<path d="M29.88 24.1199C29.9622 24.1199 30.0445 24.1004 30.1202 24.0613C30.2923 23.9717 30.4 23.7939 30.4 23.5999V20.4406C31.8721 20.2032 33 18.924 33 17.3861V11.0941C33 9.3881 31.6121 8 29.9059 8H17.3741C15.6679 8 14.28 9.3881 14.28 11.0941V17H20.5C22.5 17 23.7227 17 23.7227 18.5V20L29.5819 24.026C29.6708 24.0882 29.7754 24.1199 29.88 24.1199Z"/>
</mask>
<path d="M30.1202 24.0613L31.0384 25.8381L31.0438 25.8352L30.1202 24.0613ZM30.4 20.4406L30.0816 18.4661L28.4 18.7373V20.4406H30.4ZM14.28 17H12.28V19H14.28V17ZM23.7227 20H21.7227V21.0524L22.59 21.6484L23.7227 20ZM29.5819 24.026L30.7288 22.3875L30.7217 22.3825L30.7145 22.3776L29.5819 24.026ZM29.88 26.1199C30.2802 26.1199 30.6775 26.0246 31.0384 25.8381L29.202 22.2845C29.4115 22.1762 29.6443 22.1199 29.88 22.1199V26.1199ZM31.0438 25.8352C31.8784 25.4007 32.4 24.5385 32.4 23.5999H28.4C28.4 23.0493 28.7062 22.5426 29.1966 22.2873L31.0438 25.8352ZM32.4 23.5999V20.4406H28.4V23.5999H32.4ZM30.7184 22.4151C33.1425 22.0242 35 19.9229 35 17.3861H31C31 17.9251 30.6017 18.3822 30.0816 18.4661L30.7184 22.4151ZM35 17.3861V11.0941H31V17.3861H35ZM35 11.0941C35 8.28364 32.7168 6 29.9059 6V10C30.5074 10 31 10.4926 31 11.0941H35ZM29.9059 6H17.3741V10H29.9059V6ZM17.3741 6C14.5632 6 12.28 8.28364 12.28 11.0941H16.28C16.28 10.4926 16.7726 10 17.3741 10V6ZM12.28 11.0941V17H16.28V11.0941H12.28ZM14.28 19H20.5V15H14.28V19ZM20.5 19C21.017 19 21.4043 19.0007 21.7291 19.0199C22.0632 19.0397 22.1952 19.0735 22.2219 19.0825C22.2242 19.0833 22.1739 19.0669 22.0992 19.0156C22.0191 18.9607 21.9306 18.8791 21.8554 18.7704C21.6996 18.5451 21.7227 18.3869 21.7227 18.5H25.7227C25.7227 17.8631 25.5928 17.1424 25.1453 16.4952C24.6883 15.8343 24.0603 15.4813 23.5008 15.2925C22.9718 15.114 22.4231 15.054 21.9655 15.0269C21.4985 14.9993 20.983 15 20.5 15V19ZM21.7227 18.5V20H25.7227V18.5H21.7227ZM22.59 21.6484L28.4493 25.6744L30.7145 22.3776L24.8553 18.3516L22.59 21.6484ZM28.435 25.6645C28.8665 25.9665 29.373 26.1199 29.88 26.1199V22.1199C30.1777 22.1199 30.475 22.2099 30.7288 22.3875L28.435 25.6645Z" fill="#647696" mask="url(#path-1-inside-1)"/>
<path d="M10.6 27.4383V26.5897L9.7627 26.4517C8.75289 26.2851 8 25.4196 8 24.386V18.094C8 16.9407 8.94067 16 10.094 16H22.6259C23.7793 16 24.7199 16.9407 24.7199 18.094V24.386C24.7199 25.5393 23.7793 26.48 22.6259 26.48H15.4864H15.1713L14.9132 26.6605L10.6 29.6776V27.4383Z" stroke="#647696" stroke-width="2"/>
</svg>
