<svg width="16" height="17" viewBox="0 0 16 17" fill="none" xmlns="http://www.w3.org/2000/svg">
<path fill-rule="evenodd" clip-rule="evenodd" d="M6.93215 2.0918C4.69087 2.56909 2.9954 4.53656 2.9954 6.91362V10.4528L2.99483 10.4531C2.99386 10.4535 2.99174 10.4543 2.98696 10.4543C1.88839 10.4543 0.978516 11.331 0.978516 12.4467C0.978516 13.4445 1.79174 14.2257 2.7682 14.2257H6.0878C6.14416 15.2203 6.96584 16.0183 7.98645 16.0183C9.00009 16.0183 9.82858 15.227 9.88997 14.2257H13.2101C14.1866 14.2257 14.9998 13.4445 14.9998 12.4467C14.9998 11.3276 14.0811 10.4543 12.9913 10.4543V10.4542L12.9819 10.4543L12.9776 10.4542V9.59348C12.371 9.85494 11.7024 9.99979 11 9.99979C8.23858 9.99979 6 7.76121 6 4.99979C6 3.91513 6.34537 2.91115 6.93215 2.0918Z" fill="#647696"/>
<g clip-path="url(#clip0)">
<path d="M7.25 5.24963C7.25 7.13939 8.78785 8.67699 10.6774 8.67699C11.0218 8.67699 11.3009 8.3979 11.3009 8.05347C11.3009 7.70903 11.0218 7.42995 10.6774 7.42995C9.47546 7.42995 8.49704 6.45177 8.49704 5.24963C8.49704 4.04748 9.47546 3.0693 10.6774 3.0693C11.8044 3.0693 12.7335 3.92801 12.8462 5.02516H11.6827L13.466 7.35488L15.25 5.02516H14.0935C13.9768 3.2404 12.4913 1.82227 10.6774 1.82227C8.78785 1.82227 7.25 3.35986 7.25 5.24963Z" fill="#647696"/>
</g>
<defs>
<clipPath id="clip0">
<rect width="8" height="8" fill="white" transform="matrix(-1 0 0 1 15.25 1.25)"/>
</clipPath>
</defs>
</svg>
