<svg width="60" height="60" viewBox="0 0 60 60" fill="none" xmlns="http://www.w3.org/2000/svg">
<path d="M39.0858 2H9.5C8.94772 2 8.5 2.44771 8.5 3V57C8.5 57.5523 8.94772 58 9.5 58H50.5C51.0523 58 51.5 57.5523 51.5 57V14.4142C51.5 14.149 51.3946 13.8946 51.2071 13.7071L39.7929 2.29289C39.6054 2.10536 39.351 2 39.0858 2Z" fill="white"/>
<path fill-rule="evenodd" clip-rule="evenodd" d="M7.5 3C7.5 1.89543 8.39543 1 9.5 1H39.0858C39.6162 1 40.1249 1.21071 40.5 1.58579L51.9142 13L51.2071 13.7071L51.9142 13C52.2893 13.3751 52.5 13.8838 52.5 14.4142V57C52.5 58.1046 51.6046 59 50.5 59H9.5C8.39543 59 7.5 58.1046 7.5 57V3ZM39.0858 3L9.5 3V57H50.5V14.4142L39.0858 3Z" fill="#647696"/>
<path fill-rule="evenodd" clip-rule="evenodd" d="M38.5 13V2H40.5V13H51.5V15H40.5C39.3954 15 38.5 14.1046 38.5 13Z" fill="#647696"/>
<path fill-rule="evenodd" clip-rule="evenodd" d="M51.5 42H8.5V40H51.5V42Z" fill="#647696"/>
<path d="M20.354 52.43C20.335 52.876 20.183 53.194 19.896 53.38C19.609 53.566 19.224 53.66 18.741 53.66C18.55 53.66 18.345 53.638 18.126 53.592C17.907 53.546 17.697 53.494 17.497 53.435C17.296 53.375 17.112 53.312 16.943 53.244C16.774 53.176 16.644 53.109 16.553 53.046L15.856 54.153C16.038 54.29 16.261 54.413 16.526 54.522C16.79 54.631 17.066 54.729 17.353 54.816C17.64 54.903 17.918 54.966 18.187 55.007C18.456 55.048 18.69 55.069 18.891 55.069C19.292 55.069 19.682 55.03 20.06 54.953C20.438 54.876 20.773 54.739 21.065 54.543C21.357 54.347 21.589 54.087 21.762 53.764C21.935 53.441 22.022 53.041 22.022 52.568V44.72H20.354V52.43Z" fill="#647696"/>
<path d="M29.767 45.7441C29.434 45.4711 29.058 45.2651 28.639 45.1291C28.22 44.9921 27.796 44.9241 27.368 44.9241H24.47V55.0001H26.111V51.3631H27.328C27.856 51.3631 28.34 51.2861 28.777 51.1311C29.214 50.9761 29.588 50.7571 29.898 50.4751C30.208 50.1931 30.449 49.8441 30.623 49.4291C30.796 49.0141 30.883 48.5521 30.883 48.0411C30.883 47.5581 30.78 47.1231 30.575 46.7351C30.37 46.3471 30.099 46.0181 29.767 45.7441ZM29.145 49.0731C29.044 49.3511 28.913 49.5671 28.749 49.7221C28.585 49.8771 28.405 49.9891 28.209 50.0571C28.013 50.1251 27.814 50.1601 27.614 50.1601H26.11V46.1681H27.34C27.759 46.1681 28.096 46.2341 28.352 46.3661C28.607 46.4981 28.805 46.6621 28.947 46.8581C29.088 47.0541 29.181 47.2591 29.227 47.4731C29.272 47.6871 29.295 47.8761 29.295 48.0401C29.295 48.4511 29.245 48.7951 29.145 49.0731Z" fill="#647696"/>
<path d="M36.7599 50.926H38.4689V53.414C38.3959 53.515 38.2819 53.592 38.1269 53.646C37.9719 53.701 37.8099 53.744 37.6419 53.776C37.4729 53.808 37.3049 53.831 37.1359 53.844C36.9669 53.858 36.8329 53.865 36.7329 53.865C36.4049 53.865 36.0919 53.788 35.7959 53.633C35.4999 53.478 35.2349 53.241 35.0029 52.922C34.7709 52.603 34.5879 52.193 34.4559 51.692C34.3239 51.191 34.2529 50.598 34.2439 49.915C34.2529 49.213 34.3259 48.621 34.4629 48.138C34.5999 47.655 34.7889 47.261 35.0299 46.955C35.2709 46.649 35.5449 46.434 35.8499 46.306C36.1549 46.178 36.4759 46.115 36.8139 46.115C37.1149 46.115 37.4059 46.175 37.6889 46.293C37.9709 46.411 38.2219 46.603 38.4409 46.867L39.5759 45.855C39.2019 45.491 38.7779 45.217 38.3049 45.035C37.8309 44.852 37.3209 44.762 36.7739 44.762C36.1809 44.762 35.6299 44.873 35.1199 45.097C34.6089 45.321 34.1649 45.646 33.7869 46.075C33.4089 46.504 33.1119 47.039 32.8979 47.681C32.6839 48.324 32.5769 49.069 32.5769 49.916C32.5769 50.763 32.6839 51.511 32.8979 52.158C33.1119 52.805 33.4079 53.343 33.7869 53.771C34.1649 54.2 34.6069 54.523 35.1129 54.742C35.6189 54.961 36.1729 55.07 36.7739 55.07C37.0749 55.07 37.3779 55.048 37.6829 55.002C37.9879 54.956 38.2849 54.879 38.5719 54.77C38.8589 54.661 39.1329 54.522 39.3919 54.353C39.6509 54.184 39.8859 53.968 40.0959 53.704V49.808H36.7599V50.926Z" fill="#647696"/>
<path fill-rule="evenodd" clip-rule="evenodd" d="M24.1529 26.3284C24.9471 25.6583 26.1221 25.708 26.8568 26.4427L37.2071 36.793C37.5977 37.1835 37.5977 37.8167 37.2071 38.2072C36.8166 38.5978 36.1834 38.5978 35.7929 38.2072L25.4426 27.8569L10.1449 40.7644C9.72279 41.1206 9.09188 41.0671 8.73573 40.645C8.37958 40.2229 8.43304 39.592 8.85515 39.2358L24.1529 26.3284Z" fill="#647696"/>
<path fill-rule="evenodd" clip-rule="evenodd" d="M40.0747 20.578C40.8292 19.7516 42.1149 19.7051 42.9272 20.4746L51.6877 28.7741C52.0887 29.1539 52.1058 29.7869 51.726 30.1878C51.3461 30.5887 50.7132 30.6058 50.3123 30.226L41.5517 21.9265L31.7385 32.6743C31.3661 33.0822 30.7336 33.1109 30.3257 32.7385C29.9179 32.3661 29.8891 31.7336 30.2615 31.3258L40.0747 20.578Z" fill="#647696"/>
<path d="M20.069 24.638C23.14 24.638 25.638 22.14 25.638 19.069C25.638 15.998 23.14 13.5 20.069 13.5C16.998 13.5 14.5 15.998 14.5 19.069C14.5 22.14 16.998 24.638 20.069 24.638ZM20.069 15.5C22.037 15.5 23.638 17.101 23.638 19.069C23.638 21.037 22.037 22.638 20.069 22.638C18.101 22.638 16.5 21.037 16.5 19.069C16.5 17.101 18.101 15.5 20.069 15.5Z" fill="#647696"/>
</svg>
