<svg width="60" height="60" viewBox="0 0 60 60" fill="none" xmlns="http://www.w3.org/2000/svg">
<path d="M39.0858 2H9.5C8.94772 2 8.5 2.44771 8.5 3V57C8.5 57.5523 8.94772 58 9.5 58H50.5C51.0523 58 51.5 57.5523 51.5 57V14.4142C51.5 14.149 51.3946 13.8946 51.2071 13.7071L39.7929 2.29289C39.6054 2.10536 39.351 2 39.0858 2Z" fill="white"/>
<path fill-rule="evenodd" clip-rule="evenodd" d="M7.5 3C7.5 1.89543 8.39543 1 9.5 1H39.0858C39.6162 1 40.1249 1.21071 40.5 1.58579L51.9142 13L51.2071 13.7071L51.9142 13C52.2893 13.3751 52.5 13.8838 52.5 14.4142V57C52.5 58.1046 51.6046 59 50.5 59H9.5C8.39543 59 7.5 58.1046 7.5 57V3ZM39.0858 3L9.5 3V57H50.5V14.4142L39.0858 3Z" fill="#647696"/>
<path fill-rule="evenodd" clip-rule="evenodd" d="M38.5 13V2H40.5V13H51.5V15H40.5C39.3954 15 38.5 14.1046 38.5 13Z" fill="#647696"/>
<path fill-rule="evenodd" clip-rule="evenodd" d="M51.5 42H8.5V40H51.5V42Z" fill="#647696"/>
<path d="M27.498 51.43C27.479 51.876 27.327 52.194 27.04 52.38C26.753 52.566 26.367 52.66 25.885 52.66C25.694 52.66 25.489 52.638 25.27 52.592C25.051 52.546 24.841 52.494 24.641 52.435C24.44 52.375 24.256 52.312 24.087 52.244C23.918 52.176 23.788 52.109 23.697 52.046L23 53.153C23.182 53.29 23.405 53.413 23.67 53.522C23.934 53.631 24.21 53.729 24.497 53.816C24.784 53.903 25.062 53.966 25.331 54.007C25.6 54.048 25.834 54.069 26.035 54.069C26.435 54.069 26.826 54.03 27.204 53.953C27.582 53.876 27.917 53.739 28.209 53.543C28.5 53.347 28.732 53.087 28.906 52.764C29.079 52.441 29.166 52.041 29.166 51.568V43.72H27.498V51.43Z" fill="#647696"/>
<path d="M36.2271 49.064C35.9131 48.836 35.5731 48.642 35.2081 48.483C34.8431 48.324 34.5061 48.16 34.1961 47.991C33.8851 47.822 33.6261 47.627 33.4171 47.403C33.2071 47.179 33.1031 46.885 33.1031 46.521C33.1031 46.375 33.1391 46.222 33.2121 46.063C33.2841 45.904 33.3851 45.76 33.5131 45.632C33.6401 45.504 33.7861 45.398 33.9511 45.311C34.1161 45.224 34.2881 45.172 34.4711 45.154C34.7991 45.127 35.0681 45.122 35.2781 45.14C35.4871 45.159 35.6561 45.19 35.7841 45.236C35.9111 45.282 36.0101 45.327 36.0781 45.373C36.1461 45.419 36.2081 45.455 36.2631 45.482C36.2721 45.473 36.2991 45.427 36.3451 45.345C36.3901 45.263 36.4451 45.16 36.5091 45.037C36.5721 44.914 36.6411 44.782 36.7141 44.641C36.7861 44.499 36.8511 44.37 36.9051 44.251C36.6401 44.078 36.2941 43.952 35.8661 43.875C35.4371 43.798 35.0131 43.759 34.5951 43.759C34.1851 43.759 33.7951 43.822 33.4261 43.95C33.0571 44.078 32.7341 44.263 32.4551 44.504C32.1761 44.745 31.9561 45.039 31.7921 45.386C31.6281 45.733 31.5441 46.13 31.5441 46.576C31.5441 47.068 31.6481 47.478 31.8581 47.806C32.0671 48.134 32.3321 48.419 32.6511 48.66C32.9691 48.901 33.3111 49.111 33.6761 49.289C34.0401 49.467 34.3801 49.644 34.6951 49.822C35.0101 50 35.2711 50.198 35.4811 50.417C35.6901 50.636 35.7951 50.9 35.7951 51.21C35.7951 51.721 35.6471 52.106 35.3511 52.365C35.0551 52.624 34.6281 52.755 34.0731 52.755C33.8901 52.755 33.6941 52.736 33.4851 52.7C33.2751 52.664 33.0651 52.616 32.8561 52.556C32.6461 52.496 32.4441 52.433 32.2481 52.365C32.0521 52.297 31.8901 52.226 31.7631 52.153L31.4761 53.329C31.6301 53.466 31.8161 53.582 32.0301 53.678C32.2441 53.774 32.4691 53.849 32.7071 53.904C32.9431 53.959 33.1791 53.998 33.4111 54.02C33.6431 54.042 33.8691 54.054 34.0881 54.054C34.5981 54.054 35.0541 53.977 35.4551 53.822C35.8551 53.667 36.1931 53.46 36.4671 53.2C36.7411 52.94 36.9521 52.639 37.1031 52.298C37.2541 51.957 37.3291 51.603 37.3291 51.238C37.3291 50.7 37.2241 50.26 37.0151 49.919C36.8031 49.577 36.5411 49.292 36.2271 49.064Z" fill="#647696"/>
<path d="M22.75 22V18C22.75 17.449 23.198 17 23.75 17C24.303 17 24.75 16.552 24.75 16C24.75 15.448 24.303 15 23.75 15C22.096 15 20.75 16.346 20.75 18V22C20.75 23.103 19.853 24 18.75 24C18.197 24 17.75 24.448 17.75 25C17.75 25.552 18.197 26 18.75 26C19.853 26 20.75 26.897 20.75 28V32C20.75 33.654 22.096 35 23.75 35C24.303 35 24.75 34.552 24.75 34C24.75 33.448 24.303 33 23.75 33C23.198 33 22.75 32.551 22.75 32V28C22.75 26.8 22.208 25.734 21.368 25C22.208 24.266 22.75 23.2 22.75 22Z" fill="#647696"/>
<path d="M37.25 22V18C37.25 17.449 36.802 17 36.25 17C35.697 17 35.25 16.552 35.25 16C35.25 15.448 35.697 15 36.25 15C37.904 15 39.25 16.346 39.25 18V22C39.25 23.103 40.147 24 41.25 24C41.803 24 42.25 24.448 42.25 25C42.25 25.552 41.803 26 41.25 26C40.147 26 39.25 26.897 39.25 28V32C39.25 33.654 37.904 35 36.25 35C35.697 35 35.25 34.552 35.25 34C35.25 33.448 35.697 33 36.25 33C36.802 33 37.25 32.551 37.25 32V28C37.25 26.8 37.792 25.734 38.632 25C37.792 24.266 37.25 23.2 37.25 22Z" fill="#647696"/>
<path d="M30 23C30.8284 23 31.5 22.3284 31.5 21.5C31.5 20.6716 30.8284 20 30 20C29.1716 20 28.5 20.6716 28.5 21.5C28.5 22.3284 29.1716 23 30 23Z" fill="#647696"/>
<path d="M30 27C29.447 27 29 27.448 29 28V31C29 31.552 29.447 32 30 32C30.553 32 31 31.552 31 31V28C31 27.448 30.553 27 30 27Z" fill="#647696"/>
</svg>
