<svg width="60" height="60" viewBox="0 0 60 60" fill="none" xmlns="http://www.w3.org/2000/svg">
<path d="M39.0858 2H9.5C8.94772 2 8.5 2.44771 8.5 3V57C8.5 57.5523 8.94772 58 9.5 58H50.5C51.0523 58 51.5 57.5523 51.5 57V14.4142C51.5 14.149 51.3946 13.8946 51.2071 13.7071L39.7929 2.29289C39.6054 2.10536 39.351 2 39.0858 2Z" fill="white"/>
<path fill-rule="evenodd" clip-rule="evenodd" d="M7.5 3C7.5 1.89543 8.39543 1 9.5 1H39.0858C39.6162 1 40.1249 1.21071 40.5 1.58579L51.9142 13L51.2071 13.7071L51.9142 13C52.2893 13.3751 52.5 13.8838 52.5 14.4142V57C52.5 58.1046 51.6046 59 50.5 59H9.5C8.39543 59 7.5 58.1046 7.5 57V3ZM39.0858 3L9.5 3V57H50.5V14.4142L39.0858 3Z" fill="#647696"/>
<path fill-rule="evenodd" clip-rule="evenodd" d="M38.5 13V2H40.5V13H51.5V15H40.5C39.3954 15 38.5 14.1046 38.5 13Z" fill="#647696"/>
<path fill-rule="evenodd" clip-rule="evenodd" d="M51.5 42H8.5V40H51.5V42Z" fill="#647696"/>
<path d="M22.75 22V18C22.75 17.449 23.198 17 23.75 17C24.303 17 24.75 16.552 24.75 16C24.75 15.448 24.303 15 23.75 15C22.096 15 20.75 16.346 20.75 18V22C20.75 23.103 19.853 24 18.75 24C18.197 24 17.75 24.448 17.75 25C17.75 25.552 18.197 26 18.75 26C19.853 26 20.75 26.897 20.75 28V32C20.75 33.654 22.096 35 23.75 35C24.303 35 24.75 34.552 24.75 34C24.75 33.448 24.303 33 23.75 33C23.198 33 22.75 32.551 22.75 32V28C22.75 26.8 22.208 25.734 21.368 25C22.208 24.266 22.75 23.2 22.75 22Z" fill="#647696"/>
<path d="M37.25 22V18C37.25 17.449 36.802 17 36.25 17C35.697 17 35.25 16.552 35.25 16C35.25 15.448 35.697 15 36.25 15C37.904 15 39.25 16.346 39.25 18V22C39.25 23.103 40.147 24 41.25 24C41.803 24 42.25 24.448 42.25 25C42.25 25.552 41.803 26 41.25 26C40.147 26 39.25 26.897 39.25 28V32C39.25 33.654 37.904 35 36.25 35C35.697 35 35.25 34.552 35.25 34C35.25 33.448 35.697 33 36.25 33C36.802 33 37.25 32.551 37.25 32V28C37.25 26.8 37.792 25.734 38.632 25C37.792 24.266 37.25 23.2 37.25 22Z" fill="#647696"/>
<path d="M30 23C30.8284 23 31.5 22.3284 31.5 21.5C31.5 20.6716 30.8284 20 30 20C29.1716 20 28.5 20.6716 28.5 21.5C28.5 22.3284 29.1716 23 30 23Z" fill="#647696"/>
<path d="M30 27C29.447 27 29 27.448 29 28V31C29 31.552 29.447 32 30 32C30.553 32 31 31.552 31 31V28C31 27.448 30.553 27 30 27Z" fill="#647696"/>
<path d="M17.498 51.43C17.479 51.876 17.327 52.194 17.04 52.38C16.753 52.566 16.368 52.66 15.885 52.66C15.694 52.66 15.489 52.638 15.27 52.592C15.051 52.546 14.841 52.494 14.641 52.435C14.441 52.376 14.256 52.312 14.087 52.244C13.918 52.176 13.788 52.109 13.697 52.046L13 53.153C13.183 53.29 13.405 53.413 13.67 53.522C13.935 53.631 14.21 53.729 14.497 53.816C14.784 53.903 15.062 53.966 15.331 54.007C15.6 54.048 15.835 54.069 16.035 54.069C16.436 54.069 16.826 54.03 17.204 53.953C17.582 53.876 17.917 53.739 18.209 53.543C18.501 53.347 18.733 53.087 18.906 52.764C19.079 52.441 19.166 52.041 19.166 51.568V43.72H17.498V51.43Z" fill="#647696"/>
<path d="M26.2271 49.064C25.9131 48.836 25.5731 48.642 25.2081 48.483C24.8431 48.324 24.5061 48.16 24.1961 47.991C23.8861 47.822 23.6271 47.627 23.4171 47.403C23.2071 47.179 23.1031 46.885 23.1031 46.521C23.1031 46.375 23.1391 46.222 23.2121 46.063C23.2851 45.904 23.3851 45.76 23.5131 45.632C23.6411 45.504 23.7861 45.398 23.9511 45.311C24.1161 45.224 24.2881 45.172 24.4711 45.154C24.7991 45.127 25.0681 45.122 25.2781 45.14C25.4881 45.158 25.6561 45.19 25.7841 45.236C25.9121 45.282 26.0101 45.327 26.0781 45.373C26.1461 45.419 26.2081 45.455 26.2631 45.482C26.2721 45.473 26.2991 45.427 26.3451 45.345C26.3911 45.263 26.4461 45.16 26.5091 45.037C26.5721 44.914 26.6411 44.782 26.7141 44.641C26.7871 44.5 26.8511 44.37 26.9051 44.251C26.6401 44.078 26.2951 43.952 25.8661 43.875C25.4371 43.798 25.0131 43.759 24.5951 43.759C24.1851 43.759 23.7951 43.822 23.4261 43.95C23.0571 44.078 22.7341 44.263 22.4551 44.504C22.1761 44.745 21.9561 45.039 21.7921 45.386C21.6281 45.733 21.5441 46.13 21.5441 46.576C21.5441 47.068 21.6481 47.478 21.8581 47.806C22.0681 48.134 22.3321 48.419 22.6511 48.66C22.9701 48.901 23.3121 49.111 23.6761 49.289C24.0401 49.467 24.3801 49.644 24.6951 49.822C25.0101 50 25.2711 50.198 25.4811 50.417C25.6911 50.636 25.7951 50.9 25.7951 51.21C25.7951 51.721 25.6471 52.106 25.3511 52.365C25.0551 52.624 24.6281 52.755 24.0731 52.755C23.8901 52.755 23.6951 52.736 23.4851 52.7C23.2751 52.664 23.0661 52.616 22.8561 52.556C22.6461 52.496 22.4441 52.433 22.2481 52.365C22.0521 52.297 21.8911 52.226 21.7631 52.153L21.4761 53.329C21.6311 53.466 21.8161 53.582 22.0301 53.678C22.2441 53.774 22.4691 53.849 22.7071 53.904C22.9441 53.959 23.1791 53.998 23.4111 54.02C23.6431 54.042 23.8691 54.054 24.0881 54.054C24.5991 54.054 25.0541 53.977 25.4551 53.822C25.8561 53.667 26.1931 53.46 26.4671 53.2C26.7411 52.94 26.9521 52.639 27.1031 52.298C27.2541 51.957 27.3291 51.603 27.3291 51.238C27.3291 50.7 27.2251 50.26 27.0151 49.919C26.8051 49.578 26.5411 49.292 26.2271 49.064Z" fill="#647696"/>
<path d="M36.016 45.072C35.638 44.643 35.196 44.318 34.69 44.094C34.184 43.87 33.63 43.759 33.029 43.759C32.428 43.759 31.874 43.87 31.368 44.094C30.862 44.318 30.42 44.643 30.042 45.072C29.664 45.501 29.367 46.036 29.153 46.678C28.939 47.32 28.832 48.066 28.832 48.913C28.832 49.76 28.939 50.508 29.153 51.155C29.367 51.802 29.664 52.34 30.042 52.768C30.42 53.196 30.862 53.52 31.368 53.739C31.874 53.958 32.428 54.067 33.029 54.067C33.63 54.067 34.184 53.958 34.69 53.739C35.196 53.52 35.638 53.197 36.016 52.768C36.394 52.339 36.691 51.802 36.905 51.155C37.119 50.508 37.226 49.76 37.226 48.913C37.226 48.066 37.119 47.32 36.905 46.678C36.691 46.036 36.394 45.501 36.016 45.072ZM35.339 50.698C35.202 51.185 35.013 51.58 34.772 51.881C34.531 52.182 34.257 52.399 33.952 52.53C33.647 52.661 33.325 52.728 32.988 52.728C32.66 52.728 32.347 52.658 32.051 52.516C31.755 52.374 31.49 52.152 31.258 51.846C31.026 51.54 30.843 51.147 30.711 50.663C30.579 50.179 30.508 49.597 30.499 48.913C30.508 48.211 30.581 47.619 30.718 47.136C30.855 46.653 31.044 46.259 31.285 45.953C31.526 45.647 31.8 45.432 32.105 45.304C32.41 45.176 32.732 45.113 33.069 45.113C33.397 45.113 33.71 45.181 34.006 45.318C34.302 45.455 34.567 45.678 34.799 45.988C35.031 46.298 35.214 46.692 35.346 47.171C35.478 47.65 35.549 48.231 35.558 48.914C35.549 49.616 35.476 50.211 35.339 50.698Z" fill="#647696"/>
<path d="M45.1561 50.8691L41.2051 43.9241H39.5371V54.0001H41.2051V47.0551L45.1561 54.0001H46.8241V43.9241H45.1561V50.8691Z" fill="#647696"/>
</svg>
