<svg width="12" height="12" viewBox="0 0 12 12" fill="none" xmlns="http://www.w3.org/2000/svg">
<path fill-rule="evenodd" clip-rule="evenodd" d="M3.85077 2.6459C4.12089 2.91602 4.2921 3.71691 3.54796 4.46105C2.80382 5.20519 2.00293 5.03398 1.73281 4.76386C1.46269 4.49373 1.29148 3.69285 2.03562 2.9487C2.77976 2.20456 3.58065 2.37578 3.85077 2.6459ZM5.08161 4.93407C5.79381 3.81825 5.75787 2.43168 4.91143 1.58524C3.90802 0.581829 2.1456 0.7174 0.974957 1.88804C-0.195687 3.05869 -0.331258 4.82111 0.672151 5.82452C1.51859 6.67095 2.90513 6.7069 4.02094 5.99472L9.11311 11.0869L10.1738 10.0262L9.29178 9.14424L10.1719 8.26413L10.94 9.03221L12.0006 7.97155L9.08947 5.06039L8.02882 6.12105L9.11123 7.20347L8.23112 8.08358L5.08161 4.93407Z" fill="white"/>
</svg>
