<svg width="16" height="16" viewBox="0 0 16 16" fill="none" xmlns="http://www.w3.org/2000/svg">
<g clip-path="url(#clip0)">
<rect x="1" y="3" width="14" height="10" fill="#CBD5E0"/>
<path d="M13.4756 2H2.52444C1.13778 2 0 3.13778 0 4.52444V11.9822C0 13.3689 1.13778 14.5067 2.52444 14.5067H13.4844C14.8711 14.5067 16.0089 13.3689 16.0089 11.9822V4.52444C16 3.13778 14.8622 2 13.4756 2ZM9.63556 3.77778H9.92889C10.3378 3.77778 10.6667 4.10667 10.6667 4.52444V4.81778C10.6667 5.22667 10.3378 5.55556 9.92 5.55556H9.62667C9.21778 5.55556 8.88889 5.22667 8.88889 4.80889V4.52444C8.88889 4.10667 9.21778 3.77778 9.63556 3.77778ZM9.63556 7.33333H9.92889C10.3378 7.33333 10.6667 7.66222 10.6667 8.08V8.37333C10.6667 8.78222 10.3378 9.11111 9.92 9.11111H9.62667C9.21778 9.11111 8.88889 8.78222 8.88889 8.36444V8.08C8.88889 7.66222 9.21778 7.33333 9.63556 7.33333ZM6.08 3.77778H6.37333C6.78222 3.77778 7.11111 4.10667 7.11111 4.52444V4.81778C7.11111 5.22667 6.78222 5.55556 6.36444 5.55556H6.08C5.66222 5.55556 5.33333 5.22667 5.33333 4.80889V4.52444C5.33333 4.10667 5.66222 3.77778 6.08 3.77778ZM6.08 7.33333H6.37333C6.78222 7.33333 7.11111 7.66222 7.11111 8.08V8.37333C7.11111 8.78222 6.78222 9.11111 6.36444 9.11111H6.08C5.66222 9.11111 5.33333 8.78222 5.33333 8.36444V8.08C5.33333 7.66222 5.66222 7.33333 6.08 7.33333ZM2.80889 12.6667H2.52444C2.10667 12.6667 1.77778 12.3378 1.77778 11.92V11.6267C1.77778 11.2178 2.10667 10.8889 2.52444 10.8889H2.81778C3.22667 10.8889 3.55556 11.2178 3.55556 11.6356V11.9289C3.55556 12.3378 3.22667 12.6667 2.80889 12.6667ZM2.80889 9.11111H2.52444C2.10667 9.11111 1.77778 8.78222 1.77778 8.36444V8.08C1.77778 7.66222 2.10667 7.33333 2.52444 7.33333H2.81778C3.22667 7.33333 3.55556 7.66222 3.55556 8.08V8.37333C3.55556 8.78222 3.22667 9.11111 2.80889 9.11111ZM2.80889 5.55556H2.52444C2.10667 5.55556 1.77778 5.22667 1.77778 4.80889V4.52444C1.77778 4.10667 2.10667 3.77778 2.52444 3.77778H2.81778C3.22667 3.77778 3.55556 4.10667 3.55556 4.52444V4.81778C3.55556 5.22667 3.22667 5.55556 2.80889 5.55556ZM13.4756 12.6667H6.08C5.66222 12.6667 5.33333 12.3378 5.33333 11.92V11.6267C5.33333 11.2178 5.66222 10.8889 6.08 10.8889H13.4844C13.8933 10.8889 14.2311 11.2178 14.2311 11.6356V11.9289C14.2222 12.3378 13.8933 12.6667 13.4756 12.6667ZM13.4756 9.11111H13.1822C12.7733 9.11111 12.4444 8.78222 12.4444 8.36444V8.08C12.4444 7.66222 12.7733 7.33333 13.1911 7.33333H13.4844C13.8933 7.33333 14.2222 7.66222 14.2222 8.08V8.37333C14.2222 8.78222 13.8933 9.11111 13.4756 9.11111ZM13.4756 5.55556H13.1822C12.7733 5.55556 12.4444 5.22667 12.4444 4.80889V4.52444C12.4444 4.10667 12.7733 3.77778 13.1911 3.77778H13.4844C13.8933 3.77778 14.2222 4.10667 14.2222 4.52444V4.81778C14.2222 5.22667 13.8933 5.55556 13.4756 5.55556Z" fill="#647696"/>
</g>
<defs>
<clipPath id="clip0">
<rect width="16" height="16" fill="white"/>
</clipPath>
</defs>
</svg>
