<svg width="12" height="12" viewBox="0 0 12 12" fill="none" xmlns="http://www.w3.org/2000/svg">
<g clip-path="url(#clip0)">
<path d="M5.661 7.27997L6.1365 5.92622C5.64464 5.77609 5.17253 5.5676 4.73025 5.30522C5.0599 4.93953 5.33959 4.53172 5.562 4.09247C5.79541 3.63415 5.96787 3.14727 6.075 2.64422C6.51675 2.64422 6.80925 2.65922 7.13925 2.68922V1.33247C6.77811 1.3715 6.41497 1.38903 6.05175 1.38497H4.26525V0.927471C4.26499 0.773853 4.28006 0.620594 4.31025 0.469971H2.8035C2.83441 0.623016 2.84949 0.778837 2.8485 0.934971V1.38497H1.19175C0.828783 1.38883 0.465904 1.3713 0.105 1.33247V2.68922C0.48 2.65922 0.73425 2.64422 1.17675 2.64422C1.30391 3.08841 1.47736 3.51801 1.69425 3.92597C1.95611 4.42293 2.28105 4.88399 2.661 5.29772C1.83803 5.77763 0.93746 6.10989 0 6.27947C0.315311 6.67637 0.558732 7.1254 0.71925 7.60622C1.78583 7.32126 2.79534 6.85469 3.7035 6.22697C4.30821 6.66036 4.96609 7.01425 5.661 7.27997ZM2.616 2.64422H4.60275C4.44314 3.31625 4.12125 3.93891 3.66525 4.45772C3.17049 3.94961 2.80991 3.32639 2.616 2.64422Z" fill="#475161"/>
<path d="M10.2877 12.1176L9.74399 10.3333H7.01174L6.46799 12.1176H4.75574L7.40099 4.59131H9.34424L12 12.1176H10.2877ZM9.36449 9.00056C8.86449 7.38356 8.58174 6.46931 8.51624 6.25781C8.45324 6.04556 8.40749 5.87831 8.38049 5.75531C8.26749 6.19231 7.94449 7.27406 7.41149 9.00056H9.36449Z" fill="#475161"/>
</g>
<defs>
<clipPath id="clip0">
<rect width="12" height="12" fill="white"/>
</clipPath>
</defs>
</svg>
