<svg width="12" height="12" viewBox="0 0 12 12" fill="none" xmlns="http://www.w3.org/2000/svg">
<path d="M9.03033 2.96967C8.73744 2.67678 8.26256 2.67678 7.96967 2.96967C7.67678 3.26256 7.67678 3.73744 7.96967 4.03033L9.03033 2.96967ZM11 6L11.5303 6.53033C11.8232 6.23744 11.8232 5.76256 11.5303 5.46967L11 6ZM7.96967 7.96967C7.67678 8.26256 7.67678 8.73744 7.96967 9.03033C8.26256 9.32322 8.73744 9.32322 9.03033 9.03033L7.96967 7.96967ZM5 5.25C4.58579 5.25 4.25 5.58579 4.25 6C4.25 6.41421 4.58579 6.75 5 6.75V5.25ZM7.96967 4.03033L10.4697 6.53033L11.5303 5.46967L9.03033 2.96967L7.96967 4.03033ZM10.4697 5.46967L7.96967 7.96967L9.03033 9.03033L11.5303 6.53033L10.4697 5.46967ZM11 5.25H5V6.75H11V5.25ZM6.75 3.5V2.5H5.25V3.5H6.75ZM4.5 0.25H2.5V1.75H4.5V0.25ZM0.25 2.5V9.5H1.75V2.5H0.25ZM2.5 11.75H4.5V10.25H2.5V11.75ZM6.75 9.5V8.5H5.25V9.5H6.75ZM4.5 11.75C5.74264 11.75 6.75 10.7426 6.75 9.5H5.25C5.25 9.91421 4.91421 10.25 4.5 10.25V11.75ZM0.25 9.5C0.25 10.7426 1.25736 11.75 2.5 11.75V10.25C2.08579 10.25 1.75 9.91421 1.75 9.5H0.25ZM2.5 0.25C1.25736 0.25 0.25 1.25736 0.25 2.5H1.75C1.75 2.08579 2.08579 1.75 2.5 1.75V0.25ZM6.75 2.5C6.75 1.25736 5.74264 0.25 4.5 0.25V1.75C4.91421 1.75 5.25 2.08579 5.25 2.5H6.75Z" fill="white"/>
</svg>
