<svg width="8" height="12" viewBox="0 0 8 12" fill="none" xmlns="http://www.w3.org/2000/svg">
<path d="M6.70692 10.2929L2.41392 5.99992L6.70692 1.70692C6.88908 1.51832 6.98987 1.26571 6.98759 1.00352C6.98531 0.741321 6.88015 0.490508 6.69474 0.3051C6.50933 0.119692 6.25852 0.0145232 5.99632 0.0122448C5.73412 0.00996636 5.48152 0.110761 5.29292 0.292919L0.292919 5.29292C0.105448 5.48045 0.000132311 5.73475 0.000132299 5.99992C0.000132287 6.26508 0.105448 6.51939 0.292919 6.70692L5.29292 11.7069C5.38517 11.8024 5.49551 11.8786 5.61751 11.931C5.73952 11.9834 5.87074 12.011 6.00352 12.0122C6.1363 12.0133 6.26798 11.988 6.39087 11.9377C6.51377 11.8875 6.62542 11.8132 6.71931 11.7193C6.81321 11.6254 6.88746 11.5138 6.93774 11.3909C6.98802 11.268 7.01332 11.1363 7.01217 11.0035C7.01101 10.8707 6.98343 10.7395 6.93102 10.6175C6.87861 10.4955 6.80243 10.3852 6.70692 10.2929Z" fill="white"/>
</svg>
