<?xml version="1.0" encoding="utf-8"?>
<!-- Generator: Adobe Illustrator 24.0.1, SVG Export Plug-In . SVG Version: 6.00 Build 0)  -->
<svg version="1.1" id="Layer_1" xmlns="http://www.w3.org/2000/svg" xmlns:xlink="http://www.w3.org/1999/xlink" x="0px" y="0px"
	 viewBox="0 0 40 36" style="enable-background:new 0 0 40 36;" xml:space="preserve">
<style type="text/css">
	.st0{fill:#FFF500;}
	.st1{fill-rule:evenodd;clip-rule:evenodd;fill:#6C5CE7;}
</style>
<g>
	<path class="st0" d="M29.7,11c0-6.1-5.5-10.9-11.9-9.6c-3.8,0.8-6.8,3.9-7.5,7.7c-0.6,3.1,0.3,5.9,2,8c1,1.2,1.8,2.5,2.2,4l1.1,4.1
		h8.3l0.7-2.6c0.5-1.9,1.5-3.6,2.8-5.1C28.8,15.8,29.7,13.5,29.7,11z"/>
	<path class="st1" d="M1.7,0.8c0.2-0.6,0.9-1,1.5-0.8l2.4,0.8c0.6,0.2,1,0.9,0.8,1.5c-0.2,0.6-0.9,1-1.5,0.8L2.5,2.4
		C1.8,2.2,1.5,1.5,1.7,0.8z M17.8,0.5C24.9-1,31.1,4.4,31.1,11.2c0,2.8-1,5.3-2.7,7.3l0,0c-1.2,1.3-2,2.9-2.5,4.6L25,26.7H14.8
		l-1.3-5c-0.3-1.3-1-2.4-1.9-3.5c-2-2.4-2.9-5.6-2.3-9C10.1,4.8,13.5,1.3,17.8,0.5z M28.7,11.2c0-5.3-4.9-9.5-10.4-8.4l0,0
		c-3.3,0.7-5.9,3.4-6.5,6.7c-0.5,2.7,0.2,5.2,1.7,7l0,0c1,1.3,1.9,2.7,2.4,4.5l0,0l0.8,3.2h6.4l0.5-1.7c0.6-2.1,1.6-4,3-5.6
		C27.9,15.4,28.7,13.4,28.7,11.2z M13.3,30.3c0-0.7,0.5-1.2,1.2-1.2h10.8c0.7,0,1.2,0.5,1.2,1.2c0,0.7-0.5,1.2-1.2,1.2H14.5
		C13.9,31.6,13.3,31,13.3,30.3z M17.6,33.5c-0.7,0-1.2,0.5-1.2,1.2c0,0.7,0.5,1.2,1.2,1.2h4.9c0.7,0,1.2-0.5,1.2-1.2
		c0-0.7-0.5-1.2-1.2-1.2H17.6z M7.5,9.2c0,0.7-0.5,1.2-1.2,1.2l-5.1,0C0.6,10.5,0,10,0,9.3C0,8.6,0.5,8.1,1.2,8l5.1,0
		C7,8,7.5,8.5,7.5,9.2z M6,16.9c0.6-0.4,0.7-1.1,0.3-1.7c-0.4-0.6-1.1-0.7-1.7-0.3l-2.4,1.6c-0.6,0.4-0.7,1.1-0.3,1.7
		c0.4,0.6,1.1,0.7,1.7,0.3L6,16.9z M33.7,8c-0.7,0-1.2,0.5-1.2,1.2c0,0.7,0.5,1.2,1.2,1.2l5.1,0c0.7,0,1.2-0.5,1.2-1.2
		c0-0.7-0.5-1.2-1.2-1.2L33.7,8z M33.7,15.2c0.4-0.6,1.1-0.7,1.7-0.3l2.4,1.6c0.6,0.4,0.7,1.1,0.3,1.7c-0.4,0.6-1.1,0.7-1.7,0.3
		L34,16.9C33.5,16.6,33.3,15.8,33.7,15.2z M37.5,2.4c0.6-0.2,1-0.9,0.8-1.5c-0.2-0.6-0.9-1-1.5-0.8l-2.4,0.8c-0.6,0.2-1,0.9-0.8,1.5
		c0.2,0.6,0.9,1,1.5,0.8L37.5,2.4z"/>
</g>
</svg>
