<svg width="12" height="13" viewBox="0 0 12 13" fill="none" xmlns="http://www.w3.org/2000/svg">
<g filter="url(#filter0_d_2385_11130)">
<path d="M6.23171 0.952778L4.70968 2.44179C4.56924 2.58179 4.48954 2.77171 4.48789 2.97029C4.48625 3.16887 4.56279 3.36008 4.7009 3.50241C4.83901 3.64474 5.02753 3.72669 5.22554 3.73047C5.42354 3.73425 5.61504 3.65955 5.75845 3.5226L7.2895 2.02655C7.46307 1.84563 7.67094 1.7013 7.90089 1.60202C8.13084 1.50275 8.37825 1.45053 8.6286 1.44843C8.87896 1.44633 9.1272 1.4944 9.35878 1.58981C9.59035 1.68522 9.80059 1.82605 9.97716 2.00403C10.1537 2.18202 10.293 2.39358 10.387 2.62629C10.4809 2.859 10.5275 3.10818 10.5241 3.35921C10.5207 3.61023 10.4673 3.85805 10.3671 4.08811C10.2669 4.31816 10.1218 4.52583 9.94051 4.69893L8.45558 6.22614C8.38529 6.29675 8.32967 6.38065 8.29194 6.47298C8.25422 6.56531 8.23515 6.66422 8.23582 6.76399C8.2365 6.86377 8.25692 6.96241 8.29589 7.05421C8.33487 7.14602 8.39162 7.22915 8.46287 7.2988C8.53412 7.36845 8.61844 7.42322 8.71095 7.45995C8.80347 7.49669 8.90233 7.51464 9.00181 7.51278C9.1013 7.51092 9.19942 7.48928 9.29051 7.44912C9.38159 7.40895 9.46382 7.35106 9.53243 7.2788L11.0113 5.75862C11.6445 5.12148 12 4.25868 12 3.35922C12 2.45976 11.6445 1.59696 11.0113 0.959816C10.3672 0.344879 9.51228 0.00131331 8.62292 3.75741e-06C7.73356 -0.0013058 6.87762 0.33974 6.23171 0.952778Z" fill="white"/>
<path d="M6.21348 8.47437L4.68243 9.97142C4.50802 10.1489 4.30025 10.29 4.07113 10.3865C3.842 10.483 3.59608 10.5329 3.34757 10.5335C3.09907 10.5341 2.85292 10.4853 2.62335 10.3898C2.39379 10.2944 2.18537 10.1543 2.01015 9.9776C1.83492 9.8009 1.69638 9.59112 1.60252 9.36039C1.50866 9.12966 1.46135 8.88256 1.46333 8.63337C1.46531 8.38419 1.51654 8.13788 1.61405 7.90867C1.71156 7.67947 1.85342 7.47193 2.03143 7.29805L3.51635 5.77083C3.65281 5.62711 3.72726 5.43524 3.72357 5.23683C3.71988 5.03842 3.63834 4.84947 3.49664 4.71095C3.35493 4.57243 3.16449 4.4955 2.96659 4.49685C2.7687 4.49821 2.57931 4.57773 2.4395 4.71817L0.960595 6.23835C0.339913 6.87694 -0.00514121 7.73485 5.79119e-05 8.62656C0.00525704 9.51826 0.360292 10.3721 0.988378 11.0033C1.61646 11.6346 2.46712 11.9926 3.35636 11.9999C4.2456 12.0071 5.10196 11.6631 5.74023 11.0422L7.26225 9.55519C7.4027 9.41518 7.4824 9.22527 7.48404 9.02669C7.48569 8.82811 7.40915 8.63689 7.27104 8.49456C7.13293 8.35223 6.9444 8.27028 6.7464 8.2665C6.54839 8.26272 6.35689 8.33742 6.21348 8.47437Z" fill="white"/>
<path d="M3.44908 8.54331C3.51877 8.61347 3.60158 8.66914 3.69277 8.70713C3.78397 8.74512 3.88174 8.76467 3.98049 8.76467C4.07924 8.76467 4.17701 8.74512 4.26821 8.70713C4.3594 8.66914 4.44221 8.61347 4.51189 8.54331L8.52249 4.52168C8.59435 4.45216 8.65167 4.36898 8.69113 4.277C8.73058 4.18502 8.75137 4.08608 8.75229 3.98596C8.7532 3.88584 8.73422 3.78654 8.69645 3.69385C8.65869 3.60116 8.60289 3.51694 8.53232 3.44611C8.46174 3.37528 8.37781 3.31925 8.28541 3.28129C8.19301 3.24333 8.094 3.2242 7.99415 3.22503C7.8943 3.22585 7.79562 3.2466 7.70386 3.28608C7.61209 3.32555 7.52909 3.38296 7.45968 3.45495L3.44908 7.47657C3.3792 7.5466 3.32377 7.62975 3.28595 7.72127C3.24813 7.81278 3.22866 7.91088 3.22866 8.00994C3.22866 8.10901 3.24813 8.2071 3.28595 8.29862C3.32377 8.39014 3.3792 8.47328 3.44908 8.54331Z" fill="white"/>
</g>
<defs>
<filter id="filter0_d_2385_11130" x="0" y="0" width="12" height="13" filterUnits="userSpaceOnUse" color-interpolation-filters="sRGB">
<feFlood flood-opacity="0" result="BackgroundImageFix"/>
<feColorMatrix in="SourceAlpha" type="matrix" values="0 0 0 0 0 0 0 0 0 0 0 0 0 0 0 0 0 0 127 0" result="hardAlpha"/>
<feOffset dy="1"/>
<feColorMatrix type="matrix" values="0 0 0 0 0 0 0 0 0 0 0 0 0 0 0 0 0 0 0.16 0"/>
<feBlend mode="normal" in2="BackgroundImageFix" result="effect1_dropShadow_2385_11130"/>
<feBlend mode="normal" in="SourceGraphic" in2="effect1_dropShadow_2385_11130" result="shape"/>
</filter>
</defs>
</svg>
