<svg width="12" height="12" viewBox="0 0 12 12" fill="none" xmlns="http://www.w3.org/2000/svg">
<g clip-path="url(#clip0)">
<path d="M11 0H1.00004C0.447748 0 3.03269e-05 0.447909 2.65467e-05 1.0002L4.95598e-06 2.99985C5.92333e-06 3.55212 0.447717 4 0.999989 4H11.0001C11.5523 4 12 3.55259 12 3.00032L12 0.999725C12 0.447441 11.5523 0 11 0Z" fill="#647696"/>
<path d="M11 6H1C0.447715 6 0 6.44772 0 7C0 7.55228 0.447715 8 1 8H11C11.5523 8 12 7.55228 12 7C12 6.44772 11.5523 6 11 6Z" fill="#647696"/>
<path d="M11 10H1C0.447715 10 0 10.4477 0 11C0 11.5523 0.447715 12 1 12H11C11.5523 12 12 11.5523 12 11C12 10.4477 11.5523 10 11 10Z" fill="#647696"/>
</g>
<defs>
<clipPath id="clip0">
<rect width="12" height="12" fill="white"/>
</clipPath>
</defs>
</svg>
