<svg width="24" height="24" viewBox="0 0 24 24" fill="none" xmlns="http://www.w3.org/2000/svg">
<path d="M16.1733 10.3039L16.1732 10.3039L11.06 7.10816L11.06 7.10814C9.72787 6.27564 7.99996 7.23326 7.99996 8.80416L7.99995 15.1957C7.99995 16.7667 9.72794 17.724 11.0599 16.8918L11.06 16.8917L16.1732 13.6959L16.1733 13.6959C17.4264 12.9125 17.4264 11.0873 16.1733 10.3039ZM1 5C1 2.79086 2.79086 1 5 1H19C21.2091 1 23 2.79087 23 5V19C23 21.2091 21.2091 23 19 23H5C2.79087 23 1 21.2091 1 19V5Z" stroke="#697B9B" stroke-width="2"/>
</svg>
