<svg width="12" height="12" viewBox="0 0 12 12" fill="none" xmlns="http://www.w3.org/2000/svg">
<path d="M3.75 3C3.75 1.75736 4.75736 0.75 6 0.75C7.24264 0.75 8.25 1.75736 8.25 3V5.25H3.75V3Z" stroke="#647696" stroke-width="1.5"/>
<path fill-rule="evenodd" clip-rule="evenodd" d="M3.5 4.5C2.39543 4.5 1.5 5.39543 1.5 6.5V10C1.5 11.1046 2.39543 12 3.5 12H8.5C9.60457 12 10.5 11.1046 10.5 10V6.5C10.5 5.39543 9.60457 4.5 8.5 4.5H3.5ZM6.99988 8.00012C6.99988 8.37026 6.79878 8.69344 6.49988 8.86634V10.0004C6.49988 10.2765 6.27602 10.5004 5.99988 10.5004C5.72374 10.5004 5.49988 10.2765 5.49988 10.0004V8.86634C5.20098 8.69344 4.99988 8.37026 4.99988 8.00012C4.99988 7.44784 5.44759 7.00012 5.99988 7.00012C6.55216 7.00012 6.99988 7.44784 6.99988 8.00012Z" fill="#647696"/>
</svg>
