<svg width="16" height="16" viewBox="0 0 16 16" fill="none" xmlns="http://www.w3.org/2000/svg">
<path fill-rule="evenodd" clip-rule="evenodd" d="M5.5 6H10.5V4C10.5 2.61929 9.38071 1.5 8 1.5C6.61929 1.5 5.5 2.61929 5.5 4V6ZM4 6C2.89543 6 2 6.89543 2 8V14C2 15.1046 2.89543 16 4 16H12C13.1046 16 14 15.1046 14 14V8C14 6.89543 13.1046 6 12 6V4C12 1.79086 10.2091 0 8 0C5.79086 0 4 1.79086 4 4V6ZM8.49992 11.9031C8.9886 11.7053 9.33333 11.2263 9.33333 10.6667C9.33333 9.93029 8.73638 9.33333 8 9.33333C7.26362 9.33333 6.66667 9.93029 6.66667 10.6667C6.66667 11.2262 7.01132 11.7052 7.49992 11.903V13.3337C7.49992 13.6098 7.72378 13.8337 7.99992 13.8337C8.27606 13.8337 8.49992 13.6098 8.49992 13.3337V11.9031Z" fill="#647696"/>
</svg>
