<svg width="343" height="238" viewBox="0 0 343 238" fill="none" xmlns="http://www.w3.org/2000/svg">
<g clip-path="url(#clip0)">
<path d="M68.3405 238C106.084 238 136.681 235.682 136.681 232.823C136.681 229.965 106.084 227.647 68.3405 227.647C30.5971 227.647 0 229.965 0 232.823C0 235.682 30.5971 238 68.3405 238Z" fill="#E6E6E6"/>
<path d="M52.2383 52.8081C64.1316 47.7631 78.9449 50.9595 93.4117 53.178C93.5463 50.4914 95.1781 47.2217 93.4687 45.3474C91.3921 43.0703 91.5833 40.6777 92.8329 38.2714C96.0284 32.1179 91.4501 25.5702 86.8275 20.1259C85.7855 18.9016 84.4688 17.9396 82.984 17.3181C81.4993 16.6966 79.8886 16.4332 78.2826 16.5491L69.7195 17.1591C67.6357 17.3076 65.6471 18.0871 64.0198 19.3935C62.3924 20.6999 61.2039 22.4707 60.6133 24.4692C58.5686 27.2425 57.4743 30.0082 58.1633 32.7595C55.1007 34.8468 54.5861 37.3664 55.9623 40.2068C57.1293 41.9952 57.1169 43.7361 55.9092 45.4288C54.3232 47.5868 53.1085 49.9931 52.3148 52.549L52.2383 52.8081Z" fill="#2F2E41"/>
<path d="M334.872 205.747H92.472C90.3164 205.747 88.2491 204.893 86.7248 203.373C85.2006 201.853 84.3442 199.791 84.3442 197.641C172.214 187.457 258.433 187.457 343 197.641C343 199.791 342.144 201.853 340.619 203.373C339.095 204.893 337.028 205.747 334.872 205.747Z" fill="#2F2E41"/>
<path d="M343 198.118L84.3442 197.641L114.322 147.337L114.465 147.099V36.2336C114.465 34.888 114.731 33.5555 115.247 32.3122C115.763 31.069 116.52 29.9393 117.474 28.9878C118.428 28.0363 119.561 27.2815 120.807 26.7666C122.054 26.2517 123.39 25.9867 124.739 25.9868H301.17C302.52 25.9867 303.856 26.2517 305.102 26.7666C306.349 27.2815 307.482 28.0363 308.436 28.9878C309.39 29.9393 310.147 31.069 310.663 32.3122C311.179 33.5555 311.445 34.888 311.445 36.2336V147.862L343 198.118Z" fill="#3F3D56"/>
<path d="M124.505 33.1387C123.618 33.1397 122.767 33.4916 122.14 34.1174C121.512 34.7431 121.159 35.5915 121.158 36.4764V137.562C121.159 138.447 121.512 139.295 122.14 139.921C122.767 140.547 123.618 140.899 124.505 140.9H302.839C303.726 140.899 304.577 140.547 305.204 139.921C305.832 139.295 306.185 138.447 306.186 137.562V36.4764C306.185 35.5915 305.832 34.7431 305.204 34.1174C304.577 33.4917 303.726 33.1397 302.839 33.1387H124.505Z" fill="white"/>
<path d="M125.252 154.251C124.978 154.251 124.71 154.33 124.479 154.478C124.248 154.625 124.064 154.835 123.949 155.084L114.712 175.11C114.612 175.328 114.568 175.568 114.584 175.807C114.601 176.046 114.678 176.277 114.808 176.479C114.937 176.681 115.116 176.848 115.327 176.963C115.538 177.078 115.775 177.138 116.015 177.138H310.263C310.508 177.138 310.748 177.076 310.962 176.957C311.175 176.838 311.355 176.667 311.483 176.46C311.612 176.252 311.685 176.016 311.696 175.772C311.707 175.528 311.655 175.286 311.546 175.068L301.505 155.042C301.387 154.804 301.204 154.603 300.977 154.464C300.751 154.324 300.489 154.25 300.223 154.251H125.252Z" fill="#2F2E41"/>
<path d="M212.955 31.4701C214.143 31.4701 215.106 30.5094 215.106 29.3244C215.106 28.1394 214.143 27.1787 212.955 27.1787C211.767 27.1787 210.803 28.1394 210.803 29.3244C210.803 30.5094 211.767 31.4701 212.955 31.4701Z" fill="white"/>
<path d="M193.862 180.953C193.547 180.953 193.24 181.057 192.99 181.248C192.74 181.439 192.56 181.708 192.477 182.011L190.16 190.594C190.103 190.806 190.095 191.028 190.138 191.243C190.181 191.459 190.273 191.662 190.407 191.836C190.541 192.01 190.713 192.151 190.91 192.249C191.108 192.346 191.325 192.396 191.545 192.396H235.609C235.838 192.396 236.063 192.342 236.266 192.237C236.47 192.133 236.645 191.981 236.777 191.795C236.91 191.61 236.996 191.395 237.029 191.169C237.061 190.944 237.039 190.713 236.964 190.498L233.985 181.915C233.888 181.634 233.705 181.39 233.462 181.218C233.219 181.045 232.928 180.953 232.63 180.953H193.862Z" fill="#2F2E41"/>
<path d="M311.445 145.43V147.337H114.322L114.47 147.099V145.43H311.445Z" fill="#2F2E41"/>
<path d="M305.947 66.7546C324.43 66.7546 339.414 51.8111 339.414 33.3773C339.414 14.9435 324.43 0 305.947 0C287.463 0 272.479 14.9435 272.479 33.3773C272.479 51.8111 287.463 66.7546 305.947 66.7546Z" fill="#6C5CE7"/>
<path d="M319.812 47.9202H292.082C291.575 47.9197 291.088 47.7186 290.73 47.361C290.371 47.0034 290.17 46.5186 290.169 46.0129V29.3243C290.17 28.8186 290.371 28.3338 290.73 27.9762C291.088 27.6186 291.575 27.4175 292.082 27.417H319.812C320.319 27.4175 320.805 27.6186 321.163 27.9762C321.522 28.3338 321.724 28.8186 321.724 29.3243V46.0129C321.724 46.5186 321.522 47.0034 321.164 47.361C320.805 47.7186 320.319 47.9197 319.812 47.9202ZM292.082 29.3243V46.0129H319.813L319.812 29.3243L292.082 29.3243Z" fill="white"/>
<path d="M314.553 29.3242H297.341V21.6951C297.341 16.1693 300.96 12.1587 305.947 12.1587C310.933 12.1587 314.553 16.1693 314.553 21.6951L314.553 29.3242ZM299.253 27.4169H312.64V21.6951C312.64 17.2032 309.888 14.066 305.947 14.066C302.006 14.066 299.253 17.2032 299.253 21.6951L299.253 27.4169Z" fill="white"/>
<path d="M305.947 39.0992C307.003 39.0992 307.859 38.2453 307.859 37.1919C307.859 36.1386 307.003 35.2847 305.947 35.2847C304.891 35.2847 304.034 36.1386 304.034 37.1919C304.034 38.2453 304.891 39.0992 305.947 39.0992Z" fill="white"/>
<path d="M282.584 106.613H144.761C144.084 106.612 143.435 106.344 142.957 105.866C142.478 105.389 142.209 104.742 142.208 104.068V69.9717C142.209 69.2968 142.478 68.6499 142.957 68.1727C143.435 67.6955 144.084 67.4271 144.761 67.4263H282.584C283.26 67.4271 283.909 67.6955 284.387 68.1727C284.866 68.6499 285.135 69.2968 285.136 69.9717V104.068C285.135 104.742 284.866 105.389 284.387 105.866C283.909 106.344 283.26 106.612 282.584 106.613ZM144.761 68.4444C144.355 68.4449 143.966 68.6059 143.678 68.8923C143.391 69.1786 143.23 69.5668 143.229 69.9717V104.068C143.23 104.472 143.391 104.861 143.678 105.147C143.966 105.433 144.355 105.594 144.761 105.595H282.584C282.99 105.594 283.379 105.433 283.666 105.147C283.953 104.861 284.114 104.472 284.115 104.068V69.9717C284.114 69.5667 283.953 69.1785 283.666 68.8922C283.379 68.6059 282.99 68.4449 282.584 68.4444L144.761 68.4444Z" fill="#E6E6E6"/>
<path d="M166.176 96.0799C171.918 96.0799 176.572 91.4378 176.572 85.7114C176.572 79.9849 171.918 75.3428 166.176 75.3428C160.434 75.3428 155.779 79.9849 155.779 85.7114C155.779 91.4378 160.434 96.0799 166.176 96.0799Z" fill="#E6E6E6"/>
<path d="M190.187 78.7988C189.959 78.7985 189.734 78.8429 189.523 78.9296C189.312 79.0163 189.121 79.1435 188.96 79.304C188.799 79.4645 188.671 79.6551 188.584 79.865C188.496 80.0748 188.451 80.2998 188.451 80.5269C188.451 80.7541 188.496 80.979 188.584 81.1889C188.671 81.3987 188.799 81.5893 188.96 81.7498C189.121 81.9103 189.312 82.0376 189.523 82.1242C189.734 82.2109 189.959 82.2554 190.187 82.255H271.874C272.334 82.255 272.775 82.0729 273.1 81.7489C273.425 81.4248 273.607 80.9852 273.607 80.5269C273.607 80.0686 273.425 79.6291 273.1 79.305C272.775 78.9809 272.334 78.7988 271.874 78.7988H190.187Z" fill="#E6E6E6"/>
<path d="M190.187 89.1675C189.727 89.1675 189.287 89.3495 188.962 89.6736C188.637 89.9977 188.454 90.4373 188.454 90.8956C188.454 91.3539 188.637 91.7934 188.962 92.1175C189.287 92.4416 189.727 92.6237 190.187 92.6237H225.337C225.797 92.6237 226.237 92.4416 226.562 92.1175C226.887 91.7934 227.07 91.3539 227.07 90.8956C227.07 90.4373 226.887 89.9977 226.562 89.6736C226.237 89.3495 225.797 89.1675 225.337 89.1675H190.187Z" fill="#E6E6E6"/>
<path d="M113.983 89.8663L88.5049 103.375L88.1824 92.1177C96.4981 90.7332 104.41 88.3228 111.725 84.3985L114.39 77.833C114.68 77.1176 115.152 76.4898 115.759 76.0112C116.366 75.5327 117.088 75.2198 117.853 75.1033C118.618 74.9867 119.4 75.0706 120.123 75.3467C120.845 75.6228 121.484 76.0815 121.975 76.6779C122.693 77.5505 123.053 78.6628 122.98 79.7897C122.907 80.9166 122.407 81.9736 121.582 82.7468L113.983 89.8663Z" fill="#FFB8B8"/>
<path d="M51.7303 167.86C51.5444 167.18 51.5049 166.469 51.6145 165.772C51.724 165.076 51.9801 164.411 52.3658 163.821L57.9625 155.255C59.2862 153.229 61.3174 151.765 63.662 151.148C66.0065 150.532 68.4972 150.805 70.6509 151.916C68.2988 155.909 68.6267 159.412 71.4632 162.456C67.0598 164.6 62.99 167.367 59.3799 170.672C58.7209 171.12 57.964 171.404 57.1723 171.502C56.3807 171.599 55.5772 171.506 54.8288 171.231C54.0804 170.956 53.4087 170.506 52.8697 169.92C52.3308 169.334 51.9401 168.627 51.7303 167.86Z" fill="#2F2E41"/>
<path d="M115.143 156.66C114.296 158.067 113.1 159.234 111.671 160.048C110.242 160.863 108.627 161.297 106.981 161.309L69.7997 161.59L68.1873 152.263L84.6348 147.438L70.7673 136.825L85.9248 119.135L113.456 144.725C115.065 146.221 116.11 148.222 116.417 150.395C116.724 152.567 116.275 154.778 115.143 156.66Z" fill="#2F2E41"/>
<path d="M63.9948 220.449H55.2872C47.4691 167.003 39.511 113.408 63.0273 93.4043L90.7624 97.9072L87.2149 121.386L71.7348 139.076L63.9948 220.449Z" fill="#2F2E41"/>
<path d="M71.6489 232.556C70.9673 232.742 70.254 232.781 69.556 232.672C68.8579 232.563 68.191 232.307 67.599 231.923L58.1444 230.655C56.1128 229.335 54.6453 227.309 54.0266 224.971C53.4079 222.633 53.6822 220.149 54.7962 218.001C58.8001 220.347 62.3124 220.02 65.3645 217.19C67.5211 221.533 71.0744 221.268 74.4679 224.927C74.9172 225.584 75.2026 226.339 75.3002 227.129C75.3978 227.918 75.3048 228.719 75.029 229.466C74.7532 230.212 74.3026 230.882 73.7146 231.42C73.1267 231.957 72.4184 232.347 71.6489 232.556Z" fill="#2F2E41"/>
<path d="M84.6348 57.7029L68.5098 53.8433C71.1879 48.3762 71.4084 42.2929 70.1223 35.8319L81.0873 35.5103C81.4309 43.5447 82.4703 51.0509 84.6348 57.7029Z" fill="#FFB8B8"/>
<path d="M89.0666 107.591C77.3282 115.568 69.0341 107.864 62.7048 95.9772C63.5843 88.7035 62.1602 79.999 59.5227 70.5409C58.3498 66.3692 58.7877 61.9106 60.75 58.0452C62.7124 54.1798 66.0565 51.1886 70.1223 49.6621L83.9899 55.4515C95.765 65.0238 98.0827 75.3924 93.6649 86.3282L89.0666 107.591Z" fill="#6C5CE7"/>
<path d="M55.2872 65.7441L42.3871 72.4983L65.2847 86.0069L68.4708 93.8447C68.6834 94.3678 68.787 94.9286 68.7753 95.493C68.7635 96.0574 68.6366 96.6134 68.4023 97.1273C68.168 97.6411 67.8312 98.102 67.4125 98.4818C66.9937 98.8616 66.5018 99.1524 65.9667 99.3364C65.3585 99.5456 64.7099 99.6115 64.0719 99.5289C63.4338 99.4464 62.8236 99.2177 62.2889 98.8607C61.7543 98.5037 61.3098 98.0281 60.9902 97.4712C60.6707 96.9143 60.4847 96.2911 60.4469 95.6506L60.1247 90.1881L31.0221 80.6102C30.0416 80.2874 29.1476 79.7464 28.4077 79.0281C27.6679 78.3098 27.1016 77.433 26.7519 76.4641C26.2421 75.0518 26.2161 73.5107 26.6781 72.0822C27.1401 70.6536 28.0639 69.418 29.305 68.5689L52.7072 52.5571L55.2872 65.7441Z" fill="#FFB8B8"/>
<path d="M68.1873 67.0307C62.8071 64.6792 57.9149 67.2336 51.7397 69.2821L50.7722 52.2356C56.9039 48.9763 62.75 48.0975 68.1873 50.6274L68.1873 67.0307Z" fill="#6C5CE7"/>
<path d="M74.6231 43.9544C80.309 43.9544 84.9184 39.3575 84.9184 33.6869C84.9184 28.0163 80.309 23.4194 74.6231 23.4194C68.9372 23.4194 64.3279 28.0163 64.3279 33.6869C64.3279 39.3575 68.9372 43.9544 74.6231 43.9544Z" fill="#FFB8B8"/>
<path d="M86.9395 32.3913C76.7463 33.387 68.9792 31.7244 64.0151 26.9905V23.1782H86.0744L86.9395 32.3913Z" fill="#2F2E41"/>
</g>
<defs>
<clipPath id="clip0">
<rect width="343" height="238" fill="white"/>
</clipPath>
</defs>
</svg>
