<svg width="24" height="20" viewBox="0 0 24 20" fill="none" xmlns="http://www.w3.org/2000/svg">
<path d="M18.4512 8.07281C18.4512 8.29558 18.2744 8.44763 18.0764 8.44763H11.1492C10.9265 8.44763 10.7744 8.27083 10.7744 8.07281V7.29841C10.7744 7.07563 10.9512 6.92358 11.1492 6.92358H18.0764C18.2992 6.92358 18.4512 7.10039 18.4512 7.29841V8.07281Z" fill="#EB5646"/>
<path d="M21.5488 10.3748C21.5488 10.5976 21.372 10.7496 21.174 10.7496H12.6981C12.4753 10.7496 12.3232 10.5728 12.3232 10.3748V9.60041C12.3232 9.37764 12.5 9.22559 12.6981 9.22559H21.1493C21.372 9.22559 21.5241 9.40239 21.5241 9.60041L21.5488 10.3748Z" fill="#EB5646"/>
<path d="M23.8506 12.6981C23.8506 12.9208 23.6738 13.0729 23.4758 13.0729H14.2254C14.0026 13.0729 13.8506 12.8961 13.8506 12.6981V11.9237C13.8506 11.7009 14.0274 11.5488 14.2254 11.5488H23.451C23.6738 11.5488 23.8258 11.7256 23.8258 11.9237L23.8506 12.6981Z" fill="#EB5646"/>
<path d="M23.8506 15.0001C23.8506 15.2228 23.6738 15.3749 23.4758 15.3749H14.2254C14.0026 15.3749 13.8506 15.1981 13.8506 15.0001V14.2257C13.8506 14.0029 14.0274 13.8508 14.2254 13.8508H23.451C23.6738 13.8508 23.8258 14.0276 23.8258 14.2257L23.8506 15.0001Z" fill="#EB5646"/>
<path d="M21.5488 17.3019C21.5488 17.5247 21.372 17.6768 21.174 17.6768H12.6981C12.4753 17.6768 12.3232 17.5 12.3232 17.3019V16.5275C12.3232 16.3048 12.5 16.1527 12.6981 16.1527H21.1493C21.372 16.1527 21.5241 16.3295 21.5241 16.5275L21.5488 17.3019Z" fill="#EB5646"/>
<path d="M18.4512 19.6252C18.4512 19.8479 18.2744 20 18.0764 20H11.1492C10.9265 20 10.7744 19.8232 10.7744 19.6252V18.8508C10.7744 18.628 10.9512 18.476 11.1492 18.476H18.0764C18.2992 18.476 18.4512 18.6528 18.4512 18.8508V19.6252Z" fill="#EB5646"/>
<path d="M5.375 1.14922C5.375 1.37199 5.5518 1.52405 5.74982 1.52405H12.677C12.8998 1.52405 13.0518 1.34724 13.0518 1.14922V0.374823C13.0518 0.152051 12.875 0 12.677 0H5.77458C5.5518 0 5.39975 0.176803 5.39975 0.374823L5.375 1.14922Z" fill="#EB5646"/>
<path d="M2.29834 3.44768C2.29834 3.67046 2.47514 3.82251 2.67316 3.82251H11.1244C11.3471 3.82251 11.4992 3.6457 11.4992 3.44768V2.67329C11.4992 2.45051 11.3224 2.29846 11.1244 2.29846H2.69438C2.47161 2.29846 2.31956 2.47527 2.31956 2.67329V3.44768H2.29834Z" fill="#EB5646"/>
<path d="M0 5.7708C0 5.99358 0.176803 6.14563 0.374823 6.14563H9.60042C9.8232 6.14563 9.97525 5.96882 9.97525 5.7708V4.99641C9.97525 4.77363 9.79844 4.62158 9.60042 4.62158H0.374823C0.152051 4.62158 0 4.79839 0 4.99641V5.7708Z" fill="#EB5646"/>
<path d="M0 8.07281C0 8.29558 0.176803 8.44763 0.374823 8.44763H9.60042C9.8232 8.44763 9.97525 8.27083 9.97525 8.07281V7.29841C9.97525 7.07563 9.79844 6.92358 9.60042 6.92358H0.374823C0.152051 6.92358 0 7.10039 0 7.29841V8.07281Z" fill="#EB5646"/>
<path d="M2.29834 10.3748C2.29834 10.5976 2.47514 10.7496 2.67316 10.7496H11.1244C11.3471 10.7496 11.4992 10.5728 11.4992 10.3748V9.60041C11.4992 9.37764 11.3224 9.22559 11.1244 9.22559H2.69438C2.47161 9.22559 2.31956 9.40239 2.31956 9.60041V10.3748H2.29834Z" fill="#EB5646"/>
<path d="M5.375 12.6981C5.375 12.9208 5.5518 13.0729 5.74982 13.0729H12.677C12.8998 13.0729 13.0518 12.8961 13.0518 12.6981V11.9237C13.0518 11.7009 12.875 11.5488 12.677 11.5488H5.77458C5.5518 11.5488 5.39975 11.7256 5.39975 11.9237L5.375 12.6981Z" fill="#EB5646"/>
</svg>
