<svg width="100" height="100" viewBox="0 0 100 100" fill="none" xmlns="http://www.w3.org/2000/svg">
<path d="M38.6904 53.0835H55.0595C56.3153 53.0835 57.3333 54.1015 57.3333 55.3573V71.7264C57.3333 72.9821 56.3153 74.0002 55.0595 74.0002H38.6904C37.4346 74.0002 36.4166 72.9821 36.4166 71.7264V55.3573C36.4166 54.1015 37.4346 53.0835 38.6904 53.0835Z" fill="#A9B6CB" stroke="#A9B6CB" stroke-width="2"/>
<path d="M74 40.625C74 45.2504 70.2504 49 65.625 49C60.9996 49 57.25 45.2504 57.25 40.625C57.25 35.9996 60.9996 32.25 65.625 32.25C70.2504 32.25 74 35.9996 74 40.625Z" fill="#A9B6CB" stroke="#A9B6CB" stroke-width="2"/>
<path d="M48.2338 44.8333H26.7662L37.5 26.9436L48.2338 44.8333Z" fill="#A9B6CB" stroke="#A9B6CB" stroke-width="2"/>
</svg>
