<svg width="12" height="12" viewBox="0 0 12 12" fill="none" xmlns="http://www.w3.org/2000/svg">
<path fill-rule="evenodd" clip-rule="evenodd" d="M8.35492 11.507C7.87077 11.7737 7.26207 11.597 6.99594 11.1125L6.37451 9.98127C6.28873 9.82511 6.11903 9.73636 5.9409 9.73228C5.77023 9.72837 5.6066 9.8086 5.51766 9.95432L4.82034 11.0968C4.53261 11.5683 3.91718 11.7172 3.44576 11.4294L2.36276 10.7684C1.89133 10.4806 1.74245 9.86516 2.03025 9.39375L2.69359 8.30723C2.78821 8.15224 2.78094 7.95762 2.68967 7.80063C2.59897 7.6446 2.44039 7.53464 2.26 7.52911L0.969368 7.48955C0.417931 7.47264 -0.0156398 7.01235 0.0004328 6.46089L0.0372905 5.19627C0.0533963 4.64367 0.514834 4.20898 1.06741 4.22587L2.47422 4.26887C2.58763 4.27233 2.68145 4.20665 2.73778 4.10815C2.85381 3.90523 2.89065 3.66955 2.78074 3.46325L2.19442 2.36275C1.93432 1.87455 2.11999 1.26793 2.60878 1.00893L3.72672 0.416565C4.21401 0.158365 4.81834 0.343386 5.07756 0.830133L5.75902 2.10973C5.81625 2.2172 5.9311 2.28049 6.0528 2.28439C6.16875 2.2881 6.27889 2.23168 6.3386 2.13223L7.11048 0.846612C7.39297 0.376092 8.00189 0.221167 8.47491 0.499464L9.57077 1.14421C10.0476 1.42472 10.206 2.03904 9.9244 2.51518L9.19454 3.74919C9.119 3.87691 9.1241 4.03576 9.20122 4.16253C9.27713 4.2873 9.40864 4.3709 9.55469 4.37305L11.0123 4.39447C11.5645 4.40259 12.0056 4.85676 11.9975 5.40894L11.9791 6.67264C11.971 7.22499 11.5167 7.66618 10.9643 7.65796L9.5989 7.63766C9.41577 7.63493 9.26205 7.7418 9.1743 7.90256C9.09996 8.00657 9.08674 8.14017 9.14844 8.25214L9.85686 9.53775C10.1234 10.0215 9.94732 10.6298 9.46354 10.8963L8.35492 11.507ZM7.71126 5.97427C7.71126 6.9858 6.93853 7.8058 5.98531 7.8058C5.03209 7.8058 4.25935 6.9858 4.25935 5.97427C4.25935 4.96275 5.03209 4.14275 5.98531 4.14275C6.93853 4.14275 7.71126 4.96275 7.71126 5.97427Z" fill="white"/>
</svg>
