<svg width="16" height="16" viewBox="0 0 16 16" fill="none" xmlns="http://www.w3.org/2000/svg">
<rect x="0.5" y="3.5" width="15" height="11" rx="1.5" stroke="#647696"/>
<path d="M8 9.5C8.94088 9.5 9.79427 9.33994 10.4959 9.06275C10.4686 9.26967 10.3001 9.48991 9.84679 9.68418C9.36093 9.8924 8.6841 10 8 10C7.3159 10 6.63907 9.8924 6.15321 9.68418C5.69992 9.48991 5.53137 9.26967 5.50409 9.06275C6.20573 9.33994 7.05912 9.5 8 9.5Z" stroke="#647696"/>
<path d="M8 12C8.92304 12 9.77974 11.8703 10.4922 11.5861C10.4556 11.7862 10.283 11.9972 9.84679 12.1842C9.36093 12.3924 8.6841 12.5 8 12.5C7.3159 12.5 6.63907 12.3924 6.15321 12.1842C5.69992 11.9899 5.53137 11.7697 5.50409 11.5628C6.20573 11.8399 7.05912 12 8 12Z" stroke="#647696"/>
<path d="M10.5 6.5C10.5 6.72454 10.3462 6.97013 9.84679 7.18418C9.36093 7.3924 8.6841 7.5 8 7.5C7.3159 7.5 6.63907 7.3924 6.15321 7.18418C5.65376 6.97013 5.5 6.72454 5.5 6.5C5.5 6.27546 5.65376 6.02987 6.15321 5.81582C6.63907 5.6076 7.3159 5.5 8 5.5C8.6841 5.5 9.36093 5.6076 9.84679 5.81582C10.3462 6.02987 10.5 6.27546 10.5 6.5Z" stroke="#647696"/>
<path d="M5.5 2C5.5 1.72386 5.72386 1.5 6 1.5H10C10.2761 1.5 10.5 1.72386 10.5 2V3.5H5.5V2Z" stroke="#647696"/>
<path d="M0 7H6" stroke="#647696"/>
<path d="M10 7H16" stroke="#647696"/>
</svg>
