<svg width="52" height="52" viewBox="0 0 52 52" fill="none" xmlns="http://www.w3.org/2000/svg">
<path fill-rule="evenodd" clip-rule="evenodd" d="M45.5 47.6667H6.5L6.5 34.6667H45.5V47.6667Z" fill="#DDE3EE"/>
<path fill-rule="evenodd" clip-rule="evenodd" d="M6.49992 21.6666C7.69654 21.6666 8.66659 22.6367 8.66659 23.8333V45.5H43.3333V23.8333C43.3333 22.6367 44.3033 21.6666 45.4999 21.6666C46.6965 21.6666 47.6666 22.6367 47.6666 23.8333V45.5C47.6666 47.8932 45.7265 49.8333 43.3333 49.8333H8.66659C6.27335 49.8333 4.33325 47.8932 4.33325 45.5V23.8333C4.33325 22.6367 5.3033 21.6666 6.49992 21.6666Z" fill="#DDE3EE"/>
<path fill-rule="evenodd" clip-rule="evenodd" d="M8.08461 2.16663C6.20829 2.16663 4.54512 3.37421 3.9642 5.15834L0 19.5C0 23.0898 2.91015 26 6.5 26C9.01539 26 13.3637 24.5712 14.4444 22.4809C15.525 24.5712 17.7067 26 20.222 26C22.7376 26 24.9195 24.5709 26 22.4804C27.0805 24.5709 29.2624 26 31.778 26C34.2933 26 36.475 24.5712 37.5556 22.4809C38.6363 24.5712 42.9846 26 45.5 26C49.0899 26 52 23.0898 52 19.5L48.0357 5.15832C47.4548 3.37419 45.7916 2.16663 43.9153 2.16663H8.08461Z" fill="#DDE3EE"/>
</svg>
