<svg width="16" height="16" viewBox="0 0 16 16" fill="none" xmlns="http://www.w3.org/2000/svg">
<path fill-rule="evenodd" clip-rule="evenodd" d="M14 14.6667H2V10.6667H14V14.6667Z" fill="#647696"/>
<path fill-rule="evenodd" clip-rule="evenodd" d="M2 6.66667C2.3682 6.66667 2.66667 6.96513 2.66667 7.33333V14H13.3333V7.33333C13.3333 6.96513 13.6318 6.66667 14 6.66667C14.3682 6.66667 14.6667 6.96513 14.6667 7.33333V14C14.6667 14.7364 14.0697 15.3333 13.3333 15.3333H2.66667C1.93029 15.3333 1.33333 14.7364 1.33333 14V7.33333C1.33333 6.96513 1.63181 6.66667 2 6.66667Z" fill="#647696"/>
<path fill-rule="evenodd" clip-rule="evenodd" d="M2.48758 0.666668C1.91024 0.666668 1.3985 1.03823 1.21975 1.5872L0 6C0 7.10458 0.895431 8 2 8C2.77396 8 4.11191 7.56038 4.44442 6.9172C4.77693 7.56038 5.4482 8 6.22218 8C6.9962 8 7.66753 7.56029 8 6.91705C8.33247 7.56029 9.0038 8 9.77782 8C10.5518 8 11.2231 7.56038 11.5556 6.9172C11.8881 7.56038 13.226 8 14 8C15.1046 8 16 7.10458 16 6L14.7802 1.58719C14.6015 1.03823 14.0897 0.666668 13.5124 0.666668H2.48758Z" fill="#647696"/>
</svg>
