<svg width="60" height="60" viewBox="0 0 60 60" fill="none" xmlns="http://www.w3.org/2000/svg">
<path d="M39.0858 2H9.5C8.94772 2 8.5 2.44771 8.5 3V57C8.5 57.5523 8.94772 58 9.5 58H50.5C51.0523 58 51.5 57.5523 51.5 57V14.4142C51.5 14.149 51.3946 13.8946 51.2071 13.7071L39.7929 2.29289C39.6054 2.10536 39.351 2 39.0858 2Z" fill="white"/>
<path fill-rule="evenodd" clip-rule="evenodd" d="M7.5 3C7.5 1.89543 8.39543 1 9.5 1H39.0858C39.6162 1 40.1249 1.21071 40.5 1.58579L51.9142 13L51.2071 13.7071L51.9142 13C52.2893 13.3751 52.5 13.8838 52.5 14.4142V57C52.5 58.1046 51.6046 59 50.5 59H9.5C8.39543 59 7.5 58.1046 7.5 57V3ZM39.0858 3L9.5 3V57H50.5V14.4142L39.0858 3Z" fill="#647696"/>
<path fill-rule="evenodd" clip-rule="evenodd" d="M38.5 13V2H40.5V13H51.5V15H40.5C39.3954 15 38.5 14.1046 38.5 13Z" fill="#647696"/>
<path fill-rule="evenodd" clip-rule="evenodd" d="M51.5 42H8.5V40H51.5V42Z" fill="#647696"/>
<path d="M18.4261 48.0681L20.6951 53.6741H22.1451L24.4001 48.0681V55.0001H26.0681V44.9241H24.4001L21.4201 51.8141L18.4261 44.9241H16.7581V55.0001H18.4261V48.0681Z" fill="#647696"/>
<path d="M30.2111 51.3631H31.4281C31.9561 51.3631 32.4401 51.2861 32.8771 51.1311C33.3141 50.9761 33.6891 50.7571 33.9981 50.4751C34.3071 50.1931 34.5501 49.8441 34.7231 49.4291C34.8961 49.0141 34.9831 48.5521 34.9831 48.0411C34.9831 47.5581 34.8801 47.1231 34.6751 46.7351C34.4701 46.3471 34.2011 46.0171 33.8681 45.7441C33.5351 45.4711 33.1591 45.2651 32.7401 45.1291C32.3211 44.9931 31.8971 44.9241 31.4691 44.9241H28.5701V55.0001H30.2111V51.3631ZM30.2111 46.1681H31.4411C31.8601 46.1681 32.1981 46.2341 32.4531 46.3661C32.7081 46.4981 32.9061 46.6621 33.0481 46.8581C33.1901 47.0541 33.2821 47.2591 33.3281 47.4731C33.3741 47.6871 33.3961 47.8761 33.3961 48.0401C33.3961 48.4501 33.3461 48.7941 33.2461 49.0721C33.1461 49.3501 33.0141 49.5661 32.8501 49.7211C32.6861 49.8761 32.5061 49.9881 32.3101 50.0561C32.1141 50.1241 31.9151 50.1591 31.7151 50.1591H30.2111V46.1681Z" fill="#647696"/>
<path d="M39.1111 53.8931C38.6821 53.8931 38.3451 53.8771 38.0991 53.8451C37.8531 53.8131 37.6611 53.7721 37.5251 53.7221C37.3891 53.6721 37.2841 53.6191 37.2111 53.5651C37.1381 53.5111 37.0611 53.4611 36.9791 53.4151L36.6101 54.5911C36.7831 54.7001 37.0901 54.8081 37.5331 54.9121C37.9761 55.0161 38.5791 55.0691 39.3451 55.0691C39.4541 55.0691 39.6071 55.0601 39.8031 55.0421C39.9991 55.0241 40.2151 54.9821 40.4521 54.9191C40.6891 54.8561 40.9321 54.7571 41.1831 54.6251C41.4341 54.4931 41.6601 54.3171 41.8601 54.0991C42.0601 53.8811 42.2271 53.6051 42.3591 53.2721C42.4911 52.9391 42.5571 52.5451 42.5571 52.0891C42.5571 51.7151 42.4941 51.3851 42.3661 51.0981C42.2381 50.8111 42.0791 50.5671 41.8871 50.3671C41.6951 50.1671 41.4891 50.0121 41.2651 49.9021C41.0411 49.7921 40.8261 49.7241 40.6161 49.6971C40.7801 49.6611 40.9581 49.5861 41.1491 49.4711C41.3401 49.3561 41.5131 49.2131 41.6691 49.0401C41.8251 48.8671 41.9511 48.6641 42.0521 48.4321C42.1531 48.2001 42.2021 47.9421 42.2021 47.6601C42.2021 47.1771 42.1181 46.7581 41.9491 46.4021C41.7801 46.0461 41.5531 45.7551 41.2651 45.5271C40.9771 45.2991 40.6431 45.1321 40.2601 45.0281C39.8771 44.9241 39.4721 44.8711 39.0431 44.8711C38.4331 44.8711 37.9651 44.9071 37.6421 44.9801C37.3191 45.0531 37.0471 45.1221 36.8291 45.1851L37.3081 46.4151C37.4361 46.3691 37.6241 46.3081 37.8751 46.2301C38.1261 46.1521 38.4611 46.1141 38.8801 46.1141C39.2991 46.1141 39.6271 46.1621 39.8641 46.2581C40.1011 46.3541 40.2811 46.4791 40.4041 46.6341C40.5271 46.7891 40.6021 46.9571 40.6301 47.1401C40.6581 47.3231 40.6711 47.4951 40.6711 47.6601C40.6711 48.0701 40.6111 48.3851 40.4931 48.6031C40.3751 48.8211 40.2241 48.9771 40.0421 49.0681C39.8601 49.1591 39.6661 49.2101 39.4611 49.2181C39.2561 49.2261 39.0531 49.2321 38.8531 49.2321H37.9231L37.9371 50.3391H39.3181C39.8651 50.3391 40.2801 50.5081 40.5621 50.8451C40.8441 51.1821 40.9861 51.5971 40.9861 52.0891C40.9861 52.6091 40.8311 53.0391 40.5211 53.3811C40.2111 53.7231 39.7401 53.8931 39.1111 53.8931Z" fill="#647696"/>
<path d="M35.362 14.636C31.448 11.505 30.605 8.359 30.5 7.898V7C30.5 6.447 30.053 6 29.5 6C28.947 6 28.5 6.447 28.5 7V8V16.359V25.412H24.794C20.912 25.412 18.5 27.373 18.5 30.529C18.5 33.995 20.74 36.235 24.206 36.235C27.677 36.235 30.5 33.412 30.5 29.941V18.468L30.798 18.711C31.138 19.047 31.659 19.431 32.319 19.916C34.637 21.625 38.519 24.483 37.543 27.709C37.514 27.807 37.5 27.904 37.5 28C37.5 28.43 37.778 28.826 38.21 28.957C38.307 28.986 38.404 29 38.5 29C38.93 29 39.326 28.722 39.457 28.29C41.084 22.915 39.035 18.9 37.67 16.986C37.103 16.19 36.37 15.443 35.362 14.636ZM28.5 29.941C28.5 32.309 26.574 34.235 24.206 34.235C21.851 34.235 20.5 32.884 20.5 30.529C20.5 27.953 22.835 27.412 24.794 27.412H28.5V29.941ZM33.505 18.308C32.934 17.886 32.44 17.523 32.134 17.227L30.5 15.887V12.414C31.327 13.588 32.487 14.897 34.112 16.197C34.97 16.885 35.584 17.505 36.041 18.147C36.757 19.15 37.472 20.486 37.829 22.125C36.502 20.515 34.745 19.221 33.505 18.308Z" fill="#647696"/>
</svg>
