<svg width="60" height="60" viewBox="0 0 60 60" fill="none" xmlns="http://www.w3.org/2000/svg">
<path d="M39.0858 2H9.5C8.94772 2 8.5 2.44771 8.5 3V57C8.5 57.5523 8.94772 58 9.5 58H50.5C51.0523 58 51.5 57.5523 51.5 57V14.4142C51.5 14.149 51.3946 13.8946 51.2071 13.7071L39.7929 2.29289C39.6054 2.10536 39.351 2 39.0858 2Z" fill="white"/>
<path fill-rule="evenodd" clip-rule="evenodd" d="M7.5 3C7.5 1.89543 8.39543 1 9.5 1H39.0858C39.6162 1 40.1249 1.21071 40.5 1.58579L51.9142 13L51.2071 13.7071L51.9142 13C52.2893 13.3751 52.5 13.8838 52.5 14.4142V57C52.5 58.1046 51.6046 59 50.5 59H9.5C8.39543 59 7.5 58.1046 7.5 57V3ZM39.0858 3L9.5 3V57H50.5V14.4142L39.0858 3Z" fill="#647696"/>
<path fill-rule="evenodd" clip-rule="evenodd" d="M38.5 13V2H40.5V13H51.5V15H40.5C39.3954 15 38.5 14.1046 38.5 13Z" fill="#647696"/>
<path fill-rule="evenodd" clip-rule="evenodd" d="M51.5 42H8.5V40H51.5V42Z" fill="#647696"/>
<path d="M21.412 51.8141L18.418 44.9241H16.75V55.0001H18.418V48.0681L20.687 53.6741H22.137L24.392 48.0681V55.0001H26.06V44.9241H24.392L21.412 51.8141Z" fill="#647696"/>
<path d="M33.86 45.7441C33.527 45.4711 33.151 45.2651 32.732 45.1291C32.313 44.9921 31.889 44.9241 31.461 44.9241H28.562V55.0001H30.203V51.3631H31.42C31.948 51.3631 32.432 51.2861 32.869 51.1311C33.306 50.9761 33.68 50.7571 33.99 50.4751C34.3 50.1931 34.541 49.8441 34.715 49.4291C34.888 49.0141 34.975 48.5521 34.975 48.0411C34.975 47.5581 34.872 47.1231 34.667 46.7351C34.462 46.3471 34.193 46.0181 33.86 45.7441ZM33.238 49.0731C33.137 49.3511 33.006 49.5671 32.842 49.7221C32.678 49.8771 32.498 49.9891 32.302 50.0571C32.106 50.1251 31.907 50.1601 31.707 50.1601H30.203V46.1681H31.433C31.852 46.1681 32.189 46.2341 32.445 46.3661C32.7 46.4981 32.898 46.6621 33.04 46.8581C33.181 47.0541 33.274 47.2591 33.32 47.4731C33.365 47.6871 33.388 47.8761 33.388 48.0401C33.388 48.4511 33.338 48.7951 33.238 49.0731Z" fill="#647696"/>
<path d="M42.1379 44.9241H40.4699L36.1089 51.3501V52.6491H40.4699V55.0001H42.1379V52.6481H43.1909V51.3501H42.1379V44.9241ZM40.4709 51.3501H37.5719L40.4699 46.8381V51.3501H40.4709Z" fill="#647696"/>
<path d="M35.537 23.1558L24.537 16.1558C24.229 15.9608 23.839 15.9478 23.518 16.1228C23.199 16.2988 23 16.6348 23 16.9998V30.9998C23 31.3648 23.199 31.7008 23.519 31.8768C23.669 31.9588 23.834 31.9998 24 31.9998C24.187 31.9998 24.374 31.9468 24.537 31.8438L35.537 24.8438C35.825 24.6598 36 24.3418 36 23.9998C36 23.6578 35.825 23.3398 35.537 23.1558ZM25 29.1788V18.8208L33.137 23.9998L25 29.1788Z" fill="#647696"/>
<path fill-rule="evenodd" clip-rule="evenodd" d="M27.8291 28.5635L34.9986 24.0011C34.9987 24.0011 34.9986 24.0011 34.9986 24.0011C34.9993 24.0007 34.9997 24.0002 34.9999 23.9998C34.9997 23.9993 34.9994 23.999 34.9987 23.9986C34.9987 23.9985 34.9988 23.9986 34.9987 23.9986L27.8252 19.4336L34.9999 23.9998L27.8291 28.5635ZM23.518 16.1228C23.839 15.9478 24.229 15.9608 24.537 16.1558L35.537 23.1558C35.825 23.3398 36 23.6578 36 23.9998C36 24.3418 35.825 24.6598 35.537 24.8438L24.537 31.8438C24.374 31.9468 24.187 31.9998 24 31.9998C23.834 31.9998 23.669 31.9588 23.519 31.8768C23.199 31.7008 23 31.3648 23 30.9998V16.9998C23 16.6348 23.199 16.2988 23.518 16.1228ZM25 29.1788L33.137 23.9998L25 18.8208V29.1788Z" fill="#647696"/>
<path fill-rule="evenodd" clip-rule="evenodd" d="M28 35C34.0751 35 39 30.0751 39 24C39 17.9249 34.0751 13 28 13C21.9249 13 17 17.9249 17 24C17 30.0751 21.9249 35 28 35ZM28 37C35.1797 37 41 31.1797 41 24C41 16.8203 35.1797 11 28 11C20.8203 11 15 16.8203 15 24C15 31.1797 20.8203 37 28 37Z" fill="#647696"/>
</svg>
