<svg width="24" height="24" viewBox="0 0 24 24" fill="none" xmlns="http://www.w3.org/2000/svg">
<g clip-path="url(#clip0)">
<path d="M11.8072 0.963855C12.8675 0.963855 13.7349 1.83133 13.7349 2.89157V11.8072C13.7349 12.8675 12.8675 13.7349 11.8072 13.7349H2.89157C1.83133 13.7349 0.963855 12.8675 0.963855 11.8072V2.89157C0.963855 1.83133 1.83133 0.963855 2.89157 0.963855H11.8072ZM11.8072 0H2.89157C1.3012 0 0 1.3012 0 2.89157V11.8072C0 13.3976 1.3012 14.6988 2.89157 14.6988H11.8072C13.3976 14.6988 14.6988 13.3976 14.6988 11.8072V2.89157C14.6988 1.3012 13.3976 0 11.8072 0Z" fill="#475161"/>
<path d="M21.1084 10.2651C22.1687 10.2651 23.0361 11.1325 23.0361 12.1928V21.1084C23.0361 22.1687 22.1687 23.0361 21.1084 23.0361H12.1928C11.1325 23.0361 10.2651 22.1687 10.2651 21.1084V17.9759H13.7831C16.106 17.9759 17.9855 16.0964 17.9855 13.7735V10.2554H21.1084V10.2651ZM21.1084 9.30121H17.9759H17.012V10.2651V13.7831C17.012 15.5663 15.5566 17.0217 13.7735 17.0217H10.2554H9.29156V17.9855V21.1181C9.29156 22.7084 10.5928 24.0096 12.1831 24.0096H21.0988C22.6892 24.0096 23.9904 22.7084 23.9904 21.1181V12.2024C24 10.6024 22.7084 9.30121 21.1084 9.30121Z" fill="#475161"/>
<path d="M10.8241 3.35425H3.81686V4.3181H10.8241V3.35425Z" fill="#475161"/>
<path d="M10.8241 6.93976H3.81686V7.90361H10.8241V6.93976Z" fill="#475161"/>
<path d="M10.8241 10.5253H3.81686V11.4892H10.8241V10.5253Z" fill="#475161"/>
</g>
<defs>
<clipPath id="clip0">
<rect width="24" height="24" fill="white"/>
</clipPath>
</defs>
</svg>
