<svg width="103" height="103" viewBox="0 0 103 103" fill="none" xmlns="http://www.w3.org/2000/svg">
<g clip-path="url(#clip0)">
<path d="M60.94 0H21.32C9.54 0 0 9.54 0 21.32V41.47C0 53.24 9.54 62.79 21.32 62.79L20.88 72.67C20.8 74.4 22.2 75.57 23.67 75.57C24.35 75.57 25.05 75.31 25.62 74.74L37.38 62.8H60.95C72.72 62.8 82.27 53.26 82.27 41.48V21.32C82.25 9.54 72.71 0 60.94 0Z" fill="#EDF1F7"/>
<path d="M89.68 48.54C86.71 61.43 75.18 71.05 61.39 71.05H43.05V77.98C43.05 86.42 49.89 93.27 58.34 93.27H75.24L83.68 101.83C84.09 102.24 84.59 102.43 85.08 102.43C86.13 102.43 87.13 101.59 87.08 100.35L86.76 93.27C95.2 93.27 102.05 86.43 102.05 77.98V63.53C102.05 56.09 96.72 49.9 89.68 48.54Z" fill="#EDF1F7"/>
</g>
<defs>
<clipPath id="clip0">
<rect width="102.05" height="102.43" fill="white"/>
</clipPath>
</defs>
</svg>
