<svg width="24" height="25" viewBox="0 0 24 25" fill="none" xmlns="http://www.w3.org/2000/svg">
<path d="M19.2992 15.6042V9.67708C19.2992 5.4375 16.028 2 11.9951 2C7.96227 2 4.69108 5.4375 4.69108 9.67708V15.6042C4.69108 16.6771 3.86107 17.5417 2.84554 17.5417C1.82024 17.5417 1 18.4062 1 19.4792C1 20.3229 1.64447 21 2.44518 21H21.5548C22.3555 21 23 20.3229 23 19.4792C23 18.4062 22.17 17.5417 21.1545 17.5417C20.1194 17.5521 19.2992 16.6771 19.2992 15.6042Z" fill="#6C5CE7" stroke="#6C5CE7" stroke-width="2" stroke-miterlimit="10"/>
<path d="M11.9941 24C10.885 24 10 23.3133 10 22.4729V21H14V22.4729C13.9882 23.3223 13.0914 24 11.9941 24Z" fill="#6C5CE7" stroke="#6C5CE7" stroke-width="2" stroke-miterlimit="10"/>
<circle cx="19" cy="5" r="4.5" fill="#D62400" stroke="white"/>
</svg>
