<svg width="24" height="24" viewBox="0 0 24 24" fill="none" xmlns="http://www.w3.org/2000/svg">
<path d="M19.2992 14.6042V8.67708C19.2992 4.4375 16.028 1 11.9951 1C7.96227 1 4.69108 4.4375 4.69108 8.67708V14.6042C4.69108 15.6771 3.86107 16.5417 2.84554 16.5417C1.82024 16.5417 1 17.4062 1 18.4792C1 19.3229 1.64447 20 2.44518 20H21.5548C22.3555 20 23 19.3229 23 18.4792C23 17.4062 22.17 16.5417 21.1545 16.5417C20.1194 16.5521 19.2992 15.6771 19.2992 14.6042Z" stroke="#697B9B" stroke-width="2" stroke-miterlimit="10"/>
<path d="M11.9941 23C10.885 23 10 22.3133 10 21.4729V20H14V21.4729C13.9882 22.3223 13.0914 23 11.9941 23Z" stroke="#697B9B" stroke-width="2" stroke-miterlimit="10"/>
</svg>
