<svg width="25" height="25" viewBox="0 0 25 25" fill="none" xmlns="http://www.w3.org/2000/svg">
<path d="M19.74 15.02V8.37C19.74 4.3 16.39 1 12.26 1C8.13 1 4.78 4.3 4.78 8.37V15.02C4.78 16.05 3.93 16.88 2.89 16.88C1.84 16.88 1 17.71 1 18.74C1 19.55 1.66 20.2 2.48 20.2H22.05C22.87 20.2 23.53 19.55 23.53 18.74C23.53 17.71 22.68 16.88 21.64 16.88C20.58 16.89 19.74 16.05 19.74 15.02Z" fill="#6C5CE7" stroke="#6C5CE7" stroke-width="2" stroke-miterlimit="10"/>
<path d="M12.2601 23.56C11.3201 23.56 10.5701 22.8 10.5701 21.87V20.24H13.9601V21.87C13.9501 22.81 13.1901 23.56 12.2601 23.56Z" fill="#6C5CE7" stroke="#6C5CE7" stroke-width="2" stroke-miterlimit="10"/>
</svg>
