<svg width="100" height="100" viewBox="0 0 100 100" fill="none" xmlns="http://www.w3.org/2000/svg">
<path d="M49.9878 20C38.5694 20 29.2458 29.1214 29.2458 40.4477V56.6935C29.2458 57.8183 28.3045 58.7944 27.0689 58.7944C23.1839 58.7944 20 61.882 20 65.7813C20 69.1417 22.7421 71.791 26.066 71.791H43.4081V73.4284C43.4081 77.0402 46.3283 80 49.9878 80C53.609 80 56.5533 77.0841 56.5919 73.4544V71.791H73.934C77.2579 71.791 80 69.1417 80 65.7813C80 61.8736 76.7831 58.7943 72.9311 58.7943L72.908 58.7945C71.6629 58.8063 70.7297 57.8393 70.7297 56.6935V40.4477C70.7297 29.1214 61.4061 20 49.9878 20Z" fill="#EDF1F7"/>
</svg>
