<svg width="12" height="12" viewBox="0 0 12 12" fill="none" xmlns="http://www.w3.org/2000/svg">
<g clip-path="url(#clip0)">
<path d="M5.74282 -0.00014388C4.2579 1.69691 3.40937 3.50003 3.09117 5.19709C1.44715 5.78045 0.333452 7.31841 0.386485 9.17457C0.386485 9.49276 0.439518 9.864 0.492551 10.2352L3.1442 10.2352C3.40937 11.2429 3.6215 11.8793 3.6215 11.8793L7.97021 11.8793C7.97021 11.8793 8.23537 11.2959 8.4475 10.2352L11.0992 10.2352C11.2052 9.91703 11.2583 9.5458 11.2052 9.17457C11.2052 7.37144 10.0385 5.78045 8.4475 5.14406C8.02324 3.447 7.22774 1.69691 5.74282 -0.00014388Z" fill="#647696"/>
</g>
<defs>
<clipPath id="clip0">
<rect width="12" height="12" fill="white"/>
</clipPath>
</defs>
</svg>
