<svg width="12" height="13" viewBox="0 0 12 13" fill="none" xmlns="http://www.w3.org/2000/svg">
<g opacity="0.5">
<path fill-rule="evenodd" clip-rule="evenodd" d="M3.5 5.5C2.39543 5.5 1.5 6.39543 1.5 7.5V11C1.5 12.1046 2.39543 13 3.5 13H8.5C9.60457 13 10.5 12.1046 10.5 11V7.5C10.5 6.39543 9.60457 5.5 8.5 5.5H3.5ZM7 9C7 9.37014 6.7989 9.69331 6.5 9.86622V11C6.5 11.2761 6.27614 11.5 6 11.5C5.72386 11.5 5.5 11.2761 5.5 11V9.86622C5.2011 9.69331 5 9.37014 5 9C5 8.44772 5.44772 8 6 8C6.55228 8 7 8.44772 7 9Z" fill="#A9B6CB"/>
<path d="M4.74533 7.14755L3.85329 4.811C3.41008 3.65009 3.99189 2.34969 5.1528 1.90648V1.90648C6.31371 1.46326 7.61411 2.04508 8.05733 3.20599V3.20599" stroke="#A9B6CB" stroke-width="1.5"/>
</g>
</svg>
