<svg width="12" height="12" viewBox="0 0 12 12" fill="none" xmlns="http://www.w3.org/2000/svg">
<path fill-rule="evenodd" clip-rule="evenodd" d="M3.5 4.5C2.39543 4.5 1.5 5.39543 1.5 6.5V10C1.5 11.1046 2.39543 12 3.5 12H8.5C9.60457 12 10.5 11.1046 10.5 10V6.5C10.5 5.39543 9.60457 4.5 8.5 4.5H3.5ZM7 8C7 8.37014 6.7989 8.69331 6.5 8.86622V10C6.5 10.2761 6.27614 10.5 6 10.5C5.72386 10.5 5.5 10.2761 5.5 10V8.86622C5.2011 8.69331 5 8.37014 5 8C5 7.44772 5.44772 7 6 7C6.55228 7 7 7.44772 7 8Z" fill="#6C5CE7"/>
<path d="M3.75 5.50104V3C3.75 1.75736 4.75736 0.75 6 0.75V0.75C7.24264 0.75 8.25 1.75736 8.25 3V3" stroke="#6C5CE7" stroke-width="1.5"/>
</svg>
