<svg width="384" height="309" viewBox="0 0 384 309" fill="none" xmlns="http://www.w3.org/2000/svg">
<g clip-path="url(#clip0)">
<path opacity="0.1" d="M197.532 309.004C293.372 309.004 371.065 239.831 371.065 154.502C371.065 69.1728 293.372 0 197.532 0C101.692 0 23.998 69.1728 23.998 154.502C23.998 239.831 101.692 309.004 197.532 309.004Z" fill="#6C63FF"/>
<path opacity="0.1" d="M63.9851 243.428C99.3231 243.428 127.97 238.998 127.97 233.534C127.97 228.07 99.3231 223.64 63.9851 223.64C28.6471 223.64 0 228.07 0 233.534C0 238.998 28.6471 243.428 63.9851 243.428Z" fill="#6C63FF"/>
<path opacity="0.1" d="M94.7388 290.563C108.484 290.563 119.626 288.267 119.626 285.434C119.626 282.602 108.484 280.306 94.7388 280.306C80.994 280.306 69.8516 282.602 69.8516 285.434C69.8516 288.267 80.994 290.563 94.7388 290.563Z" fill="#6C63FF"/>
<path opacity="0.1" d="M264.794 270.831C278.539 270.831 289.681 268.535 289.681 265.702C289.681 262.869 278.539 260.573 264.794 260.573C251.049 260.573 239.907 262.869 239.907 265.702C239.907 268.535 251.049 270.831 264.794 270.831Z" fill="#6C63FF"/>
<path opacity="0.1" d="M180.345 266.526C202.696 266.526 220.816 263.464 220.816 259.687C220.816 255.909 202.696 252.847 180.345 252.847C157.994 252.847 139.875 255.909 139.875 259.687C139.875 263.464 157.994 266.526 180.345 266.526Z" fill="#6C63FF"/>
<path opacity="0.1" d="M299.592 239.019C346.211 239.019 384.004 233.114 384.004 225.83C384.004 218.546 346.211 212.641 299.592 212.641C252.972 212.641 215.18 218.546 215.18 225.83C215.18 233.114 252.972 239.019 299.592 239.019Z" fill="#6C63FF"/>
<path d="M17.4956 202.81C15.5994 206.49 14.7138 210.605 14.9288 214.737C15.1438 218.869 16.4516 222.87 18.7195 226.335C19.4635 227.448 20.148 228.25 20.6948 228.461C23.3175 229.489 28.5702 232.016 28.5702 232.016L41.2184 227.058C41.2184 227.058 43.2719 216.222 45.2138 206.918C46.5381 200.572 47.8178 194.942 48.3423 193.955C49.6518 191.524 48.3423 165.06 48.3423 165.06C48.3423 165.06 35.6941 164.214 32.2159 173.941L30.6944 176.91L17.4956 202.81Z" fill="#A8A8A8"/>
<path opacity="0.1" d="M34.2878 205.734C41.9771 214.526 45.221 206.921 45.221 206.921C46.5454 200.575 47.8251 194.946 48.3496 193.958C49.6591 191.528 48.3496 165.064 48.3496 165.064C48.3496 165.064 35.7014 164.217 32.2231 173.944L30.7016 176.913C29.727 184.695 28.7635 199.406 34.2878 205.734Z" fill="white"/>
<path d="M35.9768 230.239L80.6176 225.095L88.5823 172.813L82.5595 159.234C80.015 153.451 76.4914 148.148 72.1433 143.558C69.1114 140.37 65.4472 137.305 61.5932 135.764C61.0665 135.553 60.5288 135.369 59.9824 135.215C59.3543 135.025 58.6899 134.985 58.0435 135.099C57.3971 135.213 56.7868 135.478 56.2623 135.872C50.7566 139.765 48.7887 156.317 48.1526 164.285C47.8909 167.559 47.4475 170.816 46.8245 174.041L35.9768 230.239Z" fill="#A8A8A8"/>
<path opacity="0.1" d="M65.6964 172.248L56.3962 195.072C61.2695 191.517 68.4902 172.156 68.4902 172.156L74.9594 194.229L69.8033 170.964C70.5582 165.912 70.7776 160.795 70.4581 155.697C70.0489 149.855 64.5543 140.481 61.5708 135.761C61.0442 135.549 60.5065 135.365 59.9601 135.211C59.3319 135.021 58.6676 134.981 58.0212 135.095C57.3748 135.21 56.7645 135.474 56.24 135.868C58.5836 140.563 64.4427 152.301 66.2284 155.79C68.4939 160.184 65.6964 172.248 65.6964 172.248Z" fill="white"/>
<path d="M73.2891 232.016H97.5104C98.5067 232.016 99.4927 231.814 100.408 231.423C101.324 231.031 102.15 230.457 102.837 229.737C103.523 229.017 104.056 228.165 104.402 227.233C104.748 226.301 104.901 225.308 104.85 224.316C104.314 213.954 102.957 195.48 99.7276 183.753C97.9829 177.425 95.9554 174.104 94.0954 172.467C93.2232 171.628 92.097 171.099 90.8924 170.964C89.9786 170.886 89.0641 171.107 88.2884 171.595C83.7908 175.896 78.5381 198.531 78.5381 198.531L73.2891 232.016Z" fill="#A8A8A8"/>
<path opacity="0.1" d="M95.6503 211.943C96.6472 214.7 97.0416 217.88 95.6503 220.979L90.2524 223.64C90.2524 223.64 75.7442 217.506 77.5075 204.932C77.5075 204.932 77.9837 202.335 82.9797 202.535C85.7895 202.67 88.4951 203.638 90.7517 205.313C93.0083 206.989 94.7136 209.297 95.6503 211.943Z" fill="white"/>
<path opacity="0.1" d="M89.8842 178.891C89.7168 174.482 92.1162 172.954 94.099 172.467C93.2268 171.628 92.1007 171.099 90.896 170.964C89.5159 172.117 88.5377 173.676 88.1023 175.418L83.043 200.019C83.043 200.019 90.1669 186.28 89.8842 178.891Z" fill="white"/>
<path d="M66.9165 198.345L78.91 214.711L80.9895 228.22L73.2815 232.016L62.1697 234.466C61.0995 234.703 59.9991 234.774 58.9072 234.677L28.585 232.016L32.7105 222.475L46.9584 202.52L66.9165 198.345Z" fill="#A8A8A8"/>
<path opacity="0.1" d="M62.2738 192.726C62.2738 192.726 70.4579 193.287 67.3852 207.315C64.3124 221.343 32.6956 222.467 32.6956 222.467C32.6956 222.467 39.414 210.592 49.7483 202.082C50.909 201.128 52.0287 200.134 53.0964 199.072C55.4735 196.701 60.0194 192.533 62.2738 192.726Z" fill="white"/>
<path opacity="0.1" d="M69.636 203.303C69.636 203.303 80.7255 213.372 79.6802 228.866L69.636 203.303Z" fill="black"/>
<path opacity="0.1" d="M88.292 171.595C88.292 171.595 76.6556 187.034 75.3499 210.788L88.292 171.595Z" fill="black"/>
<path opacity="0.1" d="M48.3535 165.053C48.3535 165.053 53.9857 190.567 39.9238 209.798L48.3535 165.053Z" fill="black"/>
<path d="M150.934 259.545H211.623C212.21 259.542 212.786 259.388 213.295 259.097C213.804 258.806 214.229 258.389 214.529 257.885C214.828 257.382 214.992 256.81 215.005 256.225C215.017 255.64 214.877 255.062 214.6 254.546L184.27 198.33C183.979 197.791 183.548 197.341 183.021 197.027C182.494 196.713 181.892 196.547 181.279 196.547C180.665 196.547 180.063 196.713 179.537 197.027C179.01 197.341 178.579 197.791 178.288 198.33L147.943 254.546C147.665 255.063 147.525 255.643 147.538 256.229C147.552 256.815 147.717 257.388 148.018 257.892C148.319 258.395 148.746 258.812 149.258 259.102C149.769 259.392 150.346 259.545 150.934 259.545ZM185.14 249.273H177.417V241.572H185.14V249.273ZM185.14 236.436H177.417V221.031H185.14V236.436Z" fill="#464353"/>
<path opacity="0.1" d="M150.934 259.545H211.623C212.21 259.542 212.786 259.388 213.295 259.097C213.804 258.806 214.229 258.389 214.529 257.885C214.828 257.382 214.992 256.81 215.005 256.225C215.017 255.64 214.877 255.062 214.6 254.546L184.27 198.33C183.979 197.791 183.548 197.341 183.021 197.027C182.494 196.713 181.892 196.547 181.279 196.547C180.665 196.547 180.063 196.713 179.537 197.027C179.01 197.341 178.579 197.791 178.288 198.33L147.943 254.546C147.665 255.063 147.525 255.643 147.538 256.229C147.552 256.815 147.717 257.388 148.018 257.892C148.319 258.395 148.746 258.812 149.258 259.102C149.769 259.392 150.346 259.545 150.934 259.545ZM185.14 249.273H177.417V241.572H185.14V249.273ZM185.14 236.436H177.417V221.031H185.14V236.436Z" fill="black"/>
<path d="M150.934 261.401H211.623C212.21 261.398 212.786 261.244 213.295 260.953C213.804 260.662 214.229 260.245 214.529 259.741C214.828 259.238 214.992 258.666 215.005 258.081C215.017 257.496 214.877 256.918 214.6 256.402L184.27 200.186C183.979 199.647 183.548 199.197 183.021 198.883C182.494 198.569 181.892 198.403 181.279 198.403C180.665 198.403 180.063 198.569 179.537 198.883C179.01 199.197 178.579 199.647 178.288 200.186L147.943 256.402C147.665 256.919 147.525 257.499 147.538 258.085C147.552 258.671 147.717 259.244 148.018 259.748C148.319 260.251 148.746 260.668 149.258 260.958C149.769 261.248 150.346 261.401 150.934 261.401ZM185.14 251.129H177.417V243.428H185.14V251.129ZM185.14 238.292H177.417V222.887H185.14V238.292Z" fill="#464353"/>
<path d="M86.9787 87.8497C86.9378 88.6254 87.3247 89.3342 87.5516 90.0764C87.927 91.5099 87.8896 93.02 87.4437 94.4333C87.0271 95.9177 86.3277 97.4875 86.8597 98.9386C86.9824 99.28 87.1684 99.5917 87.28 99.9332C87.7413 101.343 86.8857 102.828 85.9482 103.982L89.6274 106.554C90.1646 106.998 90.8036 107.303 91.4874 107.441C92.1756 107.522 92.9754 107.155 93.1168 106.48C93.1652 106.25 93.1168 106.008 93.1614 105.774C93.2067 105.472 93.3239 105.185 93.5032 104.937C93.6824 104.689 93.9186 104.488 94.1919 104.349C94.7445 104.079 95.3608 103.965 95.9738 104.019C98.2319 104.142 100.151 105.622 102.205 106.572C103.559 107.157 104.962 107.622 106.397 107.96C107.212 108.172 108.116 108.365 108.853 107.96C109.589 107.556 109.928 106.617 109.872 105.767C109.758 104.922 109.493 104.104 109.091 103.351C108.685 102.599 108.44 101.772 108.373 100.92C108.373 99.6734 109.057 98.5378 109.288 97.3131C109.612 95.5726 108.953 93.8024 108.15 92.2214C107.346 90.6405 106.371 89.1189 105.981 87.397C105.903 86.875 105.767 86.3634 105.575 85.8717C105.389 85.4983 105.137 85.1614 104.831 84.8771C103.451 83.5151 101.483 82.8694 99.5562 82.7284C97.6293 82.5873 95.6837 82.9028 93.7715 83.2331C93.042 83.337 92.3235 83.5071 91.6251 83.7415C90.6269 84.1372 89.6792 84.6492 88.8015 85.2668C87.931 85.868 87.0345 86.7475 86.9787 87.8497Z" fill="#464353"/>
<g opacity="0.1">
<path opacity="0.1" d="M108.362 100.16C108.362 100.271 108.362 100.382 108.384 100.49C108.499 99.4027 109.072 98.3822 109.277 97.2948C109.356 96.8591 109.38 96.4152 109.348 95.9736C109.348 96.1666 109.31 96.3447 109.277 96.5526C109.043 97.7772 108.347 98.9129 108.362 100.16Z" fill="black"/>
<path opacity="0.1" d="M87.801 91.5611C87.8448 90.8101 87.7605 90.0572 87.5517 89.3344C87.3316 88.7712 87.1513 88.1933 87.0123 87.605C87.0123 87.6829 86.9826 87.7571 86.9788 87.8351C86.9379 88.6107 87.3248 89.3195 87.5517 90.0617C87.6955 90.5496 87.7791 91.053 87.801 91.5611Z" fill="black"/>
<path opacity="0.1" d="M109.839 105.563C109.813 105.895 109.709 106.216 109.536 106.5C109.363 106.784 109.125 107.024 108.842 107.2C108.098 107.604 107.201 107.412 106.386 107.2C104.95 106.862 103.547 106.396 102.194 105.808C100.14 104.862 98.2209 103.381 95.9628 103.259C95.3498 103.204 94.7335 103.319 94.1809 103.589C93.9076 103.727 93.6714 103.929 93.4922 104.177C93.3129 104.425 93.1957 104.712 93.1505 105.014C93.1244 105.248 93.1505 105.489 93.1058 105.719C92.9607 106.395 92.1646 106.762 91.4764 106.68C90.7926 106.542 90.1536 106.238 89.6164 105.793L86.3093 103.478C86.1865 103.645 86.0637 103.808 85.9373 103.96L89.6164 106.536C90.1536 106.98 90.7926 107.285 91.4764 107.423C92.1646 107.504 92.9645 107.137 93.1058 106.461C93.1542 106.231 93.1058 105.99 93.1505 105.756C93.1957 105.454 93.3129 105.167 93.4922 104.919C93.6714 104.671 93.9076 104.47 94.1809 104.331C94.7335 104.061 95.3498 103.947 95.9628 104.001C98.2209 104.123 100.14 105.604 102.194 106.551C103.547 107.138 104.95 107.604 106.386 107.942C107.201 108.154 108.105 108.347 108.842 107.942C109.578 107.538 109.917 106.599 109.861 105.749C109.857 105.686 109.846 105.626 109.839 105.563Z" fill="black"/>
<path opacity="0.1" d="M87.2802 99.9147C87.3261 100.064 87.3597 100.217 87.3807 100.371C87.4383 99.9691 87.404 99.5593 87.2802 99.1725C87.1686 98.831 86.9826 98.5193 86.8599 98.1779C86.7704 97.9301 86.7129 97.6719 86.6887 97.4097C86.6338 97.9196 86.6922 98.4353 86.8599 98.9201C86.9826 99.2615 87.1686 99.577 87.2802 99.9147Z" fill="black"/>
</g>
<path d="M91.6476 240.734C91.6221 240.839 91.5618 240.934 91.4765 241.001C91.386 241.048 91.2844 241.07 91.1826 241.064C89.8582 241.094 88.5339 241.064 87.2133 241.157C85.9633 241.265 84.7097 241.528 83.4635 241.387C83.0648 241.401 82.6716 241.291 82.3383 241.072C82.0051 240.854 81.7482 240.537 81.6034 240.166C81.5248 240.004 81.4553 239.838 81.3951 239.669C81.0518 238.794 80.8788 237.862 80.8855 236.923C80.8855 236.674 80.8855 236.433 80.8855 236.18C80.8692 235.908 80.8331 235.638 80.7776 235.371C80.6647 235.066 80.6781 234.728 80.8148 234.432C81.343 233.471 82.619 233.278 83.6011 233.204C85.8763 233.033 88.1644 233.201 90.3902 233.701C90.5651 234.555 90.7622 235.401 90.9706 236.247C91.1243 236.868 91.288 237.487 91.4616 238.103C91.5781 238.484 91.6725 238.872 91.7443 239.264C91.8363 239.754 91.8031 240.26 91.6476 240.734Z" fill="#464353"/>
<path opacity="0.06" d="M91.6475 240.734C91.622 240.839 91.5618 240.933 91.4764 241.001C91.3859 241.048 91.2844 241.069 91.1825 241.064C89.8582 241.094 88.5338 241.064 87.2132 241.157C85.9633 241.264 84.7096 241.528 83.4634 241.387C83.0647 241.401 82.6715 241.291 82.3382 241.072C82.005 240.853 81.7482 240.537 81.6033 240.166C81.5247 240.004 81.4552 239.838 81.395 239.668H81.8712C83.4373 239.668 85.0072 239.613 86.5734 239.613C87.0458 239.613 87.522 239.591 87.9907 239.535C88.4594 239.479 88.8426 239.401 89.2704 239.349C89.9108 239.288 90.5541 239.262 91.1974 239.271H91.7257C91.8224 239.758 91.7955 240.26 91.6475 240.734Z" fill="black"/>
<path d="M119.046 233.842C118.631 234.325 118.102 234.697 117.506 234.922C114.857 236.036 111.795 235.535 109.061 234.629C108.45 234.402 107.822 234.223 107.183 234.091C106.6 234.009 106.012 233.968 105.423 233.968C105.003 233.968 104.582 233.935 104.162 233.909C103.098 233.842 102.038 233.738 100.981 233.634C100.245 233.581 99.5134 233.47 98.7938 233.304C98.5892 233.252 98.3927 233.172 98.2098 233.067C98.0537 232.998 97.9203 232.887 97.8255 232.746C97.7306 232.604 97.6781 232.439 97.6741 232.269C97.7038 231.797 98.1949 231.527 98.6264 231.322C102.454 229.671 106.613 228.955 110.743 228.38C111.163 228.31 111.572 228.185 111.959 228.008C112.424 227.823 112.472 228.127 112.703 228.469C112.812 228.627 112.937 228.773 113.075 228.907C113.524 229.311 114.05 229.619 114.623 229.812C115.627 230.183 116.702 230.283 117.707 230.636C118.01 230.741 118.301 230.881 118.573 231.052C118.814 231.182 119.021 231.366 119.179 231.588C119.337 231.811 119.442 232.067 119.486 232.336C119.53 232.605 119.511 232.881 119.432 233.142C119.352 233.403 119.214 233.643 119.027 233.842H119.046Z" fill="#464353"/>
<path opacity="0.06" d="M119.046 233.842C118.631 234.325 118.102 234.696 117.506 234.922C114.857 236.035 111.795 235.534 109.061 234.629C108.45 234.402 107.822 234.222 107.183 234.091C106.6 234.009 106.012 233.968 105.423 233.968C105.003 233.968 104.582 233.935 104.162 233.909C104.504 233.586 104.854 233.271 105.211 232.966C105.47 232.725 105.768 232.529 106.093 232.387C106.497 232.255 106.928 232.226 107.346 232.302C109.474 232.595 111.386 234.083 113.533 233.953C114.533 233.839 115.5 233.527 116.379 233.037C117.093 232.746 117.73 232.294 118.239 231.716C118.392 231.516 118.509 231.291 118.585 231.051C118.825 231.182 119.032 231.365 119.19 231.588C119.348 231.811 119.453 232.066 119.497 232.336C119.541 232.605 119.522 232.881 119.443 233.142C119.363 233.403 119.225 233.642 119.038 233.842H119.046Z" fill="black"/>
<path d="M118.298 169.347C117.926 170.089 117.45 170.894 116.646 171.124C115.478 171.458 114.355 170.412 113.845 169.313C113.15 167.701 113.019 165.902 113.473 164.207C113.685 163.349 114.009 162.525 114.191 161.664C114.323 160.94 114.402 160.207 114.429 159.471C114.539 158.374 114.513 157.267 114.351 156.176C113.752 152.988 111.003 150.609 110.088 147.477C109.627 145.914 109.649 144.252 109.675 142.623C109.666 142.211 109.709 141.799 109.801 141.398C109.829 141.289 109.866 141.182 109.913 141.079C110.527 139.721 112.346 139.535 113.611 138.745C114.31 138.31 115.899 136.911 116.486 138.188C116.613 138.472 116.708 138.77 116.769 139.075C117.011 140.21 116.914 141.543 116.974 142.615C117.201 146.668 118.212 150.713 117.744 154.743C117.632 155.43 117.577 156.125 117.58 156.821C117.68 158.566 118.774 160.076 119.276 161.746C120.05 164.259 119.429 166.994 118.298 169.347Z" fill="#FBBEBE"/>
<path opacity="0.1" d="M116.788 139.082C116.511 138.982 116.209 138.982 115.932 139.082L113.414 139.824C112.531 140.059 111.671 140.371 110.843 140.756C110.482 140.933 110.139 141.145 109.82 141.39C109.848 141.281 109.885 141.174 109.932 141.071C110.545 139.713 112.365 139.527 113.629 138.737C114.329 138.303 115.917 136.903 116.505 138.18C116.633 138.469 116.728 138.772 116.788 139.082Z" fill="black"/>
<path d="M116.951 138.8C116.8 138.708 116.629 138.653 116.452 138.639C116.275 138.625 116.097 138.652 115.932 138.718L113.414 139.461C112.531 139.695 111.671 140.007 110.843 140.392C110.404 140.605 109.993 140.872 109.619 141.186C108.444 139.149 108.131 136.733 107.915 134.395C107.796 133.033 107.707 131.667 107.655 130.313C107.597 129.338 107.617 128.36 107.715 127.388C107.856 126.275 108.18 125.188 108.38 124.082C108.5 123.434 108.577 122.78 108.611 122.122C108.708 120.686 108.641 119.243 108.414 117.821C108.198 116.31 107.852 114.82 107.38 113.368C107.142 112.703 106.855 112.061 106.595 111.408L106.506 111.178C106.035 109.981 105.651 108.752 105.356 107.5C105.237 106.988 105.23 106.45 104.835 106.101C105.205 106.057 105.579 106.042 105.951 106.057C106.026 106.057 106.1 106.057 106.174 106.057C107.703 106.153 109.175 106.666 110.43 107.541C112.047 108.705 113.275 110.326 113.957 112.195C114.742 114.284 114.872 116.556 114.972 118.786C115.173 123.17 115.297 127.557 115.344 131.946C115.344 132.788 115.382 133.686 115.865 134.38C116.001 134.551 116.125 134.731 116.237 134.918C116.412 135.289 116.386 135.701 116.527 136.076C116.631 136.301 116.749 136.519 116.881 136.729C117.047 137.047 117.14 137.398 117.152 137.757C117.165 138.115 117.096 138.472 116.951 138.8Z" fill="#464353"/>
<path d="M92.1907 95.2388C91.8187 95.1163 91.4467 94.9864 91.0747 94.8677L91.8485 94.9271C91.9775 95.0134 92.0928 95.1185 92.1907 95.2388Z" fill="#FBBEBE"/>
<path d="M107.424 108.632C107.35 108.885 107.276 109.137 107.194 109.374C107.005 109.984 106.775 110.581 106.506 111.159C106.084 112.11 105.487 112.974 104.746 113.705C104.501 113.962 104.201 114.16 103.868 114.284C103.586 114.356 103.295 114.384 103.005 114.366C102.013 114.366 101.021 114.351 100.029 114.321C99.2566 114.33 98.4857 114.254 97.7299 114.095C96.8981 113.869 96.1072 113.513 95.3863 113.041C92.6074 111.326 90.3233 108.714 89.3449 105.619C89.2221 105.225 89.1366 104.754 89.4081 104.446C89.6754 104.228 90.012 104.114 90.3567 104.123H90.4014C91.2012 104.019 91.9717 103.755 92.6669 103.348C93.1172 103.118 93.4803 102.748 93.7011 102.294C93.8518 101.755 93.8401 101.185 93.6676 100.653L92.8418 96.9124C92.7557 96.3133 92.5302 95.7426 92.1833 95.2461C92.4251 95.3314 92.6669 95.4094 92.9273 95.4762C95.2263 96.096 97.7411 95.7211 99.9954 96.5339C100.858 96.8493 101.722 97.4171 101.982 98.3004C102.417 99.7848 100.963 101.325 101.379 102.809C101.658 103.819 102.689 104.401 103.611 104.873L104.233 105.188L105.955 106.06L106.193 106.179L106.23 106.198C106.773 106.472 107.346 106.814 107.536 107.396C107.617 107.811 107.578 108.239 107.424 108.632Z" fill="#FBBEBE"/>
<path opacity="0.1" d="M111.963 117.346C111.9 118.295 111.668 119.225 111.278 120.092C110.532 121.593 110.131 123.242 110.107 124.917C109.82 129.927 107.912 135.891 110.646 140.099C110.713 140.203 110.78 140.307 110.843 140.415C110.404 140.628 109.993 140.895 109.619 141.209C108.444 139.171 108.131 136.755 107.915 134.417C107.796 133.055 107.707 131.69 107.655 130.335C107.597 129.36 107.617 128.382 107.715 127.411C107.856 126.297 108.18 125.21 108.38 124.104C108.5 123.457 108.577 122.802 108.611 122.145C108.708 120.708 108.641 119.265 108.414 117.843C108.198 116.332 107.852 114.842 107.38 113.39C107.142 112.726 106.855 112.084 106.595 111.431L106.506 111.201C106.084 112.152 105.487 113.015 104.746 113.746C104.501 114.003 104.201 114.201 103.868 114.325C103.586 114.397 103.295 114.425 103.005 114.407C102.013 114.407 101.021 114.392 100.029 114.362C99.2566 114.371 98.4857 114.295 97.7299 114.136C96.8981 113.91 96.1072 113.554 95.3863 113.082C92.6074 111.368 90.3233 108.755 89.3449 105.66C89.2221 105.266 89.1366 104.795 89.4081 104.487C89.6754 104.27 90.012 104.155 90.3567 104.164H90.4014L93.7495 108.295C94.1334 108.732 94.4586 109.217 94.7167 109.738C94.7666 109.913 94.8708 110.068 95.0143 110.18C95.1307 110.233 95.2586 110.256 95.3863 110.247C98.5297 110.247 102.719 110.247 105.862 110.247C105.872 109.691 105.711 109.146 105.401 108.684C105.304 108.707 105.174 108.714 105.375 108.655C105.193 107.45 104.803 106.286 104.221 105.214C104.187 105.141 104.148 105.069 104.106 104.999C103.856 104.632 103.67 104.226 103.556 103.797C103.952 103.671 104.379 103.671 104.776 103.797C105.233 103.993 105.471 104.487 105.672 104.944C105.843 105.315 106.014 105.712 106.167 106.101C106.167 106.142 106.204 106.187 106.219 106.228C106.544 106.995 106.752 107.807 106.837 108.636C106.859 108.94 106.933 109.326 107.186 109.427C107.226 109.445 107.269 109.455 107.313 109.456C107.575 109.361 107.859 109.345 108.13 109.411C108.401 109.477 108.646 109.622 108.834 109.827C109.2 110.246 109.456 110.748 109.578 111.29C109.699 111.831 109.876 112.358 110.107 112.863C110.586 113.776 109.854 114.184 110.72 114.745C111.126 114.967 111.474 115.279 111.74 115.658C111.985 116.185 112.063 116.774 111.963 117.346Z" fill="black"/>
<path opacity="0.1" d="M90.3568 233.716C90.5316 234.569 90.7288 235.416 90.9371 236.262L90.9148 236.314C89.2147 235.571 87.4737 234.796 85.6174 234.633C83.895 234.484 82.0238 234.948 80.852 236.195C80.8357 235.923 80.7997 235.653 80.7441 235.386C80.6313 235.08 80.6447 234.743 80.7813 234.447C81.3096 233.486 82.5856 233.293 83.5677 233.219C85.8429 233.048 88.131 233.215 90.3568 233.716Z" fill="black"/>
<path opacity="0.1" d="M105.01 109.363C105.185 109.363 105.122 109.363 105.036 109.393C104.951 109.423 104.809 109.423 105.01 109.363Z" fill="black"/>
<path opacity="0.1" d="M113.094 228.907C111.435 229.961 109.876 231.165 108.436 232.503C108.018 232.949 107.52 233.313 106.967 233.575C106.396 233.758 105.793 233.82 105.196 233.757C102.856 233.662 100.523 233.432 98.2098 233.067C98.0537 232.998 97.9203 232.887 97.8255 232.746C97.7306 232.604 97.6781 232.439 97.6741 232.269C97.7038 231.797 98.1949 231.527 98.6264 231.322C102.454 229.671 106.613 228.955 110.743 228.38C111.163 228.31 111.572 228.185 111.959 228.008C112.424 227.823 112.472 228.127 112.703 228.469C112.818 228.628 112.949 228.774 113.094 228.907Z" fill="black"/>
<path d="M85.7996 105.058C86.3465 105.544 86.9714 105.938 87.5257 106.409C89.0138 107.667 89.9512 109.426 90.8738 111.141C90.3267 111.338 89.735 111.378 89.1663 111.256C88.8738 112.902 88.9231 114.591 89.3114 116.218C88.567 116.727 87.9888 117.443 87.6485 118.277C87.384 119.124 87.2021 119.994 87.1054 120.875C86.5697 124.737 86.0315 128.599 85.4908 132.461C85.48 132.839 85.3498 133.204 85.1188 133.504C85.0156 133.587 84.9209 133.681 84.8361 133.782C84.7223 134.032 84.6773 134.308 84.7059 134.58C84.6836 134.851 84.505 135.174 84.2335 135.137C84.1015 135.106 83.9845 135.029 83.9024 134.922C83.6307 134.635 83.382 134.327 83.1584 134.001C80.9635 138.202 79.907 142.73 78.7464 147.324C77.9168 150.598 77.0872 153.908 77.0463 157.285C77.0575 158.883 77.1581 160.479 77.3476 162.065L77.675 165.323C77.9391 167.943 78.2032 170.567 78.4897 173.187C78.6757 174.85 78.8617 176.527 79.4606 178.093C80.3534 180.472 79.3639 183.155 79.7433 185.671C80.0409 187.642 80.6324 189.68 80.0372 191.58C79.7991 192.34 79.3825 193.034 79.07 193.769C78.3037 195.595 78.2256 197.625 78.1586 199.603C78.0381 201.337 78.103 203.079 78.352 204.799C78.672 206.576 79.3899 208.317 79.2486 210.113C79.0514 212.67 77.1616 214.856 76.931 217.409C76.7487 219.447 77.6452 221.413 78.6087 223.221C79.3193 224.553 78.3297 226.275 77.954 227.741C77.21 230.613 78.4488 233.619 79.9666 236.169C80.0053 236.256 80.0738 236.327 80.16 236.369C80.3348 236.432 80.4911 236.262 80.6064 236.117C81.7485 234.655 83.7722 234.102 85.6285 234.261C87.4848 234.421 89.2221 235.185 90.9259 235.943L93.3402 230.58C93.7494 229.671 94.166 228.687 93.9614 227.711C93.8164 227.014 93.3662 226.423 93.0463 225.785C92.3023 224.278 92.2651 222.523 92.2576 220.834L92.213 211.297C94.0954 208.937 95.2449 206.131 95.9703 203.199C97.0832 207.323 97.1598 211.657 96.1935 215.817C96.0147 216.446 95.8902 217.089 95.8215 217.739C95.6764 220.385 97.7559 222.623 98.3102 225.214C98.3639 225.412 98.3791 225.618 98.3548 225.822C98.2924 226.073 98.1881 226.311 98.0461 226.527C97.0491 228.331 97.157 230.517 97.3021 232.573C99.9108 233.026 102.547 233.307 105.192 233.415C105.789 233.475 106.391 233.413 106.963 233.233C107.516 232.97 108.015 232.605 108.432 232.157C110.122 230.572 111.976 229.173 113.964 227.982C112.854 226.144 111.3 224.613 109.444 223.529C110.043 222.649 111.409 222.72 112.205 222.015C112.604 221.62 112.865 221.107 112.949 220.552C113.246 219.098 112.878 217.584 112.51 216.155C111.795 213.342 111.077 210.518 109.906 207.86C109.376 206.768 108.909 205.647 108.507 204.502C107.532 201.303 108.213 197.822 107.476 194.552C107.238 193.506 106.855 192.426 107.123 191.383C107.532 189.776 109.355 188.822 109.757 187.212C111.197 181.478 111.453 175.536 112.272 169.684C112.455 168.566 112.553 167.436 112.565 166.303C112.565 165.119 112.353 163.947 112.268 162.766C111.933 158.042 113.447 153.329 113.06 148.608C112.813 145.699 111.852 142.896 110.263 140.444C107.529 136.232 109.437 130.272 109.723 125.262C109.745 123.586 110.144 121.938 110.891 120.437C111.284 119.57 111.518 118.64 111.58 117.691C111.694 117.106 111.622 116.499 111.371 115.958C111.11 115.578 110.762 115.265 110.356 115.045C109.489 114.481 110.222 114.073 109.742 113.16C109.511 112.655 109.334 112.128 109.214 111.586C109.092 111.046 108.836 110.544 108.47 110.128C108.282 109.922 108.036 109.777 107.766 109.711C107.495 109.645 107.21 109.661 106.948 109.757C106.595 109.757 106.498 109.289 106.468 108.936C106.368 107.645 105.832 106.431 105.308 105.244C105.107 104.787 104.869 104.294 104.411 104.097C104.013 103.973 103.586 103.973 103.187 104.097C103.302 104.527 103.49 104.935 103.741 105.303C104.386 106.432 104.815 107.67 105.006 108.955C104.634 109.066 105.378 108.955 105.006 108.955C105.339 109.418 105.511 109.977 105.494 110.547C102.354 110.547 98.1651 110.547 95.0217 110.547C94.894 110.557 94.7658 110.534 94.6496 110.48C94.5063 110.367 94.4011 110.213 94.3483 110.039C94.0925 109.517 93.7672 109.033 93.3811 108.599L89.6982 104.067C89.6165 103.949 89.5082 103.851 89.382 103.782C89.23 103.739 89.0691 103.739 88.917 103.782C87.7229 103.956 86.8412 104.453 85.7996 105.058Z" fill="#6C5CE7"/>
<path opacity="0.1" d="M99.0169 166.455C99.6518 166.447 100.277 166.608 100.829 166.923C101.102 167.084 101.329 167.312 101.487 167.587C101.645 167.862 101.728 168.173 101.729 168.489C101.688 169.191 101.148 169.747 100.758 170.345C100.516 170.709 100.323 171.103 100.185 171.517C100.142 171.612 100.132 171.717 100.155 171.818C100.2 171.959 100.352 172.03 100.483 172.093C100.956 172.306 101.36 172.647 101.65 173.077C101.94 173.507 102.104 174.009 102.123 174.527C102.09 175.974 100.672 177.147 100.75 178.609C100.786 178.914 100.838 179.216 100.907 179.515C101.077 180.761 100.903 182.03 100.404 183.185C99.9543 184.35 99.3405 185.445 98.8569 186.599C97.5512 189.735 97.2684 193.209 97.3689 196.619C97.447 198.935 96.6249 201.14 95.8809 203.344C96.3013 198.904 96.4132 194.44 96.2157 189.984C96.1636 188.774 96.0111 187.631 96.0669 186.418C96.1561 184.492 97.235 182.74 97.5102 180.851C97.6665 179.771 97.5623 178.672 97.5884 177.581C97.6404 175.355 98.2468 173.158 98.2877 170.924C98.3398 169.346 98.1947 167.721 99.0169 166.455Z" fill="black"/>
<path d="M83.4933 105.853C82.7537 106.221 82.0616 106.677 81.4323 107.211C80.7748 107.863 80.2248 108.614 79.803 109.438C79.2892 110.371 78.8285 111.333 78.4228 112.318C77.8983 113.594 77.463 115.008 77.8239 116.341C78.1512 117.547 79.0775 118.486 79.7174 119.558C80.3572 120.631 80.733 121.889 81.224 123.065C81.8788 124.635 82.7753 126.097 83.4226 127.671C84.0699 129.244 84.4605 131.011 84.0513 132.647C83.9322 133.13 83.1473 133.505 83.1473 133.998C83.1473 134.815 84.3303 135.702 85.1152 135.939C86.0192 136.217 87.005 135.802 87.7453 135.197C89.1031 134.124 89.929 132.517 90.5391 130.899C91.5212 128.302 92.0457 125.544 92.5181 122.805C92.8604 120.794 93.1803 118.779 93.3626 116.752C93.53 114.927 93.5821 113.041 93.0985 111.29C92.6472 109.682 91.7694 108.225 90.5577 107.074C89.5904 106.146 88.0057 104.899 86.5995 104.866C85.4872 104.862 84.4456 105.33 83.4933 105.853Z" fill="#464353"/>
<path d="M94.0693 150.59C94.0289 150.844 93.9338 151.086 93.7906 151.299C93.6474 151.512 93.4594 151.692 93.2397 151.826C92.8007 152.092 92.3224 152.288 91.8224 152.405C90.8254 152.694 89.7689 152.962 88.7608 152.706C87.9685 152.448 87.2369 152.033 86.6106 151.485L75.3462 142.882C74.4413 142.242 73.6092 141.506 72.8649 140.685C72.4376 140.156 72.0449 139.599 71.6894 139.019C71.2186 138.355 70.85 137.624 70.5957 136.852C70.5048 136.511 70.4598 136.161 70.4617 135.809C70.4588 135.476 70.5407 135.148 70.6998 134.855C70.9714 134.402 71.5517 134.309 72.0279 134.183C73.6261 133.771 75.285 133.645 76.9272 133.812C77.0715 133.805 77.2141 133.845 77.3335 133.926C77.453 134.007 77.5428 134.125 77.5894 134.261C77.8386 134.718 78.0544 135.193 78.2776 135.668C78.6202 136.478 79.0666 137.24 79.6057 137.935C80.1251 138.498 80.6779 139.03 81.2611 139.527C82.4515 140.641 83.4262 141.977 84.6947 143.001C86.1641 144.185 87.9498 144.894 89.6238 145.766C91.2978 146.638 92.9495 147.77 93.7903 149.458C93.9853 149.803 94.0818 150.195 94.0693 150.59Z" fill="#FBBEBE"/>
<path opacity="0.1" d="M107.108 90.5738C107.108 92.9169 106.212 95.1716 104.601 96.8769C102.99 98.5822 100.788 99.6093 98.443 99.7482C96.0985 99.887 93.7893 99.1271 91.9877 97.6239C90.1862 96.1207 89.0283 93.9876 88.7508 91.661C88.4733 89.3344 89.0973 86.9899 90.4951 85.107C91.8929 83.224 93.9589 81.9449 96.2706 81.5312C98.5824 81.1174 100.965 81.6003 102.932 82.881C104.899 84.1618 106.301 86.1436 106.851 88.4214C107.022 89.1262 107.108 89.8487 107.108 90.5738Z" fill="black"/>
<path d="M107.108 90.2027C107.108 92.5458 106.212 94.8005 104.601 96.5058C102.99 98.2111 100.788 99.2382 98.443 99.377C96.0985 99.5159 93.7893 98.756 91.9877 97.2528C90.1862 95.7495 89.0283 93.6165 88.7508 91.2899C88.4733 88.9633 89.0973 86.6188 90.4951 84.7359C91.8929 82.8529 93.9589 81.5738 96.2706 81.1601C98.5824 80.7463 100.965 81.2292 102.932 82.5099C104.899 83.7907 106.301 85.7725 106.851 88.0503C107.022 88.7551 107.108 89.4776 107.108 90.2027Z" fill="#FBBEBE"/>
<path opacity="0.1" d="M78.2776 135.653C77.8535 135.924 77.2248 135.835 76.7003 135.716C74.6319 135.256 72.3478 134.926 70.4617 135.809C70.4588 135.476 70.5407 135.148 70.6998 134.855C70.9714 134.402 71.5517 134.309 72.0279 134.183C73.6261 133.771 75.285 133.645 76.9272 133.812C77.0715 133.805 77.2141 133.845 77.3335 133.926C77.453 134.007 77.5428 134.125 77.5894 134.261C77.8386 134.703 78.0544 135.178 78.2776 135.653Z" fill="black"/>
<path d="M74.3901 123.158C73.9326 124.642 73.5568 126.167 72.6603 127.426C72.3639 127.756 72.1408 128.146 72.0056 128.569C71.9954 128.881 71.9441 129.19 71.853 129.489C71.7265 129.741 71.4587 129.908 71.3508 130.168C71.1909 130.539 71.3992 131.018 71.1871 131.367C71.0879 131.507 70.9688 131.632 70.8337 131.738C70.3278 132.205 70.2013 132.951 70.1902 133.642C70.179 134.332 70.246 135.037 70.019 135.687C71.9832 134.518 74.4831 134.866 76.7152 135.364C77.3364 135.501 78.1065 135.605 78.5082 135.108C78.91 134.61 78.6794 133.957 78.7352 133.36C78.8096 132.58 79.3452 131.935 79.6763 131.226C80.0483 130.428 80.1748 129.537 80.4613 128.706C81.0528 126.958 82.3213 125.533 83.136 123.881C83.4376 123.313 83.6175 122.689 83.6642 122.048C83.6361 121.217 83.4186 120.404 83.0281 119.669C82.2539 117.959 81.3329 116.319 80.2753 114.767C79.8028 114.073 78.9881 112.789 78.2553 113.898C77.66 114.793 77.288 115.932 76.8491 116.912C75.9031 118.942 75.0819 121.028 74.3901 123.158Z" fill="#464353"/>
<path d="M107.956 108.751C106.839 108.828 105.719 108.655 104.678 108.245C103.637 107.834 102.7 107.197 101.937 106.38C101.809 106.263 101.716 106.113 101.669 105.946C101.648 105.728 101.709 105.511 101.841 105.337C102.287 104.65 103.057 104.198 103.414 103.459C103.771 102.721 103.648 101.871 103.682 101.062C103.741 99.6106 104.314 98.1744 104.363 96.7456C104.38 96.38 104.352 96.0136 104.281 95.6545C104.11 95.1214 104.005 94.5692 103.968 94.0105C104.017 92.9232 104.999 92.077 105.163 91.0045C105.375 89.6388 104.24 88.4512 103.098 87.6645C102.227 87.062 101.282 86.5742 100.286 86.2134C99.6736 85.9948 99.0401 85.8418 98.3957 85.757C97.1944 85.595 95.9715 85.7314 94.8356 86.154C94.3655 86.331 93.9203 86.568 93.5113 86.8592C93.2676 87.0129 93.0648 87.2229 92.9198 87.4715C92.8006 87.7514 92.7471 88.0548 92.7635 88.3585C92.7412 89.8763 92.9124 91.4907 92.1869 92.8118C91.8149 93.5206 91.1825 94.0959 90.8738 94.8455C90.7474 95.1574 90.6684 95.4864 90.6394 95.8216C90.6022 96.1692 90.5835 96.5185 90.5836 96.8681C90.5613 98.8239 90.5836 100.887 91.5806 102.583C91.9324 103.096 92.2517 103.63 92.5366 104.183C92.6748 104.462 92.7388 104.772 92.7225 105.084C92.7062 105.395 92.6102 105.697 92.4436 105.96C92.2422 106.201 91.9875 106.392 91.6996 106.517C90.961 106.871 90.1572 107.068 89.3385 107.098C88.5198 107.127 87.7038 106.987 86.9417 106.688C87.8329 105.845 88.4451 104.751 88.6964 103.552C88.9477 102.353 88.8261 101.106 88.3478 99.978C88.0791 99.5223 87.9045 99.0176 87.8345 98.4936C87.8718 98.0215 87.998 97.5607 88.2065 97.1353C88.7164 95.7407 88.7954 94.2257 88.4334 92.7858C88.2065 91.9026 87.8121 91.049 87.7415 90.1398C87.6824 89.4535 87.7124 88.7625 87.8308 88.0838C88.0346 86.8697 88.5709 85.7353 89.3803 84.806C90.1897 83.8767 91.2408 83.1886 92.4176 82.8177C92.6073 82.7547 92.7896 82.6953 92.9979 82.6433C93.9004 82.4434 94.8226 82.3451 95.747 82.3501C97.8117 82.2833 99.9061 82.224 101.896 82.7621C103.065 83.0673 104.152 83.6247 105.081 84.395C105.74 84.948 106.266 85.6417 106.621 86.425C106.814 86.8762 106.96 87.3463 107.056 87.8278C107.142 88.2249 107.205 88.6257 107.268 89.0265C107.718 91.8803 108.168 94.7899 107.688 97.64C107.499 98.7533 107.168 99.8667 107.019 101.002C106.658 103.619 107.309 106.22 107.956 108.751Z" fill="#464353"/>
<path d="M94.7388 112.418C95.121 112.418 95.4307 112.109 95.4307 111.727C95.4307 111.346 95.121 111.037 94.7388 111.037C94.3567 111.037 94.0469 111.346 94.0469 111.727C94.0469 112.109 94.3567 112.418 94.7388 112.418Z" fill="white"/>
<path d="M106.416 112.091C106.798 112.091 107.108 111.782 107.108 111.401C107.108 111.019 106.798 110.71 106.416 110.71C106.034 110.71 105.724 111.019 105.724 111.401C105.724 111.782 106.034 112.091 106.416 112.091Z" fill="white"/>
<path opacity="0.1" d="M94.739 76.8427L93.251 74.0408C93.3453 73.9288 93.4486 73.8245 93.5597 73.7291C93.7746 73.597 94.0263 73.5372 94.2777 73.5584L94.739 76.8427Z" fill="black"/>
<path opacity="0.1" d="M98.8422 73.4286L97.157 75.9151L96.1973 73.1874C96.6068 73.0119 97.05 72.9283 97.4956 72.9425C97.9685 73.0286 98.4236 73.1929 98.8422 73.4286Z" fill="black"/>
<g opacity="0.1">
<path opacity="0.1" d="M92.4436 105.225C92.2422 105.466 91.9875 105.657 91.6996 105.782C90.3804 106.412 88.8756 106.537 87.4699 106.135C87.3065 106.333 87.13 106.52 86.9417 106.695C87.7038 106.995 88.5198 107.134 89.3385 107.105C90.1572 107.076 90.961 106.878 91.6996 106.524C91.9875 106.399 92.2422 106.208 92.4436 105.968C92.5716 105.782 92.659 105.572 92.7 105.351C92.741 105.13 92.7348 104.902 92.6817 104.684C92.6445 104.88 92.5631 105.065 92.4436 105.225Z" fill="black"/>
<path opacity="0.1" d="M88.4075 92.7967C88.529 93.283 88.6 93.7804 88.6195 94.2812C88.6624 93.5325 88.5909 92.7817 88.4075 92.0545C88.1806 91.1712 87.7862 90.3177 87.7156 89.4084C87.7156 89.2934 87.7155 89.1783 87.6969 89.0596C87.6791 89.4233 87.6853 89.7878 87.7156 90.1507C87.7862 91.0599 88.1806 91.9135 88.4075 92.7967Z" fill="black"/>
<path opacity="0.1" d="M107.662 97.651C107.82 96.6696 107.888 95.6758 107.863 94.6821C107.85 95.4282 107.783 96.1724 107.662 96.9088C107.473 98.0222 107.142 99.1355 106.993 100.271C106.916 100.88 106.887 101.494 106.907 102.108C106.917 101.742 106.946 101.377 106.993 101.013C107.142 99.8777 107.473 98.7755 107.662 97.651Z" fill="black"/>
<path opacity="0.1" d="M88.3329 99.2429C88.138 98.8775 87.981 98.4933 87.8641 98.0962C87.8326 98.2299 87.8176 98.367 87.8195 98.5044C87.8896 99.0285 88.0641 99.5332 88.3329 99.9889C88.606 100.611 88.7635 101.277 88.7979 101.956C88.8652 101.027 88.7056 100.096 88.3329 99.2429Z" fill="black"/>
<path opacity="0.1" d="M104.281 95.6397C104.314 95.8091 104.337 95.98 104.352 96.1519C104.352 96.0962 104.352 96.0442 104.352 95.9886C104.369 95.6229 104.341 95.2566 104.27 94.8975C104.188 94.5079 104.054 94.1219 103.991 93.7285C103.972 93.8165 103.961 93.9059 103.957 93.9957C103.997 94.5549 104.106 95.107 104.281 95.6397Z" fill="black"/>
<path opacity="0.1" d="M101.937 105.622C101.88 105.563 101.827 105.5 101.777 105.433C101.686 105.582 101.648 105.757 101.67 105.93C101.716 106.097 101.809 106.248 101.937 106.365C102.7 107.182 103.637 107.819 104.678 108.229C105.719 108.64 106.839 108.813 107.956 108.736C107.893 108.491 107.83 108.25 107.77 107.994C106.684 108.044 105.6 107.857 104.593 107.448C103.585 107.038 102.679 106.416 101.937 105.622Z" fill="black"/>
<path opacity="0.1" d="M105.155 90.2993C105.153 90.2858 105.153 90.2721 105.155 90.2585C105.367 88.8928 104.232 87.7053 103.09 86.9185C102.22 86.316 101.274 85.8283 100.278 85.4675C99.6662 85.2488 99.0326 85.0958 98.3883 85.011C97.1869 84.8491 95.964 84.9855 94.8282 85.4081C94.358 85.585 93.9129 85.822 93.5038 86.1132C93.2602 86.2669 93.0573 86.4769 92.9123 86.7255C92.7931 87.0054 92.7396 87.3088 92.7561 87.6125C92.7561 87.8686 92.7561 88.1246 92.7561 88.3844V88.3547C92.7396 88.051 92.7931 87.7476 92.9123 87.4677C93.0573 87.2192 93.2602 87.0091 93.5038 86.8554C93.9129 86.5643 94.358 86.3273 94.8282 86.1503C95.964 85.7277 97.1869 85.5913 98.3883 85.7532C99.0326 85.838 99.6662 85.991 100.278 86.2097C101.274 86.5705 102.22 87.0582 103.09 87.6607C104.039 88.299 104.973 89.2194 105.155 90.2993Z" fill="black"/>
<path opacity="0.1" d="M92.1868 92.0767C91.8148 92.7855 91.1824 93.3608 90.8737 94.1104C90.7473 94.4223 90.6683 94.7513 90.6393 95.0864C90.6021 95.434 90.5834 95.7834 90.5835 96.133C90.5835 96.4484 90.5835 96.7676 90.5835 97.0867C90.5835 97.0162 90.5835 96.9457 90.5835 96.8752C90.5834 96.5256 90.6021 96.1763 90.6393 95.8287C90.6683 95.4935 90.7473 95.1645 90.8737 94.8526C91.1824 94.1104 91.8 93.5278 92.1868 92.8189C92.7858 91.7056 92.7746 90.4253 92.7634 89.1523C92.8129 90.1594 92.6149 91.1633 92.1868 92.0767Z" fill="black"/>
</g>
<path opacity="0.1" d="M107.03 87.8534C106.979 87.926 106.919 87.9921 106.851 88.0501C106.72 88.1579 106.573 88.2454 106.416 88.3099C105.334 88.7775 105.378 87.2522 104.813 86.7289C104.45 86.4621 104.005 86.3308 103.555 86.3578C102.467 86.3034 101.377 86.2551 100.285 86.2131C98.4664 86.1463 96.651 86.1129 94.8356 86.1537C93.9651 86.1686 93.0971 86.2044 92.2316 86.2613C91.2271 86.3281 90.1483 86.458 89.2927 86.933C88.9998 87.0938 88.7348 87.3006 88.5078 87.5454C88.3032 87.768 88.0874 88.0501 87.8047 88.102C88.0086 86.8879 88.5448 85.7535 89.3543 84.8242C90.1637 83.8949 91.2148 83.2068 92.3915 82.836C94.2966 81.4204 96.6764 80.7941 99.0335 81.088C101.391 81.382 103.543 82.5734 105.04 84.4132C105.699 84.9662 106.225 85.6599 106.58 86.4432C106.779 86.8962 106.93 87.3689 107.03 87.8534Z" fill="black"/>
<path d="M106.416 87.5677C105.334 88.0353 105.378 86.51 104.813 85.9867C104.45 85.7199 104.005 85.5885 103.555 85.6156C99.7857 85.3682 96.0049 85.336 92.2316 85.5191C90.8886 85.6082 89.4155 85.8086 88.5115 86.8032C88.2808 87.0555 88.039 87.3821 87.6931 87.371C87.5778 86.6287 87.4959 85.8568 87.4401 85.096C87.4064 84.8111 87.4215 84.5224 87.4848 84.2425C87.5778 83.9233 87.7898 83.6524 87.8977 83.3407C88.0039 82.9442 88.0416 82.5325 88.0093 82.1234C88.0256 80.6094 88.4334 79.1251 89.1933 77.8144C89.9533 76.5037 91.0395 75.4109 92.3469 74.6418C92.675 74.4817 92.9793 74.2769 93.2508 74.0331C93.3452 73.9211 93.4484 73.8168 93.5596 73.7214C93.7745 73.5893 94.0261 73.5295 94.2776 73.5507C94.4562 73.5507 94.6496 73.5507 94.8058 73.5507C95.2869 73.4978 95.7573 73.3727 96.2009 73.1796C96.6104 73.0041 97.0536 72.9205 97.4992 72.9347C97.9721 73.0207 98.4272 73.1851 98.8458 73.4208C99.0471 73.5175 99.2577 73.5934 99.4745 73.6472C99.813 73.7251 100.163 73.7214 100.501 73.7882C101.05 73.9275 101.57 74.1583 102.041 74.4711C102.604 74.7735 103.124 75.1478 103.589 75.5844C104.095 76.161 104.5 76.8184 104.787 77.529C105.279 78.5108 105.654 79.5472 105.903 80.6167C106.204 82.1531 106.055 83.8157 106.77 85.2111C107.205 86.0869 107.603 87.0592 106.416 87.5677Z" fill="#FED253"/>
<path opacity="0.1" d="M87.5591 86.4028C87.5591 86.4028 95.2708 79.4036 106.755 85.2078C106.755 85.2078 93.7902 82.2649 87.5591 86.4028Z" fill="black"/>
<path d="M3.53044 122.167C2.48138 120.452 0.904072 118.882 1.1496 116.938C4.03637 117.268 6.77433 116.567 9.4193 115.346C12.0643 114.125 14.5195 112.54 16.9971 110.985C17.9717 110.373 18.9427 109.772 19.9099 109.215C21.4425 108.339 22.9641 107.359 24.5228 106.502C26.7548 105.277 29.0315 104.275 31.5388 104.082C31.993 104.047 32.4487 104.036 32.9041 104.049C35.9917 104.108 39.191 104.936 41.9066 103.555L42.074 103.466C43.6141 102.624 44.7339 101.191 46.0545 100.03C47.0039 99.2107 48.0377 98.4942 49.1384 97.8923C51.1436 96.7789 53.3161 95.8883 55.3658 94.838C55.8905 94.5684 56.3887 94.2503 56.8539 93.888L57.2035 93.6096L57.2817 93.5428C57.3672 93.4723 57.4528 93.4018 57.5346 93.3276L57.6946 93.1866L57.8583 93.0381L57.9848 92.9194L58.1894 92.7264L58.2117 92.7004L58.5353 92.3813L58.6655 92.2514L58.8925 92.0176L59.0264 91.884C59.2533 91.6502 59.4802 91.4127 59.7109 91.1826C59.9415 90.9525 60.254 90.6407 60.533 90.3847L60.8008 90.1472L60.879 90.0804L61.0947 89.9022L61.1952 89.8169L61.4072 89.6536L61.5114 89.5719C61.6155 89.494 61.7234 89.4198 61.8313 89.3455C61.9306 89.2769 62.0351 89.2161 62.1438 89.1637L61.4481 87.4826L63.4495 86.6587L91.0524 153.478L89.0473 154.301L73.2593 116.077L73.1477 116.188C69.4904 119.788 65.0105 122.448 60.094 123.937H60.0643C57.3151 124.765 54.2387 125.351 51.9248 126.887C51.1043 127.419 50.3913 128.1 49.8229 128.895C49.2798 129.667 48.9004 130.547 48.3349 131.289C48.227 131.426 48.108 131.56 47.9889 131.686C47.3124 132.355 46.5639 132.947 45.7569 133.452L45.4035 133.694C43.0067 135.376 40.5097 136.911 37.9262 138.292C36.4353 139.066 34.8809 139.711 33.2798 140.221C32.1154 140.593 30.9138 140.863 29.7495 141.231C28.9662 141.467 28.2056 141.773 27.4765 142.144C25.5049 143.172 23.9908 144.782 22.5586 146.501C21.3049 148.007 20.1145 149.603 18.7381 150.976C17.875 151.83 16.5618 152.639 15.5202 152.138L15.3082 152.015C15.3416 151.96 15.3677 151.904 15.3974 151.845C16.2196 150.126 15.2077 148.004 13.8462 146.627C13.7048 146.482 13.5597 146.341 13.4109 146.208C13.2621 146.074 12.9943 145.836 12.7822 145.651C11.6179 144.653 10.3791 143.725 9.57182 142.437C8.95569 141.355 8.53748 140.173 8.33676 138.945C7.96476 137.197 7.71551 135.397 6.76317 133.909C6.1382 132.925 5.20819 132.087 4.53113 131.144C4.10316 130.586 3.82182 129.93 3.71272 129.237C3.5602 128.03 4.12193 126.85 4.33397 125.648C4.39705 125.32 4.42326 124.987 4.41209 124.653C4.33438 123.763 4.03098 122.908 3.53044 122.167Z" fill="url(#paint0_linear)"/>
<path d="M88.3457 153.728L90.3164 152.917L63.1735 87.222L61.2027 88.0323L88.3457 153.728Z" fill="#D6D8E1"/>
<path d="M7.42897 133.675C8.36271 135.141 8.61195 136.908 8.9728 138.626C9.17294 139.834 9.58471 140.997 10.1893 142.062C10.9854 143.328 12.2018 144.241 13.3439 145.221C13.5522 145.402 13.7605 145.592 13.9614 145.77C14.1065 145.9 14.2516 146.041 14.3892 146.178C15.7284 147.533 16.7217 149.622 15.9144 151.311C15.8897 151.368 15.8611 151.424 15.8289 151.478C15.8942 151.522 15.9626 151.562 16.0335 151.596C17.0602 152.094 18.3511 151.299 19.1993 150.457C20.5534 149.106 21.7252 147.54 22.9565 146.059C24.3627 144.367 25.8545 142.782 27.7926 141.773C28.5081 141.407 29.2551 141.107 30.0246 140.875C31.1667 140.504 32.3497 140.24 33.4955 139.884C35.0692 139.382 36.5975 138.747 38.0637 137.988C40.6081 136.629 43.0678 135.118 45.4294 133.464L45.7791 133.226C46.5721 132.73 47.3082 132.149 47.974 131.493C48.093 131.367 48.2083 131.237 48.3162 131.1C48.8891 130.358 49.2648 129.508 49.8042 128.747C50.3637 127.965 51.0653 127.296 51.8726 126.773C54.1493 125.262 57.17 124.683 59.8744 123.87H59.9042C64.7371 122.404 69.1411 119.789 72.7384 116.251C73.0366 116.003 73.2594 115.677 73.382 115.309C73.4973 114.786 73.2146 114.266 72.943 113.806C72.6268 113.264 72.3181 112.722 72.013 112.173C70.6411 109.682 69.4164 107.113 68.345 104.48C68.1107 103.901 67.8837 103.326 67.6643 102.743C67.1013 101.259 66.5879 99.753 66.1242 98.2265C65.9716 97.7218 65.8228 97.2134 65.6815 96.705C65.6554 96.6085 65.6257 96.5046 65.5996 96.3932C64.9821 93.9179 64.1562 88.1248 61.6117 89.8579C60.855 90.3977 60.1512 91.0078 59.5099 91.6801C59.0151 92.1811 58.5315 92.6969 58.0219 93.1942C57.6067 93.6015 57.1683 93.9844 56.7087 94.341C56.2422 94.6972 55.7442 95.0103 55.2206 95.2762C53.2006 96.3079 51.0653 97.1726 49.0974 98.2785C48.0137 98.8692 46.9961 99.5734 46.0618 100.379C44.7635 101.522 43.6624 102.932 42.1483 103.76L41.9847 103.849C39.3136 105.203 36.1702 104.391 33.1309 104.331C32.6842 104.32 32.2372 104.331 31.7917 104.365C29.3253 104.55 27.0709 105.537 24.891 106.744C23.3583 107.59 21.8628 108.547 20.3562 109.412C19.4039 109.957 18.4515 110.547 17.4917 111.152C15.0588 112.681 12.5924 114.285 10.0516 115.442C7.44757 116.623 4.75796 117.328 1.91956 117.005C1.67775 118.916 3.2253 120.46 4.25948 122.145C4.75619 122.869 5.05729 123.709 5.13369 124.583C5.14736 124.91 5.12365 125.237 5.06301 125.559C4.85469 126.743 4.319 127.901 4.45292 129.092C4.55848 129.771 4.83352 130.413 5.25273 130.959C5.90002 131.883 6.81144 132.71 7.42897 133.675Z" fill="#F86D70"/>
<path d="M83.0617 141.405C83.0617 141.405 86.3205 144.241 89.6239 145.751C92.9273 147.261 90.7399 152.68 90.7399 152.68C90.7399 152.68 87.2393 153.481 84.7878 150.082C82.3363 146.683 83.0617 141.405 83.0617 141.405Z" fill="#FBBEBE"/>
<path d="M258.663 189.668C258.663 189.668 250.033 200.999 242.872 201.091C235.711 201.184 231.507 205.864 234.907 208.788C238.307 211.713 275.359 207.118 275.359 207.118C275.359 207.118 275.709 193.194 272.498 191.16C269.288 189.127 258.663 189.668 258.663 189.668Z" fill="#444176"/>
<path d="M351.461 203.27C351.461 203.27 352.781 212.244 348.7 218.363C344.619 224.483 356.073 226.843 356.073 226.843C356.073 226.843 364.395 229.155 365.002 220.954C365.608 212.752 365.411 206.48 364.63 205.812C363.848 205.144 363.197 200.531 363.197 200.531L351.461 203.27Z" fill="#444176"/>
<path d="M220.812 220.219C220.812 220.219 220.511 191.194 249.3 179.396L255.985 166.708L259.192 158.915C260.353 156.092 262.18 153.59 264.517 151.622C266.854 149.655 269.633 148.278 272.618 147.61L277.803 146.449L279.407 139.709C280.261 136.107 282.154 132.833 284.852 130.291C287.549 127.75 290.934 126.052 294.588 125.407C297.742 124.823 300.942 124.525 304.149 124.516C305.568 124.537 306.957 124.925 308.182 125.64C309.407 126.355 310.425 127.374 311.139 128.598C311.139 128.598 338.414 128.298 339.623 143.113C339.623 143.113 342.354 156.714 346.293 159.134C346.293 159.134 352.96 157.623 359.626 167.298L366.899 192.088C366.899 192.088 385.99 209.924 380.232 226.231C380.232 226.231 372.352 237.416 332.351 229.857C332.351 229.857 289.622 242.846 266.877 225.032C266.874 225.054 228.996 232.31 220.812 220.219Z" fill="#A8A8A8"/>
<path opacity="0.1" d="M239.903 215.684C239.903 215.684 245.967 207.219 245.662 201.17C245.357 195.12 247.091 180.387 247.091 180.387" stroke="black" stroke-miterlimit="10"/>
<path opacity="0.1" d="M262.027 193.008C262.027 193.008 268.087 181.823 267.48 175.778C267.48 175.778 273.845 164.273 278.692 165.194" stroke="black" stroke-miterlimit="10"/>
<path opacity="0.1" d="M295.362 161.263C295.362 161.263 312.028 155.218 312.939 150.382" stroke="black" stroke-miterlimit="10"/>
<path opacity="0.1" d="M301.422 175.173C301.422 175.173 318.999 167.313 318.999 165.194H327.782C327.782 165.194 340.512 181.823 338.998 189.079" stroke="black" stroke-miterlimit="10"/>
<path opacity="0.1" d="M322.031 187.264C322.031 187.264 305.06 186.054 298.997 190.893C292.933 195.733 282.026 198.149 282.026 198.149C282.026 198.149 275.661 211.754 273.235 214.17C270.81 216.585 266.87 225.054 266.87 225.054" stroke="black" stroke-miterlimit="10"/>
<path opacity="0.1" d="M322.031 203.288C322.031 203.288 323.847 209.634 326.272 213.264C328.698 216.893 332.332 229.889 332.332 229.889" stroke="black" stroke-miterlimit="10"/>
<path opacity="0.1" d="M350.516 221.729C350.516 221.729 354.362 232.406 357.744 232.51" stroke="black" stroke-miterlimit="10"/>
<path opacity="0.1" d="M325.32 175.9C325.32 175.9 335.312 178.595 339.49 185.123C343.667 191.65 356.427 197.57 356.427 197.57" stroke="black" stroke-miterlimit="10"/>
<path opacity="0.1" d="M329.605 143.74C329.605 143.74 329.605 157.645 333.545 157.645C337.485 157.645 346.275 159.156 346.275 159.156" stroke="black" stroke-miterlimit="10"/>
<path opacity="0.1" d="M310.298 127.225C310.298 127.225 309.29 151.247 304.138 157.467" stroke="black" stroke-miterlimit="10"/>
<g opacity="0.05">
<path opacity="0.05" d="M366.274 191.799L359.001 167.008C352.335 157.334 345.669 158.844 345.669 158.844C341.729 156.424 339.002 142.819 339.002 142.819C337.789 128.004 310.514 128.309 310.514 128.309C309.799 127.083 308.778 126.062 307.551 125.347C306.323 124.631 304.931 124.245 303.509 124.227C302.222 124.227 300.905 124.267 299.588 124.375C300.332 124.449 301.045 124.554 301.727 124.69L303.848 128.32C303.848 128.32 331.119 128.016 332.332 142.83C332.332 142.83 335.063 156.435 339.002 158.855C339.002 158.855 345.669 157.341 352.335 167.02L359.608 191.81C359.608 191.81 378.699 209.646 372.94 225.952C372.94 225.952 369.053 231.471 352.882 232.139C374.685 232.937 379.607 225.952 379.607 225.952C385.365 209.635 366.274 191.799 366.274 191.799Z" fill="black"/>
<path opacity="0.05" d="M259.601 224.75C253.186 225.902 246.699 226.61 240.186 226.869C247.779 227.159 255.676 226.338 260.765 225.641C260.371 225.34 259.984 225.051 259.601 224.75Z" fill="black"/>
<path opacity="0.05" d="M325.059 229.589C315.73 232.2 306.126 233.714 296.445 234.102C310.413 234.607 323.646 231.701 329.099 230.306C327.782 230.087 326.447 229.838 325.059 229.589Z" fill="black"/>
</g>
<path d="M82.9016 276.743C82.9016 276.743 91.2383 276.487 93.7493 274.702C96.2604 272.917 106.569 270.787 107.194 273.648C107.819 276.509 119.719 287.88 110.307 287.958C100.896 288.036 88.4445 286.496 85.9372 284.971C83.4299 283.445 82.9016 276.743 82.9016 276.743Z" fill="#A8A8A8"/>
<path opacity="0.2" d="M110.478 286.96C101.067 287.037 88.6119 285.497 86.1046 283.991C84.1962 282.829 83.4336 278.665 83.1806 276.747H82.9016C82.9016 276.747 83.4299 283.453 85.9372 284.974C88.4445 286.496 100.899 288.036 110.307 287.962C113.027 287.939 113.964 286.974 113.912 285.546C113.536 286.407 112.498 286.945 110.478 286.96Z" fill="black"/>
<path d="M286.144 255.887C286.144 255.887 276.326 253.927 273.711 251.314C271.096 248.702 259.315 244.137 258.005 247.399C256.696 250.661 240.338 261.761 251.461 263.728C262.584 265.695 277.636 266.326 280.91 265.034C284.183 263.743 286.144 255.887 286.144 255.887Z" fill="#A8A8A8"/>
<path opacity="0.2" d="M251.461 262.496C262.588 264.452 277.636 265.094 280.91 263.798C283.398 262.804 285.132 258.028 285.816 255.805L286.144 255.875C286.144 255.875 284.179 263.706 280.91 265.012C277.64 266.318 262.588 265.665 251.461 263.706C248.251 263.142 247.332 261.813 247.678 260.136C247.953 261.242 249.073 262.084 251.461 262.496Z" fill="black"/>
<path opacity="0.1" d="M192.141 42.6222H189.805C190.239 42.6222 190.656 42.4502 190.963 42.144C191.269 41.8378 191.442 41.4224 191.442 40.9893C191.442 40.5563 191.269 40.1409 190.963 39.8347C190.656 39.5285 190.239 39.3564 189.805 39.3564H170.877C170.443 39.3564 170.027 39.5285 169.72 39.8347C169.413 40.1409 169.241 40.5563 169.241 40.9893C169.241 41.4224 169.413 41.8378 169.72 42.144C170.027 42.4502 170.443 42.6222 170.877 42.6222H173.214C172.794 42.6422 172.397 42.8228 172.107 43.1265C171.817 43.4302 171.655 43.8337 171.655 44.2533C171.655 44.6729 171.817 45.0764 172.107 45.3801C172.397 45.6838 172.794 45.8643 173.214 45.8843H169.944C169.51 45.8843 169.093 46.0564 168.786 46.3626C168.479 46.6688 168.307 47.0842 168.307 47.5172C168.307 47.9503 168.479 48.3656 168.786 48.6719C169.093 48.9781 169.51 49.1501 169.944 49.1501H188.871C189.306 49.1501 189.722 48.9781 190.029 48.6719C190.336 48.3656 190.508 47.9503 190.508 47.5172C190.508 47.0842 190.336 46.6688 190.029 46.3626C189.722 46.0564 189.306 45.8843 188.871 45.8843H192.141C192.363 45.8949 192.584 45.8605 192.791 45.7833C192.999 45.706 193.188 45.5876 193.349 45.4351C193.509 45.2826 193.637 45.0992 193.724 44.8961C193.811 44.693 193.856 44.4743 193.856 44.2533C193.856 44.0323 193.811 43.8136 193.724 43.6105C193.637 43.4073 193.509 43.2239 193.349 43.0715C193.188 42.919 192.999 42.8005 192.791 42.7233C192.584 42.6461 192.363 42.6117 192.141 42.6222Z" fill="#6C63FF"/>
<path opacity="0.1" d="M265.657 100.074H263.321C263.741 100.054 264.137 99.8739 264.428 99.5702C264.718 99.2665 264.88 98.863 264.88 98.4435C264.88 98.0239 264.718 97.6204 264.428 97.3167C264.137 97.013 263.741 96.8324 263.321 96.8124H244.375C244.153 96.8019 243.932 96.8363 243.725 96.9135C243.517 96.9907 243.328 97.1091 243.167 97.2616C243.007 97.4141 242.879 97.5975 242.792 97.8006C242.705 98.0038 242.66 98.2225 242.66 98.4435C242.66 98.6644 242.705 98.8831 242.792 99.0863C242.879 99.2894 243.007 99.4728 243.167 99.6253C243.328 99.7778 243.517 99.8962 243.725 99.9734C243.932 100.051 244.153 100.085 244.375 100.074H246.711C246.291 100.094 245.895 100.275 245.604 100.579C245.314 100.882 245.152 101.286 245.152 101.706C245.152 102.125 245.314 102.529 245.604 102.832C245.895 103.136 246.291 103.317 246.711 103.337H243.441C243.007 103.337 242.591 103.509 242.284 103.815C241.977 104.121 241.804 104.536 241.804 104.969C241.804 105.403 241.977 105.818 242.284 106.124C242.591 106.43 243.007 106.602 243.441 106.602H262.365C262.799 106.602 263.215 106.43 263.522 106.124C263.829 105.818 264.002 105.403 264.002 104.969C264.002 104.536 263.829 104.121 263.522 103.815C263.215 103.509 262.799 103.337 262.365 103.337H265.657C265.879 103.347 266.1 103.313 266.307 103.236C266.515 103.158 266.704 103.04 266.865 102.887C267.025 102.735 267.153 102.551 267.24 102.348C267.327 102.145 267.372 101.927 267.372 101.706C267.372 101.485 267.327 101.266 267.24 101.063C267.153 100.86 267.025 100.676 266.865 100.524C266.704 100.371 266.515 100.253 266.307 100.176C266.1 100.098 265.879 100.064 265.657 100.074Z" fill="#6C63FF"/>
<path opacity="0.1" d="M156.723 89.4456H154.386C154.608 89.4561 154.829 89.4217 155.036 89.3445C155.244 89.2673 155.434 89.1489 155.594 88.9964C155.754 88.8439 155.882 88.6605 155.969 88.4574C156.056 88.2542 156.101 88.0355 156.101 87.8145C156.101 87.5935 156.056 87.3749 155.969 87.1717C155.882 86.9686 155.754 86.7852 155.594 86.6327C155.434 86.4802 155.244 86.3618 155.036 86.2846C154.829 86.2073 154.608 86.173 154.386 86.1835H135.455C135.234 86.173 135.013 86.2073 134.805 86.2846C134.597 86.3618 134.408 86.4802 134.247 86.6327C134.087 86.7852 133.959 86.9686 133.872 87.1717C133.785 87.3749 133.74 87.5935 133.74 87.8145C133.74 88.0355 133.785 88.2542 133.872 88.4574C133.959 88.6605 134.087 88.8439 134.247 88.9964C134.408 89.1489 134.597 89.2673 134.805 89.3445C135.013 89.4217 135.234 89.4561 135.455 89.4456H137.791C137.57 89.4351 137.349 89.4694 137.141 89.5466C136.934 89.6239 136.744 89.7423 136.584 89.8948C136.423 90.0473 136.296 90.2307 136.208 90.4338C136.121 90.6369 136.076 90.8556 136.076 91.0766C136.076 91.2976 136.121 91.5163 136.208 91.7194C136.296 91.9226 136.423 92.106 136.584 92.2584C136.744 92.4109 136.934 92.5294 137.141 92.6066C137.349 92.6838 137.57 92.7182 137.791 92.7077H134.517C134.083 92.7077 133.667 92.8797 133.36 93.1859C133.053 93.4922 132.881 93.9075 132.881 94.3406C132.881 94.7736 133.053 95.189 133.36 95.4952C133.667 95.8014 134.083 95.9735 134.517 95.9735H153.445C153.879 95.9735 154.296 95.8014 154.603 95.4952C154.91 95.189 155.082 94.7736 155.082 94.3406C155.082 93.9075 154.91 93.4922 154.603 93.1859C154.296 92.8797 153.879 92.7077 153.445 92.7077H156.715C156.936 92.7182 157.157 92.6838 157.365 92.6066C157.573 92.5294 157.762 92.4109 157.923 92.2584C158.083 92.106 158.211 91.9226 158.298 91.7194C158.385 91.5163 158.43 91.2976 158.43 91.0766C158.43 90.8556 158.385 90.6369 158.298 90.4338C158.211 90.2307 158.083 90.0473 157.923 89.8948C157.762 89.7423 157.573 89.6239 157.365 89.5466C157.157 89.4694 156.936 89.4351 156.715 89.4456H156.723Z" fill="#6C63FF"/>
</g>
<defs>
<linearGradient id="paint0_linear" x1="-269801" y1="24321.7" x2="-291546" y2="24321.7" gradientUnits="userSpaceOnUse">
<stop stop-color="#808080" stop-opacity="0.25"/>
<stop offset="0.54" stop-color="#808080" stop-opacity="0.12"/>
<stop offset="1" stop-color="#808080" stop-opacity="0.1"/>
</linearGradient>
<clipPath id="clip0">
<rect width="384" height="309" fill="white"/>
</clipPath>
</defs>
</svg>
