<svg width="404" height="220" viewBox="0 0 404 220" fill="none" xmlns="http://www.w3.org/2000/svg">
<g clip-path="url(#clip0)">
<path d="M203.296 220C312.844 220 401.65 214.113 401.65 206.85C401.65 199.587 312.844 193.7 203.296 193.7C93.7485 193.7 4.94238 199.587 4.94238 206.85C4.94238 214.113 93.7485 220 203.296 220Z" fill="#F2F2F2"/>
<path d="M195.694 62.8896C163.377 62.8896 140.173 83.6531 140.173 132.101C140.173 187.009 163.377 201.544 195.694 201.544C228.011 201.544 252.597 185.625 252.597 132.101C252.597 74.8863 228.011 62.8896 195.694 62.8896ZM195.906 183.318C173.523 183.318 161.829 170.167 161.829 132.137C161.829 98.5804 174.001 80.8847 196.385 80.8847C218.769 80.8847 230.942 92.5083 230.942 132.137C230.942 169.208 218.29 183.318 195.906 183.318Z" fill="#2F2E41"/>
<path d="M120.822 163.246H107.46V123.843C107.46 121.75 106.63 119.743 105.152 118.263C103.674 116.783 101.67 115.952 99.5798 115.952H96.4489C95.4141 115.952 94.3894 116.156 93.4334 116.553C92.4773 116.949 91.6087 117.53 90.8769 118.263C90.1452 118.996 89.5648 119.866 89.1688 120.823C88.7728 121.781 88.5689 122.807 88.5689 123.843V163.246H50.8798C50.1044 163.246 49.3422 163.046 48.6672 162.664C47.9921 162.282 47.427 161.732 47.0268 161.067C46.6266 160.402 46.4048 159.644 46.383 158.868C46.3612 158.092 46.5401 157.324 46.9023 156.637L86.7921 81.0305C87.2894 80.0879 87.5909 79.0541 87.6782 77.9916C87.7656 76.9291 87.637 75.8599 87.3003 74.8485C86.9637 73.8372 86.4258 72.9046 85.7193 72.1071C85.0128 71.3096 84.1523 70.6638 83.1896 70.2085L80.8348 69.095C79.0064 68.2303 76.9159 68.1026 74.9961 68.7383C73.0763 69.3741 71.4739 70.7246 70.5207 72.5104L21.8698 163.651C21.0413 165.203 20.6079 166.936 20.6079 168.695C20.6079 170.101 20.8843 171.492 21.4213 172.79C21.9582 174.089 22.7453 175.268 23.7375 176.262C24.7297 177.255 25.9076 178.044 27.204 178.581C28.5004 179.119 29.8898 179.396 31.293 179.396H88.5689V204.312C88.5689 205.554 88.8133 206.784 89.2879 207.932C89.7626 209.079 90.4583 210.122 91.3354 211C92.2125 211.879 93.2538 212.576 94.3997 213.051C95.5457 213.526 96.774 213.771 98.0144 213.771H98.0144C99.2548 213.771 100.483 213.526 101.629 213.051C102.775 212.576 103.816 211.879 104.693 211C105.57 210.122 106.266 209.079 106.741 207.932C107.215 206.784 107.46 205.554 107.46 204.312V179.396H120.822C122.96 179.396 125.011 178.545 126.523 177.031C128.035 175.517 128.885 173.463 128.885 171.321C128.885 169.18 128.035 167.126 126.523 165.611C125.011 164.097 122.96 163.246 120.822 163.246Z" fill="#6C5CE7"/>
<path d="M368.246 163.246H354.884V123.843C354.884 121.75 354.054 119.743 352.576 118.263C351.098 116.783 349.094 115.952 347.004 115.952H343.873C342.838 115.952 341.814 116.156 340.858 116.553C339.902 116.949 339.033 117.53 338.301 118.263C337.57 118.996 336.989 119.866 336.593 120.823C336.197 121.781 335.993 122.807 335.993 123.843V163.246H298.304C297.529 163.246 296.767 163.046 296.091 162.664C295.416 162.282 294.851 161.732 294.451 161.067C294.051 160.402 293.829 159.644 293.807 158.868C293.786 158.092 293.964 157.324 294.327 156.637L334.216 81.0305C334.714 80.0879 335.015 79.0542 335.103 77.9917C335.19 76.9291 335.061 75.8599 334.725 74.8485C334.388 73.8372 333.85 72.9046 333.144 72.1071C332.437 71.3096 331.577 70.6638 330.614 70.2085L328.259 69.095C326.431 68.2303 324.34 68.1026 322.42 68.7383C320.501 69.3741 318.898 70.7246 317.945 72.5104L269.294 163.651C268.466 165.203 268.032 166.936 268.032 168.695C268.032 171.533 269.158 174.255 271.162 176.262C273.166 178.268 275.883 179.396 278.717 179.396H335.993V204.312C335.993 206.821 336.988 209.227 338.76 211C340.531 212.774 342.934 213.771 345.439 213.771C347.944 213.771 350.346 212.774 352.118 211C353.889 209.227 354.884 206.821 354.884 204.312V179.396H368.246C370.384 179.396 372.435 178.545 373.947 177.031C375.46 175.517 376.309 173.463 376.309 171.321C376.309 169.18 375.46 167.126 373.947 165.611C372.435 164.097 370.384 163.246 368.246 163.246Z" fill="#6C5CE7"/>
<path d="M124.508 158.632H111.146V119.229C111.146 118.193 110.942 117.166 110.546 116.209C110.15 115.252 109.57 114.382 108.838 113.649C108.106 112.916 107.237 112.335 106.281 111.938C105.325 111.542 104.301 111.338 103.266 111.338H100.135C98.0451 111.338 96.0408 112.169 94.563 113.649C93.0852 115.129 92.255 117.136 92.255 119.229V158.632H54.5658C53.7904 158.632 53.0283 158.432 52.3532 158.05C51.6781 157.668 51.1131 157.118 50.7129 156.453C50.3126 155.788 50.0909 155.03 50.0691 154.254C50.0472 153.478 50.2261 152.709 50.5883 152.023L90.4781 76.4163C90.9755 75.4737 91.2769 74.4399 91.3643 73.3774C91.4516 72.3149 91.3231 71.2457 90.9864 70.2343C90.6497 69.2229 90.1119 68.2903 89.4054 67.4928C88.6989 66.6954 87.8383 66.0495 86.8757 65.5943L84.5209 64.4807C82.6924 63.616 80.602 63.4883 78.6822 64.1241C76.7623 64.7598 75.16 66.1103 74.2067 67.8961L25.5558 159.037C24.7274 160.589 24.2939 162.321 24.2939 164.081V164.081C24.2939 166.919 25.4197 169.641 27.4235 171.648C29.4274 173.654 32.1452 174.782 34.9791 174.782H92.255V199.698C92.255 200.94 92.4993 202.17 92.974 203.317C93.4486 204.465 94.1444 205.508 95.0215 206.386C95.8986 207.265 96.9398 207.961 98.0858 208.437C99.2318 208.912 100.46 209.157 101.7 209.157H101.7C104.205 209.157 106.608 208.16 108.379 206.386C110.151 204.612 111.146 202.206 111.146 199.698V174.782H124.508C125.567 174.782 126.615 174.573 127.593 174.167C128.572 173.761 129.46 173.166 130.209 172.417C130.958 171.667 131.552 170.777 131.957 169.797C132.362 168.817 132.571 167.767 132.571 166.707V166.707C132.571 165.647 132.362 164.597 131.957 163.617C131.552 162.637 130.958 161.747 130.209 160.997C129.46 160.247 128.572 159.653 127.593 159.247C126.615 158.841 125.567 158.632 124.508 158.632V158.632Z" stroke="#3F3D56" stroke-miterlimit="10"/>
<path d="M375.157 158.632H361.795V119.229C361.795 117.136 360.965 115.129 359.487 113.649C358.01 112.169 356.005 111.338 353.915 111.338H350.784C349.75 111.338 348.725 111.542 347.769 111.938C346.813 112.335 345.944 112.916 345.212 113.649C344.481 114.382 343.9 115.252 343.504 116.209C343.108 117.166 342.904 118.193 342.904 119.229V158.632H305.215C304.44 158.632 303.678 158.432 303.003 158.05C302.328 157.668 301.762 157.118 301.362 156.453C300.962 155.788 300.74 155.03 300.718 154.254C300.697 153.478 300.876 152.709 301.238 152.023L341.128 76.4163C341.625 75.4737 341.926 74.4399 342.014 73.3774C342.101 72.3149 341.972 71.2457 341.636 70.2343C341.299 69.2229 340.761 68.2903 340.055 67.4928C339.348 66.6954 338.488 66.0495 337.525 65.5943L335.17 64.4807C333.342 63.616 331.251 63.4883 329.332 64.1241C327.412 64.7598 325.809 66.1103 324.856 67.8961L276.205 159.037C275.377 160.589 274.943 162.321 274.943 164.081C274.943 166.919 276.069 169.641 278.073 171.648C280.077 173.654 282.795 174.782 285.628 174.782H342.904V199.698C342.904 202.206 343.9 204.612 345.671 206.386C347.442 208.16 349.845 209.157 352.35 209.157V209.157C354.855 209.157 357.257 208.16 359.029 206.386C360.8 204.612 361.795 202.206 361.795 199.698V174.782H375.157C376.216 174.782 377.264 174.573 378.243 174.167C379.221 173.761 380.11 173.166 380.859 172.417C381.607 171.667 382.201 170.777 382.606 169.797C383.012 168.817 383.22 167.767 383.22 166.707V166.707C383.22 164.565 382.371 162.512 380.859 160.997C379.347 159.483 377.296 158.632 375.157 158.632V158.632Z" stroke="#3F3D56" stroke-miterlimit="10"/>
<path d="M203.066 58.7368C170.749 58.7368 147.545 79.5003 147.545 127.948C147.545 182.856 170.749 197.391 203.066 197.391C235.383 197.391 259.969 181.472 259.969 127.948C259.969 70.7335 235.383 58.7368 203.066 58.7368ZM203.278 179.165C180.895 179.165 169.201 166.014 169.201 127.984C169.201 94.4276 181.373 76.7318 203.757 76.7318C226.141 76.7318 238.314 88.3555 238.314 127.984C238.314 165.056 225.662 179.165 203.278 179.165V179.165Z" stroke="#3F3D56" stroke-miterlimit="10"/>
<path d="M177.162 11.7304C179.841 11.7304 182.013 9.55533 182.013 6.87227C182.013 4.18921 179.841 2.01416 177.162 2.01416C174.482 2.01416 172.31 4.18921 172.31 6.87227C172.31 9.55533 174.482 11.7304 177.162 11.7304Z" fill="#2F2E41"/>
<path d="M188.994 35.3102C196.509 35.3102 202.601 27.4057 202.601 17.6551C202.601 7.90445 196.509 0 188.994 0C181.479 0 175.387 7.90445 175.387 17.6551C175.387 27.4057 181.479 35.3102 188.994 35.3102Z" fill="#2F2E41"/>
<path opacity="0.1" d="M188.994 29.9783C182.177 29.9783 176.532 23.4749 175.541 14.9893C175.438 15.8742 175.386 16.7644 175.387 17.6553C175.387 27.4059 181.479 35.3104 188.994 35.3104C196.509 35.3104 202.601 27.4059 202.601 17.6553C202.601 16.7644 202.549 15.8742 202.446 14.9893C201.456 23.4749 195.81 29.9783 188.994 29.9783Z" fill="black"/>
<path d="M216.682 69.3589C216.39 70.5615 215.13 71.5245 213.735 72.1974C210.801 73.6121 207.182 74.0343 203.673 74.176C202.777 74.2305 201.879 74.2138 200.986 74.1262C199.256 73.9587 197.633 73.2115 196.379 72.0057C196.29 71.9473 196.217 71.8671 196.167 71.7727C196.116 71.6782 196.091 71.5726 196.093 71.4657C196.094 71.3587 196.123 71.2539 196.176 71.1611C196.229 71.0683 196.305 70.9904 196.396 70.9348C198.265 68.8791 201.383 67.6187 204.524 66.7112C206.906 66.023 211.06 64.2406 213.658 64.4811C216.174 64.7141 217.051 67.8406 216.682 69.3589Z" fill="#3F3D56"/>
<path opacity="0.1" d="M216.682 69.3589C216.39 70.5615 215.13 71.5245 213.735 72.1974C210.801 73.6121 207.182 74.0343 203.673 74.176C202.777 74.2305 201.879 74.2138 200.986 74.1262C199.256 73.9587 197.633 73.2115 196.379 72.0057C196.29 71.9473 196.217 71.8671 196.167 71.7727C196.116 71.6782 196.091 71.5726 196.093 71.4657C196.094 71.3587 196.123 71.2539 196.176 71.1611C196.229 71.0683 196.305 70.9904 196.396 70.9348C198.265 68.8791 201.383 67.6187 204.524 66.7112C206.906 66.023 211.06 64.2406 213.658 64.4811C216.174 64.7141 217.051 67.8406 216.682 69.3589Z" fill="black"/>
<path d="M179.381 60.3709C178.486 62.1285 178.324 64.1702 178.931 66.0475C179.548 67.9105 180.703 69.5483 182.251 70.7533C186.046 73.8003 191.271 74.2196 196.135 74.1773C200.399 74.1402 204.656 73.848 208.885 73.3023C210.302 73.1765 211.694 72.8527 213.021 72.3404C214.609 71.6525 216.004 70.3907 216.57 68.7533C217.135 67.116 216.734 65.111 215.391 64.0183C214.212 63.0582 212.585 62.9261 211.068 62.8348L202.386 62.3124C203.244 61.4431 204.386 60.9514 205.43 60.3195C206.816 59.4811 207.737 58.0735 208.744 56.8044C210.297 54.9463 211.986 53.2071 213.798 51.6014C214.08 53.2246 215.106 54.5574 216.312 55.6774C217.519 56.7973 218.91 57.6989 220.164 58.7652C223.202 61.3478 225.389 64.8531 228.584 67.2381C230.782 66.6597 232.837 65.6325 234.619 64.221L233.377 61.9686C233.274 61.7368 233.113 61.5354 232.909 61.3838C232.558 61.1673 232.105 61.2789 231.697 61.2176C230.606 61.0538 230.129 59.7927 229.701 58.7747C228.526 55.9799 226.277 53.8116 224.355 51.4679C222.937 49.7379 221.679 47.8822 220.596 45.9239C219.951 44.7559 219.36 43.5398 218.484 42.5336C217.608 41.5273 216.381 40.7362 215.048 40.7334C213.87 40.7309 212.784 41.3297 211.771 41.932C208.687 43.7667 205.719 45.7913 202.885 47.9943C201.402 49.1472 199.929 50.3653 198.189 51.0723C197.457 51.3699 196.685 51.5733 195.982 51.9355C194.751 52.5698 193.817 53.643 192.812 54.5956C189.225 57.9934 184.315 60.1948 179.381 60.3709Z" fill="#3F3D56"/>
<path d="M197.534 36.1868C197.494 37.2254 197.273 38.2491 196.882 39.2119C196.684 39.6921 196.389 40.1262 196.016 40.4873C195.643 40.8483 195.199 41.1285 194.713 41.3104C194.023 41.4955 193.3 41.519 192.599 41.3791C191.988 41.3152 191.399 41.1143 190.876 40.7914C190.062 40.2309 189.656 39.2308 189.508 38.2521C189.361 37.2746 189.427 36.2757 189.332 35.291C189.24 34.4957 189.089 33.7084 188.88 32.9355C188.816 32.6783 188.751 32.4224 188.687 32.1665C188.625 31.9105 188.563 31.6546 188.506 31.3986C188.454 31.1581 188.406 30.9164 188.364 30.6735C188.33 30.4685 188.299 30.2623 188.277 30.0549C188.256 29.4402 188.154 28.831 187.973 28.2432C187.803 27.8621 187.59 27.5015 187.338 27.1685C187.231 27.0145 187.127 26.8605 187.031 26.7005C186.754 26.2848 186.625 25.7875 186.665 25.2893C186.677 25.2122 186.695 25.1365 186.721 25.063C186.73 25.0345 186.741 25.0061 186.753 24.9788C186.859 24.9499 186.957 24.8954 187.038 24.82C187.118 24.7446 187.179 24.6507 187.215 24.5463C187.256 24.3222 187.237 24.0912 187.16 23.8768C187.071 23.5773 186.95 23.2885 186.799 23.0154C186.699 22.8353 186.362 22.5106 186.36 22.3045C186.355 21.8897 187.164 21.5556 187.492 21.3921C188.493 20.8904 189.608 20.6639 190.725 20.7357C191.441 20.7842 192.217 21.0046 192.612 21.6054C192.967 22.1469 192.92 22.8483 193.071 23.4775C193.087 23.569 193.126 23.655 193.183 23.7275C193.261 23.798 193.358 23.8427 193.462 23.8555C193.637 23.8904 193.816 23.8976 193.994 23.8768H193.995C194.042 23.8731 194.089 23.8664 194.135 23.8567C194.411 23.8056 194.673 23.6926 194.899 23.5261C195.046 23.487 195.194 23.455 195.343 23.4301C195.349 23.4295 195.355 23.4283 195.361 23.4266C195.953 25.2999 196.03 27.3083 196.515 29.216C196.756 30.1651 197.1 31.1024 197.148 32.0787C197.152 32.1214 197.153 32.1652 197.154 32.2091C197.161 32.5231 197.137 32.8394 197.15 33.1523C197.154 33.2931 197.17 33.4334 197.197 33.5717C197.25 33.7942 197.316 34.0134 197.395 34.2282L197.398 34.2388C197.421 34.3075 197.442 34.3775 197.46 34.4474C197.473 34.4983 197.485 34.5481 197.494 34.599L197.495 34.6026C197.583 35.1262 197.596 35.6595 197.534 36.1868Z" fill="#FBBEBE"/>
<path d="M189.23 23.935C193.086 23.935 196.211 20.8051 196.211 16.9441C196.211 13.0831 193.086 9.95312 189.23 9.95312C185.375 9.95312 182.25 13.0831 182.25 16.9441C182.25 20.8051 185.375 23.935 189.23 23.935Z" fill="#FBBEBE"/>
<path d="M233.551 55.0342C233.349 53.1268 232.672 51.3009 231.583 49.7234C231.764 50.8017 231.945 51.8795 232.127 52.957C231.901 53.0225 231.661 53.0205 231.436 52.9513C231.211 52.882 231.011 52.7485 230.861 52.5672C230.567 52.1996 230.342 51.7817 230.197 51.3337C229.404 49.362 228.367 47.4978 227.11 45.7848C222.666 45.4139 218.273 43.569 214.364 41.4184C210.455 39.269 206.797 36.6918 202.939 34.4512C202.271 34.0464 201.574 33.69 200.854 33.3847C199.648 32.9001 198.293 32.6489 197.149 32.079C197.072 32.0411 196.995 32.0008 196.919 31.9593C196.661 31.8185 196.416 31.6539 196.188 31.4676C196.065 31.3674 195.948 31.2598 195.838 31.1453C195.267 30.4802 194.814 29.7219 194.499 28.9034C193.885 27.5432 193.666 25.9021 193.053 24.5418C193.335 24.2782 193.652 24.0545 193.994 23.8771H193.995C194.045 23.851 194.095 23.8261 194.146 23.8024C194.388 23.688 194.64 23.5956 194.899 23.5263C195.046 23.4872 195.194 23.4552 195.343 23.4304C195.349 23.4297 195.355 23.4286 195.361 23.4268C196.052 23.314 196.76 23.3701 197.425 23.5903C198.398 23.9197 199.218 24.5773 200.036 25.1994C201.364 26.1365 202.638 27.1485 203.851 28.2304C204.526 28.8773 205.141 29.5883 205.867 30.176C206.469 30.6419 207.105 31.0636 207.768 31.4379C211.693 33.7793 215.618 36.1203 219.543 38.4609C220.872 39.2536 222.202 40.0463 223.501 40.8852C225.475 42.1602 227.377 43.5417 229.279 44.9222C230.399 45.735 231.519 46.5482 232.639 47.3619C233.007 47.5966 233.329 47.8951 233.592 48.2435C233.824 48.6389 233.968 49.0799 234.014 49.5362C234.295 51.3797 234.137 53.2637 233.551 55.0342Z" fill="#FBBEBE"/>
<path d="M199.265 41.4443C198.794 43.5593 196.66 44.8379 195.544 46.6958C194.157 49.0016 194.723 51.6818 195.244 54.323C194.292 55.1441 193.341 55.9653 192.388 56.7864C191.863 57.2379 191.338 57.6917 190.772 58.091C189.948 58.6444 189.086 59.14 188.193 59.5745C187.35 60.0082 186.508 60.4422 185.665 60.8767C184.882 61.3177 184.052 61.6698 183.191 61.9265C181.531 62.3531 179.768 62.0545 178.126 61.5604C177.932 61.5095 177.746 61.4334 177.572 61.3341C177.47 61.2729 177.381 61.1919 177.31 61.0959C177.148 60.8052 177.089 60.4682 177.143 60.1397C177.31 57.3718 177.985 54.6619 178.658 51.9721C179.018 50.3585 179.502 48.7751 180.106 47.2361C180.697 45.9174 181.378 44.6403 182.142 43.4136C182.985 41.8702 183.984 40.4174 185.124 39.078C185.678 38.5625 186.145 37.9598 186.506 37.2935C186.926 36.3338 186.763 35.233 186.849 34.1879C186.914 33.4027 187.122 32.6361 187.463 31.9259V31.9247C187.645 31.5422 187.865 31.1787 188.118 30.8394C188.233 31.1072 188.348 31.3746 188.463 31.6416C188.538 31.8169 188.613 31.9919 188.687 32.1665C188.784 32.3916 188.881 32.616 188.976 32.8395C189.252 33.4817 189.527 34.1236 189.802 34.765C190.099 35.5729 190.522 36.3284 191.056 37.0033C191.3 37.3489 191.63 37.6252 192.012 37.8052C192.394 37.9853 192.817 38.0629 193.238 38.0305C193.66 37.9982 194.066 37.857 194.416 37.6206C194.767 37.3843 195.05 37.0609 195.239 36.6822C195.637 35.9751 195.925 35.2116 196.093 34.4178C196.327 33.4513 196.359 32.4469 196.188 31.4674C195.903 29.581 195.102 27.6544 194.519 25.9019C194.282 25.3176 194.145 24.6975 194.114 24.0677C194.115 23.9969 194.122 23.9263 194.135 23.8567C194.138 23.839 194.142 23.82 194.146 23.8022C194.388 23.6879 194.64 23.5955 194.899 23.5262C195.046 23.4871 195.194 23.4551 195.343 23.4302C195.855 26.2076 196.368 28.985 196.882 31.7624C196.894 31.8276 196.907 31.8928 196.919 31.9591C196.992 32.3572 197.067 32.7554 197.15 33.1523C197.224 33.5125 197.305 33.8716 197.395 34.2282L197.398 34.2389C197.429 34.3598 197.461 34.4794 197.494 34.5991L197.495 34.6026C197.586 34.9297 197.688 35.2543 197.803 35.5743C198.499 37.5021 199.711 39.443 199.265 41.4443Z" fill="#6C5CE7"/>
<path d="M227.597 71.1674C227.575 71.5749 227.653 71.9814 227.826 72.3511C228.263 73.1507 229.311 73.3325 230.218 73.4073C235.517 73.8435 240.849 73.6808 246.111 72.9223C246.397 72.9028 246.674 72.8167 246.92 72.6709C247.669 72.1456 247.207 70.8653 246.39 70.4554C245.573 70.0455 244.604 70.1443 243.707 69.9668C242.817 69.7423 241.969 69.374 241.196 68.8762C239.378 67.8302 237.587 66.7397 235.822 65.6046C234.771 64.9288 233.531 64.2076 232.347 64.6083C229.142 65.6943 227.576 67.7044 227.597 71.1674Z" fill="#3F3D56"/>
<path d="M188.534 31.2509V31.2521C188.525 31.3018 188.517 31.3504 188.506 31.399C188.493 31.4796 188.478 31.5613 188.463 31.6419C188.316 32.3943 188.136 33.1432 187.929 33.8873C187.361 35.9431 186.6 37.9657 185.845 39.9587C183.82 45.3027 181.794 50.647 179.767 55.9917C179.256 57.3377 178.746 58.685 178.165 60.0038C177.971 60.4434 177.771 60.8865 177.572 61.3344C176.86 62.9376 176.176 64.5929 175.949 66.2992C175.737 67.4221 175.713 68.5724 175.877 69.7034C176.104 70.8219 176.782 71.9144 177.843 72.328C178.361 72.5306 179.103 72.8019 178.961 73.341C178.884 73.6373 178.548 73.7818 178.247 73.8316C177.848 73.8952 177.441 73.8702 177.053 73.7584C176.665 73.6466 176.307 73.4507 176.003 73.1847C175.436 72.6811 175.001 71.8978 174.247 71.8137C173.726 71.7569 173.245 72.0697 172.767 72.2889C170.817 73.1811 168.545 72.5566 166.497 71.9227C166.658 71.0921 167.491 70.5447 168.318 70.3788C169.145 70.2117 170.001 70.3302 170.844 70.3077C171.115 70.3221 171.383 70.2531 171.612 70.1098C171.818 69.9206 171.962 69.6737 172.026 69.4012C172.57 67.7887 172.974 66.1325 173.235 64.4507C173.507 62.6935 173.62 60.909 174.008 59.1732C174.31 57.8188 174.776 56.5071 175.176 55.1777C175.95 52.4404 176.585 49.6657 177.079 46.8644C177.329 45.7005 177.508 44.5225 177.615 43.3369C177.682 42.3534 177.65 41.3652 177.745 40.3853C177.904 39.1104 178.169 37.8512 178.539 36.6209C178.901 35.2784 179.263 33.9367 179.624 32.5957C180.16 30.611 180.735 28.5493 182.093 27.0065C182.565 26.4634 183.143 26.0231 183.792 25.7129C184.44 25.4027 185.146 25.2292 185.864 25.2031C186.134 25.2028 186.402 25.2318 186.665 25.2896C186.709 25.3003 186.753 25.3109 186.797 25.3228C187.083 25.3979 187.358 25.5119 187.614 25.6617C188.033 25.3951 188.246 25.4887 188.524 25.8998C188.768 26.335 188.883 26.8307 188.855 27.3288C188.879 28.6437 188.771 29.9575 188.534 31.2509Z" fill="#FBBEBE"/>
<path d="M188.994 32.8218L188.976 32.8395L188.88 32.9355L187.929 33.887L187.463 31.926L185.864 25.2028C186.134 25.2025 186.402 25.2315 186.665 25.2893C186.677 25.2123 186.695 25.1365 186.721 25.063L186.797 25.3225L187.339 27.1686L188.364 30.6735L188.534 31.2506V31.2517L188.994 32.8218Z" fill="#6C5CE7"/>
<path d="M195.031 11.3735C195.03 11.996 194.906 12.6123 194.668 13.1871C194.429 13.7618 194.079 14.2839 193.639 14.7233C193.48 14.8832 193.309 15.0313 193.128 15.1663C192.311 15.7827 191.317 16.1163 190.294 16.1168H184.618C183.363 16.1148 182.161 15.6145 181.275 14.7256C180.388 13.8367 179.891 12.6319 179.891 11.3758C179.891 10.1196 180.388 8.91486 181.275 8.02596C182.161 7.13706 183.363 6.6367 184.618 6.63477H190.294C191.548 6.63804 192.751 7.13819 193.638 8.02603C194.525 8.91387 195.026 10.1173 195.031 11.3735Z" fill="#2F2E41"/>
<path d="M200.353 11.7304C203.032 11.7304 205.204 9.55533 205.204 6.87227C205.204 4.18921 203.032 2.01416 200.353 2.01416C197.673 2.01416 195.501 4.18921 195.501 6.87227C195.501 9.55533 197.673 11.7304 200.353 11.7304Z" fill="#2F2E41"/>
<path opacity="0.1" d="M200.234 2.01465C200.175 2.01465 200.116 2.01701 200.057 2.01914C201.312 2.06483 202.5 2.59619 203.372 3.50143C204.243 4.40667 204.731 5.6152 204.731 6.87276C204.731 8.13032 204.243 9.33885 203.372 10.2441C202.5 11.1493 201.312 11.6807 200.057 11.7264C200.116 11.7285 200.175 11.7309 200.234 11.7309C201.521 11.7309 202.755 11.219 203.665 10.308C204.574 9.39689 205.086 8.16121 205.086 6.87276C205.086 5.58431 204.574 4.34863 203.665 3.43756C202.755 2.52649 201.521 2.01465 200.234 2.01465Z" fill="black"/>
<path opacity="0.1" d="M177.162 2.01465C177.221 2.01465 177.28 2.01701 177.339 2.01914C176.084 2.06483 174.896 2.59619 174.024 3.50143C173.152 4.40667 172.665 5.6152 172.665 6.87276C172.665 8.13032 173.152 9.33885 174.024 10.2441C174.896 11.1493 176.084 11.6807 177.339 11.7264C177.28 11.7285 177.221 11.7309 177.162 11.7309C175.876 11.7297 174.643 11.2174 173.734 10.3064C172.825 9.3955 172.315 8.16047 172.315 6.87276C172.315 5.58505 172.825 4.35002 173.734 3.43907C174.643 2.52812 175.876 2.01578 177.162 2.01465Z" fill="black"/>
<path opacity="0.1" d="M193.127 15.166C192.311 15.7824 191.316 16.116 190.294 16.1165H184.617C183.595 16.116 182.6 15.7824 181.784 15.166H193.127Z" fill="black"/>
<path d="M229.784 50.3677C229.784 50.3677 231.007 53.8967 232.127 52.9571L231.235 48.3442L229.784 50.3677Z" fill="#FBBEBE"/>
<path d="M378.607 157.987C379.747 158.402 380.966 158.546 382.17 158.408C383.375 158.27 384.53 157.854 385.547 157.192C386.563 156.531 387.412 155.642 388.026 154.596C388.641 153.55 389.005 152.375 389.088 151.164C389.172 149.953 388.974 148.74 388.51 147.619C388.046 146.497 387.328 145.5 386.412 144.704C385.497 143.908 384.41 143.336 383.236 143.033C382.063 142.729 380.835 142.703 379.65 142.956L379.845 146.99L377.94 143.533C376.069 144.413 374.624 146.001 373.922 147.948C373.673 148.629 373.522 149.343 373.472 150.068C373.352 151.767 373.788 153.46 374.715 154.889C375.641 156.318 377.008 157.406 378.607 157.987Z" fill="#57B894"/>
<path d="M388.037 204.773C387.365 201.342 390.28 198.301 393.159 196.324C396.039 194.347 399.403 192.405 400.386 189.05C401.797 184.228 397.592 179.813 394.318 176.005C391.889 173.179 389.804 170.075 388.105 166.758C387.424 165.428 386.798 164.037 386.619 162.553C386.361 160.416 387.046 158.289 387.737 156.25C390.038 149.459 392.498 142.725 395.118 136.048" stroke="#3F3D56" stroke-miterlimit="10"/>
<path d="M378.93 156.948C380.069 157.363 381.289 157.507 382.493 157.369C383.697 157.231 384.853 156.815 385.869 156.154C386.885 155.492 387.734 154.604 388.349 153.557C388.964 152.511 389.327 151.337 389.411 150.126C389.495 148.915 389.297 147.701 388.833 146.58C388.368 145.459 387.65 144.461 386.735 143.665C385.82 142.869 384.733 142.297 383.559 141.994C382.386 141.691 381.158 141.665 379.972 141.918L380.168 145.952L378.262 142.495C376.392 143.375 374.947 144.962 374.245 146.909C373.996 147.591 373.844 148.305 373.795 149.029C373.675 150.729 374.111 152.421 375.038 153.85C375.964 155.279 377.331 156.367 378.93 156.948V156.948Z" stroke="#3F3D56" stroke-miterlimit="10"/>
<path d="M387.081 134.655C387.528 133.42 388.278 132.317 389.262 131.448C390.247 130.58 391.434 129.973 392.713 129.685L393.358 133.52L394.552 129.492C396.211 129.517 397.819 130.069 399.144 131.068C400.469 132.068 401.443 133.463 401.924 135.053C402.406 136.642 402.371 138.344 401.824 139.912C401.276 141.481 400.246 142.834 398.88 143.778C397.515 144.721 395.885 145.206 394.227 145.161C392.569 145.117 390.967 144.546 389.654 143.53C388.341 142.515 387.384 141.108 386.922 139.513C386.459 137.918 386.515 136.216 387.081 134.655H387.081Z" fill="#57B894"/>
<path d="M387.511 133.27C387.958 132.035 388.708 130.932 389.692 130.064C390.677 129.195 391.864 128.589 393.144 128.3L393.788 132.135L394.983 128.107C396.641 128.132 398.249 128.684 399.574 129.683C400.899 130.683 401.873 132.078 402.355 133.668C402.836 135.258 402.801 136.959 402.254 138.528C401.707 140.096 400.676 141.449 399.31 142.393C397.945 143.336 396.316 143.821 394.657 143.776C392.999 143.732 391.398 143.161 390.085 142.146C388.771 141.13 387.815 139.724 387.352 138.128C386.889 136.533 386.945 134.832 387.511 133.27H387.511Z" stroke="#3F3D56" stroke-miterlimit="10"/>
<path d="M392.945 176.083C394.751 176.739 396.735 176.707 398.52 175.992C400.304 175.277 401.763 173.93 402.619 172.207C403.475 170.484 403.668 168.506 403.161 166.649C402.654 164.793 401.483 163.188 399.871 162.141L398.953 165.236L398.302 161.356C398.295 161.353 398.289 161.351 398.282 161.349C397.316 160.997 396.29 160.84 395.263 160.885C394.235 160.931 393.227 161.178 392.296 161.614C391.365 162.05 390.528 162.665 389.834 163.425C389.14 164.185 388.603 165.074 388.252 166.042C387.902 167.01 387.745 168.037 387.791 169.066C387.837 170.094 388.085 171.103 388.521 172.036C388.957 172.968 389.572 173.806 390.331 174.5C391.09 175.194 391.978 175.732 392.945 176.083H392.945Z" fill="#57B894"/>
<path d="M393.317 174.68C395.123 175.336 397.108 175.304 398.892 174.589C400.676 173.874 402.135 172.527 402.991 170.804C403.847 169.081 404.04 167.103 403.533 165.246C403.026 163.39 401.855 161.786 400.243 160.738L399.325 163.834L398.674 159.954C398.667 159.95 398.661 159.948 398.654 159.946C397.688 159.594 396.662 159.437 395.635 159.482C394.608 159.528 393.599 159.776 392.668 160.211C391.737 160.647 390.9 161.263 390.206 162.022C389.513 162.782 388.975 163.671 388.624 164.639C388.274 165.607 388.117 166.634 388.163 167.663C388.209 168.691 388.457 169.7 388.893 170.633C389.329 171.565 389.944 172.403 390.703 173.097C391.462 173.792 392.35 174.329 393.317 174.68H393.317Z" stroke="#3F3D56" stroke-miterlimit="10"/>
<path d="M384.797 189.098C385.108 190.867 386.016 192.477 387.371 193.655C388.726 194.834 390.444 195.51 392.238 195.57C394.031 195.631 395.791 195.072 397.221 193.987C398.652 192.903 399.667 191.358 400.096 189.613C400.525 187.868 400.341 186.029 399.577 184.403C398.812 182.778 397.512 181.465 395.895 180.685C394.279 179.905 392.443 179.705 390.697 180.12C388.951 180.534 387.4 181.537 386.305 182.961L389.792 188.216L385.028 185.427C384.658 186.614 384.579 187.873 384.797 189.098Z" fill="#57B894"/>
<path d="M385.119 188.059C385.43 189.829 386.339 191.438 387.693 192.617C389.048 193.795 390.766 194.471 392.56 194.532C394.353 194.592 396.113 194.033 397.544 192.949C398.975 191.864 399.989 190.32 400.418 188.575C400.847 186.83 400.664 184.99 399.899 183.365C399.134 181.739 397.834 180.426 396.218 179.646C394.601 178.866 392.766 178.667 391.02 179.081C389.273 179.496 387.723 180.499 386.627 181.922L390.114 187.177L385.35 184.388C384.98 185.576 384.901 186.834 385.119 188.059V188.059Z" stroke="#3F3D56" stroke-miterlimit="10"/>
<path d="M3.38701 177.078C4.13542 177.351 4.93679 177.446 5.72796 177.355C6.51913 177.264 7.27847 176.991 7.94614 176.556C8.61381 176.122 9.17155 175.538 9.5754 174.85C9.97925 174.163 10.2182 173.391 10.2733 172.596C10.3285 171.8 10.1984 171.003 9.89327 170.266C9.58815 169.529 9.11636 168.874 8.51508 168.351C7.91381 167.828 7.19948 167.452 6.4284 167.253C5.65733 167.054 4.85058 167.037 4.07176 167.203L4.20046 169.853L2.94834 167.582C1.71945 168.16 0.77009 169.203 0.308872 170.482C0.145074 170.93 0.0454974 171.399 0.013112 171.875C-0.0659224 172.992 0.220688 174.104 0.829511 175.043C1.43833 175.982 2.33619 176.696 3.38701 177.078Z" fill="#57B894"/>
<path d="M9.58267 207.818C9.14067 205.564 11.0559 203.565 12.9478 202.267C14.8396 200.968 17.0502 199.692 17.6957 197.487C18.6234 194.32 15.86 191.419 13.7092 188.917C12.1136 187.06 10.7433 185.021 9.62699 182.841C9.14168 181.985 8.81113 181.05 8.65056 180.078C8.48098 178.674 8.93146 177.277 9.38529 175.938C10.8971 171.476 12.5136 167.051 14.2346 162.664" stroke="#3F3D56" stroke-miterlimit="10"/>
<path d="M3.59869 176.396C4.34709 176.669 5.14846 176.763 5.93963 176.673C6.7308 176.582 7.49014 176.309 8.15781 175.874C8.82547 175.44 9.38321 174.856 9.78706 174.168C10.1909 173.481 10.4298 172.709 10.485 171.914C10.5402 171.118 10.4101 170.321 10.1049 169.584C9.79981 168.847 9.32802 168.192 8.72675 167.669C8.12547 167.146 7.41114 166.77 6.64007 166.571C5.869 166.372 5.06225 166.355 4.28343 166.521L4.41213 169.171L3.16001 166.9C1.93113 167.478 0.98176 168.521 0.520542 169.8C0.356746 170.248 0.257171 170.717 0.224784 171.193C0.145744 172.31 0.432353 173.422 1.04118 174.361C1.65 175.3 2.54785 176.014 3.59869 176.396V176.396Z" stroke="#3F3D56" stroke-miterlimit="10"/>
<path d="M8.95407 161.748C9.24778 160.937 9.74072 160.212 10.3875 159.642C11.0342 159.071 11.814 158.673 12.655 158.483L13.0783 161.003L13.8632 158.356C14.953 158.373 16.0095 158.735 16.8801 159.392C17.7507 160.049 18.3904 160.965 18.7068 162.01C19.0232 163.054 19 164.172 18.6405 165.203C18.281 166.233 17.6038 167.122 16.7067 167.742C15.8095 168.362 14.7389 168.68 13.6494 168.651C12.5599 168.622 11.5078 168.247 10.6451 167.58C9.78239 166.913 9.15367 165.988 8.84972 164.94C8.54577 163.892 8.58231 162.774 8.95407 161.748Z" fill="#57B894"/>
<path d="M9.23655 160.839C9.53025 160.027 10.0232 159.303 10.67 158.732C11.3167 158.161 12.0965 157.763 12.9374 157.573L13.3608 160.093L14.1457 157.447C15.2355 157.463 16.292 157.826 17.1626 158.482C18.0332 159.139 18.6728 160.056 18.9893 161.1C19.3057 162.145 19.2825 163.263 18.9229 164.293C18.5634 165.323 17.8862 166.213 16.9891 166.833C16.092 167.452 15.0214 167.771 13.9319 167.742C12.8424 167.712 11.7903 167.337 10.9276 166.67C10.0649 166.003 9.43614 165.079 9.13219 164.031C8.82824 162.982 8.86478 161.865 9.23655 160.839V160.839Z" stroke="#3F3D56" stroke-miterlimit="10"/>
<path d="M12.8065 188.968C13.9934 189.399 15.2972 189.377 16.4694 188.908C17.6417 188.438 18.6003 187.553 19.1627 186.421C19.7251 185.289 19.8519 183.989 19.5188 182.77C19.1858 181.55 18.4163 180.496 17.357 179.808L16.7539 181.841L16.3262 179.292C16.322 179.29 16.3176 179.288 16.3132 179.287C15.6783 179.056 15.0042 178.952 14.3293 178.982C13.6544 179.012 12.992 179.175 12.38 179.461C11.768 179.747 11.2183 180.152 10.7623 180.651C10.3064 181.15 9.95311 181.734 9.72274 182.37C9.49238 183.006 9.38941 183.681 9.41973 184.357C9.45005 185.033 9.61306 185.696 9.89944 186.309C10.1858 186.921 10.59 187.472 11.0888 187.928C11.5876 188.384 12.1713 188.737 12.8065 188.968Z" fill="#57B894"/>
<path d="M13.0513 188.046C14.2382 188.477 15.542 188.456 16.7142 187.986C17.8864 187.517 18.8451 186.632 19.4075 185.5C19.9699 184.368 20.0966 183.068 19.7636 181.848C19.4306 180.629 18.6611 179.574 17.6018 178.886L16.9987 180.92L16.571 178.371C16.5668 178.369 16.5624 178.367 16.5579 178.366C15.9232 178.135 15.2494 178.032 14.5748 178.062C13.9003 178.092 13.2384 178.255 12.6267 178.542C11.3915 179.12 10.4363 180.166 9.97128 181.45C9.50627 182.734 9.56952 184.15 10.1471 185.387C10.7247 186.624 11.7694 187.581 13.0513 188.046V188.046Z" stroke="#3F3D56" stroke-miterlimit="10"/>
<path d="M7.4535 197.519C7.65758 198.682 8.25472 199.739 9.14479 200.513C10.0349 201.287 11.1637 201.732 12.3421 201.771C13.5204 201.811 14.6766 201.444 15.6166 200.731C16.5567 200.019 17.2235 199.004 17.5052 197.858C17.787 196.711 17.6665 195.503 17.164 194.434C16.6615 193.366 15.8075 192.504 14.7454 191.991C13.6832 191.479 12.4773 191.348 11.3301 191.62C10.1829 191.892 9.16398 192.551 8.44433 193.487L10.7352 196.94L7.60501 195.107C7.36231 195.887 7.31035 196.714 7.4535 197.519Z" fill="#57B894"/>
<path d="M7.66542 196.836C7.86949 197.999 8.46664 199.056 9.35671 199.83C10.2468 200.605 11.3756 201.049 12.554 201.089C13.7323 201.129 14.8885 200.761 15.8285 200.049C16.7686 199.336 17.4354 198.322 17.7172 197.175C17.9989 196.029 17.8784 194.82 17.3759 193.752C16.8734 192.684 16.0195 191.821 14.9573 191.309C13.8951 190.796 12.6893 190.665 11.542 190.938C10.3948 191.21 9.37589 191.869 8.65624 192.804L10.9471 196.257L7.81692 194.424C7.57422 195.204 7.52226 196.032 7.66542 196.836V196.836Z" stroke="#3F3D56" stroke-miterlimit="10"/>
<path d="M180.849 128.452C184.379 128.452 187.241 124.743 187.241 120.167C187.241 115.592 184.379 111.883 180.849 111.883C177.318 111.883 174.456 115.592 174.456 120.167C174.456 124.743 177.318 128.452 180.849 128.452Z" fill="#2F2E41"/>
<path d="M215.631 128.64C219.161 128.64 222.023 124.931 222.023 120.356C222.023 115.78 219.161 112.071 215.631 112.071C212.101 112.071 209.239 115.78 209.239 120.356C209.239 124.931 212.101 128.64 215.631 128.64Z" fill="#2F2E41"/>
<path d="M210.743 144.832C210.743 148.575 205.523 151.61 199.086 151.61C192.648 151.61 187.429 148.575 187.429 144.832C187.429 141.59 191.343 138.878 196.574 138.216C197.407 138.106 198.246 138.052 199.086 138.054C200.493 138.049 201.897 138.201 203.271 138.506C207.64 139.481 210.743 141.947 210.743 144.832Z" fill="#2F2E41"/>
<path d="M182.353 126.569C185.883 126.569 188.745 122.86 188.745 118.284C188.745 113.709 185.883 110 182.353 110C178.822 110 175.96 113.709 175.96 118.284C175.96 122.86 178.822 126.569 182.353 126.569Z" stroke="#3F3D56" stroke-miterlimit="10"/>
<path d="M217.135 126.757C220.666 126.757 223.528 123.048 223.528 118.473C223.528 113.898 220.666 110.188 217.135 110.188C213.605 110.188 210.743 113.898 210.743 118.473C210.743 123.048 213.605 126.757 217.135 126.757Z" stroke="#3F3D56" stroke-miterlimit="10"/>
<path d="M200.59 149.727C207.028 149.727 212.247 146.692 212.247 142.949C212.247 139.206 207.028 136.171 200.59 136.171C194.152 136.171 188.933 139.206 188.933 142.949C188.933 146.692 194.152 149.727 200.59 149.727Z" stroke="#3F3D56" stroke-miterlimit="10"/>
<path d="M203.41 139.071C203.413 139.544 203.236 140.001 202.914 140.348C202.762 140.514 202.577 140.647 202.371 140.738C202.165 140.83 201.943 140.877 201.718 140.878H197.958C197.494 140.862 197.056 140.663 196.739 140.324C196.422 139.986 196.252 139.535 196.266 139.071C196.264 138.704 196.371 138.344 196.574 138.039C197.406 137.921 198.246 137.864 199.086 137.866C200.495 137.861 201.9 138.023 203.271 138.348C203.364 138.577 203.411 138.823 203.41 139.071Z" fill="white"/>
<path d="M182.353 117.908C183.391 117.908 184.233 117.065 184.233 116.025C184.233 114.985 183.391 114.142 182.353 114.142C181.314 114.142 180.472 114.985 180.472 116.025C180.472 117.065 181.314 117.908 182.353 117.908Z" fill="white"/>
<path d="M217.323 117.908C218.361 117.908 219.203 117.065 219.203 116.025C219.203 114.985 218.361 114.142 217.323 114.142C216.285 114.142 215.443 114.985 215.443 116.025C215.443 117.065 216.285 117.908 217.323 117.908Z" fill="white"/>
<path opacity="0.3" d="M219.203 135.606C220.242 135.606 221.083 134.763 221.083 133.724C221.083 132.684 220.242 131.841 219.203 131.841C218.165 131.841 217.323 132.684 217.323 133.724C217.323 134.763 218.165 135.606 219.203 135.606Z" fill="#6C63FF"/>
<path opacity="0.3" d="M173.328 135.606C174.366 135.606 175.208 134.763 175.208 133.724C175.208 132.684 174.366 131.841 173.328 131.841C172.29 131.841 171.448 132.684 171.448 133.724C171.448 134.763 172.29 135.606 173.328 135.606Z" fill="#6C63FF"/>
</g>
<defs>
<clipPath id="clip0">
<rect width="404" height="220" fill="white"/>
</clipPath>
</defs>
</svg>
