<svg width="24" height="24" viewBox="0 0 24 24" fill="none" xmlns="http://www.w3.org/2000/svg">
<path d="M0 19V5C0 2.23858 2.23858 0 5 0H15.7233C16.2537 0 16.7624 0.210714 17.1375 0.585787L23.4142 6.86249C23.7893 7.23756 24 7.74627 24 8.2767V19C24 21.7614 21.7614 24 19 24H5C2.23858 24 0 21.7614 0 19Z" fill="white"/>
<path d="M18.4 7.79999H23.4L16.4 0.799988V5.79999C16.4 6.90456 17.2955 7.79999 18.4 7.79999Z" fill="#E5E5E5"/>
<path d="M16.0517 0.5V6.44828C16.0517 7.2767 16.7233 7.94828 17.5517 7.94828H23.5V19C23.5 21.4853 21.4853 23.5 19 23.5H5C2.51472 23.5 0.5 21.4853 0.5 19V5C0.5 2.51472 2.51472 0.5 5 0.5H16.0517ZM17.0517 6.44828V1.20711L22.7929 6.94828H17.5517C17.2756 6.94828 17.0517 6.72442 17.0517 6.44828Z" stroke="#647696"/>
<path d="M6.40002 16.8H7.1023V15.1636H8.05684C9.13639 15.1636 9.67048 14.5114 9.67048 13.6523C9.67048 12.7954 9.14093 12.1454 8.05912 12.1454H6.40002V16.8ZM7.1023 14.5682V12.7477H7.98412C8.67957 12.7477 8.96366 13.125 8.96366 13.6523C8.96366 14.1795 8.67957 14.5682 7.99321 14.5682H7.1023Z" fill="#647696"/>
<path d="M12.0002 16.8C13.4184 16.8 14.2388 15.9204 14.2388 14.4659C14.2388 13.0182 13.4184 12.1454 12.0479 12.1454H10.4934V16.8H12.0002ZM11.1957 16.1864V12.7591H12.0048C13.0229 12.7591 13.5479 13.3682 13.5479 14.4659C13.5479 15.5682 13.0229 16.1864 11.9616 16.1864H11.1957Z" fill="#647696"/>
<path d="M15.1118 16.8H15.814V14.7704H17.7913V14.1682H15.814V12.75H17.9981V12.1454H15.1118V16.8Z" fill="#647696"/>
</svg>
