<svg width="60" height="60" viewBox="0 0 60 60" fill="none" xmlns="http://www.w3.org/2000/svg">
<path d="M39.0858 2H9.5C8.94772 2 8.5 2.44771 8.5 3V57C8.5 57.5523 8.94772 58 9.5 58H50.5C51.0523 58 51.5 57.5523 51.5 57V14.4142C51.5 14.149 51.3946 13.8946 51.2071 13.7071L39.7929 2.29289C39.6054 2.10536 39.351 2 39.0858 2Z" fill="white"/>
<path fill-rule="evenodd" clip-rule="evenodd" d="M7.5 3C7.5 1.89543 8.39543 1 9.5 1H39.0858C39.6162 1 40.1249 1.21071 40.5 1.58579L51.9142 13L51.2071 13.7071L51.9142 13C52.2893 13.3751 52.5 13.8838 52.5 14.4142V57C52.5 58.1046 51.6046 59 50.5 59H9.5C8.39543 59 7.5 58.1046 7.5 57V3ZM39.0858 3L9.5 3V57H50.5V14.4142L39.0858 3Z" fill="#647696"/>
<path fill-rule="evenodd" clip-rule="evenodd" d="M38.5 13V2H40.5V13H51.5V15H40.5C39.3954 15 38.5 14.1046 38.5 13Z" fill="#647696"/>
<path fill-rule="evenodd" clip-rule="evenodd" d="M51.5 42H8.5V40H51.5V42Z" fill="#647696"/>
<path d="M22.797 45.82C22.464 45.547 22.088 45.341 21.669 45.205C21.25 45.068 20.826 45 20.398 45H17.5V55.076H19.141V51.439H20.358C20.886 51.439 21.37 51.362 21.807 51.207C22.244 51.052 22.618 50.833 22.928 50.551C23.238 50.269 23.479 49.92 23.653 49.505C23.826 49.09 23.913 48.628 23.913 48.117C23.913 47.634 23.81 47.199 23.605 46.811C23.4 46.423 23.13 46.094 22.797 45.82ZM22.175 49.149C22.074 49.427 21.943 49.643 21.779 49.798C21.615 49.953 21.435 50.065 21.239 50.133C21.043 50.201 20.844 50.236 20.644 50.236H19.14V46.244H20.37C20.789 46.244 21.126 46.31 21.382 46.442C21.637 46.574 21.835 46.738 21.977 46.934C22.118 47.13 22.211 47.335 22.257 47.549C22.302 47.763 22.325 47.952 22.325 48.116C22.325 48.527 22.275 48.871 22.175 49.149Z" fill="#647696"/>
<path d="M32.7089 46.476C32.2849 46.03 31.7519 45.671 31.1089 45.403C30.4659 45.135 29.7209 45 28.8739 45H25.8389V55.076H29.6529C29.7799 55.076 29.9759 55.06 30.2409 55.028C30.5049 54.996 30.7969 54.924 31.1159 54.809C31.4349 54.695 31.7649 54.524 32.1069 54.296C32.4489 54.068 32.7559 53.756 33.0299 53.359C33.3039 52.962 33.5289 52.47 33.7069 51.882C33.8849 51.294 33.9739 50.585 33.9739 49.756C33.9739 49.154 33.8689 48.568 33.6599 47.999C33.4489 47.431 33.1329 46.923 32.7089 46.476ZM31.5129 52.806C31.0209 53.517 30.2189 53.872 29.1069 53.872H27.4799V46.243H28.4369C29.2209 46.243 29.8589 46.346 30.3509 46.551C30.8429 46.756 31.2329 47.025 31.5199 47.358C31.8069 47.691 31.9999 48.062 32.1009 48.472C32.2009 48.882 32.2509 49.297 32.2509 49.716C32.2509 51.065 32.0049 52.096 31.5129 52.806Z" fill="#647696"/>
<path d="M36.3528 55.076H38.0208V50.537H42.2318V49.416H38.0208V46.244H42.6548V45H36.3528V55.076Z" fill="#647696"/>
<path d="M38.428 24.961C37.509 24.961 36.381 25.081 35.07 25.319C33.24 23.377 31.33 20.541 29.982 17.757C31.319 12.128 30.65 11.331 30.355 10.955C30.041 10.555 29.598 9.90601 29.094 9.90601C28.883 9.90601 28.307 10.002 28.078 10.078C27.502 10.27 27.192 10.714 26.944 11.293C26.237 12.946 27.207 15.764 28.205 17.936C27.352 21.329 25.921 25.39 24.417 28.686C20.627 30.422 18.614 32.127 18.432 33.754C18.366 34.346 18.506 35.215 19.547 35.996C19.832 36.209 20.166 36.322 20.514 36.322C21.389 36.322 22.273 35.652 23.296 34.215C24.042 33.167 24.843 31.738 25.679 29.964C28.357 28.793 31.67 27.735 34.507 27.142C36.087 28.659 37.502 29.427 38.718 29.427C39.614 29.427 40.382 29.015 40.938 28.236C41.517 27.425 41.649 26.699 41.328 26.076C40.943 25.327 39.994 24.961 38.428 24.961ZM20.536 34.634C20.068 34.275 20.095 34.033 20.105 33.942C20.167 33.386 21.038 32.399 23.175 31.198C21.555 34.19 20.685 34.587 20.536 34.634ZM28.736 11.712C28.779 11.698 29.781 12.813 28.832 14.928C27.406 13.469 28.638 11.745 28.736 11.712ZM26.669 27.738C27.684 25.319 28.628 22.648 29.343 20.174C30.466 22.192 31.815 24.15 33.165 25.718C31.031 26.219 28.759 26.926 26.669 27.738ZM39.57 27.259C39.262 27.69 38.594 27.7 38.36 27.7C37.827 27.7 37.628 27.383 36.813 26.756C37.485 26.67 38.119 26.648 38.624 26.648C39.513 26.648 39.676 26.779 39.799 26.845C39.777 26.916 39.719 27.05 39.57 27.259Z" fill="#647696"/>
</svg>
