<svg width="60" height="60" viewBox="0 0 60 60" fill="none" xmlns="http://www.w3.org/2000/svg">
<path d="M0 52V8C0 3.58172 3.58173 0 8.00001 0H40.5509C41.0813 0 41.59 0.210714 41.9651 0.585787L59.4142 18.0349C59.7893 18.41 60 18.9187 60 19.4491V52C60 56.4183 56.4183 60 52 60H8C3.58172 60 0 56.4183 0 52Z" fill="white"/>
<path d="M43 19.5H58.5L41 2V17.5C41 18.6046 41.8954 19.5 43 19.5Z" fill="#E5E5E5"/>
<path d="M1 52V8C1 4.13401 4.13401 1 8.00001 1H40.5509C40.8161 1 41.0705 1.10536 41.258 1.29289L58.7071 18.742C58.8946 18.9295 59 19.1839 59 19.4491V52C59 55.866 55.866 59 52 59H8C4.13401 59 1 55.866 1 52Z" stroke="#647696" stroke-width="2"/>
<path d="M41 1V17C41 18.1046 41.8954 19 43 19H59" stroke="#647696" stroke-width="2"/>
<path d="M16 42H17.7557V37.9091H20.142C22.8409 37.9091 24.1761 36.2784 24.1761 34.1307C24.1761 31.9886 22.8523 30.3636 20.1477 30.3636H16V42ZM17.7557 36.4205V31.8693H19.9602C21.6989 31.8693 22.4091 32.8125 22.4091 34.1307C22.4091 35.4489 21.6989 36.4205 19.983 36.4205H17.7557Z" fill="#647696"/>
<path d="M30.0005 42C33.5459 42 35.5971 39.8011 35.5971 36.1648C35.5971 32.5455 33.5459 30.3636 30.1198 30.3636H26.2334V42H30.0005ZM27.9891 40.4659V31.8977H30.0118C32.5573 31.8977 33.8698 33.4205 33.8698 36.1648C33.8698 38.9205 32.5573 40.4659 29.9039 40.4659H27.9891Z" fill="#647696"/>
<path d="M37.7793 42H39.535V36.9261H44.4782V35.4205H39.535V31.875H44.9952V30.3636H37.7793V42Z" fill="#647696"/>
</svg>
