<svg width="12" height="12" viewBox="0 0 12 12" fill="none" xmlns="http://www.w3.org/2000/svg">
<path fill-rule="evenodd" clip-rule="evenodd" d="M5.50574 6.99995C5.49822 6.96547 5.49425 6.92965 5.49425 6.89291V2.92293C5.49425 1.3045 6.79879 0 8.41723 0H9.07701C10.6955 0 12 1.3045 12 2.92293C12 4.54137 10.6955 5.84587 9.07701 5.84587H6.50574V9.07707C6.50574 10.6955 5.2012 12 3.58276 12H2.92298C1.30301 12 0 10.6826 0 9.07707C0 7.45863 1.30454 6.15413 2.92298 6.15413H4.16291V7.15413H2.92298C1.85681 7.15413 1 8.01094 1 9.07707C1 10.1334 1.85833 11 2.92298 11H3.58276C4.64893 11 5.50574 10.1432 5.50574 9.07707V6.99995ZM6.49425 2.92293C6.49425 1.8568 7.35106 1 8.41723 1H9.07701C10.1432 1 11 1.8568 11 2.92293C11 3.98907 10.1432 4.84587 9.07701 4.84587H6.50574V3.82169H6.49425V2.92293Z" fill="#A9B6CB"/>
</svg>
