<svg width="40" height="40" viewBox="0 0 40 40" fill="none" xmlns="http://www.w3.org/2000/svg">
<path d="M31 24.6985V24.6985V28.7809C31 29.5758 30.4554 30 30.0465 30H28.2749V22.7717C28.2749 22.5107 28.2603 22.2531 28.2318 22H28.7442C29.8712 22 31 23.0878 31 24.6985Z" stroke="#647696" stroke-width="2"/>
<path d="M11.7682 22C11.7397 22.2531 11.7251 22.5107 11.7251 22.7716V30H9.95347C9.54459 30 9 29.5758 9 28.7809V24.6985C9 23.0878 10.1288 22 11.2558 22H11.7682Z" stroke="#647696" stroke-width="2"/>
<path d="M17.7212 20H22.2788C23.7784 20 25 21.2216 25 22.7212V30H15V22.7212C15 21.2216 16.2216 20 17.7212 20Z" stroke="#647696" stroke-width="2"/>
<path d="M12.7655 17.9379L12.7655 17.9379C12.9151 17.658 13 17.3397 13 17C13 15.8981 12.1019 15 11 15C9.89805 15 9 15.8981 9 17C9 18.1019 9.89805 19 11 19C11.2803 19 11.5455 18.9422 11.7867 18.8383L12.7655 17.9379ZM12.7655 17.9379C12.5514 18.3383 12.2049 18.6583 11.7868 18.8383L12.7655 17.9379Z" fill="white" stroke="#647696" stroke-width="2"/>
<path d="M22.8362 15.5546L22.8362 15.5546C23.0682 15.1206 23.2 14.6264 23.2 14.1C23.2 12.3916 21.8085 11 20.1 11C18.3915 11 17 12.3915 17 14.1C17 15.8085 18.3915 17.2 20.1 17.2C20.5341 17.2 20.9459 17.1103 21.3202 16.9492L22.8362 15.5546ZM22.8362 15.5546C22.5047 16.1747 21.9685 16.6701 21.3203 16.9492L22.8362 15.5546Z" fill="white" stroke="#647696" stroke-width="2"/>
<path d="M29.9839 17.8119L29.9839 17.8119C30.1422 17.5158 30.232 17.1789 30.232 16.8195C30.232 15.6537 29.2819 14.7035 28.116 14.7035C26.9501 14.7035 26 15.6536 26 16.8195C26 17.9855 26.9501 18.9356 28.116 18.9356C28.4125 18.9356 28.6932 18.8744 28.9485 18.7645L29.9839 17.8119ZM29.9839 17.8119C29.7575 18.2356 29.3909 18.574 28.9485 18.7645L29.9839 17.8119Z" fill="white" stroke="#647696" stroke-width="2"/>
</svg>
