<svg width="100" height="100" viewBox="0 0 100 100" fill="none" xmlns="http://www.w3.org/2000/svg">
<path d="M33.0552 53.2668C32.7696 54.3855 32.6178 55.5566 32.6178 56.7616V75.7603C32.6178 76.0575 32.6377 76.3502 32.676 76.6371H25.6299C23.0778 76.6371 21 74.5592 21 72.0072V61.6501C21 57.0284 24.7616 53.2668 29.3832 53.2668H33.0552Z" fill="#EDF1F7" stroke="#EDF1F7" stroke-width="2"/>
<path d="M66.9593 53.5C67.2417 54.5979 67.3918 55.7469 67.3918 56.9291V75.6506C67.3918 75.9384 67.3727 76.2219 67.3358 76.5H74.374C76.9372 76.5 79 74.4458 79 71.9522V61.7463C79 57.2133 75.2546 53.5 70.6234 53.5H66.9593Z" fill="#EDF1F7" stroke="#EDF1F7" stroke-width="2"/>
<path d="M45.2525 48.3767H54.7475C58.307 48.3767 61.5 51.9239 61.5 56.6797V75.5161C61.5 75.8082 61.4008 76.0437 61.2777 76.1916C61.1562 76.3373 61.0359 76.3767 60.9495 76.3767H39.0505C38.9642 76.3767 38.8438 76.3373 38.7224 76.1915C38.5991 76.0437 38.5 75.8081 38.5 75.5161V56.6797C38.5 51.9239 41.693 48.3767 45.2525 48.3767Z" fill="#EDF1F7" stroke="#EDF1F7" stroke-width="2"/>
<path d="M50 23.5C45.0383 23.5 41 27.5382 41 32.5001C41 35.8632 42.8555 38.8044 45.6032 40.3502L50 23.5ZM50 23.5C54.9617 23.5 59 27.5383 59 32.5001C59 35.8631 57.1446 38.8045 54.3968 40.3502C53.0959 41.0819 51.5971 41.5 50 41.5C48.4029 41.5 46.9041 41.0819 45.6032 40.3502L50 23.5Z" fill="#EDF1F7" stroke="#EDF1F7" stroke-width="2"/>
<path d="M36.7491 44.9475L36.7491 44.9475C35.9545 46.4342 34.6697 47.6213 33.1137 48.2912C32.2144 48.6783 31.2246 48.8938 30.1836 48.8938C26.0823 48.8938 22.7443 45.5557 22.7443 41.4545C22.7443 37.3532 26.0823 34.0151 30.1836 34.0151C34.2848 34.0151 37.6229 37.3533 37.6229 41.4545C37.6229 42.7172 37.3062 43.9052 36.7491 44.9475Z" fill="#EDF1F7" stroke="#EDF1F7" stroke-width="2"/>
<path d="M63.2485 44.9475L63.2484 44.9474C62.6914 43.9054 62.3746 42.7174 62.3746 41.4545C62.3746 37.3532 65.7127 34.0151 69.814 34.0151C73.9152 34.0151 77.2533 37.3532 77.2533 41.4545C77.2533 45.5557 73.9152 48.8938 69.814 48.8938C68.7729 48.8938 67.7831 48.6783 66.8838 48.2912C65.3278 47.6214 64.0431 46.4343 63.2485 44.9475Z" fill="#EDF1F7" stroke="#EDF1F7" stroke-width="2"/>
</svg>
