<svg xmlns="http://www.w3.org/2000/svg" width="40" height="40" viewBox="0 0 40 40" fill="none">
<path d="M20 31C26.0751 31 31 26.0751 31 20C31 13.9249 26.0751 9 20 9C13.9249 9 9 13.9249 9 20C9 26.0751 13.9249 31 20 31Z" fill="white" stroke="#647696" stroke-width="2"/>
<path d="M14.25 27C14.25 25.7574 13.2426 24.75 12 24.75C10.7574 24.75 9.75 25.7574 9.75 27C9.75 28.2426 10.7574 29.25 12 29.25C13.2426 29.25 14.25 28.2426 14.25 27Z" fill="white" stroke="#647696" stroke-width="1.5"/>
<path d="M31 17.75H27C26.8619 17.75 26.75 17.8619 26.75 18V22C26.75 22.1381 26.8619 22.25 27 22.25H31C31.1381 22.25 31.25 22.1381 31.25 22V18C31.25 17.8619 31.1381 17.75 31 17.75Z" fill="white" stroke="#647696" stroke-width="1.5"/>
<path d="M14.6683 14.75H9.33165C9.13385 14.75 9.01439 14.5312 9.12135 14.3648L11.7897 10.2141C11.8881 10.061 12.1119 10.061 12.2103 10.2141L14.8786 14.3648C14.9856 14.5312 14.8661 14.75 14.6683 14.75Z" fill="white" stroke="#647696" stroke-width="1.5"/>
<path d="M18.6359 20H21.8641C22.8233 20 23.5 20.7214 23.5 21.4808V26H17V21.4808C17 20.7214 17.6767 20 18.6359 20Z" fill="white" stroke="#647696" stroke-width="2" stroke-linecap="round" stroke-linejoin="round"/>
<path d="M22.5 15.25C22.5 15.6321 22.4044 15.9904 22.2361 16.3053C21.9954 16.7557 21.6056 17.1155 21.1352 17.3181C20.8638 17.4349 20.5652 17.5 20.25 17.5C19.0102 17.5 18 16.4898 18 15.25C18 14.0102 19.0102 13 20.25 13C21.4898 13 22.5 14.0102 22.5 15.25Z" stroke="#647696" stroke-width="2"/>
</svg>