<svg width="40" height="40" viewBox="0 0 40 40" fill="none" xmlns="http://www.w3.org/2000/svg">
<path d="M26.875 31H13.125C10.8466 31 9 29.1534 9 26.875V13.125C9 10.8466 10.8466 9 13.125 9H26.875C29.1534 9 31 10.8466 31 13.125V26.875C31 29.1534 29.1534 31 26.875 31Z" fill="#6F5FE7" stroke="#6F5FE7" stroke-width="2"/>
<path d="M19.7622 11.7318C19.8371 11.5014 20.1629 11.5014 20.2378 11.7318L21.9645 17.0461C21.998 17.1491 22.094 17.2188 22.2023 17.2188H27.7901C28.0323 17.2188 28.133 17.5288 27.937 17.6711L23.4164 20.9555C23.3288 21.0192 23.2921 21.132 23.3256 21.2351L25.0523 26.5494C25.1271 26.7797 24.8635 26.9712 24.6676 26.8289L20.1469 23.5445C20.0593 23.4808 19.9407 23.4808 19.8531 23.5445L15.3324 26.8289C15.1365 26.9712 14.8729 26.7797 14.9477 26.5494L16.6744 21.2351C16.7079 21.132 16.6712 21.0192 16.5836 20.9555L12.063 17.6711C11.867 17.5288 11.9677 17.2188 12.2099 17.2188H17.7977C17.906 17.2188 18.002 17.1491 18.0355 17.0461L19.7622 11.7318Z" fill="white" stroke="white" stroke-width="2"/>
</svg>
