<svg width="46" height="46" viewBox="0 0 46 46" fill="none" xmlns="http://www.w3.org/2000/svg">
<path fill-rule="evenodd" clip-rule="evenodd" d="M26.7575 12.415C26.7575 10.2097 28.5203 8.44698 30.7255 8.44698H32.9244C35.1296 8.44698 36.8924 10.2097 36.8924 12.415C36.8924 14.6203 35.1296 16.383 32.9244 16.383H26.7954V15.41H26.7575V12.415ZM18.5814 26.2066C18.5563 26.0233 18.5434 25.8361 18.5434 25.646V12.415C18.5434 5.67324 23.9838 0.23291 30.7255 0.23291H32.9244C39.6661 0.23291 45.1064 5.67324 45.1064 12.415C45.1064 19.1568 39.6661 24.5971 32.9244 24.5971H26.7954V32.9249C26.7954 39.6666 21.3551 45.107 14.6133 45.107H12.4145C5.66021 45.107 0.232422 39.6162 0.232422 32.9249C0.232422 26.1831 5.67275 20.7428 12.4145 20.7428H16.5468V28.9569H12.4145C10.2093 28.9569 8.44649 30.7196 8.44649 32.9249C8.44649 35.1048 10.2218 36.8929 12.4145 36.8929H14.6133C16.8186 36.8929 18.5814 35.1301 18.5814 32.9249V26.2066Z" fill="#FF61B6"/>
</svg>
