<svg width="100" height="100" viewBox="0 0 100 100" fill="none" xmlns="http://www.w3.org/2000/svg">
<circle cx="50" cy="50" r="26.75" fill="white" stroke="#EDF1F7" stroke-width="4"/>
<rect x="21.7322" y="59.9463" width="13.5" height="13.5" rx="6.75" fill="#EDF1F7" stroke="#EDF1F7" stroke-width="1.5"/>
<mask id="path-4-inside-1" fill="white">
<rect x="65" y="42.5" width="15" height="15" rx="1"/>
</mask>
<rect x="65" y="42.5" width="15" height="15" rx="1" fill="#EDF1F7" stroke="#EDF1F7" stroke-width="3" mask="url(#path-4-inside-1)"/>
<path d="M39.4183 38H20.5817C20.3839 38 20.2644 37.7812 20.3714 37.6148L29.7897 22.9641C29.8881 22.811 30.1119 22.811 30.2103 22.9641L39.6286 37.6148C39.7356 37.7812 39.6161 38 39.4183 38Z" fill="#EDF1F7" stroke="#EDF1F7" stroke-width="1.5"/>
<path d="M43.4999 38.8514C43.4999 35.2211 46.4856 32.25 50.1735 32.25C53.8614 32.25 56.8472 35.2212 56.8472 38.8514C56.8472 41.3126 55.4765 43.471 53.4369 44.6075C52.472 45.1452 51.3598 45.4527 50.1735 45.4527C48.9873 45.4527 47.8751 45.1452 46.9102 44.6075C44.8707 43.471 43.4999 41.3127 43.4999 38.8514Z" fill="#EDF1F7" stroke="#EDF1F7" stroke-width="2"/>
<path d="M46.5896 49.9526H54.6603C57.8015 49.9526 60.2499 52.3395 60.2499 55.1418V67.6732C60.2499 67.7179 60.2325 67.7697 60.1793 67.8196C60.1251 67.8705 60.04 67.9111 59.932 67.9111H41.3179C41.2099 67.9111 41.1248 67.8705 41.0706 67.8196C41.0174 67.7696 40.9999 67.7178 40.9999 67.6732V55.1418C40.9999 52.3395 43.4483 49.9526 46.5896 49.9526Z" fill="#EDF1F7" stroke="#EDF1F7" stroke-width="2" stroke-linecap="round" stroke-linejoin="round"/>
</svg>
