<svg width="100" height="100" viewBox="0 0 100 100" fill="none" xmlns="http://www.w3.org/2000/svg">
<path d="M66.5 77H31.5C25.7005 77 21 72.2995 21 66.5V31.5C21 25.7005 25.7005 21 31.5 21H66.5C72.2995 21 77 25.7005 77 31.5V66.5C77 72.2995 72.2995 77 66.5 77Z" fill="#EDF1F7" stroke="#EDF1F7" stroke-width="2"/>
<path d="M31.2926 43.2597L31.2926 43.2597L31.2962 43.2594L42.8551 42.4126C43.0472 42.3985 43.2142 42.2753 43.2843 42.0958L47.694 30.805L47.6941 30.805L47.6959 30.8002C48.0215 29.9403 48.7677 29.5 49.5 29.5C50.2323 29.5 50.9785 29.9403 51.3041 30.8002L51.3041 30.8002L51.306 30.805L55.7157 42.0958C55.7858 42.2753 55.9528 42.3985 56.1449 42.4126L67.7038 43.2594L67.7074 43.2597C68.5327 43.3142 69.1506 43.8978 69.3933 44.6666C69.6352 45.4331 69.4779 46.31 68.8144 46.9006C68.8135 46.9015 68.8126 46.9023 68.8116 46.9031L59.7974 54.6606C59.6563 54.782 59.5944 54.9716 59.6365 55.1528L62.3735 66.9272C62.6516 68.4239 61.6339 69.5 60.5912 69.5C60.2985 69.5 59.9305 69.3938 59.6096 69.1678C59.6045 69.1642 59.5993 69.1607 59.594 69.1573L49.7055 62.7356C49.5389 62.6274 49.3241 62.6281 49.1583 62.7373L39.4033 69.159L39.3904 69.1678C39.0695 69.3938 38.7015 69.5 38.4088 69.5C37.2653 69.5 36.2373 68.3978 36.6204 66.9526C36.6219 66.947 36.6233 66.9413 36.6246 66.9357L39.2972 55.2214C39.338 55.0421 39.2773 54.8549 39.1389 54.7339L30.1884 46.9031C30.1879 46.9027 30.1875 46.9023 30.1871 46.9019C29.5224 46.3113 29.3647 45.4337 29.6067 44.6666C29.8494 43.8978 30.4673 43.3142 31.2926 43.2597Z" fill="white" stroke="#EDF1F7" stroke-linecap="round" stroke-linejoin="round"/>
</svg>
