<svg width="16" height="16" viewBox="0 0 16 16" fill="none" xmlns="http://www.w3.org/2000/svg">
<path fill-rule="evenodd" clip-rule="evenodd" d="M2.80602 14.159C4.35557 14.159 5.61184 12.9027 5.61184 11.353C5.61184 9.96317 4.59989 8.81237 3.27366 8.58924L3.27366 8.07955C3.27366 8.07955 3.27507 5.89525 5.20392 5.38168C5.46945 6.65509 6.59782 7.61209 7.95002 7.61209C9.30223 7.61209 10.4306 6.65509 10.6963 5.38186C12.6252 5.89507 12.6266 8.07955 12.6266 8.07955V8.58941C11.3002 8.81254 10.2884 9.96335 10.2884 11.3532C10.2884 12.9027 11.5447 14.1592 13.0942 14.1592C14.6437 14.1592 15.9 12.9027 15.9 11.353C15.9 9.96317 14.8883 8.81237 13.5618 8.58924C13.5618 8.42017 13.5618 8.24986 13.5618 8.07938C13.5618 5.54103 11.8404 4.72571 10.7329 4.46319C10.5635 3.07583 9.38332 2.0001 7.95002 2.0001C6.51673 2.0001 5.33642 3.07583 5.167 4.46337C4.05965 4.72589 2.33821 5.54138 2.33821 8.07955C2.33821 8.25004 2.33821 8.42034 2.33821 8.58941C1.0118 8.81237 2.47955e-05 9.96335 2.47955e-05 11.353C2.47955e-05 12.9027 1.2563 14.159 2.80602 14.159ZM14.9648 11.353C14.9648 12.3862 14.1272 13.2237 13.0942 13.2237C12.0612 13.2237 11.2237 12.3862 11.2237 11.353C11.2237 10.32 12.0612 9.48246 13.0942 9.48246C14.1272 9.48246 14.9648 10.3202 14.9648 11.353Z" fill="#647696"/>
<circle cx="13.0607" cy="11.3698" r="2.33929" fill="white" stroke="#A9B6CB"/>
</svg>
