<svg width="100" height="100" viewBox="0 0 100 100" fill="none" xmlns="http://www.w3.org/2000/svg">
<mask id="path-2-inside-1_538:125538" fill="white">
<rect x="20" y="38" width="18" height="24" rx="1"/>
</mask>
<rect x="20" y="38" width="18" height="24" rx="1" fill="#EDF1F7" stroke="#EDF1F7" stroke-width="4" mask="url(#path-2-inside-1_538:125538)"/>
<mask id="path-3-inside-2_538:125538" fill="white">
<rect x="59" y="20" width="21" height="21" rx="1"/>
</mask>
<rect x="59" y="20" width="21" height="21" rx="1" fill="#EDF1F7" stroke="#EDF1F7" stroke-width="4" mask="url(#path-3-inside-2_538:125538)"/>
<mask id="path-4-inside-3_538:125538" fill="white">
<rect x="59" y="59" width="21" height="21" rx="1"/>
</mask>
<rect x="59" y="59" width="21" height="21" rx="1" fill="#EDF1F7" stroke="#EDF1F7" stroke-width="4" mask="url(#path-4-inside-3_538:125538)"/>
<rect x="38" y="47" width="9" height="6" fill="#EDF1F7"/>
<path fill-rule="evenodd" clip-rule="evenodd" d="M45 26C44.4477 26 44 26.4477 44 27V73C44 73.5523 44.4477 74 45 74H48H50H65V68H50V32H65V26H50H48H45Z" fill="#EDF1F7"/>
</svg>