<svg width="24" height="24" viewBox="0 0 24 24" fill="none" xmlns="http://www.w3.org/2000/svg">
<path fill-rule="evenodd" clip-rule="evenodd" d="M11.0115 13.9999C10.9964 13.9309 10.9885 13.8593 10.9885 13.7858V5.84587C10.9885 2.609 13.5976 0 16.8345 0H18.154C21.3909 0 24 2.609 24 5.84587C24 9.08274 21.3909 11.6917 18.154 11.6917H13.0115V18.1541C13.0115 21.391 10.4024 24 7.16552 24H5.84596C2.60602 24 0 21.3652 0 18.1541C0 14.9173 2.60908 12.3083 5.84596 12.3083H8.32582V14.3083H5.84596C3.71361 14.3083 2 16.0219 2 18.1541C2 20.2667 3.71666 22 5.84596 22H7.16552C9.29787 22 11.0115 20.2864 11.0115 18.1541V13.9999ZM12.9885 5.84587C12.9885 3.71361 14.7021 2 16.8345 2H18.154C20.2864 2 22 3.71361 22 5.84587C22 7.97813 20.2864 9.69174 18.154 9.69174H13.0115V7.64338H12.9885V5.84587Z" fill="#647696"/>
</svg>
