<svg width="12" height="13" viewBox="0 0 12 13" fill="none" xmlns="http://www.w3.org/2000/svg">
<path fill-rule="evenodd" clip-rule="evenodd" d="M3.64441 3.1953C2.61978 3.89593 2 5.21793 2 6.41447C2 6.73801 2.27966 7 2.625 7H5.375L5.37497 10.8289L5.99997 12L6.62498 10.8289L6.625 7H9.375C9.72035 7 10 6.73801 10 6.41447C10 5.21763 9.37984 3.89529 8.35485 3.19461L9.21751 0.77136C9.28165 0.592354 9.2491 0.395515 9.13227 0.243283C9.01465 0.0907831 8.82577 0 8.62499 0H3.37496C3.17414 0 2.98566 0.0903444 2.86803 0.242798C2.75108 0.395174 2.71831 0.591605 2.78176 0.770524L3.64441 3.1953ZM4.24184 1.17105L4.98434 3.25817C5.07937 3.52646 4.95666 3.82127 4.69081 3.95706C3.99137 4.31557 3.50157 5.133 3.32386 5.82895H8.67618C8.49842 5.13262 8.00814 4.31491 7.30801 3.95668C7.04265 3.82066 6.91912 3.52619 7.01489 3.25744L7.75768 1.17105H4.24184Z" fill="#475161"/>
<path d="M4.9847 3.25802C5.07973 3.52631 4.95702 3.82111 4.69117 3.9569C3.99173 4.31541 3.50192 5.13285 3.32422 5.82879H8.67654C8.49878 5.13246 8.0085 4.31475 7.30837 3.95653C7.04301 3.82051 6.91948 3.52603 7.01525 3.25729L7.75803 1.1709H4.2422L4.9847 3.25802Z" fill="#475161"/>
</svg>
