<svg width="60" height="60" viewBox="0 0 60 60" fill="none" xmlns="http://www.w3.org/2000/svg">
<path d="M39.0858 2H9.5C8.94772 2 8.5 2.44771 8.5 3V57C8.5 57.5523 8.94772 58 9.5 58H50.5C51.0523 58 51.5 57.5523 51.5 57V14.4142C51.5 14.149 51.3946 13.8946 51.2071 13.7071L39.7929 2.29289C39.6054 2.10536 39.351 2 39.0858 2Z" fill="white"/>
<path fill-rule="evenodd" clip-rule="evenodd" d="M7.5 3C7.5 1.89543 8.39543 1 9.5 1H39.0858C39.6162 1 40.1249 1.21071 40.5 1.58579L51.9142 13L51.2071 13.7071L51.9142 13C52.2893 13.3751 52.5 13.8838 52.5 14.4142V57C52.5 58.1046 51.6046 59 50.5 59H9.5C8.39543 59 7.5 58.1046 7.5 57V3ZM39.0858 3L9.5 3V57H50.5V14.4142L39.0858 3Z" fill="#647696"/>
<path fill-rule="evenodd" clip-rule="evenodd" d="M38.5 13V2H40.5V13H51.5V15H40.5C39.3954 15 38.5 14.1046 38.5 13Z" fill="#647696"/>
<path fill-rule="evenodd" clip-rule="evenodd" d="M51.5 42H8.5V40H51.5V42Z" fill="#647696"/>
<path fill-rule="evenodd" clip-rule="evenodd" d="M24.1529 26.3284C24.9471 25.6583 26.1221 25.708 26.8568 26.4427L37.2071 36.793C37.5977 37.1835 37.5977 37.8167 37.2071 38.2072C36.8166 38.5978 36.1834 38.5978 35.7929 38.2072L25.4426 27.8569L10.1449 40.7644C9.72279 41.1206 9.09188 41.0671 8.73573 40.645C8.37958 40.2229 8.43304 39.592 8.85515 39.2358L24.1529 26.3284Z" fill="#647696"/>
<path fill-rule="evenodd" clip-rule="evenodd" d="M40.0747 20.578C40.8292 19.7516 42.1149 19.7051 42.9272 20.4746L51.6877 28.7741C52.0887 29.1539 52.1058 29.7869 51.726 30.1878C51.3461 30.5887 50.7132 30.6058 50.3123 30.226L41.5517 21.9265L31.7385 32.6743C31.3661 33.0822 30.7336 33.1109 30.3257 32.7385C29.9179 32.3661 29.8891 31.7336 30.2615 31.3258L40.0747 20.578Z" fill="#647696"/>
<path d="M20.069 24.638C23.14 24.638 25.638 22.14 25.638 19.069C25.638 15.998 23.14 13.5 20.069 13.5C16.998 13.5 14.5 15.998 14.5 19.069C14.5 22.14 16.998 24.638 20.069 24.638ZM20.069 15.5C22.037 15.5 23.638 17.101 23.638 19.069C23.638 21.037 22.037 22.638 20.069 22.638C18.101 22.638 16.5 21.037 16.5 19.069C16.5 17.101 18.101 15.5 20.069 15.5Z" fill="#647696"/>
<path d="M12 6C12.5523 6 13 5.55228 13 5C13 4.44772 12.5523 4 12 4C11.4477 4 11 4.44772 11 5C11 5.55228 11.4477 6 12 6Z" fill="#647696"/>
<path d="M12 12C12.5523 12 13 11.5523 13 11C13 10.4477 12.5523 10 12 10C11.4477 10 11 10.4477 11 11C11 11.5523 11.4477 12 12 12Z" fill="#647696"/>
<path d="M12 18C12.5523 18 13 17.5523 13 17C13 16.4477 12.5523 16 12 16C11.4477 16 11 16.4477 11 17C11 17.5523 11.4477 18 12 18Z" fill="#647696"/>
<path d="M12 24C12.5523 24 13 23.5523 13 23C13 22.4477 12.5523 22 12 22C11.4477 22 11 22.4477 11 23C11 23.5523 11.4477 24 12 24Z" fill="#647696"/>
<path d="M12 30C12.5523 30 13 29.5523 13 29C13 28.4477 12.5523 28 12 28C11.4477 28 11 28.4477 11 29C11 29.5523 11.4477 30 12 30Z" fill="#647696"/>
<path d="M12 36C12.5523 36 13 35.5523 13 35C13 34.4477 12.5523 34 12 34C11.4477 34 11 34.4477 11 35C11 35.5523 11.4477 36 12 36Z" fill="#647696"/>
<path d="M10 9C10.5523 9 11 8.55228 11 8C11 7.44772 10.5523 7 10 7C9.44772 7 9 7.44772 9 8C9 8.55228 9.44772 9 10 9Z" fill="#647696"/>
<path d="M10 15C10.5523 15 11 14.5523 11 14C11 13.4477 10.5523 13 10 13C9.44772 13 9 13.4477 9 14C9 14.5523 9.44772 15 10 15Z" fill="#647696"/>
<path d="M10 21C10.5523 21 11 20.5523 11 20C11 19.4477 10.5523 19 10 19C9.44772 19 9 19.4477 9 20C9 20.5523 9.44772 21 10 21Z" fill="#647696"/>
<path d="M10 27C10.5523 27 11 26.5523 11 26C11 25.4477 10.5523 25 10 25C9.44772 25 9 25.4477 9 26C9 26.5523 9.44772 27 10 27Z" fill="#647696"/>
<path d="M10 33C10.5523 33 11 32.5523 11 32C11 31.4477 10.5523 31 10 31C9.44772 31 9 31.4477 9 32C9 32.5523 9.44772 33 10 33Z" fill="#647696"/>
<path d="M10 39C10.5523 39 11 38.5523 11 38C11 37.4477 10.5523 37 10 37C9.44772 37 9 37.4477 9 38C9 38.5523 9.44772 39 10 39Z" fill="#647696"/>
<path d="M15 6C15.5523 6 16 5.55228 16 5C16 4.44772 15.5523 4 15 4C14.4477 4 14 4.44772 14 5C14 5.55228 14.4477 6 15 6Z" fill="#647696"/>
<path d="M15 12C15.5523 12 16 11.5523 16 11C16 10.4477 15.5523 10 15 10C14.4477 10 14 10.4477 14 11C14 11.5523 14.4477 12 15 12Z" fill="#647696"/>
<path d="M15 18C15.5523 18 16 17.5523 16 17C16 16.4477 15.5523 16 15 16C14.4477 16 14 16.4477 14 17C14 17.5523 14.4477 18 15 18Z" fill="#647696"/>
<path d="M15 24C15.5523 24 16 23.5523 16 23C16 22.4477 15.5523 22 15 22C14.4477 22 14 22.4477 14 23C14 23.5523 14.4477 24 15 24Z" fill="#647696"/>
<path d="M15 30C15.5523 30 16 29.5523 16 29C16 28.4477 15.5523 28 15 28C14.4477 28 14 28.4477 14 29C14 29.5523 14.4477 30 15 30Z" fill="#647696"/>
<path d="M15 36C15.5523 36 16 35.5523 16 35C16 34.4477 15.5523 34 15 34C14.4477 34 14 34.4477 14 35C14 35.5523 14.4477 36 15 36Z" fill="#647696"/>
<path d="M13 9C13.5523 9 14 8.55228 14 8C14 7.44772 13.5523 7 13 7C12.4477 7 12 7.44772 12 8C12 8.55228 12.4477 9 13 9Z" fill="#647696"/>
<path d="M13 15C13.5523 15 14 14.5523 14 14C14 13.4477 13.5523 13 13 13C12.4477 13 12 13.4477 12 14C12 14.5523 12.4477 15 13 15Z" fill="#647696"/>
<path d="M13 21C13.5523 21 14 20.5523 14 20C14 19.4477 13.5523 19 13 19C12.4477 19 12 19.4477 12 20C12 20.5523 12.4477 21 13 21Z" fill="#647696"/>
<path d="M13 27C13.5523 27 14 26.5523 14 26C14 25.4477 13.5523 25 13 25C12.4477 25 12 25.4477 12 26C12 26.5523 12.4477 27 13 27Z" fill="#647696"/>
<path d="M13 33C13.5523 33 14 32.5523 14 32C14 31.4477 13.5523 31 13 31C12.4477 31 12 31.4477 12 32C12 32.5523 12.4477 33 13 33Z" fill="#647696"/>
<path d="M18 6C18.5523 6 19 5.55228 19 5C19 4.44772 18.5523 4 18 4C17.4477 4 17 4.44772 17 5C17 5.55228 17.4477 6 18 6Z" fill="#647696"/>
<path d="M18 12C18.5523 12 19 11.5523 19 11C19 10.4477 18.5523 10 18 10C17.4477 10 17 10.4477 17 11C17 11.5523 17.4477 12 18 12Z" fill="#647696"/>
<path d="M18 30C18.5523 30 19 29.5523 19 29C19 28.4477 18.5523 28 18 28C17.4477 28 17 28.4477 17 29C17 29.5523 17.4477 30 18 30Z" fill="#647696"/>
<path d="M16 9C16.5523 9 17 8.55228 17 8C17 7.44772 16.5523 7 16 7C15.4477 7 15 7.44772 15 8C15 8.55228 15.4477 9 16 9Z" fill="#647696"/>
<path d="M16 15C16.5523 15 17 14.5523 17 14C17 13.4477 16.5523 13 16 13C15.4477 13 15 13.4477 15 14C15 14.5523 15.4477 15 16 15Z" fill="#647696"/>
<path d="M16 27C16.5523 27 17 26.5523 17 26C17 25.4477 16.5523 25 16 25C15.4477 25 15 25.4477 15 26C15 26.5523 15.4477 27 16 27Z" fill="#647696"/>
<path d="M16 33C16.5523 33 17 32.5523 17 32C17 31.4477 16.5523 31 16 31C15.4477 31 15 31.4477 15 32C15 32.5523 15.4477 33 16 33Z" fill="#647696"/>
<path d="M21 6C21.5523 6 22 5.55228 22 5C22 4.44772 21.5523 4 21 4C20.4477 4 20 4.44772 20 5C20 5.55228 20.4477 6 21 6Z" fill="#647696"/>
<path d="M21 12C21.5523 12 22 11.5523 22 11C22 10.4477 21.5523 10 21 10C20.4477 10 20 10.4477 20 11C20 11.5523 20.4477 12 21 12Z" fill="#647696"/>
<path d="M42 18C42.5523 18 43 17.5523 43 17C43 16.4477 42.5523 16 42 16C41.4477 16 41 16.4477 41 17C41 17.5523 41.4477 18 42 18Z" fill="#647696"/>
<path d="M21 30C21.5523 30 22 29.5523 22 29C22 28.4477 21.5523 28 21 28C20.4477 28 20 28.4477 20 29C20 29.5523 20.4477 30 21 30Z" fill="#647696"/>
<path d="M19 9C19.5523 9 20 8.55228 20 8C20 7.44772 19.5523 7 19 7C18.4477 7 18 7.44772 18 8C18 8.55228 18.4477 9 19 9Z" fill="#647696"/>
<path d="M19 15C19.5523 15 20 14.5523 20 14C20 13.4477 19.5523 13 19 13C18.4477 13 18 13.4477 18 14C18 14.5523 18.4477 15 19 15Z" fill="#647696"/>
<path d="M19 27C19.5523 27 20 26.5523 20 26C20 25.4477 19.5523 25 19 25C18.4477 25 18 25.4477 18 26C18 26.5523 18.4477 27 19 27Z" fill="#647696"/>
<path d="M19 33C19.5523 33 20 32.5523 20 32C20 31.4477 19.5523 31 19 31C18.4477 31 18 31.4477 18 32C18 32.5523 18.4477 33 19 33Z" fill="#647696"/>
<path d="M24 6C24.5523 6 25 5.55228 25 5C25 4.44772 24.5523 4 24 4C23.4477 4 23 4.44772 23 5C23 5.55228 23.4477 6 24 6Z" fill="#647696"/>
<path d="M24 12C24.5523 12 25 11.5523 25 11C25 10.4477 24.5523 10 24 10C23.4477 10 23 10.4477 23 11C23 11.5523 23.4477 12 24 12Z" fill="#647696"/>
<path d="M45 18C45.5523 18 46 17.5523 46 17C46 16.4477 45.5523 16 45 16C44.4477 16 44 16.4477 44 17C44 17.5523 44.4477 18 45 18Z" fill="#647696"/>
<path d="M24 24C24.5523 24 25 23.5523 25 23C25 22.4477 24.5523 22 24 22C23.4477 22 23 22.4477 23 23C23 23.5523 23.4477 24 24 24Z" fill="#647696"/>
<path d="M33 6C33.5523 6 34 5.55228 34 5C34 4.44772 33.5523 4 33 4C32.4477 4 32 4.44772 32 5C32 5.55228 32.4477 6 33 6Z" fill="#647696"/>
<path d="M33 12C33.5523 12 34 11.5523 34 11C34 10.4477 33.5523 10 33 10C32.4477 10 32 10.4477 32 11C32 11.5523 32.4477 12 33 12Z" fill="#647696"/>
<path d="M33 18C33.5523 18 34 17.5523 34 17C34 16.4477 33.5523 16 33 16C32.4477 16 32 16.4477 32 17C32 17.5523 32.4477 18 33 18Z" fill="#647696"/>
<path d="M33 24C33.5523 24 34 23.5523 34 23C34 22.4477 33.5523 22 33 22C32.4477 22 32 22.4477 32 23C32 23.5523 32.4477 24 33 24Z" fill="#647696"/>
<path d="M33 30C33.5523 30 34 29.5523 34 29C34 28.4477 33.5523 28 33 28C32.4477 28 32 28.4477 32 29C32 29.5523 32.4477 30 33 30Z" fill="#647696"/>
<path d="M22 9C22.5523 9 23 8.55228 23 8C23 7.44772 22.5523 7 22 7C21.4477 7 21 7.44772 21 8C21 8.55228 21.4477 9 22 9Z" fill="#647696"/>
<path d="M22 15C22.5523 15 23 14.5523 23 14C23 13.4477 22.5523 13 22 13C21.4477 13 21 13.4477 21 14C21 14.5523 21.4477 15 22 15Z" fill="#647696"/>
<path d="M43 15C43.5523 15 44 14.5523 44 14C44 13.4477 43.5523 13 43 13C42.4477 13 42 13.4477 42 14C42 14.5523 42.4477 15 43 15Z" fill="#647696"/>
<path d="M43 21C43.5523 21 44 20.5523 44 20C44 19.4477 43.5523 19 43 19C42.4477 19 42 19.4477 42 20C42 20.5523 42.4477 21 43 21Z" fill="#647696"/>
<path d="M40 21C40.5523 21 41 20.5523 41 20C41 19.4477 40.5523 19 40 19C39.4477 19 39 19.4477 39 20C39 20.5523 39.4477 21 40 21Z" fill="#647696"/>
<path d="M22 27C22.5523 27 23 26.5523 23 26C23 25.4477 22.5523 25 22 25C21.4477 25 21 25.4477 21 26C21 26.5523 21.4477 27 22 27Z" fill="#647696"/>
<path d="M27 6C27.5523 6 28 5.55228 28 5C28 4.44772 27.5523 4 27 4C26.4477 4 26 4.44772 26 5C26 5.55228 26.4477 6 27 6Z" fill="#647696"/>
<path d="M27 12C27.5523 12 28 11.5523 28 11C28 10.4477 27.5523 10 27 10C26.4477 10 26 10.4477 26 11C26 11.5523 26.4477 12 27 12Z" fill="#647696"/>
<path d="M27 18C27.5523 18 28 17.5523 28 17C28 16.4477 27.5523 16 27 16C26.4477 16 26 16.4477 26 17C26 17.5523 26.4477 18 27 18Z" fill="#647696"/>
<path d="M48 18C48.5523 18 49 17.5523 49 17C49 16.4477 48.5523 16 48 16C47.4477 16 47 16.4477 47 17C47 17.5523 47.4477 18 48 18Z" fill="#647696"/>
<path d="M27 24C27.5523 24 28 23.5523 28 23C28 22.4477 27.5523 22 27 22C26.4477 22 26 22.4477 26 23C26 23.5523 26.4477 24 27 24Z" fill="#647696"/>
<path d="M48 24C48.5523 24 49 23.5523 49 23C49 22.4477 48.5523 22 48 22C47.4477 22 47 22.4477 47 23C47 23.5523 47.4477 24 48 24Z" fill="#647696"/>
<path d="M36 6C36.5523 6 37 5.55228 37 5C37 4.44772 36.5523 4 36 4C35.4477 4 35 4.44772 35 5C35 5.55228 35.4477 6 36 6Z" fill="#647696"/>
<path d="M36 12C36.5523 12 37 11.5523 37 11C37 10.4477 36.5523 10 36 10C35.4477 10 35 10.4477 35 11C35 11.5523 35.4477 12 36 12Z" fill="#647696"/>
<path d="M36 18C36.5523 18 37 17.5523 37 17C37 16.4477 36.5523 16 36 16C35.4477 16 35 16.4477 35 17C35 17.5523 35.4477 18 36 18Z" fill="#647696"/>
<path d="M36 24C36.5523 24 37 23.5523 37 23C37 22.4477 36.5523 22 36 22C35.4477 22 35 22.4477 35 23C35 23.5523 35.4477 24 36 24Z" fill="#647696"/>
<path d="M25 9C25.5523 9 26 8.55228 26 8C26 7.44772 25.5523 7 25 7C24.4477 7 24 7.44772 24 8C24 8.55228 24.4477 9 25 9Z" fill="#647696"/>
<path d="M25 15C25.5523 15 26 14.5523 26 14C26 13.4477 25.5523 13 25 13C24.4477 13 24 13.4477 24 14C24 14.5523 24.4477 15 25 15Z" fill="#647696"/>
<path d="M46 15C46.5523 15 47 14.5523 47 14C47 13.4477 46.5523 13 46 13C45.4477 13 45 13.4477 45 14C45 14.5523 45.4477 15 46 15Z" fill="#647696"/>
<path d="M25 21C25.5523 21 26 20.5523 26 20C26 19.4477 25.5523 19 25 19C24.4477 19 24 19.4477 24 20C24 20.5523 24.4477 21 25 21Z" fill="#647696"/>
<path d="M46 21C46.5523 21 47 20.5523 47 20C47 19.4477 46.5523 19 46 19C45.4477 19 45 19.4477 45 20C45 20.5523 45.4477 21 46 21Z" fill="#647696"/>
<path d="M25 27C25.5523 27 26 26.5523 26 26C26 25.4477 25.5523 25 25 25C24.4477 25 24 25.4477 24 26C24 26.5523 24.4477 27 25 27Z" fill="#647696"/>
<path d="M34 9C34.5523 9 35 8.55228 35 8C35 7.44772 34.5523 7 34 7C33.4477 7 33 7.44772 33 8C33 8.55228 33.4477 9 34 9Z" fill="#647696"/>
<path d="M34 15C34.5523 15 35 14.5523 35 14C35 13.4477 34.5523 13 34 13C33.4477 13 33 13.4477 33 14C33 14.5523 33.4477 15 34 15Z" fill="#647696"/>
<path d="M34 21C34.5523 21 35 20.5523 35 20C35 19.4477 34.5523 19 34 19C33.4477 19 33 19.4477 33 20C33 20.5523 33.4477 21 34 21Z" fill="#647696"/>
<path d="M34 27C34.5523 27 35 26.5523 35 26C35 25.4477 34.5523 25 34 25C33.4477 25 33 25.4477 33 26C33 26.5523 33.4477 27 34 27Z" fill="#647696"/>
<path d="M30 6C30.5523 6 31 5.55228 31 5C31 4.44772 30.5523 4 30 4C29.4477 4 29 4.44772 29 5C29 5.55228 29.4477 6 30 6Z" fill="#647696"/>
<path d="M30 12C30.5523 12 31 11.5523 31 11C31 10.4477 30.5523 10 30 10C29.4477 10 29 10.4477 29 11C29 11.5523 29.4477 12 30 12Z" fill="#647696"/>
<path d="M30 18C30.5523 18 31 17.5523 31 17C31 16.4477 30.5523 16 30 16C29.4477 16 29 16.4477 29 17C29 17.5523 29.4477 18 30 18Z" fill="#647696"/>
<path d="M51 18C51.5523 18 52 17.5523 52 17C52 16.4477 51.5523 16 51 16C50.4477 16 50 16.4477 50 17C50 17.5523 50.4477 18 51 18Z" fill="#647696"/>
<path d="M30 24C30.5523 24 31 23.5523 31 23C31 22.4477 30.5523 22 30 22C29.4477 22 29 22.4477 29 23C29 23.5523 29.4477 24 30 24Z" fill="#647696"/>
<path d="M51 24C51.5523 24 52 23.5523 52 23C52 22.4477 51.5523 22 51 22C50.4477 22 50 22.4477 50 23C50 23.5523 50.4477 24 51 24Z" fill="#647696"/>
<path d="M30 30C30.5523 30 31 29.5523 31 29C31 28.4477 30.5523 28 30 28C29.4477 28 29 28.4477 29 29C29 29.5523 29.4477 30 30 30Z" fill="#647696"/>
<path d="M39 6C39.5523 6 40 5.55228 40 5C40 4.44772 39.5523 4 39 4C38.4477 4 38 4.44772 38 5C38 5.55228 38.4477 6 39 6Z" fill="#647696"/>
<path d="M39 12C39.5523 12 40 11.5523 40 11C40 10.4477 39.5523 10 39 10C38.4477 10 38 10.4477 38 11C38 11.5523 38.4477 12 39 12Z" fill="#647696"/>
<path d="M39 18C39.5523 18 40 17.5523 40 17C40 16.4477 39.5523 16 39 16C38.4477 16 38 16.4477 38 17C38 17.5523 38.4477 18 39 18Z" fill="#647696"/>
<path d="M39 24C39.5523 24 40 23.5523 40 23C40 22.4477 39.5523 22 39 22C38.4477 22 38 22.4477 38 23C38 23.5523 38.4477 24 39 24Z" fill="#647696"/>
<path d="M28 9C28.5523 9 29 8.55228 29 8C29 7.44772 28.5523 7 28 7C27.4477 7 27 7.44772 27 8C27 8.55228 27.4477 9 28 9Z" fill="#647696"/>
<path d="M28 15C28.5523 15 29 14.5523 29 14C29 13.4477 28.5523 13 28 13C27.4477 13 27 13.4477 27 14C27 14.5523 27.4477 15 28 15Z" fill="#647696"/>
<path d="M49 15C49.5523 15 50 14.5523 50 14C50 13.4477 49.5523 13 49 13C48.4477 13 48 13.4477 48 14C48 14.5523 48.4477 15 49 15Z" fill="#647696"/>
<path d="M28 21C28.5523 21 29 20.5523 29 20C29 19.4477 28.5523 19 28 19C27.4477 19 27 19.4477 27 20C27 20.5523 27.4477 21 28 21Z" fill="#647696"/>
<path d="M49 21C49.5523 21 50 20.5523 50 20C50 19.4477 49.5523 19 49 19C48.4477 19 48 19.4477 48 20C48 20.5523 48.4477 21 49 21Z" fill="#647696"/>
<path d="M49 27C49.5523 27 50 26.5523 50 26C50 25.4477 49.5523 25 49 25C48.4477 25 48 25.4477 48 26C48 26.5523 48.4477 27 49 27Z" fill="#647696"/>
<path d="M28 27C28.5523 27 29 26.5523 29 26C29 25.4477 28.5523 25 28 25C27.4477 25 27 25.4477 27 26C27 26.5523 27.4477 27 28 27Z" fill="#647696"/>
<path d="M37 9C37.5523 9 38 8.55228 38 8C38 7.44772 37.5523 7 37 7C36.4477 7 36 7.44772 36 8C36 8.55228 36.4477 9 37 9Z" fill="#647696"/>
<path d="M37 15C37.5523 15 38 14.5523 38 14C38 13.4477 37.5523 13 37 13C36.4477 13 36 13.4477 36 14C36 14.5523 36.4477 15 37 15Z" fill="#647696"/>
<path d="M37 21C37.5523 21 38 20.5523 38 20C38 19.4477 37.5523 19 37 19C36.4477 19 36 19.4477 36 20C36 20.5523 36.4477 21 37 21Z" fill="#647696"/>
<path d="M37 39C37.5523 39 38 38.5523 38 38C38 37.4477 37.5523 37 37 37C36.4477 37 36 37.4477 36 38C36 38.5523 36.4477 39 37 39Z" fill="#647696"/>
<path d="M31 9C31.5523 9 32 8.55228 32 8C32 7.44772 31.5523 7 31 7C30.4477 7 30 7.44772 30 8C30 8.55228 30.4477 9 31 9Z" fill="#647696"/>
<path d="M31 15C31.5523 15 32 14.5523 32 14C32 13.4477 31.5523 13 31 13C30.4477 13 30 13.4477 30 14C30 14.5523 30.4477 15 31 15Z" fill="#647696"/>
<path d="M31 21C31.5523 21 32 20.5523 32 20C32 19.4477 31.5523 19 31 19C30.4477 19 30 19.4477 30 20C30 20.5523 30.4477 21 31 21Z" fill="#647696"/>
<path d="M31 27C31.5523 27 32 26.5523 32 26C32 25.4477 31.5523 25 31 25C30.4477 25 30 25.4477 30 26C30 26.5523 30.4477 27 31 27Z" fill="#647696"/>
<path d="M31 33C31.5523 33 32 32.5523 32 32C32 31.4477 31.5523 31 31 31C30.4477 31 30 31.4477 30 32C30 32.5523 30.4477 33 31 33Z" fill="#647696"/>
<path d="M22.547 45.9821C22.214 45.7091 21.838 45.5031 21.419 45.3671C21 45.2301 20.576 45.1621 20.148 45.1621H17.25V55.2381H18.891V51.6011H20.108C20.636 51.6011 21.12 51.5241 21.557 51.3691C21.994 51.2141 22.368 50.9951 22.678 50.7131C22.988 50.4311 23.229 50.0821 23.403 49.6671C23.576 49.2521 23.663 48.7901 23.663 48.2791C23.663 47.7961 23.56 47.3611 23.355 46.9731C23.15 46.5851 22.88 46.2561 22.547 45.9821ZM21.925 49.3111C21.824 49.5891 21.693 49.8051 21.529 49.9601C21.365 50.1151 21.185 50.2271 20.989 50.2951C20.793 50.3631 20.594 50.3981 20.394 50.3981H18.89V46.4061H20.12C20.539 46.4061 20.876 46.4721 21.132 46.6041C21.387 46.7361 21.585 46.9001 21.727 47.0961C21.868 47.2921 21.961 47.4971 22.007 47.7111C22.052 47.9251 22.075 48.1141 22.075 48.2781C22.075 48.6891 22.025 49.0331 21.925 49.3111Z" fill="#647696"/>
<path d="M31.1529 52.1071L27.2019 45.1621H25.5339V55.2381H27.2019V48.2931L31.1529 55.2381H32.8209V45.1621H31.1529V52.1071Z" fill="#647696"/>
<path d="M39.329 51.164H41.038V53.652C40.965 53.753 40.851 53.83 40.696 53.884C40.541 53.939 40.379 53.982 40.211 54.014C40.042 54.046 39.874 54.069 39.705 54.082C39.536 54.096 39.402 54.103 39.302 54.103C38.974 54.103 38.661 54.026 38.365 53.871C38.069 53.716 37.804 53.479 37.572 53.16C37.34 52.841 37.157 52.431 37.025 51.93C36.893 51.429 36.822 50.836 36.813 50.153C36.822 49.451 36.895 48.859 37.032 48.376C37.169 47.893 37.358 47.499 37.599 47.193C37.84 46.887 38.114 46.672 38.419 46.544C38.724 46.416 39.045 46.353 39.383 46.353C39.684 46.353 39.975 46.413 40.258 46.531C40.54 46.649 40.791 46.841 41.01 47.105L42.145 46.093C41.771 45.729 41.347 45.455 40.874 45.273C40.4 45.09 39.89 45 39.343 45C38.75 45 38.199 45.111 37.689 45.335C37.178 45.559 36.734 45.884 36.356 46.313C35.978 46.742 35.681 47.277 35.467 47.919C35.253 48.562 35.146 49.307 35.146 50.154C35.146 51.001 35.253 51.749 35.467 52.396C35.681 53.043 35.977 53.581 36.356 54.009C36.734 54.438 37.176 54.761 37.682 54.98C38.188 55.199 38.742 55.308 39.343 55.308C39.644 55.308 39.947 55.286 40.252 55.24C40.557 55.194 40.854 55.117 41.141 55.008C41.428 54.899 41.702 54.76 41.961 54.591C42.22 54.422 42.455 54.206 42.665 53.942V50.046H39.329V51.164Z" fill="#647696"/>
</svg>
