<svg width="16" height="16" viewBox="0 0 16 16" fill="none" xmlns="http://www.w3.org/2000/svg">
    <path d="M2.28007 2.28008C2.89301 1.66714 3.88678 1.66714 4.49972 2.28008L13.7199 11.5003C14.3328 12.1132 14.3328 13.107 13.7199 13.7199V13.7199C13.107 14.3329 12.1132 14.3329 11.5003 13.7199L2.28007 4.49973C1.66713 3.88679 1.66713 2.89302 2.28007 2.28008V2.28008Z" fill="#647696" />
    <path d="M13.7199 2.28008C14.3329 2.89302 14.3329 3.88679 13.7199 4.49973L4.49973 13.7199C3.88679 14.3329 2.89302 14.3329 2.28008 13.7199V13.7199C1.66714 13.107 1.66714 12.1132 2.28008 11.5003L11.5003 2.28008C12.1132 1.66715 13.107 1.66715 13.7199 2.28008V2.28008Z" fill="#647696" />
</svg>
