<svg width="60" height="60" viewBox="0 0 60 60" fill="none" xmlns="http://www.w3.org/2000/svg">
<path d="M39.0858 2H9.5C8.94772 2 8.5 2.44771 8.5 3V57C8.5 57.5523 8.94772 58 9.5 58H50.5C51.0523 58 51.5 57.5523 51.5 57V14.4142C51.5 14.149 51.3946 13.8946 51.2071 13.7071L39.7929 2.29289C39.6054 2.10536 39.351 2 39.0858 2Z" fill="white"/>
<path fill-rule="evenodd" clip-rule="evenodd" d="M7.5 3C7.5 1.89543 8.39543 1 9.5 1H39.0858C39.6162 1 40.1249 1.21071 40.5 1.58579L51.9142 13L51.2071 13.7071L51.9142 13C52.2893 13.3751 52.5 13.8838 52.5 14.4142V57C52.5 58.1046 51.6046 59 50.5 59H9.5C8.39543 59 7.5 58.1046 7.5 57V3ZM39.0858 3L9.5 3V57H50.5V14.4142L39.0858 3Z" fill="#647696"/>
<path fill-rule="evenodd" clip-rule="evenodd" d="M38.5 13V2H40.5V13H51.5V15H40.5C39.3954 15 38.5 14.1046 38.5 13Z" fill="#647696"/>
<path fill-rule="evenodd" clip-rule="evenodd" d="M51.5 42H8.5V40H51.5V42Z" fill="#647696"/>
<path d="M20.0809 51.3631H21.2979C21.8259 51.3631 22.3099 51.2861 22.7469 51.1311C23.1839 50.9761 23.5579 50.7571 23.8679 50.4751C24.1779 50.1931 24.4189 49.8441 24.5929 49.4291C24.7659 49.0141 24.8529 48.5521 24.8529 48.0411C24.8529 47.5581 24.7499 47.1231 24.5449 46.7351C24.3399 46.3471 24.0709 46.0171 23.7379 45.7441C23.4049 45.4711 23.0289 45.2651 22.6099 45.1291C22.1909 44.9921 21.7669 44.9241 21.3389 44.9241H18.4399V55.0001H20.0809V51.3631ZM20.0809 46.1681H21.3109C21.7299 46.1681 22.0669 46.2341 22.3229 46.3661C22.5779 46.4981 22.7759 46.6621 22.9179 46.8581C23.0589 47.0541 23.1519 47.2591 23.1979 47.4731C23.2429 47.6871 23.2659 47.8761 23.2659 48.0401C23.2659 48.4501 23.2159 48.7941 23.1159 49.0721C23.0149 49.3501 22.8839 49.5661 22.7199 49.7211C22.5559 49.8761 22.3759 49.9881 22.1799 50.0561C21.9839 50.1241 21.7849 50.1591 21.5849 50.1591H20.0809V46.1681Z" fill="#647696"/>
<path d="M28.3529 51.3631H29.5699C30.0979 51.3631 30.5819 51.2861 31.0189 51.1311C31.4559 50.9761 31.8299 50.7571 32.1399 50.4751C32.4499 50.1931 32.6909 49.8441 32.8649 49.4291C33.0379 49.0141 33.1249 48.5521 33.1249 48.0411C33.1249 47.5581 33.0219 47.1231 32.8169 46.7351C32.6119 46.3471 32.3429 46.0171 32.0099 45.7441C31.6769 45.4711 31.3009 45.2651 30.8819 45.1291C30.4629 44.9921 30.0389 44.9241 29.6109 44.9241H26.7129V55.0001H28.3539V51.3631H28.3529ZM28.3529 46.1681H29.5829C30.0019 46.1681 30.3389 46.2341 30.5949 46.3661C30.8499 46.4981 31.0479 46.6621 31.1899 46.8581C31.3309 47.0541 31.4239 47.2591 31.4699 47.4731C31.5149 47.6871 31.5379 47.8761 31.5379 48.0401C31.5379 48.4501 31.4879 48.7941 31.3879 49.0721C31.2869 49.3501 31.1559 49.5661 30.9919 49.7211C30.8279 49.8761 30.6479 49.9881 30.4519 50.0561C30.2559 50.1241 30.0569 50.1591 29.8569 50.1591H28.3529V46.1681Z" fill="#647696"/>
<path d="M37.444 55.0001H39.099V46.0451H42.106V44.9241H34.437V46.0451H37.444V55.0001Z" fill="#647696"/>
<path d="M22 21C22.5523 21 23 20.5523 23 20C23 19.4477 22.5523 19 22 19C21.4477 19 21 19.4477 21 20C21 20.5523 21.4477 21 22 21Z" fill="#647696"/>
<path d="M22 29C22.5523 29 23 28.5523 23 28C23 27.4477 22.5523 27 22 27C21.4477 27 21 27.4477 21 28C21 28.5523 21.4477 29 22 29Z" fill="#647696"/>
<path d="M22 25C22.5523 25 23 24.5523 23 24C23 23.4477 22.5523 23 22 23C21.4477 23 21 23.4477 21 24C21 24.5523 21.4477 25 22 25Z" fill="#647696"/>
<path d="M24 23C24.5523 23 25 22.5523 25 22C25 21.4477 24.5523 21 24 21C23.4477 21 23 21.4477 23 22C23 22.5523 23.4477 23 24 23Z" fill="#647696"/>
<path d="M26 21C26.5523 21 27 20.5523 27 20C27 19.4477 26.5523 19 26 19C25.4477 19 25 19.4477 25 20C25 20.5523 25.4477 21 26 21Z" fill="#647696"/>
<path d="M24 27C24.5523 27 25 26.5523 25 26C25 25.4477 24.5523 25 24 25C23.4477 25 23 25.4477 23 26C23 26.5523 23.4477 27 24 27Z" fill="#647696"/>
<path d="M26 29C26.5523 29 27 28.5523 27 28C27 27.4477 26.5523 27 26 27C25.4477 27 25 27.4477 25 28C25 28.5523 25.4477 29 26 29Z" fill="#647696"/>
<path d="M26 25C26.5523 25 27 24.5523 27 24C27 23.4477 26.5523 23 26 23C25.4477 23 25 23.4477 25 24C25 24.5523 25.4477 25 26 25Z" fill="#647696"/>
<path d="M28 23C28.5523 23 29 22.5523 29 22C29 21.4477 28.5523 21 28 21C27.4477 21 27 21.4477 27 22C27 22.5523 27.4477 23 28 23Z" fill="#647696"/>
<path d="M30 21C30.5523 21 31 20.5523 31 20C31 19.4477 30.5523 19 30 19C29.4477 19 29 19.4477 29 20C29 20.5523 29.4477 21 30 21Z" fill="#647696"/>
<path d="M28 27C28.5523 27 29 26.5523 29 26C29 25.4477 28.5523 25 28 25C27.4477 25 27 25.4477 27 26C27 26.5523 27.4477 27 28 27Z" fill="#647696"/>
<path d="M30 29C30.5523 29 31 28.5523 31 28C31 27.4477 30.5523 27 30 27C29.4477 27 29 27.4477 29 28C29 28.5523 29.4477 29 30 29Z" fill="#647696"/>
<path d="M30 25C30.5523 25 31 24.5523 31 24C31 23.4477 30.5523 23 30 23C29.4477 23 29 23.4477 29 24C29 24.5523 29.4477 25 30 25Z" fill="#647696"/>
<path d="M32 23C32.5523 23 33 22.5523 33 22C33 21.4477 32.5523 21 32 21C31.4477 21 31 21.4477 31 22C31 22.5523 31.4477 23 32 23Z" fill="#647696"/>
<path d="M34 21C34.5523 21 35 20.5523 35 20C35 19.4477 34.5523 19 34 19C33.4477 19 33 19.4477 33 20C33 20.5523 33.4477 21 34 21Z" fill="#647696"/>
<path d="M32 27C32.5523 27 33 26.5523 33 26C33 25.4477 32.5523 25 32 25C31.4477 25 31 25.4477 31 26C31 26.5523 31.4477 27 32 27Z" fill="#647696"/>
<path d="M34 29C34.5523 29 35 28.5523 35 28C35 27.4477 34.5523 27 34 27C33.4477 27 33 27.4477 33 28C33 28.5523 33.4477 29 34 29Z" fill="#647696"/>
<path d="M34 25C34.5523 25 35 24.5523 35 24C35 23.4477 34.5523 23 34 23C33.4477 23 33 23.4477 33 24C33 24.5523 33.4477 25 34 25Z" fill="#647696"/>
<path d="M36 23C36.5523 23 37 22.5523 37 22C37 21.4477 36.5523 21 36 21C35.4477 21 35 21.4477 35 22C35 22.5523 35.4477 23 36 23Z" fill="#647696"/>
<path d="M38 21C38.5523 21 39 20.5523 39 20C39 19.4477 38.5523 19 38 19C37.4477 19 37 19.4477 37 20C37 20.5523 37.4477 21 38 21Z" fill="#647696"/>
<path d="M36 27C36.5523 27 37 26.5523 37 26C37 25.4477 36.5523 25 36 25C35.4477 25 35 25.4477 35 26C35 26.5523 35.4477 27 36 27Z" fill="#647696"/>
<path d="M38 29C38.5523 29 39 28.5523 39 28C39 27.4477 38.5523 27 38 27C37.4477 27 37 27.4477 37 28C37 28.5523 37.4477 29 38 29Z" fill="#647696"/>
<path d="M38 25C38.5523 25 39 24.5523 39 24C39 23.4477 38.5523 23 38 23C37.4477 23 37 23.4477 37 24C37 24.5523 37.4477 25 38 25Z" fill="#647696"/>
<path d="M31 14C31 13.447 30.552 13 30 13C29.448 13 29 13.447 29 14V16H18V32H24.234L22.143 35.485C21.859 35.959 22.012 36.573 22.486 36.857C22.646 36.954 22.824 37 22.999 37C23.339 37 23.67 36.827 23.857 36.515L26.566 32H33.434L36.143 36.515C36.33 36.827 36.661 37 37.001 37C37.176 37 37.354 36.954 37.515 36.857C37.989 36.573 38.142 35.959 37.858 35.485L35.766 32H42V16H31V14ZM35 18C35 18.552 35.448 19 36 19C36.552 19 37 18.552 37 18H39C39 18.552 39.448 19 40 19V21C39.448 21 39 21.448 39 22C39 22.552 39.448 23 40 23V25C39.448 25 39 25.448 39 26C39 26.552 39.448 27 40 27V29C39.448 29 39 29.448 39 30H37C37 29.448 36.552 29 36 29C35.448 29 35 29.448 35 30H33C33 29.448 32.552 29 32 29C31.448 29 31 29.448 31 30H29C29 29.448 28.552 29 28 29C27.448 29 27 29.448 27 30H25C25 29.448 24.552 29 24 29C23.448 29 23 29.448 23 30H21C21 29.448 20.552 29 20 29V27C20.552 27 21 26.552 21 26C21 25.448 20.552 25 20 25V23C20.552 23 21 22.552 21 22C21 21.448 20.552 21 20 21V19C20.552 19 21 18.552 21 18H23C23 18.552 23.448 19 24 19C24.552 19 25 18.552 25 18H27C27 18.552 27.448 19 28 19C28.552 19 29 18.552 29 18H31C31 18.552 31.448 19 32 19C32.552 19 33 18.552 33 18H35Z" fill="#647696"/>
</svg>
