<svg width="16" height="18" viewBox="0 0 16 18" fill="none" xmlns="http://www.w3.org/2000/svg">
<path d="M7.99997 3.25843C8.91649 3.25843 9.65948 2.529 9.65948 1.62921C9.65948 0.729424 8.91649 0 7.99997 0C7.08344 0 6.34045 0.729424 6.34045 1.62921C6.34045 2.529 7.08344 3.25843 7.99997 3.25843Z" fill="#647696"/>
<path d="M5.85979 9.41579C5.95135 9.47197 6.03147 9.56185 6.03147 9.68545V12.6293C6.03147 13.1574 6.46637 13.5843 7.00428 13.5843H8.97281C9.51072 13.5843 9.94563 13.1574 9.94563 12.6293V9.68545C9.94563 9.56185 10.0143 9.47197 10.1173 9.42702C10.4835 9.28095 10.7239 8.9214 10.7239 8.53938V5.08994C10.7239 4.56185 10.289 4.13489 9.75107 4.13489H6.24892C5.71101 4.13489 5.2761 4.56185 5.2761 5.08994V8.53938C5.25321 8.9214 5.49355 9.28095 5.85979 9.41579Z" fill="#647696"/>
<path d="M11.4564 9.19104C11.319 9.38205 11.1245 9.53935 10.8956 9.62924C10.7582 9.69666 10.6667 9.82025 10.6667 9.98879V10.1686C13.2303 10.6292 14.8555 11.7079 14.8555 12.7079C14.8555 13.8877 12.6924 15.0337 9.83119 15.3708C9.32761 15.427 8.94993 15.8427 8.54936 16.2922C8.37768 16.4832 8.04578 16.854 7.97711 16.8989C7.86266 16.854 7.62232 16.5394 7.48498 16.3483C7.15308 15.9101 6.80973 15.4495 6.28326 15.3933C3.35336 15.0562 1.14449 13.9101 1.14449 12.7079C1.14449 11.7191 2.75823 10.6405 5.299 10.1798V9.98879C5.299 9.82025 5.19599 9.69666 5.0701 9.62924C4.8412 9.53935 4.65808 9.38205 4.5093 9.19104C1.81974 9.80902 0 11.1349 0 12.7079C0 14.5731 2.4721 16.0899 6.11159 16.4832C6.21459 16.5281 6.43205 16.8315 6.56938 17C6.92418 17.4719 7.32475 18 7.93133 18C8.53791 18 8.97282 17.5056 9.40773 17.0225C9.5794 16.8315 9.86552 16.5169 9.95708 16.4719C13.5622 16.045 15.9886 14.5281 15.9886 12.6967C16 11.1236 14.1688 9.80902 11.4564 9.19104Z" fill="#CBD5E0"/>
</svg>
