<svg width="16" height="16" viewBox="0 0 16 16" fill="none" xmlns="http://www.w3.org/2000/svg">
<path d="M8.00055 8.38C10.3005 8.38 12.1905 6.49 12.1905 4.19C12.1905 1.89 10.3005 0 8.00055 0C5.70055 0 3.81055 1.89 3.81055 4.19C3.81055 6.49 5.69055 8.38 8.00055 8.38Z" fill="#6C5CE7"/>
<path d="M1.79 16H14.21C15.2 16 16 15.2 16 14.21C16 12.78 15.5 11.39 14.59 10.29C13.39 8.84002 11.41 8.29002 9.52 8.90002C8.53 9.22002 7.44 9.22002 6.45 8.90002C4.56 8.29002 2.58 8.82002 1.4 10.29C0.5 11.39 0 12.78 0 14.21C0 15.2 0.8 16 1.79 16Z" fill="#6C5CE7"/>
</svg>
