<svg width="16" height="16" viewBox="0 0 16 16" fill="none" xmlns="http://www.w3.org/2000/svg">
<path d="M8.00055 1C9.76055 1 11.1905 2.43 11.1905 4.19C11.1905 5.95 9.76055 7.38 8.00055 7.38C6.24055 7.38 4.81055 5.95 4.81055 4.19C4.81055 2.43 6.24055 1 8.00055 1ZM8.00055 0C5.70055 0 3.81055 1.89 3.81055 4.19C3.81055 6.49 5.70055 8.38 8.00055 8.38C10.3005 8.38 12.1905 6.49 12.1905 4.19C12.1905 1.89 10.3005 0 8.00055 0Z" fill="#647696"/>
<path d="M4.91 9.64999C5.33 9.64999 5.74 9.71999 6.15 9.84999C6.74 10.04 7.36 10.14 7.99 10.14C8.62 10.14 9.24 10.04 9.83 9.84999C10.23 9.71999 10.65 9.64999 11.06 9.64999C12.14 9.64999 13.15 10.11 13.82 10.92C14.58 11.84 15 13.01 15 14.21C15 14.65 14.65 15 14.21 15H1.79C1.35 15 1 14.64 1 14.21C1 13.01 1.42 11.84 2.19 10.91C2.84 10.11 3.83 9.64999 4.91 9.64999ZM4.91 8.64999C3.55 8.64999 2.27 9.21999 1.41 10.29C0.5 11.39 0 12.78 0 14.21C0 15.2 0.8 16 1.79 16H14.21C15.2 16 16 15.2 16 14.21C16 12.78 15.5 11.39 14.59 10.29C13.72 9.22999 12.42 8.64999 11.06 8.64999C10.55 8.64999 10.04 8.72999 9.53 8.88999C9.03 9.04999 8.52 9.12999 8 9.12999C7.48 9.12999 6.96 9.04999 6.47 8.88999C5.94 8.72999 5.42 8.64999 4.91 8.64999Z" fill="#647696"/>
</svg>
