<svg width="16" height="16" viewBox="0 0 16 16" fill="none" xmlns="http://www.w3.org/2000/svg">
<path d="M1 15V1H4.11111L6.18518 2.86667H15V4.73333V15H4.11111H1Z" fill="#647696"/>
<path d="M4.11111 15V4.73333H15M15 4.73333V2.86667H6.18518L4.11111 1H1L1 15H15V4.73333Z" stroke="#647696" stroke-width="1.95" stroke-miterlimit="10" stroke-linecap="round" stroke-linejoin="round"/>
<path d="M2.99951 5.49906V13.6364V14.5C2.99951 14.7761 3.22337 15 3.49951 15H14.4995C14.7757 15 14.9995 14.7761 14.9995 14.5V5.5C14.9995 5.22386 14.7757 5 14.4995 5H3.49951C3.22337 5 2.99951 5.22292 2.99951 5.49906Z" fill="#A9B6CB"/>
<path d="M11.6924 6.49988H5.19238C4.91624 6.49988 4.69238 6.72374 4.69238 6.99988V7.49988C4.69238 7.77602 4.91624 7.99988 5.19238 7.99988H11.6924C11.9685 7.99988 12.1924 7.77602 12.1924 7.49988V6.99988C12.1924 6.72374 11.9685 6.49988 11.6924 6.49988Z" fill="#CFD7DF"/>
<path d="M10.6152 9.49988L5.23062 9.49988" stroke="#CFD7DF" stroke-linecap="round"/>
</svg>
