<svg width="16" height="16" viewBox="0 0 16 16" fill="none" xmlns="http://www.w3.org/2000/svg">
<path fill-rule="evenodd" clip-rule="evenodd" d="M9.52786 12.5H8.24124L8.64101 10.1797H6.61918L6.21941 12.5H4.9328L5.33257 10.1797H4L4.21597 8.94922H5.54394L5.86559 7.05078H4.54681L4.75818 5.82031H6.07697L6.47674 3.5H7.76335L7.36358 5.82031H9.38541L9.78518 3.5H11.0718L10.672 5.82031H12L11.7886 7.05078H10.4607L10.139 8.94922H11.4578L11.2418 10.1797H9.92763L9.52786 12.5ZM7.15221 7.05078L6.83056 8.94922H8.85238L9.17404 7.05078H7.15221Z" fill="#647696"/>
<path fill-rule="evenodd" clip-rule="evenodd" d="M0 4C0 1.79086 1.79086 0 4 0H12C14.2091 0 16 1.79086 16 4V12C16 14.2091 14.2091 16 12 16H4C1.79086 16 0 14.2091 0 12V4ZM4 1.5H12C13.3807 1.5 14.5 2.61929 14.5 4V12C14.5 13.3807 13.3807 14.5 12 14.5H4C2.61929 14.5 1.5 13.3807 1.5 12V4C1.5 2.61929 2.61929 1.5 4 1.5Z" fill="#647696"/>
</svg>
