<svg width="46" height="58" viewBox="0 0 46 58" fill="none" xmlns="http://www.w3.org/2000/svg">
<path d="M44.949 12.187L39.131 6.369L34.084 1.321L33.314 0.551C32.964 0.201 32.48 0 31.985 0H2.963C1.605 0 0.5 1.105 0.5 2.463V39V55.537C0.5 56.895 1.605 58 2.963 58H43.037C44.395 58 45.5 56.895 45.5 55.537V39V13.515C45.5 13.02 45.299 12.535 44.949 12.187ZM33.5 12V8.903V3.565L41.935 12H35.194H33.5ZM18.022 31.168C17.868 31.071 17.696 31 17.5 31C16.999 31 16.601 31.375 16.529 31.856C16.231 31.925 15.925 31.969 15.606 31.969L14.495 31.975C14.482 31.435 14.044 31 13.5 31C12.952 31 12.51 31.441 12.503 31.987L10.221 32C10.483 31.604 10.686 31.177 10.851 30.747C11.027 30.899 11.249 31 11.5 31C12.052 31 12.5 30.552 12.5 30C12.5 29.448 12.052 29 11.5 29C11.437 29 11.381 29.025 11.321 29.036C11.393 28.633 11.439 28.26 11.464 27.955L11.546 27.451C11.563 27.286 11.605 27.13 11.64 26.972C12.123 26.901 12.5 26.502 12.5 26C12.5 25.792 12.421 25.609 12.312 25.449C12.487 25.206 12.684 24.982 12.907 24.784C13.075 24.911 13.274 25 13.5 25C14.052 25 14.5 24.552 14.5 24C14.5 23.975 14.488 23.955 14.486 23.93C14.844 23.827 15.216 23.756 15.606 23.756C15.727 23.756 15.841 23.781 15.96 23.792L16.127 23.813C16.262 23.83 16.39 23.866 16.521 23.895C16.517 23.932 16.5 23.963 16.5 24C16.5 24.552 16.948 25 17.5 25C17.773 25 18.02 24.889 18.2 24.712C18.391 24.868 18.567 25.038 18.727 25.225C18.748 25.25 18.768 25.274 18.789 25.3C18.611 25.48 18.5 25.727 18.5 26C18.5 26.552 18.948 27 19.5 27C19.535 27 19.565 26.984 19.599 26.98C19.609 27.028 19.628 27.072 19.637 27.121L19.642 27.147C19.683 27.381 19.714 27.618 19.714 27.863C19.714 28.262 19.639 28.641 19.532 29.006C19.52 29.006 19.511 29 19.5 29C18.948 29 18.5 29.448 18.5 30C18.5 30.208 18.578 30.39 18.687 30.55C18.487 30.779 18.267 30.988 18.022 31.168ZM20.516 24.247C20.509 24.238 20.503 24.23 20.496 24.221C19.891 23.41 19.091 22.756 18.164 22.326L20.287 20.203L23.115 23.031L21.044 25.101C20.893 24.801 20.715 24.516 20.516 24.247ZM24.531 21.617L21.703 18.789L24.49 16C25.969 14.521 29.35 11.718 31.5 10.449V13.891C30.081 15.801 28.28 17.867 27.319 18.829L24.531 21.617ZM43.5 55.537C43.5 55.792 43.292 56 43.037 56H2.963C2.708 56 2.5 55.792 2.5 55.537V41H43.5V55.537ZM2.5 39V2.463C2.5 2.208 2.708 2 2.963 2H31.558C31.525 2.126 31.5 2.256 31.5 2.391V8.195C28.927 9.364 24.471 13.191 23.076 14.586L15.891 21.771C15.796 21.767 15.702 21.757 15.606 21.757C12.635 21.757 10.143 23.882 9.623 26.773L9.515 26.846L9.495 27.382C9.461 28.324 9.193 31.434 7.152 31.928C6.635 32.057 6.294 32.553 6.359 33.08L6.52 34H13.5L15.606 33.97C18.973 33.97 21.713 31.23 21.713 27.863C21.713 27.67 21.702 27.48 21.684 27.291L28.733 20.243C29.956 19.019 32.324 16.267 33.874 14H43.108C43.243 14 43.373 13.975 43.5 13.942V39H2.5Z" fill="#647696"/>
<path d="M12.3851 50.3629H13.6021C14.1301 50.3629 14.6141 50.286 15.0511 50.131C15.4881 49.976 15.8621 49.7569 16.1721 49.4749C16.4821 49.1929 16.7231 48.844 16.8971 48.429C17.0701 48.014 17.1571 47.552 17.1571 47.041C17.1571 46.558 17.0541 46.123 16.8491 45.735C16.6441 45.347 16.3751 45.0169 16.0421 44.7439C15.7091 44.4709 15.3331 44.265 14.9141 44.129C14.4951 43.992 14.0711 43.924 13.6431 43.924H10.7451V54H12.3861V50.3629H12.3851ZM12.3851 45.1679H13.6151C14.0341 45.1679 14.3711 45.234 14.6271 45.366C14.8821 45.498 15.0801 45.662 15.2221 45.858C15.3631 46.054 15.4561 46.2589 15.5021 46.4729C15.5471 46.6869 15.5701 46.876 15.5701 47.04C15.5701 47.45 15.5201 47.7939 15.4201 48.0719C15.3191 48.3499 15.1881 48.566 15.0241 48.721C14.8601 48.876 14.6801 48.988 14.4841 49.056C14.2881 49.124 14.0891 49.159 13.8891 49.159H12.3851V45.1679Z" fill="#647696"/>
<path d="M21.4769 52.756C21.2939 52.756 21.0989 52.737 20.8889 52.701C20.6789 52.665 20.4699 52.617 20.2599 52.557C20.0499 52.497 19.8469 52.434 19.6519 52.366C19.4559 52.298 19.2939 52.227 19.1669 52.154L18.8799 53.33C19.0349 53.467 19.2189 53.583 19.4339 53.679C19.6479 53.775 19.8729 53.85 20.1109 53.905C20.3479 53.96 20.5829 53.999 20.8149 54.021C21.0469 54.043 21.2729 54.055 21.4919 54.055C22.0019 54.055 22.4579 53.978 22.8589 53.823C23.2599 53.668 23.5969 53.461 23.8709 53.201C24.1449 52.941 24.3559 52.64 24.5069 52.299C24.6579 51.958 24.7329 51.604 24.7329 51.239C24.7329 50.701 24.6279 50.261 24.4189 49.92C24.2089 49.578 23.9469 49.293 23.6329 49.066C23.3189 48.839 22.9789 48.644 22.6139 48.485C22.2489 48.326 21.9119 48.162 21.6019 47.993C21.2919 47.824 21.0319 47.629 20.8229 47.405C20.6129 47.181 20.5089 46.887 20.5089 46.523C20.5089 46.377 20.5449 46.224 20.6179 46.065C20.6909 45.906 20.7909 45.762 20.9189 45.634C21.0459 45.506 21.1919 45.4 21.3569 45.313C21.5219 45.226 21.6939 45.174 21.8769 45.156C22.2049 45.129 22.4739 45.124 22.6839 45.142C22.8929 45.161 23.0619 45.192 23.1899 45.238C23.3169 45.284 23.4159 45.329 23.4839 45.375C23.5519 45.421 23.6139 45.457 23.6689 45.484C23.6779 45.475 23.7049 45.429 23.7509 45.347C23.7959 45.265 23.8509 45.162 23.9149 45.039C23.9779 44.916 24.0469 44.784 24.1199 44.643C24.1929 44.501 24.2569 44.372 24.3109 44.253C24.0459 44.08 23.6999 43.954 23.2719 43.877C22.8429 43.8 22.4189 43.761 22.0009 43.761C21.5909 43.761 21.2009 43.824 20.8319 43.952C20.4629 44.08 20.1389 44.265 19.8609 44.506C19.5829 44.747 19.3619 45.041 19.1979 45.388C19.0339 45.735 18.9519 46.131 18.9519 46.577C18.9519 47.069 19.0559 47.479 19.2659 47.807C19.4749 48.135 19.7399 48.42 20.0589 48.661C20.3779 48.902 20.7199 49.112 21.0839 49.29C21.4479 49.468 21.7879 49.645 22.1029 49.823C22.4179 50.001 22.6789 50.199 22.8889 50.418C23.0979 50.637 23.2029 50.901 23.2029 51.211C23.2029 51.722 23.0549 52.107 22.7589 52.366C22.4579 52.626 22.0319 52.756 21.4769 52.756Z" fill="#647696"/>
<path d="M30.8961 53.952C31.1601 53.92 31.4521 53.848 31.7711 53.733C32.0901 53.619 32.4201 53.448 32.7621 53.22C33.1041 52.992 33.4111 52.68 33.6851 52.283C33.9591 51.886 34.1841 51.394 34.3621 50.806C34.5401 50.218 34.6291 49.509 34.6291 48.68C34.6291 48.078 34.5241 47.492 34.3151 46.923C34.1051 46.354 33.7891 45.845 33.3651 45.399C32.9411 44.953 32.4081 44.594 31.7651 44.326C31.1221 44.058 30.3771 43.923 29.5301 43.923H26.4951V54H30.3091C30.4361 54 30.6321 53.984 30.8961 53.952ZM28.1351 52.797V45.168H29.0921C29.8761 45.168 30.5141 45.271 31.0061 45.476C31.4981 45.681 31.8881 45.95 32.1751 46.283C32.4621 46.616 32.6551 46.987 32.7561 47.397C32.8561 47.807 32.9061 48.222 32.9061 48.641C32.9061 49.99 32.6601 51.02 32.1681 51.731C31.6761 52.442 30.8741 52.797 29.7621 52.797H28.1351Z" fill="#647696"/>
<path d="M15.5 27C16.0523 27 16.5 26.5523 16.5 26C16.5 25.4477 16.0523 25 15.5 25C14.9477 25 14.5 25.4477 14.5 26C14.5 26.5523 14.9477 27 15.5 27Z" fill="#647696"/>
<path d="M17.5 29C18.0523 29 18.5 28.5523 18.5 28C18.5 27.4477 18.0523 27 17.5 27C16.9477 27 16.5 27.4477 16.5 28C16.5 28.5523 16.9477 29 17.5 29Z" fill="#647696"/>
<path d="M13.5 29C14.0523 29 14.5 28.5523 14.5 28C14.5 27.4477 14.0523 27 13.5 27C12.9477 27 12.5 27.4477 12.5 28C12.5 28.5523 12.9477 29 13.5 29Z" fill="#647696"/>
<path d="M15.5 31C16.0523 31 16.5 30.5523 16.5 30C16.5 29.4477 16.0523 29 15.5 29C14.9477 29 14.5 29.4477 14.5 30C14.5 30.5523 14.9477 31 15.5 31Z" fill="#647696"/>
</svg>
