<svg width="12" height="12" viewBox="0 0 12 12" fill="none" xmlns="http://www.w3.org/2000/svg">
<g clip-path="url(#clip0)">
<path d="M11.95 0C9.7 0.15 7.825 0.825 6.4 1.8C4.825 1.05 2.95 1.35 1.675 2.7C1.45 2.925 1.225 3.225 1 3.525L2.875 5.4C2.35 6.3 2.05 6.9 2.05 6.9L5.125 9.975C5.125 9.975 5.725 9.75 6.625 9.15L8.5 11.025C8.8 10.875 9.1 10.65 9.325 10.35C10.6 9.075 10.9 7.125 10.225 5.55C11.125 4.05 11.8 2.25 11.95 0Z" fill="#647696"/>
<path d="M0.450065 9.45C1.05007 8.85 1.95007 8.85 2.55007 9.45C3.15007 10.05 3.15007 10.95 2.55007 11.55C1.95007 12.15 6.51013e-05 12 6.51013e-05 12C6.51013e-05 12 -0.149935 9.975 0.450065 9.45Z" fill="#647696"/>
</g>
<defs>
<clipPath id="clip0">
<rect width="12" height="12" fill="white"/>
</clipPath>
</defs>
</svg>
