<svg width="40" height="40" viewBox="0 0 40 40" fill="none" xmlns="http://www.w3.org/2000/svg">
<path d="M18.375 25.875H21.625C21.9697 25.875 22.25 26.1553 22.25 26.5V29.75C22.25 30.0947 21.9697 30.375 21.625 30.375H18.375C18.0303 30.375 17.75 30.0947 17.75 29.75V26.5C17.75 26.1553 18.0303 25.875 18.375 25.875Z" stroke="#647696" stroke-width="2"/>
<path d="M8.625 25.875H11.875C12.2197 25.875 12.5 26.1553 12.5 26.5V29.75C12.5 30.0947 12.2197 30.375 11.875 30.375H8.625C8.28028 30.375 8 30.0947 8 29.75V26.5C8 26.1553 8.28028 25.875 8.625 25.875Z" stroke="#647696" stroke-width="2"/>
<path d="M28.125 25.875H31.375C31.7197 25.875 32 26.1553 32 26.5V29.75C32 30.0947 31.7197 30.375 31.375 30.375H28.125C27.7803 30.375 27.5 30.0947 27.5 29.75V26.5C27.5 26.1553 27.7803 25.875 28.125 25.875Z" stroke="#647696" stroke-width="2"/>
<path d="M24.3347 17.609L23.3983 18.483C21.4259 17.0123 18.6076 17.0059 16.6278 18.4637L15.7796 17.6155C18.2354 15.8017 21.7479 15.7822 24.3347 17.609Z" stroke="#647696" stroke-width="2"/>
<path d="M28.9589 12.8768L27.9584 13.8774C25.7555 11.8749 23.0057 10.875 20 10.875C16.9943 10.875 14.2444 11.8749 12.0416 13.8774L11.041 12.8768C13.5162 10.7514 16.6876 9.625 20 9.625C23.3124 9.625 26.4837 10.7514 28.9589 12.8768Z" stroke="#647696" stroke-width="2"/>
</svg>
