<svg width="100" height="100" viewBox="0 0 100 100" fill="none" xmlns="http://www.w3.org/2000/svg">
<path d="M50 31.25H21.875V29.375C21.875 25.625 25.625 21.875 29.375 21.875H59.375C53.75 21.875 50 25.625 50 31.25Z" fill="#EDF1F7"/>
<path fill-rule="evenodd" clip-rule="evenodd" d="M27.5 35H53.75V31.25C53.75 28.1434 56.2684 25.625 59.375 25.625C63.125 25.625 65 29.2614 65 31.25V68.75C65 78.125 72.5 78.125 72.5 78.125H36.875C31.6973 78.125 27.5 73.9277 27.5 68.75V35ZM35 42.5H57.5V46.25H35V42.5ZM35 51.875H57.5V55.625H35V51.875ZM35 61.25H50V65H35V61.25Z" fill="#EDF1F7"/>
<path d="M78.125 63.125H68.75V69.6875C68.75 72.2763 70.8487 74.375 73.4375 74.375C76.0263 74.375 78.125 72.2763 78.125 69.6875V63.125Z" fill="#EDF1F7"/>
</svg>
