<svg width="12" height="12" viewBox="0 0 12 12" fill="none" xmlns="http://www.w3.org/2000/svg">
<g clip-path="url(#clip0)">
<path d="M6.27831 8.62997C5.85332 8.91329 5.50209 9.1063 5.26091 9.22702L2.81654 6.78266C2.81654 6.78265 2.81655 6.78264 2.81655 6.78264C2.9541 6.52588 3.15666 6.15755 3.41486 5.71492L3.65763 5.29875L3.31694 4.95806L1.82916 3.47028C1.92957 3.34482 2.02446 3.23442 2.11694 3.14194L2.12325 3.13563L2.12938 3.12914C3.21472 1.97996 4.79653 1.72869 6.13129 2.36429L6.45606 2.51894L6.75293 2.31582C7.92322 1.51509 9.4375 0.920208 11.2561 0.693663C11.0306 2.49526 10.4433 3.9713 9.68907 5.22844L9.52465 5.50247L9.65054 5.7962C10.2306 7.14968 9.96727 8.82385 8.88306 9.90806L8.85165 9.93947L8.825 9.975C8.75577 10.0673 8.67451 10.1515 8.58554 10.2267L7.06694 8.70806L6.70464 8.34575L6.27831 8.62997Z" fill="#475161" stroke="#475161" stroke-width="1.25"/>
<path d="M0.779317 9.82629L0.791847 9.81533L0.803619 9.80355C1.20836 9.39882 1.79177 9.39882 2.19651 9.80355C2.60125 10.2083 2.60125 10.7917 2.19651 11.1964C2.13979 11.2532 2.00781 11.3276 1.77126 11.3899C1.54646 11.4491 1.28111 11.4835 1.01681 11.5011C0.82432 11.5139 0.640054 11.5174 0.483613 11.5165C0.482466 11.352 0.485723 11.157 0.498994 10.9546C0.516679 10.6849 0.551169 10.4184 0.609745 10.1988C0.672714 9.96262 0.743751 9.85741 0.779317 9.82629Z" fill="#475161" stroke="#475161"/>
</g>
<defs>
<clipPath id="clip0">
<rect width="12" height="12" fill="white"/>
</clipPath>
</defs>
</svg>
