<svg width="16" height="16" viewBox="0 0 16 16" fill="none" xmlns="http://www.w3.org/2000/svg">
<g clip-path="url(#clip0)">
<path d="M15.9333 0C12.9333 0.2 10.4333 1.1 8.53325 2.4C6.43325 1.4 3.93325 1.8 2.23325 3.6C1.93325 3.9 1.63325 4.3 1.33325 4.7L3.83325 7.2C3.13325 8.4 2.73325 9.2 2.73325 9.2L6.83325 13.3C6.83325 13.3 7.63325 13 8.83325 12.2L11.3333 14.7C11.7333 14.5 12.1333 14.2 12.4333 13.8C14.1333 12.1 14.5333 9.5 13.6333 7.4C14.8333 5.4 15.7333 3 15.9333 0Z" fill="#647696"/>
<path d="M0.600005 12.6C1.40001 11.8 2.60001 11.8 3.40001 12.6C4.20001 13.4 4.20001 14.6 3.40001 15.4C2.60001 16.2 5.4203e-06 16 5.4203e-06 16C5.4203e-06 16 -0.199995 13.3 0.600005 12.6Z" fill="#647696"/>
</g>
<defs>
<clipPath id="clip0">
<rect width="16" height="16" fill="white"/>
</clipPath>
</defs>
</svg>
