<svg width="100" height="100" viewBox="0 0 100 100" fill="none" xmlns="http://www.w3.org/2000/svg">
<path d="M45.4375 65.1875H53.5625C54.4243 65.1875 55.125 65.8882 55.125 66.75V74.875C55.125 75.7368 54.4243 76.4375 53.5625 76.4375H45.4375C44.5757 76.4375 43.875 75.7368 43.875 74.875V66.75C43.875 65.8882 44.5757 65.1875 45.4375 65.1875Z" fill="#EDF1F7" stroke="#EDF1F7" stroke-width="5"/>
<path d="M21.0625 65.1875H29.1875C30.0493 65.1875 30.75 65.8882 30.75 66.75V74.875C30.75 75.7368 30.0493 76.4375 29.1875 76.4375H21.0625C20.2007 76.4375 19.5 75.7368 19.5 74.875V66.75C19.5 65.8882 20.2007 65.1875 21.0625 65.1875Z" fill="#EDF1F7" stroke="#EDF1F7" stroke-width="5"/>
<path d="M69.8125 65.1875H77.9375C78.7993 65.1875 79.5 65.8882 79.5 66.75V74.875C79.5 75.7368 78.7993 76.4375 77.9375 76.4375H69.8125C68.9507 76.4375 68.25 75.7368 68.25 74.875V66.75C68.25 65.8882 68.9507 65.1875 69.8125 65.1875Z" fill="#EDF1F7" stroke="#EDF1F7" stroke-width="5"/>
<path d="M60.3368 44.5227L57.9957 46.7077C53.0647 43.0309 46.019 43.0148 41.0694 46.6594L38.949 44.539C45.0884 40.0043 53.8697 39.9557 60.3368 44.5227Z" fill="#EDF1F7" stroke="#EDF1F7" stroke-width="5"/>
<path d="M71.8974 32.6921L69.3959 35.1935C63.8888 30.1872 57.0142 27.6875 49.5 27.6875C41.9858 27.6875 35.1111 30.1872 29.604 35.1935L27.1025 32.6921C33.2905 27.3784 41.219 24.5625 49.5 24.5625C57.7809 24.5625 65.7094 27.3784 71.8974 32.6921Z" fill="#EDF1F7" stroke="#EDF1F7" stroke-width="5"/>
</svg>
