<svg width="38" height="11" viewBox="0 0 38 11" fill="none" xmlns="http://www.w3.org/2000/svg">
<path d="M9.38068 5.27273C9.38068 2.21662 7.51562 0.416193 5.03658 0.416193C2.55291 0.416193 0.692472 2.21662 0.692472 5.27273C0.692472 8.32422 2.55291 10.1293 5.03658 10.1293C5.63672 10.1293 6.19993 10.0231 6.71236 9.81996L7.49254 10.8125H9.15447L7.84339 9.1321C8.79439 8.30114 9.38068 6.98544 9.38068 5.27273ZM4.4549 6.82386L5.73367 8.50426C5.51207 8.56428 5.28125 8.59197 5.03658 8.59197C3.49929 8.59197 2.41442 7.42401 2.41442 5.27273C2.41442 3.12145 3.49929 1.95348 5.03658 1.95348C6.57848 1.95348 7.65874 3.12145 7.65874 5.27273C7.65874 6.43608 7.34482 7.30859 6.8093 7.86719L6.00604 6.82386H4.4549ZM15.4583 7.01776C15.4583 8.09801 14.6873 8.63352 13.9487 8.63352C13.1454 8.63352 12.6099 8.0657 12.6099 7.16548V2.90909H10.9387V7.42401C10.9387 9.12749 11.9082 10.0923 13.3024 10.0923C14.3642 10.0923 15.112 9.53374 15.4352 8.7397H15.5091V10H17.1294V2.90909H15.4583V7.01776ZM21.941 10.1385C24.0184 10.1385 25.3387 8.67507 25.3387 6.48224C25.3387 4.2848 24.0184 2.81676 21.941 2.81676C19.8635 2.81676 18.5432 4.2848 18.5432 6.48224C18.5432 8.67507 19.8635 10.1385 21.941 10.1385ZM21.9502 8.79972C20.8007 8.79972 20.2375 7.77486 20.2375 6.47763C20.2375 5.1804 20.8007 4.14169 21.9502 4.14169C23.0812 4.14169 23.6444 5.1804 23.6444 6.47763C23.6444 7.77486 23.0812 8.79972 21.9502 8.79972ZM30.2979 2.90909H28.8991V1.21023H27.228V2.90909H26.2216V4.2017H27.228V8.14418C27.2188 9.47834 28.1882 10.1339 29.4439 10.0969C29.9194 10.0831 30.2472 9.99077 30.4272 9.93075L30.1456 8.62429C30.0533 8.64737 29.864 8.68892 29.6562 8.68892C29.2362 8.68892 28.8991 8.54119 28.8991 7.86719V4.2017H30.2979V2.90909ZM34.7586 10.1385C36.4113 10.1385 37.547 9.33061 37.8424 8.09801L36.282 7.92259C36.0558 8.52273 35.5019 8.83665 34.7817 8.83665C33.7014 8.83665 32.9859 8.12571 32.972 6.91158H37.9117V6.39915C37.9117 3.91087 36.4159 2.81676 34.6709 2.81676C32.6396 2.81676 31.3147 4.30788 31.3147 6.49609C31.3147 8.72124 32.6212 10.1385 34.7586 10.1385ZM32.9767 5.78516C33.0274 4.88033 33.6968 4.11861 34.694 4.11861C35.6542 4.11861 36.3005 4.82031 36.3097 5.78516H32.9767Z" fill="#647696"/>
</svg>
