<svg width="16" height="16" viewBox="0 0 16 16" fill="none" xmlns="http://www.w3.org/2000/svg">
<path d="M0 3C0 1.34315 1.34315 0 3 0H13C14.6569 0 16 1.34315 16 3V13C16 14.6569 14.6569 16 13 16H3C1.34315 16 0 14.6569 0 13V3Z" fill="#EDF2F7"/>
<path d="M7.0625 4.23885H8.92157C9.62382 4.23885 10.2233 4.82794 10.2233 5.60115V7.10071L9.76096 6.62402C9.52261 6.37827 9.12988 6.37199 8.88377 6.60998C8.63767 6.84798 8.63137 7.24013 8.86972 7.48587L10.3979 9.0615C10.5148 9.18199 10.6756 9.25 10.8436 9.25C11.0115 9.25 11.1723 9.18199 11.2892 9.0615L12.8253 7.47775C13.0636 7.232 13.0573 6.83986 12.8112 6.60186C12.5651 6.36387 12.1724 6.37015 11.934 6.61589L11.464 7.10051V5.60115C11.464 4.18146 10.3462 3 8.92157 3H7.0625V4.23885Z" fill="#647696"/>
<path d="M5.60202 6.9385C5.48516 6.81801 5.32437 6.75 5.1564 6.75C4.98844 6.75 4.82765 6.81801 4.71079 6.9385L3.17472 8.52225C2.93638 8.76799 2.94267 9.16014 3.18877 9.39814C3.43488 9.63613 3.8276 9.62985 4.06595 9.3841L4.53607 8.89939V10.399C4.53607 11.8204 5.66335 13.0002 7.07846 13.0002H8.9375V11.7613H7.07846C6.38247 11.7613 5.77674 11.1706 5.77674 10.399V8.89939L6.23898 9.37598C6.47733 9.62173 6.87005 9.62801 7.11616 9.39001C7.36226 9.15202 7.36855 8.75987 7.13021 8.51413L5.60202 6.9385Z" fill="#647696"/>
</svg>