<svg width="12" height="12" viewBox="0 0 12 12" fill="none" xmlns="http://www.w3.org/2000/svg">
<path fill-rule="evenodd" clip-rule="evenodd" d="M6.29289 0.292893C6.68342 -0.0976311 7.31658 -0.0976311 7.70711 0.292893L11.7071 4.29289C12.0976 4.68342 12.0976 5.31658 11.7071 5.70711L7.70711 9.70711C7.31658 10.0976 6.68342 10.0976 6.29289 9.70711C5.90237 9.31658 5.90237 8.68342 6.29289 8.29289L8.58579 6H5C3.34315 6 2 7.34315 2 9V11C2 11.5523 1.55228 12 1 12C0.447715 12 0 11.5523 0 11V9C0 6.23858 2.23858 4 5 4H8.58579L6.29289 1.70711C5.90237 1.31658 5.90237 0.683417 6.29289 0.292893Z" fill="#647696"/>
</svg>
