<svg width="25" height="24" viewBox="0 0 25 24" fill="none" xmlns="http://www.w3.org/2000/svg">
<path fill-rule="evenodd" clip-rule="evenodd" d="M1 2C1 1.44772 1.44772 1 2 1H12.5455C13.0977 1 13.5455 1.44772 13.5455 2V6.85883C12.9529 6.62733 12.3094 6.5 11.6364 6.5C8.64534 6.5 6.27274 8.99166 6.27274 12C6.27274 15.0083 8.64534 17.5 11.6364 17.5C12.3094 17.5 12.9529 17.3727 13.5455 17.1412V22C13.5455 22.5523 13.0977 23 12.5455 23H2C1.44772 23 1 22.5523 1 22V2ZM14.5455 2V7.37854V8.64583C14.2464 8.36977 13.9101 8.13564 13.5455 7.95237C12.9688 7.66259 12.321 7.5 11.6364 7.5C9.22641 7.5 7.27274 9.51472 7.27274 12C7.27274 14.4853 9.22641 16.5 11.6364 16.5C12.321 16.5 12.9688 16.3374 13.5455 16.0476C13.9101 15.8644 14.2464 15.6302 14.5455 15.3542V16.6215V22C14.5455 23.1046 13.65 24 12.5455 24H2C0.895432 24 0 23.1046 0 22V2C0 0.89543 0.895431 0 2 0H12.5455C13.65 0 14.5455 0.895431 14.5455 2ZM12 12.5H22.8187L18.5502 16.9019L19.2681 17.5981L24.359 12.3481L24.6965 12L24.359 11.6519L19.2681 6.40193L18.5502 7.09807L22.8187 11.5H12V12.5Z" fill="#475161"/>
<circle cx="12" cy="12" r="2" fill="#475161"/>
</svg>
