<svg xmlns="http://www.w3.org/2000/svg" width="12" height="12" viewBox="0 0 12 12" fill="none">
<path d="M11.5 6.125L6 6.125" stroke="#475161"/>
<path d="M8.75 3.5L11.2955 6.125L8.75 8.75" stroke="#475161"/>
<mask id="path-3-inside-1" fill="white">
<path fill-rule="evenodd" clip-rule="evenodd" d="M2 0C0.895431 0 0 0.895431 0 2V10C0 11.1046 0.895431 12 2 12H5.25C6.35457 12 7.25 11.1046 7.25 10V7.56134C6.9076 7.83582 6.47297 8 6 8C4.89543 8 4 7.10457 4 6C4 4.89543 4.89543 4 6 4C6.47297 4 6.9076 4.16418 7.25 4.43866V2C7.25 0.895431 6.35457 0 5.25 0H2Z"/>
</mask>
<path d="M7.25 7.56134H8.25V5.47807L6.62453 6.78109L7.25 7.56134ZM7.25 4.43866L6.62453 5.21891L8.25 6.52193V4.43866H7.25ZM1 2C1 1.44772 1.44772 1 2 1V-1C0.343146 -1 -1 0.343146 -1 2H1ZM1 10V2H-1V10H1ZM2 11C1.44772 11 1 10.5523 1 10H-1C-1 11.6569 0.343146 13 2 13V11ZM5.25 11H2V13H5.25V11ZM6.25 10C6.25 10.5523 5.80228 11 5.25 11V13C6.90685 13 8.25 11.6569 8.25 10H6.25ZM6.25 7.56134V10H8.25V7.56134H6.25ZM6.62453 6.78109C6.45314 6.91848 6.23746 7 6 7V9C6.70849 9 7.36206 8.75316 7.87547 8.34159L6.62453 6.78109ZM6 7C5.44772 7 5 6.55228 5 6H3C3 7.65685 4.34315 9 6 9V7ZM5 6C5 5.44772 5.44772 5 6 5V3C4.34315 3 3 4.34315 3 6H5ZM6 5C6.23746 5 6.45314 5.08152 6.62453 5.21891L7.87547 3.65841C7.36206 3.24684 6.70849 3 6 3V5ZM6.25 2V4.43866H8.25V2H6.25ZM5.25 1C5.80228 1 6.25 1.44772 6.25 2H8.25C8.25 0.343146 6.90685 -1 5.25 -1V1ZM2 1H5.25V-1H2V1Z" fill="#475161" mask="url(#path-3-inside-1)"/>
<rect x="5.5" y="5.5" width="1" height="1" rx="0.5" stroke="#475161"/>
</svg>