<svg width="12" height="12" viewBox="0 0 12 12" fill="none" xmlns="http://www.w3.org/2000/svg">
<path d="M11.4164 5.04494C11.2148 3.9011 10.6561 2.85047 9.82062 2.04363C8.98512 1.2368 7.91564 0.715174 6.76545 0.553526C5.61527 0.391878 4.44344 0.598503 3.41791 1.14379C2.39238 1.68907 1.5658 2.54502 1.05663 3.58896" stroke="#475161" stroke-linecap="round"/>
<path d="M0.583557 6.95506C0.785247 8.0989 1.34388 9.14953 2.17938 9.95637C3.01488 10.7632 4.08436 11.2848 5.23455 11.4465C6.38473 11.6081 7.55656 11.4015 8.58209 10.8562C9.60762 10.3109 10.4342 9.45498 10.9434 8.41104" stroke="#475161" stroke-linecap="round"/>
<path d="M0.5 0.5V4H4" stroke="#475161" stroke-linecap="round" stroke-linejoin="round"/>
<path d="M11.5 11.5V8H8" stroke="#475161" stroke-linecap="round" stroke-linejoin="round"/>
</svg>
