<svg width="16" height="16" viewBox="0 0 16 16" fill="none" xmlns="http://www.w3.org/2000/svg">
<path d="M14.9319 7.02579C14.7261 5.56192 14.0623 4.20076 13.0354 3.13739C12.0085 2.07402 10.6713 1.36304 9.21554 1.10635C7.75974 0.849649 6.26005 1.06042 4.9314 1.70844C3.60276 2.35647 2.51337 3.40848 1.81937 4.7137" stroke="#647696" stroke-width="2" stroke-linecap="round"/>
<path d="M1.06812 8.97421C1.27386 10.4381 1.93774 11.7992 2.96462 12.8626C3.9915 13.926 5.32866 14.637 6.78446 14.8937C8.24026 15.1504 9.73995 14.9396 11.0686 14.2916C12.3972 13.6435 13.4866 12.5915 14.1806 11.2863" stroke="#647696" stroke-width="2" stroke-linecap="round"/>
<path d="M1 1V5.5H5.5" stroke="#647696" stroke-width="2" stroke-linecap="round" stroke-linejoin="round"/>
<path d="M15 15V10.5H10.5" stroke="#647696" stroke-width="2" stroke-linecap="round" stroke-linejoin="round"/>
</svg>
