<svg width="16" height="16" viewBox="0 0 16 16" fill="none" xmlns="http://www.w3.org/2000/svg">
<path d="M8 13.5C8.27614 13.5 8.5 13.2761 8.5 13C8.5 12.7239 8.27614 12.5 8 12.5V13.5ZM5.22215 12.1573L5.49994 11.7416L5.22215 12.1573ZM3.3806 9.91342L2.91866 10.1048H2.91866L3.3806 9.91342ZM3.09608 7.02455L3.58647 7.1221L3.09608 7.02455ZM4.46447 4.46447L4.11091 4.11091L4.46447 4.46447ZM9.91342 3.3806L10.1048 2.91866V2.91866L9.91342 3.3806ZM12.1573 5.22215L11.7416 5.49994L12.1573 5.22215ZM8 12.5C7.10999 12.5 6.23996 12.2361 5.49994 11.7416L4.94437 12.5731C5.84884 13.1774 6.9122 13.5 8 13.5V12.5ZM5.49994 11.7416C4.75991 11.2471 4.18314 10.5443 3.84254 9.72208L2.91866 10.1048C3.33495 11.1098 4.0399 11.9687 4.94437 12.5731L5.49994 11.7416ZM3.84254 9.72208C3.50195 8.89981 3.41284 7.99501 3.58647 7.1221L2.60568 6.927C2.39346 7.9939 2.50238 9.09977 2.91866 10.1048L3.84254 9.72208ZM3.58647 7.1221C3.7601 6.24918 4.18869 5.44736 4.81802 4.81802L4.11091 4.11091C3.34173 4.8801 2.8179 5.86011 2.60568 6.927L3.58647 7.1221ZM4.81802 4.81802C5.44736 4.18869 6.24918 3.7601 7.1221 3.58647L6.927 2.60568C5.86011 2.8179 4.8801 3.34173 4.11091 4.11091L4.81802 4.81802ZM7.1221 3.58647C7.99501 3.41284 8.89981 3.50195 9.72208 3.84254L10.1048 2.91866C9.09977 2.50238 7.9939 2.39346 6.927 2.60568L7.1221 3.58647ZM9.72208 3.84254C10.5443 4.18314 11.2471 4.75991 11.7416 5.49994L12.5731 4.94437C11.9687 4.0399 11.1098 3.33495 10.1048 2.91866L9.72208 3.84254ZM11.7416 5.49994C12.2361 6.23996 12.5 7.10999 12.5 8H13.5C13.5 6.9122 13.1774 5.84884 12.5731 4.94437L11.7416 5.49994Z" fill="#4A5568"/>
<circle cx="8" cy="8" r="2.5" stroke="#4A5568"/>
<path d="M10.5 8V9.75C10.5 10.4404 11.0596 11 11.75 11V11C12.4404 11 13 10.4404 13 9.75V8" stroke="#4A5568"/>
<rect x="0.5" y="0.5" width="15" height="15" rx="1.5" stroke="#4A5568"/>
</svg>
