<svg width="12" height="12" viewBox="0 0 12 12" fill="none" xmlns="http://www.w3.org/2000/svg">
<path d="M11.7064 5.13822L11.8818 1.23829L10.6419 2.06974C9.51917 0.769632 7.88679 0 6.11842 0C2.81001 0 0.118225 2.69101 0.118225 5.99942C0.118225 9.30783 2.81001 11.9996 6.11842 11.9996C7.29953 11.9996 8.41572 11.6511 9.36231 11.0418C9.06404 10.5797 8.76268 10.1026 8.43813 9.65208C7.75698 10.086 6.95605 10.3309 6.1188 10.3309C3.72993 10.3309 1.78731 8.38791 1.78731 5.99903C1.78731 3.61093 3.73032 1.66792 6.1188 1.66792C7.30262 1.66792 8.42654 2.16285 9.23829 3.01091L8.03091 3.82034L11.7064 5.13822Z" fill="#6C5CE7"/>
<path d="M6.5 3V6.5L4.5 8" stroke="#6C5CE7" stroke-width="1.5"/>
</svg>
