<svg width="12" height="12" viewBox="0 0 12 12" fill="none" xmlns="http://www.w3.org/2000/svg">
<path fill-rule="evenodd" clip-rule="evenodd" d="M7.78586 1.68857C6.93314 1.33536 5.99482 1.24294 5.08958 1.423C4.18434 1.60307 3.35282 2.04753 2.70017 2.70017C2.04753 3.35282 1.60307 4.18434 1.423 5.08958C1.24294 5.99482 1.33536 6.93314 1.68857 7.78586C2.04177 8.63858 2.63991 9.36741 3.40734 9.88019C4.17477 10.393 5.07702 10.6667 6 10.6667C6.36819 10.6667 6.66667 10.9651 6.66667 11.3333C6.66667 11.7015 6.36819 12 6 12C4.81331 12 3.65328 11.6481 2.66658 10.9888C1.67989 10.3295 0.910851 9.39246 0.456725 8.2961C0.00259968 7.19974 -0.11622 5.99335 0.115291 4.82946C0.346802 3.66557 0.918247 2.59648 1.75736 1.75736C2.59648 0.918247 3.66557 0.346802 4.82946 0.115291C5.99335 -0.11622 7.19974 0.00259976 8.2961 0.456725C9.39246 0.910851 10.3295 1.67989 10.9888 2.66658C11.6481 3.65328 12 4.81331 12 6L12 8.33333C12 9.622 10.9553 10.6667 9.66667 10.6667C8.378 10.6667 7.33333 9.622 7.33333 8.33333V8.30992C6.9411 8.53681 6.48572 8.66667 6 8.66667C4.52724 8.66667 3.33333 7.47276 3.33333 6C3.33333 4.52724 4.52724 3.33333 6 3.33333C7.47276 3.33333 8.66667 4.52724 8.66667 6C8.66667 6.00062 8.66667 6.00124 8.66667 6.00186V8.33333C8.66667 8.88562 9.11438 9.33333 9.66667 9.33333C10.219 9.33333 10.6667 8.88562 10.6667 8.33333V6C10.6667 5.07702 10.393 4.17477 9.88019 3.40734C9.36741 2.63991 8.63858 2.04177 7.78586 1.68857ZM7.33333 6C7.33333 5.26362 6.73638 4.66667 6 4.66667C5.26362 4.66667 4.66667 5.26362 4.66667 6C4.66667 6.73638 5.26362 7.33333 6 7.33333C6.73594 7.33333 7.33262 6.73709 7.33333 6.00132C7.33333 6.00088 7.33333 6.00044 7.33333 6Z" fill="#4A5568"/>
</svg>
