<svg width="12" height="12" viewBox="0 0 12 12" fill="none" xmlns="http://www.w3.org/2000/svg">
<path d="M6.03033 2.96967C5.73744 2.67678 5.26256 2.67678 4.96967 2.96967C4.67678 3.26256 4.67678 3.73744 4.96967 4.03033L6.03033 2.96967ZM8 6L8.53033 6.53033C8.82322 6.23744 8.82322 5.76256 8.53033 5.46967L8 6ZM4.96967 7.96967C4.67678 8.26256 4.67678 8.73744 4.96967 9.03033C5.26256 9.32322 5.73744 9.32322 6.03033 9.03033L4.96967 7.96967ZM1 5.25C0.585786 5.25 0.25 5.58579 0.25 6C0.25 6.41421 0.585786 6.75 1 6.75V5.25ZM4.96967 4.03033L7.46967 6.53033L8.53033 5.46967L6.03033 2.96967L4.96967 4.03033ZM7.46967 5.46967L4.96967 7.96967L6.03033 9.03033L8.53033 6.53033L7.46967 5.46967ZM8 5.25H1V6.75H8V5.25ZM3.25 3.5V2.5H1.75V3.5H3.25ZM4 1.75H9.5V0.25H4V1.75ZM10.25 2.5V9.5H11.75V2.5H10.25ZM9.5 10.25H4V11.75H9.5V10.25ZM3.25 9.5V8.5H1.75V9.5H3.25ZM4 10.25C3.58579 10.25 3.25 9.91421 3.25 9.5H1.75C1.75 10.7426 2.75736 11.75 4 11.75V10.25ZM10.25 9.5C10.25 9.91421 9.91421 10.25 9.5 10.25V11.75C10.7426 11.75 11.75 10.7426 11.75 9.5H10.25ZM9.5 1.75C9.91421 1.75 10.25 2.08579 10.25 2.5H11.75C11.75 1.25736 10.7426 0.25 9.5 0.25V1.75ZM3.25 2.5C3.25 2.08579 3.58579 1.75 4 1.75V0.25C2.75736 0.25 1.75 1.25736 1.75 2.5H3.25Z" fill="#6C5CE7"/>
</svg>
