<svg width="14" height="14" viewBox="0 0 14 14" fill="none" xmlns="http://www.w3.org/2000/svg">
<path d="M11.2015 1.42167L4.90477 10.2641L2.7073 7.86426C2.51974 7.65942 2.26536 7.54435 2.00011 7.54435C1.73487 7.54435 1.48048 7.65942 1.29293 7.86426C1.10537 8.06909 1 8.3469 1 8.63658C1 8.92626 1.10537 9.20407 1.29293 9.40891L4.28948 12.6815C4.47851 12.8851 4.73318 12.9994 4.99866 13H5.06059C5.20395 12.9918 5.344 12.9499 5.47121 12.8773C5.59842 12.8046 5.70979 12.7028 5.79774 12.5789L12.7897 2.76124C12.9523 2.53268 13.0252 2.24292 12.9922 1.9557C12.9593 1.66848 12.8232 1.40732 12.6139 1.22968C12.4046 1.05204 12.1393 0.972475 11.8763 1.00848C11.6133 1.04449 11.3742 1.19311 11.2115 1.42167H11.2015Z" fill="#6c5ce7" stroke="#6c5ce7"/>
</svg>
