<svg width="8" height="12" viewBox="0 0 8 12" fill="none" xmlns="http://www.w3.org/2000/svg">
<path d="M1.29296 1.70696L5.58596 5.99996L1.29296 10.293C1.1108 10.4816 1.01001 10.7342 1.01229 10.9964C1.01456 11.2586 1.11973 11.5094 1.30514 11.6948C1.49055 11.8802 1.74136 11.9854 2.00356 11.9876C2.26575 11.9899 2.51836 11.8891 2.70696 11.707L7.70696 6.70696C7.89443 6.51943 7.99975 6.26512 7.99975 5.99996C7.99975 5.73479 7.89443 5.48049 7.70696 5.29296L2.70696 0.292959C2.61471 0.197449 2.50437 0.121266 2.38236 0.0688571C2.26036 0.016448 2.12914 -0.011138 1.99636 -0.012292C1.86358 -0.0134459 1.7319 0.011857 1.609 0.0621376C1.48611 0.112418 1.37446 0.186671 1.28056 0.280564C1.18667 0.374457 1.11242 0.486109 1.06214 0.609005C1.01186 0.731901 0.986554 0.863581 0.987708 0.99636C0.988862 1.12914 1.01645 1.26036 1.06886 1.38236C1.12127 1.50437 1.19745 1.61471 1.29296 1.70696Z" fill="white"/>
</svg>
