<svg width="16" height="16" viewBox="0 0 16 16" fill="none" xmlns="http://www.w3.org/2000/svg">
<mask id="path-1-inside-1_3049:10055" fill="white">
<path fill-rule="evenodd" clip-rule="evenodd" d="M7.26029 0.887617C7.62465 0.404188 8.3366 0.404698 8.69608 0.891796C9.78623 2.36896 10.5155 3.95521 10.8656 5.37933C12.4668 6.01783 13.3444 7.69259 13.3382 9.51726V9.52923C13.3382 10.0826 12.8914 10.3448 12.3402 10.3448H10.8656C10.7407 10.9615 10.4875 11.4157 10.2945 11.6907C10.1468 11.9012 9.89823 12 9.64172 12H6.36999C6.08402 12 5.81043 11.8771 5.65687 11.6349C5.47506 11.3481 5.24085 10.9041 5.09605 10.3448L3.53512 10.3448C3.03725 10.3448 2.62286 10.0731 2.62336 9.57319L2.62341 9.51726C2.57635 7.63911 3.43716 5.97534 5.09605 5.37933C5.36752 3.95064 6.14311 2.3699 7.26029 0.887617ZM8.00004 4.66668C8.55232 4.66668 9.00004 4.21897 9.00004 3.66668C9.00004 3.1144 8.55232 2.66668 8.00004 2.66668C7.44775 2.66668 7.00004 3.1144 7.00004 3.66668C7.00004 4.21897 7.44775 4.66668 8.00004 4.66668Z"/>
</mask>
<path fill-rule="evenodd" clip-rule="evenodd" d="M7.26029 0.887617C7.62465 0.404188 8.3366 0.404698 8.69608 0.891796C9.78623 2.36896 10.5155 3.95521 10.8656 5.37933C12.4668 6.01783 13.3444 7.69259 13.3382 9.51726V9.52923C13.3382 10.0826 12.8914 10.3448 12.3402 10.3448H10.8656C10.7407 10.9615 10.4875 11.4157 10.2945 11.6907C10.1468 11.9012 9.89823 12 9.64172 12H6.36999C6.08402 12 5.81043 11.8771 5.65687 11.6349C5.47506 11.3481 5.24085 10.9041 5.09605 10.3448L3.53512 10.3448C3.03725 10.3448 2.62286 10.0731 2.62336 9.57319L2.62341 9.51726C2.57635 7.63911 3.43716 5.97534 5.09605 5.37933C5.36752 3.95064 6.14311 2.3699 7.26029 0.887617ZM8.00004 4.66668C8.55232 4.66668 9.00004 4.21897 9.00004 3.66668C9.00004 3.1144 8.55232 2.66668 8.00004 2.66668C7.44775 2.66668 7.00004 3.1144 7.00004 3.66668C7.00004 4.21897 7.44775 4.66668 8.00004 4.66668Z" fill="#647696"/>
<path d="M8.69608 0.891796L9.50069 0.29799V0.29799L8.69608 0.891796ZM7.26029 0.887617L6.46171 0.28573L6.46171 0.28573L7.26029 0.887617ZM10.8656 5.37933L9.89445 5.61801L10.0173 6.11764L10.4952 6.3082L10.8656 5.37933ZM13.3382 9.51726L12.3382 9.51386V9.51726H13.3382ZM10.8656 10.3448V9.34484H10.0477L9.88543 10.1464L10.8656 10.3448ZM10.2945 11.6907L11.113 12.2651H11.113L10.2945 11.6907ZM9.64172 12V13V12ZM6.36999 12L6.36999 11H6.36999V12ZM5.65687 11.6349L4.81229 12.1703L4.81229 12.1703L5.65687 11.6349ZM5.09605 10.3448L6.06413 10.0942L5.87011 9.34484L5.09606 9.34484L5.09605 10.3448ZM3.53512 10.3448L3.53512 9.34484H3.53512V10.3448ZM2.62336 9.57319L3.62336 9.5742L3.62336 9.57411L2.62336 9.57319ZM2.62341 9.51726L3.62341 9.51818L3.62343 9.50519L3.6231 9.49221L2.62341 9.51726ZM5.09605 5.37933L5.43418 6.32043L5.97183 6.12726L6.07848 5.566L5.09605 5.37933ZM9.50069 0.29799C8.74023 -0.732432 7.22484 -0.726778 6.46171 0.28573L8.05888 1.4895C8.05435 1.49551 8.04347 1.50618 8.0264 1.5145C8.01066 1.52219 7.99401 1.52579 7.97783 1.52576C7.96163 1.52572 7.94411 1.52202 7.92704 1.51355C7.90858 1.5044 7.89663 1.49259 7.89147 1.4856L9.50069 0.29799ZM11.8366 5.14064C11.4529 3.57938 10.6636 1.8737 9.50069 0.29799L7.89147 1.4856C8.90889 2.86421 9.57813 4.33104 9.89445 5.61801L11.8366 5.14064ZM14.3382 9.52066C14.3454 7.40605 13.3194 5.28124 11.2359 4.45045L10.4952 6.3082C11.6142 6.75442 12.3434 7.97914 12.3382 9.51386L14.3382 9.52066ZM14.3382 9.52923V9.51726H12.3382V9.52923H14.3382ZM12.3402 11.3448C12.7574 11.3448 13.2394 11.2478 13.6439 10.9461C14.0855 10.6166 14.3382 10.1114 14.3382 9.52923H12.3382C12.3382 9.53033 12.3388 9.49679 12.3629 9.44786C12.3872 9.39854 12.4209 9.3632 12.4479 9.34304C12.472 9.32509 12.4809 9.32617 12.4606 9.33184C12.4402 9.3375 12.4005 9.34484 12.3402 9.34484V11.3448ZM10.8656 11.3448H12.3402V9.34484H10.8656V11.3448ZM11.113 12.2651C11.3658 11.905 11.6875 11.3247 11.8457 10.5433L9.88543 10.1464C9.79396 10.5983 9.60925 10.9264 9.47601 11.1162L11.113 12.2651ZM9.64172 13C10.1385 13 10.7337 12.8056 11.113 12.2651L9.47601 11.1162C9.51441 11.0615 9.56179 11.029 9.59639 11.0133C9.61255 11.006 9.62476 11.0028 9.63172 11.0014C9.63529 11.0007 9.63787 11.0003 9.63942 11.0002C9.64021 11.0001 9.64078 11.0001 9.64115 11C9.64152 11 9.64171 11 9.64172 11V13ZM6.36999 13L9.64172 13L9.64172 11L6.36999 11L6.36999 13ZM4.81229 12.1703C5.18335 12.7556 5.81047 13 6.36999 13V11C6.37002 11 6.37066 11 6.37195 11.0002C6.37324 11.0003 6.37536 11.0006 6.37829 11.0013C6.38402 11.0025 6.39398 11.0054 6.40709 11.0119C6.43536 11.0259 6.47276 11.0542 6.50144 11.0995L4.81229 12.1703ZM4.12798 10.5955C4.30541 11.2808 4.59067 11.8208 4.81229 12.1703L6.50144 11.0995C6.35945 10.8755 6.1763 10.5274 6.06413 10.0942L4.12798 10.5955ZM3.53512 11.3448L5.09605 11.3448L5.09606 9.34484L3.53512 9.34484L3.53512 11.3448ZM1.62336 9.57218C1.6228 10.1304 1.86802 10.613 2.27401 10.9324C2.65444 11.2317 3.11619 11.3448 3.53512 11.3448V9.34484C3.45618 9.34484 3.4618 9.32211 3.51069 9.36057C3.5384 9.38238 3.57098 9.41813 3.59497 9.46747C3.61922 9.51737 3.62338 9.55786 3.62336 9.5742L1.62336 9.57218ZM1.62341 9.51634L1.62336 9.57227L3.62336 9.57411L3.62341 9.51818L1.62341 9.51634ZM4.75793 4.43822C2.57797 5.22145 1.56929 7.36985 1.62373 9.54231L3.6231 9.49221C3.58341 7.90837 4.29635 6.72923 5.43418 6.32043L4.75793 4.43822ZM6.46171 0.28573C5.28232 1.85055 4.4218 3.57085 4.11363 5.19265L6.07848 5.566C6.31325 4.33043 7.0039 2.88924 8.05888 1.4895L6.46171 0.28573ZM8.00004 3.66668H8.00004V5.66668C9.10461 5.66668 10 4.77125 10 3.66668H8.00004ZM8.00004 3.66668H8.00004H10C10 2.56211 9.10461 1.66668 8.00004 1.66668V3.66668ZM8.00004 3.66668H8.00004V1.66668C6.89547 1.66668 6.00004 2.56211 6.00004 3.66668H8.00004ZM8.00004 3.66668H8.00004H6.00004C6.00004 4.77125 6.89547 5.66668 8.00004 5.66668V3.66668Z" fill="#647696" mask="url(#path-1-inside-1_3049:10055)"/>
<path d="M4.30508 14.2469L4.30619 14.2303L4.30619 14.2136C4.30619 13.871 4.54642 13.6307 4.88907 13.6307C5.23172 13.6307 5.47196 13.871 5.47196 14.2136C5.47196 14.2364 5.45643 14.3178 5.37087 14.4645C5.29144 14.6006 5.17841 14.748 5.05423 14.8899C4.99845 14.9537 4.94235 15.0141 4.8889 15.0696C4.83081 15.0097 4.76961 14.9441 4.70906 14.875C4.58201 14.7301 4.46867 14.5824 4.39178 14.4496C4.31833 14.3227 4.30742 14.2592 4.30552 14.2482C4.30521 14.2464 4.30514 14.246 4.30508 14.2469Z" fill="#A9B6CB" stroke="#A9B6CB"/>
<path d="M7.41592 14.2469L7.41703 14.2303L7.41703 14.2136C7.41702 13.871 7.65726 13.6307 7.99991 13.6307C8.34256 13.6307 8.5828 13.871 8.5828 14.2136C8.5828 14.2364 8.56727 14.3178 8.48171 14.4645C8.40228 14.6006 8.28925 14.748 8.16507 14.8899C8.10929 14.9537 8.05319 15.0141 7.99974 15.0696C7.94165 15.0097 7.88045 14.9441 7.8199 14.875C7.69285 14.7301 7.57951 14.5824 7.50262 14.4496C7.42917 14.3227 7.41826 14.2592 7.41636 14.2482C7.41605 14.2464 7.41598 14.246 7.41592 14.2469Z" fill="#A9B6CB" stroke="#A9B6CB"/>
<path d="M10.5272 14.2469L10.5284 14.2303L10.5284 14.2136C10.5284 13.871 10.7686 13.6307 11.1112 13.6307C11.4539 13.6307 11.6941 13.871 11.6941 14.2136C11.6941 14.2364 11.6786 14.3178 11.593 14.4645C11.5136 14.6006 11.4006 14.748 11.2764 14.8899C11.2206 14.9537 11.1645 15.0141 11.1111 15.0696C11.053 15.0097 10.9918 14.9441 10.9312 14.875C10.8042 14.7301 10.6908 14.5824 10.614 14.4496C10.5405 14.3227 10.5296 14.2592 10.5277 14.2482C10.5274 14.2464 10.5273 14.246 10.5272 14.2469Z" fill="#A9B6CB" stroke="#A9B6CB"/>
</svg>
