<svg width="60" height="60" viewBox="0 0 60 60" fill="none" xmlns="http://www.w3.org/2000/svg">
<mask id="path-1-inside-1" fill="white">
<path fill-rule="evenodd" clip-rule="evenodd" d="M29.1845 0.868741C29.5737 0.405267 30.2823 0.405598 30.6698 0.870542C35.8417 7.07635 39.2354 14.0269 40.7459 20.1723C46.7506 22.5667 50.0416 28.8471 50.0183 35.6896V38.4883C50.0183 38.8982 49.7732 38.8681 49.4221 38.8249C49.2992 38.8098 49.1633 38.793 49.0204 38.793L40.7459 38.793C40.1038 41.9651 38.5561 43.9906 37.9274 44.708C37.758 44.9014 37.512 44.9999 37.2555 44.9999L22.6508 44.9999C22.3649 44.9999 22.0934 44.8773 21.9194 44.6495C21.3131 43.8554 19.8773 41.7552 19.1103 38.793L10.8688 38.793H10.8664C10.3692 38.793 9.8359 38.793 9.83427 38.2939C9.8337 38.121 9.83428 37.8513 9.83516 37.441C9.83607 37.0205 9.83729 36.4523 9.83792 35.6896C9.66144 28.6465 12.8895 22.4074 19.1103 20.1723C20.2802 14.0156 23.9465 7.10583 29.1845 0.868741ZM30 17.4999C32.0711 17.4999 33.75 15.821 33.75 13.7499C33.75 11.6789 32.0711 9.99994 30 9.99994C27.9289 9.99994 26.25 11.6789 26.25 13.7499C26.25 15.821 27.9289 17.4999 30 17.4999Z"/>
</mask>
<path fill-rule="evenodd" clip-rule="evenodd" d="M29.1845 0.868741C29.5737 0.405267 30.2823 0.405598 30.6698 0.870542C35.8417 7.07635 39.2354 14.0269 40.7459 20.1723C46.7506 22.5667 50.0416 28.8471 50.0183 35.6896V38.4883C50.0183 38.8982 49.7732 38.8681 49.4221 38.8249C49.2992 38.8098 49.1633 38.793 49.0204 38.793L40.7459 38.793C40.1038 41.9651 38.5561 43.9906 37.9274 44.708C37.758 44.9014 37.512 44.9999 37.2555 44.9999L22.6508 44.9999C22.3649 44.9999 22.0934 44.8773 21.9194 44.6495C21.3131 43.8554 19.8773 41.7552 19.1103 38.793L10.8688 38.793H10.8664C10.3692 38.793 9.8359 38.793 9.83427 38.2939C9.8337 38.121 9.83428 37.8513 9.83516 37.441C9.83607 37.0205 9.83729 36.4523 9.83792 35.6896C9.66144 28.6465 12.8895 22.4074 19.1103 20.1723C20.2802 14.0156 23.9465 7.10583 29.1845 0.868741ZM30 17.4999C32.0711 17.4999 33.75 15.821 33.75 13.7499C33.75 11.6789 32.0711 9.99994 30 9.99994C27.9289 9.99994 26.25 11.6789 26.25 13.7499C26.25 15.821 27.9289 17.4999 30 17.4999Z" fill="#EDF1F7"/>
<path d="M30.6698 0.870542L31.4379 0.230325V0.230325L30.6698 0.870542ZM29.1845 0.868741L29.9503 1.51185V1.51185L29.1845 0.868741ZM40.7459 20.1723L39.7748 20.411L39.8976 20.9107L40.3755 21.1012L40.7459 20.1723ZM50.0183 35.6896L49.0183 35.6862V35.6896H50.0183ZM49.4221 38.8249L49.5442 37.8324H49.5442L49.4221 38.8249ZM49.0204 38.793V39.793V38.793ZM40.7459 38.793V37.793H39.9281L39.7658 38.5946L40.7459 38.793ZM37.9274 44.708L37.1753 44.049L37.1753 44.049L37.9274 44.708ZM37.2555 44.9999V45.9999V44.9999ZM22.6508 44.9999V43.9999V44.9999ZM21.9194 44.6495L22.7142 44.0426H22.7142L21.9194 44.6495ZM19.1103 38.793L20.0784 38.5424L19.8844 37.793H19.1103L19.1103 38.793ZM10.8688 38.793L10.8688 37.793H10.8688V38.793ZM9.83427 38.2939L8.83427 38.2972L9.83427 38.2939ZM9.83516 37.441L8.83517 37.4388L9.83516 37.441ZM9.83792 35.6896L10.8379 35.6904L10.8379 35.6775L10.8376 35.6645L9.83792 35.6896ZM19.1103 20.1723L19.4484 21.1134L19.9861 20.9203L20.0927 20.359L19.1103 20.1723ZM31.4379 0.230325C30.6504 -0.714609 29.2074 -0.713416 28.4187 0.225633L29.9503 1.51185C29.9503 1.51182 29.9468 1.51542 29.9404 1.51833C29.9351 1.52075 29.9305 1.52149 29.9268 1.52148C29.9231 1.52148 29.9182 1.52073 29.9125 1.5181C29.9096 1.51675 29.9068 1.5151 29.9046 1.51336C29.9022 1.51157 29.9013 1.51039 29.9016 1.51076L31.4379 0.230325ZM41.717 19.9337C40.1683 13.6326 36.7017 6.54625 31.4379 0.230325L29.9016 1.51076C34.9817 7.60644 38.3026 14.4212 39.7748 20.411L41.717 19.9337ZM51.0183 35.693C51.0426 28.5605 47.6032 21.8301 41.1163 19.2435L40.3755 21.1012C45.898 23.3033 49.0406 29.1336 49.0183 35.6862L51.0183 35.693ZM51.0183 38.4883V35.6896H49.0183V38.4883H51.0183ZM49.3 39.8174C49.3757 39.8267 49.5038 39.8432 49.6289 39.8476C49.7493 39.8517 49.9634 39.8501 50.1941 39.7661C50.4632 39.6681 50.7073 39.4751 50.8597 39.1853C50.9931 38.9315 51.0183 38.6748 51.0183 38.4883H49.0183C49.0183 38.5068 49.013 38.4 49.0895 38.2545C49.1849 38.073 49.3457 37.9466 49.5097 37.8869C49.6352 37.8412 49.7221 37.8496 49.6978 37.8487C49.6783 37.8481 49.644 37.8446 49.5442 37.8324L49.3 39.8174ZM49.0204 39.793C49.093 39.793 49.1703 39.8014 49.3 39.8174L49.5442 37.8324C49.428 37.8181 49.2336 37.793 49.0204 37.793V39.793ZM40.7459 39.793L49.0204 39.793V37.793L40.7459 37.793V39.793ZM38.6796 45.367C39.3807 44.5669 41.0385 42.3878 41.7261 38.9915L39.7658 38.5946C39.1691 41.5423 37.7315 43.4142 37.1753 44.049L38.6796 45.367ZM37.2555 45.9999C37.7649 45.9999 38.2982 45.8023 38.6796 45.367L37.1753 44.049C37.1945 44.0271 37.2161 44.0134 37.2327 44.0063C37.2482 43.9997 37.2564 43.9999 37.2555 43.9999V45.9999ZM22.6508 45.9999L37.2555 45.9999V43.9999L22.6508 43.9999V45.9999ZM21.1246 45.2564C21.5043 45.7535 22.0813 45.9999 22.6508 45.9999V43.9999C22.6503 43.9999 22.6572 43.9998 22.6698 44.0057C22.6834 44.0121 22.7002 44.0243 22.7142 44.0426L21.1246 45.2564ZM18.1423 39.0437C18.9542 42.1796 20.471 44.4004 21.1247 45.2564L22.7142 44.0426C22.1552 43.3104 20.8004 41.3308 20.0784 38.5424L18.1423 39.0437ZM10.8688 39.793L19.1103 39.793L19.1103 37.793L10.8688 37.793L10.8688 39.793ZM10.8664 39.793H10.8688V37.793H10.8664V39.793ZM8.83427 38.2972C8.8353 38.6103 8.92481 38.9403 9.15543 39.2194C9.37461 39.4847 9.64882 39.6158 9.86075 39.6834C10.2364 39.8032 10.6699 39.793 10.8664 39.793V37.793C10.7356 37.793 10.6423 37.7927 10.5605 37.7873C10.4763 37.7819 10.4548 37.7736 10.4683 37.7779C10.4845 37.7831 10.594 37.8206 10.6972 37.9455C10.8118 38.0842 10.8341 38.227 10.8343 38.2906L8.83427 38.2972ZM8.83517 37.4388C8.83429 37.8475 8.83369 38.1209 8.83427 38.2972L10.8343 38.2906C10.8337 38.1212 10.8343 37.855 10.8352 37.4431L8.83517 37.4388ZM8.83792 35.6888C8.83729 36.4508 8.83607 37.0184 8.83517 37.4388L10.8352 37.4431C10.8361 37.0225 10.8373 36.4538 10.8379 35.6904L8.83792 35.6888ZM18.7722 19.2312C12.0303 21.6535 8.65437 28.3773 8.83824 35.7146L10.8376 35.6645C10.6685 28.9158 13.7487 23.1613 19.4484 21.1134L18.7722 19.2312ZM28.4187 0.225633C23.1084 6.54882 19.3391 13.6112 18.1279 19.9857L20.0927 20.359C21.2212 14.42 24.7846 7.66284 29.9503 1.51185L28.4187 0.225633ZM32.75 13.7499C32.75 15.2687 31.5188 16.4999 30 16.4999V18.4999C32.6234 18.4999 34.75 16.3733 34.75 13.7499H32.75ZM30 10.9999C31.5188 10.9999 32.75 12.2312 32.75 13.7499H34.75C34.75 11.1266 32.6234 8.99994 30 8.99994V10.9999ZM27.25 13.7499C27.25 12.2312 28.4812 10.9999 30 10.9999V8.99994C27.3767 8.99994 25.25 11.1266 25.25 13.7499H27.25ZM30 16.4999C28.4812 16.4999 27.25 15.2687 27.25 13.7499H25.25C25.25 16.3733 27.3767 18.4999 30 18.4999V16.4999Z" fill="#EDF1F7" mask="url(#path-1-inside-1)"/>
<path d="M14.7715 53.3345L14.7726 53.3179L14.7726 53.3013C14.7726 51.2569 16.2891 49.7404 18.3334 49.7404C20.3777 49.7404 21.8942 51.2569 21.8942 53.3013C21.8942 53.7495 21.6926 54.3094 21.3278 54.9347C20.9692 55.5495 20.484 56.1754 19.9875 56.7428C19.4928 57.3082 18.9965 57.8047 18.6231 58.1603C18.5151 58.2631 18.4177 58.3539 18.3339 58.4309C18.2446 58.3488 18.14 58.2511 18.0236 58.1401C17.6386 57.7729 17.1285 57.2627 16.6245 56.688C16.1186 56.111 15.6297 55.4814 15.2786 54.8749C14.919 54.2538 14.7453 53.7267 14.7715 53.3345Z" fill="#EDF1F7" stroke="#EDF1F7"/>
<path d="M26.4385 53.3345L26.4396 53.3179L26.4396 53.3013C26.4396 51.2569 27.9561 49.7404 30.0004 49.7404C32.0447 49.7404 33.5612 51.2569 33.5612 53.3013C33.5612 53.7495 33.3596 54.3094 32.9948 54.9347C32.6362 55.5495 32.151 56.1754 31.6545 56.7428C31.1598 57.3082 30.6635 57.8047 30.2901 58.1603C30.1821 58.2631 30.0847 58.3539 30.0009 58.4309C29.9116 58.3488 29.807 58.2511 29.6906 58.1401C29.3056 57.7729 28.7955 57.2627 28.2915 56.688C27.7856 56.111 27.2967 55.4814 26.9456 54.8749C26.586 54.2538 26.4123 53.7267 26.4385 53.3345Z" fill="#EDF1F7" stroke="#EDF1F7"/>
<path d="M38.1045 53.3345L38.1056 53.3179L38.1056 53.3013C38.1056 51.2569 39.6221 49.7404 41.6664 49.7404C43.7108 49.7404 45.2273 51.2569 45.2273 53.3013C45.2273 53.7495 45.0256 54.3094 44.6609 54.9347C44.3022 55.5495 43.817 56.1754 43.3206 56.7428C42.8258 57.3082 42.3295 57.8047 41.9561 58.1603C41.8482 58.2631 41.7507 58.3539 41.6669 58.4309C41.5777 58.3488 41.473 58.2511 41.3566 58.1401C40.9716 57.7729 40.4615 57.2627 39.9576 56.688C39.4516 56.111 38.9627 55.4814 38.6116 54.8749C38.252 54.2538 38.0783 53.7267 38.1045 53.3345Z" fill="#EDF1F7" stroke="#EDF1F7"/>
</svg>
