<svg width="16" height="16" viewBox="0 0 16 16" fill="none" xmlns="http://www.w3.org/2000/svg">
<path d="M6.02655 0.5H9.79983L9.8428 0.508056C9.84291 0.50821 9.84301 0.508374 9.84313 0.508549C9.84688 0.514352 9.84928 0.523288 9.84771 0.532934L9.51043 2.24744H6.33676L6.01362 0.533369L6.00919 0.509899C6.01009 0.508602 6.01117 0.50728 6.01246 0.505966C6.01507 0.503294 6.01742 0.501905 6.01896 0.501236C6.02005 0.500767 6.02208 0.5 6.02655 0.5Z" stroke="#647696"/>
<path d="M9.47157 3.94336L11.0482 12.5234C11.0472 12.5257 11.0456 12.5292 11.0429 12.5334C11.0402 12.5376 11.0367 12.5422 11.0326 12.5466L7.93167 15.4916C7.92464 15.4974 7.91547 15.5005 7.9074 15.5003C7.90687 15.5003 7.90639 15.5003 7.90597 15.5003L7.9023 15.4963L7.89516 15.4891L4.95643 12.533L4.95539 12.5319C4.95465 12.5312 4.95403 12.5304 4.95352 12.5297L4.95374 12.5287L4.95595 12.5154L6.38187 3.94336H9.47157Z" stroke="#647696"/>
</svg>
