<svg width="60" height="60" viewBox="0 0 60 60" fill="none" xmlns="http://www.w3.org/2000/svg">
<path d="M39.0858 2H9.5C8.94772 2 8.5 2.44771 8.5 3V57C8.5 57.5523 8.94772 58 9.5 58H50.5C51.0523 58 51.5 57.5523 51.5 57V14.4142C51.5 14.149 51.3946 13.8946 51.2071 13.7071L39.7929 2.29289C39.6054 2.10536 39.351 2 39.0858 2Z" fill="white"/>
<path fill-rule="evenodd" clip-rule="evenodd" d="M7.5 3C7.5 1.89543 8.39543 1 9.5 1H39.0858C39.6162 1 40.1249 1.21071 40.5 1.58579L51.9142 13L51.2071 13.7071L51.9142 13C52.2893 13.3751 52.5 13.8838 52.5 14.4142V57C52.5 58.1046 51.6046 59 50.5 59H9.5C8.39543 59 7.5 58.1046 7.5 57V3ZM39.0858 3L9.5 3V57H50.5V14.4142L39.0858 3Z" fill="#647696"/>
<path fill-rule="evenodd" clip-rule="evenodd" d="M38.5 13V2H40.5V13H51.5V15H40.5C39.3954 15 38.5 14.1046 38.5 13Z" fill="#647696"/>
<path fill-rule="evenodd" clip-rule="evenodd" d="M51.5 42H8.5V40H51.5V42Z" fill="#647696"/>
<path d="M24.137 49.9001C24.474 49.3891 24.643 48.7701 24.643 48.0411C24.643 47.5581 24.54 47.1231 24.335 46.7351C24.13 46.3471 23.861 46.0171 23.528 45.7441C23.195 45.4711 22.819 45.2651 22.4 45.1291C21.98 44.9921 21.556 44.9241 21.129 44.9241H18.23V55.0001H19.871V51.3631C20.208 51.3631 20.475 51.3631 20.671 51.3631C20.867 51.3631 21.013 51.3631 21.109 51.3631C21.205 51.3631 21.275 51.3611 21.321 51.3561C21.366 51.3511 21.403 51.3491 21.43 51.3491L23.33 54.9991H25.066L22.769 51.0341C23.344 50.7891 23.799 50.4111 24.137 49.9001ZM21.963 50.0581C21.762 50.1261 21.562 50.1611 21.361 50.1611H19.871V46.1691H21.101C21.52 46.1691 21.857 46.2351 22.113 46.3671C22.368 46.4991 22.566 46.6631 22.708 46.8591C22.85 47.0551 22.942 47.2601 22.988 47.4741C23.033 47.6881 23.056 47.8771 23.056 48.0411C23.056 48.4511 23.005 48.7951 22.906 49.0731C22.805 49.3511 22.674 49.5671 22.51 49.7221C22.346 49.8771 22.163 49.9891 21.963 50.0581Z" fill="#647696"/>
<path d="M26.7209 46.0451H29.7289V55.0001H31.3829V46.0451H34.3909V44.9241H26.7209V46.0451Z" fill="#647696"/>
<path d="M36.387 55.0001H38.055V50.4611H42.266V49.3401H38.055V46.1681H42.689V44.9241H36.387V55.0001Z" fill="#647696"/>
<path d="M15 15H21C21.553 15 22 14.552 22 14C22 13.448 21.553 13 21 13H15C14.447 13 14 13.448 14 14C14 14.552 14.447 15 15 15Z" fill="#647696"/>
<path d="M15 20H24C24.553 20 25 19.552 25 19C25 18.448 24.553 18 24 18H15C14.447 18 14 18.448 14 19C14 19.552 14.447 20 15 20Z" fill="#647696"/>
<path d="M28 20C28.26 20 28.52 19.8899 28.71 19.7099C28.89 19.5199 29 19.26 29 19C29 18.74 28.89 18.48 28.71 18.29C28.33 17.92 27.67 17.92 27.29 18.29C27.109 18.48 27 18.73 27 19C27 19.27 27.109 19.5199 27.29 19.7099C27.479 19.8899 27.74 20 28 20Z" fill="#647696"/>
<path d="M32 20H40C40.553 20 41 19.552 41 19C41 18.448 40.553 18 40 18H32C31.447 18 31 18.448 31 19C31 19.552 31.447 20 32 20Z" fill="#647696"/>
<path d="M14.29 33.29C14.109 33.48 14 33.73 14 34C14 34.27 14.109 34.5199 14.29 34.7099C14.479 34.8899 14.729 35 15 35C15.27 35 15.52 34.8899 15.71 34.7099C15.89 34.5199 16 34.26 16 34C16 33.74 15.89 33.48 15.71 33.29C15.34 32.92 14.66 32.92 14.29 33.29Z" fill="#647696"/>
<path d="M27 33H19C18.447 33 18 33.448 18 34C18 34.552 18.447 35 19 35H27C27.553 35 28 34.552 28 34C28 33.448 27.553 33 27 33Z" fill="#647696"/>
<path d="M46 18H44C43.447 18 43 18.448 43 19C43 19.552 43.447 20 44 20H46C46.553 20 47 19.552 47 19C47 18.448 46.553 18 46 18Z" fill="#647696"/>
<path d="M15 25H37C37.553 25 38 24.552 38 24C38 23.448 37.553 23 37 23H15C14.447 23 14 23.448 14 24C14 24.552 14.447 25 15 25Z" fill="#647696"/>
<path d="M46 23H40C39.447 23 39 23.448 39 24C39 24.552 39.447 25 40 25H46C46.553 25 47 24.552 47 24C47 23.448 46.553 23 46 23Z" fill="#647696"/>
<path d="M15 30H19C19.553 30 20 29.552 20 29C20 28.448 19.553 28 19 28H15C14.447 28 14 28.448 14 29C14 29.552 14.447 30 15 30Z" fill="#647696"/>
<path d="M33 28H23C22.447 28 22 28.448 22 29C22 29.552 22.447 30 23 30H33C33.553 30 34 29.552 34 29C34 28.448 33.553 28 33 28Z" fill="#647696"/>
<path d="M46 28H37C36.447 28 36 28.448 36 29C36 29.552 36.447 30 37 30H46C46.553 30 47 29.552 47 29C47 28.448 46.553 28 46 28Z" fill="#647696"/>
</svg>
