<svg width="12" height="12" viewBox="0 0 12 12" fill="none" xmlns="http://www.w3.org/2000/svg">
<path fill-rule="evenodd" clip-rule="evenodd" d="M3.6 0.3V3.3C3.6 3.46569 3.73431 3.6 3.9 3.6H8.1C8.26569 3.6 8.4 3.46569 8.4 3.3V0.3C8.4 0.134315 8.53432 0 8.7 0H9.10294C9.4212 0 9.72643 0.126428 9.95147 0.351472L11.6485 2.04853C11.8736 2.27357 12 2.5788 12 2.89706V10.8C12 11.4627 11.4627 12 10.8 12H1.2C0.537258 12 0 11.4627 0 10.8V1.2C0 0.537258 0.537258 0 1.2 0H3.3C3.46569 0 3.6 0.134315 3.6 0.3ZM6.3 0H6.9C7.06569 0 7.2 0.134315 7.2 0.3V2.1C7.2 2.26569 7.06569 2.4 6.9 2.4H6.3C6.13432 2.4 6 2.26569 6 2.1V0.3C6 0.134315 6.13432 0 6.3 0ZM1.2 5.1V10.5C1.2 10.6657 1.33431 10.8 1.5 10.8H10.5C10.6657 10.8 10.8 10.6657 10.8 10.5V5.1C10.8 4.93431 10.6657 4.8 10.5 4.8H1.5C1.33431 4.8 1.2 4.93431 1.2 5.1ZM3 6H9C9.33137 6 9.6 6.26863 9.6 6.6C9.6 6.93137 9.33137 7.2 9 7.2H3C2.66863 7.2 2.4 6.93137 2.4 6.6C2.4 6.26863 2.66863 6 3 6ZM3 8.4H9C9.33137 8.4 9.6 8.66863 9.6 9C9.6 9.33137 9.33137 9.6 9 9.6H3C2.66863 9.6 2.4 9.33137 2.4 9C2.4 8.66863 2.66863 8.4 3 8.4Z" fill="#fff"/>
</svg>
