<svg width="24" height="24" viewBox="0 0 24 24" fill="none" xmlns="http://www.w3.org/2000/svg">
<path fill-rule="evenodd" clip-rule="evenodd" d="M0.332062 5.48595C-0.121556 5.32419 -0.106714 4.67762 0.353849 4.53684L11.8534 1.02184C11.9487 0.99272 12.0505 0.992721 12.1458 1.02184L23.6453 4.53684C24.1059 4.67762 24.1207 5.32419 23.6671 5.48595L23.4538 5.56202V15.3354C23.785 15.5826 23.9992 15.976 23.9992 16.4192C23.9992 17.1673 23.3887 17.7738 22.6356 17.7738C21.8825 17.7738 21.272 17.1673 21.272 16.4192C21.272 15.976 21.4862 15.5825 21.8175 15.3353V6.14554L20.7265 6.5346V6.53678L12.0841 9.62333C12.0298 9.64275 11.9703 9.64275 11.916 9.62333L3.27236 6.53633V6.53448L0.332062 5.48595ZM12.5886 11.0359L20.7265 8.12958V15.431C18.9339 16.1129 15.7567 17.2498 12 17.2498C8.20638 17.2498 5.00957 16.192 3.27236 15.4577V8.12912L11.4115 11.0359C11.7921 11.1719 12.208 11.1719 12.5886 11.0359ZM3.27236 17.0763V19.9933C3.27236 20.1964 3.39525 20.3798 3.58438 20.4539C8.85565 22.5179 14.6229 22.516 20.3994 20.4483C20.5961 20.3779 20.7265 20.1904 20.7265 19.9814V17.0332C18.8147 17.7389 15.6773 18.7498 12 18.7498C8.34636 18.7498 5.22114 17.8359 3.27236 17.0763Z" fill="#6C5CE7"/>
</svg>
