<svg width="24" height="21" viewBox="0 0 24 21" fill="none" xmlns="http://www.w3.org/2000/svg">
<path fill-rule="evenodd" clip-rule="evenodd" d="M0.332123 4.48595C-0.121495 4.32419 -0.106653 3.67762 0.35391 3.53684L11.8535 0.0218385C11.9488 -0.0072796 12.0505 -0.00727946 12.1458 0.0218387L23.6454 3.53684C24.106 3.67762 24.1208 4.32419 23.6672 4.48595L23.4539 4.56202V14.3354C23.785 14.5826 23.9992 14.976 23.9992 15.4192C23.9992 16.1673 23.3887 16.7738 22.6356 16.7738C21.8825 16.7738 21.272 16.1673 21.272 15.4192C21.272 14.976 21.4863 14.5825 21.8176 14.3353V5.14554L20.7265 5.5346V18.9814C20.7265 19.1904 20.5962 19.3779 20.3994 19.4483C14.623 21.516 8.85571 21.5179 3.58444 19.4539C3.39531 19.3798 3.27242 19.1964 3.27242 18.9933V5.53448L0.332123 4.48595ZM19.9135 3.96463L11.9995 6.9128L4.08566 3.96469L11.9997 1.54567L19.9135 3.96463ZM4.77242 6.06939V13.8941C7.25179 14.6386 9.0663 14.8981 11.9995 14.9319C14.7628 14.8001 16.6984 14.6373 19.2265 13.8974V6.06951L12.1676 8.58679C12.059 8.62552 11.9403 8.62552 11.8317 8.58678L4.77242 6.06939ZM19.2265 15.5054C14.2751 17.0389 9.3547 17.0527 4.77242 15.5469V18.2963C9.30245 19.9037 14.2263 19.9104 19.2265 18.2653V15.5054Z" fill="#647696"/>
</svg>