<svg width="100" height="100" viewBox="0 0 100 100" fill="none" xmlns="http://www.w3.org/2000/svg">
<path fill-rule="evenodd" clip-rule="evenodd" d="M47.504 21.8718C48.9947 20.8448 51.0053 20.8448 52.496 21.8718C56.8496 24.8713 64.3787 28.9684 72.9839 30.7138C74.8374 31.0897 76.25 32.6697 76.25 34.5609V53.7504C76.25 68.187 60.04 76.8343 51.0216 79.6923C50.3541 79.9038 49.6459 79.9038 48.9784 79.6923C39.96 76.8343 23.75 68.187 23.75 53.7504V34.5609C23.75 32.6697 25.1626 31.0897 27.0161 30.7138C35.6213 28.9684 43.1504 24.8713 47.504 21.8718ZM55.625 40.6254C55.625 43.732 53.1066 46.2504 50 46.2504C46.8934 46.2504 44.375 43.732 44.375 40.6254C44.375 37.5188 46.8934 35.0004 50 35.0004C53.1066 35.0004 55.625 37.5188 55.625 40.6254ZM37.0068 57.5004C39.6004 53.0169 44.448 50.0004 50.0001 50.0004C55.5522 50.0004 60.3998 53.0169 62.9934 57.5004C60.3998 61.984 55.5522 65.0004 50.0001 65.0004C44.448 65.0004 39.6004 61.984 37.0068 57.5004Z" fill="#EDF2F7"/>
</svg>
