<svg width="16" height="16" viewBox="0 0 16 16" fill="none" xmlns="http://www.w3.org/2000/svg">
<path fill-rule="evenodd" clip-rule="evenodd" d="M7.3344 0.498988C7.73192 0.225109 8.26808 0.225109 8.6656 0.498988C9.82655 1.29885 11.8343 2.39139 14.129 2.85684C14.6233 2.95709 15 3.3784 15 3.88273V8.99995C15 12.8497 10.6773 15.1556 8.27244 15.9178C8.09442 15.9742 7.90558 15.9742 7.72756 15.9178C5.32268 15.1556 1 12.8497 1 8.99995V3.88273C1 3.3784 1.3767 2.95709 1.87096 2.85684C4.16568 2.39139 6.17345 1.29885 7.3344 0.498988ZM9.5 5.49995C9.5 6.32837 8.82843 6.99995 8 6.99995C7.17157 6.99995 6.5 6.32837 6.5 5.49995C6.5 4.67152 7.17157 3.99995 8 3.99995C8.82843 3.99995 9.5 4.67152 9.5 5.49995ZM4.53516 9.99995C5.22677 8.80434 6.51946 7.99995 8.00003 7.99995C9.48059 7.99995 10.7733 8.80434 11.4649 9.99995C10.7733 11.1955 9.48059 11.9999 8.00003 11.9999C6.51946 11.9999 5.22677 11.1955 4.53516 9.99995Z" fill="#647696"/>
</svg>
