<svg xmlns="http://www.w3.org/2000/svg" fill="none" viewBox="0 0 12 12" width="12" height="12">
  <path clip-rule="evenodd" fill="#A9B6CB" fill-rule="evenodd" d="M 5 1 V 0 C 2.23858 0 0 2.23858 0 5 H 1 C 1 2.79086 2.79086 1 5 1 Z M 0 7 H 1 C 1 9.20914 2.79086 11 5 11 V 12 C 2.23858 12 0 9.76142 0 7 Z M 7 11 C 9.20914 11 11 9.20914 11 7 H 12 C 12 9.76142 9.76142 12 7 12 V 11 Z M 7 1 C 9.20914 1 11 2.79086 11 5 H 12 C 12 2.23858 9.76142 0 7 0 V 1 Z M 5 4 H 7 C 7.55228 4 8 4.44772 8 5 V 7 C 8 7.55228 7.55228 8 7 8 H 5 C 4.44772 8 4 7.55228 4 7 V 5 C 4 4.44772 4.44772 4 5 4 Z M 3 5 C 3 3.89543 3.89543 3 5 3 H 7 C 8.10457 3 9 3.89543 9 5 V 7 C 9 8.10457 8.10457 9 7 9 H 5 C 3.89543 9 3 8.10457 3 7 V 5 Z" />
</svg>