<svg width="16" height="16" viewBox="0 0 16 16" fill="none" xmlns="http://www.w3.org/2000/svg">
<g clip-path="url(#clip0)">
<path d="M14.4309 4.11C14.4109 3.69 14.4109 3.28 14.4109 2.89C14.4109 2.58 14.1709 2.33 13.8509 2.33C11.4509 2.31 9.62091 1.63 8.10091 0.160002C7.89091 -0.0499976 7.53091 -0.0499976 7.32091 0.160002C5.80091 1.63 3.97091 2.31 1.59091 2.31C1.28091 2.31 1.03091 2.55 1.03091 2.87C1.03091 3.26 1.03091 3.67 1.01091 4.11C0.930914 8.14 0.810915 13.65 7.53091 15.97C7.60091 15.98 7.65091 16 7.71091 16C7.78091 16 7.84091 15.98 7.89091 15.97C14.6109 13.65 14.4909 8.14 14.4309 4.11ZM7.71091 14.84C1.96091 12.75 2.04091 8.18 2.12091 4.14C2.12091 3.9 2.14091 3.67 2.14091 3.44C4.38091 3.33 6.17091 2.66 7.71091 1.32C9.25091 2.66 11.0409 3.35 13.2809 3.43C13.2809 3.66 13.2809 3.89 13.3009 4.13C13.3809 8.18 13.4609 12.75 7.71091 14.84Z" fill="#647696"/>
<path d="M9.64148 6.05L6.95148 8.75L5.79148 7.59C5.58148 7.38 5.22148 7.38 4.99148 7.59C4.78148 7.8 4.78148 8.16 4.99148 8.39L6.54148 9.94C6.65148 10.05 6.78148 10.1 6.93148 10.1C7.08148 10.1 7.22148 10.05 7.32148 9.94L10.4215 6.84C10.6315 6.63 10.6315 6.27 10.4215 6.04C10.2115 5.83 9.85148 5.83 9.64148 6.05Z" fill="#647696"/>
</g>
<defs>
<clipPath id="clip0">
<rect width="13.44" height="16" fill="white" transform="translate(1)"/>
</clipPath>
</defs>
</svg>
