<svg width="16" height="16" viewBox="0 0 16 16" fill="none" xmlns="http://www.w3.org/2000/svg">
<path d="M14.4309 4.11C14.4109 3.69 14.4109 3.28 14.4109 2.89C14.4109 2.58 14.1709 2.33 13.8509 2.33C11.4509 2.31 9.62091 1.63 8.10091 0.160002C7.89091 -0.0499976 7.53091 -0.0499976 7.32091 0.160002C5.80091 1.63 3.97091 2.31 1.59091 2.31C1.28091 2.31 1.03091 2.55 1.03091 2.87C1.03091 3.26 1.03091 3.67 1.01091 4.11C0.930914 8.14 0.810915 13.65 7.53091 15.97C7.60091 15.98 7.65091 16 7.71091 16C7.78091 16 7.84091 15.98 7.89091 15.97C14.6109 13.65 14.4909 8.14 14.4309 4.11ZM10.4309 6.84L7.33091 9.94C7.23091 10.05 7.09091 10.1 6.94091 10.1C6.79091 10.1 6.66091 10.05 6.55091 9.94L4.99091 8.39C4.78091 8.16 4.78091 7.8 4.99091 7.59C5.22091 7.38 5.58091 7.38 5.79091 7.59L6.95091 8.75L9.64091 6.06C9.85091 5.83 10.2109 5.83 10.4209 6.04C10.6409 6.27 10.6409 6.63 10.4309 6.84Z" fill="white"/>
</svg>