<svg width="16" height="16" viewBox="0 0 16 16" fill="none" xmlns="http://www.w3.org/2000/svg">
<path d="M6.82291 6.67709L7.17646 7.03065L7.41 6.79711L7.28684 6.49065L6.82291 6.67709ZM0.5 13L0.146447 12.6464L0 12.7929V13H0.5ZM0.5 15.5H0V16H0.5V15.5ZM3 15.5V16H3.20711L3.35355 15.8536L3 15.5ZM4 14.5L4.35355 14.8536L4.5 14.7071V14.5H4ZM4 13.5V13H3.5V13.5H4ZM5 13.5V14H5.5V13.5H5ZM5 12.5V12H4.5V12.5H5ZM6 12.5V13H6.5V12.5H6ZM6 11.5V11H5.5V11.5H6ZM7 11.5V12H7.5V11.5H7ZM7 10.5V10H6.5V10.5H7ZM8 10.5V11H8.20711L8.35355 10.8536L8 10.5ZM9.32291 9.17709L9.50935 8.71315L9.20289 8.59L8.96935 8.82354L9.32291 9.17709ZM15 5C15 7.20914 13.2091 9 11 9V10C13.7614 10 16 7.76142 16 5H15ZM11 1C13.2091 1 15 2.79086 15 5H16C16 2.23858 13.7614 0 11 0V1ZM7 5C7 2.79086 8.79086 1 11 1V0C8.23858 0 6 2.23858 6 5H7ZM7.28684 6.49065C7.10198 6.03064 7 5.52784 7 5H6C6 5.65773 6.12726 6.28697 6.35897 6.86354L7.28684 6.49065ZM0.853553 13.3536L7.17646 7.03065L6.46935 6.32354L0.146447 12.6464L0.853553 13.3536ZM1 15.5V13H0V15.5H1ZM3 15H0.5V16H3V15ZM3.64645 14.1464L2.64645 15.1464L3.35355 15.8536L4.35355 14.8536L3.64645 14.1464ZM3.5 13.5V14.5H4.5V13.5H3.5ZM5 13H4V14H5V13ZM4.5 12.5V13.5H5.5V12.5H4.5ZM6 12H5V13H6V12ZM5.5 11.5V12.5H6.5V11.5H5.5ZM7 11H6V12H7V11ZM6.5 10.5V11.5H7.5V10.5H6.5ZM8 10H7V11H8V10ZM8.96935 8.82354L7.64645 10.1464L8.35355 10.8536L9.67646 9.53065L8.96935 8.82354ZM11 9C10.4722 9 9.96937 8.89802 9.50935 8.71315L9.13646 9.64103C9.71303 9.87274 10.3423 10 11 10V9Z" fill="#647696"/>
<circle cx="12" cy="4" r="1.5" stroke="#647696"/>
</svg>
