<svg width="16" height="16" viewBox="0 0 16 16" fill="none" xmlns="http://www.w3.org/2000/svg">
<path fill-rule="evenodd" clip-rule="evenodd" d="M8.75689 12.6815L8.77961 12.7153C9.32909 13.5324 10.5779 13.5324 11.1274 12.7153L14.3002 7.99737L11.1274 3.27947C10.5779 2.46239 9.32909 2.46239 8.7796 3.27947L8.75689 3.31325L11.907 7.99737L8.75689 12.6815ZM7.95349 2.18417C6.78266 0.942725 4.66553 1.05981 3.67319 2.53541L0 7.99737L3.67319 13.4593C4.66554 14.9349 6.78266 15.052 7.95349 13.8106C9.12432 15.052 11.2414 14.9349 12.2338 13.4593L15.907 7.99737L12.2338 2.5354C11.2414 1.0598 9.12432 0.942728 7.95349 2.18417ZM4.7796 12.7153L1.6068 7.99737L4.7796 3.27947C5.32909 2.46239 6.57789 2.46239 7.12737 3.27947L10.3002 7.99737L7.12738 12.7153C6.57789 13.5324 5.32909 13.5324 4.7796 12.7153Z" fill="#647696"/>
</svg>
