<svg width="16" height="16" viewBox="0 0 16 16" fill="none" xmlns="http://www.w3.org/2000/svg">
<path fill-rule="evenodd" clip-rule="evenodd" d="M9.21281 12.6431L9.23412 12.6748C9.74946 13.4411 10.9207 13.4411 11.436 12.6748L14.4117 8.25L11.436 3.82522C10.9207 3.05892 9.74946 3.05891 9.23412 3.82523L9.21281 3.8569L12.1672 8.25L9.21281 12.6431ZM8.45933 2.79798C7.36124 1.63367 5.37566 1.74347 4.44497 3.12739L1 8.25L4.44497 13.3726C5.37566 14.7565 7.36125 14.8663 8.45933 13.702C9.55742 14.8663 11.543 14.7565 12.4737 13.3726L15.9187 8.25L12.4737 3.12739C11.543 1.74347 9.55742 1.63367 8.45933 2.79798ZM5.48264 12.6748L2.50696 8.25L5.48264 3.82523C5.99798 3.05891 7.1692 3.05892 7.68454 3.82522L10.6602 8.25L7.68454 12.6748C7.1692 13.4411 5.99798 13.4411 5.48264 12.6748Z" fill="#A9B6CB"/>
</svg>
