<svg width="12" height="12" viewBox="0 0 12 12" fill="none" xmlns="http://www.w3.org/2000/svg">
<path fill-rule="evenodd" clip-rule="evenodd" d="M6.01893 0C9.3123 0 12 2.6877 12 6.01893C12 9.3123 9.3123 12 6.01893 12C2.6877 12 0 9.3123 0 6.01893C0 2.6877 2.6877 0 6.01893 0ZM4.84543 5.82965C4.84543 5.82965 4.6183 5.7918 4.58044 5.7918C4.20189 5.86751 4.20189 5.7918 4.54259 6.01893C4.76972 6.17035 4.69401 6.17035 4.92114 6.13249C4.99685 6.17035 5.07256 6.17035 5.14827 6.2082C5.14827 6.24606 5.14827 6.32177 5.14827 6.35962C5.14827 6.35962 5.33754 6.47319 5.37539 6.47319H5.67823C5.71609 6.47319 6.01893 6.28391 5.48896 6.13249C5.41325 6.13249 5.29969 6.13249 5.18612 6.17035C5.14827 6.09464 5.11041 6.01893 5.0347 5.94322C5.0347 5.94322 4.80757 5.82965 4.84543 5.82965ZM10.6751 3.02839C11.205 3.89905 11.5457 4.92114 11.5457 6.01893C11.5457 6.32177 11.5079 6.66246 11.47 6.9653C11.205 6.73817 10.9401 6.5489 10.9022 6.51104C10.7886 6.39748 10.7886 6.58675 10.7129 6.81388C10.6751 7.07886 10.3722 6.85174 10.1451 6.85174C9.91798 6.85174 9.76656 6.5489 9.76656 6.5489C9.35016 6.2082 9.46372 6.01893 9.46372 5.48896C9.46372 5.33754 9.53943 5.14827 9.653 5.07256C9.91798 4.76972 9.69085 4.58044 9.99369 4.35331C10.1073 4.2776 10.5237 4.16404 10.5237 4.16404C10.7508 3.8612 10.8644 3.78549 10.2965 3.89905C10.2587 3.93691 10.0315 3.89905 9.91798 3.82334C9.76656 3.70978 10.1073 3.63407 10.1073 3.63407C10.2587 3.4448 10.4101 3.29338 10.5615 3.14196C10.5994 3.1041 10.6372 3.06625 10.6751 3.02839ZM6.01893 0.492114C6.5489 0.492114 7.04101 0.567823 7.53312 0.681388C7.64669 0.832808 7.83596 1.05994 7.87382 1.09779C7.91167 1.13565 8.02524 1.43849 8.02524 1.43849C7.79811 1.77918 7.7224 1.96845 7.23028 1.74133C7.07886 1.70347 6.81388 1.32492 6.81388 1.32492C6.81388 1.32492 6.39748 0.870663 6.32177 0.832808C6.17035 0.719243 5.94322 0.794953 5.82965 0.984227C5.90536 1.09779 5.94322 1.1735 6.01893 1.28707C6.35962 1.28707 6.35962 1.21136 6.47319 1.47634C6.35962 1.5142 6.24606 1.55205 6.09464 1.58991C5.75394 1.81703 5.86751 1.81703 5.48896 1.55205C5.48896 1.55205 5.26183 1.28707 5.22398 1.24921C5.18612 1.21136 5.0347 0.870663 4.95899 0.757098C4.95899 0.719243 4.92114 0.643533 4.95899 0.567823C5.29969 0.529969 5.64038 0.492114 6.01893 0.492114ZM6.2082 11.5457C5.82965 11.5457 5.4511 11.5079 5.0347 11.47C5.07256 11.205 5.07256 10.9779 5.07256 10.7508C5.07256 10.1451 5.22398 10.0315 4.73186 9.69085C4.6183 9.50158 4.46688 9.27445 4.31546 9.08517C3.97476 8.74448 4.08833 8.78233 4.2776 8.32808C4.31546 8.1388 4.35331 7.94953 4.39117 7.79811C4.31546 7.60883 4.2776 7.41956 4.20189 7.23028C4.05047 7.07886 3.89905 6.88959 3.74763 6.73817C2.91483 6.51104 2.95268 6.62461 2.347 5.98107C2.23344 5.7918 2.11987 5.60252 1.96845 5.41325C1.55205 4.92114 1.62776 4.99685 1.47634 4.39117C1.43849 4.12618 1.40063 3.8612 1.36278 3.63407C1.32492 3.48265 1.28707 3.33123 1.24921 3.21767C2.00631 1.9306 3.25552 0.984227 4.73186 0.643533C4.69401 0.832808 4.65615 1.02208 4.6183 1.24921C3.70978 1.96845 3.25552 2.15773 4.35331 2.57413C4.6183 2.99054 4.54259 3.17981 4.88328 2.91483C4.88328 2.6877 4.84543 2.46057 4.80757 2.23344C5.48896 1.77918 5.29969 1.85489 6.09464 2.27129C6.2082 2.38486 6.32177 2.49842 6.43533 2.61199C6.9653 2.83912 7.00315 2.72555 6.5489 3.06625C6.43533 3.02839 6.28391 3.02839 6.13249 2.99054C6.05678 3.06625 5.98107 3.14196 5.90536 3.21767C6.09464 3.63407 6.2082 3.59621 5.7918 3.70978C5.67823 3.78549 5.56467 3.89905 5.4511 3.97476C5.29969 3.97476 5.14827 3.97476 4.99685 3.97476C4.99685 3.97476 4.99685 4.42902 4.99685 4.50473C4.99685 4.6183 4.65615 4.92114 4.65615 4.92114C4.65615 4.92114 4.46688 5.18612 4.58044 5.33754C4.65615 5.48896 4.46688 5.60252 4.46688 5.60252C4.35331 5.48896 4.2776 5.33754 4.16404 5.22398C4.01262 5.22398 3.82334 5.26183 3.63407 5.29969C3.5205 5.37539 3.40694 5.41325 3.29338 5.48896C3.25552 5.60252 3.21767 5.75394 3.21767 5.86751C3.25552 6.05678 3.29338 6.24606 3.36909 6.43533C3.4448 6.43533 3.55836 6.43533 3.67192 6.39748C3.67192 5.82965 3.55836 5.82965 4.01262 6.2082C4.05047 6.32177 4.05047 6.43533 4.05047 6.58675C4.20189 6.62461 4.31546 6.66246 4.42902 6.70032C4.46688 6.81388 4.46688 6.9653 4.46688 7.07886C4.65615 7.23028 4.84543 7.34385 5.0347 7.45741C5.4511 7.53312 5.90536 7.53312 6.24606 7.79811C6.51104 7.94953 6.77603 8.06309 7.07886 8.17666C7.07886 8.29022 7.11672 8.40379 7.15457 8.51735C7.30599 8.55521 7.49527 8.55521 7.64669 8.55521C7.83596 8.59306 8.02524 8.59306 8.21451 8.59306C8.21451 8.70662 8.21451 8.82019 8.21451 8.93375C8.1388 9.57729 8.10095 9.46372 7.64669 9.88013C7.49527 9.99369 7.34385 10.1073 7.19243 10.2587C6.81388 10.7886 6.92744 10.7129 6.32177 10.9401C6.28391 11.1293 6.24606 11.3565 6.2082 11.5457Z" fill="#647696"/>
</svg>
