<svg width="16" height="16" viewBox="0 0 16 16" fill="none" xmlns="http://www.w3.org/2000/svg">
<path d="M13.8064 5.968L13.5344 5.3088C14.4672 3.1568 14.4064 3.0928 14.224 2.9088L13.032 1.72L12.9136 1.6176H12.776C12.7024 1.6176 12.4864 1.6176 10.6736 2.456L10.0064 2.1808C9.144 0 9.056 0 8.8 0H7.1216C6.8688 0 6.7712 0 5.9728 2.1888L5.3088 2.464C4.0848 1.936 3.3664 1.664 3.1728 1.664H3.0128L1.7328 2.944C1.536 3.144 1.4672 3.2096 2.4544 5.328L2.1824 5.9856C0 6.8464 0 6.9296 0 7.2V8.8768C0 9.1408 0 9.2336 2.1904 10.0352L2.4624 10.6912C1.5296 12.8432 1.592 12.9072 1.7728 13.0912L2.9648 14.2816L3.0832 14.3856H3.2224C3.2944 14.3856 3.5088 14.3856 5.3232 13.5456L5.9888 13.8224C6.8512 16 6.9392 16 7.2 16H8.8752C9.1328 16 9.224 16 10.0256 13.8128L10.6928 13.5376C11.9168 14.0656 12.632 14.3376 12.8256 14.3376H12.9856L14.2784 13.0464C14.4624 12.8576 14.5264 12.792 13.5456 10.6816L13.816 10.024C16 9.1536 16 9.0624 16 8.8V7.1232C16 6.8592 16 6.7664 13.8064 5.968ZM8 10.7984C7.44587 10.7997 6.90383 10.6365 6.4425 10.3295C5.98116 10.0225 5.62129 9.5856 5.40843 9.07399C5.19557 8.56237 5.1393 7.9991 5.24674 7.45549C5.35418 6.91188 5.62051 6.41237 6.012 6.02021C6.40349 5.62804 6.90254 5.36086 7.44597 5.25248C7.9894 5.1441 8.55276 5.19941 9.06474 5.41139C9.57672 5.62337 10.0143 5.9825 10.322 6.4433C10.6298 6.90411 10.7939 7.44587 10.7936 8C10.7923 8.74096 10.4978 9.45129 9.97427 9.97568C9.45078 10.5001 8.74096 10.7959 8 10.7984Z" fill="#647696"/>
</svg>
