<svg width="24" height="24" viewBox="0 0 24 24" fill="none" xmlns="http://www.w3.org/2000/svg">
<path fill-rule="evenodd" clip-rule="evenodd" d="M19.1971 10.5298L18.1301 7.94401L18.4666 7.16779C18.8135 6.36734 19.0596 5.78058 19.231 5.3451C19.2571 5.27872 19.281 5.21715 19.3028 5.16009L18.785 4.64367C18.3737 4.81173 17.7596 5.07855 16.8499 5.49926L16.0562 5.86635L13.462 4.79632L13.1497 4.00668C12.829 3.19563 12.588 2.60711 12.4014 2.17844C12.3734 2.11424 12.3472 2.05487 12.3227 2H11.5901C11.5719 2.04372 11.5527 2.09019 11.5326 2.13956C11.3584 2.56725 11.1345 3.15591 10.8381 3.96856L10.5369 4.79428L7.94762 5.86743L7.17102 5.53242C6.30409 5.15845 5.63232 4.88162 5.14657 4.69706L4.62939 5.21423C4.64822 5.26007 4.66849 5.30883 4.69033 5.3607C4.8696 5.78647 5.12811 6.36115 5.49442 7.1472L5.86576 7.94406L4.79723 10.5274L4.00744 10.8389C3.19499 11.1594 2.6059 11.3995 2.17669 11.5856C2.11313 11.6132 2.05434 11.639 2 11.6632V12.4195C2.04413 12.438 2.09108 12.4573 2.14101 12.4777C2.56947 12.6523 3.15892 12.8767 3.97294 13.1746L4.79699 13.4762L5.86589 16.0541L5.52863 16.8322C5.18176 17.6325 4.93595 18.219 4.7648 18.6543C4.73845 18.7212 4.71441 18.7833 4.69248 18.8408L5.21176 19.3594C5.62326 19.1908 6.23686 18.9237 7.14455 18.5035L7.94169 18.1344L10.5315 19.2114L10.8427 19.9972C11.1634 20.8071 11.4043 21.3945 11.5909 21.8222C11.6188 21.8862 11.645 21.9453 11.6695 22H12.4066C12.4247 21.9565 12.4437 21.9104 12.4636 21.8614C12.6382 21.4329 12.8626 20.8439 13.1605 20.031L13.4631 19.2055L16.0566 18.1358L16.8314 18.47C17.6975 18.8436 18.3677 19.1202 18.8524 19.3049L19.3662 18.7918C19.3478 18.7472 19.3281 18.6999 19.3069 18.6497C19.1273 18.224 18.8692 17.6497 18.5047 16.8653L18.1358 16.0714L19.1965 13.4918L19.9836 13.1781C20.7956 12.8545 21.3843 12.6113 21.8129 12.4229C21.8805 12.3931 21.9428 12.3653 22 12.3394V11.583C21.9562 11.5648 21.9097 11.5457 21.8602 11.5257C21.4311 11.3517 20.8408 11.1281 20.0256 10.8314L19.1971 10.5298ZM22.6296 11.8759C22.6296 11.8759 22.6209 11.8712 22.6068 11.8615C22.6231 11.8709 22.6296 11.8759 22.6296 11.8759ZM22 10.7083C21.9962 10.6509 22 10.6361 22 10.6848V10.7083ZM22 13.2C22 13.2451 21.9966 13.2313 22 13.1776V13.2ZM22.5698 12.0559C22.5833 12.046 22.5916 12.0412 22.5916 12.0412C22.5916 12.0412 22.5854 12.0462 22.5698 12.0559ZM19.603 19.4423C19.603 19.4423 19.6003 19.433 19.5973 19.4164C19.602 19.4343 19.603 19.4423 19.603 19.4423ZM19.9737 18.1851C20.0044 18.1496 20.0156 18.142 19.9919 18.1669L19.9737 18.1851ZM19.4784 21.5064H19.2384C18.948 21.5064 17.8752 21.0984 16.0392 20.3064L15.0384 20.7192C13.836 24 13.6992 24 13.3128 24H10.8C10.4088 24 10.2768 24 8.9832 20.7336L7.9848 20.3184C5.2632 21.5784 4.9416 21.5784 4.8336 21.5784H4.6248L4.4472 21.4224L2.6592 19.6368C2.388 19.3608 2.2944 19.2648 3.6936 16.0368L3.2856 15.0528C0 13.8504 0 13.7112 0 13.3152V10.8C0 10.3944 0 10.2696 3.2736 8.9784L3.6816 7.992C2.20284 4.81879 2.30372 4.71628 2.59798 4.41724L2.5992 4.416L4.5192 2.496H4.7592C5.0496 2.496 6.1272 2.904 7.9632 3.696L8.9592 3.2832C10.1568 0 10.3032 0 10.6824 0H13.2C13.584 0 13.716 0 15.0096 3.2712L16.0104 3.684C18.7296 2.4264 19.0536 2.4264 19.164 2.4264H19.3704L19.548 2.58L21.336 4.3632C21.6096 4.6392 21.7008 4.7352 20.3016 7.9632L20.7096 8.952C24 10.1496 24 10.2888 24 10.6848V13.2C24 13.5936 24 13.7304 20.724 15.036L20.3184 16.0224C21.7896 19.1879 21.6936 19.2864 21.4176 19.5696L19.4784 21.5064ZM19.9003 5.75599L19.9185 5.77411C19.9439 5.80007 19.9324 5.79243 19.9003 5.75599ZM19.5169 4.52143C19.5169 4.52143 19.516 4.52959 19.5116 4.54805C19.5142 4.53101 19.5169 4.52143 19.5169 4.52143ZM4.03357 5.81006C3.99811 5.85127 3.9864 5.8581 4.02009 5.82354L4.03357 5.81006ZM4.40029 4.58061C4.40029 4.58061 4.40276 4.58899 4.40542 4.60404C4.40124 4.58786 4.40029 4.58061 4.40029 4.58061ZM4.09943 18.2486L4.08123 18.2304C4.05806 18.2064 4.06911 18.2139 4.09943 18.2486ZM4.47957 19.4772C4.47957 19.4772 4.48044 19.4692 4.4848 19.4509C4.48218 19.4678 4.47957 19.4772 4.47957 19.4772ZM12.1108 22.6341C12.1108 22.6341 12.1156 22.6251 12.1257 22.6106C12.1159 22.6274 12.1108 22.6341 12.1108 22.6341ZM13.287 22C13.3435 21.9963 13.3587 22 13.3128 22H13.287ZM10.8 22C10.7548 22 10.769 21.9965 10.8234 22H10.8ZM11.954 22.5777C11.9642 22.5915 11.9691 22.6002 11.9691 22.6002C11.9691 22.6002 11.9639 22.5938 11.954 22.5777ZM1.3729 12.1264C1.3729 12.1264 1.38156 12.1311 1.39555 12.1408C1.37935 12.1314 1.3729 12.1264 1.3729 12.1264ZM2 13.2918C2.0038 13.3491 2 13.3638 2 13.3152V13.2918ZM2 10.8C2 10.7498 2.00381 10.7638 2 10.8207V10.8ZM1.42169 11.9462C1.4079 11.9562 1.39935 11.9611 1.39935 11.9611C1.39935 11.9611 1.40569 11.956 1.42169 11.9462ZM11.8852 1.36868C11.8852 1.36868 11.8804 1.37753 11.8704 1.39181C11.8801 1.37526 11.8852 1.36868 11.8852 1.36868ZM10.7091 2C10.6545 2.00344 10.6395 2 10.6824 2H10.7091ZM13.2 2C13.2429 2 13.2284 2.00336 13.1749 2H13.2ZM12.0368 1.4181C12.0265 1.40391 12.0215 1.39508 12.0215 1.39508C12.0215 1.39508 12.0267 1.4016 12.0368 1.4181Z" fill="#697B9B"/>
<path fill-rule="evenodd" clip-rule="evenodd" d="M12 14C13.1046 14 14 13.1046 14 12C14 10.8954 13.1046 10 12 10C10.8954 10 10 10.8954 10 12C10 13.1046 10.8954 14 12 14ZM12 16C14.2091 16 16 14.2091 16 12C16 9.79086 14.2091 8 12 8C9.79086 8 8 9.79086 8 12C8 14.2091 9.79086 16 12 16Z" fill="#697B9B"/>
</svg>
