<svg width="24" height="24" viewBox="0 0 24 24" fill="none" xmlns="http://www.w3.org/2000/svg">
<path d="M21.1131 0.96231C22.1716 0.96231 23.0377 1.82839 23.0377 2.88693V21.1131C23.0377 22.1716 22.1716 23.0377 21.1131 23.0377H2.88693C1.82839 23.0377 0.96231 22.1716 0.96231 21.1131V2.88693C0.96231 1.82839 1.82839 0.96231 2.88693 0.96231H21.1131ZM21.1131 0H2.88693C1.29912 0 0 1.29912 0 2.88693V21.1131C0 22.7009 1.29912 24 2.88693 24H21.1131C22.7009 24 24 22.7009 24 21.1131V2.88693C24 1.29912 22.7009 0 21.1131 0Z" fill="#475161"/>
<path d="M10.3544 5.19647V11.2879H5.03287V5.19647H10.3544ZM11.3167 4.23416H10.3544H5.03287H4.07056V5.19647V11.2879V12.2502H5.03287H10.3544H11.3167V11.2879V5.19647V4.23416Z" fill="#475161"/>
<path d="M20.1989 4.20529H14.425V5.1676H20.1989V4.20529Z" fill="#475161"/>
<path d="M20.1989 7.7851H14.425V8.74741H20.1989V7.7851Z" fill="#475161"/>
<path d="M20.1989 11.3649H14.425V12.3272H20.1989V11.3649Z" fill="#475161"/>
<path d="M20.1989 15.243H3.80112V16.2053H20.1989V15.243Z" fill="#475161"/>
<path d="M20.1989 18.8228H3.80112V19.7851H20.1989V18.8228Z" fill="#475161"/>
</svg>
