<svg width="24" height="24" viewBox="0 0 24 24" fill="none" xmlns="http://www.w3.org/2000/svg">
<circle cx="12" cy="12" r="11.5" fill="white" stroke="#6C5CE7"/>
<path d="M9.42368 8.57564C9.18936 8.34132 8.80946 8.34132 8.57515 8.57564C8.34084 8.80995 8.34084 9.18985 8.57515 9.42417L11.1509 11.9999L8.57515 14.5756C8.34084 14.81 8.34084 15.1899 8.57515 15.4242C8.80946 15.6585 9.18936 15.6585 9.42368 15.4242L11.9994 12.8484L14.5751 15.4242C14.8095 15.6585 15.1894 15.6585 15.4237 15.4242C15.658 15.1899 15.658 14.81 15.4237 14.5756L12.8479 11.9999L15.4237 9.42417C15.658 9.18985 15.658 8.80995 15.4237 8.57564C15.1894 8.34132 14.8095 8.34132 14.5751 8.57564L11.9994 11.1514L9.42368 8.57564Z" fill="#6C5CE7"/>
</svg>
