<svg width="24" height="24" viewBox="0 0 24 24" fill="none" xmlns="http://www.w3.org/2000/svg">
<circle cx="12" cy="12" r="12" fill="#6C5CE7"/>
<path d="M15.0244 9.24433L10.99 13.4805L9.15557 11.6453C9.00469 11.4995 8.80261 11.4189 8.59285 11.4207C8.3831 11.4225 8.18245 11.5067 8.03412 11.6551C7.88579 11.8035 7.80166 12.0042 7.79983 12.214C7.79801 12.4239 7.87865 12.626 8.02437 12.777L10.4244 15.178C10.5744 15.328 10.7778 15.4123 10.99 15.4123C11.2021 15.4123 11.4056 15.328 11.5556 15.178L16.1556 10.376C16.232 10.3022 16.2929 10.2139 16.3349 10.1162C16.3768 10.0186 16.3989 9.91355 16.3998 9.80728C16.4007 9.70102 16.3805 9.59563 16.3402 9.49727C16.3 9.39891 16.2406 9.30956 16.1655 9.23441C16.0904 9.15927 16.0011 9.09984 15.9027 9.0596C15.8044 9.01936 15.6991 8.99911 15.5929 9.00003C15.4866 9.00095 15.3817 9.02303 15.2841 9.06498C15.1864 9.10692 15.0982 9.16789 15.0244 9.24433Z" fill="white"/>
</svg>
