<svg width="16" height="16" viewBox="0 0 16 16" fill="none" xmlns="http://www.w3.org/2000/svg">
<circle cx="8" cy="8" r="7.5" fill="white" stroke="#6C5CE7"/>
<path d="M10.801 4.28111L6.60318 10.1761L5.1382 8.57617C5.01316 8.43962 4.84357 8.3629 4.66674 8.3629C4.48991 8.3629 4.32032 8.43962 4.19528 8.57617C4.07025 8.71273 4 8.89794 4 9.09105C4 9.28417 4.07025 9.46938 4.19528 9.60594L6.19298 11.7876C6.31901 11.9234 6.48878 11.9996 6.66577 12H6.70706C6.80263 11.9945 6.896 11.9666 6.98081 11.9182C7.06561 11.8697 7.13986 11.8019 7.19849 11.7193L11.8598 5.17416C11.9682 5.02179 12.0168 4.82861 11.9948 4.63713C11.9728 4.44565 11.8821 4.27155 11.7426 4.15312C11.6031 4.0347 11.4262 3.98165 11.2509 4.00565C11.0755 4.02966 10.9161 4.12874 10.8077 4.28111H10.801Z" fill="#6C5CE7" stroke="#6C5CE7"/>
</svg>
