<svg width="12" height="12" viewBox="0 0 12 12" fill="none" xmlns="http://www.w3.org/2000/svg">
  <path fill-rule="evenodd" clip-rule="evenodd" d="M10 4C11.1046 4 12 3.10457 12 2C12 0.895431 11.1046 0 10 0C8.89543 0 8 0.895431 8 2C8 2.0276 8.00056 2.05507 8.00167 2.08241L3.65257 2.87315C3.29242 2.346 2.68662 2 2 2C0.895431 2 0 2.89543 0 4C0 5.10457 0.895431 6 2 6C2.45291 6 2.87066 5.84945 3.20593 5.59568L8.14819 7.2431C8.05266 7.47657 8 7.73214 8 8C8 8.04258 8.00133 8.08485 8.00395 8.12677L3.8952 9.35939C3.62814 8.56902 2.88052 8 2 8C0.895431 8 0 8.89543 0 10C0 11.1046 0.895431 12 2 12C2.97359 12 3.7847 11.3043 3.96337 10.383L8.3148 9.07754C8.67028 9.63232 9.2922 10 10 10C11.1046 10 12 9.10457 12 8C12 6.89543 11.1046 6 10 6C9.5471 6 9.12937 6.15054 8.7941 6.4043L3.85182 4.75688C3.94735 4.52341 4 4.26785 4 4C4 3.94196 3.99753 3.88449 3.99268 3.82771L8.29471 3.04552C8.64653 3.61813 9.27867 4 10 4ZM10 3C10.5523 3 11 2.55228 11 2C11 1.44772 10.5523 1 10 1C9.44772 1 9 1.44772 9 2C9 2.55228 9.44772 3 10 3ZM2 5C2.55228 5 3 4.55228 3 4C3 3.44772 2.55228 3 2 3C1.44772 3 1 3.44772 1 4C1 4.55228 1.44772 5 2 5ZM11 8C11 8.55228 10.5523 9 10 9C9.44772 9 9 8.55228 9 8C9 7.44772 9.44772 7 10 7C10.5523 7 11 7.44772 11 8ZM2 11C2.55228 11 3 10.5523 3 10C3 9.44772 2.55228 9 2 9C1.44772 9 1 9.44772 1 10C1 10.5523 1.44772 11 2 11Z" fill="#A9B6CB" />
</svg>