<svg width="12" height="11" viewBox="0 0 12 11" fill="none" xmlns="http://www.w3.org/2000/svg">
<path d="M5.76224 0.731763C5.83707 0.501435 6.16293 0.501435 6.23776 0.731763L7.29096 3.97315C7.32442 4.07616 7.42041 4.1459 7.52872 4.1459H10.9369C11.1791 4.1459 11.2798 4.4558 11.0839 4.59815L8.32657 6.60144C8.23895 6.6651 8.20229 6.77794 8.23576 6.88095L9.28895 10.1223C9.36379 10.3527 9.10017 10.5442 8.90424 10.4018L6.14695 8.39856C6.05932 8.3349 5.94068 8.3349 5.85305 8.39856L3.09576 10.4018C2.89984 10.5442 2.63621 10.3527 2.71105 10.1223L3.76424 6.88095C3.79771 6.77794 3.76105 6.6651 3.67343 6.60144L0.916136 4.59815C0.720207 4.4558 0.820901 4.1459 1.06308 4.1459H4.47128C4.57959 4.1459 4.67558 4.07616 4.70904 3.97315L5.76224 0.731763Z" stroke="#A9B6CB"/>
</svg>
