<svg width="16" height="16" viewBox="0 0 16 16" fill="none" xmlns="http://www.w3.org/2000/svg">
<circle cx="7.99999" cy="8.00005" r="5.71429" fill="#CBD5E0"/>
<path d="M8 0C3.59 0 0 3.59 0 8C0 12.41 3.59 16 8 16C12.41 16 16 12.41 16 8C16 3.59 12.41 0 8 0ZM12.48 8.76H11.27L10.09 11.12C9.94 11.37 9.69 11.54 9.4 11.54C9.11 11.54 8.84 11.37 8.73 11.12L6.6 6.92L5.89 8.34C5.76 8.59 5.51 8.76 5.22 8.76H3.54C3.12 8.76 2.78 8.42 2.78 8C2.78 7.58 3.12 7.24 3.54 7.24H4.75L5.93 4.88C6.18 4.37 7.02 4.37 7.28 4.88L9.39 9.07L10.11 7.64C10.24 7.39 10.5 7.22 10.78 7.22H12.46C12.88 7.22 13.22 7.56 13.22 7.98C13.22 8.4 12.9 8.76 12.48 8.76Z" fill="#647696"/>
</svg>
