<svg width="15" height="16" viewBox="0 0 15 16" fill="none" xmlns="http://www.w3.org/2000/svg">
<path d="M0 0H12V4H11L10.2764 2.55279C10.107 2.214 9.76074 2 9.38197 2H7V11.2792C7 11.7097 7.27543 12.0918 7.68377 12.2279L10 13V14H2V13L4.31623 12.2279C4.72457 12.0918 5 11.7097 5 11.2792V2H2.61803C2.23926 2 1.893 2.214 1.72361 2.55279L1 4H0V0Z" fill="#647696"/>
<path d="M11.8733 15.3705V16H15V14.7277H14.2828L14.188 15.2622C14.1745 15.3301 14.1473 15.3437 14.0798 15.3437H13.0846L13.8496 14.6125L13.854 14.6083C14.3463 14.1365 14.7834 13.7175 14.7834 13.0829C14.7834 12.4467 14.4112 12 13.3621 12C12.6515 12 11.8325 12.1762 11.8259 13.2521L12.7462 13.3336C12.7462 12.8531 12.9018 12.7312 13.2744 12.7312C13.633 12.7312 13.7549 12.9137 13.7549 13.1644C13.7549 13.5387 13.4808 13.8045 12.8401 14.426C12.8205 14.445 12.8006 14.4643 12.7803 14.484L11.8733 15.3705Z" fill="#647696"/>
</svg>
