<svg width="18" height="18" viewBox="0 0 18 18" fill="none" xmlns="http://www.w3.org/2000/svg">
<circle cx="9" cy="9" r="9" fill="#F7F9FC"/>
<path d="M13.0307 5.30529L7.98771 10.5983L5.69471 8.30529C5.50611 8.12313 5.25351 8.02234 4.99131 8.02461C4.72911 8.02689 4.4783 8.13206 4.29289 8.31747C4.10749 8.50288 4.00232 8.75369 4.00004 9.01589C3.99776 9.27808 4.09855 9.53069 4.28071 9.71929L7.28071 12.7193C7.46824 12.9068 7.72255 13.0121 7.98771 13.0121C8.25288 13.0121 8.50718 12.9068 8.69471 12.7193L14.4447 6.71929C14.5402 6.62704 14.6164 6.5167 14.6688 6.39469C14.7212 6.27269 14.7488 6.14147 14.75 6.00869C14.7511 5.87591 14.7258 5.74423 14.6755 5.62133C14.6253 5.49844 14.551 5.38679 14.4571 5.29289C14.3632 5.199 14.2516 5.12475 14.1287 5.07447C14.0058 5.02419 13.8741 4.99888 13.7413 5.00004C13.6085 5.00119 13.4773 5.02878 13.3553 5.08119C13.2333 5.1336 13.123 5.20978 13.0307 5.30529Z" fill="#007A52"/>
</svg>