<svg width="16" height="16" viewBox="0 0 16 16" fill="none" xmlns="http://www.w3.org/2000/svg">
<path d="M12.8733 3.37047V4H16V2.72773H15.2827L15.188 3.26219C15.1744 3.3301 15.1473 3.34368 15.0797 3.34368H14.0846L14.8496 2.61247L14.854 2.60827C15.3463 2.13646 15.7834 1.7175 15.7834 1.08287C15.7834 0.44673 15.4112 0 14.3621 0C13.6515 0 12.8325 0.1762 12.8259 1.25209L13.7462 1.33358C13.7462 0.85308 13.9018 0.73121 14.2744 0.73121C14.633 0.73121 14.7549 0.91365 14.7549 1.16436C14.7549 1.5387 14.4808 1.80452 13.8402 2.42592C13.8206 2.44494 13.8006 2.46429 13.7803 2.48399L12.8733 3.37047Z" fill="#647696"/>
<path d="M0 2H12V6H11L10.2764 4.55279C10.107 4.214 9.76074 4 9.38197 4H7V13.2792C7 13.7097 7.27543 14.0918 7.68377 14.2279L10 15V16H2V15L4.31623 14.2279C4.72457 14.0918 5 13.7097 5 13.2792V4H2.61803C2.23926 4 1.893 4.214 1.72361 4.55279L1 6H0V2Z" fill="#647696"/>
</svg>
