<svg width="19" height="18" viewBox="0 0 19 18" fill="none" xmlns="http://www.w3.org/2000/svg">
<path d="M4.38462 18V17.2406C3.05204 17.2476 2.53006 16.4883 2.53006 14.7375V11.3414C2.53006 10.118 2.24758 9.37265 1.36942 9.04219V8.96484C2.24758 8.63438 2.53006 7.88907 2.53006 6.6586V3.26252C2.53006 1.51175 3.05204 0.752376 4.38462 0.759408V3.5142e-05C2.5669 -0.00699511 1.82999 1.04066 1.82999 3.26252V6.46876C1.82999 8.05782 1.40627 8.56406 0 8.5711V9.4289C1.40627 9.43594 1.82999 9.94218 1.82999 11.5312V14.7375C1.82999 16.9593 2.5669 18.007 4.38462 18Z" fill="#475161"/>
<path d="M14.6154 3.5142e-05V0.759408C15.948 0.752376 16.4699 1.51175 16.4699 3.26252V6.6586C16.4699 7.88204 16.7524 8.62735 17.6306 8.95781V9.03516C16.7524 9.36562 16.4699 10.1109 16.4699 11.3414V14.7375C16.4699 16.4883 15.948 17.2476 14.6154 17.2406V18C16.4331 18.007 17.17 16.9593 17.17 14.7375V11.5312C17.17 9.94218 17.5937 9.43594 19 9.4289V8.5711C17.5937 8.56406 17.17 8.05782 17.17 6.46876V3.26252C17.17 1.04066 16.4331 -0.00699511 14.6154 3.5142e-05Z" fill="#475161"/>
<path fill-rule="evenodd" clip-rule="evenodd" d="M5.11538 4.95C5.11538 4.70147 5.31169 4.5 5.55385 4.5H13.4462C13.6883 4.5 13.8846 4.70147 13.8846 4.95V6.3C13.8846 6.54853 13.6883 6.75 13.4462 6.75C13.204 6.75 13.0077 6.54853 13.0077 6.3V5.4H9.93846V12.6H10.8154C11.0575 12.6 11.2538 12.8015 11.2538 13.05C11.2538 13.2985 11.0575 13.5 10.8154 13.5H8.18462C7.94246 13.5 7.74615 13.2985 7.74615 13.05C7.74615 12.8015 7.94246 12.6 8.18462 12.6H9.06154V5.4H5.99231V6.3C5.99231 6.54853 5.796 6.75 5.55385 6.75C5.31169 6.75 5.11538 6.54853 5.11538 6.3V4.95Z" fill="#475161"/>
</svg>
