<svg width="60" height="60" viewBox="0 0 60 60" fill="none" xmlns="http://www.w3.org/2000/svg">
<path d="M39.0858 2H9.5C8.94772 2 8.5 2.44771 8.5 3V57C8.5 57.5523 8.94772 58 9.5 58H50.5C51.0523 58 51.5 57.5523 51.5 57V14.4142C51.5 14.149 51.3946 13.8946 51.2071 13.7071L39.7929 2.29289C39.6054 2.10536 39.351 2 39.0858 2Z" fill="white"/>
<path fill-rule="evenodd" clip-rule="evenodd" d="M7.5 3C7.5 1.89543 8.39543 1 9.5 1H39.0858C39.6162 1 40.1249 1.21071 40.5 1.58579L51.9142 13L51.2071 13.7071L51.9142 13C52.2893 13.3751 52.5 13.8838 52.5 14.4142V57C52.5 58.1046 51.6046 59 50.5 59H9.5C8.39543 59 7.5 58.1046 7.5 57V3ZM39.0858 3L9.5 3V57H50.5V14.4142L39.0858 3Z" fill="#647696"/>
<path fill-rule="evenodd" clip-rule="evenodd" d="M38.5 13V2H40.5V13H51.5V15H40.5C39.3954 15 38.5 14.1046 38.5 13Z" fill="#647696"/>
<path fill-rule="evenodd" clip-rule="evenodd" d="M51.5 42H8.5V40H51.5V42Z" fill="#647696"/>
<path d="M20.097 53.756C19.914 53.756 19.719 53.737 19.509 53.701C19.299 53.665 19.09 53.617 18.88 53.557C18.67 53.497 18.468 53.434 18.272 53.366C18.076 53.298 17.915 53.227 17.787 53.154L17.5 54.33C17.655 54.467 17.84 54.583 18.054 54.679C18.268 54.775 18.493 54.85 18.731 54.905C18.969 54.96 19.203 54.999 19.435 55.021C19.667 55.043 19.893 55.055 20.112 55.055C20.623 55.055 21.078 54.978 21.479 54.823C21.88 54.668 22.217 54.461 22.491 54.201C22.765 53.941 22.976 53.64 23.127 53.299C23.278 52.958 23.353 52.604 23.353 52.239C23.353 51.701 23.249 51.261 23.039 50.92C22.829 50.579 22.567 50.293 22.253 50.066C21.939 49.839 21.599 49.644 21.234 49.485C20.869 49.326 20.532 49.162 20.222 48.993C19.912 48.824 19.653 48.629 19.443 48.405C19.233 48.181 19.129 47.887 19.129 47.523C19.129 47.377 19.165 47.224 19.238 47.065C19.311 46.906 19.411 46.762 19.539 46.634C19.667 46.506 19.812 46.4 19.977 46.313C20.142 46.226 20.314 46.174 20.497 46.156C20.825 46.129 21.094 46.124 21.304 46.142C21.514 46.16 21.682 46.192 21.81 46.238C21.938 46.284 22.036 46.329 22.104 46.375C22.172 46.421 22.234 46.457 22.289 46.484C22.298 46.475 22.325 46.429 22.371 46.347C22.417 46.265 22.472 46.162 22.535 46.039C22.598 45.916 22.667 45.784 22.74 45.643C22.813 45.502 22.877 45.372 22.931 45.253C22.666 45.08 22.321 44.954 21.892 44.877C21.463 44.8 21.039 44.761 20.621 44.761C20.211 44.761 19.821 44.824 19.452 44.952C19.083 45.08 18.76 45.265 18.481 45.506C18.202 45.747 17.982 46.041 17.818 46.388C17.654 46.735 17.572 47.131 17.572 47.577C17.572 48.069 17.676 48.479 17.886 48.807C18.096 49.135 18.36 49.42 18.679 49.661C18.998 49.902 19.34 50.112 19.704 50.29C20.068 50.468 20.408 50.645 20.723 50.823C21.038 51.001 21.299 51.199 21.509 51.418C21.719 51.637 21.823 51.901 21.823 52.211C21.823 52.722 21.675 53.107 21.379 53.366C21.079 53.626 20.653 53.756 20.097 53.756Z" fill="#647696"/>
<path d="M29.8861 55.0551L33.1671 44.9241H31.3081L28.8331 53.6191L26.4961 44.9241H24.6221L27.7531 55.0551H29.8861Z" fill="#647696"/>
<path d="M36.25 53.7699C36.628 54.1989 37.07 54.5219 37.576 54.7409C38.082 54.9599 38.636 55.0689 39.237 55.0689C39.538 55.0689 39.841 55.0469 40.146 55.0009C40.451 54.9549 40.748 54.8779 41.035 54.7689C41.322 54.6599 41.596 54.5209 41.855 54.3519C42.114 54.1829 42.349 53.9669 42.559 53.7029V49.8069H39.223V50.9279H40.932V53.4159C40.859 53.5169 40.745 53.5939 40.59 53.6479C40.435 53.7019 40.274 53.7459 40.105 53.7779C39.936 53.8099 39.768 53.8329 39.599 53.8459C39.43 53.8589 39.296 53.8669 39.196 53.8669C38.868 53.8669 38.555 53.7899 38.259 53.6349C37.963 53.4799 37.698 53.2429 37.466 52.9239C37.234 52.6049 37.051 52.1949 36.919 51.6939C36.787 51.1929 36.716 50.5999 36.707 49.9169C36.716 49.2149 36.789 48.6229 36.926 48.1399C37.063 47.6569 37.252 47.2629 37.493 46.9569C37.734 46.6509 38.008 46.4359 38.313 46.3079C38.618 46.1799 38.94 46.1169 39.277 46.1169C39.578 46.1169 39.87 46.1769 40.152 46.2949C40.434 46.4129 40.685 46.6049 40.904 46.8689L42.039 45.8569C41.665 45.4929 41.241 45.2189 40.768 45.0369C40.295 44.8549 39.784 44.7639 39.237 44.7639C38.644 44.7639 38.093 44.8749 37.583 45.0989C37.073 45.3229 36.628 45.6479 36.25 46.0769C35.872 46.5059 35.575 47.0409 35.361 47.6829C35.147 48.3249 35.04 49.0709 35.04 49.9179C35.04 50.7649 35.147 51.5129 35.361 52.1599C35.575 52.8069 35.872 53.3409 36.25 53.7699Z" fill="#647696"/>
<path d="M41 21H35V17H25V21H19V19H13V25H19V23H22.548C17.982 25.636 15 30.588 15 36C15 36.552 15.447 37 16 37C16.553 37 17 36.552 17 36C17 30.754 20.229 26.001 25 24.005V27H35V24.005C39.771 26.002 43 30.755 43 36C43 36.552 43.447 37 44 37C44.553 37 45 36.552 45 36C45 30.588 42.018 25.636 37.452 23H41V25H47V19H41V21ZM17 23H15V21H17V23ZM33 25H27V21.246V19H33V21.246V25ZM43 21H45V23H43V21Z" fill="#647696"/>
</svg>
