<svg width="16" height="16" viewBox="0 0 16 16" fill="none" xmlns="http://www.w3.org/2000/svg">
  <mask id="path-1-inside-1_1211_29084" fill="white">
  <path d="M1 6.5L0 2.5L3.7568 0.152002C3.91573 0.0526694 4.09938 0 4.2868 0H6L6.20583 1.02913C6.37688 1.88438 7.12781 2.5 8 2.5C8.87219 2.5 9.62312 1.88438 9.79417 1.02913L10 0H11.7344C11.9085 0 12.0795 0.0454151 12.2306 0.131757L16 2.28571L15 6.5L13 6V16H3V6L1 6.5Z"/>
  </mask>
  <path d="M1 6.5L0 2.5L3.7568 0.152002C3.91573 0.0526694 4.09938 0 4.2868 0H6L6.20583 1.02913C6.37688 1.88438 7.12781 2.5 8 2.5C8.87219 2.5 9.62312 1.88438 9.79417 1.02913L10 0H11.7344C11.9085 0 12.0795 0.0454151 12.2306 0.131757L16 2.28571L15 6.5L13 6V16H3V6L1 6.5Z" fill="#647696"/>
  <path d="M0 2.5L-0.529999 1.652L-1.14645 2.03729L-0.970142 2.74254L0 2.5ZM1 6.5L0.0298575 6.74254L0.272393 7.71268L1.24254 7.47014L1 6.5ZM3 6H4V4.71922L2.75746 5.02986L3 6ZM3 16H2V17H3V16ZM13 16V17H14V16H13ZM13 6L13.2425 5.02986L12 4.71922V6H13ZM15 6.5L14.7575 7.47014L15.7393 7.71561L15.973 6.73088L15 6.5ZM16 2.28571L16.973 2.51659L17.1457 1.78866L16.4961 1.41747L16 2.28571ZM12.2306 0.131757L11.7344 0.999999L11.7344 1L12.2306 0.131757ZM3.7568 0.152002L4.2868 1L4.2868 1L3.7568 0.152002ZM6 0L6.98058 -0.196116L6.8198 -1H6V0ZM6.20583 1.02913L7.18641 0.833013V0.833013L6.20583 1.02913ZM9.79417 1.02913L10.7748 1.22525V1.22525L9.79417 1.02913ZM10 0V-1H9.1802L9.01942 -0.196116L10 0ZM-0.970142 2.74254L0.0298575 6.74254L1.97014 6.25746L0.970142 2.25746L-0.970142 2.74254ZM1.24254 7.47014L3.24254 6.97014L2.75746 5.02986L0.757464 5.52986L1.24254 7.47014ZM2 6V16H4V6H2ZM3 17H13V15H3V17ZM14 16V6H12V16H14ZM12.7575 6.97014L14.7575 7.47014L15.2425 5.52986L13.2425 5.02986L12.7575 6.97014ZM15.973 6.73088L16.973 2.51659L15.027 2.05484L14.027 6.26912L15.973 6.73088ZM16.4961 1.41747L12.7267 -0.736486L11.7344 1L15.5039 3.15396L16.4961 1.41747ZM3.2268 -0.695997L-0.529999 1.652L0.529999 3.348L4.2868 1L3.2268 -0.695997ZM4.2868 1H6V-1H4.2868V1ZM5.01942 0.196116L5.22524 1.22525L7.18641 0.833013L6.98058 -0.196116L5.01942 0.196116ZM10.7748 1.22525L10.9806 0.196116L9.01942 -0.196116L8.81359 0.833013L10.7748 1.22525ZM10 1H11.7344V-1H10V1ZM8 3.5C9.34887 3.5 10.5102 2.54792 10.7748 1.22525L8.81359 0.833013C8.73603 1.22084 8.3955 1.5 8 1.5V3.5ZM5.22524 1.22524C5.48978 2.54792 6.65113 3.5 8 3.5V1.5C7.6045 1.5 7.26397 1.22084 7.18641 0.833013L5.22524 1.22524ZM4.2868 1L4.2868 1V-1C3.91196 -1 3.54466 -0.894661 3.2268 -0.695996L4.2868 1ZM12.7267 -0.736486C12.4245 -0.90917 12.0825 -1 11.7344 -1V1L11.7344 0.999999L12.7267 -0.736486Z" fill="#647696" mask="url(#path-1-inside-1_1211_29084)"/>
</svg>