<svg width="12" height="12" viewBox="0 0 12 12" fill="none" xmlns="http://www.w3.org/2000/svg">
<path d="M1.00286 9.50042L4.50286 4.00042V2.50042L3.74983 2.50017C3.47376 2.50007 3.25 2.27624 3.25 2.00017V1C3.25 0.723858 3.47386 0.5 3.75 0.5H8.25C8.52614 0.5 8.75 0.723857 8.75 1V2.00042C8.75 2.27656 8.52614 2.50042 8.25 2.50042H7.50195V4.00042C8.33529 5.33375 10.202 8.30042 11.002 9.50042C11.802 10.7004 10.6686 11.3338 10.002 11.5004H2.00286C0.402861 11.5004 0.669528 10.1671 1.00286 9.50042Z" stroke="#6C5CE7"/>
<path d="M2.75 7.00007C3.08333 7.16674 4.55 7.30049 5.75 6.50049C6.95 5.70049 7.75 6.00049 8.75 6.00049" stroke="#6C5CE7"/>
<circle cx="7.25" cy="9.00049" r="1" stroke="#6C5CE7"/>
<circle cx="3.25" cy="9.50049" r="0.5" fill="#6C5CE7"/>
</svg>
