<svg width="12" height="12" viewBox="0 0 12 12" fill="none" xmlns="http://www.w3.org/2000/svg">
<path fill-rule="evenodd" clip-rule="evenodd" d="M7.5 8.50001C7.5 8.70225 7.62182 8.88456 7.80866 8.96195C7.9955 9.03934 8.21055 8.99657 8.35355 8.85357L11.8536 5.35357C12.0488 5.15831 12.0488 4.84172 11.8536 4.64646L8.35355 1.14646C8.21055 1.00346 7.9955 0.960684 7.80866 1.03807C7.62182 1.11547 7.5 1.29778 7.5 1.50001V3.50001H6C5.72386 3.50001 5.5 3.72387 5.5 4.00001C5.5 4.27616 5.72386 4.50001 6 4.50001H8C8.27614 4.50001 8.5 4.27616 8.5 4.00001V2.70712L10.7929 5.00001L8.5 7.29291V6.00001C8.5 5.72387 8.27614 5.50001 8 5.50001H6H4.5V3.50001C4.5 3.29778 4.37818 3.11547 4.19134 3.03807C4.0045 2.96068 3.78945 3.00346 3.64645 3.14646L0.146447 6.64646C-0.0488155 6.84172 -0.0488155 7.15831 0.146447 7.35357L3.64645 10.8536C3.78945 10.9966 4.0045 11.0393 4.19134 10.962C4.37818 10.8846 4.5 10.7022 4.5 10.5V8.50001H6C6.27614 8.50001 6.5 8.27616 6.5 8.00001C6.5 7.72387 6.27614 7.50001 6 7.50001H4C3.72386 7.50001 3.5 7.72387 3.5 8.00001V9.29291L1.20711 7.00001L3.5 4.70712V6.00001C3.5 6.27616 3.72386 6.50001 4 6.50001H6H7.5V8.50001Z" fill="white"/>
</svg>
