<svg width="12" height="12" viewBox="0 0 12 12" fill="none" xmlns="http://www.w3.org/2000/svg">
<path d="M2 10.5V5H10V10.5C10 11.0489 9.54886 11.5 9 11.5H3C2.45114 11.5 2 11.0489 2 10.5Z" stroke="#647696"/>
<path d="M8.5 2.25V2.75H9H11.5V3.25H0.5V2.75H3H3.5V2.25V0.75C3.5 0.638624 3.53494 0.584664 3.5598 0.559803C3.58466 0.534943 3.63862 0.5 3.75 0.5H8.25C8.36138 0.5 8.41534 0.534943 8.4402 0.559803C8.46506 0.584664 8.5 0.638624 8.5 0.75V2.25ZM7.5 2.75H8V2.25V1.5V1H7.5H4.5H4V1.5V2.25V2.75H4.5H7.5Z" stroke="#647696"/>
</svg>
