<svg width="100" height="100" viewBox="0 0 100 100" fill="none" xmlns="http://www.w3.org/2000/svg">
<path fill-rule="evenodd" clip-rule="evenodd" d="M36.875 46.25H27.5V70C27.5 75.5228 31.9772 80 37.5 80H62.5C68.0228 80 72.5 75.5228 72.5 70V46.25H63.125V68.25C63.125 68.5261 62.9011 68.75 62.625 68.75H59.875C59.5989 68.75 59.375 68.5261 59.375 68.25V46.25H51.875V68.25C51.875 68.5261 51.6511 68.75 51.375 68.75H48.625C48.3489 68.75 48.125 68.5261 48.125 68.25V46.25H40.625V68.25C40.625 68.5261 40.4011 68.75 40.125 68.75H37.375C37.0989 68.75 36.875 68.5261 36.875 68.25V46.25Z" fill="#EDF1F7"/>
<path fill-rule="evenodd" clip-rule="evenodd" d="M40 20C37.2386 20 35 22.2386 35 25V31.25H25C22.2386 31.25 20 33.4886 20 36.25V38.75H80V36.25C80 33.4886 77.7614 31.25 75 31.25H65V25C65 22.2386 62.7614 20 60 20H40Z" fill="#EDF1F7"/>
</svg>
