<svg width="100" height="100" viewBox="0 0 100 100" fill="none" xmlns="http://www.w3.org/2000/svg">
<path fill-rule="evenodd" clip-rule="evenodd" d="M36.875 46.25H27.5V78C27.5 79.1046 28.3954 80 29.5 80H70.5C71.6046 80 72.5 79.1046 72.5 78V46.25H63.125V68.25C63.125 68.5261 62.9011 68.75 62.625 68.75H59.875C59.5989 68.75 59.375 68.5261 59.375 68.25V46.25H51.875V68.25C51.875 68.5261 51.6511 68.75 51.375 68.75H48.625C48.3489 68.75 48.125 68.5261 48.125 68.25V46.25H40.625V68.25C40.625 68.5261 40.4011 68.75 40.125 68.75H37.375C37.0989 68.75 36.875 68.5261 36.875 68.25V46.25Z" fill="#EDF1F7"/>
<path fill-rule="evenodd" clip-rule="evenodd" d="M36 20C35.4477 20 35 20.4477 35 21V31.25H21C20.4477 31.25 20 31.6977 20 32.25V38.75H80V32.25C80 31.6977 79.5523 31.25 79 31.25H65V21C65 20.4477 64.5523 20 64 20H36Z" fill="#EDF1F7"/>
</svg>
