<svg width="60" height="60" viewBox="0 0 60 60" fill="none" xmlns="http://www.w3.org/2000/svg">
<path d="M39.0858 2H9.5C8.94772 2 8.5 2.44771 8.5 3V57C8.5 57.5523 8.94772 58 9.5 58H50.5C51.0523 58 51.5 57.5523 51.5 57V14.4142C51.5 14.149 51.3946 13.8946 51.2071 13.7071L39.7929 2.29289C39.6054 2.10536 39.351 2 39.0858 2Z" fill="white"/>
<path fill-rule="evenodd" clip-rule="evenodd" d="M7.5 3C7.5 1.89543 8.39543 1 9.5 1H39.0858C39.6162 1 40.1249 1.21071 40.5 1.58579L51.9142 13L51.2071 13.7071L51.9142 13C52.2893 13.3751 52.5 13.8838 52.5 14.4142V57C52.5 58.1046 51.6046 59 50.5 59H9.5C8.39543 59 7.5 58.1046 7.5 57V3ZM39.0858 3L9.5 3V57H50.5V14.4142L39.0858 3Z" fill="#647696"/>
<path fill-rule="evenodd" clip-rule="evenodd" d="M38.5 13V2H40.5V13H51.5V15H40.5C39.3954 15 38.5 14.1046 38.5 13Z" fill="#647696"/>
<path fill-rule="evenodd" clip-rule="evenodd" d="M51.5 42H8.5V40H51.5V42Z" fill="#647696"/>
<path d="M17 46.0451H20.008V55.0001H21.662V46.0451H24.67V44.9241H17V46.0451Z" fill="#647696"/>
<path d="M32.0939 44.9241L30.1659 49.0251H30.0299L28.2519 44.9241H26.3789L29.0999 50.1051L26.5429 55.0001H28.4439L30.1659 51.1991H30.3029L31.9029 55.0001H33.8029L31.2459 50.1051L33.9669 44.9241H32.0939Z" fill="#647696"/>
<path d="M35.6619 46.0451H38.6699V55.0001H40.3239V46.0451H43.3319V44.9241H35.6619V46.0451Z" fill="#647696"/>
<path d="M14.5 15H20.5C21.053 15 21.5 14.552 21.5 14C21.5 13.448 21.053 13 20.5 13H14.5C13.947 13 13.5 13.448 13.5 14C13.5 14.552 13.947 15 14.5 15Z" fill="#647696"/>
<path d="M14.5 20H23.5C24.053 20 24.5 19.552 24.5 19C24.5 18.448 24.053 18 23.5 18H14.5C13.947 18 13.5 18.448 13.5 19C13.5 19.552 13.947 20 14.5 20Z" fill="#647696"/>
<path d="M27.5 20C27.76 20 28.02 19.8899 28.21 19.7099C28.39 19.5199 28.5 19.26 28.5 19C28.5 18.74 28.39 18.48 28.21 18.29C27.84 17.92 27.16 17.92 26.8 18.29C26.61 18.48 26.5 18.73 26.5 19C26.5 19.27 26.609 19.5199 26.79 19.7099C26.979 19.8899 27.24 20 27.5 20Z" fill="#647696"/>
<path d="M31.5 20H39.5C40.053 20 40.5 19.552 40.5 19C40.5 18.448 40.053 18 39.5 18H31.5C30.947 18 30.5 18.448 30.5 19C30.5 19.552 30.947 20 31.5 20Z" fill="#647696"/>
<path d="M13.79 33.2899C13.609 33.4799 13.5 33.7399 13.5 33.9999C13.5 34.2599 13.609 34.5199 13.79 34.7099C13.979 34.8899 14.24 34.9999 14.5 34.9999C14.76 34.9999 15.02 34.8899 15.21 34.7099C15.39 34.5199 15.5 34.2599 15.5 33.9999C15.5 33.7399 15.39 33.4799 15.21 33.2999C14.84 32.9199 14.16 32.9199 13.79 33.2899Z" fill="#647696"/>
<path d="M26.5 33H18.5C17.947 33 17.5 33.448 17.5 34C17.5 34.552 17.947 35 18.5 35H26.5C27.053 35 27.5 34.552 27.5 34C27.5 33.448 27.053 33 26.5 33Z" fill="#647696"/>
<path d="M45.5 18H43.5C42.947 18 42.5 18.448 42.5 19C42.5 19.552 42.947 20 43.5 20H45.5C46.053 20 46.5 19.552 46.5 19C46.5 18.448 46.053 18 45.5 18Z" fill="#647696"/>
<path d="M14.5 25H36.5C37.053 25 37.5 24.552 37.5 24C37.5 23.448 37.053 23 36.5 23H14.5C13.947 23 13.5 23.448 13.5 24C13.5 24.552 13.947 25 14.5 25Z" fill="#647696"/>
<path d="M45.5 23H39.5C38.947 23 38.5 23.448 38.5 24C38.5 24.552 38.947 25 39.5 25H45.5C46.053 25 46.5 24.552 46.5 24C46.5 23.448 46.053 23 45.5 23Z" fill="#647696"/>
<path d="M14.5 30H18.5C19.053 30 19.5 29.552 19.5 29C19.5 28.448 19.053 28 18.5 28H14.5C13.947 28 13.5 28.448 13.5 29C13.5 29.552 13.947 30 14.5 30Z" fill="#647696"/>
<path d="M32.5 28H22.5C21.947 28 21.5 28.448 21.5 29C21.5 29.552 21.947 30 22.5 30H32.5C33.053 30 33.5 29.552 33.5 29C33.5 28.448 33.053 28 32.5 28Z" fill="#647696"/>
<path d="M45.5 28H36.5C35.947 28 35.5 28.448 35.5 29C35.5 29.552 35.947 30 36.5 30H45.5C46.053 30 46.5 29.552 46.5 29C46.5 28.448 46.053 28 45.5 28Z" fill="#647696"/>
</svg>
