<svg width="16" height="16" viewBox="0 0 16 16" fill="none" xmlns="http://www.w3.org/2000/svg">
<path fill-rule="evenodd" clip-rule="evenodd" d="M2 0C0.895431 0 0 0.895431 0 2V14C0 15.1046 0.895431 16 2 16H14C15.1046 16 16 15.1046 16 14V2C16 0.895431 15.1046 0 14 0H2ZM2.67602 3.27273H5.04533V12H2.67602V3.27273ZM14.3527 7.63636C14.3527 10.3636 12.6652 12 10.0062 12H6.6482V3.27273H9.97207C12.6652 3.27273 14.3527 4.90909 14.3527 7.63636ZM9.01752 5.28409V9.98864H9.92093C11.2164 9.98864 11.9664 9.46023 11.9664 7.63636C11.9664 5.8125 11.2164 5.28409 9.85275 5.28409H9.01752Z" fill="#647696"/>
</svg>
