<svg width="16" height="16" viewBox="0 0 16 16" fill="none" xmlns="http://www.w3.org/2000/svg">
<path d="M9 0H15V1L13.5528 1.7236C13.214 1.89299 13 2.23926 13 2.61803V7C13 9.92173 10.4805 12.2665 7.50018 11.9755C4.90274 11.722 3 9.38679 3 6.777V2.61803C3 2.23926 2.786 1.893 2.44721 1.72361L1 1V0H7V1L5.55279 1.72361C5.214 1.893 5 2.23926 5 2.61803V7C5 8.84987 6.68269 10.3139 8.59793 9.94185C10.0222 9.6652 11 8.33247 11 6.8816V2.61803C11 2.23926 10.786 1.893 10.4472 1.72361L9 1V0Z" fill="#647696"/>
<path d="M0 14H16V16H0V14Z" fill="#647696"/>
</svg>
