<svg width="12" height="12" viewBox="0 0 12 12" fill="none" xmlns="http://www.w3.org/2000/svg">
<path fill-rule="evenodd" clip-rule="evenodd" d="M5.70711 0.292893C6.09763 0.683417 6.09763 1.31658 5.70711 1.70711L3.41421 4H7C9.76142 4 12 6.23858 12 9V11C12 11.5523 11.5523 12 11 12C10.4477 12 10 11.5523 10 11V9C10 7.34315 8.65685 6 7 6H3.41421L5.70711 8.29289C6.09763 8.68342 6.09763 9.31658 5.70711 9.70711C5.31658 10.0976 4.68342 10.0976 4.29289 9.70711L0.292893 5.70711C-0.0976311 5.31658 -0.0976311 4.68342 0.292893 4.29289L4.29289 0.292893C4.68342 -0.0976311 5.31658 -0.0976311 5.70711 0.292893Z" fill="#647696"/>
</svg>
