<svg width="16" height="16" viewBox="0 0 16 16" fill="none" xmlns="http://www.w3.org/2000/svg">
<path d="M9.44454 6.83132C9.60895 6.94121 9.80225 6.99988 10 6.99992C10.2652 6.99986 10.5195 6.89447 10.707 6.70692L15.707 1.70692C15.8892 1.51832 15.99 1.26571 15.9877 1.00352C15.9854 0.741321 15.8802 0.490508 15.6948 0.3051C15.5094 0.119692 15.2586 0.0145233 14.9964 0.0122448C14.7342 0.00996641 14.4816 0.110761 14.293 0.292919L9.293 5.29292C9.15319 5.43277 9.05799 5.61093 9.01942 5.80489C8.98085 5.99884 9.00065 6.19987 9.07632 6.38257C9.15199 6.56527 9.28013 6.72144 9.44454 6.83132Z" fill="#647696"/>
<path d="M2.488 9.26906L0.965998 10.7921L0.580998 9.89406C0.522998 9.74607 -0.480002 7.06406 1.293 5.29307L5.323 1.26306C7.1 -0.510935 9.777 0.491065 9.89 0.535065L10.823 0.935065L9.301 2.45806L9.138 2.38806C9.138 2.38806 9.13669 2.38766 9.13413 2.3868C9.04834 2.35809 7.55561 1.85845 6.738 2.67606L2.708 6.70606C1.857 7.55706 2.427 9.12506 2.433 9.14106L2.488 9.26906Z" fill="#647696"/>
<path d="M0.444542 15.8313C0.608952 15.9412 0.80225 15.9999 1 15.9999C1.2652 15.9999 1.51951 15.8945 1.707 15.7069L6.707 10.7069C6.88916 10.5183 6.98995 10.2657 6.98767 10.0035C6.9854 9.74132 6.88023 9.49051 6.69482 9.3051C6.50941 9.11969 6.2586 9.01452 5.9964 9.01225C5.73421 9.00997 5.4816 9.11076 5.293 9.29292L0.293001 14.2929C0.153191 14.4328 0.0579847 14.6109 0.0194171 14.8049C-0.0191504 14.9988 0.000652529 15.1999 0.0763226 15.3826C0.151993 15.5653 0.280132 15.7214 0.444542 15.8313Z" fill="#647696"/>
<path d="M5.208 15.034L6.731 13.512L6.859 13.567C6.875 13.573 8.443 14.143 9.294 13.292L13.324 9.26203C14.1416 8.44442 13.642 6.9517 13.6133 6.86589C13.6124 6.86333 13.612 6.86203 13.612 6.86203L13.542 6.69903L15.065 5.17603L15.465 6.10903C15.509 6.22203 16.511 8.90302 14.737 10.676L10.707 14.706C8.936 16.479 6.254 15.476 6.107 15.418L5.208 15.034Z" fill="#647696"/>
</svg>
