<svg width="14" height="14" viewBox="0 0 14 14" fill="none" xmlns="http://www.w3.org/2000/svg">
<g clip-path="url(#clip0)">
<path d="M13.0064 -0.000858731L0.00305176 13.0154L0.982221 13.9955L13.9856 0.97928L13.0064 -0.000858731Z" fill="#647696"/>
<path d="M14 7.74856C14 7.56836 14 7.38816 14 7.22183C13.9723 6.08519 13.4046 5.47529 12.9338 5.15648C12.4491 4.83767 11.8675 4.69905 11.2859 4.65747L9.73494 6.20995C10.4827 6.00203 11.5628 5.905 12.1721 6.30698C12.3521 6.43173 12.6014 6.66737 12.6153 7.24955C12.6153 7.40203 12.6153 7.56836 12.6153 7.7347V8.03965C11.0228 7.66539 8.77945 7.66539 7.97628 9.55054C7.64394 10.3268 7.69933 11.1307 8.14246 11.7961C8.71021 12.6555 9.76263 13.1129 10.5104 13.1129C11.4382 13.1129 12.1029 12.905 12.6153 12.6278V13.002H14V11.0614V7.74856ZM12.6153 10.7981C12.4768 11.0614 11.6044 11.7545 10.732 11.7268C10.3165 11.7129 9.58261 11.4773 9.29181 11.0337C9.11179 10.7565 9.0841 10.4515 9.25027 10.0911C9.79033 8.81589 11.909 9.28717 12.6153 9.48123V10.7981Z" fill="#647696"/>
<path d="M2.72799 9.30097L3.78041 8.2475C2.90801 7.94255 2.40949 7.41582 2.36795 6.91681C2.31256 6.29304 2.94955 5.73859 4.00198 5.48908C4.12661 5.48908 4.25123 5.48908 4.37586 5.50294C5.04055 5.53067 5.82987 5.58611 6.2176 5.8079L7.21464 4.80988C6.52225 4.2277 5.46983 4.15839 4.4451 4.10294C3.78041 4.07522 2.90801 4.07522 2.65875 3.81186C2.58951 3.74255 2.47873 3.64552 2.58951 3.50691C2.72799 3.32671 3.60039 2.96631 4.74975 2.96631H5.44213V1.44156H7.60237V0.0554199H2.091V1.44156H4.04352V1.6079C3.00494 1.70492 1.28783 2.06532 1.1909 3.40988C1.1632 3.93661 1.30168 4.36631 1.60633 4.71285C1.70326 4.80988 1.81404 4.87918 1.92482 4.94849C1.17705 5.57225 0.927792 6.37621 0.983183 7.04156C1.06627 7.85938 1.63402 8.74651 2.72799 9.30097Z" fill="#647696"/>
</g>
<defs>
<clipPath id="clip0">
<rect width="14" height="14" fill="white"/>
</clipPath>
</defs>
</svg>
