<svg width="16" height="16" viewBox="0 0 16 16" fill="none" xmlns="http://www.w3.org/2000/svg">
<g clip-path="url(#clip0)">
<path d="M8.80739 3.53099C8.85422 3.50758 8.89802 3.48615 8.93866 3.46664L12.4123 6.94023C12.3897 6.9827 12.3655 7.02828 12.3395 7.07683C12.155 7.42109 11.8837 7.91442 11.538 8.50705L11.2953 8.92323L11.6359 9.26391L13.7505 11.3785C13.5707 11.61 13.4014 11.8146 13.2359 11.98L13.2296 11.9863L13.2235 11.9928C11.7132 13.592 9.50635 13.9433 7.64659 13.0577L7.32182 12.903L7.02495 13.1062C5.37849 14.2327 3.23761 15.0548 0.66546 15.3345C0.944322 12.7811 1.7581 10.7031 2.81381 8.94353L2.97823 8.6695L2.85235 8.37577C2.04728 6.4973 2.41061 4.17312 3.91982 2.66391L3.95123 2.63251L3.97788 2.59697C4.11906 2.40874 4.29238 2.24522 4.4809 2.10888L6.63594 4.26392L6.99825 4.62622L7.42457 4.342C8.00127 3.95754 8.47863 3.69537 8.80739 3.53099ZM9.29853 3.30673C9.29871 3.30666 9.2987 3.30666 9.29851 3.30674L9.29853 3.30673Z" fill="#647696" stroke="#647696" stroke-width="1.25"/>
<path d="M14.8996 2.95161L14.8839 2.96532L14.8692 2.98003C14.3133 3.53595 13.509 3.53595 12.9531 2.98003C12.3971 2.42411 12.3971 1.61984 12.9531 1.06391C13.0365 0.980509 13.221 0.878819 13.5389 0.795145C13.8422 0.71534 14.1989 0.669177 14.5527 0.645589C14.8276 0.627262 15.0899 0.623232 15.3077 0.625207C15.3101 0.853698 15.3064 1.13048 15.2875 1.41858C15.2638 1.77953 15.2176 2.13782 15.1385 2.43437C15.0539 2.75151 14.9565 2.90177 14.8996 2.95161Z" fill="#647696" stroke="#647696" stroke-width="1.25"/>
</g>
<defs>
<clipPath id="clip0">
<rect width="16" height="16" fill="white"/>
</clipPath>
</defs>
</svg>
