<svg width="12" height="12" viewBox="0 0 12 12" fill="none" xmlns="http://www.w3.org/2000/svg">
<g clip-path="url(#clip0)">
<path d="M5.65528 3.38669C6.08027 3.10337 6.43151 2.91037 6.67269 2.78964L9.11705 5.23401C9.11705 5.23401 9.11705 5.23402 9.11704 5.23402C8.97949 5.49078 8.77693 5.85911 8.51873 6.30174L8.27596 6.71792L8.61665 7.0586L10.1044 8.54638C10.004 8.67184 9.90914 8.78224 9.81665 8.87472L9.81034 8.88103L9.80421 8.88752C8.71887 10.0367 7.13707 10.288 5.8023 9.65237L5.47754 9.49772L5.18067 9.70084C4.01037 10.5016 2.49609 11.0965 0.677458 11.323C0.902972 9.52141 1.49025 8.04536 2.24453 6.78822L2.40894 6.51419L2.28306 6.22046C1.703 4.86698 1.96632 3.19281 3.05054 2.1086L3.08194 2.0772L3.10859 2.04166C3.17783 1.94935 3.25908 1.86515 3.34806 1.79001L4.86665 3.3086L5.22896 3.67091L5.65528 3.38669Z" fill="#475161" stroke="#475161" stroke-width="1.25"/>
<path d="M11.0717 2.09655L11.0563 2.11001L11.0416 2.12472C10.6857 2.48064 10.1814 2.48064 9.82547 2.12472C9.46955 1.7688 9.46955 1.26453 9.82547 0.908605C9.85888 0.875198 9.96525 0.807884 10.1941 0.747647C10.4083 0.691279 10.665 0.657616 10.9251 0.640278C11.0653 0.630933 11.2012 0.626652 11.325 0.625403C11.3239 0.75779 11.3197 0.903883 11.3099 1.05389C11.2924 1.31953 11.2587 1.57704 11.2031 1.7857C11.1755 1.88914 11.1457 1.96818 11.1172 2.02469C11.0899 2.07879 11.0716 2.09649 11.0717 2.09655Z" fill="#475161" stroke="#475161" stroke-width="1.25"/>
</g>
<defs>
<clipPath id="clip0">
<rect width="12" height="12" fill="white"/>
</clipPath>
</defs>
</svg>
