<svg width="16" height="16" viewBox="0 0 16 16" fill="none" xmlns="http://www.w3.org/2000/svg">
<g clip-path="url(#clip0)">
<path d="M-0.0221205 16.0225C2.97788 15.8225 5.47788 14.9225 7.37788 13.6225C9.47788 14.6225 11.9779 14.2225 13.6779 12.4225C13.9779 12.1225 14.2779 11.7225 14.5779 11.3225L12.0779 8.82246C12.7779 7.62246 13.1779 6.82246 13.1779 6.82246L9.07788 2.72246C9.07788 2.72246 8.27788 3.02246 7.07788 3.82246L4.57788 1.32246C4.17788 1.52246 3.77788 1.82246 3.47788 2.22246C1.77788 3.92246 1.37788 6.52246 2.27788 8.62246C1.07788 10.6225 0.17788 13.0225 -0.0221205 16.0225Z" fill="#647696"/>
<path d="M15.3111 3.42246C14.5111 4.22246 13.3111 4.22246 12.5111 3.42246C11.7111 2.62246 11.7111 1.42246 12.5111 0.622461C13.3111 -0.177539 15.9111 0.0224609 15.9111 0.0224609C15.9111 0.0224609 16.1111 2.72246 15.3111 3.42246Z" fill="#647696"/>
</g>
<defs>
<clipPath id="clip0">
<rect width="16" height="16" fill="white"/>
</clipPath>
</defs>
</svg>
