<svg width="38" height="26" viewBox="0 0 38 26" fill="none" xmlns="http://www.w3.org/2000/svg">
<path fill-rule="evenodd" clip-rule="evenodd" d="M20.5 10V26H18.5V10H20.5Z" fill="#718096"/>
<path fill-rule="evenodd" clip-rule="evenodd" d="M19.5001 8.58594L24.2072 13.293L22.793 14.7073L19.5001 11.4144L16.2072 14.7073L14.793 13.293L19.5001 8.58594Z" fill="#718096"/>
<path fill-rule="evenodd" clip-rule="evenodd" d="M22.4149 4.27886L23.2198 5.6931L24.7682 5.19269C25.1537 5.0681 25.5669 5 26 5C28.2091 5 30 6.79086 30 9V10C30 10.2294 29.9809 10.4528 29.9446 10.6691L29.5536 13H32.5C34.433 13 36 14.567 36 16.5C36 18.433 34.433 20 32.5 20H23V22H32.5C35.5376 22 38 19.5376 38 16.5C38 13.9509 36.2658 11.8068 33.9128 11.1832C33.462 11.0637 32.9884 11 32.5 11H31.917C31.9716 10.6748 32 10.3407 32 10V9C32 5.68629 29.3137 3 26 3C25.3556 3 24.7349 3.10158 24.1531 3.28961C23.035 1.32493 20.9222 0 18.5 0C15.3231 0 12.6784 2.2792 12.1121 5.29165C12.0646 5.54416 12.0318 5.80181 12.0144 6.0637C11.7003 6.02396 11.3805 6.00242 11.0561 6.00019L11 6H8C3.58172 6 0 9.58172 0 14C0 18.4183 3.58172 22 8 22H16V20H8C4.68629 20 2 17.3137 2 14C2 10.6863 4.68629 8 8 8H11C11.2595 8 11.5142 8.01635 11.7633 8.04788L13.8696 8.31441L14.01 6.19596C14.1653 3.85345 16.117 2 18.5 2C20.1744 2 21.6379 2.91349 22.4149 4.27886Z" fill="#718096"/>
</svg>
