<svg width="18" height="10" viewBox="0 0 18 10" fill="none" xmlns="http://www.w3.org/2000/svg">
<g clip-path="url(#clip0)">
<path d="M17.7778 0H0V10H17.7778V0Z" fill="#B22234"/>
<path d="M0 1.15371H17.7778H0ZM17.7778 2.6926H0H17.7778ZM0 4.23056H17.7778H0ZM17.7778 5.76945H0H17.7778ZM0 7.30741H17.7778H0ZM17.7778 8.8463H0Z" fill="black"/>
<path d="M17.7778 9.2306H0V8.46115H17.7778V9.2306ZM17.7778 7.69263H0V6.92319H17.7778V7.69263ZM17.7778 6.15374H0V5.3843H17.7778V6.15374ZM17.7778 4.61578H0V3.84634H17.7778V4.61578ZM17.7778 3.07689H0V2.30745H17.7778V3.07689ZM17.7778 1.53893H0V0.769483H17.7778V1.53893Z" fill="white"/>
<path d="M7.6 0H0V5.38426H7.6V0Z" fill="#3C3B6E"/>
<path d="M0.634288 0.23052L0.81577 0.787001L0.339844 0.443483H0.924103L0.451881 0.787927L0.634288 0.23052Z" fill="white"/>
<path d="M0.634339 1.30742L0.81582 1.8639L0.34082 1.51945H0.925079L0.451005 1.8639L0.634339 1.30742Z" fill="white"/>
<path d="M0.634389 2.38422L0.815871 2.94071L0.341797 2.59626H0.926056L0.451982 2.94071L0.634389 2.38422Z" fill="white"/>
<path d="M0.634389 3.46112L0.815871 4.01853L0.341797 3.67409H0.926056L0.451982 4.01853L0.634389 3.46112Z" fill="white"/>
<path d="M0.634389 4.53888L0.815871 5.09536L0.341797 4.75091H0.926056L0.451982 5.09536L0.634389 4.53888Z" fill="white"/>
<path d="M1.26579 0.769483L1.44727 1.32596L0.974121 0.98152H1.55838L1.08616 1.32596L1.26579 0.769483Z" fill="white"/>
<path d="M1.26623 1.84629L1.44771 2.40277L0.973633 2.05833H1.55789L1.08382 2.40277L1.26623 1.84629Z" fill="white"/>
<path d="M1.26623 2.92319L1.44771 3.47967L0.973633 3.13523H1.55789L1.08382 3.47967L1.26623 2.92319Z" fill="white"/>
<path d="M1.26623 4L1.44771 4.55648L0.973633 4.21204H1.55789L1.08382 4.55648L1.26623 4Z" fill="white"/>
<path d="M1.90001 0.23052L2.0815 0.787001L1.60742 0.442557H2.19168L1.71761 0.787001L1.90001 0.23052Z" fill="white"/>
<path d="M1.90001 1.30742L2.0815 1.8639L1.60742 1.51945H2.19168L1.71761 1.8639L1.90001 1.30742Z" fill="white"/>
<path d="M1.90001 2.38422L2.0815 2.94071L1.60742 2.59626H2.19168L1.71761 2.94071L1.90001 2.38422Z" fill="white"/>
<path d="M1.90001 3.46112L2.0815 4.01761L1.60742 3.67316H2.19168L1.71853 4.01853L1.90001 3.46112Z" fill="white"/>
<path d="M1.90001 4.53888L2.0815 5.09536L1.60742 4.75091H2.19168L1.71761 5.09536L1.90001 4.53888Z" fill="white"/>
<path d="M2.53429 0.769483L2.71577 1.32596L2.2417 0.98152H2.82596L2.35188 1.32596L2.53429 0.769483Z" fill="white"/>
<path d="M2.53429 1.84629L2.71577 2.40277L2.2417 2.05833H2.82596L2.35188 2.40277L2.53429 1.84629Z" fill="white"/>
<path d="M2.53429 2.92319L2.71577 3.47967L2.2417 3.13523H2.82596L2.35188 3.47967L2.53429 2.92319Z" fill="white"/>
<path d="M2.53429 4L2.71577 4.55648L2.2417 4.21204H2.82596L2.35188 4.55648L2.53429 4Z" fill="white"/>
<path d="M3.16564 0.23052L3.34712 0.787001L2.87305 0.442557H3.45731L2.98323 0.787001L3.16564 0.23052Z" fill="white"/>
<path d="M3.16564 1.30742L3.34712 1.8639L2.87305 1.51945H3.45731L2.98323 1.8639L3.16564 1.30742Z" fill="white"/>
<path d="M3.16564 2.38422L3.34712 2.94071L2.87305 2.59626H3.45731L2.98323 2.94071L3.16564 2.38422Z" fill="white"/>
<path d="M3.16564 3.46112L3.34712 4.01761L2.87305 3.67316H3.45731L2.98416 4.01853L3.16564 3.46112Z" fill="white"/>
<path d="M3.16564 4.53888L3.34712 5.09536L2.87305 4.75091H3.45731L2.98323 5.09536L3.16564 4.53888Z" fill="white"/>
<path d="M3.79992 0.769483L3.9814 1.32596L3.50732 0.98152H4.09251L3.61844 1.32596L3.79992 0.769483Z" fill="white"/>
<path d="M3.79992 1.84629L3.9814 2.40277L3.50732 2.05833H4.09251L3.61844 2.40277L3.79992 1.84629Z" fill="white"/>
<path d="M3.79992 2.92319L3.9814 3.47967L3.50732 3.13523H4.09251L3.61844 3.47967L3.79992 2.92319Z" fill="white"/>
<path d="M3.79992 4L3.9814 4.55648L3.50732 4.21204H4.09251L3.61844 4.55648L3.79992 4Z" fill="white"/>
<path d="M4.4342 0.23052L4.61568 0.787001L4.1416 0.442557H4.72586L4.25179 0.787001L4.4342 0.23052Z" fill="white"/>
<path d="M4.4342 1.30742L4.61568 1.8639L4.1416 1.51945H4.72586L4.25179 1.8639L4.4342 1.30742Z" fill="white"/>
<path d="M4.4342 2.38422L4.61568 2.94071L4.1416 2.59626H4.72586L4.25179 2.94071L4.4342 2.38422Z" fill="white"/>
<path d="M4.4342 3.46112L4.61568 4.01761L4.1416 3.67316H4.72586L4.25179 4.01853L4.4342 3.46112Z" fill="white"/>
<path d="M4.4342 4.53888L4.61568 5.09536L4.1416 4.75091H4.72586L4.25179 5.09536L4.4342 4.53888Z" fill="white"/>
<path d="M5.06559 0.769483L5.24708 1.32596L4.77393 0.98152H5.35819L4.88411 1.32596L5.06559 0.769483Z" fill="white"/>
<path d="M5.06554 1.84629L5.24702 2.40277L4.77295 2.05833H5.35721L4.88313 2.40277L5.06554 1.84629Z" fill="white"/>
<path d="M5.06554 2.92319L5.24702 3.47967L4.77295 3.13523H5.35721L4.88313 3.47967L5.06554 2.92319Z" fill="white"/>
<path d="M5.06554 4L5.24702 4.55648L4.77295 4.21204H5.35721L4.88313 4.55648L5.06554 4Z" fill="white"/>
<path d="M5.70031 0.23052L5.88179 0.787001L5.40771 0.443483H5.99197L5.51883 0.787927L5.70031 0.23052Z" fill="white"/>
<path d="M5.70031 1.30742L5.88179 1.8639L5.40771 1.52038H5.99197L5.51883 1.86482L5.70031 1.30742Z" fill="white"/>
<path d="M5.70031 2.38422L5.88179 2.94071L5.40771 2.59719H5.99197L5.51883 2.94163L5.70031 2.38422Z" fill="white"/>
<path d="M5.70031 3.46112L5.88179 4.01761L5.40771 3.67409H5.99197L5.51883 4.01853L5.70031 3.46112Z" fill="white"/>
<path d="M5.70031 4.53888L5.88179 5.09536L5.40771 4.75091H5.99197L5.51883 5.09536L5.70031 4.53888Z" fill="white"/>
<path d="M6.3341 0.769483L6.51558 1.32596L6.0415 0.98152H6.62576L6.15169 1.32596L6.3341 0.769483Z" fill="white"/>
<path d="M6.3341 1.84629L6.51558 2.40277L6.0415 2.05833H6.62576L6.15169 2.40277L6.3341 1.84629Z" fill="white"/>
<path d="M6.3341 2.92319L6.51558 3.47967L6.0415 3.13523H6.62576L6.15169 3.47967L6.3341 2.92319Z" fill="white"/>
<path d="M6.3341 4L6.51558 4.55648L6.0415 4.21204H6.62576L6.15169 4.55648L6.3341 4Z" fill="white"/>
<path d="M6.9655 0.23052L7.1479 0.787927L6.67383 0.443483H7.25809L6.78401 0.787927L6.9655 0.23052Z" fill="white"/>
<path d="M6.96593 1.30742L7.14741 1.8639L6.67334 1.51945H7.2576L6.78352 1.8639L6.96593 1.30742Z" fill="white"/>
<path d="M6.96593 2.38422L7.14741 2.94071L6.67334 2.59626H7.2576L6.78352 2.94071L6.96593 2.38422Z" fill="white"/>
<path d="M6.9655 3.46112L7.1479 4.01853L6.67383 3.67409H7.25809L6.78401 4.01853L6.9655 3.46112Z" fill="white"/>
<path d="M6.96593 4.53888L7.14741 5.09536L6.67334 4.75091H7.2576L6.78352 5.09536L6.96593 4.53888Z" fill="white"/>
</g>
<defs>
<clipPath id="clip0">
<rect width="17.7778" height="10" fill="white"/>
</clipPath>
</defs>
</svg>
