<svg width="100" height="100" viewBox="0 0 100 100" fill="none" xmlns="http://www.w3.org/2000/svg">
  <path d="M71.3384 52.0286H66.6982C67.1712 53.3235 67.4296 54.721 67.4296 56.1775V73.7146C67.4296 74.3219 67.3239 74.9048 67.1316 75.4469H74.8028C77.6683 75.4469 79.9995 73.1156 79.9995 70.2501V60.6898C79.9996 55.9141 76.1142 52.0286 71.3384 52.0286Z" fill="#EDF1F7"/>
  <path d="M32.5701 56.1777C32.5701 54.7211 32.8285 53.3237 33.3015 52.0288H28.6613C23.8855 52.0288 20 55.9143 20 60.6901V70.2504C20 73.1159 22.3312 75.4472 25.1968 75.4472H32.8681C32.6758 74.9049 32.5701 74.3221 32.5701 73.7149V56.1777Z" fill="#EDF1F7"/>
  <path d="M55.304 47.5159H44.696C39.9201 47.5159 36.0347 51.4014 36.0347 56.1773V73.7144C36.0347 74.671 36.8102 75.4467 37.7669 75.4467H62.2331C63.1898 75.4467 63.9654 74.6712 63.9654 73.7144V56.1773C63.9654 51.4014 60.0799 47.5159 55.304 47.5159Z" fill="#EDF1F7"/>
  <path d="M49.9993 24.5522C44.2557 24.5522 39.583 29.225 39.583 34.9687C39.583 38.8646 41.7333 42.2671 44.9088 44.0536C46.415 44.9008 48.1515 45.385 49.9993 45.385C51.8471 45.385 53.5836 44.9008 55.0898 44.0536C58.2655 42.2671 60.4156 38.8645 60.4156 34.9687C60.4156 29.2251 55.7429 24.5522 49.9993 24.5522Z" fill="#EDF1F7"/>
  <path d="M31.7075 34.2589C27.412 34.2589 23.9175 37.7534 23.9175 42.0489C23.9175 46.3445 27.412 49.839 31.7075 49.839C32.7971 49.839 33.8347 49.6133 34.7773 49.2076C36.4069 48.506 37.7506 47.264 38.582 45.7084C39.1656 44.6165 39.4976 43.3709 39.4976 42.0489C39.4976 37.7535 36.0031 34.2589 31.7075 34.2589Z" fill="#EDF1F7"/>
  <path d="M68.2893 34.2589C63.9938 34.2589 60.4993 37.7534 60.4993 42.0489C60.4993 43.371 60.8313 44.6166 61.4149 45.7084C62.2463 47.2641 63.59 48.5061 65.2196 49.2076C66.1621 49.6133 67.1997 49.839 68.2893 49.839C72.5848 49.839 76.0794 46.3445 76.0794 42.0489C76.0794 37.7534 72.5848 34.2589 68.2893 34.2589Z" fill="#EDF1F7"/>
</svg>
