<svg width="32" height="32" viewBox="0 0 32 32" fill="none" xmlns="http://www.w3.org/2000/svg">
<circle cx="16" cy="16" r="16" fill="#EDF1F7"/>
<path d="M13.5856 15.8376H18.4144C19.4118 15.8376 20.2241 16.6498 20.2241 17.6473V22.2858H11.7759V17.6473C11.7759 16.6498 12.5881 15.8376 13.5856 15.8376Z" stroke="#647696"/>
<path d="M14.8875 13.9785C14.1912 13.5867 13.7222 12.842 13.7222 11.9916C13.7222 10.7361 14.7444 9.7139 15.9999 9.7139C17.2553 9.7139 18.2775 10.7361 18.2775 11.9916C18.2775 12.842 17.8086 13.5867 17.1122 13.9785C16.7831 14.1636 16.4042 14.2693 15.9999 14.2693C15.5955 14.2693 15.2166 14.1636 14.8875 13.9785ZM14.8875 13.9785L14.6424 14.4143L14.8875 13.9785Z" stroke="#647696"/>
</svg>
