<svg width="16" height="14" viewBox="0 0 16 14" fill="none" xmlns="http://www.w3.org/2000/svg">
<path d="M13.1478 13.072V8.43353C13.1478 8.22728 13.1309 8.0247 13.0985 7.82715H13.6901C14.6875 7.82715 15.4998 8.63942 15.4998 9.6368V9.63681V12.1862C15.4998 12.6742 15.102 13.072 14.614 13.072H13.1478Z" stroke="#647696"/>
<path d="M2.90133 7.82715C2.8689 8.02469 2.85204 8.22727 2.85204 8.43353V13.0721H1.38582C0.897807 13.0721 0.5 12.6742 0.5 12.1863V9.63684C0.5 8.63942 1.31227 7.82715 2.30969 7.82715H2.90133Z" stroke="#647696"/>
<path d="M6.58544 6.62402H9.41426C10.4117 6.62402 11.2239 7.43629 11.2239 8.43372V13.0722H4.77576V8.43372C4.77576 7.43629 5.58803 6.62402 6.58544 6.62402Z" stroke="#647696"/>
<path d="M9.11206 4.76457C8.78299 4.94968 8.40405 5.05542 7.99973 5.05542C7.59541 5.05542 7.21649 4.94969 6.88741 4.76458C6.19105 4.37284 5.72205 3.62814 5.72205 2.77772C5.72205 1.5222 6.74425 0.5 7.99973 0.5C9.2552 0.5 10.2774 1.52223 10.2774 2.77772C10.2774 3.62812 9.80844 4.37284 9.11206 4.76457ZM9.11206 4.76457L9.3572 5.20035L9.11206 4.76457Z" stroke="#647696"/>
<path d="M4.51437 5.40638L4.51438 5.40636C4.63243 5.18551 4.6995 4.93404 4.6995 4.66622C4.6995 3.79691 3.99147 3.08887 3.12215 3.08887C2.25282 3.08887 1.5448 3.79689 1.5448 4.66622C1.5448 5.53554 2.25282 6.24356 3.12215 6.24356C3.34303 6.24356 3.55256 6.19792 3.74302 6.11594L4.51437 5.40638ZM4.51437 5.40638C4.34574 5.7219 4.07289 5.97391 3.74306 6.11593L4.51437 5.40638Z" stroke="#647696"/>
<path d="M14.2696 5.40638L14.2696 5.40636C14.3877 5.18551 14.4547 4.93404 14.4547 4.66622C14.4547 3.79691 13.7467 3.08887 12.8774 3.08887C12.0081 3.08887 11.3 3.79689 11.3 4.66622C11.3 5.53554 12.0081 6.24356 12.8774 6.24356C13.0983 6.24356 13.3078 6.19792 13.4983 6.11594L14.2696 5.40638ZM14.2696 5.40638C14.101 5.7219 13.8281 5.97391 13.4983 6.11593L14.2696 5.40638Z" stroke="#647696"/>
</svg>
