<svg width="11" height="12" viewBox="0 0 11 12" fill="none" xmlns="http://www.w3.org/2000/svg">
<path d="M5.65504 3.38663C6.08003 3.10331 6.43126 2.91031 6.67244 2.78958L9.11681 5.23395C9.11681 5.23395 9.1168 5.23396 9.1168 5.23396C8.97925 5.49072 8.77669 5.85905 8.51849 6.30168L8.27572 6.71786L8.61641 7.05854L10.1042 8.54632C10.0038 8.67178 9.90889 8.78218 9.81641 8.87466L9.8101 8.88097L9.80397 8.88746C8.71863 10.0366 7.13682 10.2879 5.80206 9.65231L5.47729 9.49766L5.18042 9.70078C4.01013 10.5015 2.49585 11.0964 0.677214 11.3229C0.902728 9.52134 1.49 8.0453 2.24428 6.78816L2.4087 6.51413L2.28281 6.2204C1.70275 4.86692 1.96608 3.19275 3.05029 2.10854L3.0817 2.07713L3.10835 2.0416C3.17758 1.94929 3.25884 1.86509 3.34781 1.78995L4.86641 3.30854L5.22871 3.67085L5.65504 3.38663Z" stroke="#6C5CE7" stroke-width="1.25"/>
</svg>
