<svg width="12" height="10" viewBox="0 0 12 10" fill="none" xmlns="http://www.w3.org/2000/svg">
<path fill-rule="evenodd" clip-rule="evenodd" d="M6.60251 1.53676L8.93023 4.99803L6.74772 8.24339L6.60458 8.46237L6.6544 8.53646C7.06651 9.14927 8.00312 9.14927 8.41523 8.53646L10.7948 4.99803L8.41523 1.4596C8.00312 0.846799 7.06651 0.846798 6.6544 1.45961L6.60251 1.53676ZM5.99996 9.32003C5.12962 10.2912 3.50911 10.216 2.75489 9.09451L0 4.99803L2.75489 0.901557C3.5091 -0.219944 5.12962 -0.295119 5.99997 0.676037C6.87031 -0.295117 8.49083 -0.219945 9.24504 0.901555L11.9999 4.99803L9.24504 9.09451C8.49083 10.216 6.87031 10.2912 5.99996 9.32003ZM5.39742 1.53676L5.39258 1.54395L7.67442 4.99805L5.91426 7.69078L5.34553 8.53646C4.93342 9.14927 3.99681 9.14927 3.5847 8.53646L1.2051 4.99803L3.5847 1.45961C3.99681 0.846798 4.93342 0.846799 5.34553 1.4596L5.39742 1.53676Z" fill="#6C5CE7"/>
</svg>
