<svg width="12" height="10" viewBox="0 0 12 10" fill="none" xmlns="http://www.w3.org/2000/svg">
<path fill-rule="evenodd" clip-rule="evenodd" d="M6.56767 8.51186L6.5847 8.5372C6.99682 9.15 7.93342 9.15 8.34553 8.5372L10.7251 4.99877L8.34553 1.46034C7.93342 0.847532 6.99682 0.847531 6.5847 1.46034L6.56767 1.48567L8.93023 4.99877L6.56767 8.51186ZM5.96512 0.638864C5.08699 -0.29222 3.49915 -0.20441 2.75489 0.90229L0 4.99877L2.75489 9.09525C3.49915 10.2019 5.087 10.2898 5.96512 9.35867C6.84324 10.2898 8.43108 10.2019 9.17534 9.09524L11.9302 4.99877L9.17534 0.902289C8.43108 -0.20441 6.84324 -0.292218 5.96512 0.638864ZM3.5847 8.5372L1.2051 4.99877L3.5847 1.46034C3.99681 0.847531 4.93342 0.847532 5.34553 1.46034L7.72513 4.99877L5.34553 8.5372C4.93342 9.15 3.99681 9.15 3.5847 8.5372Z" fill="#A9B6CB"/>
</svg>
