<svg width="60" height="36" viewBox="0 0 60 36" fill="none" xmlns="http://www.w3.org/2000/svg">
<g opacity="0.6">
<rect x="1" y="1" width="40" height="34" rx="7" fill="white" stroke="#647696" stroke-width="2"/>
<path d="M46 14.8222C46 14.0412 46.4546 13.3316 47.1642 13.0052L56.1642 8.8652C57.4892 8.25569 59 9.2237 59 10.6822V24.3178C59 25.7763 57.4892 26.7443 56.1642 26.1348L47.1642 21.9948L46.7463 22.9033L47.1642 21.9948C46.4546 21.6684 46 20.9588 46 20.1778V14.8222Z" fill="white" stroke="#647696" stroke-width="2"/>
<path d="M19.5435 11.7261L25.7125 15.4275C27.6546 16.5927 27.6546 19.4073 25.7125 20.5725L19.5435 24.2739C17.5439 25.4737 15 24.0333 15 21.7014V14.2986C15 11.9667 17.5439 10.5263 19.5435 11.7261Z" fill="#E5E5E5" stroke="#647696" stroke-width="2"/>
</g>
</svg>
