<svg width="24" height="17" viewBox="0 0 24 17" fill="none" xmlns="http://www.w3.org/2000/svg">
<path fill-rule="evenodd" clip-rule="evenodd" d="M13.5 1H3C1.89543 1 1 1.89543 1 3V13.5C1 14.6046 1.89543 15.5 3 15.5H13.5C14.6046 15.5 15.5 14.6046 15.5 13.5V3C15.5 1.89543 14.6046 1 13.5 1ZM3 0C1.34315 0 0 1.34315 0 3V13.5C0 15.1569 1.34315 16.5 3 16.5H13.5C15.1569 16.5 16.5 15.1569 16.5 13.5V3C16.5 1.34315 15.1569 0 13.5 0H3ZM23 4.76619L19 7.16619V10.8338L23 13.2338V4.76619ZM18.4855 6.3087C18.1843 6.48942 18 6.81493 18 7.16619V10.8338C18 11.1851 18.1843 11.5106 18.4855 11.6913L22.4855 14.0913C23.152 14.4912 24 14.0111 24 13.2338V4.76619C24 3.9889 23.152 3.50878 22.4855 3.9087L18.4855 6.3087ZM7.14019 4.7993C6.48886 4.25653 5.5 4.71968 5.5 5.56752V10.9325C5.5 11.7803 6.48886 12.2435 7.14018 11.7007L10.3592 9.01822C10.8389 8.61843 10.8389 7.88157 10.3592 7.48178L7.14019 4.7993ZM9.71898 8.25L6.5 10.9325L6.5 5.56752L9.71898 8.25Z" fill="#647696"/>
</svg>
