<svg width="16" height="11" viewBox="0 0 16 11" fill="none" xmlns="http://www.w3.org/2000/svg">
<rect x="0.5" y="0.5" width="10" height="10" rx="2.5" fill="#6C5CE7" stroke="#6C5CE7"/>
<path d="M12.5 4.96619C12.5 4.79056 12.5921 4.62781 12.7428 4.53744L14.7428 3.33744C15.076 3.13749 15.5 3.37754 15.5 3.76619V8.23381C15.5 8.62246 15.076 8.86251 14.7428 8.66256L12.7428 7.46256C12.5921 7.37219 12.5 7.20944 12.5 7.03381V4.96619Z" fill="#6C5CE7" stroke="#6C5CE7"/>
<path d="M4.82009 3.68341L6.53907 5.11589C6.77894 5.31579 6.77894 5.68421 6.53907 5.88411L4.82009 7.31659C4.49443 7.58798 4 7.3564 4 6.93248V4.06752C4 3.6436 4.49443 3.41202 4.82009 3.68341Z" fill="white" stroke="white"/>
</svg>
