<svg width="16" height="16" viewBox="0 0 16 16" fill="none" xmlns="http://www.w3.org/2000/svg">
<path fill-rule="evenodd" clip-rule="evenodd" d="M0.378961 7.1868C1.6363 4.80527 4.40176 1.99991 8.00071 2C11.6252 2.00009 14.4286 4.87374 15.667 7.27322C15.9026 7.72958 15.9026 8.27042 15.667 8.72678C14.4286 11.1263 11.6252 13.9999 8.00071 13.9999C4.45617 13.9999 1.72011 10.8901 0.437019 8.78357C0.139846 8.29567 0.112243 7.69199 0.378961 7.1868ZM8.00069 11.6967C9.65755 11.6967 11.0007 10.3529 11.0007 8.69537C11.0007 7.03781 9.65755 5.69409 8.00069 5.69409C6.34384 5.69409 5.00069 7.03781 5.00069 8.69537C5.00069 10.3529 6.34384 11.6967 8.00069 11.6967Z" fill="#647696"/>
</svg>
