<svg width="12" height="12" viewBox="0 0 12 12" fill="none" xmlns="http://www.w3.org/2000/svg">
<path fill-rule="evenodd" clip-rule="evenodd" d="M0.391775 5.19316C1.37931 3.45301 3.39962 1.49994 6.00021 1.5C8.63034 1.50006 10.684 3.51764 11.6558 5.27862C11.9039 5.72825 11.9039 6.27175 11.6558 6.72138C10.684 8.48236 8.63034 10.4999 6.00021 10.4999C3.44691 10.4999 1.45297 8.34838 0.446668 6.77841C0.138389 6.29745 0.109816 5.69 0.391775 5.19316ZM6.00021 8.7204C7.24285 8.7204 8.25021 7.71261 8.25021 6.46944C8.25021 5.22626 7.24285 4.21848 6.00021 4.21848C4.75757 4.21848 3.75021 5.22626 3.75021 6.46944C3.75021 7.71261 4.75757 8.7204 6.00021 8.7204Z" fill="white"/>
</svg>
