<svg width="24" height="20" viewBox="0 0 24 20" fill="none" xmlns="http://www.w3.org/2000/svg">
<path d="M11.1425 1.42915C11.5309 0.781816 12.4691 0.781816 12.8575 1.42915L23.0913 18.4855C23.4912 19.152 23.0111 20 22.2338 20H1.76619C0.988895 20 0.508783 19.152 0.908697 18.4855L11.1425 1.42915Z" fill="white"/>
<path fill-rule="evenodd" clip-rule="evenodd" d="M11.8073 6C12.5132 6 13.0854 6.57223 13.0854 7.27811C13.0854 7.98399 12.5132 8.55621 11.8073 8.55621H11.6709C10.9651 8.55621 10.3928 7.98399 10.3928 7.27811C10.3928 6.57223 10.9651 6 11.6709 6H11.8073ZM11.7389 10.2604C12.4824 10.2604 13.0851 10.8631 13.0851 11.6067V15.7307C13.0851 16.4742 12.4824 17.0769 11.7389 17.0769C10.9953 17.0769 10.3926 16.4742 10.3926 15.7307V11.6067C10.3926 10.8631 10.9953 10.2604 11.7389 10.2604Z" fill="#FFAE0A"/>
</svg>
