<svg width="18" height="16" viewBox="0 0 18 16" fill="none" xmlns="http://www.w3.org/2000/svg">
<path d="M6.22753 2.28744C7.39274 0.345426 10.2073 0.345431 11.3725 2.28745L16.8739 11.4565C18.0737 13.4561 16.6333 16 14.3014 16H3.29858C0.9667 16 -0.473645 13.4561 0.726099 11.4565L6.22753 2.28744Z" fill="#FFAE0A"/>
<path fill-rule="evenodd" clip-rule="evenodd" d="M8.62648 3.39996C9.26177 3.39996 9.77678 3.91497 9.77678 4.55026C9.77678 5.18555 9.26177 5.70056 8.62648 5.70056H8.50376C7.86847 5.70056 7.35347 5.18555 7.35347 4.55026C7.35347 3.91497 7.86847 3.39996 8.50376 3.39996H8.62648ZM8.56468 7.23431C9.23386 7.23431 9.77634 7.77678 9.77634 8.44596V12.1576C9.77634 12.8267 9.23386 13.3692 8.56468 13.3692C7.8955 13.3692 7.35303 12.8267 7.35303 12.1576V8.44596C7.35303 7.77678 7.8955 7.23431 8.56468 7.23431Z" fill="white"/>
</svg>
