<svg width="100" height="100" viewBox="0 0 100 100" fill="none" xmlns="http://www.w3.org/2000/svg">
<path d="M68.75 57.5C66.5 57.5 64.625 58.25 62.75 59.375L53.75 51.875V41.75C58.25 40.25 61.25 36.125 61.25 31.25C61.25 24.875 56.375 20 50 20C43.625 20 38.75 24.875 38.75 31.25C38.75 36.125 41.75 40.25 46.25 41.75V51.875L37.25 59C35.375 58.25 33.5 57.5 31.25 57.5C24.875 57.5 20 62.375 20 68.75C20 75.125 24.875 80 31.25 80C37.625 80 42.5 75.125 42.5 68.75C42.5 67.625 42.125 66.125 41.75 65L50 58.625L58.25 65C57.875 66.125 57.5 67.25 57.5 68.75C57.5 75.125 62.375 80 68.75 80C75.125 80 80 75.125 80 68.75C80 62.375 75.125 57.5 68.75 57.5ZM31.25 72.5C29 72.5 27.5 71 27.5 68.75C27.5 66.5 29 65 31.25 65C33.5 65 35 66.5 35 68.75C35 71 33.5 72.5 31.25 72.5ZM50 35C47.75 35 46.25 33.5 46.25 31.25C46.25 29 47.75 27.5 50 27.5C52.25 27.5 53.75 29 53.75 31.25C53.75 33.5 52.25 35 50 35ZM68.75 72.5C66.5 72.5 65 71 65 68.75C65 66.5 66.5 65 68.75 65C71 65 72.5 66.5 72.5 68.75C72.5 71 71 72.5 68.75 72.5Z" fill="#EDF1F7"/>
<circle cx="49.75" cy="31" r="11" fill="#EDF1F7"/>
<circle cx="68.5" cy="68.5" r="11" fill="#EDF1F7"/>
<circle cx="31" cy="68.5" r="11" fill="#EDF1F7"/>
</svg>
