<svg width="16" height="16" viewBox="0 0 16 16" fill="none" xmlns="http://www.w3.org/2000/svg">
<path d="M4.0198 11.3356L3.99143 11.3338C3.76868 11.3203 3.55386 11.2794 3.34986 11.2152L1.92411 13.6839C1.79349 13.91 1.87296 14.1993 2.10077 14.327L3.50421 15.1141C3.72808 15.2397 4.01136 15.162 4.13971 14.9397L6.22127 11.3356H4.0198Z" fill="#647696"/>
<path d="M11.9371 0.895428L7.7019 3.4883V10.9552L11.9425 13.4744C12.255 13.6601 12.6509 13.4349 12.6509 13.0714V1.29518C12.6509 0.928897 12.2495 0.704147 11.9371 0.895428Z" fill="#647696"/>
<path d="M1.51656 8.75124V5.60247C1.51656 5.42203 1.53609 5.24625 1.57225 5.07666H0.8905C0.398688 5.07666 0 5.47522 0 5.96688V8.38684C0 8.87849 0.398688 9.27705 0.8905 9.27705H1.572C1.53597 9.10699 1.51656 8.93121 1.51656 8.75124Z" fill="#647696"/>
<path d="M6.76416 10.3981H4.04828C3.16797 10.3447 2.45435 9.63129 2.45435 8.75126V5.60251C2.45435 4.72248 3.16797 4.0091 4.04828 4.06251H6.76416V10.3981Z" fill="#647696"/>
<path d="M14.71 11.0091C14.59 11.0091 14.47 10.9633 14.3784 10.8717L13.4325 9.92615C13.2494 9.74312 13.2494 9.44631 13.4325 9.26325C13.6156 9.08022 13.9125 9.08022 14.0956 9.26325L15.0415 10.2088C15.2247 10.3919 15.2247 10.6887 15.0415 10.8717C14.95 10.9633 14.83 11.0091 14.71 11.0091Z" fill="#CBD5E0"/>
<path d="M13.764 5.38409C13.644 5.38409 13.524 5.33834 13.4324 5.24678C13.2493 5.06375 13.2493 4.76693 13.4324 4.58387L14.3784 3.63827C14.5615 3.45521 14.8584 3.45521 15.0415 3.63827C15.2246 3.82131 15.2246 4.11812 15.0415 4.30118L14.0956 5.24678C14.004 5.33831 13.884 5.38409 13.764 5.38409Z" fill="#CBD5E0"/>
<path d="M15.531 7.72375H14.1933C13.9343 7.72375 13.7244 7.51388 13.7244 7.255C13.7244 6.99613 13.9343 6.78625 14.1933 6.78625H15.531C15.7899 6.78625 15.9999 6.99613 15.9999 7.255C15.9999 7.51388 15.7899 7.72375 15.531 7.72375Z" fill="#CBD5E0"/>
</svg>
