<svg width="24" height="24" viewBox="0 0 24 24" fill="none" xmlns="http://www.w3.org/2000/svg">
<path d="M6.57143 14H14.4286C14.7442 14 15 14.2558 15 14.5714V22.4286C15 22.7442 14.7442 23 14.4286 23H6.57143C6.25584 23 6 22.7442 6 22.4286V14.5714C6 14.2558 6.25584 14 6.57143 14Z" stroke="#647696" stroke-width="2"/>
<path d="M23 7.5C23 9.433 21.433 11 19.5 11C17.567 11 16 9.433 16 7.5C16 5.567 17.567 4 19.5 4C21.433 4 23 5.567 23 7.5Z" stroke="#647696" stroke-width="2"/>
<path d="M10.2338 9H1.76619L6 1.94365L10.2338 9Z" stroke="#647696" stroke-width="2"/>
</svg>
