<svg width="100" height="100" viewBox="0 0 100 100" fill="none" xmlns="http://www.w3.org/2000/svg">
<g clip-path="url(#clip0)">
<path d="M41.4013 62.349L34.7225 55.6702C35.1738 54.0474 35.0749 52.3208 34.4414 50.7601C33.8078 49.1994 32.6752 47.8924 31.2205 47.0434C29.7657 46.1943 28.0707 45.8509 26.4002 46.0668C24.7297 46.2827 23.1777 47.0458 21.9867 48.2369C20.7956 49.4279 20.0326 50.9799 19.8166 52.6504C19.6007 54.3209 19.9441 56.0159 20.7932 57.4706C21.6422 58.9254 22.9492 60.058 24.5099 60.6916C26.0706 61.3251 27.7972 61.424 29.42 60.9727L35 66.5527V76.2502C35 77.2448 35.3951 78.1986 36.0984 78.9019C36.8016 79.6051 37.7555 80.0002 38.75 80.0002C39.7446 80.0002 40.6984 79.6051 41.4017 78.9019C42.1049 78.1986 42.5 77.2448 42.5 76.2502V65.0002C42.4998 64.0057 42.1046 63.0521 41.4013 62.349Z" fill="#EDF1F7"/>
<path d="M72.5 46.2502C71.3477 46.2361 70.208 46.491 69.1715 46.9945C68.135 47.4981 67.2302 48.2364 66.5291 49.1509C65.8279 50.0654 65.3497 51.1309 65.1324 52.2626C64.9152 53.3943 64.9648 54.561 65.2775 55.6702L58.5988 62.3489C57.8954 63.052 57.5002 64.0057 57.5 65.0002V76.2502C57.5 77.2447 57.8951 78.1985 58.5984 78.9018C59.3016 79.6051 60.2554 80.0002 61.25 80.0002C62.2446 80.0002 63.1984 79.6051 63.9016 78.9018C64.6049 78.1985 65 77.2447 65 76.2502V66.5527L70.58 60.9727C71.6155 61.2621 72.7011 61.3255 73.7632 61.1586C74.8253 60.9917 75.8391 60.5984 76.7359 60.0053C77.6327 59.4123 78.3915 58.6333 78.9609 57.7213C79.5303 56.8093 79.8969 55.7855 80.0359 54.7194C80.175 53.6533 80.0832 52.5697 79.7667 51.5422C79.4503 50.5146 78.9167 49.5671 78.202 48.7639C77.4872 47.9607 76.6082 47.3205 75.6244 46.8868C74.6406 46.4531 73.5751 46.236 72.5 46.2502Z" fill="#EDF1F7"/>
<path d="M68.75 27.4998C68.756 26.1818 68.4145 24.8856 67.7601 23.7416C67.1056 22.5976 66.1612 21.6463 65.0221 20.9834C63.883 20.3206 62.5893 19.9696 61.2713 19.9659C59.9534 19.9622 58.6577 20.3058 57.5148 20.9622C56.3719 21.6186 55.4222 22.5646 54.7613 23.7048C54.1004 24.8451 53.7516 26.1394 53.7501 27.4573C53.7486 28.7753 54.0944 30.0704 54.7527 31.2121C55.4111 32.3539 56.3586 33.302 57.5 33.961V40.9473L50 48.4473L42.5 40.9473V33.961C43.9298 33.1355 45.0473 31.8613 45.6791 30.3359C46.3109 28.8106 46.4218 27.1194 45.9944 25.5247C45.5671 23.9299 44.6255 22.5207 43.3157 21.5157C42.0059 20.5106 40.401 19.9658 38.75 19.9658C37.099 19.9658 35.4941 20.5106 34.1843 21.5157C32.8745 22.5207 31.9329 23.9299 31.5056 25.5247C31.0782 27.1194 31.1891 28.8106 31.8209 30.3359C32.4527 31.8613 33.5702 33.1355 35 33.961V42.4998C35.0002 43.4942 35.3954 44.4479 36.0988 45.151L46.25 55.3023V76.2498C46.25 77.2443 46.6451 78.1981 47.3484 78.9014C48.0516 79.6047 49.0054 79.9998 50 79.9998C50.9946 79.9998 51.9484 79.6047 52.6517 78.9014C53.3549 78.1981 53.75 77.2443 53.75 76.2498V55.3023L63.9013 45.151C64.6046 44.4479 64.9998 43.4942 65 42.4998V33.961C66.1367 33.3074 67.0815 32.3663 67.7397 31.2323C68.3979 30.0982 68.7463 28.811 68.75 27.4998Z" fill="#EDF1F7"/>
</g>
<defs>
<clipPath id="clip0">
<rect width="60" height="60" fill="white" transform="translate(20 20)"/>
</clipPath>
</defs>
</svg>
