<svg width="16" height="16" viewBox="0 0 16 16" fill="none" xmlns="http://www.w3.org/2000/svg">
<g clip-path="url(#clip0)">
<path d="M5.70701 11.293L3.92601 9.51201C4.04635 9.07925 4.01998 8.61883 3.85103 8.20264C3.68208 7.78645 3.38005 7.43793 2.99212 7.21151C2.60419 6.98509 2.15219 6.89352 1.70672 6.9511C1.26125 7.00868 0.847395 7.21217 0.529781 7.52978C0.212167 7.8474 0.00868039 8.26125 -0.0488984 8.70672C-0.106477 9.15219 -0.0149065 9.60419 0.211513 9.99212C0.437932 10.3801 0.786451 10.6821 1.20264 10.851C1.61883 11.02 2.07925 11.0463 2.51201 10.926L4.00001 12.414V15C4.00001 15.2652 4.10536 15.5196 4.2929 15.7071C4.48044 15.8946 4.73479 16 5.00001 16C5.26522 16 5.51958 15.8946 5.70711 15.7071C5.89465 15.5196 6.00001 15.2652 6.00001 15V12C5.99995 11.7348 5.89456 11.4805 5.70701 11.293V11.293Z" fill="#A9B6CB"/>
<path d="M14 7.00005C13.6927 6.9963 13.3888 7.06426 13.1124 7.19855C12.836 7.33283 12.5947 7.52973 12.4077 7.77359C12.2208 8.01746 12.0932 8.30157 12.0353 8.60336C11.9774 8.90514 11.9906 9.21628 12.074 9.51205L10.293 11.2931C10.1055 11.4805 10.0001 11.7349 10 12.0001V15.0001C10 15.2653 10.1054 15.5196 10.2929 15.7072C10.4804 15.8947 10.7348 16.0001 11 16.0001C11.2652 16.0001 11.5196 15.8947 11.7071 15.7072C11.8946 15.5196 12 15.2653 12 15.0001V12.4141L13.488 10.9261C13.7641 11.0032 14.0536 11.0201 14.3368 10.9756C14.6201 10.9311 14.8904 10.8262 15.1296 10.6681C15.3687 10.5099 15.5711 10.3022 15.7229 10.059C15.8747 9.81582 15.9725 9.54281 16.0096 9.25851C16.0467 8.97421 16.0222 8.68526 15.9378 8.41125C15.8534 8.13724 15.7111 7.88458 15.5205 7.67039C15.3299 7.4562 15.0955 7.28549 14.8332 7.16983C14.5708 7.05417 14.2867 6.99627 14 7.00005V7.00005Z" fill="#A9B6CB"/>
<path d="M13 2.00002C13.0016 1.64857 12.9105 1.3029 12.736 0.997838C12.5615 0.692776 12.3097 0.43909 12.0059 0.26233C11.7021 0.085571 11.3571 -0.0080191 11.0057 -0.00901341C10.6542 -0.0100077 10.3087 0.0816289 10.0039 0.256667C9.69918 0.431704 9.44592 0.683962 9.26967 0.988032C9.09343 1.2921 9.00042 1.63725 9.00002 1.9887C8.99962 2.34016 9.09184 2.68551 9.2674 2.98998C9.44295 3.29445 9.69563 3.54729 10 3.72302V5.58602L8 7.58602L6 5.58602V3.72302C6.38128 3.50288 6.67928 3.16309 6.84776 2.75633C7.01624 2.34958 7.0458 1.8986 6.93185 1.47333C6.8179 1.04806 6.56681 0.672279 6.21752 0.40426C5.86823 0.136242 5.44027 -0.0090332 5 -0.0090332C4.55973 -0.0090332 4.13177 0.136242 3.78248 0.40426C3.43319 0.672279 3.1821 1.04806 3.06815 1.47333C2.9542 1.8986 2.98376 2.34958 3.15224 2.75633C3.32073 3.16309 3.61872 3.50288 4 3.72302V6.00002C4.00006 6.26521 4.10545 6.51952 4.293 6.70702L7 9.41402V15C7 15.2652 7.10536 15.5196 7.29289 15.7071C7.48043 15.8947 7.73478 16 8 16C8.26522 16 8.51957 15.8947 8.70711 15.7071C8.89464 15.5196 9 15.2652 9 15V9.41402L11.707 6.70702C11.8946 6.51952 11.9999 6.26521 12 6.00002V3.72302C12.3031 3.54871 12.5551 3.29777 12.7306 2.99535C12.9061 2.69293 12.999 2.34968 13 2.00002V2.00002Z" fill="#647696"/>
</g>
<defs>
<clipPath id="clip0">
<rect width="16" height="16" fill="white"/>
</clipPath>
</defs>
</svg>
