<svg width="16" height="16" viewBox="0 0 16 16" fill="none" xmlns="http://www.w3.org/2000/svg">
<path fill-rule="evenodd" clip-rule="evenodd" d="M11.8891 0.818031L11.5355 0.464478L11.182 0.818031L8.49999 3.50001H6.45852C6.22048 2.08116 4.9865 1.00001 3.5 1.00001C1.84315 1.00001 0.5 2.34316 0.5 4.00001C0.5 5.48651 1.58114 6.72049 3 6.95853V10L1.5 10H1V10.5V14.5V15H1.5H5.5H6V14.5V10.5V10H5.5L4 10V6.95853C5.25625 6.74777 6.24776 5.75627 6.45852 4.50001H8.49999L11 7.00002V9.54149C9.58114 9.77953 8.5 11.0135 8.5 12.5C8.5 14.1569 9.84315 15.5 11.5 15.5C13.1569 15.5 14.5 14.1569 14.5 12.5C14.5 11.0135 13.4189 9.77953 12 9.54149V7.07107L14.7175 4.35356L15.0711 4.00001L14.7175 3.64646L11.8891 0.818031ZM11.5355 6.12133L9.4142 4.00001L11.5355 1.87869L13.6568 4.00001L11.5355 6.12133ZM1.5 4.00001C1.5 2.89544 2.39543 2.00001 3.5 2.00001C4.60457 2.00001 5.5 2.89544 5.5 4.00001C5.5 5.10458 4.60457 6.00001 3.5 6.00001C2.39543 6.00001 1.5 5.10458 1.5 4.00001ZM9.5 12.5C9.5 11.3954 10.3954 10.5 11.5 10.5C12.6046 10.5 13.5 11.3954 13.5 12.5C13.5 13.6046 12.6046 14.5 11.5 14.5C10.3954 14.5 9.5 13.6046 9.5 12.5ZM2 14V11H5V14H2Z" fill="#647696"/>
</svg>
