<svg width="100" height="100" viewBox="0 0 100 100" fill="none" xmlns="http://www.w3.org/2000/svg">
<path fill-rule="evenodd" clip-rule="evenodd" d="M76 34.2495L64.7828 23L53.5655 34.2495L64.7828 45.4991L76 34.2495ZM24.9829 60.1021V76.0113H40.8465V60.1021H24.9829ZM42.8295 34.2495C42.8295 39.7411 38.3905 44.1928 32.9147 44.1928C27.439 44.1928 23 39.7411 23 34.2495C23 28.758 27.439 24.3063 32.9147 24.3063C38.3905 24.3063 42.8295 28.758 42.8295 34.2495ZM64.6419 78C70.1176 78 74.5566 73.5482 74.5566 68.0567C74.5566 62.5652 70.1176 58.1134 64.6419 58.1134C59.1661 58.1134 54.7271 62.5652 54.7271 68.0567C54.7271 73.5482 59.1661 78 64.6419 78Z" fill="#EDF1F7"/>
<path fill-rule="evenodd" clip-rule="evenodd" d="M64.9268 20L79 34.1087L64.9268 48.2174L50.8537 34.1087L64.9268 20ZM56.4829 34.1087L64.9268 42.5739L73.3707 34.1087L64.9268 25.6435L56.4829 34.1087ZM21 34.1087C21 27.497 26.3464 22.1371 32.9415 22.1371C39.5366 22.1371 44.883 27.497 44.883 34.1087C44.883 40.7205 39.5366 46.0804 32.9415 46.0804C26.3464 46.0804 21 40.7205 21 34.1087ZM32.9415 26.1276C28.5447 26.1276 24.9805 29.7009 24.9805 34.1087C24.9805 38.5166 28.5447 42.0898 32.9415 42.0898C37.3382 42.0898 40.9025 38.5166 40.9025 34.1087C40.9025 29.7009 37.3382 26.1276 32.9415 26.1276ZM64.7854 60.0473C60.3887 60.0473 56.8244 63.6205 56.8244 68.0284C56.8244 72.4362 60.3887 76.0095 64.7854 76.0095C69.1822 76.0095 72.7464 72.4362 72.7464 68.0284C72.7464 63.6205 69.1822 60.0473 64.7854 60.0473ZM52.844 68.0284C52.844 61.4166 58.1903 56.0567 64.7854 56.0567C71.3805 56.0567 76.7269 61.4166 76.7269 68.0284C76.7269 74.6401 71.3805 80 64.7854 80C58.1903 80 52.844 74.6401 52.844 68.0284ZM22.9902 58.052H42.8927V78.0047H22.9902V58.052ZM26.9707 62.0425V74.0142H38.9122V62.0425H26.9707Z" fill="#EDF1F7"/>
<path fill-rule="evenodd" clip-rule="evenodd" d="M55 36H43V32H55V36ZM35 44V58H31V44H35ZM63 44V58H67V44H63Z" fill="#EDF1F7"/>
</svg>
