<svg width="12" height="12" viewBox="0 0 12 12" fill="none" xmlns="http://www.w3.org/2000/svg">
<path fill-rule="evenodd" clip-rule="evenodd" d="M10.773 3.00023L8.65164 0.878906L6.53032 3.00023L8.65164 5.12155L10.773 3.00023ZM1.125 7.87523V10.8752H4.125V7.87523H1.125ZM4.5 3.00023C4.5 4.03576 3.66053 4.87523 2.625 4.87523C1.58947 4.87523 0.75 4.03576 0.75 3.00023C0.75 1.96469 1.58947 1.12523 2.625 1.12523C3.66053 1.12523 4.5 1.96469 4.5 3.00023ZM8.625 11.2502C9.66053 11.2502 10.5 10.4108 10.5 9.37523C10.5 8.33969 9.66053 7.50023 8.625 7.50023C7.58947 7.50023 6.75 8.33969 6.75 9.37523C6.75 10.4108 7.58947 11.2502 8.625 11.2502Z" fill="white"/>
<path d="M8.65164 0.878906L9.0052 0.525353L8.65164 0.171799L8.29809 0.525353L8.65164 0.878906ZM10.773 3.00023L11.1265 3.35378L11.4801 3.00023L11.1265 2.64667L10.773 3.00023ZM6.53032 3.00023L6.17677 2.64667L5.82322 3.00023L6.17677 3.35378L6.53032 3.00023ZM8.65164 5.12155L8.29809 5.4751L8.65164 5.82865L9.0052 5.4751L8.65164 5.12155ZM1.125 10.8752H0.625V11.3752H1.125V10.8752ZM1.125 7.87523V7.37523H0.625V7.87523H1.125ZM4.125 10.8752V11.3752H4.625V10.8752H4.125ZM4.125 7.87523H4.625V7.37523H4.125V7.87523ZM8.29809 1.23246L10.4194 3.35378L11.1265 2.64667L9.0052 0.525353L8.29809 1.23246ZM6.88387 3.35378L9.0052 1.23246L8.29809 0.525353L6.17677 2.64667L6.88387 3.35378ZM9.0052 4.76799L6.88387 2.64667L6.17677 3.35378L8.29809 5.4751L9.0052 4.76799ZM10.4194 2.64667L8.29809 4.76799L9.0052 5.4751L11.1265 3.35378L10.4194 2.64667ZM1.625 10.8752V7.87523H0.625V10.8752H1.625ZM4.125 10.3752H1.125V11.3752H4.125V10.3752ZM3.625 7.87523V10.8752H4.625V7.87523H3.625ZM1.125 8.37523H4.125V7.37523H1.125V8.37523ZM2.625 5.37523C3.93668 5.37523 5 4.3119 5 3.00023H4C4 3.75962 3.38439 4.37523 2.625 4.37523V5.37523ZM0.25 3.00023C0.25 4.3119 1.31332 5.37523 2.625 5.37523V4.37523C1.86561 4.37523 1.25 3.75962 1.25 3.00023H0.25ZM2.625 0.625227C1.31332 0.625227 0.25 1.68855 0.25 3.00023H1.25C1.25 2.24084 1.86561 1.62523 2.625 1.62523V0.625227ZM5 3.00023C5 1.68855 3.93668 0.625227 2.625 0.625227V1.62523C3.38439 1.62523 4 2.24084 4 3.00023H5ZM10 9.37523C10 10.1346 9.38439 10.7502 8.625 10.7502V11.7502C9.93668 11.7502 11 10.6869 11 9.37523H10ZM8.625 8.00023C9.38439 8.00023 10 8.61584 10 9.37523H11C11 8.06355 9.93668 7.00023 8.625 7.00023V8.00023ZM7.25 9.37523C7.25 8.61584 7.86561 8.00023 8.625 8.00023V7.00023C7.31332 7.00023 6.25 8.06355 6.25 9.37523H7.25ZM8.625 10.7502C7.86561 10.7502 7.25 10.1346 7.25 9.37523H6.25C6.25 10.6869 7.31332 11.7502 8.625 11.7502V10.7502Z" fill="white"/>
<path fill-rule="evenodd" clip-rule="evenodd" d="M6.75 3.5H4.5V2.5H6.75V3.5ZM3.125 4.875V7.5H2.125V4.875H3.125ZM8.125 4.875V7.5H9.125V4.875H8.125Z" fill="white"/>
</svg>
