<svg width="16" height="16" viewBox="0 0 16 16" fill="none" xmlns="http://www.w3.org/2000/svg">
<path fill-rule="evenodd" clip-rule="evenodd" d="M14.3639 4L11.5355 1.17157L8.7071 4L11.5355 6.82842L14.3639 4ZM1.5 10.5V14.5H5.5V10.5H1.5ZM6 4C6 5.38071 4.88071 6.5 3.5 6.5C2.11929 6.5 1 5.38071 1 4C1 2.61928 2.11929 1.5 3.5 1.5C4.88071 1.5 6 2.61928 6 4ZM11.5 15C12.8807 15 14 13.8807 14 12.5C14 11.1193 12.8807 10 11.5 10C10.1193 10 9 11.1193 9 12.5C9 13.8807 10.1193 15 11.5 15Z" fill="#6C5CE7"/>
<path d="M11.5355 1.17157L11.8891 0.818016L11.5355 0.464463L11.182 0.818016L11.5355 1.17157ZM14.3639 4L14.7175 4.35355L15.0711 4L14.7175 3.64644L14.3639 4ZM8.7071 4L8.35354 3.64644L7.99999 4L8.35354 4.35355L8.7071 4ZM11.5355 6.82842L11.182 7.18198L11.5355 7.53553L11.8891 7.18198L11.5355 6.82842ZM1.5 14.5H1V15H1.5V14.5ZM1.5 10.5V10H1V10.5H1.5ZM5.5 14.5V15H6V14.5H5.5ZM5.5 10.5H6V10H5.5V10.5ZM11.182 1.52512L14.0104 4.35355L14.7175 3.64644L11.8891 0.818016L11.182 1.52512ZM9.06065 4.35355L11.8891 1.52512L11.182 0.818016L8.35354 3.64644L9.06065 4.35355ZM11.8891 6.47487L9.06065 3.64644L8.35354 4.35355L11.182 7.18198L11.8891 6.47487ZM14.0104 3.64644L11.182 6.47487L11.8891 7.18198L14.7175 4.35355L14.0104 3.64644ZM2 14.5V10.5H1V14.5H2ZM5.5 14H1.5V15H5.5V14ZM5 10.5V14.5H6V10.5H5ZM1.5 11H5.5V10H1.5V11ZM3.5 7C5.15685 7 6.5 5.65685 6.5 4H5.5C5.5 5.10457 4.60457 6 3.5 6V7ZM0.5 4C0.5 5.65685 1.84315 7 3.5 7V6C2.39543 6 1.5 5.10457 1.5 4H0.5ZM3.5 0.999997C1.84315 0.999997 0.5 2.34314 0.5 4H1.5C1.5 2.89543 2.39543 2 3.5 2V0.999997ZM6.5 4C6.5 2.34314 5.15685 0.999997 3.5 0.999997V2C4.60457 2 5.5 2.89543 5.5 4H6.5ZM13.5 12.5C13.5 13.6046 12.6046 14.5 11.5 14.5V15.5C13.1569 15.5 14.5 14.1569 14.5 12.5H13.5ZM11.5 10.5C12.6046 10.5 13.5 11.3954 13.5 12.5H14.5C14.5 10.8431 13.1569 9.5 11.5 9.5V10.5ZM9.5 12.5C9.5 11.3954 10.3954 10.5 11.5 10.5V9.5C9.84315 9.5 8.5 10.8431 8.5 12.5H9.5ZM11.5 14.5C10.3954 14.5 9.5 13.6046 9.5 12.5H8.5C8.5 14.1569 9.84315 15.5 11.5 15.5V14.5Z" fill="#6C5CE7"/>
<path fill-rule="evenodd" clip-rule="evenodd" d="M9 4.5H6V3.5H9V4.5ZM4 6.5V10H3V6.5H4ZM11 6.5V10H12V6.5H11Z" fill="#6C5CE7"/>
</svg>
