<svg width="102" height="71" viewBox="0 0 102 71" fill="none" xmlns="http://www.w3.org/2000/svg">
<path d="M63.7636 53.244H63.7516V43.1046V3.07547C63.7516 1.38156 62.3622 0 60.6588 0H41.3292C39.6258 0 38.2365 1.38156 38.2365 3.07547V20.2909V30.4303V71H63.7636V53.244Z" fill="#EDF1F7"/>
<path d="M102 56.3195C102 54.6256 100.611 53.244 98.9073 53.244H77.0527C75.3493 53.244 73.96 54.6256 73.96 56.3195V71H102V56.3195Z" fill="#EDF1F7"/>
<path d="M28.0521 33.5058C28.0521 31.8119 26.6628 30.4303 24.9594 30.4303H3.09274C1.38932 30.4183 0 31.7999 0 33.5058V71H28.0521V33.5058Z" fill="#EDF1F7"/>
</svg>
