<svg width="60" height="60" viewBox="0 0 60 60" fill="none" xmlns="http://www.w3.org/2000/svg">
<path d="M39.0858 2H9.5C8.94772 2 8.5 2.44771 8.5 3V57C8.5 57.5523 8.94772 58 9.5 58H50.5C51.0523 58 51.5 57.5523 51.5 57V14.4142C51.5 14.149 51.3946 13.8946 51.2071 13.7071L39.7929 2.29289C39.6054 2.10536 39.351 2 39.0858 2Z" fill="white"/>
<path fill-rule="evenodd" clip-rule="evenodd" d="M7.5 3C7.5 1.89543 8.39543 1 9.5 1H39.0858C39.6162 1 40.1249 1.21071 40.5 1.58579L51.9142 13L51.2071 13.7071L51.9142 13C52.2893 13.3751 52.5 13.8838 52.5 14.4142V57C52.5 58.1046 51.6046 59 50.5 59H9.5C8.39543 59 7.5 58.1046 7.5 57V3ZM39.0858 3L9.5 3V57H50.5V14.4142L39.0858 3Z" fill="#647696"/>
<path fill-rule="evenodd" clip-rule="evenodd" d="M38.5 13V2H40.5V13H51.5V15H40.5C39.3954 15 38.5 14.1046 38.5 13Z" fill="#647696"/>
<path fill-rule="evenodd" clip-rule="evenodd" d="M51.5 42H8.5V40H51.5V42Z" fill="#647696"/>
<path d="M23.227 44.9241L21.299 49.0251H21.162L19.385 44.9241H17.512L20.232 50.1051L17.676 55.0001H19.576L21.299 51.1991H21.436L23.035 55.0001H24.936L22.379 50.1051L25.1 44.9241H23.227Z" fill="#647696"/>
<path d="M29.0369 44.9241H27.3689V55.0001H33.6719V53.7561H29.0369V44.9241Z" fill="#647696"/>
<path d="M39.9399 50.064C39.6259 49.836 39.2859 49.642 38.9209 49.483C38.5559 49.324 38.2189 49.16 37.9089 48.991C37.5989 48.822 37.3389 48.627 37.1299 48.403C36.9199 48.179 36.8159 47.885 36.8159 47.521C36.8159 47.375 36.8519 47.222 36.9249 47.063C36.9979 46.904 37.0979 46.76 37.2259 46.632C37.3529 46.504 37.4989 46.398 37.6639 46.311C37.8289 46.224 38.0009 46.172 38.1839 46.154C38.5119 46.127 38.7809 46.122 38.9909 46.14C39.1999 46.159 39.3689 46.19 39.4969 46.236C39.6239 46.282 39.7229 46.327 39.7909 46.373C39.8589 46.419 39.9209 46.455 39.9759 46.482C39.9849 46.473 40.0119 46.427 40.0579 46.345C40.1029 46.263 40.1579 46.16 40.2219 46.037C40.2849 45.914 40.3539 45.782 40.4269 45.641C40.4999 45.499 40.5639 45.37 40.6179 45.251C40.3529 45.078 40.0069 44.952 39.5789 44.875C39.1499 44.798 38.7259 44.759 38.3079 44.759C37.8979 44.759 37.5079 44.822 37.1389 44.95C36.7699 45.078 36.4459 45.263 36.1679 45.504C35.8899 45.745 35.6689 46.039 35.5049 46.386C35.3409 46.733 35.2589 47.129 35.2589 47.575C35.2589 48.067 35.3629 48.477 35.5729 48.805C35.7819 49.133 36.0469 49.418 36.3659 49.659C36.6849 49.9 37.0269 50.11 37.3909 50.288C37.7549 50.466 38.0949 50.643 38.4099 50.821C38.7249 50.999 38.9859 51.197 39.1959 51.416C39.4049 51.635 39.5099 51.899 39.5099 52.209C39.5099 52.72 39.3619 53.105 39.0659 53.364C38.7699 53.624 38.3429 53.754 37.7879 53.754C37.6049 53.754 37.4099 53.735 37.1999 53.699C36.9899 53.663 36.7809 53.615 36.5709 53.555C36.3609 53.495 36.1579 53.432 35.9629 53.364C35.7669 53.296 35.6049 53.225 35.4779 53.152L35.1909 54.328C35.3459 54.465 35.5299 54.581 35.7449 54.677C35.9589 54.773 36.1839 54.848 36.4219 54.903C36.6589 54.958 36.8939 54.997 37.1259 55.019C37.3579 55.041 37.5839 55.053 37.8029 55.053C38.3129 55.053 38.7689 54.976 39.1699 54.821C39.5709 54.666 39.9079 54.459 40.1819 54.199C40.4559 53.939 40.6669 53.638 40.8179 53.297C40.9689 52.956 41.0439 52.602 41.0439 52.237C41.0439 51.699 40.9389 51.259 40.7299 50.918C40.5169 50.577 40.2549 50.292 39.9399 50.064Z" fill="#647696"/>
<path d="M25.5 14H13.5V18V20V22V24V26V28V30V32V36H23.5H25.5H46.5V32V30V28V26V24V22V18H25.5V14ZM15.5 20H23.5V22H15.5V20ZM15.5 24H23.5V26H15.5V24ZM15.5 28H23.5V30H15.5V28ZM23.5 34H15.5V32H23.5V34ZM44.5 34H25.5V32H44.5V34ZM44.5 30H25.5V28H44.5V30ZM44.5 26H25.5V24H44.5V26ZM44.5 20V22H25.5V20H44.5ZM15.5 18V16H23.5V18H15.5Z" fill="#647696"/>
</svg>
