<svg width="60" height="60" viewBox="0 0 60 60" fill="none" xmlns="http://www.w3.org/2000/svg">
<path d="M39.0858 2H9.5C8.94772 2 8.5 2.44771 8.5 3V57C8.5 57.5523 8.94772 58 9.5 58H50.5C51.0523 58 51.5 57.5523 51.5 57V14.4142C51.5 14.149 51.3946 13.8946 51.2071 13.7071L39.7929 2.29289C39.6054 2.10536 39.351 2 39.0858 2Z" fill="white"/>
<path fill-rule="evenodd" clip-rule="evenodd" d="M7.5 3C7.5 1.89543 8.39543 1 9.5 1H39.0858C39.6162 1 40.1249 1.21071 40.5 1.58579L51.9142 13L51.2071 13.7071L51.9142 13C52.2893 13.3751 52.5 13.8838 52.5 14.4142V57C52.5 58.1046 51.6046 59 50.5 59H9.5C8.39543 59 7.5 58.1046 7.5 57V3ZM39.0858 3L9.5 3V57H50.5V14.4142L39.0858 3Z" fill="#647696"/>
<path fill-rule="evenodd" clip-rule="evenodd" d="M38.5 13V2H40.5V13H51.5V15H40.5C39.3954 15 38.5 14.1046 38.5 13Z" fill="#647696"/>
<path fill-rule="evenodd" clip-rule="evenodd" d="M51.5 42H8.5V40H51.5V42Z" fill="#647696"/>
<path d="M21.715 44.9241L19.787 49.0251H19.65L17.873 44.9241H16L18.72 50.1051L16.164 55.0001H18.064L19.787 51.1991H19.924L21.523 55.0001H23.424L20.867 50.1051L23.588 44.9241H21.715Z" fill="#647696"/>
<path d="M30.506 51.8141L27.511 44.9241H25.843V55.0001H27.511V48.0681L29.781 53.6741H31.23L33.486 48.0681V55.0001H35.154V44.9241H33.486L30.506 51.8141Z" fill="#647696"/>
<path d="M39.3511 44.9241H37.6831V55.0001H43.9861V53.7561H39.3511V44.9241Z" fill="#647696"/>
<path d="M24.7073 18.293C24.3163 17.902 23.6842 17.902 23.2932 18.293L17.2932 24.293C16.9022 24.684 16.9022 25.316 17.2932 25.707L23.2932 31.707C23.4882 31.902 23.7442 32 24.0002 32C24.2562 32 24.5123 31.902 24.7073 31.707C25.0983 31.316 25.0983 30.684 24.7073 30.293L19.4142 25L24.7073 19.707C25.0983 19.316 25.0983 18.684 24.7073 18.293Z" fill="#647696"/>
<path d="M36.7073 18.293C36.3163 17.902 35.6842 17.902 35.2932 18.293C34.9022 18.684 34.9022 19.316 35.2932 19.707L40.5862 25L35.2932 30.293C34.9022 30.684 34.9022 31.316 35.2932 31.707C35.4882 31.902 35.7443 32 36.0003 32C36.2563 32 36.5123 31.902 36.7073 31.707L42.7073 25.707C43.0983 25.316 43.0983 24.684 42.7073 24.293L36.7073 18.293Z" fill="#647696"/>
<path d="M33.3333 15.0571C32.8103 14.8721 32.2413 15.1461 32.0573 15.6671L26.0573 32.6671C25.8733 33.1881 26.1473 33.7591 26.6673 33.9431C26.7773 33.9821 26.8903 34.0001 27.0003 34.0001C27.4123 34.0001 27.7983 33.7431 27.9433 33.3331L33.9433 16.3331C34.1273 15.8121 33.8543 15.2411 33.3333 15.0571Z" fill="#647696"/>
</svg>
