<svg width="60" height="60" viewBox="0 0 60 60" fill="none" xmlns="http://www.w3.org/2000/svg">
<path d="M39.0858 2H9.5C8.94772 2 8.5 2.44771 8.5 3V57C8.5 57.5523 8.94772 58 9.5 58H50.5C51.0523 58 51.5 57.5523 51.5 57V14.4142C51.5 14.149 51.3946 13.8946 51.2071 13.7071L39.7929 2.29289C39.6054 2.10536 39.351 2 39.0858 2Z" fill="white"/>
<path fill-rule="evenodd" clip-rule="evenodd" d="M7.5 3C7.5 1.89543 8.39543 1 9.5 1H39.0858C39.6162 1 40.1249 1.21071 40.5 1.58579L51.9142 13L51.2071 13.7071L51.9142 13C52.2893 13.3751 52.5 13.8838 52.5 14.4142V57C52.5 58.1046 51.6046 59 50.5 59H9.5C8.39543 59 7.5 58.1046 7.5 57V3ZM39.0858 3L9.5 3V57H50.5V14.4142L39.0858 3Z" fill="#647696"/>
<path fill-rule="evenodd" clip-rule="evenodd" d="M38.5 13V2H40.5V13H51.5V15H40.5C39.3954 15 38.5 14.1046 38.5 13Z" fill="#647696"/>
<path fill-rule="evenodd" clip-rule="evenodd" d="M51.5 42H8.5V40H51.5V42Z" fill="#647696"/>
<path d="M20 45.2501H25.086L24.799 45.4691L20 52.6741V54.0001H26.7V52.6741H21.627L21.901 52.4551L26.7 45.2501V43.9241H20V45.2501Z" fill="#647696"/>
<path d="M30.7061 43.9241H29.0381V54.0001H30.7061V43.9241Z" fill="#647696"/>
<path d="M38.505 44.7441C38.172 44.4711 37.796 44.2651 37.377 44.1291C36.958 43.9921 36.534 43.9241 36.106 43.9241H33.208V54.0001H34.849V50.3631H36.066C36.594 50.3631 37.078 50.2861 37.515 50.1311C37.952 49.9761 38.326 49.7571 38.636 49.4751C38.946 49.1931 39.187 48.8441 39.361 48.4291C39.534 48.0141 39.621 47.5521 39.621 47.0411C39.621 46.5581 39.518 46.1231 39.313 45.7351C39.108 45.3471 38.838 45.0181 38.505 44.7441ZM37.883 48.0731C37.782 48.3511 37.651 48.5671 37.487 48.7221C37.323 48.8771 37.143 48.9891 36.947 49.0571C36.751 49.1251 36.552 49.1601 36.352 49.1601H34.848V45.1681H36.078C36.497 45.1681 36.834 45.2341 37.09 45.3661C37.345 45.4981 37.543 45.6621 37.685 45.8581C37.826 46.0541 37.919 46.2591 37.965 46.4731C38.01 46.6871 38.033 46.8761 38.033 47.0401C38.034 47.4511 37.983 47.7951 37.883 48.0731Z" fill="#647696"/>
<path d="M29.9341 23H31.9341V21H29.9341V19H31.9341V17H29.9341V15H31.9341V13H29.9341V11H31.9341V9H29.9341V7H27.9341V9H25.9341V11H27.9341V13H25.9341V15H27.9341V17H25.9341V19H27.9341V21H25.9341V23H27.9341V25H23.9341V30C23.9341 32.757 26.1771 35 28.9341 35C31.6911 35 33.9341 32.757 33.9341 30V25H29.9341V23ZM31.9341 30C31.9341 31.654 30.5881 33 28.9341 33C27.2801 33 25.9341 31.654 25.9341 30V27H31.9341V30Z" fill="#647696"/>
<path d="M27.9341 31H29.9341C30.4861 31 30.9341 30.553 30.9341 30C30.9341 29.447 30.4861 29 29.9341 29H27.9341C27.3821 29 26.9341 29.447 26.9341 30C26.9341 30.553 27.3821 31 27.9341 31Z" fill="#647696"/>
</svg>
